%TF.GenerationSoftware,KiCad,Pcbnew,10.0.0*%
%TF.CreationDate,2026-04-21T22:26:15+01:00*%
%TF.ProjectId,mae,6d61652e-6b69-4636-9164-5f7063625858,rev?*%
%TF.SameCoordinates,Original*%
%TF.FileFunction,Copper,L1,Top*%
%TF.FilePolarity,Positive*%
%FSLAX46Y46*%
G04 Gerber Fmt 4.6, Leading zero omitted, Abs format (unit mm)*
G04 Created by KiCad (PCBNEW 10.0.0) date 2026-04-21 22:26:15*
%MOMM*%
%LPD*%
G01*
G04 APERTURE LIST*
G04 Aperture macros list*
%AMRoundRect*
0 Rectangle with rounded corners*
0 $1 Rounding radius*
0 $2 $3 $4 $5 $6 $7 $8 $9 X,Y pos of 4 corners*
0 Add a 4 corners polygon primitive as box body*
4,1,4,$2,$3,$4,$5,$6,$7,$8,$9,$2,$3,0*
0 Add four circle primitives for the rounded corners*
1,1,$1+$1,$2,$3*
1,1,$1+$1,$4,$5*
1,1,$1+$1,$6,$7*
1,1,$1+$1,$8,$9*
0 Add four rect primitives between the rounded corners*
20,1,$1+$1,$2,$3,$4,$5,0*
20,1,$1+$1,$4,$5,$6,$7,0*
20,1,$1+$1,$6,$7,$8,$9,0*
20,1,$1+$1,$8,$9,$2,$3,0*%
G04 Aperture macros list end*
%TA.AperFunction,ComponentPad*%
%ADD10RoundRect,0.250000X0.550000X-0.550000X0.550000X0.550000X-0.550000X0.550000X-0.550000X-0.550000X0*%
%TD*%
%TA.AperFunction,ComponentPad*%
%ADD11C,1.600000*%
%TD*%
%TA.AperFunction,SMDPad,CuDef*%
%ADD12RoundRect,0.150000X-0.150000X0.512500X-0.150000X-0.512500X0.150000X-0.512500X0.150000X0.512500X0*%
%TD*%
%TA.AperFunction,ComponentPad*%
%ADD13R,0.850000X0.850000*%
%TD*%
%TA.AperFunction,ComponentPad*%
%ADD14C,0.850000*%
%TD*%
%TA.AperFunction,ComponentPad*%
%ADD15RoundRect,0.250000X0.550000X0.550000X-0.550000X0.550000X-0.550000X-0.550000X0.550000X-0.550000X0*%
%TD*%
%TA.AperFunction,ComponentPad*%
%ADD16R,1.500000X1.050000*%
%TD*%
%TA.AperFunction,ComponentPad*%
%ADD17O,1.500000X1.050000*%
%TD*%
%TA.AperFunction,ComponentPad*%
%ADD18RoundRect,0.250000X0.350000X0.625000X-0.350000X0.625000X-0.350000X-0.625000X0.350000X-0.625000X0*%
%TD*%
%TA.AperFunction,ComponentPad*%
%ADD19O,1.200000X1.750000*%
%TD*%
%TA.AperFunction,ComponentPad*%
%ADD20RoundRect,0.250000X-0.550000X-0.550000X0.550000X-0.550000X0.550000X0.550000X-0.550000X0.550000X0*%
%TD*%
%TA.AperFunction,ComponentPad*%
%ADD21RoundRect,0.250000X-0.350000X-0.625000X0.350000X-0.625000X0.350000X0.625000X-0.350000X0.625000X0*%
%TD*%
%TA.AperFunction,ComponentPad*%
%ADD22RoundRect,0.250000X-0.625000X0.350000X-0.625000X-0.350000X0.625000X-0.350000X0.625000X0.350000X0*%
%TD*%
%TA.AperFunction,ComponentPad*%
%ADD23O,1.750000X1.200000*%
%TD*%
%TA.AperFunction,ComponentPad*%
%ADD24RoundRect,0.250000X-0.750000X0.750000X-0.750000X-0.750000X0.750000X-0.750000X0.750000X0.750000X0*%
%TD*%
%TA.AperFunction,ComponentPad*%
%ADD25C,2.000000*%
%TD*%
%TA.AperFunction,ViaPad*%
%ADD26C,0.600000*%
%TD*%
%TA.AperFunction,Conductor*%
%ADD27C,0.400000*%
%TD*%
%TA.AperFunction,Conductor*%
%ADD28C,0.800000*%
%TD*%
%TA.AperFunction,Conductor*%
%ADD29C,0.250000*%
%TD*%
%TA.AperFunction,Conductor*%
%ADD30C,0.200000*%
%TD*%
G04 APERTURE END LIST*
D10*
%TO.P,C6,1*%
%TO.N,+9V*%
X172163093Y-105202256D03*
D11*
%TO.P,C6,2*%
%TO.N,GND*%
X172163093Y-102702256D03*
%TD*%
D12*
%TO.P,U9,1,IO1_1*%
%TO.N,unconnected-(U9-IO1-Pad1)*%
X102039687Y-115151163D03*
%TO.P,U9,2,IO2_2*%
%TO.N,Net-(J1-Pin_2)*%
X100139687Y-115151163D03*
%TO.P,U9,3,GND_3*%
%TO.N,GND*%
X101089687Y-117426163D03*
%TD*%
D13*
%TO.P,AUDIO OUT,1,1_1*%
%TO.N,/AUDIO_OUT-*%
X157750000Y-91000000D03*
D14*
%TO.P,AUDIO OUT,2,2_2*%
%TO.N,/AUDIO_OUT+*%
X156500000Y-91000000D03*
%TO.P,AUDIO OUT,3,3_3*%
%TO.N,GND*%
X155250000Y-91000000D03*
%TD*%
D15*
%TO.P,C10,1*%
%TO.N,Net-(C10-Pad1)*%
X126250000Y-119500000D03*
D11*
%TO.P,C10,2*%
%TO.N,GND*%
X123750000Y-119500000D03*
%TD*%
D12*
%TO.P,U1,1,VDD_1*%
%TO.N,Net-(J2-Pin_1)*%
X106918583Y-98245012D03*
%TO.P,U1,2,GND_2*%
%TO.N,GND*%
X105968583Y-98245012D03*
%TO.P,U1,3,EN_3*%
%TO.N,Net-(J2-Pin_1)*%
X105018583Y-98245012D03*
%TO.P,U1,4,NC_4*%
%TO.N,unconnected-(U1-NC-Pad4)*%
X105018583Y-100520012D03*
%TO.P,U1,5,OUT_5*%
%TO.N,+9V*%
X106918583Y-100520012D03*
%TD*%
D11*
%TO.P,R9,1*%
%TO.N,Net-(U4A--)*%
X142229476Y-106238934D03*
%TO.P,R9,2*%
%TO.N,/U4A_AUDIO*%
X149849476Y-106238934D03*
%TD*%
D16*
%TO.P,Q1,1,D_1*%
%TO.N,/DRAIN*%
X124539476Y-108198934D03*
D17*
%TO.P,Q1,2,S_2*%
%TO.N,/SOURCE*%
X124539476Y-109468934D03*
%TO.P,Q1,3,G_3*%
%TO.N,/GATE*%
X124539476Y-110738934D03*
%TD*%
D11*
%TO.P,C1,1*%
%TO.N,Net-(C1-Pad1)*%
X114500000Y-111363367D03*
%TO.P,C1,2*%
%TO.N,/GATE*%
X119500000Y-111363367D03*
%TD*%
D18*
%TO.P,POWER,1,Pin_1_1*%
%TO.N,Net-(J2-Pin_1)*%
X106997792Y-93568250D03*
D19*
%TO.P,POWER,2,Pin_2_2*%
%TO.N,GND*%
X104997792Y-93568250D03*
%TD*%
D11*
%TO.P,C30,1*%
%TO.N,Net-(U4B--)*%
X168108845Y-117098240D03*
%TO.P,C30,2*%
%TO.N,Net-(C30-Pad2)*%
X168108845Y-112098240D03*
%TD*%
%TO.P,R13,1*%
%TO.N,/U4A_AUDIO*%
X150000000Y-103000000D03*
%TO.P,R13,2*%
%TO.N,Net-(U4B--)*%
X157620000Y-103000000D03*
%TD*%
%TO.P,C5,1*%
%TO.N,+9V*%
X114750000Y-92750000D03*
%TO.P,C5,2*%
%TO.N,GND*%
X119750000Y-92750000D03*
%TD*%
D20*
%TO.P,C2,1*%
%TO.N,/DRAIN*%
X129031037Y-104838087D03*
D11*
%TO.P,C2,2*%
%TO.N,/PREAMP_OUT*%
X131531037Y-104838087D03*
%TD*%
D20*
%TO.P,C8,1*%
%TO.N,/U4A_AUDIO*%
X151816035Y-97860757D03*
D11*
%TO.P,C8,2*%
%TO.N,/AUDIO_OUT+*%
X154316035Y-97860757D03*
%TD*%
D21*
%TO.P,TEXTURE,1,1_1*%
%TO.N,Net-(C10-Pad1)*%
X134250000Y-120550000D03*
D19*
%TO.P,TEXTURE,2,2_2*%
%TO.N,GND*%
X136250000Y-120550000D03*
%TO.P,TEXTURE,3,3_3*%
X138250000Y-120550000D03*
%TD*%
D11*
%TO.P,R3,1*%
%TO.N,Net-(C10-Pad1)*%
X130006196Y-117053861D03*
%TO.P,R3,2*%
%TO.N,/SOURCE*%
X130006196Y-109433861D03*
%TD*%
D22*
%TO.P,GUITAR IN,1,Pin_1_1*%
%TO.N,GND*%
X100289476Y-109393284D03*
D23*
%TO.P,GUITAR IN,2,Pin_2_2*%
%TO.N,Net-(J1-Pin_2)*%
X100289476Y-111393284D03*
%TD*%
D11*
%TO.P,R11,1*%
%TO.N,Net-(U4B--)*%
X164134515Y-119750847D03*
%TO.P,R11,2*%
%TO.N,Net-(C30-Pad2)*%
X164134515Y-112130847D03*
%TD*%
D10*
%TO.P,C9,1*%
%TO.N,Net-(C30-Pad2)*%
X162152109Y-101113470D03*
D11*
%TO.P,C9,2*%
%TO.N,/AUDIO_OUT-*%
X162152109Y-98613470D03*
%TD*%
%TO.P,C25,1*%
%TO.N,/VBIAS*%
X160532625Y-118390984D03*
%TO.P,C25,2*%
%TO.N,GND*%
X160532625Y-123390984D03*
%TD*%
%TO.P,R5,1*%
%TO.N,+9V*%
X172000000Y-110190000D03*
%TO.P,R5,2*%
%TO.N,/VBIAS*%
X172000000Y-117810000D03*
%TD*%
%TO.P,R2,1*%
%TO.N,/DRAIN*%
X124620413Y-105180183D03*
%TO.P,R2,2*%
%TO.N,+9V*%
X124620413Y-97560183D03*
%TD*%
D20*
%TO.P,U4,1*%
%TO.N,/U4A_AUDIO*%
X153112575Y-107186235D03*
D11*
%TO.P,U4,2,-_2*%
%TO.N,Net-(U4A--)*%
X153112575Y-109726235D03*
%TO.P,U4,3,+_3*%
%TO.N,/VBIAS*%
X153112575Y-112266235D03*
%TO.P,U4,4,V-_4*%
%TO.N,GND*%
X153112575Y-114806235D03*
%TO.P,U4,5,+_5*%
%TO.N,/VBIAS*%
X160732575Y-114806235D03*
%TO.P,U4,6,-_6*%
%TO.N,Net-(U4B--)*%
X160732575Y-112266235D03*
%TO.P,U4,7*%
%TO.N,Net-(C30-Pad2)*%
X160732575Y-109726235D03*
%TO.P,U4,8,V+_8*%
%TO.N,+9V*%
X160732575Y-107186235D03*
%TD*%
%TO.P,R4,1*%
%TO.N,Net-(J1-Pin_2)*%
X103680263Y-111304462D03*
%TO.P,R4,2*%
%TO.N,Net-(C1-Pad1)*%
X111300263Y-111304462D03*
%TD*%
%TO.P,R10,1*%
%TO.N,GND*%
X148500000Y-125060000D03*
%TO.P,R10,2*%
%TO.N,/VBIAS*%
X148500000Y-117440000D03*
%TD*%
%TO.P,R1,1*%
%TO.N,GND*%
X111440000Y-108000000D03*
%TO.P,R1,2*%
%TO.N,/GATE*%
X119060000Y-108000000D03*
%TD*%
%TO.P,C28,1*%
%TO.N,Net-(U4A--)*%
X148576331Y-114250000D03*
%TO.P,C28,2*%
%TO.N,/U4A_AUDIO*%
X148576331Y-109250000D03*
%TD*%
%TO.P,R12,1*%
%TO.N,/PREAMP_OUT*%
X134419476Y-110738934D03*
%TO.P,R12,2*%
%TO.N,Net-(U4A--)*%
X142039476Y-110738934D03*
%TD*%
D15*
%TO.P,C7,1*%
%TO.N,/VBIAS*%
X156192695Y-120119683D03*
D11*
%TO.P,C7,2*%
%TO.N,GND*%
X153692695Y-120119683D03*
%TD*%
%TO.P,C24,1*%
%TO.N,+9V*%
X165822646Y-109217554D03*
%TO.P,C24,2*%
%TO.N,GND*%
X165822646Y-104217554D03*
%TD*%
D24*
%TO.P,C3,1*%
%TO.N,+9V*%
X114750000Y-97632323D03*
D25*
%TO.P,C3,2*%
%TO.N,GND*%
X114750000Y-102632323D03*
%TD*%
D26*
%TO.N,GND*%
X143250000Y-125000000D03*
X155240158Y-107094487D03*
X143750000Y-98500000D03*
X146500000Y-115000000D03*
X133500000Y-101311913D03*
X138750000Y-98500000D03*
X143750000Y-101311913D03*
X133500000Y-98500000D03*
X127750000Y-98500000D03*
X155240158Y-109622037D03*
X151000000Y-109750000D03*
X164162077Y-114023466D03*
X148750000Y-98500000D03*
X156193210Y-121988735D03*
X143250000Y-115000000D03*
X138750000Y-101311913D03*
X139500000Y-115000000D03*
X143250000Y-120000000D03*
X136000000Y-115000000D03*
X155218084Y-102836984D03*
X155250000Y-112250000D03*
X151764705Y-102544118D03*
X158750000Y-109000000D03*
X155250000Y-115000000D03*
X144887200Y-109952352D03*
X158500000Y-112250000D03*
X127750000Y-101311913D03*
X154412703Y-105082290D03*
X162038485Y-116536295D03*
%TD*%
%TO.N,+9V*%
D27*
X106938595Y-100500000D02*
X106918583Y-100520012D01*
D28*
X108250000Y-100000000D02*
X110617677Y-97632323D01*
D27*
X107750000Y-100500000D02*
X106938595Y-100500000D01*
X108250000Y-100000000D02*
X107750000Y-100500000D01*
D28*
X110617677Y-97632323D02*
X114750000Y-97632323D01*
X114750000Y-97632323D02*
X114750000Y-92750000D01*
X114750000Y-97632323D02*
X124548273Y-97632323D01*
X124548273Y-97632323D02*
X124620413Y-97560183D01*
X171762352Y-109952352D02*
X172000000Y-110190000D01*
X172163093Y-105202256D02*
X172163093Y-110026907D01*
X165822646Y-109217554D02*
X166557444Y-109952352D01*
X163791327Y-107186235D02*
X165822646Y-109217554D01*
X160732575Y-107186235D02*
X163791327Y-107186235D01*
X166557444Y-109952352D02*
X171762352Y-109952352D01*
X172163093Y-110026907D02*
X172000000Y-110190000D01*
X124620413Y-97370413D02*
X124620413Y-97560183D01*
%TO.N,GND*%
D27*
X104997792Y-95997792D02*
X104997792Y-93568250D01*
X105968583Y-96968583D02*
X104997792Y-95997792D01*
X105968583Y-98245012D02*
X105968583Y-96968583D01*
%TO.N,Net-(J1-Pin_2)*%
D29*
X103680263Y-111304462D02*
X100378298Y-111304462D01*
X100378298Y-111304462D02*
X100289476Y-111393284D01*
X100139687Y-115151163D02*
X100139687Y-111543073D01*
X100139687Y-111543073D02*
X100289476Y-111393284D01*
%TO.N,/AUDIO_OUT-*%
D30*
X162152109Y-98613470D02*
X159713470Y-98613470D01*
X157750000Y-91000000D02*
X157350000Y-91400000D01*
X157350000Y-91400000D02*
X157350000Y-96250000D01*
X159713470Y-98613470D02*
X157350000Y-96250000D01*
%TO.N,/AUDIO_OUT+*%
X156900000Y-96850000D02*
X155980760Y-97769238D01*
X155980760Y-97769238D02*
X155889243Y-97860757D01*
X156151149Y-95800601D02*
X156151149Y-95920601D01*
X156391149Y-94960601D02*
X156660000Y-94960601D01*
X156500000Y-91000000D02*
X156900000Y-91400000D01*
X156391149Y-96160601D02*
X156660000Y-96160601D01*
X156900000Y-96400601D02*
X156900000Y-96520601D01*
X156900000Y-91400000D02*
X156900000Y-94120601D01*
X156660000Y-94360601D02*
X156391149Y-94360601D01*
X156900000Y-96520601D02*
X156900000Y-96850000D01*
X156151149Y-94600601D02*
X156151149Y-94720601D01*
X156660000Y-95560601D02*
X156391149Y-95560601D01*
X155889243Y-97860757D02*
X154316035Y-97860757D01*
X156900000Y-95200601D02*
X156900000Y-95320601D01*
X156391149Y-95560601D02*
G75*
G03*
X156151101Y-95800601I-49J-239999D01*
G01*
X156391149Y-94360601D02*
G75*
G03*
X156151101Y-94600601I-49J-239999D01*
G01*
X156151149Y-95920601D02*
G75*
G03*
X156391149Y-96160551I239951J1D01*
G01*
X156151149Y-94720601D02*
G75*
G03*
X156391149Y-94960551I239951J1D01*
G01*
X156900000Y-94120601D02*
G75*
G02*
X156660000Y-94360600I-240000J1D01*
G01*
X156900000Y-95320601D02*
G75*
G02*
X156660000Y-95560600I-240000J1D01*
G01*
X156660000Y-96160601D02*
G75*
G02*
X156899999Y-96400601I0J-239999D01*
G01*
X156660000Y-94960601D02*
G75*
G02*
X156899999Y-95200601I0J-239999D01*
G01*
%TO.N,Net-(C10-Pad1)*%
D29*
X134250000Y-119000000D02*
X134250000Y-120550000D01*
X129950361Y-117109696D02*
X130006196Y-117053861D01*
X129553861Y-117053861D02*
X127107722Y-119500000D01*
X127107722Y-119500000D02*
X126250000Y-119500000D01*
X132303861Y-117053861D02*
X134250000Y-119000000D01*
X130006196Y-117053861D02*
X129553861Y-117053861D01*
X130006196Y-117053861D02*
X132303861Y-117053861D01*
%TO.N,Net-(J2-Pin_1)*%
D27*
X105377305Y-99377305D02*
X105018583Y-99018583D01*
X106918583Y-98245012D02*
X106918583Y-98994464D01*
X107000000Y-96500000D02*
X106918583Y-96581417D01*
X106918583Y-98994464D02*
X106535742Y-99377305D01*
D28*
X106997792Y-96497792D02*
X107000000Y-96500000D01*
X106997792Y-93568250D02*
X106997792Y-96497792D01*
D27*
X106918583Y-96581417D02*
X106918583Y-98245012D01*
X105018583Y-99018583D02*
X105018583Y-98245012D01*
X106535742Y-99377305D02*
X105377305Y-99377305D01*
%TO.N,Net-(U4A--)*%
D29*
X142229476Y-110548934D02*
X142039476Y-110738934D01*
X142229476Y-106238934D02*
X142229476Y-110548934D01*
D30*
X148576331Y-114250000D02*
X145550542Y-114250000D01*
X148588810Y-114250000D02*
X153112575Y-109726235D01*
X148576331Y-114250000D02*
X148588810Y-114250000D01*
D29*
X152805373Y-109726235D02*
X153112575Y-109726235D01*
D30*
X145550542Y-114250000D02*
X142039476Y-110738934D01*
%TO.N,/U4A_AUDIO*%
X150000000Y-99676792D02*
X150000000Y-103000000D01*
X152165274Y-106238934D02*
X153112575Y-107186235D01*
X148576331Y-107512079D02*
X149849476Y-106238934D01*
X148576331Y-108955277D02*
X148576331Y-107512079D01*
X149849476Y-106238934D02*
X149849476Y-103150524D01*
X151816035Y-97860757D02*
X150000000Y-99676792D01*
X149849476Y-103150524D02*
X150000000Y-103000000D01*
X149849476Y-106238934D02*
X152165274Y-106238934D01*
%TO.N,/DRAIN*%
D29*
X124539476Y-105261120D02*
X124620413Y-105180183D01*
X124620413Y-108117997D02*
X124539476Y-108198934D01*
X124539476Y-108198934D02*
X124539476Y-105261120D01*
D30*
X124962509Y-104838087D02*
X124620413Y-105180183D01*
X129031037Y-104838087D02*
X124962509Y-104838087D01*
%TO.N,/SOURCE*%
D29*
X130006196Y-109433861D02*
X124574549Y-109433861D01*
X124574549Y-109433861D02*
X124539476Y-109468934D01*
%TO.N,/GATE*%
D30*
X123915043Y-111363367D02*
X124539476Y-110738934D01*
X119500000Y-111363367D02*
X119500000Y-108440000D01*
X119500000Y-108440000D02*
X119060000Y-108000000D01*
X119500000Y-111363367D02*
X123915043Y-111363367D01*
%TO.N,Net-(C1-Pad1)*%
X114500000Y-111363367D02*
X111359168Y-111363367D01*
X111359168Y-111363367D02*
X111300263Y-111304462D01*
%TO.N,Net-(U4B--)*%
X168108845Y-117098240D02*
X166787122Y-117098240D01*
D29*
X157620000Y-103000000D02*
X157620000Y-109153660D01*
D30*
X160732575Y-112266235D02*
X164134515Y-115668175D01*
X164134515Y-115668175D02*
X164134515Y-119750847D01*
X157620000Y-109153660D02*
X160732575Y-112266235D01*
X166787122Y-117098240D02*
X164134515Y-119750847D01*
%TO.N,Net-(C30-Pad2)*%
X162152109Y-101113470D02*
X162152109Y-103175273D01*
X160732575Y-109726235D02*
X163137187Y-112130847D01*
X163169794Y-112098240D02*
X163137187Y-112130847D01*
X163137187Y-112130847D02*
X164134515Y-112130847D01*
X159250000Y-108243660D02*
X159250000Y-106077382D01*
X160732575Y-109726235D02*
X159250000Y-108243660D01*
X162152109Y-103175273D02*
X159250000Y-106077382D01*
X168108845Y-112098240D02*
X163169794Y-112098240D01*
%TO.N,/PREAMP_OUT*%
X134419476Y-110738934D02*
X134419476Y-107726526D01*
X134419476Y-107726526D02*
X131531037Y-104838087D01*
%TO.N,/VBIAS*%
D27*
X160532625Y-118390984D02*
X157921394Y-118390984D01*
X153112575Y-112266235D02*
X148500000Y-116878810D01*
X153112575Y-112266235D02*
X153766235Y-112266235D01*
X160732575Y-118191034D02*
X160532625Y-118390984D01*
X153766235Y-112266235D02*
X156306235Y-114806235D01*
X156306235Y-114806235D02*
X160732575Y-114806235D01*
X157921394Y-118390984D02*
X156192695Y-120119683D01*
X160732575Y-114806235D02*
X160732575Y-118191034D01*
X148500000Y-116878810D02*
X148500000Y-117440000D01*
%TD*%
%TA.AperFunction,Conductor*%
%TO.N,GND*%
G36*
X137949925Y-120319745D02*
G01*
X137900556Y-120405255D01*
X137875000Y-120500630D01*
X137875000Y-120599370D01*
X137900556Y-120694745D01*
X137949925Y-120780255D01*
X137969670Y-120800000D01*
X136530330Y-120800000D01*
X136550075Y-120780255D01*
X136599444Y-120694745D01*
X136625000Y-120599370D01*
X136625000Y-120500630D01*
X136599444Y-120405255D01*
X136550075Y-120319745D01*
X136530330Y-120300000D01*
X137969670Y-120300000D01*
X137949925Y-120319745D01*
G37*
%TD.AperFunction*%
%TA.AperFunction,Conductor*%
G36*
X172002855Y-86750632D02*
G01*
X172363311Y-86767296D01*
X172374700Y-86768352D01*
X172729238Y-86817808D01*
X172740482Y-86819910D01*
X173088944Y-86901867D01*
X173099934Y-86904994D01*
X173439368Y-87018761D01*
X173450022Y-87022889D01*
X173777496Y-87167482D01*
X173787723Y-87172574D01*
X174030656Y-87307887D01*
X174100453Y-87346764D01*
X174110191Y-87352793D01*
X174405513Y-87555093D01*
X174414653Y-87561996D01*
X174690035Y-87790670D01*
X174698499Y-87798386D01*
X174951613Y-88051500D01*
X174959329Y-88059964D01*
X175188003Y-88335346D01*
X175194906Y-88344486D01*
X175397206Y-88639808D01*
X175403235Y-88649546D01*
X175515780Y-88851602D01*
X175571677Y-88951957D01*
X175577418Y-88962263D01*
X175582523Y-88972516D01*
X175727105Y-89299964D01*
X175731243Y-89310644D01*
X175845001Y-89650052D01*
X175848135Y-89661068D01*
X175930087Y-90009509D01*
X175932192Y-90020768D01*
X175981646Y-90375291D01*
X175982703Y-90386695D01*
X175999368Y-90747144D01*
X175999500Y-90752871D01*
X175999500Y-122997128D01*
X175999368Y-123002855D01*
X175982703Y-123363304D01*
X175981646Y-123374708D01*
X175932192Y-123729231D01*
X175930087Y-123740490D01*
X175848135Y-124088931D01*
X175845001Y-124099947D01*
X175731243Y-124439355D01*
X175727105Y-124450035D01*
X175582523Y-124777483D01*
X175577418Y-124787736D01*
X175403235Y-125100453D01*
X175397206Y-125110191D01*
X175194906Y-125405513D01*
X175188003Y-125414653D01*
X174959329Y-125690035D01*
X174951613Y-125698499D01*
X174698499Y-125951613D01*
X174690035Y-125959329D01*
X174414653Y-126188003D01*
X174405513Y-126194906D01*
X174110191Y-126397206D01*
X174100453Y-126403235D01*
X173787736Y-126577418D01*
X173777483Y-126582523D01*
X173450035Y-126727105D01*
X173439355Y-126731243D01*
X173099947Y-126845001D01*
X173088931Y-126848135D01*
X172740490Y-126930087D01*
X172729231Y-126932192D01*
X172374708Y-126981646D01*
X172363304Y-126982703D01*
X172002855Y-126999368D01*
X171997128Y-126999500D01*
X97252872Y-126999500D01*
X97247145Y-126999368D01*
X96886695Y-126982703D01*
X96875291Y-126981646D01*
X96520768Y-126932192D01*
X96509509Y-126930087D01*
X96161068Y-126848135D01*
X96150052Y-126845001D01*
X95810644Y-126731243D01*
X95799964Y-126727105D01*
X95472511Y-126582520D01*
X95462268Y-126577420D01*
X95360316Y-126520633D01*
X95149546Y-126403235D01*
X95139808Y-126397206D01*
X94844486Y-126194906D01*
X94835360Y-126188015D01*
X94835346Y-126188003D01*
X94834888Y-126187622D01*
X94834886Y-126187620D01*
X94834875Y-126187612D01*
X94559964Y-125959329D01*
X94551500Y-125951613D01*
X94298386Y-125698499D01*
X94290670Y-125690035D01*
X94061996Y-125414653D01*
X94055093Y-125405513D01*
X93852793Y-125110191D01*
X93846764Y-125100453D01*
X93767241Y-124957682D01*
X93672574Y-124787723D01*
X93667482Y-124777496D01*
X93522889Y-124450022D01*
X93518760Y-124439365D01*
X93506427Y-124402567D01*
X93500000Y-124363164D01*
X93500000Y-122868872D01*
X95249500Y-122868872D01*
X95249500Y-123131127D01*
X95267470Y-123267614D01*
X95283730Y-123391116D01*
X95351602Y-123644418D01*
X95351605Y-123644428D01*
X95451953Y-123886690D01*
X95451958Y-123886700D01*
X95583075Y-124113803D01*
X95742718Y-124321851D01*
X95742726Y-124321860D01*
X95928140Y-124507274D01*
X95928148Y-124507281D01*
X96136196Y-124666924D01*
X96363299Y-124798041D01*
X96363309Y-124798046D01*
X96605571Y-124898394D01*
X96605581Y-124898398D01*
X96858884Y-124966270D01*
X97118880Y-125000500D01*
X97118887Y-125000500D01*
X97381113Y-125000500D01*
X97381120Y-125000500D01*
X97641116Y-124966270D01*
X97673167Y-124957682D01*
X147200000Y-124957682D01*
X147200000Y-125162317D01*
X147232009Y-125364417D01*
X147295244Y-125559031D01*
X147388141Y-125741350D01*
X147388147Y-125741359D01*
X147420523Y-125785921D01*
X147420524Y-125785922D01*
X148100000Y-125106446D01*
X148100000Y-125112661D01*
X148127259Y-125214394D01*
X148179920Y-125305606D01*
X148254394Y-125380080D01*
X148345606Y-125432741D01*
X148447339Y-125460000D01*
X148453553Y-125460000D01*
X147774076Y-126139474D01*
X147818650Y-126171859D01*
X148000968Y-126264755D01*
X148195582Y-126327990D01*
X148397683Y-126360000D01*
X148602317Y-126360000D01*
X148804417Y-126327990D01*
X148999031Y-126264755D01*
X149181349Y-126171859D01*
X149225921Y-126139474D01*
X148546447Y-125460000D01*
X148552661Y-125460000D01*
X148654394Y-125432741D01*
X148745606Y-125380080D01*
X148820080Y-125305606D01*
X148872741Y-125214394D01*
X148900000Y-125112661D01*
X148900000Y-125106448D01*
X149579474Y-125785922D01*
X149579474Y-125785921D01*
X149611859Y-125741349D01*
X149704755Y-125559031D01*
X149767990Y-125364417D01*
X149800000Y-125162317D01*
X149800000Y-124957682D01*
X149767990Y-124755582D01*
X149704754Y-124560965D01*
X149663243Y-124479495D01*
X149663242Y-124479494D01*
X149611859Y-124378650D01*
X149579474Y-124334077D01*
X149579474Y-124334076D01*
X148900000Y-125013551D01*
X148900000Y-125007339D01*
X148872741Y-124905606D01*
X148820080Y-124814394D01*
X148745606Y-124739920D01*
X148654394Y-124687259D01*
X148552661Y-124660000D01*
X148546446Y-124660000D01*
X149225922Y-123980524D01*
X149225921Y-123980523D01*
X149181359Y-123948147D01*
X149181350Y-123948141D01*
X148999031Y-123855244D01*
X148804417Y-123792009D01*
X148602317Y-123760000D01*
X148397683Y-123760000D01*
X148195582Y-123792009D01*
X148000968Y-123855244D01*
X147818644Y-123948143D01*
X147774077Y-123980523D01*
X147774077Y-123980524D01*
X148453554Y-124660000D01*
X148447339Y-124660000D01*
X148345606Y-124687259D01*
X148254394Y-124739920D01*
X148179920Y-124814394D01*
X148127259Y-124905606D01*
X148100000Y-125007339D01*
X148100000Y-125013553D01*
X147420524Y-124334077D01*
X147420523Y-124334077D01*
X147388143Y-124378644D01*
X147295244Y-124560968D01*
X147232009Y-124755582D01*
X147200000Y-124957682D01*
X97673167Y-124957682D01*
X97894419Y-124898398D01*
X97945935Y-124877059D01*
X98039618Y-124838255D01*
X98136690Y-124798046D01*
X98136691Y-124798045D01*
X98136697Y-124798043D01*
X98363803Y-124666924D01*
X98571851Y-124507282D01*
X98571855Y-124507277D01*
X98571860Y-124507274D01*
X98757274Y-124321860D01*
X98757277Y-124321855D01*
X98757282Y-124321851D01*
X98916924Y-124113803D01*
X99048043Y-123886697D01*
X99148398Y-123644419D01*
X99216270Y-123391116D01*
X99229758Y-123288666D01*
X159232625Y-123288666D01*
X159232625Y-123493301D01*
X159264634Y-123695401D01*
X159327869Y-123890015D01*
X159420766Y-124072334D01*
X159420772Y-124072343D01*
X159453148Y-124116905D01*
X159453149Y-124116906D01*
X160132625Y-123437430D01*
X160132625Y-123443645D01*
X160159884Y-123545378D01*
X160212545Y-123636590D01*
X160287019Y-123711064D01*
X160378231Y-123763725D01*
X160479964Y-123790984D01*
X160486178Y-123790984D01*
X159806701Y-124470458D01*
X159851275Y-124502843D01*
X160033593Y-124595739D01*
X160228207Y-124658974D01*
X160430308Y-124690984D01*
X160634942Y-124690984D01*
X160837042Y-124658974D01*
X161031656Y-124595739D01*
X161213974Y-124502843D01*
X161258546Y-124470458D01*
X160579072Y-123790984D01*
X160585286Y-123790984D01*
X160687019Y-123763725D01*
X160778231Y-123711064D01*
X160852705Y-123636590D01*
X160905366Y-123545378D01*
X160932625Y-123443645D01*
X160932625Y-123437432D01*
X161612099Y-124116906D01*
X161612099Y-124116905D01*
X161644484Y-124072333D01*
X161737380Y-123890015D01*
X161800615Y-123695401D01*
X161832625Y-123493301D01*
X161832625Y-123288666D01*
X161800615Y-123086566D01*
X161741015Y-122903140D01*
X161737379Y-122891952D01*
X161725619Y-122868872D01*
X169999500Y-122868872D01*
X169999500Y-123131127D01*
X170017470Y-123267614D01*
X170033730Y-123391116D01*
X170101602Y-123644418D01*
X170101605Y-123644428D01*
X170201953Y-123886690D01*
X170201958Y-123886700D01*
X170333075Y-124113803D01*
X170492718Y-124321851D01*
X170492726Y-124321860D01*
X170678140Y-124507274D01*
X170678148Y-124507281D01*
X170886196Y-124666924D01*
X171113299Y-124798041D01*
X171113309Y-124798046D01*
X171355571Y-124898394D01*
X171355581Y-124898398D01*
X171608884Y-124966270D01*
X171868880Y-125000500D01*
X171868887Y-125000500D01*
X172131113Y-125000500D01*
X172131120Y-125000500D01*
X172391116Y-124966270D01*
X172644419Y-124898398D01*
X172886697Y-124798043D01*
X173113803Y-124666924D01*
X173321851Y-124507282D01*
X173321855Y-124507277D01*
X173321860Y-124507274D01*
X173507274Y-124321860D01*
X173507277Y-124321855D01*
X173507282Y-124321851D01*
X173666924Y-124113803D01*
X173798043Y-123886697D01*
X173898398Y-123644419D01*
X173966270Y-123391116D01*
X174000500Y-123131120D01*
X174000500Y-122868880D01*
X173966270Y-122608884D01*
X173898398Y-122355581D01*
X173898394Y-122355571D01*
X173798046Y-122113309D01*
X173798041Y-122113299D01*
X173666924Y-121886196D01*
X173507281Y-121678148D01*
X173507274Y-121678140D01*
X173321860Y-121492726D01*
X173321851Y-121492718D01*
X173113803Y-121333075D01*
X172886700Y-121201958D01*
X172886690Y-121201953D01*
X172644428Y-121101605D01*
X172644421Y-121101603D01*
X172644419Y-121101602D01*
X172391116Y-121033730D01*
X172333339Y-121026123D01*
X172131127Y-120999500D01*
X172131120Y-120999500D01*
X171868880Y-120999500D01*
X171868872Y-120999500D01*
X171637772Y-121029926D01*
X171608884Y-121033730D01*
X171355581Y-121101602D01*
X171355571Y-121101605D01*
X171113309Y-121201953D01*
X171113299Y-121201958D01*
X170886196Y-121333075D01*
X170678148Y-121492718D01*
X170492718Y-121678148D01*
X170333075Y-121886196D01*
X170201958Y-122113299D01*
X170201953Y-122113309D01*
X170101605Y-122355571D01*
X170101602Y-122355581D01*
X170033730Y-122608885D01*
X169999500Y-122868872D01*
X161725619Y-122868872D01*
X161644484Y-122709634D01*
X161612099Y-122665061D01*
X161612099Y-122665060D01*
X160932625Y-123344535D01*
X160932625Y-123338323D01*
X160905366Y-123236590D01*
X160852705Y-123145378D01*
X160778231Y-123070904D01*
X160687019Y-123018243D01*
X160585286Y-122990984D01*
X160579071Y-122990984D01*
X161258547Y-122311508D01*
X161258546Y-122311507D01*
X161213984Y-122279131D01*
X161213975Y-122279125D01*
X161031656Y-122186228D01*
X160837042Y-122122993D01*
X160634942Y-122090984D01*
X160430308Y-122090984D01*
X160228207Y-122122993D01*
X160033593Y-122186228D01*
X159851269Y-122279127D01*
X159806702Y-122311507D01*
X159806702Y-122311508D01*
X160486179Y-122990984D01*
X160479964Y-122990984D01*
X160378231Y-123018243D01*
X160287019Y-123070904D01*
X160212545Y-123145378D01*
X160159884Y-123236590D01*
X160132625Y-123338323D01*
X160132625Y-123344537D01*
X159453149Y-122665061D01*
X159453148Y-122665061D01*
X159420768Y-122709628D01*
X159327869Y-122891952D01*
X159264634Y-123086566D01*
X159232625Y-123288666D01*
X99229758Y-123288666D01*
X99250500Y-123131120D01*
X99250500Y-122868880D01*
X99216270Y-122608884D01*
X99148398Y-122355581D01*
X99148394Y-122355571D01*
X99048046Y-122113309D01*
X99048041Y-122113299D01*
X98916924Y-121886196D01*
X98757281Y-121678148D01*
X98757274Y-121678140D01*
X98571860Y-121492726D01*
X98571851Y-121492718D01*
X98363803Y-121333075D01*
X98136700Y-121201958D01*
X98136690Y-121201953D01*
X97894428Y-121101605D01*
X97894421Y-121101603D01*
X97894419Y-121101602D01*
X97641116Y-121033730D01*
X97583339Y-121026123D01*
X97381127Y-120999500D01*
X97381120Y-120999500D01*
X97118880Y-120999500D01*
X97118872Y-120999500D01*
X96887772Y-121029926D01*
X96858884Y-121033730D01*
X96605581Y-121101602D01*
X96605571Y-121101605D01*
X96363309Y-121201953D01*
X96363299Y-121201958D01*
X96136196Y-121333075D01*
X95928148Y-121492718D01*
X95742718Y-121678148D01*
X95583075Y-121886196D01*
X95451958Y-122113299D01*
X95451953Y-122113309D01*
X95351605Y-122355571D01*
X95351602Y-122355581D01*
X95283730Y-122608885D01*
X95249500Y-122868872D01*
X93500000Y-122868872D01*
X93500000Y-119397682D01*
X122450000Y-119397682D01*
X122450000Y-119602317D01*
X122482009Y-119804417D01*
X122545244Y-119999031D01*
X122638141Y-120181350D01*
X122638147Y-120181359D01*
X122670523Y-120225921D01*
X122670524Y-120225922D01*
X123350000Y-119546446D01*
X123350000Y-119552661D01*
X123377259Y-119654394D01*
X123429920Y-119745606D01*
X123504394Y-119820080D01*
X123595606Y-119872741D01*
X123697339Y-119900000D01*
X123703553Y-119900000D01*
X123024076Y-120579474D01*
X123068650Y-120611859D01*
X123250968Y-120704755D01*
X123445582Y-120767990D01*
X123647683Y-120800000D01*
X123852317Y-120800000D01*
X124054417Y-120767990D01*
X124249031Y-120704755D01*
X124431349Y-120611859D01*
X124475921Y-120579474D01*
X123796447Y-119900000D01*
X123802661Y-119900000D01*
X123904394Y-119872741D01*
X123995606Y-119820080D01*
X124070080Y-119745606D01*
X124122741Y-119654394D01*
X124150000Y-119552661D01*
X124150000Y-119546447D01*
X124829474Y-120225921D01*
X124861859Y-120181349D01*
X124954754Y-119999031D01*
X125007569Y-119836489D01*
X125047007Y-119778814D01*
X125111366Y-119751616D01*
X125180212Y-119763531D01*
X125231688Y-119810775D01*
X125249500Y-119874808D01*
X125249500Y-120104269D01*
X125252353Y-120134699D01*
X125252353Y-120134701D01*
X125292673Y-120249925D01*
X125297207Y-120262882D01*
X125377850Y-120372150D01*
X125487118Y-120452793D01*
X125496775Y-120456172D01*
X125615299Y-120497646D01*
X125645730Y-120500500D01*
X125645734Y-120500500D01*
X126854270Y-120500500D01*
X126884699Y-120497646D01*
X126884701Y-120497646D01*
X126954459Y-120473236D01*
X127012882Y-120452793D01*
X127122150Y-120372150D01*
X127202793Y-120262882D01*
X127225219Y-120198790D01*
X127247646Y-120134701D01*
X127247646Y-120134699D01*
X127250500Y-120104269D01*
X127250500Y-119865014D01*
X127270185Y-119797975D01*
X127302485Y-119767177D01*
X127301133Y-119765415D01*
X127307577Y-119760468D01*
X127307584Y-119760465D01*
X129217709Y-117850338D01*
X129279030Y-117816855D01*
X129348721Y-117821839D01*
X129374279Y-117834919D01*
X129532275Y-117940489D01*
X129532288Y-117940496D01*
X129686356Y-118004312D01*
X129714361Y-118015912D01*
X129714365Y-118015912D01*
X129714366Y-118015913D01*
X129907652Y-118054361D01*
X129907655Y-118054361D01*
X130104739Y-118054361D01*
X130234778Y-118028493D01*
X130298031Y-118015912D01*
X130480110Y-117940493D01*
X130643978Y-117831000D01*
X130783335Y-117691643D01*
X130892828Y-117527775D01*
X130922596Y-117455909D01*
X130966436Y-117401505D01*
X131032730Y-117379440D01*
X131037157Y-117379361D01*
X132117672Y-117379361D01*
X132184711Y-117399046D01*
X132205353Y-117415680D01*
X133888181Y-119098508D01*
X133921666Y-119159831D01*
X133924500Y-119186189D01*
X133924500Y-119354197D01*
X133904815Y-119421236D01*
X133852011Y-119466991D01*
X133822481Y-119474879D01*
X133822670Y-119475744D01*
X133815298Y-119477353D01*
X133687119Y-119522206D01*
X133687117Y-119522207D01*
X133577850Y-119602850D01*
X133497207Y-119712117D01*
X133497206Y-119712119D01*
X133452353Y-119840298D01*
X133452353Y-119840300D01*
X133449500Y-119870730D01*
X133449500Y-121229269D01*
X133452353Y-121259699D01*
X133452353Y-121259701D01*
X133497134Y-121387673D01*
X133497207Y-121387882D01*
X133577850Y-121497150D01*
X133687118Y-121577793D01*
X133729845Y-121592744D01*
X133815299Y-121622646D01*
X133845730Y-121625500D01*
X133845734Y-121625500D01*
X134654270Y-121625500D01*
X134684699Y-121622646D01*
X134684701Y-121622646D01*
X134748790Y-121600219D01*
X134812882Y-121577793D01*
X134922150Y-121497150D01*
X135002793Y-121387882D01*
X135028895Y-121313285D01*
X135069615Y-121256513D01*
X135134567Y-121230765D01*
X135203129Y-121244221D01*
X135253532Y-121292608D01*
X135256419Y-121297947D01*
X135309194Y-121401521D01*
X135410967Y-121541602D01*
X135533397Y-121664032D01*
X135673475Y-121765804D01*
X135827744Y-121844408D01*
X135992415Y-121897914D01*
X135992414Y-121897914D01*
X135999999Y-121899115D01*
X136000000Y-121899114D01*
X136000000Y-120830330D01*
X136019745Y-120850075D01*
X136105255Y-120899444D01*
X136200630Y-120925000D01*
X136299370Y-120925000D01*
X136394745Y-120899444D01*
X136480255Y-120850075D01*
X136500000Y-120830330D01*
X136500000Y-121899115D01*
X136507584Y-121897914D01*
X136672255Y-121844408D01*
X136826524Y-121765804D01*
X136966602Y-121664032D01*
X137089032Y-121541602D01*
X137149681Y-121458126D01*
X137205011Y-121415460D01*
X137274624Y-121409481D01*
X137336420Y-121442086D01*
X137350319Y-121458126D01*
X137410967Y-121541602D01*
X137533397Y-121664032D01*
X137673475Y-121765804D01*
X137827744Y-121844408D01*
X137992415Y-121897914D01*
X137992414Y-121897914D01*
X137999999Y-121899115D01*
X138000000Y-121899114D01*
X138000000Y-120830330D01*
X138019745Y-120850075D01*
X138105255Y-120899444D01*
X138200630Y-120925000D01*
X138299370Y-120925000D01*
X138394745Y-120899444D01*
X138480255Y-120850075D01*
X138500000Y-120830330D01*
X138500000Y-121899115D01*
X138507584Y-121897914D01*
X138672255Y-121844408D01*
X138826524Y-121765804D01*
X138966602Y-121664032D01*
X139089032Y-121541602D01*
X139190804Y-121401524D01*
X139269408Y-121247255D01*
X139312843Y-121113580D01*
X139312843Y-121113579D01*
X139322914Y-121082584D01*
X139350000Y-120911571D01*
X139350000Y-120800000D01*
X138530330Y-120800000D01*
X138550075Y-120780255D01*
X138599444Y-120694745D01*
X138625000Y-120599370D01*
X138625000Y-120500630D01*
X138599444Y-120405255D01*
X138550075Y-120319745D01*
X138530330Y-120300000D01*
X139350000Y-120300000D01*
X139350000Y-120188428D01*
X139325208Y-120031897D01*
X139322913Y-120017413D01*
X139269408Y-119852742D01*
X139190804Y-119698475D01*
X139089032Y-119558397D01*
X138966602Y-119435967D01*
X138826524Y-119334195D01*
X138672257Y-119255591D01*
X138658047Y-119250975D01*
X138511284Y-120280954D01*
X138480255Y-120249925D01*
X138394745Y-120200556D01*
X138299370Y-120175000D01*
X138200630Y-120175000D01*
X138105255Y-120200556D01*
X138019745Y-120249925D01*
X138000000Y-120269670D01*
X138000000Y-119200884D01*
X137999999Y-119200884D01*
X137992418Y-119202085D01*
X137992410Y-119202087D01*
X137827742Y-119255591D01*
X137673475Y-119334195D01*
X137533397Y-119435967D01*
X137410965Y-119558399D01*
X137410961Y-119558404D01*
X137350318Y-119641873D01*
X137294988Y-119684539D01*
X137225375Y-119690518D01*
X137163580Y-119657912D01*
X137149682Y-119641873D01*
X137089038Y-119558404D01*
X137089034Y-119558399D01*
X136966602Y-119435967D01*
X136826524Y-119334195D01*
X136672257Y-119255591D01*
X136507589Y-119202087D01*
X136507581Y-119202085D01*
X136500000Y-119200884D01*
X136500000Y-120269670D01*
X136480255Y-120249925D01*
X136394745Y-120200556D01*
X136299370Y-120175000D01*
X136200630Y-120175000D01*
X136105255Y-120200556D01*
X136019745Y-120249925D01*
X136000000Y-120269670D01*
X136000000Y-119200884D01*
X135999999Y-119200884D01*
X135992418Y-119202085D01*
X135992410Y-119202087D01*
X135827742Y-119255591D01*
X135673475Y-119334195D01*
X135533397Y-119435967D01*
X135410967Y-119558397D01*
X135309194Y-119698478D01*
X135256419Y-119802052D01*
X135208444Y-119852848D01*
X135140623Y-119869642D01*
X135074488Y-119847104D01*
X135031038Y-119792388D01*
X135028908Y-119786751D01*
X135002793Y-119712118D01*
X134922150Y-119602850D01*
X134812882Y-119522207D01*
X134812880Y-119522206D01*
X134684701Y-119477353D01*
X134677330Y-119475744D01*
X134677792Y-119473624D01*
X134622996Y-119451783D01*
X134582381Y-119394931D01*
X134575500Y-119354197D01*
X134575500Y-118957149D01*
X134575500Y-118957147D01*
X134553318Y-118874362D01*
X134553318Y-118874361D01*
X134510465Y-118800138D01*
X133248870Y-117538543D01*
X147499499Y-117538543D01*
X147537947Y-117731829D01*
X147537950Y-117731839D01*
X147613364Y-117913907D01*
X147613371Y-117913919D01*
X147722860Y-118077781D01*
X147722863Y-118077785D01*
X147862214Y-118217136D01*
X147862218Y-118217139D01*
X148026079Y-118326628D01*
X148026092Y-118326635D01*
X148208160Y-118402049D01*
X148208165Y-118402051D01*
X148208169Y-118402051D01*
X148208170Y-118402052D01*
X148401456Y-118440500D01*
X148401459Y-118440500D01*
X148598543Y-118440500D01*
X148728582Y-118414632D01*
X148791835Y-118402051D01*
X148941100Y-118340224D01*
X148973907Y-118326635D01*
X148973907Y-118326634D01*
X148973914Y-118326632D01*
X149137782Y-118217139D01*
X149277139Y-118077782D01*
X149350273Y-117968329D01*
X149386629Y-117913919D01*
X149386630Y-117913916D01*
X149386632Y-117913914D01*
X149462051Y-117731835D01*
X149493814Y-117572154D01*
X149500500Y-117538543D01*
X149500500Y-117341456D01*
X149462052Y-117148170D01*
X149462051Y-117148169D01*
X149462051Y-117148165D01*
X149414291Y-117032861D01*
X149386635Y-116966092D01*
X149386628Y-116966079D01*
X149287830Y-116818218D01*
X149279940Y-116806410D01*
X149259063Y-116739735D01*
X149277547Y-116672355D01*
X149295358Y-116649844D01*
X151672468Y-114272733D01*
X151733789Y-114239250D01*
X151803481Y-114244234D01*
X151859414Y-114286106D01*
X151883831Y-114351570D01*
X151878078Y-114398734D01*
X151844585Y-114501813D01*
X151844585Y-114501816D01*
X151812575Y-114703917D01*
X151812575Y-114908552D01*
X151844584Y-115110652D01*
X151907819Y-115305266D01*
X152000716Y-115487585D01*
X152000722Y-115487594D01*
X152033098Y-115532156D01*
X152033099Y-115532157D01*
X152712575Y-114852681D01*
X152712575Y-114858896D01*
X152739834Y-114960629D01*
X152792495Y-115051841D01*
X152866969Y-115126315D01*
X152958181Y-115178976D01*
X153059914Y-115206235D01*
X153066128Y-115206235D01*
X152386651Y-115885709D01*
X152431225Y-115918094D01*
X152613543Y-116010990D01*
X152808157Y-116074225D01*
X153010258Y-116106235D01*
X153214892Y-116106235D01*
X153416992Y-116074225D01*
X153611606Y-116010990D01*
X153793924Y-115918094D01*
X153838496Y-115885709D01*
X153159022Y-115206235D01*
X153165236Y-115206235D01*
X153266969Y-115178976D01*
X153358181Y-115126315D01*
X153432655Y-115051841D01*
X153485316Y-114960629D01*
X153512575Y-114858896D01*
X153512575Y-114852683D01*
X154192049Y-115532157D01*
X154192049Y-115532156D01*
X154224434Y-115487584D01*
X154317330Y-115305266D01*
X154380565Y-115110652D01*
X154412575Y-114908552D01*
X154412575Y-114703917D01*
X154380565Y-114501817D01*
X154317330Y-114307203D01*
X154224434Y-114124885D01*
X154192049Y-114080312D01*
X154192049Y-114080311D01*
X153512575Y-114759786D01*
X153512575Y-114753574D01*
X153485316Y-114651841D01*
X153432655Y-114560629D01*
X153358181Y-114486155D01*
X153266969Y-114433494D01*
X153165236Y-114406235D01*
X153159021Y-114406235D01*
X153838497Y-113726759D01*
X153838496Y-113726758D01*
X153793934Y-113694382D01*
X153793925Y-113694376D01*
X153611606Y-113601479D01*
X153416992Y-113538244D01*
X153228306Y-113508359D01*
X153165171Y-113478429D01*
X153128240Y-113419118D01*
X153129238Y-113349255D01*
X153167848Y-113291023D01*
X153223513Y-113264269D01*
X153404410Y-113228286D01*
X153586489Y-113152867D01*
X153750357Y-113043374D01*
X153775988Y-113017742D01*
X153837309Y-112984258D01*
X153907001Y-112989242D01*
X153951350Y-113017743D01*
X155985754Y-115052147D01*
X155985755Y-115052148D01*
X156060322Y-115126715D01*
X156151648Y-115179442D01*
X156253508Y-115206735D01*
X159732680Y-115206735D01*
X159799719Y-115226420D01*
X159842081Y-115275308D01*
X159843073Y-115274779D01*
X159845408Y-115279148D01*
X159845474Y-115279224D01*
X159845584Y-115279478D01*
X159845946Y-115280155D01*
X159955435Y-115444016D01*
X159955438Y-115444020D01*
X160094791Y-115583373D01*
X160258655Y-115692863D01*
X160258661Y-115692867D01*
X160258667Y-115692869D01*
X160264032Y-115695737D01*
X160263028Y-115697613D01*
X160309930Y-115735408D01*
X160331996Y-115801702D01*
X160332075Y-115806130D01*
X160332075Y-117309277D01*
X160312390Y-117376316D01*
X160259586Y-117422071D01*
X160244076Y-117427936D01*
X160240787Y-117428933D01*
X160058717Y-117504348D01*
X160058704Y-117504355D01*
X159894843Y-117613844D01*
X159894839Y-117613847D01*
X159755488Y-117753198D01*
X159755485Y-117753202D01*
X159645996Y-117917063D01*
X159643123Y-117922440D01*
X159641243Y-117921435D01*
X159603466Y-117968329D01*
X159537175Y-117990404D01*
X159532730Y-117990484D01*
X157981733Y-117990484D01*
X157981717Y-117990483D01*
X157974121Y-117990483D01*
X157868667Y-117990483D01*
X157817114Y-118004297D01*
X157766806Y-118017777D01*
X157704428Y-118053791D01*
X157693171Y-118060291D01*
X157675478Y-118070506D01*
X156663121Y-119082864D01*
X156601798Y-119116349D01*
X156575440Y-119119183D01*
X155588425Y-119119183D01*
X155557995Y-119122036D01*
X155557993Y-119122036D01*
X155429814Y-119166889D01*
X155429812Y-119166890D01*
X155320545Y-119247533D01*
X155239902Y-119356800D01*
X155239901Y-119356802D01*
X155195048Y-119484981D01*
X155195048Y-119484983D01*
X155192195Y-119515413D01*
X155192195Y-119744874D01*
X155172510Y-119811913D01*
X155119706Y-119857668D01*
X155050548Y-119867612D01*
X154986992Y-119838587D01*
X154950264Y-119783193D01*
X154897450Y-119620651D01*
X154804554Y-119438333D01*
X154772169Y-119393760D01*
X154772169Y-119393759D01*
X154092695Y-120073234D01*
X154092695Y-120067022D01*
X154065436Y-119965289D01*
X154012775Y-119874077D01*
X153938301Y-119799603D01*
X153847089Y-119746942D01*
X153745356Y-119719683D01*
X153739141Y-119719683D01*
X154418617Y-119040207D01*
X154418616Y-119040206D01*
X154374054Y-119007830D01*
X154374045Y-119007824D01*
X154191726Y-118914927D01*
X153997112Y-118851692D01*
X153795012Y-118819683D01*
X153590378Y-118819683D01*
X153388277Y-118851692D01*
X153193663Y-118914927D01*
X153011339Y-119007826D01*
X152966772Y-119040206D01*
X152966772Y-119040207D01*
X153646249Y-119719683D01*
X153640034Y-119719683D01*
X153538301Y-119746942D01*
X153447089Y-119799603D01*
X153372615Y-119874077D01*
X153319954Y-119965289D01*
X153292695Y-120067022D01*
X153292695Y-120073236D01*
X152613219Y-119393760D01*
X152613218Y-119393760D01*
X152580838Y-119438327D01*
X152487939Y-119620651D01*
X152424704Y-119815265D01*
X152392695Y-120017365D01*
X152392695Y-120222000D01*
X152424704Y-120424100D01*
X152487939Y-120618714D01*
X152580836Y-120801033D01*
X152580842Y-120801042D01*
X152613218Y-120845604D01*
X152613219Y-120845605D01*
X153292695Y-120166129D01*
X153292695Y-120172344D01*
X153319954Y-120274077D01*
X153372615Y-120365289D01*
X153447089Y-120439763D01*
X153538301Y-120492424D01*
X153640034Y-120519683D01*
X153646248Y-120519683D01*
X152966771Y-121199157D01*
X153011345Y-121231542D01*
X153193663Y-121324438D01*
X153388277Y-121387673D01*
X153590378Y-121419683D01*
X153795012Y-121419683D01*
X153997112Y-121387673D01*
X154191726Y-121324438D01*
X154374044Y-121231542D01*
X154418616Y-121199157D01*
X153739142Y-120519683D01*
X153745356Y-120519683D01*
X153847089Y-120492424D01*
X153938301Y-120439763D01*
X154012775Y-120365289D01*
X154065436Y-120274077D01*
X154092695Y-120172344D01*
X154092695Y-120166130D01*
X154772169Y-120845604D01*
X154804554Y-120801032D01*
X154897449Y-120618714D01*
X154950264Y-120456172D01*
X154989702Y-120398497D01*
X155054061Y-120371299D01*
X155122907Y-120383214D01*
X155174383Y-120430458D01*
X155192195Y-120494491D01*
X155192195Y-120723952D01*
X155195048Y-120754382D01*
X155195048Y-120754384D01*
X155228533Y-120850075D01*
X155239902Y-120882565D01*
X155320545Y-120991833D01*
X155429813Y-121072476D01*
X155458700Y-121082584D01*
X155557994Y-121117329D01*
X155588425Y-121120183D01*
X155588429Y-121120183D01*
X156796965Y-121120183D01*
X156827394Y-121117329D01*
X156827396Y-121117329D01*
X156891485Y-121094902D01*
X156955577Y-121072476D01*
X157064845Y-120991833D01*
X157145488Y-120882565D01*
X157181288Y-120780255D01*
X157190341Y-120754384D01*
X157190341Y-120754382D01*
X157193195Y-120723952D01*
X157193195Y-119736937D01*
X157212880Y-119669898D01*
X157229514Y-119649256D01*
X158050967Y-118827803D01*
X158112290Y-118794318D01*
X158138648Y-118791484D01*
X159532730Y-118791484D01*
X159599769Y-118811169D01*
X159642131Y-118860057D01*
X159643123Y-118859528D01*
X159645458Y-118863897D01*
X159645524Y-118863973D01*
X159645634Y-118864227D01*
X159645996Y-118864904D01*
X159755485Y-119028765D01*
X159755488Y-119028769D01*
X159894839Y-119168120D01*
X159894843Y-119168123D01*
X160058704Y-119277612D01*
X160058717Y-119277619D01*
X160240785Y-119353033D01*
X160240790Y-119353035D01*
X160240794Y-119353035D01*
X160240795Y-119353036D01*
X160434081Y-119391484D01*
X160434084Y-119391484D01*
X160631168Y-119391484D01*
X160805532Y-119356800D01*
X160824460Y-119353035D01*
X161006539Y-119277616D01*
X161170407Y-119168123D01*
X161309764Y-119028766D01*
X161419257Y-118864898D01*
X161494676Y-118682819D01*
X161521651Y-118547207D01*
X161533125Y-118489527D01*
X161533125Y-118292440D01*
X161494677Y-118099154D01*
X161494676Y-118099153D01*
X161494676Y-118099149D01*
X161478580Y-118060289D01*
X161419260Y-117917076D01*
X161419253Y-117917063D01*
X161309764Y-117753202D01*
X161309761Y-117753198D01*
X161169394Y-117612831D01*
X161135909Y-117551508D01*
X161133075Y-117525150D01*
X161133075Y-115806130D01*
X161152760Y-115739091D01*
X161201648Y-115696729D01*
X161201118Y-115695737D01*
X161205489Y-115693400D01*
X161205564Y-115693336D01*
X161205813Y-115693227D01*
X161206477Y-115692871D01*
X161206489Y-115692867D01*
X161370350Y-115583379D01*
X161370359Y-115583373D01*
X161370363Y-115583369D01*
X161509711Y-115444020D01*
X161509714Y-115444017D01*
X161619207Y-115280149D01*
X161694626Y-115098070D01*
X161733075Y-114904776D01*
X161733075Y-114707694D01*
X161733075Y-114707691D01*
X161694627Y-114514405D01*
X161694626Y-114514404D01*
X161694626Y-114514400D01*
X161689412Y-114501813D01*
X161619210Y-114332327D01*
X161619203Y-114332314D01*
X161509714Y-114168453D01*
X161509711Y-114168449D01*
X161370360Y-114029098D01*
X161370356Y-114029095D01*
X161206495Y-113919606D01*
X161206482Y-113919599D01*
X161024414Y-113844185D01*
X161024404Y-113844182D01*
X160831118Y-113805735D01*
X160831116Y-113805735D01*
X160634034Y-113805735D01*
X160634032Y-113805735D01*
X160440745Y-113844182D01*
X160440735Y-113844185D01*
X160258667Y-113919599D01*
X160258654Y-113919606D01*
X160094793Y-114029095D01*
X160094789Y-114029098D01*
X159955438Y-114168449D01*
X159955435Y-114168453D01*
X159845946Y-114332314D01*
X159843073Y-114337691D01*
X159841193Y-114336686D01*
X159803416Y-114383580D01*
X159737125Y-114405655D01*
X159732680Y-114405735D01*
X156523490Y-114405735D01*
X156456451Y-114386050D01*
X156435809Y-114369416D01*
X154109624Y-112043231D01*
X154076139Y-111981908D01*
X154075687Y-111979736D01*
X154074627Y-111974405D01*
X154074626Y-111974400D01*
X154045288Y-111903572D01*
X153999208Y-111792323D01*
X153999203Y-111792314D01*
X153889714Y-111628453D01*
X153889711Y-111628449D01*
X153750360Y-111489098D01*
X153750356Y-111489095D01*
X153586495Y-111379606D01*
X153586482Y-111379599D01*
X153404414Y-111304185D01*
X153404404Y-111304182D01*
X153211118Y-111265735D01*
X153211116Y-111265735D01*
X153014034Y-111265735D01*
X153014032Y-111265735D01*
X152820745Y-111304182D01*
X152820735Y-111304185D01*
X152638667Y-111379599D01*
X152638654Y-111379606D01*
X152474793Y-111489095D01*
X152474789Y-111489098D01*
X152335438Y-111628449D01*
X152335435Y-111628453D01*
X152225946Y-111792314D01*
X152225939Y-111792327D01*
X152150525Y-111974395D01*
X152150522Y-111974405D01*
X152112075Y-112167691D01*
X152112075Y-112167694D01*
X152112075Y-112364776D01*
X152112075Y-112364778D01*
X152112074Y-112364778D01*
X152150523Y-112558068D01*
X152152293Y-112563903D01*
X152150259Y-112564519D01*
X152156690Y-112624425D01*
X152125406Y-112686899D01*
X152122345Y-112690070D01*
X148392426Y-116419989D01*
X148331103Y-116453474D01*
X148328937Y-116453925D01*
X148208170Y-116477947D01*
X148208160Y-116477950D01*
X148026092Y-116553364D01*
X148026079Y-116553371D01*
X147862218Y-116662860D01*
X147862214Y-116662863D01*
X147722863Y-116802214D01*
X147722860Y-116802218D01*
X147613371Y-116966079D01*
X147613364Y-116966092D01*
X147537950Y-117148160D01*
X147537947Y-117148170D01*
X147499500Y-117341456D01*
X147499500Y-117341459D01*
X147499500Y-117538541D01*
X147499500Y-117538543D01*
X147499499Y-117538543D01*
X133248870Y-117538543D01*
X132503723Y-116793396D01*
X132449389Y-116762026D01*
X132429501Y-116750543D01*
X132388107Y-116739452D01*
X132346714Y-116728361D01*
X132346713Y-116728361D01*
X131037157Y-116728361D01*
X130970118Y-116708676D01*
X130924363Y-116655872D01*
X130922596Y-116651813D01*
X130892831Y-116579953D01*
X130892824Y-116579940D01*
X130783335Y-116416079D01*
X130783332Y-116416075D01*
X130643981Y-116276724D01*
X130643977Y-116276721D01*
X130480116Y-116167232D01*
X130480103Y-116167225D01*
X130298035Y-116091811D01*
X130298025Y-116091808D01*
X130104739Y-116053361D01*
X130104737Y-116053361D01*
X129907655Y-116053361D01*
X129907653Y-116053361D01*
X129714366Y-116091808D01*
X129714356Y-116091811D01*
X129532288Y-116167225D01*
X129532275Y-116167232D01*
X129368414Y-116276721D01*
X129368410Y-116276724D01*
X129229059Y-116416075D01*
X129229056Y-116416079D01*
X129119567Y-116579940D01*
X129119560Y-116579953D01*
X129044146Y-116762021D01*
X129044143Y-116762031D01*
X129005696Y-116955317D01*
X129005696Y-117090337D01*
X128986011Y-117157376D01*
X128969377Y-117178018D01*
X127392785Y-118754609D01*
X127331462Y-118788094D01*
X127261770Y-118783110D01*
X127205837Y-118741238D01*
X127205334Y-118740561D01*
X127122151Y-118627851D01*
X127012882Y-118547207D01*
X127012880Y-118547206D01*
X126884700Y-118502353D01*
X126854270Y-118499500D01*
X126854266Y-118499500D01*
X125645734Y-118499500D01*
X125645730Y-118499500D01*
X125615300Y-118502353D01*
X125615298Y-118502353D01*
X125487119Y-118547206D01*
X125487117Y-118547207D01*
X125377850Y-118627850D01*
X125297207Y-118737117D01*
X125297206Y-118737119D01*
X125252353Y-118865298D01*
X125252353Y-118865300D01*
X125249500Y-118895730D01*
X125249500Y-119125191D01*
X125229815Y-119192230D01*
X125177011Y-119237985D01*
X125107853Y-119247929D01*
X125044297Y-119218904D01*
X125007569Y-119163510D01*
X124954755Y-119000968D01*
X124861859Y-118818650D01*
X124829474Y-118774077D01*
X124829474Y-118774076D01*
X124150000Y-119453551D01*
X124150000Y-119447339D01*
X124122741Y-119345606D01*
X124070080Y-119254394D01*
X123995606Y-119179920D01*
X123904394Y-119127259D01*
X123802661Y-119100000D01*
X123796446Y-119100000D01*
X124475922Y-118420524D01*
X124475921Y-118420523D01*
X124431359Y-118388147D01*
X124431350Y-118388141D01*
X124249031Y-118295244D01*
X124054417Y-118232009D01*
X123852317Y-118200000D01*
X123647683Y-118200000D01*
X123445582Y-118232009D01*
X123250968Y-118295244D01*
X123068644Y-118388143D01*
X123024077Y-118420523D01*
X123024077Y-118420524D01*
X123703554Y-119100000D01*
X123697339Y-119100000D01*
X123595606Y-119127259D01*
X123504394Y-119179920D01*
X123429920Y-119254394D01*
X123377259Y-119345606D01*
X123350000Y-119447339D01*
X123350000Y-119453553D01*
X122670524Y-118774077D01*
X122670523Y-118774077D01*
X122638143Y-118818644D01*
X122545244Y-119000968D01*
X122482009Y-119195582D01*
X122450000Y-119397682D01*
X93500000Y-119397682D01*
X93500000Y-118004312D01*
X100289687Y-118004312D01*
X100292586Y-118041152D01*
X100292587Y-118041158D01*
X100338403Y-118198856D01*
X100338404Y-118198859D01*
X100422001Y-118340215D01*
X100422008Y-118340224D01*
X100538125Y-118456341D01*
X100538134Y-118456348D01*
X100679488Y-118539944D01*
X100837201Y-118585763D01*
X100837198Y-118585763D01*
X100839685Y-118585958D01*
X100839687Y-118585958D01*
X101339687Y-118585958D01*
X101339688Y-118585958D01*
X101342173Y-118585763D01*
X101499885Y-118539944D01*
X101641239Y-118456348D01*
X101641248Y-118456341D01*
X101717488Y-118380102D01*
X101757365Y-118340224D01*
X101757372Y-118340215D01*
X101840969Y-118198859D01*
X101840970Y-118198856D01*
X101886786Y-118041158D01*
X101886787Y-118041152D01*
X101889686Y-118004312D01*
X101889687Y-118004297D01*
X101889687Y-117676163D01*
X101339687Y-117676163D01*
X101339687Y-118585958D01*
X100839687Y-118585958D01*
X100839687Y-117676163D01*
X100289687Y-117676163D01*
X100289687Y-118004312D01*
X93500000Y-118004312D01*
X93500000Y-116848013D01*
X100289687Y-116848013D01*
X100289687Y-117176163D01*
X100839687Y-117176163D01*
X101339687Y-117176163D01*
X101889687Y-117176163D01*
X101889687Y-116848028D01*
X101889686Y-116848013D01*
X101886787Y-116811173D01*
X101886786Y-116811167D01*
X101840970Y-116653469D01*
X101840969Y-116653466D01*
X101757372Y-116512110D01*
X101757365Y-116512101D01*
X101641248Y-116395984D01*
X101641239Y-116395977D01*
X101499883Y-116312380D01*
X101499880Y-116312379D01*
X101342181Y-116266563D01*
X101342184Y-116266563D01*
X101339687Y-116266366D01*
X101339687Y-117176163D01*
X100839687Y-117176163D01*
X100839687Y-116266366D01*
X100837190Y-116266563D01*
X100679493Y-116312379D01*
X100679490Y-116312380D01*
X100538134Y-116395977D01*
X100538125Y-116395984D01*
X100422008Y-116512101D01*
X100422001Y-116512110D01*
X100338404Y-116653466D01*
X100338403Y-116653469D01*
X100292587Y-116811167D01*
X100292586Y-116811173D01*
X100289687Y-116848013D01*
X93500000Y-116848013D01*
X93500000Y-108993297D01*
X98914476Y-108993297D01*
X98914476Y-109143284D01*
X100009146Y-109143284D01*
X99989401Y-109163029D01*
X99940032Y-109248539D01*
X99914476Y-109343914D01*
X99914476Y-109442654D01*
X99940032Y-109538029D01*
X99989401Y-109623539D01*
X100009146Y-109643284D01*
X98914477Y-109643284D01*
X98914477Y-109793270D01*
X98924970Y-109895981D01*
X98980117Y-110062403D01*
X98980119Y-110062408D01*
X99072160Y-110211629D01*
X99196130Y-110335599D01*
X99345351Y-110427640D01*
X99345356Y-110427642D01*
X99511778Y-110482789D01*
X99511786Y-110482790D01*
X99537170Y-110485384D01*
X99601862Y-110511780D01*
X99642014Y-110568961D01*
X99644877Y-110638772D01*
X99609543Y-110699048D01*
X99593459Y-110711844D01*
X99504187Y-110771494D01*
X99504183Y-110771497D01*
X99392689Y-110882991D01*
X99392686Y-110882995D01*
X99305085Y-111014098D01*
X99305078Y-111014111D01*
X99244740Y-111159782D01*
X99244737Y-111159794D01*
X99213976Y-111314437D01*
X99213976Y-111472130D01*
X99244737Y-111626773D01*
X99244740Y-111626785D01*
X99305078Y-111772456D01*
X99305085Y-111772469D01*
X99392686Y-111903572D01*
X99392689Y-111903576D01*
X99504183Y-112015070D01*
X99504187Y-112015073D01*
X99635290Y-112102674D01*
X99635302Y-112102681D01*
X99737639Y-112145069D01*
X99792043Y-112188909D01*
X99814108Y-112255203D01*
X99814187Y-112259630D01*
X99814187Y-114267119D01*
X99794502Y-114334158D01*
X99777868Y-114354800D01*
X99700490Y-114432177D01*
X99649113Y-114537271D01*
X99639187Y-114605402D01*
X99639187Y-115696923D01*
X99649113Y-115765054D01*
X99700490Y-115870148D01*
X99783201Y-115952859D01*
X99783202Y-115952859D01*
X99783204Y-115952861D01*
X99888294Y-116004236D01*
X99922360Y-116009199D01*
X99956426Y-116014163D01*
X99956427Y-116014163D01*
X100322948Y-116014163D01*
X100345658Y-116010854D01*
X100391080Y-116004236D01*
X100496170Y-115952861D01*
X100578885Y-115870146D01*
X100630260Y-115765056D01*
X100640187Y-115696923D01*
X100640187Y-114605403D01*
X100640187Y-114605402D01*
X101539187Y-114605402D01*
X101539187Y-115696923D01*
X101549113Y-115765054D01*
X101600490Y-115870148D01*
X101683201Y-115952859D01*
X101683202Y-115952859D01*
X101683204Y-115952861D01*
X101788294Y-116004236D01*
X101822360Y-116009199D01*
X101856426Y-116014163D01*
X101856427Y-116014163D01*
X102222948Y-116014163D01*
X102245658Y-116010854D01*
X102291080Y-116004236D01*
X102396170Y-115952861D01*
X102478885Y-115870146D01*
X102530260Y-115765056D01*
X102540187Y-115696923D01*
X102540187Y-114605403D01*
X102530260Y-114537270D01*
X102478885Y-114432180D01*
X102478883Y-114432178D01*
X102478883Y-114432177D01*
X102396172Y-114349466D01*
X102291078Y-114298089D01*
X102222948Y-114288163D01*
X102222947Y-114288163D01*
X101856427Y-114288163D01*
X101856426Y-114288163D01*
X101788295Y-114298089D01*
X101683201Y-114349466D01*
X101600490Y-114432177D01*
X101549113Y-114537271D01*
X101539187Y-114605402D01*
X100640187Y-114605402D01*
X100630260Y-114537270D01*
X100578885Y-114432180D01*
X100578883Y-114432178D01*
X100578883Y-114432177D01*
X100501506Y-114354800D01*
X100468021Y-114293477D01*
X100465187Y-114267119D01*
X100465187Y-112317784D01*
X100484872Y-112250745D01*
X100537676Y-112204990D01*
X100589187Y-112193784D01*
X100643320Y-112193784D01*
X100643321Y-112193783D01*
X100797973Y-112163021D01*
X100943655Y-112102678D01*
X101074765Y-112015073D01*
X101186265Y-111903573D01*
X101273870Y-111772463D01*
X101301189Y-111706506D01*
X101345028Y-111652107D01*
X101411322Y-111630041D01*
X101415749Y-111629962D01*
X102649302Y-111629962D01*
X102716341Y-111649647D01*
X102762096Y-111702451D01*
X102763863Y-111706510D01*
X102793627Y-111778369D01*
X102793634Y-111778382D01*
X102903123Y-111942243D01*
X102903126Y-111942247D01*
X103042477Y-112081598D01*
X103042481Y-112081601D01*
X103206342Y-112191090D01*
X103206355Y-112191097D01*
X103350360Y-112250745D01*
X103388428Y-112266513D01*
X103388432Y-112266513D01*
X103388433Y-112266514D01*
X103581719Y-112304962D01*
X103581722Y-112304962D01*
X103778806Y-112304962D01*
X103908845Y-112279094D01*
X103972098Y-112266513D01*
X104120629Y-112204990D01*
X104154170Y-112191097D01*
X104154170Y-112191096D01*
X104154177Y-112191094D01*
X104318045Y-112081601D01*
X104457402Y-111942244D01*
X104566895Y-111778376D01*
X104642314Y-111596297D01*
X104662849Y-111493061D01*
X104680763Y-111403005D01*
X110299762Y-111403005D01*
X110338210Y-111596291D01*
X110338213Y-111596301D01*
X110413627Y-111778369D01*
X110413634Y-111778382D01*
X110523123Y-111942243D01*
X110523126Y-111942247D01*
X110662477Y-112081598D01*
X110662481Y-112081601D01*
X110826342Y-112191090D01*
X110826355Y-112191097D01*
X110970360Y-112250745D01*
X111008428Y-112266513D01*
X111008432Y-112266513D01*
X111008433Y-112266514D01*
X111201719Y-112304962D01*
X111201722Y-112304962D01*
X111398806Y-112304962D01*
X111528845Y-112279094D01*
X111592098Y-112266513D01*
X111740629Y-112204990D01*
X111774170Y-112191097D01*
X111774170Y-112191096D01*
X111774177Y-112191094D01*
X111938045Y-112081601D01*
X112077402Y-111942244D01*
X112186895Y-111778376D01*
X112202619Y-111740414D01*
X112246459Y-111686012D01*
X112312753Y-111663946D01*
X112317180Y-111663867D01*
X113458684Y-111663867D01*
X113525723Y-111683552D01*
X113571478Y-111736356D01*
X113573245Y-111740415D01*
X113613364Y-111837274D01*
X113613371Y-111837287D01*
X113722860Y-112001148D01*
X113722863Y-112001152D01*
X113862214Y-112140503D01*
X113862218Y-112140506D01*
X114026079Y-112249995D01*
X114026092Y-112250002D01*
X114208160Y-112325416D01*
X114208165Y-112325418D01*
X114208169Y-112325418D01*
X114208170Y-112325419D01*
X114401456Y-112363867D01*
X114401459Y-112363867D01*
X114598543Y-112363867D01*
X114728582Y-112337999D01*
X114791835Y-112325418D01*
X114950663Y-112259630D01*
X114973907Y-112250002D01*
X114973907Y-112250001D01*
X114973914Y-112249999D01*
X115137782Y-112140506D01*
X115277139Y-112001149D01*
X115386632Y-111837281D01*
X115462051Y-111655202D01*
X115489726Y-111516073D01*
X115500500Y-111461910D01*
X115500500Y-111264823D01*
X115462052Y-111071537D01*
X115462051Y-111071536D01*
X115462051Y-111071532D01*
X115423675Y-110978883D01*
X115386635Y-110889459D01*
X115386628Y-110889446D01*
X115277139Y-110725585D01*
X115277136Y-110725581D01*
X115137785Y-110586230D01*
X115137781Y-110586227D01*
X114973920Y-110476738D01*
X114973907Y-110476731D01*
X114791839Y-110401317D01*
X114791829Y-110401314D01*
X114598543Y-110362867D01*
X114598541Y-110362867D01*
X114401459Y-110362867D01*
X114401457Y-110362867D01*
X114208170Y-110401314D01*
X114208160Y-110401317D01*
X114026092Y-110476731D01*
X114026079Y-110476738D01*
X113862218Y-110586227D01*
X113862214Y-110586230D01*
X113722863Y-110725581D01*
X113722860Y-110725585D01*
X113613371Y-110889446D01*
X113613364Y-110889459D01*
X113573245Y-110986319D01*
X113529405Y-111040723D01*
X113463111Y-111062788D01*
X113458684Y-111062867D01*
X112365978Y-111062867D01*
X112298939Y-111043182D01*
X112253184Y-110990378D01*
X112251417Y-110986319D01*
X112186898Y-110830554D01*
X112186891Y-110830541D01*
X112077402Y-110666680D01*
X112077399Y-110666676D01*
X111938048Y-110527325D01*
X111938044Y-110527322D01*
X111774183Y-110417833D01*
X111774170Y-110417826D01*
X111592102Y-110342412D01*
X111592092Y-110342409D01*
X111398806Y-110303962D01*
X111398804Y-110303962D01*
X111201722Y-110303962D01*
X111201720Y-110303962D01*
X111008433Y-110342409D01*
X111008423Y-110342412D01*
X110826355Y-110417826D01*
X110826342Y-110417833D01*
X110662481Y-110527322D01*
X110662477Y-110527325D01*
X110523126Y-110666676D01*
X110523123Y-110666680D01*
X110413634Y-110830541D01*
X110413627Y-110830554D01*
X110338213Y-111012622D01*
X110338210Y-111012632D01*
X110299763Y-111205918D01*
X110299763Y-111205921D01*
X110299763Y-111403003D01*
X110299763Y-111403005D01*
X110299762Y-111403005D01*
X104680763Y-111403005D01*
X104680763Y-111205918D01*
X104642315Y-111012632D01*
X104642314Y-111012631D01*
X104642314Y-111012627D01*
X104628337Y-110978883D01*
X104566898Y-110830554D01*
X104566891Y-110830541D01*
X104457402Y-110666680D01*
X104457399Y-110666676D01*
X104318048Y-110527325D01*
X104318044Y-110527322D01*
X104154183Y-110417833D01*
X104154170Y-110417826D01*
X103972102Y-110342412D01*
X103972092Y-110342409D01*
X103778806Y-110303962D01*
X103778804Y-110303962D01*
X103581722Y-110303962D01*
X103581720Y-110303962D01*
X103388433Y-110342409D01*
X103388423Y-110342412D01*
X103206355Y-110417826D01*
X103206342Y-110417833D01*
X103042481Y-110527322D01*
X103042477Y-110527325D01*
X102903126Y-110666676D01*
X102903123Y-110666680D01*
X102793634Y-110830541D01*
X102793627Y-110830554D01*
X102763863Y-110902414D01*
X102720023Y-110956818D01*
X102653729Y-110978883D01*
X102649302Y-110978962D01*
X101316668Y-110978962D01*
X101249629Y-110959277D01*
X101213566Y-110923853D01*
X101186265Y-110882995D01*
X101186262Y-110882991D01*
X101074768Y-110771497D01*
X101074764Y-110771494D01*
X100985491Y-110711843D01*
X100940686Y-110658230D01*
X100931979Y-110588905D01*
X100962134Y-110525878D01*
X101021577Y-110489159D01*
X101041784Y-110485383D01*
X101067172Y-110482790D01*
X101233595Y-110427642D01*
X101233600Y-110427640D01*
X101382821Y-110335599D01*
X101506791Y-110211629D01*
X101598832Y-110062408D01*
X101598834Y-110062403D01*
X101653981Y-109895981D01*
X101653982Y-109895974D01*
X101664475Y-109793270D01*
X101664476Y-109793257D01*
X101664476Y-109643284D01*
X100569806Y-109643284D01*
X100589551Y-109623539D01*
X100638920Y-109538029D01*
X100664476Y-109442654D01*
X100664476Y-109343914D01*
X100638920Y-109248539D01*
X100589551Y-109163029D01*
X100569806Y-109143284D01*
X101664475Y-109143284D01*
X101664475Y-108993312D01*
X101664474Y-108993297D01*
X101653981Y-108890586D01*
X101598834Y-108724164D01*
X101598832Y-108724159D01*
X101506791Y-108574938D01*
X101382821Y-108450968D01*
X101233600Y-108358927D01*
X101233595Y-108358925D01*
X101067173Y-108303778D01*
X101067166Y-108303777D01*
X100964462Y-108293284D01*
X100539476Y-108293284D01*
X100539476Y-109112954D01*
X100519731Y-109093209D01*
X100434221Y-109043840D01*
X100338846Y-109018284D01*
X100240106Y-109018284D01*
X100144731Y-109043840D01*
X100059221Y-109093209D01*
X100039476Y-109112954D01*
X100039476Y-108293284D01*
X99614504Y-108293284D01*
X99614488Y-108293285D01*
X99511778Y-108303778D01*
X99345356Y-108358925D01*
X99345351Y-108358927D01*
X99196130Y-108450968D01*
X99072160Y-108574938D01*
X98980119Y-108724159D01*
X98980117Y-108724164D01*
X98924970Y-108890586D01*
X98924969Y-108890593D01*
X98914476Y-108993297D01*
X93500000Y-108993297D01*
X93500000Y-107897682D01*
X110140000Y-107897682D01*
X110140000Y-108102317D01*
X110172009Y-108304417D01*
X110235244Y-108499031D01*
X110328141Y-108681350D01*
X110328147Y-108681359D01*
X110360523Y-108725921D01*
X110360524Y-108725922D01*
X111040000Y-108046446D01*
X111040000Y-108052661D01*
X111067259Y-108154394D01*
X111119920Y-108245606D01*
X111194394Y-108320080D01*
X111285606Y-108372741D01*
X111387339Y-108400000D01*
X111393553Y-108400000D01*
X110714076Y-109079474D01*
X110758650Y-109111859D01*
X110940968Y-109204755D01*
X111135582Y-109267990D01*
X111337683Y-109300000D01*
X111542317Y-109300000D01*
X111744417Y-109267990D01*
X111939031Y-109204755D01*
X112121349Y-109111859D01*
X112165921Y-109079474D01*
X111486447Y-108400000D01*
X111492661Y-108400000D01*
X111594394Y-108372741D01*
X111685606Y-108320080D01*
X111760080Y-108245606D01*
X111812741Y-108154394D01*
X111840000Y-108052661D01*
X111840000Y-108046448D01*
X112519474Y-108725922D01*
X112519474Y-108725921D01*
X112551859Y-108681349D01*
X112644755Y-108499031D01*
X112707990Y-108304417D01*
X112740000Y-108102317D01*
X112740000Y-108098543D01*
X118059499Y-108098543D01*
X118097947Y-108291829D01*
X118097950Y-108291839D01*
X118173364Y-108473907D01*
X118173371Y-108473920D01*
X118282860Y-108637781D01*
X118282863Y-108637785D01*
X118422214Y-108777136D01*
X118422218Y-108777139D01*
X118586079Y-108886628D01*
X118586092Y-108886635D01*
X118763085Y-108959947D01*
X118768165Y-108962051D01*
X118768169Y-108962051D01*
X118768170Y-108962052D01*
X118961456Y-109000500D01*
X119075500Y-109000500D01*
X119142539Y-109020185D01*
X119188294Y-109072989D01*
X119199500Y-109124500D01*
X119199500Y-110322050D01*
X119179815Y-110389089D01*
X119127011Y-110434844D01*
X119122953Y-110436611D01*
X119026089Y-110476733D01*
X119026079Y-110476738D01*
X118862218Y-110586227D01*
X118862214Y-110586230D01*
X118722863Y-110725581D01*
X118722860Y-110725585D01*
X118613371Y-110889446D01*
X118613364Y-110889459D01*
X118537950Y-111071527D01*
X118537947Y-111071537D01*
X118499500Y-111264823D01*
X118499500Y-111264826D01*
X118499500Y-111461908D01*
X118499500Y-111461910D01*
X118499499Y-111461910D01*
X118537947Y-111655196D01*
X118537950Y-111655206D01*
X118613364Y-111837274D01*
X118613371Y-111837287D01*
X118722860Y-112001148D01*
X118722863Y-112001152D01*
X118862214Y-112140503D01*
X118862218Y-112140506D01*
X119026079Y-112249995D01*
X119026092Y-112250002D01*
X119208160Y-112325416D01*
X119208165Y-112325418D01*
X119208169Y-112325418D01*
X119208170Y-112325419D01*
X119401456Y-112363867D01*
X119401459Y-112363867D01*
X119598543Y-112363867D01*
X119728582Y-112337999D01*
X119791835Y-112325418D01*
X119950663Y-112259630D01*
X119973907Y-112250002D01*
X119973907Y-112250001D01*
X119973914Y-112249999D01*
X120137782Y-112140506D01*
X120277139Y-112001149D01*
X120386632Y-111837281D01*
X120405253Y-111792327D01*
X120426755Y-111740415D01*
X120470595Y-111686011D01*
X120536889Y-111663946D01*
X120541316Y-111663867D01*
X123954603Y-111663867D01*
X123954605Y-111663867D01*
X124031032Y-111643388D01*
X124099554Y-111603827D01*
X124155503Y-111547878D01*
X124187311Y-111516070D01*
X124202627Y-111500754D01*
X124263950Y-111467268D01*
X124290309Y-111464434D01*
X124835933Y-111464434D01*
X124930227Y-111445676D01*
X124976096Y-111436553D01*
X125108129Y-111381863D01*
X125226955Y-111302466D01*
X125328008Y-111201413D01*
X125407405Y-111082587D01*
X125462095Y-110950554D01*
X125485966Y-110830548D01*
X125489976Y-110810391D01*
X125489976Y-110667476D01*
X125462096Y-110527319D01*
X125462095Y-110527318D01*
X125462095Y-110527314D01*
X125416745Y-110417830D01*
X125407406Y-110395283D01*
X125407401Y-110395274D01*
X125328008Y-110276455D01*
X125328005Y-110276451D01*
X125243169Y-110191615D01*
X125209684Y-110130292D01*
X125214668Y-110060600D01*
X125243169Y-110016253D01*
X125328005Y-109931416D01*
X125328008Y-109931413D01*
X125406147Y-109814470D01*
X125459759Y-109769665D01*
X125509249Y-109759361D01*
X128975235Y-109759361D01*
X129042274Y-109779046D01*
X129088029Y-109831850D01*
X129089796Y-109835909D01*
X129119560Y-109907768D01*
X129119567Y-109907781D01*
X129229056Y-110071642D01*
X129229059Y-110071646D01*
X129368410Y-110210997D01*
X129368414Y-110211000D01*
X129532275Y-110320489D01*
X129532288Y-110320496D01*
X129712842Y-110395283D01*
X129714361Y-110395912D01*
X129714365Y-110395912D01*
X129714366Y-110395913D01*
X129907652Y-110434361D01*
X129907655Y-110434361D01*
X130104739Y-110434361D01*
X130234778Y-110408493D01*
X130298031Y-110395912D01*
X130480110Y-110320493D01*
X130643978Y-110211000D01*
X130783335Y-110071643D01*
X130892828Y-109907775D01*
X130896807Y-109898170D01*
X130940257Y-109793270D01*
X130968247Y-109725696D01*
X131000566Y-109563220D01*
X131006696Y-109532404D01*
X131006696Y-109335317D01*
X130968248Y-109142031D01*
X130968247Y-109142030D01*
X130968247Y-109142026D01*
X130954270Y-109108282D01*
X130892831Y-108959953D01*
X130892824Y-108959940D01*
X130783335Y-108796079D01*
X130783332Y-108796075D01*
X130643981Y-108656724D01*
X130643977Y-108656721D01*
X130480116Y-108547232D01*
X130480103Y-108547225D01*
X130298035Y-108471811D01*
X130298025Y-108471808D01*
X130104739Y-108433361D01*
X130104737Y-108433361D01*
X129907655Y-108433361D01*
X129907653Y-108433361D01*
X129714366Y-108471808D01*
X129714356Y-108471811D01*
X129532288Y-108547225D01*
X129532275Y-108547232D01*
X129368414Y-108656721D01*
X129368410Y-108656724D01*
X129229059Y-108796075D01*
X129229056Y-108796079D01*
X129119567Y-108959940D01*
X129119560Y-108959953D01*
X129089796Y-109031813D01*
X129045956Y-109086217D01*
X128979662Y-109108282D01*
X128975235Y-109108361D01*
X125483804Y-109108361D01*
X125416765Y-109088676D01*
X125371010Y-109035872D01*
X125361066Y-108966714D01*
X125390091Y-108903158D01*
X125414912Y-108881259D01*
X125434028Y-108868486D01*
X125478343Y-108802165D01*
X125478343Y-108802163D01*
X125478344Y-108802163D01*
X125489975Y-108743686D01*
X125489976Y-108743684D01*
X125489976Y-107654183D01*
X125489975Y-107654181D01*
X125478344Y-107595704D01*
X125478343Y-107595703D01*
X125434028Y-107529381D01*
X125367706Y-107485066D01*
X125367705Y-107485065D01*
X125309228Y-107473434D01*
X125309224Y-107473434D01*
X124988976Y-107473434D01*
X124921937Y-107453749D01*
X124876182Y-107400945D01*
X124864976Y-107349434D01*
X124864976Y-106244668D01*
X124884661Y-106177629D01*
X124937465Y-106131874D01*
X124941496Y-106130118D01*
X125076001Y-106074406D01*
X125094321Y-106066818D01*
X125094324Y-106066816D01*
X125094327Y-106066815D01*
X125258195Y-105957322D01*
X125397552Y-105817965D01*
X125507045Y-105654097D01*
X125582464Y-105472018D01*
X125614610Y-105310411D01*
X125620913Y-105278726D01*
X125620913Y-105262587D01*
X125640598Y-105195548D01*
X125693402Y-105149793D01*
X125744913Y-105138587D01*
X127906537Y-105138587D01*
X127973576Y-105158272D01*
X128019331Y-105211076D01*
X128030537Y-105262587D01*
X128030537Y-105442356D01*
X128033390Y-105472786D01*
X128033390Y-105472788D01*
X128078243Y-105600967D01*
X128078244Y-105600969D01*
X128158887Y-105710237D01*
X128268155Y-105790880D01*
X128294613Y-105800138D01*
X128396336Y-105835733D01*
X128426767Y-105838587D01*
X128426771Y-105838587D01*
X129635307Y-105838587D01*
X129665736Y-105835733D01*
X129665738Y-105835733D01*
X129729827Y-105813306D01*
X129793919Y-105790880D01*
X129903187Y-105710237D01*
X129983830Y-105600969D01*
X130024219Y-105485544D01*
X130028683Y-105472788D01*
X130028683Y-105472786D01*
X130031537Y-105442356D01*
X130031537Y-104936630D01*
X130530536Y-104936630D01*
X130568984Y-105129916D01*
X130568987Y-105129926D01*
X130644401Y-105311994D01*
X130644408Y-105312007D01*
X130753897Y-105475868D01*
X130753900Y-105475872D01*
X130893251Y-105615223D01*
X130893255Y-105615226D01*
X131057116Y-105724715D01*
X131057129Y-105724722D01*
X131216851Y-105790880D01*
X131239202Y-105800138D01*
X131239206Y-105800138D01*
X131239207Y-105800139D01*
X131432493Y-105838587D01*
X131432496Y-105838587D01*
X131629580Y-105838587D01*
X131759619Y-105812719D01*
X131822872Y-105800138D01*
X131919739Y-105760013D01*
X131989206Y-105752544D01*
X132051686Y-105783818D01*
X132054872Y-105786893D01*
X134082657Y-107814678D01*
X134116142Y-107876001D01*
X134118976Y-107902359D01*
X134118976Y-109697617D01*
X134099291Y-109764656D01*
X134046487Y-109810411D01*
X134042429Y-109812178D01*
X133945565Y-109852300D01*
X133945555Y-109852305D01*
X133781694Y-109961794D01*
X133781690Y-109961797D01*
X133642339Y-110101148D01*
X133642336Y-110101152D01*
X133532847Y-110265013D01*
X133532840Y-110265026D01*
X133457426Y-110447094D01*
X133457423Y-110447104D01*
X133418976Y-110640390D01*
X133418976Y-110640393D01*
X133418976Y-110837475D01*
X133418976Y-110837477D01*
X133418975Y-110837477D01*
X133457423Y-111030763D01*
X133457426Y-111030773D01*
X133532840Y-111212841D01*
X133532847Y-111212854D01*
X133642336Y-111376715D01*
X133642339Y-111376719D01*
X133781690Y-111516070D01*
X133781694Y-111516073D01*
X133945555Y-111625562D01*
X133945568Y-111625569D01*
X134095664Y-111687740D01*
X134127641Y-111700985D01*
X134127645Y-111700985D01*
X134127646Y-111700986D01*
X134320932Y-111739434D01*
X134320935Y-111739434D01*
X134518019Y-111739434D01*
X134683535Y-111706510D01*
X134711311Y-111700985D01*
X134886430Y-111628449D01*
X134893383Y-111625569D01*
X134893383Y-111625568D01*
X134893390Y-111625566D01*
X135057258Y-111516073D01*
X135196615Y-111376716D01*
X135306108Y-111212848D01*
X135308979Y-111205918D01*
X135324356Y-111168794D01*
X135381527Y-111030769D01*
X135409638Y-110889446D01*
X135419976Y-110837477D01*
X141038975Y-110837477D01*
X141077423Y-111030763D01*
X141077426Y-111030773D01*
X141152840Y-111212841D01*
X141152847Y-111212854D01*
X141262336Y-111376715D01*
X141262339Y-111376719D01*
X141401690Y-111516070D01*
X141401694Y-111516073D01*
X141565555Y-111625562D01*
X141565568Y-111625569D01*
X141715664Y-111687740D01*
X141747641Y-111700985D01*
X141747645Y-111700985D01*
X141747646Y-111700986D01*
X141940932Y-111739434D01*
X141940935Y-111739434D01*
X142138019Y-111739434D01*
X142303535Y-111706510D01*
X142331311Y-111700985D01*
X142428178Y-111660860D01*
X142497645Y-111653391D01*
X142560125Y-111684665D01*
X142563311Y-111687740D01*
X145310082Y-114434511D01*
X145366031Y-114490460D01*
X145366033Y-114490461D01*
X145366037Y-114490464D01*
X145407505Y-114514405D01*
X145434553Y-114530021D01*
X145510980Y-114550500D01*
X145590104Y-114550500D01*
X147535015Y-114550500D01*
X147602054Y-114570185D01*
X147647809Y-114622989D01*
X147649576Y-114627048D01*
X147689695Y-114723907D01*
X147689702Y-114723920D01*
X147799191Y-114887781D01*
X147799194Y-114887785D01*
X147938545Y-115027136D01*
X147938549Y-115027139D01*
X148102410Y-115136628D01*
X148102423Y-115136635D01*
X148271662Y-115206735D01*
X148284496Y-115212051D01*
X148284500Y-115212051D01*
X148284501Y-115212052D01*
X148477787Y-115250500D01*
X148477790Y-115250500D01*
X148674874Y-115250500D01*
X148804913Y-115224632D01*
X148868166Y-115212051D01*
X149050245Y-115136632D01*
X149214113Y-115027139D01*
X149353470Y-114887782D01*
X149462963Y-114723914D01*
X149469682Y-114707694D01*
X149538380Y-114541839D01*
X149538382Y-114541835D01*
X149565355Y-114406235D01*
X149576831Y-114348543D01*
X149576831Y-114151456D01*
X149538383Y-113958170D01*
X149538382Y-113958169D01*
X149538382Y-113958165D01*
X149501911Y-113870117D01*
X149494443Y-113800652D01*
X149525717Y-113738173D01*
X149528764Y-113735015D01*
X152588740Y-110675039D01*
X152650061Y-110641556D01*
X152719753Y-110646540D01*
X152723829Y-110648144D01*
X152820740Y-110688286D01*
X152820744Y-110688286D01*
X152820745Y-110688287D01*
X153014031Y-110726735D01*
X153014034Y-110726735D01*
X153211118Y-110726735D01*
X153350306Y-110699048D01*
X153404410Y-110688286D01*
X153586489Y-110612867D01*
X153750357Y-110503374D01*
X153889714Y-110364017D01*
X153999207Y-110200149D01*
X154009458Y-110175402D01*
X154034503Y-110114937D01*
X154074626Y-110018070D01*
X154091864Y-109931412D01*
X154113075Y-109824778D01*
X154113075Y-109627691D01*
X154074627Y-109434405D01*
X154074626Y-109434404D01*
X154074626Y-109434400D01*
X154041126Y-109353523D01*
X153999210Y-109252327D01*
X153999203Y-109252314D01*
X153889714Y-109088453D01*
X153889711Y-109088449D01*
X153750360Y-108949098D01*
X153750356Y-108949095D01*
X153586495Y-108839606D01*
X153586482Y-108839599D01*
X153404414Y-108764185D01*
X153404404Y-108764182D01*
X153211118Y-108725735D01*
X153211116Y-108725735D01*
X153014034Y-108725735D01*
X153014032Y-108725735D01*
X152820745Y-108764182D01*
X152820735Y-108764185D01*
X152638667Y-108839599D01*
X152638654Y-108839606D01*
X152474793Y-108949095D01*
X152474789Y-108949098D01*
X152335438Y-109088449D01*
X152335435Y-109088453D01*
X152225946Y-109252314D01*
X152225939Y-109252327D01*
X152150525Y-109434395D01*
X152150522Y-109434405D01*
X152112075Y-109627691D01*
X152112075Y-109627694D01*
X152112075Y-109824776D01*
X152112075Y-109824778D01*
X152112074Y-109824778D01*
X152150522Y-110018064D01*
X152150525Y-110018074D01*
X152190647Y-110114937D01*
X152198116Y-110184406D01*
X152166841Y-110246885D01*
X152163767Y-110250070D01*
X149108990Y-113304847D01*
X149047667Y-113338332D01*
X148977975Y-113333348D01*
X148973857Y-113331727D01*
X148868170Y-113287950D01*
X148868160Y-113287947D01*
X148674874Y-113249500D01*
X148674872Y-113249500D01*
X148477790Y-113249500D01*
X148477788Y-113249500D01*
X148284501Y-113287947D01*
X148284491Y-113287950D01*
X148102423Y-113363364D01*
X148102410Y-113363371D01*
X147938549Y-113472860D01*
X147938545Y-113472863D01*
X147799194Y-113612214D01*
X147799191Y-113612218D01*
X147689702Y-113776079D01*
X147689695Y-113776092D01*
X147649576Y-113872952D01*
X147605736Y-113927356D01*
X147539442Y-113949421D01*
X147535015Y-113949500D01*
X145726375Y-113949500D01*
X145659336Y-113929815D01*
X145638694Y-113913181D01*
X142988282Y-111262769D01*
X142954797Y-111201446D01*
X142959781Y-111131754D01*
X142961386Y-111127677D01*
X143001527Y-111030769D01*
X143029638Y-110889446D01*
X143039976Y-110837477D01*
X143039976Y-110640390D01*
X143001528Y-110447104D01*
X143001527Y-110447103D01*
X143001527Y-110447099D01*
X142989405Y-110417833D01*
X142926111Y-110265026D01*
X142926104Y-110265013D01*
X142816615Y-110101152D01*
X142816612Y-110101148D01*
X142677261Y-109961797D01*
X142677255Y-109961792D01*
X142610084Y-109916909D01*
X142565280Y-109863297D01*
X142554976Y-109813808D01*
X142554976Y-109348543D01*
X147575830Y-109348543D01*
X147614278Y-109541829D01*
X147614281Y-109541839D01*
X147689695Y-109723907D01*
X147689702Y-109723920D01*
X147799191Y-109887781D01*
X147799194Y-109887785D01*
X147938545Y-110027136D01*
X147938549Y-110027139D01*
X148102410Y-110136628D01*
X148102423Y-110136635D01*
X148283477Y-110211629D01*
X148284496Y-110212051D01*
X148284500Y-110212051D01*
X148284501Y-110212052D01*
X148477787Y-110250500D01*
X148477790Y-110250500D01*
X148674874Y-110250500D01*
X148837987Y-110218054D01*
X148868166Y-110212051D01*
X149050245Y-110136632D01*
X149214113Y-110027139D01*
X149353470Y-109887782D01*
X149462963Y-109723914D01*
X149466206Y-109716086D01*
X149480926Y-109680548D01*
X149538382Y-109541835D01*
X149559751Y-109434406D01*
X149576831Y-109348543D01*
X149576831Y-109151456D01*
X149538383Y-108958170D01*
X149538382Y-108958169D01*
X149538382Y-108958165D01*
X149534625Y-108949095D01*
X149462966Y-108776092D01*
X149462959Y-108776079D01*
X149353470Y-108612218D01*
X149353467Y-108612214D01*
X149214116Y-108472863D01*
X149214112Y-108472860D01*
X149050251Y-108363371D01*
X149050241Y-108363366D01*
X148953378Y-108323244D01*
X148898975Y-108279403D01*
X148876910Y-108213109D01*
X148876831Y-108208683D01*
X148876831Y-107687911D01*
X148896516Y-107620872D01*
X148913146Y-107600234D01*
X149325641Y-107187738D01*
X149386962Y-107154255D01*
X149456653Y-107159239D01*
X149460730Y-107160843D01*
X149557641Y-107200985D01*
X149557645Y-107200985D01*
X149557646Y-107200986D01*
X149750932Y-107239434D01*
X149750935Y-107239434D01*
X149948019Y-107239434D01*
X150078058Y-107213566D01*
X150141311Y-107200985D01*
X150323390Y-107125566D01*
X150487258Y-107016073D01*
X150626615Y-106876716D01*
X150736108Y-106712848D01*
X150776231Y-106615982D01*
X150820071Y-106561578D01*
X150886365Y-106539513D01*
X150890792Y-106539434D01*
X151988075Y-106539434D01*
X152055114Y-106559119D01*
X152100869Y-106611923D01*
X152112075Y-106663434D01*
X152112075Y-107790504D01*
X152114928Y-107820934D01*
X152114928Y-107820936D01*
X152159160Y-107947339D01*
X152159782Y-107949117D01*
X152240425Y-108058385D01*
X152349693Y-108139028D01*
X152376151Y-108148286D01*
X152477874Y-108183881D01*
X152508305Y-108186735D01*
X152508309Y-108186735D01*
X153716845Y-108186735D01*
X153747274Y-108183881D01*
X153747276Y-108183881D01*
X153811365Y-108161454D01*
X153875457Y-108139028D01*
X153984725Y-108058385D01*
X154065368Y-107949117D01*
X154101588Y-107845606D01*
X154110221Y-107820936D01*
X154110221Y-107820934D01*
X154113075Y-107790504D01*
X154113075Y-106581965D01*
X154110221Y-106551535D01*
X154110221Y-106551533D01*
X154065368Y-106423354D01*
X154065367Y-106423352D01*
X154054845Y-106409095D01*
X153984725Y-106314085D01*
X153875457Y-106233442D01*
X153875455Y-106233441D01*
X153747275Y-106188588D01*
X153716845Y-106185735D01*
X153716841Y-106185735D01*
X152588408Y-106185735D01*
X152521369Y-106166050D01*
X152500727Y-106149416D01*
X152349784Y-105998473D01*
X152332460Y-105988471D01*
X152315135Y-105978469D01*
X152315134Y-105978468D01*
X152281268Y-105958915D01*
X152281267Y-105958914D01*
X152272234Y-105956493D01*
X152204836Y-105938434D01*
X152204834Y-105938434D01*
X150890792Y-105938434D01*
X150823753Y-105918749D01*
X150777998Y-105865945D01*
X150776231Y-105861886D01*
X150736111Y-105765026D01*
X150736104Y-105765013D01*
X150626615Y-105601152D01*
X150626612Y-105601148D01*
X150487261Y-105461797D01*
X150487257Y-105461794D01*
X150323396Y-105352305D01*
X150323386Y-105352300D01*
X150226523Y-105312178D01*
X150172120Y-105268337D01*
X150150055Y-105202043D01*
X150149976Y-105197617D01*
X150149976Y-104092032D01*
X150169661Y-104024993D01*
X150222465Y-103979238D01*
X150249778Y-103970416D01*
X150291835Y-103962051D01*
X150473914Y-103886632D01*
X150637782Y-103777139D01*
X150777139Y-103637782D01*
X150886632Y-103473914D01*
X150962051Y-103291835D01*
X150992636Y-103138077D01*
X151000500Y-103098543D01*
X156619499Y-103098543D01*
X156657947Y-103291829D01*
X156657950Y-103291839D01*
X156733364Y-103473907D01*
X156733371Y-103473920D01*
X156842860Y-103637781D01*
X156842863Y-103637785D01*
X156982217Y-103777139D01*
X157076956Y-103840441D01*
X157146086Y-103886632D01*
X157217953Y-103916399D01*
X157272355Y-103960239D01*
X157294421Y-104026533D01*
X157294500Y-104030960D01*
X157294500Y-109196513D01*
X157310792Y-109257314D01*
X157316682Y-109279297D01*
X157316685Y-109279304D01*
X157359530Y-109353515D01*
X157359534Y-109353520D01*
X157359535Y-109353522D01*
X157420138Y-109414125D01*
X157489655Y-109454260D01*
X157515334Y-109473965D01*
X159783767Y-111742398D01*
X159817252Y-111803721D01*
X159812268Y-111873413D01*
X159810648Y-111877530D01*
X159770523Y-111974403D01*
X159770522Y-111974406D01*
X159732075Y-112167691D01*
X159732075Y-112167694D01*
X159732075Y-112364776D01*
X159732075Y-112364778D01*
X159732074Y-112364778D01*
X159770522Y-112558064D01*
X159770525Y-112558074D01*
X159845939Y-112740142D01*
X159845946Y-112740155D01*
X159955435Y-112904016D01*
X159955438Y-112904020D01*
X160094789Y-113043371D01*
X160094793Y-113043374D01*
X160258654Y-113152863D01*
X160258667Y-113152870D01*
X160439938Y-113227954D01*
X160440740Y-113228286D01*
X160440744Y-113228286D01*
X160440745Y-113228287D01*
X160634031Y-113266735D01*
X160634034Y-113266735D01*
X160831118Y-113266735D01*
X160961157Y-113240867D01*
X161024410Y-113228286D01*
X161026086Y-113227592D01*
X161031614Y-113225301D01*
X161121277Y-113188161D01*
X161190744Y-113180692D01*
X161253224Y-113211966D01*
X161256410Y-113215041D01*
X163797696Y-115756327D01*
X163831181Y-115817650D01*
X163834015Y-115844008D01*
X163834015Y-118709530D01*
X163814330Y-118776569D01*
X163761526Y-118822324D01*
X163757468Y-118824091D01*
X163660604Y-118864213D01*
X163660594Y-118864218D01*
X163496733Y-118973707D01*
X163496729Y-118973710D01*
X163357378Y-119113061D01*
X163357375Y-119113065D01*
X163247886Y-119276926D01*
X163247879Y-119276939D01*
X163172465Y-119459007D01*
X163172462Y-119459017D01*
X163134015Y-119652303D01*
X163134015Y-119652306D01*
X163134015Y-119849388D01*
X163134015Y-119849390D01*
X163134014Y-119849390D01*
X163172462Y-120042676D01*
X163172465Y-120042686D01*
X163247879Y-120224754D01*
X163247886Y-120224767D01*
X163357375Y-120388628D01*
X163357378Y-120388632D01*
X163496729Y-120527983D01*
X163496733Y-120527986D01*
X163660594Y-120637475D01*
X163660607Y-120637482D01*
X163798854Y-120694745D01*
X163842680Y-120712898D01*
X163842684Y-120712898D01*
X163842685Y-120712899D01*
X164035971Y-120751347D01*
X164035974Y-120751347D01*
X164233058Y-120751347D01*
X164370793Y-120723949D01*
X164426350Y-120712898D01*
X164608429Y-120637479D01*
X164772297Y-120527986D01*
X164911654Y-120388629D01*
X165021147Y-120224761D01*
X165096566Y-120042682D01*
X165130770Y-119870730D01*
X165135015Y-119849390D01*
X165135015Y-119652303D01*
X165096567Y-119459017D01*
X165096566Y-119459016D01*
X165096566Y-119459012D01*
X165056440Y-119362141D01*
X165048972Y-119292675D01*
X165080247Y-119230196D01*
X165083292Y-119227039D01*
X166875274Y-117435059D01*
X166936597Y-117401574D01*
X166962955Y-117398740D01*
X167067529Y-117398740D01*
X167134568Y-117418425D01*
X167180323Y-117471229D01*
X167182090Y-117475288D01*
X167222209Y-117572147D01*
X167222216Y-117572160D01*
X167331705Y-117736021D01*
X167331708Y-117736025D01*
X167471059Y-117875376D01*
X167471063Y-117875379D01*
X167634924Y-117984868D01*
X167634937Y-117984875D01*
X167817005Y-118060289D01*
X167817010Y-118060291D01*
X167817014Y-118060291D01*
X167817015Y-118060292D01*
X168010301Y-118098740D01*
X168010304Y-118098740D01*
X168207388Y-118098740D01*
X168349336Y-118070504D01*
X168400680Y-118060291D01*
X168569213Y-117990483D01*
X168582752Y-117984875D01*
X168582752Y-117984874D01*
X168582759Y-117984872D01*
X168696994Y-117908543D01*
X170999499Y-117908543D01*
X171037947Y-118101829D01*
X171037950Y-118101839D01*
X171113364Y-118283907D01*
X171113371Y-118283920D01*
X171222860Y-118447781D01*
X171222863Y-118447785D01*
X171362214Y-118587136D01*
X171362218Y-118587139D01*
X171526079Y-118696628D01*
X171526092Y-118696635D01*
X171633775Y-118741238D01*
X171708165Y-118772051D01*
X171708169Y-118772051D01*
X171708170Y-118772052D01*
X171901456Y-118810500D01*
X171901459Y-118810500D01*
X172098543Y-118810500D01*
X172250646Y-118780244D01*
X172291835Y-118772051D01*
X172473914Y-118696632D01*
X172637782Y-118587139D01*
X172777139Y-118447782D01*
X172886632Y-118283914D01*
X172962051Y-118101835D01*
X172985317Y-117984872D01*
X173000500Y-117908543D01*
X173000500Y-117711456D01*
X172962052Y-117518170D01*
X172962051Y-117518169D01*
X172962051Y-117518165D01*
X172925090Y-117428933D01*
X172886635Y-117336092D01*
X172886628Y-117336079D01*
X172777139Y-117172218D01*
X172777136Y-117172214D01*
X172637785Y-117032863D01*
X172637781Y-117032860D01*
X172473920Y-116923371D01*
X172473907Y-116923364D01*
X172291839Y-116847950D01*
X172291829Y-116847947D01*
X172098543Y-116809500D01*
X172098541Y-116809500D01*
X171901459Y-116809500D01*
X171901457Y-116809500D01*
X171708170Y-116847947D01*
X171708160Y-116847950D01*
X171526092Y-116923364D01*
X171526079Y-116923371D01*
X171362218Y-117032860D01*
X171362214Y-117032863D01*
X171222863Y-117172214D01*
X171222860Y-117172218D01*
X171113371Y-117336079D01*
X171113364Y-117336092D01*
X171037950Y-117518160D01*
X171037947Y-117518170D01*
X170999500Y-117711456D01*
X170999500Y-117711459D01*
X170999500Y-117908541D01*
X170999500Y-117908543D01*
X170999499Y-117908543D01*
X168696994Y-117908543D01*
X168746627Y-117875379D01*
X168885984Y-117736022D01*
X168922520Y-117681341D01*
X168952499Y-117636476D01*
X168995473Y-117572160D01*
X168995473Y-117572159D01*
X168995477Y-117572154D01*
X169070896Y-117390075D01*
X169109345Y-117196781D01*
X169109345Y-116999699D01*
X169109345Y-116999696D01*
X169070897Y-116806410D01*
X169070896Y-116806409D01*
X169070896Y-116806405D01*
X169052512Y-116762021D01*
X168995480Y-116624332D01*
X168995473Y-116624319D01*
X168885984Y-116460458D01*
X168885981Y-116460454D01*
X168746630Y-116321103D01*
X168746626Y-116321100D01*
X168582765Y-116211611D01*
X168582752Y-116211604D01*
X168400684Y-116136190D01*
X168400674Y-116136187D01*
X168207388Y-116097740D01*
X168207386Y-116097740D01*
X168010304Y-116097740D01*
X168010302Y-116097740D01*
X167817015Y-116136187D01*
X167817005Y-116136190D01*
X167634937Y-116211604D01*
X167634924Y-116211611D01*
X167471063Y-116321100D01*
X167471059Y-116321103D01*
X167331708Y-116460454D01*
X167331705Y-116460458D01*
X167222216Y-116624319D01*
X167222209Y-116624332D01*
X167182090Y-116721192D01*
X167138250Y-116775596D01*
X167071956Y-116797661D01*
X167067529Y-116797740D01*
X166747560Y-116797740D01*
X166671132Y-116818218D01*
X166602611Y-116857780D01*
X166602608Y-116857782D01*
X164658350Y-118802039D01*
X164597027Y-118835524D01*
X164527335Y-118830540D01*
X164523210Y-118828916D01*
X164511556Y-118824088D01*
X164457155Y-118780244D01*
X164435094Y-118713949D01*
X164435015Y-118709530D01*
X164435015Y-115628614D01*
X164435015Y-115628613D01*
X164422893Y-115583374D01*
X164414537Y-115552187D01*
X164374975Y-115483664D01*
X161681381Y-112790070D01*
X161647896Y-112728747D01*
X161652880Y-112659055D01*
X161654485Y-112654978D01*
X161694626Y-112558070D01*
X161711900Y-112471229D01*
X161733075Y-112364778D01*
X161733075Y-112167691D01*
X161694627Y-111974405D01*
X161694626Y-111974404D01*
X161694626Y-111974400D01*
X161665289Y-111903573D01*
X161619210Y-111792327D01*
X161619203Y-111792314D01*
X161509714Y-111628453D01*
X161509711Y-111628449D01*
X161370360Y-111489098D01*
X161370356Y-111489095D01*
X161206495Y-111379606D01*
X161206482Y-111379599D01*
X161024414Y-111304185D01*
X161024404Y-111304182D01*
X160831118Y-111265735D01*
X160831116Y-111265735D01*
X160634034Y-111265735D01*
X160634032Y-111265735D01*
X160440746Y-111304182D01*
X160440743Y-111304183D01*
X160440741Y-111304183D01*
X160440740Y-111304184D01*
X160440738Y-111304185D01*
X160343870Y-111344308D01*
X160274401Y-111351775D01*
X160211922Y-111320500D01*
X160208738Y-111317427D01*
X157981819Y-109090508D01*
X157948334Y-109029185D01*
X157945500Y-109002827D01*
X157945500Y-106037820D01*
X158949500Y-106037820D01*
X158949500Y-108283222D01*
X158969979Y-108359649D01*
X159001745Y-108414669D01*
X159001748Y-108414674D01*
X159009539Y-108428171D01*
X159009541Y-108428173D01*
X159783767Y-109202398D01*
X159817252Y-109263721D01*
X159812268Y-109333412D01*
X159810648Y-109337530D01*
X159770523Y-109434403D01*
X159770522Y-109434406D01*
X159732075Y-109627691D01*
X159732075Y-109627694D01*
X159732075Y-109824776D01*
X159732075Y-109824778D01*
X159732074Y-109824778D01*
X159770522Y-110018064D01*
X159770525Y-110018074D01*
X159845939Y-110200142D01*
X159845946Y-110200155D01*
X159955435Y-110364016D01*
X159955438Y-110364020D01*
X160094789Y-110503371D01*
X160094793Y-110503374D01*
X160258654Y-110612863D01*
X160258667Y-110612870D01*
X160408763Y-110675041D01*
X160440740Y-110688286D01*
X160440744Y-110688286D01*
X160440745Y-110688287D01*
X160634031Y-110726735D01*
X160634034Y-110726735D01*
X160831118Y-110726735D01*
X160970306Y-110699048D01*
X161024410Y-110688286D01*
X161121277Y-110648161D01*
X161190744Y-110640692D01*
X161253224Y-110671966D01*
X161256410Y-110675041D01*
X162896727Y-112315358D01*
X162952676Y-112371307D01*
X162952678Y-112371308D01*
X162952682Y-112371311D01*
X163000328Y-112398819D01*
X163021198Y-112410868D01*
X163097625Y-112431347D01*
X163097627Y-112431347D01*
X163105684Y-112432408D01*
X163105353Y-112434916D01*
X163160238Y-112451032D01*
X163205993Y-112503836D01*
X163207760Y-112507895D01*
X163247879Y-112604754D01*
X163247886Y-112604767D01*
X163357375Y-112768628D01*
X163357378Y-112768632D01*
X163496729Y-112907983D01*
X163496733Y-112907986D01*
X163660594Y-113017475D01*
X163660607Y-113017482D01*
X163842675Y-113092896D01*
X163842680Y-113092898D01*
X163842684Y-113092898D01*
X163842685Y-113092899D01*
X164035971Y-113131347D01*
X164035974Y-113131347D01*
X164233058Y-113131347D01*
X164363097Y-113105479D01*
X164426350Y-113092898D01*
X164608429Y-113017479D01*
X164772297Y-112907986D01*
X164911654Y-112768629D01*
X165021147Y-112604761D01*
X165061270Y-112507895D01*
X165074777Y-112475287D01*
X165118618Y-112420884D01*
X165184912Y-112398819D01*
X165189338Y-112398740D01*
X167067529Y-112398740D01*
X167134568Y-112418425D01*
X167180323Y-112471229D01*
X167182090Y-112475288D01*
X167222209Y-112572147D01*
X167222216Y-112572160D01*
X167331705Y-112736021D01*
X167331708Y-112736025D01*
X167471059Y-112875376D01*
X167471063Y-112875379D01*
X167634924Y-112984868D01*
X167634937Y-112984875D01*
X167817005Y-113060289D01*
X167817010Y-113060291D01*
X167817014Y-113060291D01*
X167817015Y-113060292D01*
X168010301Y-113098740D01*
X168010304Y-113098740D01*
X168207388Y-113098740D01*
X168337427Y-113072872D01*
X168400680Y-113060291D01*
X168582759Y-112984872D01*
X168746627Y-112875379D01*
X168885984Y-112736022D01*
X168995477Y-112572154D01*
X168998640Y-112564519D01*
X169053361Y-112432408D01*
X169070896Y-112390075D01*
X169095475Y-112266511D01*
X169109345Y-112196783D01*
X169109345Y-111999696D01*
X169070897Y-111806410D01*
X169070896Y-111806409D01*
X169070896Y-111806405D01*
X169058135Y-111775596D01*
X168995480Y-111624332D01*
X168995473Y-111624319D01*
X168885984Y-111460458D01*
X168885981Y-111460454D01*
X168746630Y-111321103D01*
X168746626Y-111321100D01*
X168582765Y-111211611D01*
X168582752Y-111211604D01*
X168400684Y-111136190D01*
X168400674Y-111136187D01*
X168207388Y-111097740D01*
X168207386Y-111097740D01*
X168010304Y-111097740D01*
X168010302Y-111097740D01*
X167817015Y-111136187D01*
X167817005Y-111136190D01*
X167634937Y-111211604D01*
X167634924Y-111211611D01*
X167471063Y-111321100D01*
X167471059Y-111321103D01*
X167331708Y-111460454D01*
X167331705Y-111460458D01*
X167222216Y-111624319D01*
X167222209Y-111624332D01*
X167182090Y-111721192D01*
X167138250Y-111775596D01*
X167071956Y-111797661D01*
X167067529Y-111797740D01*
X165162325Y-111797740D01*
X165095286Y-111778055D01*
X165049531Y-111725251D01*
X165047764Y-111721192D01*
X165021150Y-111656939D01*
X165021143Y-111656926D01*
X164911654Y-111493065D01*
X164911651Y-111493061D01*
X164772300Y-111353710D01*
X164772296Y-111353707D01*
X164608435Y-111244218D01*
X164608422Y-111244211D01*
X164426354Y-111168797D01*
X164426344Y-111168794D01*
X164233058Y-111130347D01*
X164233056Y-111130347D01*
X164035974Y-111130347D01*
X164035972Y-111130347D01*
X163842685Y-111168794D01*
X163842675Y-111168797D01*
X163660607Y-111244211D01*
X163660594Y-111244218D01*
X163496733Y-111353707D01*
X163496729Y-111353710D01*
X163357378Y-111493061D01*
X163357375Y-111493065D01*
X163267883Y-111626999D01*
X163214271Y-111671804D01*
X163144946Y-111680511D01*
X163081918Y-111650356D01*
X163077100Y-111645789D01*
X161681381Y-110250070D01*
X161647896Y-110188747D01*
X161652880Y-110119055D01*
X161654485Y-110114978D01*
X161694626Y-110018070D01*
X161711864Y-109931412D01*
X161733075Y-109824778D01*
X161733075Y-109627691D01*
X161694627Y-109434405D01*
X161694626Y-109434404D01*
X161694626Y-109434400D01*
X161661126Y-109353523D01*
X161619210Y-109252327D01*
X161619203Y-109252314D01*
X161509714Y-109088453D01*
X161509711Y-109088449D01*
X161370360Y-108949098D01*
X161370356Y-108949095D01*
X161206495Y-108839606D01*
X161206482Y-108839599D01*
X161024414Y-108764185D01*
X161024404Y-108764182D01*
X160831118Y-108725735D01*
X160831116Y-108725735D01*
X160634034Y-108725735D01*
X160634032Y-108725735D01*
X160440746Y-108764182D01*
X160440743Y-108764183D01*
X160440741Y-108764183D01*
X160440740Y-108764184D01*
X160408768Y-108777427D01*
X160343870Y-108804308D01*
X160274401Y-108811775D01*
X160211922Y-108780500D01*
X160208738Y-108777427D01*
X159586819Y-108155508D01*
X159553334Y-108094185D01*
X159550500Y-108067827D01*
X159550500Y-107570275D01*
X159570185Y-107503236D01*
X159622989Y-107457481D01*
X159692147Y-107447537D01*
X159755703Y-107476562D01*
X159789061Y-107522823D01*
X159845939Y-107660142D01*
X159845946Y-107660155D01*
X159955435Y-107824016D01*
X159955438Y-107824020D01*
X160094789Y-107963371D01*
X160094793Y-107963374D01*
X160258654Y-108072863D01*
X160258667Y-108072870D01*
X160418389Y-108139028D01*
X160440740Y-108148286D01*
X160440744Y-108148286D01*
X160440745Y-108148287D01*
X160634031Y-108186735D01*
X160634034Y-108186735D01*
X160831118Y-108186735D01*
X160993703Y-108154394D01*
X161024410Y-108148286D01*
X161206489Y-108072867D01*
X161370357Y-107963374D01*
X161436049Y-107897682D01*
X161510678Y-107823054D01*
X161572001Y-107789569D01*
X161598359Y-107786735D01*
X163491230Y-107786735D01*
X163558269Y-107806420D01*
X163578911Y-107823054D01*
X164785827Y-109029970D01*
X164819312Y-109091293D01*
X164822146Y-109117651D01*
X164822146Y-109119013D01*
X164822146Y-109316095D01*
X164822146Y-109316097D01*
X164822145Y-109316097D01*
X164860593Y-109509383D01*
X164860596Y-109509393D01*
X164936010Y-109691461D01*
X164936017Y-109691474D01*
X165045506Y-109855335D01*
X165045509Y-109855339D01*
X165184860Y-109994690D01*
X165184864Y-109994693D01*
X165348725Y-110104182D01*
X165348738Y-110104189D01*
X165520664Y-110175402D01*
X165530811Y-110179605D01*
X165530815Y-110179605D01*
X165530816Y-110179606D01*
X165724102Y-110218054D01*
X165922549Y-110218054D01*
X165989588Y-110237739D01*
X166010230Y-110254373D01*
X166072583Y-110316726D01*
X166072593Y-110316737D01*
X166076923Y-110321067D01*
X166076924Y-110321068D01*
X166188728Y-110432872D01*
X166264702Y-110476735D01*
X166325659Y-110511929D01*
X166478386Y-110552852D01*
X166478387Y-110552852D01*
X170984511Y-110552852D01*
X171051550Y-110572537D01*
X171097305Y-110625341D01*
X171099060Y-110629371D01*
X171103749Y-110640692D01*
X171113367Y-110663913D01*
X171113371Y-110663920D01*
X171222860Y-110827781D01*
X171222863Y-110827785D01*
X171362214Y-110967136D01*
X171362218Y-110967139D01*
X171526079Y-111076628D01*
X171526092Y-111076635D01*
X171708160Y-111152049D01*
X171708165Y-111152051D01*
X171708169Y-111152051D01*
X171708170Y-111152052D01*
X171901456Y-111190500D01*
X171901459Y-111190500D01*
X172098543Y-111190500D01*
X172228582Y-111164632D01*
X172291835Y-111152051D01*
X172459537Y-111082587D01*
X172473907Y-111076635D01*
X172473907Y-111076634D01*
X172473914Y-111076632D01*
X172637782Y-110967139D01*
X172777139Y-110827782D01*
X172886632Y-110663914D01*
X172893829Y-110646540D01*
X172916095Y-110592784D01*
X172962051Y-110481835D01*
X172979143Y-110395910D01*
X173000500Y-110288543D01*
X173000500Y-110091456D01*
X172962052Y-109898170D01*
X172962051Y-109898169D01*
X172962051Y-109898165D01*
X172961146Y-109895981D01*
X172886635Y-109716092D01*
X172886628Y-109716079D01*
X172784491Y-109563220D01*
X172763613Y-109496542D01*
X172763593Y-109494329D01*
X172763593Y-106299851D01*
X172783278Y-106232812D01*
X172836082Y-106187057D01*
X172846616Y-106182817D01*
X172925975Y-106155049D01*
X173035243Y-106074406D01*
X173115886Y-105965138D01*
X173150595Y-105865945D01*
X173160739Y-105836957D01*
X173160739Y-105836955D01*
X173163593Y-105806525D01*
X173163593Y-104597986D01*
X173160739Y-104567556D01*
X173160739Y-104567554D01*
X173115886Y-104439375D01*
X173115885Y-104439373D01*
X173096854Y-104413587D01*
X173035243Y-104330106D01*
X172925975Y-104249463D01*
X172925973Y-104249462D01*
X172797793Y-104204609D01*
X172767363Y-104201756D01*
X172767359Y-104201756D01*
X172537902Y-104201756D01*
X172470863Y-104182071D01*
X172425108Y-104129267D01*
X172415164Y-104060109D01*
X172444189Y-103996553D01*
X172499583Y-103959825D01*
X172662124Y-103907011D01*
X172844442Y-103814115D01*
X172889014Y-103781730D01*
X172209540Y-103102256D01*
X172215754Y-103102256D01*
X172317487Y-103074997D01*
X172408699Y-103022336D01*
X172483173Y-102947862D01*
X172535834Y-102856650D01*
X172563093Y-102754917D01*
X172563093Y-102748703D01*
X173242567Y-103428177D01*
X173274952Y-103383605D01*
X173367848Y-103201287D01*
X173431083Y-103006673D01*
X173463093Y-102804573D01*
X173463093Y-102599938D01*
X173431083Y-102397838D01*
X173367848Y-102203224D01*
X173274952Y-102020906D01*
X173242567Y-101976333D01*
X173242567Y-101976332D01*
X172563093Y-102655807D01*
X172563093Y-102649595D01*
X172535834Y-102547862D01*
X172483173Y-102456650D01*
X172408699Y-102382176D01*
X172317487Y-102329515D01*
X172215754Y-102302256D01*
X172209539Y-102302256D01*
X172889015Y-101622780D01*
X172889014Y-101622779D01*
X172844452Y-101590403D01*
X172844443Y-101590397D01*
X172662124Y-101497500D01*
X172467510Y-101434265D01*
X172265410Y-101402256D01*
X172060776Y-101402256D01*
X171858675Y-101434265D01*
X171664061Y-101497500D01*
X171481737Y-101590399D01*
X171437170Y-101622779D01*
X171437170Y-101622780D01*
X172116647Y-102302256D01*
X172110432Y-102302256D01*
X172008699Y-102329515D01*
X171917487Y-102382176D01*
X171843013Y-102456650D01*
X171790352Y-102547862D01*
X171763093Y-102649595D01*
X171763093Y-102655809D01*
X171083617Y-101976333D01*
X171083616Y-101976333D01*
X171051236Y-102020900D01*
X170958337Y-102203224D01*
X170895102Y-102397838D01*
X170863093Y-102599938D01*
X170863093Y-102804573D01*
X170895102Y-103006673D01*
X170958337Y-103201287D01*
X171051234Y-103383606D01*
X171051240Y-103383615D01*
X171083616Y-103428177D01*
X171083617Y-103428178D01*
X171763093Y-102748702D01*
X171763093Y-102754917D01*
X171790352Y-102856650D01*
X171843013Y-102947862D01*
X171917487Y-103022336D01*
X172008699Y-103074997D01*
X172110432Y-103102256D01*
X172116646Y-103102256D01*
X171437169Y-103781730D01*
X171481743Y-103814115D01*
X171664061Y-103907011D01*
X171826603Y-103959825D01*
X171884278Y-103999263D01*
X171911476Y-104063622D01*
X171899561Y-104132468D01*
X171852317Y-104183944D01*
X171788284Y-104201756D01*
X171558823Y-104201756D01*
X171528393Y-104204609D01*
X171528391Y-104204609D01*
X171400212Y-104249462D01*
X171400210Y-104249463D01*
X171290943Y-104330106D01*
X171210300Y-104439373D01*
X171210299Y-104439375D01*
X171165446Y-104567554D01*
X171165446Y-104567556D01*
X171162593Y-104597986D01*
X171162593Y-105806525D01*
X171165446Y-105836955D01*
X171165446Y-105836957D01*
X171210299Y-105965136D01*
X171210300Y-105965138D01*
X171290943Y-106074406D01*
X171400211Y-106155049D01*
X171479551Y-106182811D01*
X171536324Y-106223531D01*
X171562071Y-106288484D01*
X171562593Y-106299851D01*
X171562593Y-109212695D01*
X171542908Y-109279734D01*
X171507485Y-109315796D01*
X171484801Y-109330953D01*
X171418126Y-109351832D01*
X171415910Y-109351852D01*
X166947146Y-109351852D01*
X166880107Y-109332167D01*
X166834352Y-109279363D01*
X166823146Y-109227852D01*
X166823146Y-109119010D01*
X166784698Y-108925724D01*
X166784697Y-108925723D01*
X166784697Y-108925719D01*
X166770380Y-108891155D01*
X166709281Y-108743646D01*
X166709274Y-108743633D01*
X166599785Y-108579772D01*
X166599782Y-108579768D01*
X166460431Y-108440417D01*
X166460427Y-108440414D01*
X166296566Y-108330925D01*
X166296553Y-108330918D01*
X166114485Y-108255504D01*
X166114475Y-108255501D01*
X165921189Y-108217054D01*
X165921187Y-108217054D01*
X165724105Y-108217054D01*
X165722743Y-108217054D01*
X165655704Y-108197369D01*
X165635062Y-108180735D01*
X164278917Y-106824590D01*
X164278915Y-106824587D01*
X164160044Y-106705716D01*
X164160039Y-106705712D01*
X164069782Y-106653603D01*
X164023112Y-106626658D01*
X163870384Y-106585734D01*
X163712270Y-106585734D01*
X163704674Y-106585734D01*
X163704658Y-106585735D01*
X161598359Y-106585735D01*
X161531320Y-106566050D01*
X161510678Y-106549416D01*
X161370360Y-106409098D01*
X161370356Y-106409095D01*
X161206495Y-106299606D01*
X161206482Y-106299599D01*
X161024414Y-106224185D01*
X161024404Y-106224182D01*
X160831118Y-106185735D01*
X160831116Y-106185735D01*
X160634034Y-106185735D01*
X160634032Y-106185735D01*
X160440745Y-106224182D01*
X160440735Y-106224185D01*
X160258667Y-106299599D01*
X160258654Y-106299606D01*
X160094793Y-106409095D01*
X160094789Y-106409098D01*
X159955438Y-106548449D01*
X159955435Y-106548453D01*
X159845946Y-106712314D01*
X159845939Y-106712327D01*
X159789061Y-106849646D01*
X159745220Y-106904050D01*
X159678926Y-106926115D01*
X159611227Y-106908836D01*
X159563616Y-106857699D01*
X159550500Y-106802194D01*
X159550500Y-106253215D01*
X159570185Y-106186176D01*
X159586819Y-106165534D01*
X161637117Y-104115236D01*
X164522646Y-104115236D01*
X164522646Y-104319871D01*
X164554655Y-104521971D01*
X164617890Y-104716585D01*
X164710787Y-104898904D01*
X164710793Y-104898913D01*
X164743169Y-104943475D01*
X164743170Y-104943476D01*
X165422646Y-104264000D01*
X165422646Y-104270215D01*
X165449905Y-104371948D01*
X165502566Y-104463160D01*
X165577040Y-104537634D01*
X165668252Y-104590295D01*
X165769985Y-104617554D01*
X165776199Y-104617554D01*
X165096722Y-105297028D01*
X165141296Y-105329413D01*
X165323614Y-105422309D01*
X165518228Y-105485544D01*
X165720329Y-105517554D01*
X165924963Y-105517554D01*
X166127063Y-105485544D01*
X166321677Y-105422309D01*
X166503995Y-105329413D01*
X166548567Y-105297028D01*
X165869093Y-104617554D01*
X165875307Y-104617554D01*
X165977040Y-104590295D01*
X166068252Y-104537634D01*
X166142726Y-104463160D01*
X166195387Y-104371948D01*
X166222646Y-104270215D01*
X166222646Y-104264001D01*
X166902120Y-104943475D01*
X166934505Y-104898903D01*
X167027401Y-104716585D01*
X167090636Y-104521971D01*
X167122646Y-104319871D01*
X167122646Y-104115236D01*
X167090636Y-103913136D01*
X167027401Y-103718522D01*
X166934505Y-103536204D01*
X166902120Y-103491631D01*
X166902120Y-103491630D01*
X166222646Y-104171105D01*
X166222646Y-104164893D01*
X166195387Y-104063160D01*
X166142726Y-103971948D01*
X166068252Y-103897474D01*
X165977040Y-103844813D01*
X165875307Y-103817554D01*
X165869092Y-103817554D01*
X166548568Y-103138078D01*
X166548567Y-103138077D01*
X166504005Y-103105701D01*
X166503996Y-103105695D01*
X166321677Y-103012798D01*
X166127063Y-102949563D01*
X165924963Y-102917554D01*
X165720329Y-102917554D01*
X165518228Y-102949563D01*
X165323614Y-103012798D01*
X165141290Y-103105697D01*
X165096723Y-103138077D01*
X165096723Y-103138078D01*
X165776200Y-103817554D01*
X165769985Y-103817554D01*
X165668252Y-103844813D01*
X165577040Y-103897474D01*
X165502566Y-103971948D01*
X165449905Y-104063160D01*
X165422646Y-104164893D01*
X165422646Y-104171107D01*
X164743170Y-103491631D01*
X164743169Y-103491631D01*
X164710789Y-103536198D01*
X164617890Y-103718522D01*
X164554655Y-103913136D01*
X164522646Y-104115236D01*
X161637117Y-104115236D01*
X161729664Y-104022689D01*
X162033831Y-103718522D01*
X162392569Y-103359784D01*
X162431799Y-103291835D01*
X162432130Y-103291262D01*
X162452609Y-103214835D01*
X162452609Y-102237970D01*
X162472294Y-102170931D01*
X162525098Y-102125176D01*
X162576609Y-102113970D01*
X162756379Y-102113970D01*
X162786808Y-102111116D01*
X162786810Y-102111116D01*
X162850899Y-102088689D01*
X162914991Y-102066263D01*
X163024259Y-101985620D01*
X163104902Y-101876352D01*
X163127328Y-101812260D01*
X163149755Y-101748171D01*
X163149755Y-101748169D01*
X163152609Y-101717739D01*
X163152609Y-100509200D01*
X163149755Y-100478770D01*
X163149755Y-100478768D01*
X163104902Y-100350589D01*
X163104901Y-100350587D01*
X163024259Y-100241320D01*
X162914991Y-100160677D01*
X162914989Y-100160676D01*
X162786809Y-100115823D01*
X162756379Y-100112970D01*
X162756375Y-100112970D01*
X161547843Y-100112970D01*
X161547839Y-100112970D01*
X161517409Y-100115823D01*
X161517407Y-100115823D01*
X161389228Y-100160676D01*
X161389226Y-100160677D01*
X161279959Y-100241320D01*
X161199316Y-100350587D01*
X161199315Y-100350589D01*
X161154462Y-100478768D01*
X161154462Y-100478770D01*
X161151609Y-100509200D01*
X161151609Y-101717739D01*
X161154462Y-101748169D01*
X161154462Y-101748171D01*
X161199315Y-101876350D01*
X161199316Y-101876352D01*
X161279959Y-101985620D01*
X161389227Y-102066263D01*
X161404128Y-102071477D01*
X161517408Y-102111116D01*
X161547839Y-102113970D01*
X161547843Y-102113970D01*
X161727609Y-102113970D01*
X161794648Y-102133655D01*
X161840403Y-102186459D01*
X161851609Y-102237970D01*
X161851609Y-102999440D01*
X161831924Y-103066479D01*
X161815290Y-103087121D01*
X159009541Y-105892869D01*
X159009535Y-105892877D01*
X158969982Y-105961386D01*
X158969979Y-105961391D01*
X158965403Y-105978469D01*
X158949500Y-106037820D01*
X157945500Y-106037820D01*
X157945500Y-104030960D01*
X157965185Y-103963921D01*
X158017989Y-103918166D01*
X158022005Y-103916417D01*
X158093914Y-103886632D01*
X158257782Y-103777139D01*
X158397139Y-103637782D01*
X158506632Y-103473914D01*
X158582051Y-103291835D01*
X158612636Y-103138077D01*
X158620500Y-103098543D01*
X158620500Y-102901456D01*
X158582052Y-102708170D01*
X158582051Y-102708169D01*
X158582051Y-102708165D01*
X158579604Y-102702257D01*
X158506635Y-102526092D01*
X158506628Y-102526079D01*
X158397139Y-102362218D01*
X158397136Y-102362214D01*
X158257785Y-102222863D01*
X158257781Y-102222860D01*
X158093920Y-102113371D01*
X158093907Y-102113364D01*
X157911839Y-102037950D01*
X157911829Y-102037947D01*
X157718543Y-101999500D01*
X157718541Y-101999500D01*
X157521459Y-101999500D01*
X157521457Y-101999500D01*
X157328170Y-102037947D01*
X157328160Y-102037950D01*
X157146092Y-102113364D01*
X157146079Y-102113371D01*
X156982218Y-102222860D01*
X156982214Y-102222863D01*
X156842863Y-102362214D01*
X156842860Y-102362218D01*
X156733371Y-102526079D01*
X156733364Y-102526092D01*
X156657950Y-102708160D01*
X156657947Y-102708170D01*
X156619500Y-102901456D01*
X156619500Y-102901459D01*
X156619500Y-103098541D01*
X156619500Y-103098543D01*
X156619499Y-103098543D01*
X151000500Y-103098543D01*
X151000500Y-102901456D01*
X150962052Y-102708170D01*
X150962051Y-102708169D01*
X150962051Y-102708165D01*
X150959604Y-102702257D01*
X150886635Y-102526092D01*
X150886628Y-102526079D01*
X150777139Y-102362218D01*
X150777136Y-102362214D01*
X150637785Y-102222863D01*
X150637781Y-102222860D01*
X150473920Y-102113371D01*
X150473910Y-102113366D01*
X150377047Y-102073244D01*
X150322644Y-102029403D01*
X150300579Y-101963109D01*
X150300500Y-101958683D01*
X150300500Y-99852625D01*
X150320185Y-99785586D01*
X150336819Y-99764944D01*
X151204187Y-98897576D01*
X151265510Y-98864091D01*
X151291868Y-98861257D01*
X152420305Y-98861257D01*
X152450734Y-98858403D01*
X152450736Y-98858403D01*
X152514825Y-98835976D01*
X152578917Y-98813550D01*
X152688185Y-98732907D01*
X152768828Y-98623639D01*
X152804312Y-98522232D01*
X152813681Y-98495458D01*
X152813681Y-98495456D01*
X152816535Y-98465026D01*
X152816535Y-97959300D01*
X153315534Y-97959300D01*
X153353982Y-98152586D01*
X153353985Y-98152596D01*
X153429399Y-98334664D01*
X153429406Y-98334677D01*
X153538895Y-98498538D01*
X153538898Y-98498542D01*
X153678249Y-98637893D01*
X153678253Y-98637896D01*
X153842114Y-98747385D01*
X153842127Y-98747392D01*
X154001849Y-98813550D01*
X154024200Y-98822808D01*
X154024204Y-98822808D01*
X154024205Y-98822809D01*
X154217491Y-98861257D01*
X154217494Y-98861257D01*
X154414578Y-98861257D01*
X154557522Y-98832823D01*
X154607870Y-98822808D01*
X154789949Y-98747389D01*
X154953817Y-98637896D01*
X155093174Y-98498539D01*
X155202667Y-98334671D01*
X155242790Y-98237805D01*
X155286630Y-98183401D01*
X155352924Y-98161336D01*
X155357351Y-98161257D01*
X155928802Y-98161257D01*
X155928805Y-98161257D01*
X156005232Y-98140778D01*
X156012386Y-98136648D01*
X156061669Y-98108194D01*
X156062880Y-98107494D01*
X156065504Y-98106315D01*
X156072169Y-98102196D01*
X156075365Y-98100287D01*
X156078576Y-98098432D01*
X156085295Y-98089677D01*
X156125711Y-98049260D01*
X156125712Y-98049259D01*
X156129703Y-98045268D01*
X156129703Y-98045267D01*
X156140879Y-98034090D01*
X156200117Y-97974852D01*
X157140460Y-97034511D01*
X157180021Y-96965989D01*
X157200500Y-96889562D01*
X157200500Y-96824833D01*
X157220185Y-96757794D01*
X157272989Y-96712039D01*
X157342147Y-96702095D01*
X157405703Y-96731120D01*
X157412181Y-96737152D01*
X159473010Y-98797981D01*
X159528959Y-98853930D01*
X159528961Y-98853931D01*
X159528965Y-98853934D01*
X159546558Y-98864091D01*
X159597481Y-98893491D01*
X159673908Y-98913970D01*
X159753032Y-98913970D01*
X161110793Y-98913970D01*
X161177832Y-98933655D01*
X161223587Y-98986459D01*
X161225354Y-98990518D01*
X161265473Y-99087377D01*
X161265480Y-99087390D01*
X161374969Y-99251251D01*
X161374972Y-99251255D01*
X161514323Y-99390606D01*
X161514327Y-99390609D01*
X161678188Y-99500098D01*
X161678201Y-99500105D01*
X161824724Y-99560796D01*
X161860274Y-99575521D01*
X161860278Y-99575521D01*
X161860279Y-99575522D01*
X162053565Y-99613970D01*
X162053568Y-99613970D01*
X162250652Y-99613970D01*
X162380691Y-99588102D01*
X162443944Y-99575521D01*
X162626023Y-99500102D01*
X162789891Y-99390609D01*
X162929248Y-99251252D01*
X163038741Y-99087384D01*
X163114160Y-98905305D01*
X163136942Y-98790772D01*
X163152609Y-98712013D01*
X163152609Y-98514926D01*
X163114161Y-98321640D01*
X163114160Y-98321639D01*
X163114160Y-98321635D01*
X163078547Y-98235657D01*
X163038744Y-98139562D01*
X163038737Y-98139549D01*
X162929248Y-97975688D01*
X162929245Y-97975684D01*
X162789894Y-97836333D01*
X162789890Y-97836330D01*
X162626029Y-97726841D01*
X162626016Y-97726834D01*
X162443948Y-97651420D01*
X162443938Y-97651417D01*
X162250652Y-97612970D01*
X162250650Y-97612970D01*
X162053568Y-97612970D01*
X162053566Y-97612970D01*
X161860279Y-97651417D01*
X161860269Y-97651420D01*
X161678201Y-97726834D01*
X161678188Y-97726841D01*
X161514327Y-97836330D01*
X161514323Y-97836333D01*
X161374972Y-97975684D01*
X161374969Y-97975688D01*
X161265480Y-98139549D01*
X161265473Y-98139562D01*
X161225354Y-98236422D01*
X161181514Y-98290826D01*
X161115220Y-98312891D01*
X161110793Y-98312970D01*
X159889303Y-98312970D01*
X159822264Y-98293285D01*
X159801622Y-98276651D01*
X157686819Y-96161848D01*
X157653334Y-96100525D01*
X157650500Y-96074167D01*
X157650500Y-91749500D01*
X157670185Y-91682461D01*
X157722989Y-91636706D01*
X157774500Y-91625500D01*
X158194750Y-91625500D01*
X158194751Y-91625499D01*
X158209568Y-91622552D01*
X158253229Y-91613868D01*
X158253229Y-91613867D01*
X158253231Y-91613867D01*
X158319552Y-91569552D01*
X158363867Y-91503231D01*
X158363867Y-91503229D01*
X158363868Y-91503229D01*
X158375499Y-91444752D01*
X158375500Y-91444750D01*
X158375500Y-90618872D01*
X169999500Y-90618872D01*
X169999500Y-90881127D01*
X170006378Y-90933366D01*
X170033730Y-91141116D01*
X170090652Y-91353553D01*
X170101602Y-91394418D01*
X170101605Y-91394428D01*
X170201953Y-91636690D01*
X170201958Y-91636700D01*
X170333075Y-91863803D01*
X170492718Y-92071851D01*
X170492726Y-92071860D01*
X170678140Y-92257274D01*
X170678148Y-92257281D01*
X170678149Y-92257282D01*
X170726554Y-92294424D01*
X170886196Y-92416924D01*
X171113299Y-92548041D01*
X171113309Y-92548046D01*
X171353852Y-92647682D01*
X171355581Y-92648398D01*
X171608884Y-92716270D01*
X171857188Y-92748960D01*
X171865074Y-92749999D01*
X171868880Y-92750500D01*
X171868887Y-92750500D01*
X172131113Y-92750500D01*
X172131120Y-92750500D01*
X172391116Y-92716270D01*
X172644419Y-92648398D01*
X172886697Y-92548043D01*
X173113803Y-92416924D01*
X173321851Y-92257282D01*
X173321855Y-92257277D01*
X173321860Y-92257274D01*
X173507274Y-92071860D01*
X173507277Y-92071855D01*
X173507282Y-92071851D01*
X173666924Y-91863803D01*
X173798043Y-91636697D01*
X173898398Y-91394419D01*
X173966270Y-91141116D01*
X174000500Y-90881120D01*
X174000500Y-90618880D01*
X173966270Y-90358884D01*
X173898398Y-90105581D01*
X173885731Y-90075000D01*
X173798046Y-89863309D01*
X173798041Y-89863299D01*
X173666924Y-89636196D01*
X173507281Y-89428148D01*
X173507274Y-89428140D01*
X173321860Y-89242726D01*
X173321851Y-89242718D01*
X173113803Y-89083075D01*
X172886700Y-88951958D01*
X172886690Y-88951953D01*
X172644428Y-88851605D01*
X172644421Y-88851603D01*
X172644419Y-88851602D01*
X172391116Y-88783730D01*
X172333339Y-88776123D01*
X172131127Y-88749500D01*
X172131120Y-88749500D01*
X171868880Y-88749500D01*
X171868872Y-88749500D01*
X171637772Y-88779926D01*
X171608884Y-88783730D01*
X171355581Y-88851602D01*
X171355571Y-88851605D01*
X171113309Y-88951953D01*
X171113299Y-88951958D01*
X170886196Y-89083075D01*
X170678148Y-89242718D01*
X170492718Y-89428148D01*
X170333075Y-89636196D01*
X170201958Y-89863299D01*
X170201953Y-89863309D01*
X170101605Y-90105571D01*
X170101602Y-90105581D01*
X170057600Y-90269802D01*
X170033730Y-90358885D01*
X169999500Y-90618872D01*
X158375500Y-90618872D01*
X158375500Y-90555249D01*
X158375499Y-90555247D01*
X158363868Y-90496770D01*
X158363867Y-90496769D01*
X158319552Y-90430447D01*
X158253230Y-90386132D01*
X158253229Y-90386131D01*
X158194752Y-90374500D01*
X158194748Y-90374500D01*
X157305252Y-90374500D01*
X157305247Y-90374500D01*
X157246770Y-90386131D01*
X157246769Y-90386132D01*
X157180447Y-90430447D01*
X157136132Y-90496768D01*
X157132527Y-90505473D01*
X157088683Y-90559874D01*
X157022388Y-90581935D01*
X156954689Y-90564653D01*
X156930287Y-90545695D01*
X156898736Y-90514144D01*
X156898732Y-90514141D01*
X156796292Y-90445692D01*
X156796283Y-90445687D01*
X156682454Y-90398538D01*
X156682455Y-90398538D01*
X156682452Y-90398537D01*
X156682448Y-90398536D01*
X156682444Y-90398535D01*
X156561610Y-90374500D01*
X156561606Y-90374500D01*
X156438394Y-90374500D01*
X156438389Y-90374500D01*
X156317555Y-90398535D01*
X156317545Y-90398538D01*
X156203716Y-90445687D01*
X156203707Y-90445692D01*
X156096202Y-90517526D01*
X156095255Y-90516109D01*
X156081679Y-90521871D01*
X155603553Y-90999999D01*
X155603553Y-91000001D01*
X156075053Y-91471501D01*
X156080583Y-91472550D01*
X156096057Y-91482690D01*
X156096202Y-91482474D01*
X156203707Y-91554307D01*
X156203713Y-91554310D01*
X156203714Y-91554311D01*
X156317548Y-91601463D01*
X156400497Y-91617962D01*
X156438389Y-91625499D01*
X156438393Y-91625500D01*
X156475500Y-91625500D01*
X156542539Y-91645185D01*
X156588294Y-91697989D01*
X156599500Y-91749500D01*
X156599500Y-93936101D01*
X156579815Y-94003140D01*
X156527011Y-94048895D01*
X156475500Y-94060101D01*
X156438745Y-94060101D01*
X156391151Y-94060101D01*
X156330251Y-94060101D01*
X156330250Y-94060101D01*
X156330243Y-94060102D01*
X156211504Y-94087202D01*
X156101769Y-94140047D01*
X156006539Y-94215991D01*
X155930595Y-94311221D01*
X155877750Y-94420956D01*
X155850650Y-94539695D01*
X155850649Y-94539704D01*
X155850649Y-94781497D01*
X155850650Y-94781506D01*
X155877750Y-94900245D01*
X155930595Y-95009980D01*
X155930597Y-95009983D01*
X155930598Y-95009984D01*
X156006539Y-95105211D01*
X156069635Y-95155529D01*
X156079824Y-95163654D01*
X156119964Y-95220843D01*
X156122814Y-95290655D01*
X156087468Y-95350924D01*
X156079824Y-95357548D01*
X156006539Y-95415991D01*
X155930595Y-95511221D01*
X155877750Y-95620956D01*
X155850650Y-95739695D01*
X155850649Y-95739704D01*
X155850649Y-95981497D01*
X155850650Y-95981506D01*
X155877750Y-96100245D01*
X155930595Y-96209980D01*
X155930597Y-96209983D01*
X155930598Y-96209984D01*
X156006539Y-96305211D01*
X156093879Y-96374862D01*
X156101769Y-96381154D01*
X156179808Y-96418735D01*
X156211504Y-96433999D01*
X156330251Y-96461101D01*
X156351587Y-96461101D01*
X156475500Y-96461101D01*
X156542539Y-96480786D01*
X156588294Y-96533590D01*
X156599500Y-96585101D01*
X156599500Y-96674165D01*
X156579815Y-96741204D01*
X156563181Y-96761846D01*
X155801088Y-97523938D01*
X155739765Y-97557423D01*
X155713407Y-97560257D01*
X155357351Y-97560257D01*
X155290312Y-97540572D01*
X155244557Y-97487768D01*
X155242790Y-97483709D01*
X155202670Y-97386849D01*
X155202663Y-97386836D01*
X155093174Y-97222975D01*
X155093171Y-97222971D01*
X154953820Y-97083620D01*
X154953816Y-97083617D01*
X154789955Y-96974128D01*
X154789942Y-96974121D01*
X154607874Y-96898707D01*
X154607864Y-96898704D01*
X154414578Y-96860257D01*
X154414576Y-96860257D01*
X154217494Y-96860257D01*
X154217492Y-96860257D01*
X154024205Y-96898704D01*
X154024195Y-96898707D01*
X153842127Y-96974121D01*
X153842114Y-96974128D01*
X153678253Y-97083617D01*
X153678249Y-97083620D01*
X153538898Y-97222971D01*
X153538895Y-97222975D01*
X153429406Y-97386836D01*
X153429399Y-97386849D01*
X153353985Y-97568917D01*
X153353982Y-97568927D01*
X153315535Y-97762213D01*
X153315535Y-97762216D01*
X153315535Y-97959298D01*
X153315535Y-97959300D01*
X153315534Y-97959300D01*
X152816535Y-97959300D01*
X152816535Y-97256487D01*
X152813681Y-97226057D01*
X152813681Y-97226055D01*
X152778538Y-97125624D01*
X152768828Y-97097875D01*
X152688185Y-96988607D01*
X152578917Y-96907964D01*
X152578915Y-96907963D01*
X152450735Y-96863110D01*
X152420305Y-96860257D01*
X152420301Y-96860257D01*
X151211769Y-96860257D01*
X151211765Y-96860257D01*
X151181335Y-96863110D01*
X151181333Y-96863110D01*
X151053154Y-96907963D01*
X151053152Y-96907964D01*
X150943885Y-96988607D01*
X150863242Y-97097874D01*
X150863241Y-97097876D01*
X150818388Y-97226055D01*
X150818388Y-97226057D01*
X150815535Y-97256487D01*
X150815535Y-98384924D01*
X150795850Y-98451963D01*
X150779216Y-98472605D01*
X149759541Y-99492279D01*
X149759535Y-99492287D01*
X149719982Y-99560796D01*
X149719979Y-99560801D01*
X149716035Y-99575521D01*
X149699632Y-99636740D01*
X149699500Y-99637231D01*
X149699500Y-101958683D01*
X149679815Y-102025722D01*
X149627011Y-102071477D01*
X149622953Y-102073244D01*
X149526089Y-102113366D01*
X149526079Y-102113371D01*
X149362218Y-102222860D01*
X149362214Y-102222863D01*
X149222863Y-102362214D01*
X149222860Y-102362218D01*
X149113371Y-102526079D01*
X149113364Y-102526092D01*
X149037950Y-102708160D01*
X149037947Y-102708170D01*
X148999500Y-102901456D01*
X148999500Y-102901459D01*
X148999500Y-103098541D01*
X148999500Y-103098543D01*
X148999499Y-103098543D01*
X149037947Y-103291829D01*
X149037950Y-103291839D01*
X149113364Y-103473907D01*
X149113371Y-103473920D01*
X149222860Y-103637781D01*
X149222863Y-103637785D01*
X149362217Y-103777139D01*
X149493867Y-103865104D01*
X149538672Y-103918716D01*
X149548976Y-103968206D01*
X149548976Y-105197617D01*
X149529291Y-105264656D01*
X149476487Y-105310411D01*
X149472429Y-105312178D01*
X149375565Y-105352300D01*
X149375555Y-105352305D01*
X149211694Y-105461794D01*
X149211690Y-105461797D01*
X149072339Y-105601148D01*
X149072336Y-105601152D01*
X148962847Y-105765013D01*
X148962840Y-105765026D01*
X148887426Y-105947094D01*
X148887423Y-105947104D01*
X148848976Y-106140390D01*
X148848976Y-106140393D01*
X148848976Y-106337475D01*
X148848976Y-106337477D01*
X148848975Y-106337477D01*
X148887423Y-106530763D01*
X148887426Y-106530773D01*
X148927548Y-106627636D01*
X148935017Y-106697105D01*
X148903742Y-106759584D01*
X148900668Y-106762769D01*
X148391820Y-107271619D01*
X148335872Y-107327566D01*
X148335866Y-107327574D01*
X148296313Y-107396083D01*
X148296310Y-107396088D01*
X148275831Y-107472518D01*
X148275831Y-108208683D01*
X148256146Y-108275722D01*
X148203342Y-108321477D01*
X148199284Y-108323244D01*
X148102420Y-108363366D01*
X148102410Y-108363371D01*
X147938549Y-108472860D01*
X147938545Y-108472863D01*
X147799194Y-108612214D01*
X147799191Y-108612218D01*
X147689702Y-108776079D01*
X147689695Y-108776092D01*
X147614281Y-108958160D01*
X147614278Y-108958170D01*
X147575831Y-109151456D01*
X147575831Y-109151459D01*
X147575831Y-109348541D01*
X147575831Y-109348543D01*
X147575830Y-109348543D01*
X142554976Y-109348543D01*
X142554976Y-107269894D01*
X142574661Y-107202855D01*
X142627465Y-107157100D01*
X142631481Y-107155351D01*
X142703390Y-107125566D01*
X142867258Y-107016073D01*
X143006615Y-106876716D01*
X143116108Y-106712848D01*
X143191527Y-106530769D01*
X143204108Y-106467516D01*
X143229976Y-106337477D01*
X143229976Y-106140390D01*
X143191528Y-105947104D01*
X143191527Y-105947103D01*
X143191527Y-105947099D01*
X143169065Y-105892871D01*
X143116111Y-105765026D01*
X143116104Y-105765013D01*
X143006615Y-105601152D01*
X143006612Y-105601148D01*
X142867261Y-105461797D01*
X142867257Y-105461794D01*
X142703396Y-105352305D01*
X142703383Y-105352298D01*
X142521315Y-105276884D01*
X142521305Y-105276881D01*
X142328019Y-105238434D01*
X142328017Y-105238434D01*
X142130935Y-105238434D01*
X142130933Y-105238434D01*
X141937646Y-105276881D01*
X141937636Y-105276884D01*
X141755568Y-105352298D01*
X141755555Y-105352305D01*
X141591694Y-105461794D01*
X141591690Y-105461797D01*
X141452339Y-105601148D01*
X141452336Y-105601152D01*
X141342847Y-105765013D01*
X141342840Y-105765026D01*
X141267426Y-105947094D01*
X141267423Y-105947104D01*
X141228976Y-106140390D01*
X141228976Y-106140393D01*
X141228976Y-106337475D01*
X141228976Y-106337477D01*
X141228975Y-106337477D01*
X141267423Y-106530763D01*
X141267426Y-106530773D01*
X141342840Y-106712841D01*
X141342847Y-106712854D01*
X141452336Y-106876715D01*
X141452339Y-106876719D01*
X141591693Y-107016073D01*
X141698882Y-107087694D01*
X141755562Y-107125566D01*
X141827429Y-107155333D01*
X141881831Y-107199173D01*
X141903897Y-107265467D01*
X141903976Y-107269894D01*
X141903976Y-109644021D01*
X141884291Y-109711060D01*
X141831487Y-109756815D01*
X141804169Y-109765638D01*
X141747645Y-109776881D01*
X141747636Y-109776884D01*
X141565568Y-109852298D01*
X141565555Y-109852305D01*
X141401694Y-109961794D01*
X141401690Y-109961797D01*
X141262339Y-110101148D01*
X141262336Y-110101152D01*
X141152847Y-110265013D01*
X141152840Y-110265026D01*
X141077426Y-110447094D01*
X141077423Y-110447104D01*
X141038976Y-110640390D01*
X141038976Y-110640393D01*
X141038976Y-110837475D01*
X141038976Y-110837477D01*
X141038975Y-110837477D01*
X135419976Y-110837477D01*
X135419976Y-110640390D01*
X135381528Y-110447104D01*
X135381527Y-110447103D01*
X135381527Y-110447099D01*
X135369405Y-110417833D01*
X135306111Y-110265026D01*
X135306104Y-110265013D01*
X135196615Y-110101152D01*
X135196612Y-110101148D01*
X135057261Y-109961797D01*
X135057257Y-109961794D01*
X134893396Y-109852305D01*
X134893386Y-109852300D01*
X134796523Y-109812178D01*
X134742120Y-109768337D01*
X134720055Y-109702043D01*
X134719976Y-109697617D01*
X134719976Y-107686966D01*
X134719975Y-107686962D01*
X134718088Y-107679920D01*
X134708631Y-107644623D01*
X134699498Y-107610538D01*
X134659936Y-107542015D01*
X132479843Y-105361922D01*
X132446358Y-105300599D01*
X132451342Y-105230907D01*
X132452947Y-105226830D01*
X132493088Y-105129922D01*
X132531537Y-104936628D01*
X132531537Y-104739546D01*
X132531537Y-104739543D01*
X132493089Y-104546257D01*
X132493088Y-104546256D01*
X132493088Y-104546252D01*
X132465905Y-104480626D01*
X132417672Y-104364179D01*
X132417665Y-104364166D01*
X132308176Y-104200305D01*
X132308173Y-104200301D01*
X132168822Y-104060950D01*
X132168818Y-104060947D01*
X132004957Y-103951458D01*
X132004944Y-103951451D01*
X131822876Y-103876037D01*
X131822866Y-103876034D01*
X131629580Y-103837587D01*
X131629578Y-103837587D01*
X131432496Y-103837587D01*
X131432494Y-103837587D01*
X131239207Y-103876034D01*
X131239197Y-103876037D01*
X131057129Y-103951451D01*
X131057116Y-103951458D01*
X130893255Y-104060947D01*
X130893251Y-104060950D01*
X130753900Y-104200301D01*
X130753897Y-104200305D01*
X130644408Y-104364166D01*
X130644401Y-104364179D01*
X130568987Y-104546247D01*
X130568984Y-104546257D01*
X130530537Y-104739543D01*
X130530537Y-104739546D01*
X130530537Y-104936628D01*
X130530537Y-104936630D01*
X130530536Y-104936630D01*
X130031537Y-104936630D01*
X130031537Y-104233817D01*
X130028683Y-104203387D01*
X130028683Y-104203385D01*
X129983830Y-104075206D01*
X129983829Y-104075204D01*
X129973307Y-104060947D01*
X129903187Y-103965937D01*
X129793919Y-103885294D01*
X129793917Y-103885293D01*
X129665737Y-103840440D01*
X129635307Y-103837587D01*
X129635303Y-103837587D01*
X128426771Y-103837587D01*
X128426767Y-103837587D01*
X128396337Y-103840440D01*
X128396335Y-103840440D01*
X128268156Y-103885293D01*
X128268154Y-103885294D01*
X128158887Y-103965937D01*
X128078244Y-104075204D01*
X128078243Y-104075206D01*
X128033390Y-104203385D01*
X128033390Y-104203387D01*
X128030537Y-104233817D01*
X128030537Y-104413587D01*
X128010852Y-104480626D01*
X127958048Y-104526381D01*
X127906537Y-104537587D01*
X125444100Y-104537587D01*
X125377061Y-104517902D01*
X125356423Y-104501272D01*
X125258195Y-104403044D01*
X125258194Y-104403043D01*
X125258193Y-104403042D01*
X125094333Y-104293554D01*
X125094320Y-104293547D01*
X124912252Y-104218133D01*
X124912242Y-104218130D01*
X124718956Y-104179683D01*
X124718954Y-104179683D01*
X124521872Y-104179683D01*
X124521870Y-104179683D01*
X124328583Y-104218130D01*
X124328573Y-104218133D01*
X124146505Y-104293547D01*
X124146492Y-104293554D01*
X123982631Y-104403043D01*
X123982627Y-104403046D01*
X123843276Y-104542397D01*
X123843273Y-104542401D01*
X123733784Y-104706262D01*
X123733777Y-104706275D01*
X123658363Y-104888343D01*
X123658360Y-104888353D01*
X123619913Y-105081639D01*
X123619913Y-105081642D01*
X123619913Y-105278724D01*
X123619913Y-105278726D01*
X123619912Y-105278726D01*
X123658360Y-105472012D01*
X123658363Y-105472022D01*
X123733777Y-105654090D01*
X123733784Y-105654103D01*
X123843273Y-105817964D01*
X123843276Y-105817968D01*
X123982630Y-105957322D01*
X124044219Y-105998474D01*
X124146499Y-106066815D01*
X124146506Y-106066817D01*
X124148418Y-106067840D01*
X124149237Y-106068644D01*
X124151565Y-106070200D01*
X124151270Y-106070641D01*
X124198267Y-106116797D01*
X124213976Y-106177204D01*
X124213976Y-107349434D01*
X124194291Y-107416473D01*
X124141487Y-107462228D01*
X124089976Y-107473434D01*
X123769723Y-107473434D01*
X123711246Y-107485065D01*
X123711245Y-107485066D01*
X123644923Y-107529381D01*
X123600608Y-107595703D01*
X123600607Y-107595704D01*
X123588976Y-107654181D01*
X123588976Y-108743686D01*
X123600607Y-108802163D01*
X123600608Y-108802164D01*
X123644923Y-108868486D01*
X123678850Y-108891155D01*
X123723655Y-108944767D01*
X123732362Y-109014092D01*
X123713062Y-109063146D01*
X123671552Y-109125271D01*
X123671545Y-109125283D01*
X123616857Y-109257313D01*
X123616855Y-109257319D01*
X123588976Y-109397476D01*
X123588976Y-109397479D01*
X123588976Y-109540389D01*
X123588976Y-109540391D01*
X123588975Y-109540391D01*
X123616855Y-109680548D01*
X123616857Y-109680554D01*
X123671545Y-109812584D01*
X123671550Y-109812593D01*
X123750943Y-109931412D01*
X123750946Y-109931416D01*
X123835783Y-110016253D01*
X123869268Y-110077576D01*
X123864284Y-110147268D01*
X123835783Y-110191615D01*
X123750946Y-110276451D01*
X123750943Y-110276455D01*
X123671550Y-110395274D01*
X123671545Y-110395283D01*
X123616857Y-110527313D01*
X123616855Y-110527319D01*
X123588976Y-110667476D01*
X123588976Y-110667479D01*
X123588976Y-110810389D01*
X123588976Y-110810391D01*
X123588975Y-110810391D01*
X123609720Y-110914675D01*
X123603493Y-110984267D01*
X123560630Y-111039444D01*
X123494741Y-111062689D01*
X123488103Y-111062867D01*
X120541316Y-111062867D01*
X120474277Y-111043182D01*
X120428522Y-110990378D01*
X120426755Y-110986319D01*
X120386635Y-110889459D01*
X120386628Y-110889446D01*
X120277139Y-110725585D01*
X120277136Y-110725581D01*
X120137785Y-110586230D01*
X120137781Y-110586227D01*
X119973920Y-110476738D01*
X119973910Y-110476733D01*
X119877047Y-110436611D01*
X119822644Y-110392770D01*
X119800579Y-110326476D01*
X119800500Y-110322050D01*
X119800500Y-108725783D01*
X119820185Y-108658744D01*
X119833278Y-108642496D01*
X119833274Y-108642492D01*
X119833725Y-108641941D01*
X119836823Y-108638097D01*
X119837139Y-108637782D01*
X119946632Y-108473914D01*
X119947504Y-108471810D01*
X119994261Y-108358927D01*
X120022051Y-108291835D01*
X120043525Y-108183881D01*
X120060500Y-108098543D01*
X120060500Y-107901456D01*
X120022052Y-107708170D01*
X120022051Y-107708169D01*
X120022051Y-107708165D01*
X120013269Y-107686964D01*
X119946635Y-107526092D01*
X119946628Y-107526079D01*
X119837139Y-107362218D01*
X119837136Y-107362214D01*
X119697785Y-107222863D01*
X119697781Y-107222860D01*
X119533920Y-107113371D01*
X119533907Y-107113364D01*
X119351839Y-107037950D01*
X119351829Y-107037947D01*
X119158543Y-106999500D01*
X119158541Y-106999500D01*
X118961459Y-106999500D01*
X118961457Y-106999500D01*
X118768170Y-107037947D01*
X118768160Y-107037950D01*
X118586092Y-107113364D01*
X118586079Y-107113371D01*
X118422218Y-107222860D01*
X118422214Y-107222863D01*
X118282863Y-107362214D01*
X118282860Y-107362218D01*
X118173371Y-107526079D01*
X118173364Y-107526092D01*
X118097950Y-107708160D01*
X118097947Y-107708170D01*
X118059500Y-107901456D01*
X118059500Y-107901459D01*
X118059500Y-108098541D01*
X118059500Y-108098543D01*
X118059499Y-108098543D01*
X112740000Y-108098543D01*
X112740000Y-107897682D01*
X112707990Y-107695582D01*
X112644755Y-107500968D01*
X112551859Y-107318650D01*
X112519474Y-107274077D01*
X112519474Y-107274076D01*
X111840000Y-107953551D01*
X111840000Y-107947339D01*
X111812741Y-107845606D01*
X111760080Y-107754394D01*
X111685606Y-107679920D01*
X111594394Y-107627259D01*
X111492661Y-107600000D01*
X111486446Y-107600000D01*
X112165922Y-106920524D01*
X112165921Y-106920523D01*
X112121359Y-106888147D01*
X112121350Y-106888141D01*
X111939031Y-106795244D01*
X111744417Y-106732009D01*
X111542317Y-106700000D01*
X111337683Y-106700000D01*
X111135582Y-106732009D01*
X110940968Y-106795244D01*
X110758644Y-106888143D01*
X110714077Y-106920523D01*
X110714077Y-106920524D01*
X111393554Y-107600000D01*
X111387339Y-107600000D01*
X111285606Y-107627259D01*
X111194394Y-107679920D01*
X111119920Y-107754394D01*
X111067259Y-107845606D01*
X111040000Y-107947339D01*
X111040000Y-107953553D01*
X110360524Y-107274077D01*
X110360523Y-107274077D01*
X110328143Y-107318644D01*
X110235244Y-107500968D01*
X110172009Y-107695582D01*
X110140000Y-107897682D01*
X93500000Y-107897682D01*
X93500000Y-102514270D01*
X113250000Y-102514270D01*
X113250000Y-102750375D01*
X113286934Y-102983570D01*
X113359897Y-103208125D01*
X113467087Y-103418497D01*
X113527338Y-103501427D01*
X113527340Y-103501428D01*
X114267037Y-102761731D01*
X114284075Y-102825316D01*
X114349901Y-102939330D01*
X114442993Y-103032422D01*
X114557007Y-103098248D01*
X114620590Y-103115285D01*
X113880893Y-103854981D01*
X113963828Y-103915237D01*
X114174197Y-104022425D01*
X114398752Y-104095388D01*
X114398751Y-104095388D01*
X114631948Y-104132323D01*
X114868052Y-104132323D01*
X115101247Y-104095388D01*
X115325802Y-104022425D01*
X115536163Y-103915241D01*
X115536169Y-103915237D01*
X115619104Y-103854981D01*
X115619105Y-103854981D01*
X114879408Y-103115285D01*
X114942993Y-103098248D01*
X115057007Y-103032422D01*
X115150099Y-102939330D01*
X115215925Y-102825316D01*
X115232962Y-102761732D01*
X115972658Y-103501428D01*
X115972658Y-103501427D01*
X116032914Y-103418492D01*
X116032918Y-103418486D01*
X116140102Y-103208125D01*
X116213065Y-102983570D01*
X116250000Y-102750375D01*
X116250000Y-102514270D01*
X116213065Y-102281075D01*
X116140102Y-102056520D01*
X116032914Y-101846151D01*
X115972658Y-101763217D01*
X115972658Y-101763216D01*
X115232962Y-102502913D01*
X115215925Y-102439330D01*
X115150099Y-102325316D01*
X115057007Y-102232224D01*
X114942993Y-102166398D01*
X114879409Y-102149360D01*
X115619105Y-101409663D01*
X115619104Y-101409661D01*
X115536174Y-101349410D01*
X115325802Y-101242220D01*
X115101247Y-101169257D01*
X115101248Y-101169257D01*
X114868052Y-101132323D01*
X114631948Y-101132323D01*
X114398752Y-101169257D01*
X114174197Y-101242220D01*
X113963830Y-101349407D01*
X113880894Y-101409663D01*
X114620591Y-102149360D01*
X114557007Y-102166398D01*
X114442993Y-102232224D01*
X114349901Y-102325316D01*
X114284075Y-102439330D01*
X114267037Y-102502914D01*
X113527340Y-101763217D01*
X113467084Y-101846153D01*
X113359897Y-102056520D01*
X113286934Y-102281075D01*
X113250000Y-102514270D01*
X93500000Y-102514270D01*
X93500000Y-93206678D01*
X103897792Y-93206678D01*
X103897792Y-93318250D01*
X104717462Y-93318250D01*
X104697717Y-93337995D01*
X104648348Y-93423505D01*
X104622792Y-93518880D01*
X104622792Y-93617620D01*
X104648348Y-93712995D01*
X104697717Y-93798505D01*
X104717462Y-93818250D01*
X103897792Y-93818250D01*
X103897792Y-93929821D01*
X103924877Y-94100834D01*
X103978383Y-94265507D01*
X104056987Y-94419774D01*
X104158759Y-94559852D01*
X104281189Y-94682282D01*
X104421267Y-94784054D01*
X104575536Y-94862658D01*
X104740207Y-94916164D01*
X104740206Y-94916164D01*
X104747791Y-94917365D01*
X104747792Y-94917364D01*
X104747792Y-93848580D01*
X104767537Y-93868325D01*
X104853047Y-93917694D01*
X104948422Y-93943250D01*
X105047162Y-93943250D01*
X105142537Y-93917694D01*
X105228047Y-93868325D01*
X105247792Y-93848580D01*
X105247792Y-94917365D01*
X105255376Y-94916164D01*
X105420047Y-94862658D01*
X105574316Y-94784054D01*
X105714394Y-94682282D01*
X105836824Y-94559852D01*
X105938596Y-94419774D01*
X105991371Y-94316198D01*
X106039346Y-94265402D01*
X106107167Y-94248607D01*
X106173301Y-94271144D01*
X106216753Y-94325859D01*
X106218897Y-94331538D01*
X106244998Y-94406130D01*
X106244999Y-94406132D01*
X106325642Y-94515400D01*
X106346924Y-94531107D01*
X106389176Y-94586753D01*
X106397292Y-94630878D01*
X106397292Y-96411122D01*
X106397291Y-96411140D01*
X106397291Y-96576846D01*
X106397290Y-96576846D01*
X106397291Y-96576849D01*
X106438215Y-96729577D01*
X106461503Y-96769913D01*
X106501470Y-96839138D01*
X106518083Y-96901138D01*
X106518083Y-97006548D01*
X106498398Y-97073587D01*
X106445594Y-97119342D01*
X106376436Y-97129286D01*
X106359488Y-97125624D01*
X106221077Y-97085412D01*
X106221080Y-97085412D01*
X106218583Y-97085215D01*
X106218583Y-98121012D01*
X106198898Y-98188051D01*
X106146094Y-98233806D01*
X106094583Y-98245012D01*
X105842583Y-98245012D01*
X105775544Y-98225327D01*
X105729789Y-98172523D01*
X105718583Y-98121012D01*
X105718583Y-97085215D01*
X105716086Y-97085412D01*
X105558389Y-97131228D01*
X105558386Y-97131229D01*
X105417030Y-97214826D01*
X105417025Y-97214830D01*
X105300899Y-97330957D01*
X105298527Y-97334016D01*
X105296058Y-97335798D01*
X105295385Y-97336472D01*
X105295276Y-97336363D01*
X105241883Y-97374921D01*
X105200550Y-97382012D01*
X104835322Y-97382012D01*
X104767191Y-97391938D01*
X104662097Y-97443315D01*
X104579386Y-97526026D01*
X104528009Y-97631120D01*
X104518083Y-97699251D01*
X104518083Y-98790772D01*
X104528009Y-98858903D01*
X104579384Y-98963994D01*
X104579385Y-98963995D01*
X104581761Y-98966371D01*
X104583974Y-98970423D01*
X104585356Y-98972359D01*
X104585122Y-98972525D01*
X104615248Y-99027691D01*
X104618083Y-99054055D01*
X104618083Y-99071309D01*
X104645376Y-99173172D01*
X104671739Y-99218833D01*
X104698103Y-99264496D01*
X104698105Y-99264498D01*
X104883399Y-99449792D01*
X104916884Y-99511115D01*
X104911900Y-99580807D01*
X104870028Y-99636740D01*
X104813597Y-99660177D01*
X104767191Y-99666938D01*
X104662097Y-99718315D01*
X104579386Y-99801026D01*
X104528009Y-99906120D01*
X104518083Y-99974251D01*
X104518083Y-101065772D01*
X104528009Y-101133903D01*
X104579386Y-101238997D01*
X104662097Y-101321708D01*
X104662098Y-101321708D01*
X104662100Y-101321710D01*
X104767190Y-101373085D01*
X104801256Y-101378048D01*
X104835322Y-101383012D01*
X104835323Y-101383012D01*
X105201844Y-101383012D01*
X105224554Y-101379703D01*
X105269976Y-101373085D01*
X105375066Y-101321710D01*
X105457781Y-101238995D01*
X105509156Y-101133905D01*
X105519083Y-101065772D01*
X105519083Y-99974252D01*
X105511132Y-99919681D01*
X105520946Y-99850505D01*
X105566602Y-99797615D01*
X105633605Y-99777805D01*
X106303329Y-99777805D01*
X106370368Y-99797490D01*
X106416123Y-99850294D01*
X106426067Y-99919452D01*
X106418083Y-99974252D01*
X106418083Y-99974256D01*
X106418083Y-101065772D01*
X106428009Y-101133903D01*
X106479386Y-101238997D01*
X106562097Y-101321708D01*
X106562098Y-101321708D01*
X106562100Y-101321710D01*
X106667190Y-101373085D01*
X106701256Y-101378048D01*
X106735322Y-101383012D01*
X106735323Y-101383012D01*
X107101844Y-101383012D01*
X107124554Y-101379703D01*
X107169976Y-101373085D01*
X107275066Y-101321710D01*
X107357781Y-101238995D01*
X107409156Y-101133905D01*
X107419083Y-101065772D01*
X107419083Y-101024500D01*
X107438768Y-100957461D01*
X107491572Y-100911706D01*
X107543083Y-100900500D01*
X107802725Y-100900500D01*
X107802727Y-100900500D01*
X107904588Y-100873207D01*
X107995913Y-100820480D01*
X108179573Y-100636820D01*
X108240896Y-100603335D01*
X108267254Y-100600501D01*
X108329054Y-100600501D01*
X108329057Y-100600501D01*
X108481785Y-100559577D01*
X108618716Y-100480519D01*
X110830093Y-98269142D01*
X110891416Y-98235657D01*
X110917774Y-98232823D01*
X113425500Y-98232823D01*
X113492539Y-98252508D01*
X113538294Y-98305312D01*
X113549500Y-98356823D01*
X113549500Y-98436592D01*
X113552353Y-98467022D01*
X113552353Y-98467024D01*
X113585127Y-98560683D01*
X113597207Y-98595205D01*
X113677850Y-98704473D01*
X113787118Y-98785116D01*
X113823884Y-98797981D01*
X113915299Y-98829969D01*
X113945730Y-98832823D01*
X113945734Y-98832823D01*
X115554270Y-98832823D01*
X115584699Y-98829969D01*
X115584701Y-98829969D01*
X115648790Y-98807542D01*
X115712882Y-98785116D01*
X115822150Y-98704473D01*
X115902793Y-98595205D01*
X115937697Y-98495456D01*
X115947646Y-98467024D01*
X115947646Y-98467022D01*
X115950500Y-98436592D01*
X115950500Y-98356823D01*
X115970185Y-98289784D01*
X116022989Y-98244029D01*
X116074500Y-98232823D01*
X123826770Y-98232823D01*
X123893809Y-98252508D01*
X123914446Y-98269137D01*
X123950621Y-98305312D01*
X123982632Y-98337323D01*
X124146492Y-98446811D01*
X124146505Y-98446818D01*
X124310935Y-98514926D01*
X124328578Y-98522234D01*
X124328582Y-98522234D01*
X124328583Y-98522235D01*
X124521869Y-98560683D01*
X124521872Y-98560683D01*
X124718956Y-98560683D01*
X124848995Y-98534815D01*
X124912248Y-98522234D01*
X125094327Y-98446815D01*
X125258195Y-98337322D01*
X125397552Y-98197965D01*
X125507045Y-98034097D01*
X125582464Y-97852018D01*
X125607365Y-97726834D01*
X125620913Y-97658726D01*
X125620913Y-97461639D01*
X125582465Y-97268353D01*
X125582464Y-97268352D01*
X125582464Y-97268348D01*
X125563670Y-97222975D01*
X125507048Y-97086275D01*
X125507041Y-97086262D01*
X125397552Y-96922401D01*
X125397549Y-96922397D01*
X125258198Y-96783046D01*
X125258194Y-96783043D01*
X125094333Y-96673554D01*
X125094320Y-96673547D01*
X124912252Y-96598133D01*
X124912242Y-96598130D01*
X124718956Y-96559683D01*
X124718954Y-96559683D01*
X124521872Y-96559683D01*
X124521870Y-96559683D01*
X124328583Y-96598130D01*
X124328573Y-96598133D01*
X124146505Y-96673547D01*
X124146492Y-96673554D01*
X123982631Y-96783043D01*
X123982627Y-96783046D01*
X123843276Y-96922397D01*
X123843272Y-96922402D01*
X123806985Y-96976712D01*
X123753373Y-97021518D01*
X123703882Y-97031823D01*
X116074500Y-97031823D01*
X116007461Y-97012138D01*
X115961706Y-96959334D01*
X115950500Y-96907823D01*
X115950500Y-96828053D01*
X115947646Y-96797623D01*
X115947646Y-96797621D01*
X115904231Y-96673551D01*
X115902793Y-96669441D01*
X115822150Y-96560173D01*
X115712882Y-96479530D01*
X115712880Y-96479529D01*
X115584700Y-96434676D01*
X115554270Y-96431823D01*
X115554266Y-96431823D01*
X115474500Y-96431823D01*
X115407461Y-96412138D01*
X115361706Y-96359334D01*
X115350500Y-96307823D01*
X115350500Y-93615784D01*
X115370185Y-93548745D01*
X115386819Y-93528103D01*
X115527136Y-93387785D01*
X115527139Y-93387782D01*
X115636632Y-93223914D01*
X115712051Y-93041835D01*
X115739390Y-92904394D01*
X115750500Y-92848543D01*
X115750500Y-92651458D01*
X115750499Y-92651455D01*
X115749748Y-92647682D01*
X118450000Y-92647682D01*
X118450000Y-92852317D01*
X118482009Y-93054417D01*
X118545244Y-93249031D01*
X118638141Y-93431350D01*
X118638147Y-93431359D01*
X118670523Y-93475921D01*
X118670524Y-93475922D01*
X119350000Y-92796446D01*
X119350000Y-92802661D01*
X119377259Y-92904394D01*
X119429920Y-92995606D01*
X119504394Y-93070080D01*
X119595606Y-93122741D01*
X119697339Y-93150000D01*
X119703553Y-93150000D01*
X119024076Y-93829474D01*
X119068650Y-93861859D01*
X119250968Y-93954755D01*
X119445582Y-94017990D01*
X119647683Y-94050000D01*
X119852317Y-94050000D01*
X120054417Y-94017990D01*
X120249031Y-93954755D01*
X120431349Y-93861859D01*
X120475921Y-93829474D01*
X119796447Y-93150000D01*
X119802661Y-93150000D01*
X119904394Y-93122741D01*
X119995606Y-93070080D01*
X120070080Y-92995606D01*
X120122741Y-92904394D01*
X120150000Y-92802661D01*
X120150000Y-92796447D01*
X120829474Y-93475921D01*
X120861859Y-93431349D01*
X120954755Y-93249031D01*
X121017990Y-93054417D01*
X121050000Y-92852317D01*
X121050000Y-92647682D01*
X121017990Y-92445582D01*
X120954755Y-92250968D01*
X120861859Y-92068650D01*
X120829474Y-92024077D01*
X120829474Y-92024076D01*
X120150000Y-92703551D01*
X120150000Y-92697339D01*
X120122741Y-92595606D01*
X120070080Y-92504394D01*
X119995606Y-92429920D01*
X119904394Y-92377259D01*
X119802661Y-92350000D01*
X119796446Y-92350000D01*
X120337947Y-91808500D01*
X154795050Y-91808500D01*
X154811849Y-91819725D01*
X154811855Y-91819728D01*
X154980182Y-91889451D01*
X154980194Y-91889454D01*
X155158890Y-91924999D01*
X155158894Y-91925000D01*
X155341106Y-91925000D01*
X155341109Y-91924999D01*
X155519805Y-91889454D01*
X155519813Y-91889452D01*
X155688151Y-91819724D01*
X155688154Y-91819723D01*
X155704947Y-91808500D01*
X155704948Y-91808500D01*
X155250001Y-91353553D01*
X155250000Y-91353553D01*
X154795050Y-91808500D01*
X120337947Y-91808500D01*
X120471839Y-91674608D01*
X120475922Y-91670524D01*
X120475921Y-91670523D01*
X120431359Y-91638147D01*
X120431350Y-91638141D01*
X120249031Y-91545244D01*
X120054417Y-91482009D01*
X119852317Y-91450000D01*
X119647683Y-91450000D01*
X119445582Y-91482009D01*
X119250968Y-91545244D01*
X119068644Y-91638143D01*
X119024077Y-91670523D01*
X119024077Y-91670524D01*
X119703554Y-92350000D01*
X119697339Y-92350000D01*
X119595606Y-92377259D01*
X119504394Y-92429920D01*
X119429920Y-92504394D01*
X119377259Y-92595606D01*
X119350000Y-92697339D01*
X119350000Y-92703553D01*
X118670524Y-92024077D01*
X118670523Y-92024077D01*
X118638143Y-92068644D01*
X118545244Y-92250968D01*
X118482009Y-92445582D01*
X118450000Y-92647682D01*
X115749748Y-92647682D01*
X115712051Y-92458165D01*
X115694969Y-92416924D01*
X115636635Y-92276092D01*
X115636628Y-92276079D01*
X115527139Y-92112218D01*
X115527136Y-92112214D01*
X115387785Y-91972863D01*
X115387781Y-91972860D01*
X115223920Y-91863371D01*
X115223907Y-91863364D01*
X115149016Y-91832344D01*
X115041839Y-91787950D01*
X115041829Y-91787947D01*
X114848543Y-91749500D01*
X114848541Y-91749500D01*
X114651459Y-91749500D01*
X114651457Y-91749500D01*
X114458170Y-91787947D01*
X114458160Y-91787950D01*
X114276092Y-91863364D01*
X114276079Y-91863371D01*
X114112218Y-91972860D01*
X114112214Y-91972863D01*
X113972863Y-92112214D01*
X113972860Y-92112218D01*
X113863371Y-92276079D01*
X113863364Y-92276092D01*
X113787950Y-92458160D01*
X113787947Y-92458170D01*
X113749500Y-92651456D01*
X113749500Y-92651458D01*
X113749500Y-92651459D01*
X113749500Y-92848541D01*
X113749500Y-92848543D01*
X113749499Y-92848543D01*
X113787947Y-93041829D01*
X113787950Y-93041839D01*
X113863364Y-93223907D01*
X113863371Y-93223920D01*
X113972860Y-93387781D01*
X113972863Y-93387785D01*
X114113181Y-93528103D01*
X114146666Y-93589426D01*
X114149500Y-93615784D01*
X114149500Y-96307823D01*
X114129815Y-96374862D01*
X114077011Y-96420617D01*
X114025500Y-96431823D01*
X113945730Y-96431823D01*
X113915300Y-96434676D01*
X113915298Y-96434676D01*
X113787119Y-96479529D01*
X113787117Y-96479530D01*
X113677850Y-96560173D01*
X113597207Y-96669440D01*
X113597206Y-96669442D01*
X113552353Y-96797621D01*
X113552353Y-96797623D01*
X113549500Y-96828053D01*
X113549500Y-96907823D01*
X113529815Y-96974862D01*
X113477011Y-97020617D01*
X113425500Y-97031823D01*
X110704346Y-97031823D01*
X110704330Y-97031822D01*
X110696734Y-97031822D01*
X110538620Y-97031822D01*
X110385892Y-97072746D01*
X110385890Y-97072747D01*
X110362468Y-97086268D01*
X110362469Y-97086269D01*
X110248964Y-97151800D01*
X110248959Y-97151804D01*
X110137155Y-97263609D01*
X107769483Y-99631281D01*
X107769481Y-99631284D01*
X107690423Y-99768214D01*
X107650940Y-99915565D01*
X107614574Y-99975225D01*
X107551727Y-100005754D01*
X107482352Y-99997459D01*
X107428474Y-99952973D01*
X107413677Y-99914800D01*
X107411999Y-99915319D01*
X107409157Y-99906121D01*
X107407098Y-99901909D01*
X107357781Y-99801029D01*
X107357779Y-99801027D01*
X107357779Y-99801026D01*
X107275068Y-99718315D01*
X107169974Y-99666938D01*
X107102517Y-99657110D01*
X107039016Y-99627966D01*
X107001352Y-99569117D01*
X107001484Y-99499248D01*
X107032712Y-99446727D01*
X107239063Y-99240377D01*
X107291790Y-99149052D01*
X107319083Y-99047191D01*
X107319083Y-99047182D01*
X107320144Y-99039131D01*
X107323341Y-99039552D01*
X107338768Y-98987016D01*
X107355401Y-98966374D01*
X107357781Y-98963995D01*
X107409156Y-98858905D01*
X107419083Y-98790772D01*
X107419083Y-97699252D01*
X107409156Y-97631119D01*
X107357781Y-97526029D01*
X107357779Y-97526027D01*
X107357779Y-97526026D01*
X107355402Y-97523649D01*
X107353189Y-97519597D01*
X107351810Y-97517665D01*
X107352043Y-97517498D01*
X107321917Y-97462326D01*
X107319083Y-97435968D01*
X107319083Y-97079754D01*
X107338768Y-97012715D01*
X107363037Y-96986335D01*
X107362969Y-96986267D01*
X107364609Y-96984626D01*
X107367600Y-96981376D01*
X107368709Y-96980523D01*
X107368716Y-96980520D01*
X107480520Y-96868716D01*
X107559577Y-96731785D01*
X107600501Y-96579058D01*
X107600501Y-96420943D01*
X107600500Y-96420941D01*
X107599440Y-96412887D01*
X107600446Y-96412754D01*
X107598292Y-96396375D01*
X107598292Y-94630878D01*
X107617977Y-94563839D01*
X107648658Y-94531107D01*
X107669942Y-94515400D01*
X107750585Y-94406132D01*
X107773011Y-94342040D01*
X107795438Y-94277951D01*
X107795438Y-94277949D01*
X107798292Y-94247519D01*
X107798292Y-92888980D01*
X107795438Y-92858550D01*
X107795438Y-92858548D01*
X107757455Y-92750001D01*
X107750585Y-92730368D01*
X107669942Y-92621100D01*
X107560674Y-92540457D01*
X107560672Y-92540456D01*
X107432492Y-92495603D01*
X107402062Y-92492750D01*
X107402058Y-92492750D01*
X106593526Y-92492750D01*
X106593522Y-92492750D01*
X106563092Y-92495603D01*
X106563090Y-92495603D01*
X106434911Y-92540456D01*
X106434909Y-92540457D01*
X106325642Y-92621100D01*
X106244999Y-92730367D01*
X106218897Y-92804962D01*
X106178175Y-92861737D01*
X106113222Y-92887484D01*
X106044660Y-92874027D01*
X105994258Y-92825639D01*
X105991371Y-92820301D01*
X105938596Y-92716725D01*
X105836824Y-92576647D01*
X105714394Y-92454217D01*
X105574316Y-92352445D01*
X105420049Y-92273841D01*
X105255381Y-92220337D01*
X105255373Y-92220335D01*
X105247792Y-92219134D01*
X105247792Y-93287920D01*
X105228047Y-93268175D01*
X105142537Y-93218806D01*
X105047162Y-93193250D01*
X104948422Y-93193250D01*
X104853047Y-93218806D01*
X104767537Y-93268175D01*
X104747792Y-93287920D01*
X104747792Y-92219134D01*
X104747791Y-92219134D01*
X104740210Y-92220335D01*
X104740202Y-92220337D01*
X104575534Y-92273841D01*
X104421267Y-92352445D01*
X104281189Y-92454217D01*
X104158759Y-92576647D01*
X104056987Y-92716725D01*
X103978383Y-92870992D01*
X103924877Y-93035665D01*
X103897792Y-93206678D01*
X93500000Y-93206678D01*
X93500000Y-90618872D01*
X95249500Y-90618872D01*
X95249500Y-90881127D01*
X95256378Y-90933366D01*
X95283730Y-91141116D01*
X95340652Y-91353553D01*
X95351602Y-91394418D01*
X95351605Y-91394428D01*
X95451953Y-91636690D01*
X95451958Y-91636700D01*
X95583075Y-91863803D01*
X95742718Y-92071851D01*
X95742726Y-92071860D01*
X95928140Y-92257274D01*
X95928148Y-92257281D01*
X95928149Y-92257282D01*
X95976554Y-92294424D01*
X96136196Y-92416924D01*
X96363299Y-92548041D01*
X96363309Y-92548046D01*
X96603852Y-92647682D01*
X96605581Y-92648398D01*
X96858884Y-92716270D01*
X97107188Y-92748960D01*
X97115074Y-92749999D01*
X97118880Y-92750500D01*
X97118887Y-92750500D01*
X97381113Y-92750500D01*
X97381120Y-92750500D01*
X97641116Y-92716270D01*
X97894419Y-92648398D01*
X98136697Y-92548043D01*
X98363803Y-92416924D01*
X98571851Y-92257282D01*
X98571855Y-92257277D01*
X98571860Y-92257274D01*
X98757274Y-92071860D01*
X98757277Y-92071855D01*
X98757282Y-92071851D01*
X98916924Y-91863803D01*
X99048043Y-91636697D01*
X99148398Y-91394419D01*
X99216270Y-91141116D01*
X99246844Y-90908890D01*
X154325000Y-90908890D01*
X154325000Y-91091109D01*
X154360545Y-91269805D01*
X154360548Y-91269817D01*
X154430271Y-91438145D01*
X154441498Y-91454947D01*
X154896446Y-91000000D01*
X154896446Y-90999999D01*
X154846719Y-90950272D01*
X155000000Y-90950272D01*
X155000000Y-91049728D01*
X155038060Y-91141614D01*
X155108386Y-91211940D01*
X155200272Y-91250000D01*
X155299728Y-91250000D01*
X155391614Y-91211940D01*
X155461940Y-91141614D01*
X155500000Y-91049728D01*
X155500000Y-90950272D01*
X155461940Y-90858386D01*
X155391614Y-90788060D01*
X155299728Y-90750000D01*
X155200272Y-90750000D01*
X155108386Y-90788060D01*
X155038060Y-90858386D01*
X155000000Y-90950272D01*
X154846719Y-90950272D01*
X154441498Y-90545050D01*
X154430274Y-90561848D01*
X154360547Y-90730186D01*
X154360545Y-90730194D01*
X154325000Y-90908890D01*
X99246844Y-90908890D01*
X99250500Y-90881120D01*
X99250500Y-90618880D01*
X99216270Y-90358884D01*
X99171419Y-90191498D01*
X154795050Y-90191498D01*
X155250000Y-90646446D01*
X155250001Y-90646446D01*
X155704947Y-90191498D01*
X155688145Y-90180271D01*
X155519817Y-90110548D01*
X155519805Y-90110545D01*
X155341109Y-90075000D01*
X155158890Y-90075000D01*
X154980194Y-90110545D01*
X154980186Y-90110547D01*
X154811848Y-90180274D01*
X154795050Y-90191498D01*
X99171419Y-90191498D01*
X99148398Y-90105581D01*
X99135731Y-90075000D01*
X99048046Y-89863309D01*
X99048041Y-89863299D01*
X98916924Y-89636196D01*
X98757281Y-89428148D01*
X98757274Y-89428140D01*
X98571860Y-89242726D01*
X98571851Y-89242718D01*
X98363803Y-89083075D01*
X98136700Y-88951958D01*
X98136690Y-88951953D01*
X97894428Y-88851605D01*
X97894421Y-88851603D01*
X97894419Y-88851602D01*
X97641116Y-88783730D01*
X97583339Y-88776123D01*
X97381127Y-88749500D01*
X97381120Y-88749500D01*
X97118880Y-88749500D01*
X97118872Y-88749500D01*
X96887772Y-88779926D01*
X96858884Y-88783730D01*
X96605581Y-88851602D01*
X96605571Y-88851605D01*
X96363309Y-88951953D01*
X96363299Y-88951958D01*
X96136196Y-89083075D01*
X95928148Y-89242718D01*
X95742718Y-89428148D01*
X95583075Y-89636196D01*
X95451958Y-89863299D01*
X95451953Y-89863309D01*
X95351605Y-90105571D01*
X95351602Y-90105581D01*
X95307600Y-90269802D01*
X95283730Y-90358885D01*
X95249500Y-90618872D01*
X93500000Y-90618872D01*
X93500000Y-89386834D01*
X93506426Y-89347433D01*
X93518765Y-89310619D01*
X93522886Y-89299984D01*
X93667486Y-88972494D01*
X93672569Y-88962285D01*
X93846767Y-88649540D01*
X93852793Y-88639808D01*
X93912998Y-88551920D01*
X94055103Y-88344472D01*
X94061986Y-88335359D01*
X94290681Y-88059951D01*
X94298375Y-88051511D01*
X94551511Y-87798375D01*
X94559951Y-87790681D01*
X94835359Y-87561986D01*
X94844472Y-87555103D01*
X95139813Y-87352789D01*
X95149540Y-87346767D01*
X95462285Y-87172569D01*
X95472494Y-87167486D01*
X95799984Y-87022886D01*
X95810623Y-87018763D01*
X96150070Y-86904992D01*
X96161049Y-86901869D01*
X96509520Y-86819909D01*
X96520757Y-86817808D01*
X96875301Y-86768352D01*
X96886686Y-86767296D01*
X97247145Y-86750632D01*
X97252872Y-86750500D01*
X97315892Y-86750500D01*
X171934108Y-86750500D01*
X171997128Y-86750500D01*
X172002855Y-86750632D01*
G37*
%TD.AperFunction*%
%TD*%
M02*
