%TF.GenerationSoftware,KiCad,Pcbnew,10.0.0*%
%TF.CreationDate,2026-04-21T22:26:16+01:00*%
%TF.ProjectId,mae,6d61652e-6b69-4636-9164-5f7063625858,rev?*%
%TF.SameCoordinates,Original*%
%TF.FileFunction,Soldermask,Top*%
%TF.FilePolarity,Negative*%
%FSLAX46Y46*%
G04 Gerber Fmt 4.6, Leading zero omitted, Abs format (unit mm)*
G04 Created by KiCad (PCBNEW 10.0.0) date 2026-04-21 22:26:16*
%MOMM*%
%LPD*%
G01*
G04 APERTURE LIST*
G04 Aperture macros list*
%AMRoundRect*
0 Rectangle with rounded corners*
0 $1 Rounding radius*
0 $2 $3 $4 $5 $6 $7 $8 $9 X,Y pos of 4 corners*
0 Add a 4 corners polygon primitive as box body*
4,1,4,$2,$3,$4,$5,$6,$7,$8,$9,$2,$3,0*
0 Add four circle primitives for the rounded corners*
1,1,$1+$1,$2,$3*
1,1,$1+$1,$4,$5*
1,1,$1+$1,$6,$7*
1,1,$1+$1,$8,$9*
0 Add four rect primitives between the rounded corners*
20,1,$1+$1,$2,$3,$4,$5,0*
20,1,$1+$1,$4,$5,$6,$7,0*
20,1,$1+$1,$6,$7,$8,$9,0*
20,1,$1+$1,$8,$9,$2,$3,0*%
G04 Aperture macros list end*
%ADD10C,0.501200*%
%ADD11C,0.010000*%
%ADD12RoundRect,0.250000X0.550000X-0.550000X0.550000X0.550000X-0.550000X0.550000X-0.550000X-0.550000X0*%
%ADD13C,1.600000*%
%ADD14RoundRect,0.150000X-0.150000X0.512500X-0.150000X-0.512500X0.150000X-0.512500X0.150000X0.512500X0*%
%ADD15RoundRect,0.250000X0.550000X0.550000X-0.550000X0.550000X-0.550000X-0.550000X0.550000X-0.550000X0*%
%ADD16R,1.500000X1.050000*%
%ADD17O,1.500000X1.050000*%
%ADD18C,3.500000*%
%ADD19RoundRect,0.250000X0.350000X0.625000X-0.350000X0.625000X-0.350000X-0.625000X0.350000X-0.625000X0*%
%ADD20O,1.200000X1.750000*%
%ADD21RoundRect,0.250000X-0.550000X-0.550000X0.550000X-0.550000X0.550000X0.550000X-0.550000X0.550000X0*%
%ADD22RoundRect,0.250000X-0.350000X-0.625000X0.350000X-0.625000X0.350000X0.625000X-0.350000X0.625000X0*%
%ADD23RoundRect,0.250000X-0.625000X0.350000X-0.625000X-0.350000X0.625000X-0.350000X0.625000X0.350000X0*%
%ADD24O,1.750000X1.200000*%
%ADD25RoundRect,0.250000X-0.750000X0.750000X-0.750000X-0.750000X0.750000X-0.750000X0.750000X0.750000X0*%
%ADD26C,2.000000*%
G04 APERTURE END LIST*
%TO.C,AUDIO OUT*%
D10*
X155500600Y-91000000D02*
G75*
G02*
X154999400Y-91000000I-250600J0D01*
G01*
X154999400Y-91000000D02*
G75*
G02*
X155500600Y-91000000I250600J0D01*
G01*
X156750600Y-91000000D02*
G75*
G02*
X156249400Y-91000000I-250600J0D01*
G01*
X156249400Y-91000000D02*
G75*
G02*
X156750600Y-91000000I250600J0D01*
G01*
D11*
X158251200Y-91501200D02*
X157248800Y-91501200D01*
X157248800Y-90498800D01*
X158251200Y-90498800D01*
X158251200Y-91501200D01*
G36*
X158251200Y-91501200D02*
G01*
X157248800Y-91501200D01*
X157248800Y-90498800D01*
X158251200Y-90498800D01*
X158251200Y-91501200D01*
G37*
%TD*%
D12*
%TO.C,C6*%
X172163093Y-105202256D03*
D13*
X172163093Y-102702256D03*
%TD*%
D14*
%TO.C,U9*%
X102039687Y-115151163D03*
X100139687Y-115151163D03*
X101089687Y-117426163D03*
%TD*%
D15*
%TO.C,C10*%
X126250000Y-119500000D03*
D13*
X123750000Y-119500000D03*
%TD*%
D14*
%TO.C,U1*%
X106918583Y-98245012D03*
X105968583Y-98245012D03*
X105018583Y-98245012D03*
X105018583Y-100520012D03*
X106918583Y-100520012D03*
%TD*%
D13*
%TO.C,R9*%
X142229476Y-106238934D03*
X149849476Y-106238934D03*
%TD*%
D16*
%TO.C,Q1*%
X124539476Y-108198934D03*
D17*
X124539476Y-109468934D03*
X124539476Y-110738934D03*
%TD*%
D18*
%TO.C,H4*%
X172000000Y-123000000D03*
%TD*%
D13*
%TO.C,C1*%
X114500000Y-111363367D03*
X119500000Y-111363367D03*
%TD*%
D18*
%TO.C,H3*%
X97250000Y-90750000D03*
%TD*%
D19*
%TO.C,POWER*%
X106997792Y-93568250D03*
D20*
X104997792Y-93568250D03*
%TD*%
D13*
%TO.C,C30*%
X168108845Y-117098240D03*
X168108845Y-112098240D03*
%TD*%
%TO.C,R13*%
X150000000Y-103000000D03*
X157620000Y-103000000D03*
%TD*%
%TO.C,C5*%
X114750000Y-92750000D03*
X119750000Y-92750000D03*
%TD*%
D21*
%TO.C,C2*%
X129031037Y-104838087D03*
D13*
X131531037Y-104838087D03*
%TD*%
D21*
%TO.C,C8*%
X151816035Y-97860757D03*
D13*
X154316035Y-97860757D03*
%TD*%
D18*
%TO.C,H6*%
X97250000Y-123000000D03*
%TD*%
D22*
%TO.C,TEXTURE*%
X134250000Y-120550000D03*
D20*
X136250000Y-120550000D03*
X138250000Y-120550000D03*
%TD*%
D13*
%TO.C,R3*%
X130006196Y-117053861D03*
X130006196Y-109433861D03*
%TD*%
D23*
%TO.C,GUITAR IN*%
X100289476Y-109393284D03*
D24*
X100289476Y-111393284D03*
%TD*%
D13*
%TO.C,R11*%
X164134515Y-119750847D03*
X164134515Y-112130847D03*
%TD*%
D18*
%TO.C,H5*%
X172000000Y-90750000D03*
%TD*%
D12*
%TO.C,C9*%
X162152109Y-101113470D03*
D13*
X162152109Y-98613470D03*
%TD*%
%TO.C,C25*%
X160532625Y-118390984D03*
X160532625Y-123390984D03*
%TD*%
%TO.C,R5*%
X172000000Y-110190000D03*
X172000000Y-117810000D03*
%TD*%
%TO.C,R2*%
X124620413Y-105180183D03*
X124620413Y-97560183D03*
%TD*%
D21*
%TO.C,U4*%
X153112575Y-107186235D03*
D13*
X153112575Y-109726235D03*
X153112575Y-112266235D03*
X153112575Y-114806235D03*
X160732575Y-114806235D03*
X160732575Y-112266235D03*
X160732575Y-109726235D03*
X160732575Y-107186235D03*
%TD*%
%TO.C,R4*%
X103680263Y-111304462D03*
X111300263Y-111304462D03*
%TD*%
%TO.C,R10*%
X148500000Y-125060000D03*
X148500000Y-117440000D03*
%TD*%
%TO.C,R1*%
X111440000Y-108000000D03*
X119060000Y-108000000D03*
%TD*%
%TO.C,C28*%
X148576331Y-114250000D03*
X148576331Y-109250000D03*
%TD*%
%TO.C,R12*%
X134419476Y-110738934D03*
X142039476Y-110738934D03*
%TD*%
D15*
%TO.C,C7*%
X156192695Y-120119683D03*
D13*
X153692695Y-120119683D03*
%TD*%
%TO.C,C24*%
X165822646Y-109217554D03*
X165822646Y-104217554D03*
%TD*%
D25*
%TO.C,C3*%
X114750000Y-97632323D03*
D26*
X114750000Y-102632323D03*
%TD*%
M02*
