M48
; DRILL file KiCad 10.0.0 date 2026-04-21T22:26:21
; FORMAT={-:-/ absolute / metric / decimal}
; #@! TF.CreationDate,2026-04-21T22:26:21+01:00
; #@! TF.GenerationSoftware,Kicad,Pcbnew,10.0.0
; #@! TF.FileFunction,Plated,1,2,PTH
FMAT,2
METRIC
; #@! TA.AperFunction,Plated,PTH,ViaDrill
T1C0.300
; #@! TA.AperFunction,Plated,PTH,ComponentDrill
T2C0.500
; #@! TA.AperFunction,Plated,PTH,ComponentDrill
T3C0.750
; #@! TA.AperFunction,Plated,PTH,ComponentDrill
T4C0.800
; #@! TA.AperFunction,Plated,PTH,ComponentDrill
T5C1.000
%
G90
G05
T1
X127.75Y-98.5
X127.75Y-101.312
X133.5Y-98.5
X133.5Y-101.312
X136.0Y-115.0
X138.75Y-98.5
X138.75Y-101.312
X139.5Y-115.0
X143.25Y-115.0
X143.25Y-120.0
X143.25Y-125.0
X143.75Y-98.5
X143.75Y-101.312
X144.887Y-109.952
X146.5Y-115.0
X148.75Y-98.5
X151.0Y-109.75
X151.765Y-102.544
X154.413Y-105.082
X155.218Y-102.837
X155.24Y-107.094
X155.24Y-109.622
X155.25Y-112.25
X155.25Y-115.0
X156.193Y-121.989
X158.5Y-112.25
X158.75Y-109.0
X162.038Y-116.536
X164.162Y-114.023
T2
X155.25Y-91.0
X156.5Y-91.0
X157.75Y-91.0
T3
X100.289Y-109.393
X100.289Y-111.393
X104.998Y-93.568
X106.998Y-93.568
X124.539Y-108.199
X124.539Y-109.469
X124.539Y-110.739
X134.25Y-120.55
X136.25Y-120.55
X138.25Y-120.55
T4
X103.68Y-111.304
X111.3Y-111.304
X111.44Y-108.0
X114.5Y-111.363
X114.75Y-92.75
X119.06Y-108.0
X119.5Y-111.363
X119.75Y-92.75
X123.75Y-119.5
X124.62Y-97.56
X124.62Y-105.18
X126.25Y-119.5
X129.031Y-104.838
X130.006Y-109.434
X130.006Y-117.054
X131.531Y-104.838
X134.419Y-110.739
X142.039Y-110.739
X142.229Y-106.239
X148.5Y-117.44
X148.5Y-125.06
X148.576Y-109.25
X148.576Y-114.25
X149.849Y-106.239
X150.0Y-103.0
X151.816Y-97.861
X153.113Y-107.186
X153.113Y-109.726
X153.113Y-112.266
X153.113Y-114.806
X153.693Y-120.12
X154.316Y-97.861
X156.193Y-120.12
X157.62Y-103.0
X160.533Y-118.391
X160.533Y-123.391
X160.733Y-107.186
X160.733Y-109.726
X160.733Y-112.266
X160.733Y-114.806
X162.152Y-98.613
X162.152Y-101.113
X164.135Y-112.131
X164.135Y-119.751
X165.823Y-104.218
X165.823Y-109.218
X168.109Y-112.098
X168.109Y-117.098
X172.0Y-110.19
X172.0Y-117.81
X172.163Y-102.702
X172.163Y-105.202
T5
X114.75Y-97.632
X114.75Y-102.632
M30
