%TF.GenerationSoftware,KiCad,Pcbnew,10.0.0*%
%TF.CreationDate,2026-04-21T22:26:15+01:00*%
%TF.ProjectId,mae,6d61652e-6b69-4636-9164-5f7063625858,rev?*%
%TF.SameCoordinates,Original*%
%TF.FileFunction,Copper,L2,Bot*%
%TF.FilePolarity,Positive*%
%FSLAX46Y46*%
G04 Gerber Fmt 4.6, Leading zero omitted, Abs format (unit mm)*
G04 Created by KiCad (PCBNEW 10.0.0) date 2026-04-21 22:26:15*
%MOMM*%
%LPD*%
G01*
G04 APERTURE LIST*
G04 Aperture macros list*
%AMRoundRect*
0 Rectangle with rounded corners*
0 $1 Rounding radius*
0 $2 $3 $4 $5 $6 $7 $8 $9 X,Y pos of 4 corners*
0 Add a 4 corners polygon primitive as box body*
4,1,4,$2,$3,$4,$5,$6,$7,$8,$9,$2,$3,0*
0 Add four circle primitives for the rounded corners*
1,1,$1+$1,$2,$3*
1,1,$1+$1,$4,$5*
1,1,$1+$1,$6,$7*
1,1,$1+$1,$8,$9*
0 Add four rect primitives between the rounded corners*
20,1,$1+$1,$2,$3,$4,$5,0*
20,1,$1+$1,$4,$5,$6,$7,0*
20,1,$1+$1,$6,$7,$8,$9,0*
20,1,$1+$1,$8,$9,$2,$3,0*%
G04 Aperture macros list end*
%TA.AperFunction,ComponentPad*%
%ADD10RoundRect,0.250000X0.550000X-0.550000X0.550000X0.550000X-0.550000X0.550000X-0.550000X-0.550000X0*%
%TD*%
%TA.AperFunction,ComponentPad*%
%ADD11C,1.600000*%
%TD*%
%TA.AperFunction,ComponentPad*%
%ADD12R,0.850000X0.850000*%
%TD*%
%TA.AperFunction,ComponentPad*%
%ADD13C,0.850000*%
%TD*%
%TA.AperFunction,ComponentPad*%
%ADD14RoundRect,0.250000X0.550000X0.550000X-0.550000X0.550000X-0.550000X-0.550000X0.550000X-0.550000X0*%
%TD*%
%TA.AperFunction,ComponentPad*%
%ADD15R,1.500000X1.050000*%
%TD*%
%TA.AperFunction,ComponentPad*%
%ADD16O,1.500000X1.050000*%
%TD*%
%TA.AperFunction,ComponentPad*%
%ADD17RoundRect,0.250000X0.350000X0.625000X-0.350000X0.625000X-0.350000X-0.625000X0.350000X-0.625000X0*%
%TD*%
%TA.AperFunction,ComponentPad*%
%ADD18O,1.200000X1.750000*%
%TD*%
%TA.AperFunction,ComponentPad*%
%ADD19RoundRect,0.250000X-0.550000X-0.550000X0.550000X-0.550000X0.550000X0.550000X-0.550000X0.550000X0*%
%TD*%
%TA.AperFunction,ComponentPad*%
%ADD20RoundRect,0.250000X-0.350000X-0.625000X0.350000X-0.625000X0.350000X0.625000X-0.350000X0.625000X0*%
%TD*%
%TA.AperFunction,ComponentPad*%
%ADD21RoundRect,0.250000X-0.625000X0.350000X-0.625000X-0.350000X0.625000X-0.350000X0.625000X0.350000X0*%
%TD*%
%TA.AperFunction,ComponentPad*%
%ADD22O,1.750000X1.200000*%
%TD*%
%TA.AperFunction,ComponentPad*%
%ADD23RoundRect,0.250000X-0.750000X0.750000X-0.750000X-0.750000X0.750000X-0.750000X0.750000X0.750000X0*%
%TD*%
%TA.AperFunction,ComponentPad*%
%ADD24C,2.000000*%
%TD*%
%TA.AperFunction,ViaPad*%
%ADD25C,0.600000*%
%TD*%
%TA.AperFunction,Conductor*%
%ADD26C,0.800000*%
%TD*%
%TA.AperFunction,Conductor*%
%ADD27C,0.400000*%
%TD*%
G04 APERTURE END LIST*
D10*
%TO.P,C6,1*%
%TO.N,+9V*%
X172163093Y-105202256D03*
D11*
%TO.P,C6,2*%
%TO.N,GND*%
X172163093Y-102702256D03*
%TD*%
D12*
%TO.P,AUDIO OUT,1,1_1*%
%TO.N,/AUDIO_OUT-*%
X157750000Y-91000000D03*
D13*
%TO.P,AUDIO OUT,2,2_2*%
%TO.N,/AUDIO_OUT+*%
X156500000Y-91000000D03*
%TO.P,AUDIO OUT,3,3_3*%
%TO.N,GND*%
X155250000Y-91000000D03*
%TD*%
D14*
%TO.P,C10,1*%
%TO.N,Net-(C10-Pad1)*%
X126250000Y-119500000D03*
D11*
%TO.P,C10,2*%
%TO.N,GND*%
X123750000Y-119500000D03*
%TD*%
%TO.P,R9,1*%
%TO.N,Net-(U4A--)*%
X142229476Y-106238934D03*
%TO.P,R9,2*%
%TO.N,/U4A_AUDIO*%
X149849476Y-106238934D03*
%TD*%
D15*
%TO.P,Q1,1,D_1*%
%TO.N,/DRAIN*%
X124539476Y-108198934D03*
D16*
%TO.P,Q1,2,S_2*%
%TO.N,/SOURCE*%
X124539476Y-109468934D03*
%TO.P,Q1,3,G_3*%
%TO.N,/GATE*%
X124539476Y-110738934D03*
%TD*%
D11*
%TO.P,C1,1*%
%TO.N,Net-(C1-Pad1)*%
X114500000Y-111363367D03*
%TO.P,C1,2*%
%TO.N,/GATE*%
X119500000Y-111363367D03*
%TD*%
D17*
%TO.P,POWER,1,Pin_1_1*%
%TO.N,Net-(J2-Pin_1)*%
X106997792Y-93568250D03*
D18*
%TO.P,POWER,2,Pin_2_2*%
%TO.N,GND*%
X104997792Y-93568250D03*
%TD*%
D11*
%TO.P,C30,1*%
%TO.N,Net-(U4B--)*%
X168108845Y-117098240D03*
%TO.P,C30,2*%
%TO.N,Net-(C30-Pad2)*%
X168108845Y-112098240D03*
%TD*%
%TO.P,R13,1*%
%TO.N,/U4A_AUDIO*%
X150000000Y-103000000D03*
%TO.P,R13,2*%
%TO.N,Net-(U4B--)*%
X157620000Y-103000000D03*
%TD*%
%TO.P,C5,1*%
%TO.N,+9V*%
X114750000Y-92750000D03*
%TO.P,C5,2*%
%TO.N,GND*%
X119750000Y-92750000D03*
%TD*%
D19*
%TO.P,C2,1*%
%TO.N,/DRAIN*%
X129031037Y-104838087D03*
D11*
%TO.P,C2,2*%
%TO.N,/PREAMP_OUT*%
X131531037Y-104838087D03*
%TD*%
D19*
%TO.P,C8,1*%
%TO.N,/U4A_AUDIO*%
X151816035Y-97860757D03*
D11*
%TO.P,C8,2*%
%TO.N,/AUDIO_OUT+*%
X154316035Y-97860757D03*
%TD*%
D20*
%TO.P,TEXTURE,1,1_1*%
%TO.N,Net-(C10-Pad1)*%
X134250000Y-120550000D03*
D18*
%TO.P,TEXTURE,2,2_2*%
%TO.N,GND*%
X136250000Y-120550000D03*
%TO.P,TEXTURE,3,3_3*%
X138250000Y-120550000D03*
%TD*%
D11*
%TO.P,R3,1*%
%TO.N,Net-(C10-Pad1)*%
X130006196Y-117053861D03*
%TO.P,R3,2*%
%TO.N,/SOURCE*%
X130006196Y-109433861D03*
%TD*%
D21*
%TO.P,GUITAR IN,1,Pin_1_1*%
%TO.N,GND*%
X100289476Y-109393284D03*
D22*
%TO.P,GUITAR IN,2,Pin_2_2*%
%TO.N,Net-(J1-Pin_2)*%
X100289476Y-111393284D03*
%TD*%
D11*
%TO.P,R11,1*%
%TO.N,Net-(U4B--)*%
X164134515Y-119750847D03*
%TO.P,R11,2*%
%TO.N,Net-(C30-Pad2)*%
X164134515Y-112130847D03*
%TD*%
D10*
%TO.P,C9,1*%
%TO.N,Net-(C30-Pad2)*%
X162152109Y-101113470D03*
D11*
%TO.P,C9,2*%
%TO.N,/AUDIO_OUT-*%
X162152109Y-98613470D03*
%TD*%
%TO.P,C25,1*%
%TO.N,/VBIAS*%
X160532625Y-118390984D03*
%TO.P,C25,2*%
%TO.N,GND*%
X160532625Y-123390984D03*
%TD*%
%TO.P,R5,1*%
%TO.N,+9V*%
X172000000Y-110190000D03*
%TO.P,R5,2*%
%TO.N,/VBIAS*%
X172000000Y-117810000D03*
%TD*%
%TO.P,R2,1*%
%TO.N,/DRAIN*%
X124620413Y-105180183D03*
%TO.P,R2,2*%
%TO.N,+9V*%
X124620413Y-97560183D03*
%TD*%
D19*
%TO.P,U4,1*%
%TO.N,/U4A_AUDIO*%
X153112575Y-107186235D03*
D11*
%TO.P,U4,2,-_2*%
%TO.N,Net-(U4A--)*%
X153112575Y-109726235D03*
%TO.P,U4,3,+_3*%
%TO.N,/VBIAS*%
X153112575Y-112266235D03*
%TO.P,U4,4,V-_4*%
%TO.N,GND*%
X153112575Y-114806235D03*
%TO.P,U4,5,+_5*%
%TO.N,/VBIAS*%
X160732575Y-114806235D03*
%TO.P,U4,6,-_6*%
%TO.N,Net-(U4B--)*%
X160732575Y-112266235D03*
%TO.P,U4,7*%
%TO.N,Net-(C30-Pad2)*%
X160732575Y-109726235D03*
%TO.P,U4,8,V+_8*%
%TO.N,+9V*%
X160732575Y-107186235D03*
%TD*%
%TO.P,R4,1*%
%TO.N,Net-(J1-Pin_2)*%
X103680263Y-111304462D03*
%TO.P,R4,2*%
%TO.N,Net-(C1-Pad1)*%
X111300263Y-111304462D03*
%TD*%
%TO.P,R10,1*%
%TO.N,GND*%
X148500000Y-125060000D03*
%TO.P,R10,2*%
%TO.N,/VBIAS*%
X148500000Y-117440000D03*
%TD*%
%TO.P,R1,1*%
%TO.N,GND*%
X111440000Y-108000000D03*
%TO.P,R1,2*%
%TO.N,/GATE*%
X119060000Y-108000000D03*
%TD*%
%TO.P,C28,1*%
%TO.N,Net-(U4A--)*%
X148576331Y-114250000D03*
%TO.P,C28,2*%
%TO.N,/U4A_AUDIO*%
X148576331Y-109250000D03*
%TD*%
%TO.P,R12,1*%
%TO.N,/PREAMP_OUT*%
X134419476Y-110738934D03*
%TO.P,R12,2*%
%TO.N,Net-(U4A--)*%
X142039476Y-110738934D03*
%TD*%
D14*
%TO.P,C7,1*%
%TO.N,/VBIAS*%
X156192695Y-120119683D03*
D11*
%TO.P,C7,2*%
%TO.N,GND*%
X153692695Y-120119683D03*
%TD*%
%TO.P,C24,1*%
%TO.N,+9V*%
X165822646Y-109217554D03*
%TO.P,C24,2*%
%TO.N,GND*%
X165822646Y-104217554D03*
%TD*%
D23*
%TO.P,C3,1*%
%TO.N,+9V*%
X114750000Y-97632323D03*
D24*
%TO.P,C3,2*%
%TO.N,GND*%
X114750000Y-102632323D03*
%TD*%
D25*
%TO.N,GND*%
X143250000Y-125000000D03*
X155240158Y-107094487D03*
X143750000Y-98500000D03*
X146500000Y-115000000D03*
X133500000Y-101311913D03*
X138750000Y-98500000D03*
X143750000Y-101311913D03*
X133500000Y-98500000D03*
X127750000Y-98500000D03*
X155240158Y-109622037D03*
X151000000Y-109750000D03*
X164162077Y-114023466D03*
X148750000Y-98500000D03*
X156193210Y-121988735D03*
X143250000Y-115000000D03*
X138750000Y-101311913D03*
X139500000Y-115000000D03*
X143250000Y-120000000D03*
X136000000Y-115000000D03*
X155218084Y-102836984D03*
X155250000Y-112250000D03*
X151764705Y-102544118D03*
X158750000Y-109000000D03*
X155250000Y-115000000D03*
X144887200Y-109952352D03*
X158500000Y-112250000D03*
X127750000Y-101311913D03*
X154412703Y-105082290D03*
X162038485Y-116536295D03*
%TD*%
%TO.N,+9V*%
D26*
X157903173Y-107186235D02*
X160732575Y-107186235D01*
X150466938Y-99750000D02*
X157903173Y-107186235D01*
X124620413Y-97560183D02*
X126810230Y-99750000D01*
X126810230Y-99750000D02*
X150466938Y-99750000D01*
%TO.N,/VBIAS*%
D27*
X160532625Y-118390984D02*
X171419016Y-118390984D01*
X171419016Y-118390984D02*
X172000000Y-117810000D01*
%TD*%
%TA.AperFunction,Conductor*%
%TO.N,GND*%
G36*
X137949925Y-120319745D02*
G01*
X137900556Y-120405255D01*
X137875000Y-120500630D01*
X137875000Y-120599370D01*
X137900556Y-120694745D01*
X137949925Y-120780255D01*
X137969670Y-120800000D01*
X136530330Y-120800000D01*
X136550075Y-120780255D01*
X136599444Y-120694745D01*
X136625000Y-120599370D01*
X136625000Y-120500630D01*
X136599444Y-120405255D01*
X136550075Y-120319745D01*
X136530330Y-120300000D01*
X137969670Y-120300000D01*
X137949925Y-120319745D01*
G37*
%TD.AperFunction*%
%TA.AperFunction,Conductor*%
G36*
X172002855Y-86750632D02*
G01*
X172363311Y-86767296D01*
X172374700Y-86768352D01*
X172729238Y-86817808D01*
X172740482Y-86819910D01*
X173088944Y-86901867D01*
X173099934Y-86904994D01*
X173439368Y-87018761D01*
X173450022Y-87022889D01*
X173777496Y-87167482D01*
X173787723Y-87172574D01*
X174030656Y-87307887D01*
X174100453Y-87346764D01*
X174110191Y-87352793D01*
X174405513Y-87555093D01*
X174414653Y-87561996D01*
X174690035Y-87790670D01*
X174698499Y-87798386D01*
X174951613Y-88051500D01*
X174959329Y-88059964D01*
X175188003Y-88335346D01*
X175194906Y-88344486D01*
X175397206Y-88639808D01*
X175403235Y-88649546D01*
X175515780Y-88851602D01*
X175571677Y-88951957D01*
X175577418Y-88962263D01*
X175582523Y-88972516D01*
X175727105Y-89299964D01*
X175731243Y-89310644D01*
X175845001Y-89650052D01*
X175848135Y-89661068D01*
X175930087Y-90009509D01*
X175932192Y-90020768D01*
X175981646Y-90375291D01*
X175982703Y-90386695D01*
X175999368Y-90747144D01*
X175999500Y-90752871D01*
X175999500Y-122997128D01*
X175999368Y-123002855D01*
X175982703Y-123363304D01*
X175981646Y-123374708D01*
X175932192Y-123729231D01*
X175930087Y-123740490D01*
X175848135Y-124088931D01*
X175845001Y-124099947D01*
X175731243Y-124439355D01*
X175727105Y-124450035D01*
X175582523Y-124777483D01*
X175577418Y-124787736D01*
X175403235Y-125100453D01*
X175397206Y-125110191D01*
X175194906Y-125405513D01*
X175188003Y-125414653D01*
X174959329Y-125690035D01*
X174951613Y-125698499D01*
X174698499Y-125951613D01*
X174690035Y-125959329D01*
X174414653Y-126188003D01*
X174405513Y-126194906D01*
X174110191Y-126397206D01*
X174100453Y-126403235D01*
X173787736Y-126577418D01*
X173777483Y-126582523D01*
X173450035Y-126727105D01*
X173439355Y-126731243D01*
X173099947Y-126845001D01*
X173088931Y-126848135D01*
X172740490Y-126930087D01*
X172729231Y-126932192D01*
X172374708Y-126981646D01*
X172363304Y-126982703D01*
X172002855Y-126999368D01*
X171997128Y-126999500D01*
X97252872Y-126999500D01*
X97247145Y-126999368D01*
X96886695Y-126982703D01*
X96875291Y-126981646D01*
X96520768Y-126932192D01*
X96509509Y-126930087D01*
X96161068Y-126848135D01*
X96150052Y-126845001D01*
X95810644Y-126731243D01*
X95799964Y-126727105D01*
X95472511Y-126582520D01*
X95462268Y-126577420D01*
X95360316Y-126520633D01*
X95149546Y-126403235D01*
X95139808Y-126397206D01*
X94844486Y-126194906D01*
X94835360Y-126188015D01*
X94835346Y-126188003D01*
X94834888Y-126187622D01*
X94834886Y-126187620D01*
X94834875Y-126187612D01*
X94559964Y-125959329D01*
X94551500Y-125951613D01*
X94298386Y-125698499D01*
X94290670Y-125690035D01*
X94061996Y-125414653D01*
X94055093Y-125405513D01*
X93852793Y-125110191D01*
X93846764Y-125100453D01*
X93767241Y-124957682D01*
X93672574Y-124787723D01*
X93667482Y-124777496D01*
X93522889Y-124450022D01*
X93518760Y-124439365D01*
X93506427Y-124402567D01*
X93500000Y-124363164D01*
X93500000Y-122868872D01*
X95249500Y-122868872D01*
X95249500Y-123131127D01*
X95267470Y-123267614D01*
X95283730Y-123391116D01*
X95351602Y-123644418D01*
X95351605Y-123644428D01*
X95451953Y-123886690D01*
X95451958Y-123886700D01*
X95583075Y-124113803D01*
X95742718Y-124321851D01*
X95742726Y-124321860D01*
X95928140Y-124507274D01*
X95928148Y-124507281D01*
X96136196Y-124666924D01*
X96363299Y-124798041D01*
X96363309Y-124798046D01*
X96605571Y-124898394D01*
X96605581Y-124898398D01*
X96858884Y-124966270D01*
X97118880Y-125000500D01*
X97118887Y-125000500D01*
X97381113Y-125000500D01*
X97381120Y-125000500D01*
X97641116Y-124966270D01*
X97673167Y-124957682D01*
X147200000Y-124957682D01*
X147200000Y-125162317D01*
X147232009Y-125364417D01*
X147295244Y-125559031D01*
X147388141Y-125741350D01*
X147388147Y-125741359D01*
X147420523Y-125785921D01*
X147420524Y-125785922D01*
X148100000Y-125106446D01*
X148100000Y-125112661D01*
X148127259Y-125214394D01*
X148179920Y-125305606D01*
X148254394Y-125380080D01*
X148345606Y-125432741D01*
X148447339Y-125460000D01*
X148453553Y-125460000D01*
X147774076Y-126139474D01*
X147818650Y-126171859D01*
X148000968Y-126264755D01*
X148195582Y-126327990D01*
X148397683Y-126360000D01*
X148602317Y-126360000D01*
X148804417Y-126327990D01*
X148999031Y-126264755D01*
X149181349Y-126171859D01*
X149225921Y-126139474D01*
X148546447Y-125460000D01*
X148552661Y-125460000D01*
X148654394Y-125432741D01*
X148745606Y-125380080D01*
X148820080Y-125305606D01*
X148872741Y-125214394D01*
X148900000Y-125112661D01*
X148900000Y-125106448D01*
X149579474Y-125785922D01*
X149579474Y-125785921D01*
X149611859Y-125741349D01*
X149704755Y-125559031D01*
X149767990Y-125364417D01*
X149800000Y-125162317D01*
X149800000Y-124957682D01*
X149767990Y-124755582D01*
X149704754Y-124560965D01*
X149663243Y-124479495D01*
X149663242Y-124479494D01*
X149611859Y-124378650D01*
X149579474Y-124334077D01*
X149579474Y-124334076D01*
X148900000Y-125013551D01*
X148900000Y-125007339D01*
X148872741Y-124905606D01*
X148820080Y-124814394D01*
X148745606Y-124739920D01*
X148654394Y-124687259D01*
X148552661Y-124660000D01*
X148546446Y-124660000D01*
X149225922Y-123980524D01*
X149225921Y-123980523D01*
X149181359Y-123948147D01*
X149181350Y-123948141D01*
X148999031Y-123855244D01*
X148804417Y-123792009D01*
X148602317Y-123760000D01*
X148397683Y-123760000D01*
X148195582Y-123792009D01*
X148000968Y-123855244D01*
X147818644Y-123948143D01*
X147774077Y-123980523D01*
X147774077Y-123980524D01*
X148453554Y-124660000D01*
X148447339Y-124660000D01*
X148345606Y-124687259D01*
X148254394Y-124739920D01*
X148179920Y-124814394D01*
X148127259Y-124905606D01*
X148100000Y-125007339D01*
X148100000Y-125013553D01*
X147420524Y-124334077D01*
X147420523Y-124334077D01*
X147388143Y-124378644D01*
X147295244Y-124560968D01*
X147232009Y-124755582D01*
X147200000Y-124957682D01*
X97673167Y-124957682D01*
X97894419Y-124898398D01*
X97945935Y-124877059D01*
X98039618Y-124838255D01*
X98136690Y-124798046D01*
X98136691Y-124798045D01*
X98136697Y-124798043D01*
X98363803Y-124666924D01*
X98571851Y-124507282D01*
X98571855Y-124507277D01*
X98571860Y-124507274D01*
X98757274Y-124321860D01*
X98757277Y-124321855D01*
X98757282Y-124321851D01*
X98916924Y-124113803D01*
X99048043Y-123886697D01*
X99148398Y-123644419D01*
X99216270Y-123391116D01*
X99229758Y-123288666D01*
X159232625Y-123288666D01*
X159232625Y-123493301D01*
X159264634Y-123695401D01*
X159327869Y-123890015D01*
X159420766Y-124072334D01*
X159420772Y-124072343D01*
X159453148Y-124116905D01*
X159453149Y-124116906D01*
X160132625Y-123437430D01*
X160132625Y-123443645D01*
X160159884Y-123545378D01*
X160212545Y-123636590D01*
X160287019Y-123711064D01*
X160378231Y-123763725D01*
X160479964Y-123790984D01*
X160486178Y-123790984D01*
X159806701Y-124470458D01*
X159851275Y-124502843D01*
X160033593Y-124595739D01*
X160228207Y-124658974D01*
X160430308Y-124690984D01*
X160634942Y-124690984D01*
X160837042Y-124658974D01*
X161031656Y-124595739D01*
X161213974Y-124502843D01*
X161258546Y-124470458D01*
X160579072Y-123790984D01*
X160585286Y-123790984D01*
X160687019Y-123763725D01*
X160778231Y-123711064D01*
X160852705Y-123636590D01*
X160905366Y-123545378D01*
X160932625Y-123443645D01*
X160932625Y-123437432D01*
X161612099Y-124116906D01*
X161612099Y-124116905D01*
X161644484Y-124072333D01*
X161737380Y-123890015D01*
X161800615Y-123695401D01*
X161832625Y-123493301D01*
X161832625Y-123288666D01*
X161800615Y-123086566D01*
X161741015Y-122903140D01*
X161737379Y-122891952D01*
X161725619Y-122868872D01*
X169999500Y-122868872D01*
X169999500Y-123131127D01*
X170017470Y-123267614D01*
X170033730Y-123391116D01*
X170101602Y-123644418D01*
X170101605Y-123644428D01*
X170201953Y-123886690D01*
X170201958Y-123886700D01*
X170333075Y-124113803D01*
X170492718Y-124321851D01*
X170492726Y-124321860D01*
X170678140Y-124507274D01*
X170678148Y-124507281D01*
X170886196Y-124666924D01*
X171113299Y-124798041D01*
X171113309Y-124798046D01*
X171355571Y-124898394D01*
X171355581Y-124898398D01*
X171608884Y-124966270D01*
X171868880Y-125000500D01*
X171868887Y-125000500D01*
X172131113Y-125000500D01*
X172131120Y-125000500D01*
X172391116Y-124966270D01*
X172644419Y-124898398D01*
X172886697Y-124798043D01*
X173113803Y-124666924D01*
X173321851Y-124507282D01*
X173321855Y-124507277D01*
X173321860Y-124507274D01*
X173507274Y-124321860D01*
X173507277Y-124321855D01*
X173507282Y-124321851D01*
X173666924Y-124113803D01*
X173798043Y-123886697D01*
X173898398Y-123644419D01*
X173966270Y-123391116D01*
X174000500Y-123131120D01*
X174000500Y-122868880D01*
X173966270Y-122608884D01*
X173898398Y-122355581D01*
X173898394Y-122355571D01*
X173798046Y-122113309D01*
X173798041Y-122113299D01*
X173666924Y-121886196D01*
X173507281Y-121678148D01*
X173507274Y-121678140D01*
X173321860Y-121492726D01*
X173321851Y-121492718D01*
X173113803Y-121333075D01*
X172886700Y-121201958D01*
X172886690Y-121201953D01*
X172644428Y-121101605D01*
X172644421Y-121101603D01*
X172644419Y-121101602D01*
X172391116Y-121033730D01*
X172333339Y-121026123D01*
X172131127Y-120999500D01*
X172131120Y-120999500D01*
X171868880Y-120999500D01*
X171868872Y-120999500D01*
X171637772Y-121029926D01*
X171608884Y-121033730D01*
X171355581Y-121101602D01*
X171355571Y-121101605D01*
X171113309Y-121201953D01*
X171113299Y-121201958D01*
X170886196Y-121333075D01*
X170678148Y-121492718D01*
X170492718Y-121678148D01*
X170333075Y-121886196D01*
X170201958Y-122113299D01*
X170201953Y-122113309D01*
X170101605Y-122355571D01*
X170101602Y-122355581D01*
X170033730Y-122608885D01*
X169999500Y-122868872D01*
X161725619Y-122868872D01*
X161644484Y-122709634D01*
X161612099Y-122665061D01*
X161612099Y-122665060D01*
X160932625Y-123344535D01*
X160932625Y-123338323D01*
X160905366Y-123236590D01*
X160852705Y-123145378D01*
X160778231Y-123070904D01*
X160687019Y-123018243D01*
X160585286Y-122990984D01*
X160579071Y-122990984D01*
X161258547Y-122311508D01*
X161258546Y-122311507D01*
X161213984Y-122279131D01*
X161213975Y-122279125D01*
X161031656Y-122186228D01*
X160837042Y-122122993D01*
X160634942Y-122090984D01*
X160430308Y-122090984D01*
X160228207Y-122122993D01*
X160033593Y-122186228D01*
X159851269Y-122279127D01*
X159806702Y-122311507D01*
X159806702Y-122311508D01*
X160486179Y-122990984D01*
X160479964Y-122990984D01*
X160378231Y-123018243D01*
X160287019Y-123070904D01*
X160212545Y-123145378D01*
X160159884Y-123236590D01*
X160132625Y-123338323D01*
X160132625Y-123344537D01*
X159453149Y-122665061D01*
X159453148Y-122665061D01*
X159420768Y-122709628D01*
X159327869Y-122891952D01*
X159264634Y-123086566D01*
X159232625Y-123288666D01*
X99229758Y-123288666D01*
X99250500Y-123131120D01*
X99250500Y-122868880D01*
X99216270Y-122608884D01*
X99148398Y-122355581D01*
X99148394Y-122355571D01*
X99048046Y-122113309D01*
X99048041Y-122113299D01*
X98916924Y-121886196D01*
X98757281Y-121678148D01*
X98757274Y-121678140D01*
X98571860Y-121492726D01*
X98571851Y-121492718D01*
X98363803Y-121333075D01*
X98136700Y-121201958D01*
X98136690Y-121201953D01*
X97894428Y-121101605D01*
X97894421Y-121101603D01*
X97894419Y-121101602D01*
X97641116Y-121033730D01*
X97583339Y-121026123D01*
X97381127Y-120999500D01*
X97381120Y-120999500D01*
X97118880Y-120999500D01*
X97118872Y-120999500D01*
X96887772Y-121029926D01*
X96858884Y-121033730D01*
X96605581Y-121101602D01*
X96605571Y-121101605D01*
X96363309Y-121201953D01*
X96363299Y-121201958D01*
X96136196Y-121333075D01*
X95928148Y-121492718D01*
X95742718Y-121678148D01*
X95583075Y-121886196D01*
X95451958Y-122113299D01*
X95451953Y-122113309D01*
X95351605Y-122355571D01*
X95351602Y-122355581D01*
X95283730Y-122608885D01*
X95249500Y-122868872D01*
X93500000Y-122868872D01*
X93500000Y-119397682D01*
X122450000Y-119397682D01*
X122450000Y-119602317D01*
X122482009Y-119804417D01*
X122545244Y-119999031D01*
X122638141Y-120181350D01*
X122638147Y-120181359D01*
X122670523Y-120225921D01*
X122670524Y-120225922D01*
X123350000Y-119546446D01*
X123350000Y-119552661D01*
X123377259Y-119654394D01*
X123429920Y-119745606D01*
X123504394Y-119820080D01*
X123595606Y-119872741D01*
X123697339Y-119900000D01*
X123703553Y-119900000D01*
X123024076Y-120579474D01*
X123068650Y-120611859D01*
X123250968Y-120704755D01*
X123445582Y-120767990D01*
X123647683Y-120800000D01*
X123852317Y-120800000D01*
X124054417Y-120767990D01*
X124249031Y-120704755D01*
X124431349Y-120611859D01*
X124475921Y-120579474D01*
X123796447Y-119900000D01*
X123802661Y-119900000D01*
X123904394Y-119872741D01*
X123995606Y-119820080D01*
X124070080Y-119745606D01*
X124122741Y-119654394D01*
X124150000Y-119552661D01*
X124150000Y-119546447D01*
X124829474Y-120225921D01*
X124861859Y-120181349D01*
X124954754Y-119999031D01*
X125007569Y-119836489D01*
X125047007Y-119778814D01*
X125111366Y-119751616D01*
X125180212Y-119763531D01*
X125231688Y-119810775D01*
X125249500Y-119874808D01*
X125249500Y-120104269D01*
X125252353Y-120134699D01*
X125252353Y-120134701D01*
X125292673Y-120249925D01*
X125297207Y-120262882D01*
X125377850Y-120372150D01*
X125487118Y-120452793D01*
X125496775Y-120456172D01*
X125615299Y-120497646D01*
X125645730Y-120500500D01*
X125645734Y-120500500D01*
X126854270Y-120500500D01*
X126884699Y-120497646D01*
X126884701Y-120497646D01*
X126954459Y-120473236D01*
X127012882Y-120452793D01*
X127122150Y-120372150D01*
X127202793Y-120262882D01*
X127225219Y-120198790D01*
X127247646Y-120134701D01*
X127247646Y-120134699D01*
X127250500Y-120104269D01*
X127250500Y-119870730D01*
X133449500Y-119870730D01*
X133449500Y-121229269D01*
X133452353Y-121259699D01*
X133452353Y-121259701D01*
X133497134Y-121387673D01*
X133497207Y-121387882D01*
X133577850Y-121497150D01*
X133687118Y-121577793D01*
X133729845Y-121592744D01*
X133815299Y-121622646D01*
X133845730Y-121625500D01*
X133845734Y-121625500D01*
X134654270Y-121625500D01*
X134684699Y-121622646D01*
X134684701Y-121622646D01*
X134748790Y-121600219D01*
X134812882Y-121577793D01*
X134922150Y-121497150D01*
X135002793Y-121387882D01*
X135028895Y-121313285D01*
X135069615Y-121256513D01*
X135134567Y-121230765D01*
X135203129Y-121244221D01*
X135253532Y-121292608D01*
X135256419Y-121297947D01*
X135309194Y-121401521D01*
X135410967Y-121541602D01*
X135533397Y-121664032D01*
X135673475Y-121765804D01*
X135827744Y-121844408D01*
X135992415Y-121897914D01*
X135992414Y-121897914D01*
X135999999Y-121899115D01*
X136000000Y-121899114D01*
X136000000Y-120830330D01*
X136019745Y-120850075D01*
X136105255Y-120899444D01*
X136200630Y-120925000D01*
X136299370Y-120925000D01*
X136394745Y-120899444D01*
X136480255Y-120850075D01*
X136500000Y-120830330D01*
X136500000Y-121899115D01*
X136507584Y-121897914D01*
X136672255Y-121844408D01*
X136826524Y-121765804D01*
X136966602Y-121664032D01*
X137089032Y-121541602D01*
X137149681Y-121458126D01*
X137205011Y-121415460D01*
X137274624Y-121409481D01*
X137336420Y-121442086D01*
X137350319Y-121458126D01*
X137410967Y-121541602D01*
X137533397Y-121664032D01*
X137673475Y-121765804D01*
X137827744Y-121844408D01*
X137992415Y-121897914D01*
X137992414Y-121897914D01*
X137999999Y-121899115D01*
X138000000Y-121899114D01*
X138000000Y-120830330D01*
X138019745Y-120850075D01*
X138105255Y-120899444D01*
X138200630Y-120925000D01*
X138299370Y-120925000D01*
X138394745Y-120899444D01*
X138480255Y-120850075D01*
X138500000Y-120830330D01*
X138500000Y-121899115D01*
X138507584Y-121897914D01*
X138672255Y-121844408D01*
X138826524Y-121765804D01*
X138966602Y-121664032D01*
X139089032Y-121541602D01*
X139190804Y-121401524D01*
X139269408Y-121247255D01*
X139312843Y-121113580D01*
X139312843Y-121113579D01*
X139322914Y-121082584D01*
X139350000Y-120911571D01*
X139350000Y-120800000D01*
X138530330Y-120800000D01*
X138550075Y-120780255D01*
X138599444Y-120694745D01*
X138625000Y-120599370D01*
X138625000Y-120500630D01*
X138599444Y-120405255D01*
X138550075Y-120319745D01*
X138530330Y-120300000D01*
X139350000Y-120300000D01*
X139350000Y-120188428D01*
X139325208Y-120031897D01*
X139322913Y-120017413D01*
X139322897Y-120017365D01*
X152392695Y-120017365D01*
X152392695Y-120222000D01*
X152424704Y-120424100D01*
X152487939Y-120618714D01*
X152580836Y-120801033D01*
X152580842Y-120801042D01*
X152613218Y-120845604D01*
X152613219Y-120845605D01*
X153292695Y-120166129D01*
X153292695Y-120172344D01*
X153319954Y-120274077D01*
X153372615Y-120365289D01*
X153447089Y-120439763D01*
X153538301Y-120492424D01*
X153640034Y-120519683D01*
X153646248Y-120519683D01*
X152966771Y-121199157D01*
X153011345Y-121231542D01*
X153193663Y-121324438D01*
X153388277Y-121387673D01*
X153590378Y-121419683D01*
X153795012Y-121419683D01*
X153997112Y-121387673D01*
X154191726Y-121324438D01*
X154374044Y-121231542D01*
X154418616Y-121199157D01*
X153739142Y-120519683D01*
X153745356Y-120519683D01*
X153847089Y-120492424D01*
X153938301Y-120439763D01*
X154012775Y-120365289D01*
X154065436Y-120274077D01*
X154092695Y-120172344D01*
X154092695Y-120166130D01*
X154772169Y-120845604D01*
X154804554Y-120801032D01*
X154897449Y-120618714D01*
X154950264Y-120456172D01*
X154989702Y-120398497D01*
X155054061Y-120371299D01*
X155122907Y-120383214D01*
X155174383Y-120430458D01*
X155192195Y-120494491D01*
X155192195Y-120723952D01*
X155195048Y-120754382D01*
X155195048Y-120754384D01*
X155228533Y-120850075D01*
X155239902Y-120882565D01*
X155320545Y-120991833D01*
X155429813Y-121072476D01*
X155458700Y-121082584D01*
X155557994Y-121117329D01*
X155588425Y-121120183D01*
X155588429Y-121120183D01*
X156796965Y-121120183D01*
X156827394Y-121117329D01*
X156827396Y-121117329D01*
X156891485Y-121094902D01*
X156955577Y-121072476D01*
X157064845Y-120991833D01*
X157145488Y-120882565D01*
X157181288Y-120780255D01*
X157190341Y-120754384D01*
X157190341Y-120754382D01*
X157193195Y-120723952D01*
X157193195Y-119515413D01*
X157190341Y-119484983D01*
X157190341Y-119484981D01*
X157145488Y-119356802D01*
X157145487Y-119356800D01*
X157142709Y-119353036D01*
X157064845Y-119247533D01*
X156955577Y-119166890D01*
X156955575Y-119166889D01*
X156827395Y-119122036D01*
X156796965Y-119119183D01*
X156796961Y-119119183D01*
X155588429Y-119119183D01*
X155588425Y-119119183D01*
X155557995Y-119122036D01*
X155557993Y-119122036D01*
X155429814Y-119166889D01*
X155429812Y-119166890D01*
X155320545Y-119247533D01*
X155239902Y-119356800D01*
X155239901Y-119356802D01*
X155195048Y-119484981D01*
X155195048Y-119484983D01*
X155192195Y-119515413D01*
X155192195Y-119744874D01*
X155172510Y-119811913D01*
X155119706Y-119857668D01*
X155050548Y-119867612D01*
X154986992Y-119838587D01*
X154950264Y-119783193D01*
X154897450Y-119620651D01*
X154804554Y-119438333D01*
X154772169Y-119393760D01*
X154772169Y-119393759D01*
X154092695Y-120073234D01*
X154092695Y-120067022D01*
X154065436Y-119965289D01*
X154012775Y-119874077D01*
X153938301Y-119799603D01*
X153847089Y-119746942D01*
X153745356Y-119719683D01*
X153739141Y-119719683D01*
X154418617Y-119040207D01*
X154418616Y-119040206D01*
X154374054Y-119007830D01*
X154374045Y-119007824D01*
X154191726Y-118914927D01*
X153997112Y-118851692D01*
X153795012Y-118819683D01*
X153590378Y-118819683D01*
X153388277Y-118851692D01*
X153193663Y-118914927D01*
X153011339Y-119007826D01*
X152966772Y-119040206D01*
X152966772Y-119040207D01*
X153646249Y-119719683D01*
X153640034Y-119719683D01*
X153538301Y-119746942D01*
X153447089Y-119799603D01*
X153372615Y-119874077D01*
X153319954Y-119965289D01*
X153292695Y-120067022D01*
X153292695Y-120073236D01*
X152613219Y-119393760D01*
X152613218Y-119393760D01*
X152580838Y-119438327D01*
X152487939Y-119620651D01*
X152424704Y-119815265D01*
X152392695Y-120017365D01*
X139322897Y-120017365D01*
X139269408Y-119852742D01*
X139190804Y-119698475D01*
X139089032Y-119558397D01*
X138966602Y-119435967D01*
X138826524Y-119334195D01*
X138672257Y-119255591D01*
X138658047Y-119250975D01*
X138511284Y-120280954D01*
X138480255Y-120249925D01*
X138394745Y-120200556D01*
X138299370Y-120175000D01*
X138200630Y-120175000D01*
X138105255Y-120200556D01*
X138019745Y-120249925D01*
X138000000Y-120269670D01*
X138000000Y-119200884D01*
X137999999Y-119200884D01*
X137992418Y-119202085D01*
X137992410Y-119202087D01*
X137827742Y-119255591D01*
X137673475Y-119334195D01*
X137533397Y-119435967D01*
X137410965Y-119558399D01*
X137410961Y-119558404D01*
X137350318Y-119641873D01*
X137294988Y-119684539D01*
X137225375Y-119690518D01*
X137163580Y-119657912D01*
X137149682Y-119641873D01*
X137089038Y-119558404D01*
X137089034Y-119558399D01*
X136966602Y-119435967D01*
X136826524Y-119334195D01*
X136672257Y-119255591D01*
X136507589Y-119202087D01*
X136507581Y-119202085D01*
X136500000Y-119200884D01*
X136500000Y-120269670D01*
X136480255Y-120249925D01*
X136394745Y-120200556D01*
X136299370Y-120175000D01*
X136200630Y-120175000D01*
X136105255Y-120200556D01*
X136019745Y-120249925D01*
X136000000Y-120269670D01*
X136000000Y-119200884D01*
X135999999Y-119200884D01*
X135992418Y-119202085D01*
X135992410Y-119202087D01*
X135827742Y-119255591D01*
X135673475Y-119334195D01*
X135533397Y-119435967D01*
X135410967Y-119558397D01*
X135309194Y-119698478D01*
X135256419Y-119802052D01*
X135208444Y-119852848D01*
X135140623Y-119869642D01*
X135074488Y-119847104D01*
X135031038Y-119792388D01*
X135028908Y-119786751D01*
X135002793Y-119712118D01*
X134922150Y-119602850D01*
X134812882Y-119522207D01*
X134812880Y-119522206D01*
X134684700Y-119477353D01*
X134654270Y-119474500D01*
X134654266Y-119474500D01*
X133845734Y-119474500D01*
X133845730Y-119474500D01*
X133815300Y-119477353D01*
X133815298Y-119477353D01*
X133687119Y-119522206D01*
X133687117Y-119522207D01*
X133577850Y-119602850D01*
X133497207Y-119712117D01*
X133497206Y-119712119D01*
X133452353Y-119840298D01*
X133452353Y-119840300D01*
X133449500Y-119870730D01*
X127250500Y-119870730D01*
X127250500Y-118895730D01*
X127247646Y-118865300D01*
X127247646Y-118865298D01*
X127202793Y-118737119D01*
X127202792Y-118737117D01*
X127122150Y-118627850D01*
X127012882Y-118547207D01*
X127012880Y-118547206D01*
X126884700Y-118502353D01*
X126854270Y-118499500D01*
X126854266Y-118499500D01*
X125645734Y-118499500D01*
X125645730Y-118499500D01*
X125615300Y-118502353D01*
X125615298Y-118502353D01*
X125487119Y-118547206D01*
X125487117Y-118547207D01*
X125377850Y-118627850D01*
X125297207Y-118737117D01*
X125297206Y-118737119D01*
X125252353Y-118865298D01*
X125252353Y-118865300D01*
X125249500Y-118895730D01*
X125249500Y-119125191D01*
X125229815Y-119192230D01*
X125177011Y-119237985D01*
X125107853Y-119247929D01*
X125044297Y-119218904D01*
X125007569Y-119163510D01*
X124954755Y-119000968D01*
X124861859Y-118818650D01*
X124829474Y-118774077D01*
X124829474Y-118774076D01*
X124150000Y-119453551D01*
X124150000Y-119447339D01*
X124122741Y-119345606D01*
X124070080Y-119254394D01*
X123995606Y-119179920D01*
X123904394Y-119127259D01*
X123802661Y-119100000D01*
X123796446Y-119100000D01*
X124406919Y-118489527D01*
X159532124Y-118489527D01*
X159570572Y-118682813D01*
X159570575Y-118682823D01*
X159645989Y-118864891D01*
X159645996Y-118864904D01*
X159755485Y-119028765D01*
X159755488Y-119028769D01*
X159894839Y-119168120D01*
X159894843Y-119168123D01*
X160058704Y-119277612D01*
X160058717Y-119277619D01*
X160240785Y-119353033D01*
X160240790Y-119353035D01*
X160240794Y-119353035D01*
X160240795Y-119353036D01*
X160434081Y-119391484D01*
X160434084Y-119391484D01*
X160631168Y-119391484D01*
X160805532Y-119356800D01*
X160824460Y-119353035D01*
X161006539Y-119277616D01*
X161170407Y-119168123D01*
X161309764Y-119028766D01*
X161419257Y-118864898D01*
X161419259Y-118864891D01*
X161422127Y-118859528D01*
X161424006Y-118860532D01*
X161461784Y-118813639D01*
X161528075Y-118791564D01*
X161532520Y-118791484D01*
X163379594Y-118791484D01*
X163446633Y-118811169D01*
X163492388Y-118863973D01*
X163502332Y-118933131D01*
X163473307Y-118996687D01*
X163467275Y-119003165D01*
X163357378Y-119113061D01*
X163357375Y-119113065D01*
X163247886Y-119276926D01*
X163247879Y-119276939D01*
X163172465Y-119459007D01*
X163172462Y-119459017D01*
X163134015Y-119652303D01*
X163134015Y-119652306D01*
X163134015Y-119849388D01*
X163134015Y-119849390D01*
X163134014Y-119849390D01*
X163172462Y-120042676D01*
X163172465Y-120042686D01*
X163247879Y-120224754D01*
X163247886Y-120224767D01*
X163357375Y-120388628D01*
X163357378Y-120388632D01*
X163496729Y-120527983D01*
X163496733Y-120527986D01*
X163660594Y-120637475D01*
X163660607Y-120637482D01*
X163798854Y-120694745D01*
X163842680Y-120712898D01*
X163842684Y-120712898D01*
X163842685Y-120712899D01*
X164035971Y-120751347D01*
X164035974Y-120751347D01*
X164233058Y-120751347D01*
X164370793Y-120723949D01*
X164426350Y-120712898D01*
X164608429Y-120637479D01*
X164772297Y-120527986D01*
X164911654Y-120388629D01*
X165021147Y-120224761D01*
X165096566Y-120042682D01*
X165130770Y-119870730D01*
X165135015Y-119849390D01*
X165135015Y-119652303D01*
X165096567Y-119459017D01*
X165096566Y-119459016D01*
X165096566Y-119459012D01*
X165087021Y-119435967D01*
X165021150Y-119276939D01*
X165021143Y-119276926D01*
X164911654Y-119113065D01*
X164911651Y-119113061D01*
X164801755Y-119003165D01*
X164768270Y-118941842D01*
X164773254Y-118872150D01*
X164815126Y-118816217D01*
X164880590Y-118791800D01*
X164889436Y-118791484D01*
X171471741Y-118791484D01*
X171471743Y-118791484D01*
X171573604Y-118764191D01*
X171573610Y-118764187D01*
X171581111Y-118761081D01*
X171582187Y-118763679D01*
X171636785Y-118750413D01*
X171678376Y-118759712D01*
X171708165Y-118772051D01*
X171755496Y-118781465D01*
X171901456Y-118810500D01*
X171901459Y-118810500D01*
X172098543Y-118810500D01*
X172228582Y-118784632D01*
X172291835Y-118772051D01*
X172473914Y-118696632D01*
X172637782Y-118587139D01*
X172777139Y-118447782D01*
X172886632Y-118283914D01*
X172962051Y-118101835D01*
X172985317Y-117984872D01*
X173000500Y-117908543D01*
X173000500Y-117711456D01*
X172962052Y-117518170D01*
X172962051Y-117518169D01*
X172962051Y-117518165D01*
X172925090Y-117428933D01*
X172886635Y-117336092D01*
X172886628Y-117336079D01*
X172777139Y-117172218D01*
X172777136Y-117172214D01*
X172637785Y-117032863D01*
X172637781Y-117032860D01*
X172473920Y-116923371D01*
X172473907Y-116923364D01*
X172291839Y-116847950D01*
X172291829Y-116847947D01*
X172098543Y-116809500D01*
X172098541Y-116809500D01*
X171901459Y-116809500D01*
X171901457Y-116809500D01*
X171708170Y-116847947D01*
X171708160Y-116847950D01*
X171526092Y-116923364D01*
X171526079Y-116923371D01*
X171362218Y-117032860D01*
X171362214Y-117032863D01*
X171222863Y-117172214D01*
X171222860Y-117172218D01*
X171113371Y-117336079D01*
X171113364Y-117336092D01*
X171037950Y-117518160D01*
X171037947Y-117518170D01*
X170999500Y-117711456D01*
X170999500Y-117866484D01*
X170979815Y-117933523D01*
X170927011Y-117979278D01*
X170875500Y-117990484D01*
X168930885Y-117990484D01*
X168863846Y-117970799D01*
X168818091Y-117917995D01*
X168808147Y-117848837D01*
X168837172Y-117785281D01*
X168843204Y-117778803D01*
X168885981Y-117736025D01*
X168885984Y-117736022D01*
X168995477Y-117572154D01*
X169070896Y-117390075D01*
X169109345Y-117196781D01*
X169109345Y-116999699D01*
X169109345Y-116999696D01*
X169070897Y-116806410D01*
X169070896Y-116806409D01*
X169070896Y-116806405D01*
X169052512Y-116762021D01*
X168995480Y-116624332D01*
X168995473Y-116624319D01*
X168885984Y-116460458D01*
X168885981Y-116460454D01*
X168746630Y-116321103D01*
X168746626Y-116321100D01*
X168582765Y-116211611D01*
X168582752Y-116211604D01*
X168400684Y-116136190D01*
X168400674Y-116136187D01*
X168207388Y-116097740D01*
X168207386Y-116097740D01*
X168010304Y-116097740D01*
X168010302Y-116097740D01*
X167817015Y-116136187D01*
X167817005Y-116136190D01*
X167634937Y-116211604D01*
X167634924Y-116211611D01*
X167471063Y-116321100D01*
X167471059Y-116321103D01*
X167331708Y-116460454D01*
X167331705Y-116460458D01*
X167222216Y-116624319D01*
X167222209Y-116624332D01*
X167146795Y-116806400D01*
X167146792Y-116806410D01*
X167108345Y-116999696D01*
X167108345Y-116999699D01*
X167108345Y-117196781D01*
X167108345Y-117196783D01*
X167108344Y-117196783D01*
X167146792Y-117390069D01*
X167146795Y-117390079D01*
X167222209Y-117572147D01*
X167222216Y-117572160D01*
X167331705Y-117736021D01*
X167331708Y-117736025D01*
X167374486Y-117778803D01*
X167407971Y-117840126D01*
X167402987Y-117909818D01*
X167361115Y-117965751D01*
X167295651Y-117990168D01*
X167286805Y-117990484D01*
X161532520Y-117990484D01*
X161465481Y-117970799D01*
X161423118Y-117921910D01*
X161422127Y-117922440D01*
X161419791Y-117918070D01*
X161419726Y-117917995D01*
X161419615Y-117917740D01*
X161419253Y-117917063D01*
X161309764Y-117753202D01*
X161309761Y-117753198D01*
X161170410Y-117613847D01*
X161170406Y-117613844D01*
X161006545Y-117504355D01*
X161006532Y-117504348D01*
X160824464Y-117428934D01*
X160824454Y-117428931D01*
X160631168Y-117390484D01*
X160631166Y-117390484D01*
X160434084Y-117390484D01*
X160434082Y-117390484D01*
X160240795Y-117428931D01*
X160240785Y-117428934D01*
X160058717Y-117504348D01*
X160058704Y-117504355D01*
X159894843Y-117613844D01*
X159894839Y-117613847D01*
X159755488Y-117753198D01*
X159755485Y-117753202D01*
X159645996Y-117917063D01*
X159645989Y-117917076D01*
X159570575Y-118099144D01*
X159570572Y-118099154D01*
X159532125Y-118292440D01*
X159532125Y-118292443D01*
X159532125Y-118489525D01*
X159532125Y-118489527D01*
X159532124Y-118489527D01*
X124406919Y-118489527D01*
X124475922Y-118420524D01*
X124475921Y-118420523D01*
X124431359Y-118388147D01*
X124431350Y-118388141D01*
X124249031Y-118295244D01*
X124054417Y-118232009D01*
X123852317Y-118200000D01*
X123647683Y-118200000D01*
X123445582Y-118232009D01*
X123250968Y-118295244D01*
X123068644Y-118388143D01*
X123024077Y-118420523D01*
X123024077Y-118420524D01*
X123703554Y-119100000D01*
X123697339Y-119100000D01*
X123595606Y-119127259D01*
X123504394Y-119179920D01*
X123429920Y-119254394D01*
X123377259Y-119345606D01*
X123350000Y-119447339D01*
X123350000Y-119453553D01*
X122670524Y-118774077D01*
X122670523Y-118774077D01*
X122638143Y-118818644D01*
X122545244Y-119000968D01*
X122482009Y-119195582D01*
X122450000Y-119397682D01*
X93500000Y-119397682D01*
X93500000Y-117152404D01*
X129005695Y-117152404D01*
X129044143Y-117345690D01*
X129044146Y-117345700D01*
X129119560Y-117527768D01*
X129119567Y-117527781D01*
X129229056Y-117691642D01*
X129229059Y-117691646D01*
X129368410Y-117830997D01*
X129368414Y-117831000D01*
X129532275Y-117940489D01*
X129532288Y-117940496D01*
X129714356Y-118015910D01*
X129714361Y-118015912D01*
X129714365Y-118015912D01*
X129714366Y-118015913D01*
X129907652Y-118054361D01*
X129907655Y-118054361D01*
X130104739Y-118054361D01*
X130234778Y-118028493D01*
X130298031Y-118015912D01*
X130480110Y-117940493D01*
X130643978Y-117831000D01*
X130783335Y-117691643D01*
X130885633Y-117538543D01*
X147499499Y-117538543D01*
X147537947Y-117731829D01*
X147537950Y-117731839D01*
X147613364Y-117913907D01*
X147613371Y-117913919D01*
X147722860Y-118077781D01*
X147722863Y-118077785D01*
X147862214Y-118217136D01*
X147862218Y-118217139D01*
X148026079Y-118326628D01*
X148026092Y-118326635D01*
X148208160Y-118402049D01*
X148208165Y-118402051D01*
X148208169Y-118402051D01*
X148208170Y-118402052D01*
X148401456Y-118440500D01*
X148401459Y-118440500D01*
X148598543Y-118440500D01*
X148728582Y-118414632D01*
X148791835Y-118402051D01*
X148973914Y-118326632D01*
X149137782Y-118217139D01*
X149137785Y-118217136D01*
X149156252Y-118198670D01*
X149277136Y-118077785D01*
X149277139Y-118077782D01*
X149351996Y-117965751D01*
X149386629Y-117913919D01*
X149386630Y-117913916D01*
X149386632Y-117913914D01*
X149462051Y-117731835D01*
X149493814Y-117572154D01*
X149500500Y-117538543D01*
X149500500Y-117341456D01*
X149462052Y-117148170D01*
X149462051Y-117148169D01*
X149462051Y-117148165D01*
X149414291Y-117032861D01*
X149386635Y-116966092D01*
X149386628Y-116966079D01*
X149277139Y-116802218D01*
X149277136Y-116802214D01*
X149137785Y-116662863D01*
X149137781Y-116662860D01*
X148973920Y-116553371D01*
X148973907Y-116553364D01*
X148791839Y-116477950D01*
X148791829Y-116477947D01*
X148598543Y-116439500D01*
X148598541Y-116439500D01*
X148401459Y-116439500D01*
X148401457Y-116439500D01*
X148208170Y-116477947D01*
X148208160Y-116477950D01*
X148026092Y-116553364D01*
X148026079Y-116553371D01*
X147862218Y-116662860D01*
X147862214Y-116662863D01*
X147722863Y-116802214D01*
X147722860Y-116802218D01*
X147613371Y-116966079D01*
X147613364Y-116966092D01*
X147537950Y-117148160D01*
X147537947Y-117148170D01*
X147499500Y-117341456D01*
X147499500Y-117341459D01*
X147499500Y-117538541D01*
X147499500Y-117538543D01*
X147499499Y-117538543D01*
X130885633Y-117538543D01*
X130892828Y-117527775D01*
X130896807Y-117518170D01*
X130968245Y-117345700D01*
X130968247Y-117345696D01*
X130997868Y-117196783D01*
X131006696Y-117152404D01*
X131006696Y-116955317D01*
X130968248Y-116762031D01*
X130968247Y-116762030D01*
X130968247Y-116762026D01*
X130927172Y-116662861D01*
X130892831Y-116579953D01*
X130892824Y-116579940D01*
X130783335Y-116416079D01*
X130783332Y-116416075D01*
X130643981Y-116276724D01*
X130643977Y-116276721D01*
X130480116Y-116167232D01*
X130480103Y-116167225D01*
X130298035Y-116091811D01*
X130298025Y-116091808D01*
X130104739Y-116053361D01*
X130104737Y-116053361D01*
X129907655Y-116053361D01*
X129907653Y-116053361D01*
X129714366Y-116091808D01*
X129714356Y-116091811D01*
X129532288Y-116167225D01*
X129532275Y-116167232D01*
X129368414Y-116276721D01*
X129368410Y-116276724D01*
X129229059Y-116416075D01*
X129229056Y-116416079D01*
X129119567Y-116579940D01*
X129119560Y-116579953D01*
X129044146Y-116762021D01*
X129044143Y-116762031D01*
X129005696Y-116955317D01*
X129005696Y-116955320D01*
X129005696Y-117152402D01*
X129005696Y-117152404D01*
X129005695Y-117152404D01*
X93500000Y-117152404D01*
X93500000Y-114348543D01*
X147575830Y-114348543D01*
X147614278Y-114541829D01*
X147614281Y-114541839D01*
X147689695Y-114723907D01*
X147689702Y-114723920D01*
X147799191Y-114887781D01*
X147799194Y-114887785D01*
X147938545Y-115027136D01*
X147938549Y-115027139D01*
X148102410Y-115136628D01*
X148102423Y-115136635D01*
X148204645Y-115178976D01*
X148284496Y-115212051D01*
X148284500Y-115212051D01*
X148284501Y-115212052D01*
X148477787Y-115250500D01*
X148477790Y-115250500D01*
X148674874Y-115250500D01*
X148804913Y-115224632D01*
X148868166Y-115212051D01*
X149050245Y-115136632D01*
X149214113Y-115027139D01*
X149353470Y-114887782D01*
X149462963Y-114723914D01*
X149462966Y-114723907D01*
X149471246Y-114703917D01*
X151812575Y-114703917D01*
X151812575Y-114908552D01*
X151844584Y-115110652D01*
X151907819Y-115305266D01*
X152000716Y-115487585D01*
X152000722Y-115487594D01*
X152033098Y-115532156D01*
X152033099Y-115532157D01*
X152712575Y-114852681D01*
X152712575Y-114858896D01*
X152739834Y-114960629D01*
X152792495Y-115051841D01*
X152866969Y-115126315D01*
X152958181Y-115178976D01*
X153059914Y-115206235D01*
X153066128Y-115206235D01*
X152386651Y-115885709D01*
X152431225Y-115918094D01*
X152613543Y-116010990D01*
X152808157Y-116074225D01*
X153010258Y-116106235D01*
X153214892Y-116106235D01*
X153416992Y-116074225D01*
X153611606Y-116010990D01*
X153793924Y-115918094D01*
X153838496Y-115885709D01*
X153159022Y-115206235D01*
X153165236Y-115206235D01*
X153266969Y-115178976D01*
X153358181Y-115126315D01*
X153432655Y-115051841D01*
X153485316Y-114960629D01*
X153512575Y-114858896D01*
X153512575Y-114852683D01*
X154192049Y-115532157D01*
X154192049Y-115532156D01*
X154224434Y-115487584D01*
X154317330Y-115305266D01*
X154380565Y-115110652D01*
X154412575Y-114908552D01*
X154412575Y-114904778D01*
X159732074Y-114904778D01*
X159770522Y-115098064D01*
X159770525Y-115098074D01*
X159845939Y-115280142D01*
X159845946Y-115280155D01*
X159955435Y-115444016D01*
X159955438Y-115444020D01*
X160094789Y-115583371D01*
X160094793Y-115583374D01*
X160258654Y-115692863D01*
X160258667Y-115692870D01*
X160440735Y-115768284D01*
X160440740Y-115768286D01*
X160440744Y-115768286D01*
X160440745Y-115768287D01*
X160634031Y-115806735D01*
X160634034Y-115806735D01*
X160831118Y-115806735D01*
X160961157Y-115780867D01*
X161024410Y-115768286D01*
X161206489Y-115692867D01*
X161370357Y-115583374D01*
X161509714Y-115444017D01*
X161619207Y-115280149D01*
X161694626Y-115098070D01*
X161733075Y-114904776D01*
X161733075Y-114707694D01*
X161733075Y-114707691D01*
X161694627Y-114514405D01*
X161694626Y-114514404D01*
X161694626Y-114514400D01*
X161682927Y-114486155D01*
X161619210Y-114332327D01*
X161619203Y-114332314D01*
X161509714Y-114168453D01*
X161509711Y-114168449D01*
X161370360Y-114029098D01*
X161370356Y-114029095D01*
X161206495Y-113919606D01*
X161206482Y-113919599D01*
X161024414Y-113844185D01*
X161024404Y-113844182D01*
X160831118Y-113805735D01*
X160831116Y-113805735D01*
X160634034Y-113805735D01*
X160634032Y-113805735D01*
X160440745Y-113844182D01*
X160440735Y-113844185D01*
X160258667Y-113919599D01*
X160258654Y-113919606D01*
X160094793Y-114029095D01*
X160094789Y-114029098D01*
X159955438Y-114168449D01*
X159955435Y-114168453D01*
X159845946Y-114332314D01*
X159845939Y-114332327D01*
X159770525Y-114514395D01*
X159770522Y-114514405D01*
X159732075Y-114707691D01*
X159732075Y-114707694D01*
X159732075Y-114904776D01*
X159732075Y-114904778D01*
X159732074Y-114904778D01*
X154412575Y-114904778D01*
X154412575Y-114703917D01*
X154380565Y-114501817D01*
X154317330Y-114307203D01*
X154224434Y-114124885D01*
X154192049Y-114080312D01*
X154192049Y-114080311D01*
X153512575Y-114759786D01*
X153512575Y-114753574D01*
X153485316Y-114651841D01*
X153432655Y-114560629D01*
X153358181Y-114486155D01*
X153266969Y-114433494D01*
X153165236Y-114406235D01*
X153159021Y-114406235D01*
X153838497Y-113726759D01*
X153838496Y-113726758D01*
X153793934Y-113694382D01*
X153793925Y-113694376D01*
X153611606Y-113601479D01*
X153416992Y-113538244D01*
X153228306Y-113508359D01*
X153165171Y-113478429D01*
X153128240Y-113419118D01*
X153129238Y-113349255D01*
X153167848Y-113291023D01*
X153223513Y-113264269D01*
X153404410Y-113228286D01*
X153586489Y-113152867D01*
X153750357Y-113043374D01*
X153889714Y-112904017D01*
X153999207Y-112740149D01*
X154000917Y-112736022D01*
X154016296Y-112698890D01*
X154074626Y-112558070D01*
X154113075Y-112364778D01*
X159732074Y-112364778D01*
X159770522Y-112558064D01*
X159770525Y-112558074D01*
X159845939Y-112740142D01*
X159845946Y-112740155D01*
X159955435Y-112904016D01*
X159955438Y-112904020D01*
X160094789Y-113043371D01*
X160094793Y-113043374D01*
X160258654Y-113152863D01*
X160258667Y-113152870D01*
X160440735Y-113228284D01*
X160440740Y-113228286D01*
X160440744Y-113228286D01*
X160440745Y-113228287D01*
X160634031Y-113266735D01*
X160634034Y-113266735D01*
X160831118Y-113266735D01*
X160961157Y-113240867D01*
X161024410Y-113228286D01*
X161206489Y-113152867D01*
X161370357Y-113043374D01*
X161509714Y-112904017D01*
X161619207Y-112740149D01*
X161620917Y-112736022D01*
X161636296Y-112698890D01*
X161694626Y-112558070D01*
X161733075Y-112364776D01*
X161733075Y-112229390D01*
X163134014Y-112229390D01*
X163172462Y-112422676D01*
X163172465Y-112422686D01*
X163247879Y-112604754D01*
X163247886Y-112604767D01*
X163357375Y-112768628D01*
X163357378Y-112768632D01*
X163496729Y-112907983D01*
X163496733Y-112907986D01*
X163660594Y-113017475D01*
X163660607Y-113017482D01*
X163842675Y-113092896D01*
X163842680Y-113092898D01*
X163842684Y-113092898D01*
X163842685Y-113092899D01*
X164035971Y-113131347D01*
X164035974Y-113131347D01*
X164233058Y-113131347D01*
X164363097Y-113105479D01*
X164426350Y-113092898D01*
X164608429Y-113017479D01*
X164772297Y-112907986D01*
X164911654Y-112768629D01*
X165021147Y-112604761D01*
X165096566Y-112422682D01*
X165127630Y-112266514D01*
X165135015Y-112229390D01*
X165135015Y-112196783D01*
X167108344Y-112196783D01*
X167146792Y-112390069D01*
X167146795Y-112390079D01*
X167222209Y-112572147D01*
X167222216Y-112572160D01*
X167331705Y-112736021D01*
X167331708Y-112736025D01*
X167471059Y-112875376D01*
X167471063Y-112875379D01*
X167634924Y-112984868D01*
X167634937Y-112984875D01*
X167776161Y-113043371D01*
X167817010Y-113060291D01*
X167817014Y-113060291D01*
X167817015Y-113060292D01*
X168010301Y-113098740D01*
X168010304Y-113098740D01*
X168207388Y-113098740D01*
X168337427Y-113072872D01*
X168400680Y-113060291D01*
X168582759Y-112984872D01*
X168746627Y-112875379D01*
X168885984Y-112736022D01*
X168995477Y-112572154D01*
X169070896Y-112390075D01*
X169109345Y-112196781D01*
X169109345Y-111999699D01*
X169109345Y-111999696D01*
X169070897Y-111806410D01*
X169070896Y-111806409D01*
X169070896Y-111806405D01*
X169059283Y-111778369D01*
X168995480Y-111624332D01*
X168995473Y-111624319D01*
X168885984Y-111460458D01*
X168885981Y-111460454D01*
X168746630Y-111321103D01*
X168746626Y-111321100D01*
X168582765Y-111211611D01*
X168582752Y-111211604D01*
X168400684Y-111136190D01*
X168400674Y-111136187D01*
X168207388Y-111097740D01*
X168207386Y-111097740D01*
X168010304Y-111097740D01*
X168010302Y-111097740D01*
X167817015Y-111136187D01*
X167817005Y-111136190D01*
X167634937Y-111211604D01*
X167634924Y-111211611D01*
X167471063Y-111321100D01*
X167471059Y-111321103D01*
X167331708Y-111460454D01*
X167331705Y-111460458D01*
X167222216Y-111624319D01*
X167222209Y-111624332D01*
X167146795Y-111806400D01*
X167146792Y-111806410D01*
X167108345Y-111999696D01*
X167108345Y-111999699D01*
X167108345Y-112196781D01*
X167108345Y-112196783D01*
X167108344Y-112196783D01*
X165135015Y-112196783D01*
X165135015Y-112032306D01*
X165132129Y-112017797D01*
X165132129Y-112017794D01*
X165096567Y-111839017D01*
X165096566Y-111839016D01*
X165096566Y-111839012D01*
X165096564Y-111839007D01*
X165021150Y-111656939D01*
X165021143Y-111656926D01*
X164911654Y-111493065D01*
X164911651Y-111493061D01*
X164772300Y-111353710D01*
X164772296Y-111353707D01*
X164608435Y-111244218D01*
X164608422Y-111244211D01*
X164426354Y-111168797D01*
X164426344Y-111168794D01*
X164233058Y-111130347D01*
X164233056Y-111130347D01*
X164035974Y-111130347D01*
X164035972Y-111130347D01*
X163842685Y-111168794D01*
X163842675Y-111168797D01*
X163660607Y-111244211D01*
X163660594Y-111244218D01*
X163496733Y-111353707D01*
X163496729Y-111353710D01*
X163357378Y-111493061D01*
X163357375Y-111493065D01*
X163247886Y-111656926D01*
X163247879Y-111656939D01*
X163172465Y-111839007D01*
X163172462Y-111839017D01*
X163134015Y-112032303D01*
X163134015Y-112032306D01*
X163134015Y-112229388D01*
X163134015Y-112229390D01*
X163134014Y-112229390D01*
X161733075Y-112229390D01*
X161733075Y-112167694D01*
X161733075Y-112167691D01*
X161709745Y-112050406D01*
X161709745Y-112050405D01*
X161699947Y-112001149D01*
X161694626Y-111974400D01*
X161665289Y-111903573D01*
X161619210Y-111792327D01*
X161619203Y-111792314D01*
X161509714Y-111628453D01*
X161509711Y-111628449D01*
X161370360Y-111489098D01*
X161370356Y-111489095D01*
X161206495Y-111379606D01*
X161206482Y-111379599D01*
X161024414Y-111304185D01*
X161024404Y-111304182D01*
X160831118Y-111265735D01*
X160831116Y-111265735D01*
X160634034Y-111265735D01*
X160634032Y-111265735D01*
X160440745Y-111304182D01*
X160440735Y-111304185D01*
X160258667Y-111379599D01*
X160258654Y-111379606D01*
X160094793Y-111489095D01*
X160094789Y-111489098D01*
X159955438Y-111628449D01*
X159955435Y-111628453D01*
X159845946Y-111792314D01*
X159845939Y-111792327D01*
X159770525Y-111974395D01*
X159770522Y-111974405D01*
X159732075Y-112167691D01*
X159732075Y-112167694D01*
X159732075Y-112364776D01*
X159732075Y-112364778D01*
X159732074Y-112364778D01*
X154113075Y-112364778D01*
X154113075Y-112364776D01*
X154113075Y-112167694D01*
X154113075Y-112167691D01*
X154074627Y-111974405D01*
X154074626Y-111974404D01*
X154074626Y-111974400D01*
X154045289Y-111903573D01*
X153999210Y-111792327D01*
X153999203Y-111792314D01*
X153889714Y-111628453D01*
X153889711Y-111628449D01*
X153750360Y-111489098D01*
X153750356Y-111489095D01*
X153586495Y-111379606D01*
X153586482Y-111379599D01*
X153404414Y-111304185D01*
X153404404Y-111304182D01*
X153211118Y-111265735D01*
X153211116Y-111265735D01*
X153014034Y-111265735D01*
X153014032Y-111265735D01*
X152820745Y-111304182D01*
X152820735Y-111304185D01*
X152638667Y-111379599D01*
X152638654Y-111379606D01*
X152474793Y-111489095D01*
X152474789Y-111489098D01*
X152335438Y-111628449D01*
X152335435Y-111628453D01*
X152225946Y-111792314D01*
X152225939Y-111792327D01*
X152150525Y-111974395D01*
X152150522Y-111974405D01*
X152112075Y-112167691D01*
X152112075Y-112167694D01*
X152112075Y-112364776D01*
X152112075Y-112364778D01*
X152112074Y-112364778D01*
X152150522Y-112558064D01*
X152150525Y-112558074D01*
X152225939Y-112740142D01*
X152225946Y-112740155D01*
X152335435Y-112904016D01*
X152335438Y-112904020D01*
X152474789Y-113043371D01*
X152474793Y-113043374D01*
X152638654Y-113152863D01*
X152638667Y-113152870D01*
X152820735Y-113228284D01*
X152820740Y-113228286D01*
X152927389Y-113249500D01*
X153001636Y-113264269D01*
X153063547Y-113296654D01*
X153098121Y-113357369D01*
X153094382Y-113427139D01*
X153053515Y-113483811D01*
X152996844Y-113508359D01*
X152808156Y-113538245D01*
X152613543Y-113601479D01*
X152431219Y-113694378D01*
X152386652Y-113726758D01*
X152386652Y-113726759D01*
X153066129Y-114406235D01*
X153059914Y-114406235D01*
X152958181Y-114433494D01*
X152866969Y-114486155D01*
X152792495Y-114560629D01*
X152739834Y-114651841D01*
X152712575Y-114753574D01*
X152712575Y-114759788D01*
X152033099Y-114080312D01*
X152033098Y-114080312D01*
X152000718Y-114124879D01*
X151907819Y-114307203D01*
X151844584Y-114501817D01*
X151812575Y-114703917D01*
X149471246Y-114703917D01*
X149492917Y-114651599D01*
X149538380Y-114541839D01*
X149538382Y-114541835D01*
X149576831Y-114348541D01*
X149576831Y-114151459D01*
X149576831Y-114151456D01*
X149538383Y-113958170D01*
X149538382Y-113958169D01*
X149538382Y-113958165D01*
X149538380Y-113958160D01*
X149462966Y-113776092D01*
X149462959Y-113776079D01*
X149353470Y-113612218D01*
X149353467Y-113612214D01*
X149214116Y-113472863D01*
X149214112Y-113472860D01*
X149050251Y-113363371D01*
X149050238Y-113363364D01*
X148868170Y-113287950D01*
X148868160Y-113287947D01*
X148674874Y-113249500D01*
X148674872Y-113249500D01*
X148477790Y-113249500D01*
X148477788Y-113249500D01*
X148284501Y-113287947D01*
X148284491Y-113287950D01*
X148102423Y-113363364D01*
X148102410Y-113363371D01*
X147938549Y-113472860D01*
X147938545Y-113472863D01*
X147799194Y-113612214D01*
X147799191Y-113612218D01*
X147689702Y-113776079D01*
X147689695Y-113776092D01*
X147614281Y-113958160D01*
X147614278Y-113958170D01*
X147575831Y-114151456D01*
X147575831Y-114151459D01*
X147575831Y-114348541D01*
X147575831Y-114348543D01*
X147575830Y-114348543D01*
X93500000Y-114348543D01*
X93500000Y-108993297D01*
X98914476Y-108993297D01*
X98914476Y-109143284D01*
X100009146Y-109143284D01*
X99989401Y-109163029D01*
X99940032Y-109248539D01*
X99914476Y-109343914D01*
X99914476Y-109442654D01*
X99940032Y-109538029D01*
X99989401Y-109623539D01*
X100009146Y-109643284D01*
X98914477Y-109643284D01*
X98914477Y-109793270D01*
X98924970Y-109895981D01*
X98980117Y-110062403D01*
X98980119Y-110062408D01*
X99072160Y-110211629D01*
X99196130Y-110335599D01*
X99345351Y-110427640D01*
X99345356Y-110427642D01*
X99511778Y-110482789D01*
X99511786Y-110482790D01*
X99537170Y-110485384D01*
X99601862Y-110511780D01*
X99642014Y-110568961D01*
X99644877Y-110638772D01*
X99609543Y-110699048D01*
X99593459Y-110711844D01*
X99504187Y-110771494D01*
X99504183Y-110771497D01*
X99392689Y-110882991D01*
X99392686Y-110882995D01*
X99305085Y-111014098D01*
X99305078Y-111014111D01*
X99244740Y-111159782D01*
X99244737Y-111159794D01*
X99213976Y-111314437D01*
X99213976Y-111472130D01*
X99244737Y-111626773D01*
X99244740Y-111626785D01*
X99305078Y-111772456D01*
X99305085Y-111772469D01*
X99392686Y-111903572D01*
X99392689Y-111903576D01*
X99504183Y-112015070D01*
X99504187Y-112015073D01*
X99635290Y-112102674D01*
X99635303Y-112102681D01*
X99780974Y-112163019D01*
X99780979Y-112163021D01*
X99922111Y-112191094D01*
X99935629Y-112193783D01*
X99935632Y-112193784D01*
X99935634Y-112193784D01*
X100643320Y-112193784D01*
X100643321Y-112193783D01*
X100797973Y-112163021D01*
X100943655Y-112102678D01*
X101074765Y-112015073D01*
X101186265Y-111903573D01*
X101273870Y-111772463D01*
X101334213Y-111626781D01*
X101364976Y-111472126D01*
X101364976Y-111403005D01*
X102679762Y-111403005D01*
X102718210Y-111596291D01*
X102718213Y-111596301D01*
X102793627Y-111778369D01*
X102793634Y-111778382D01*
X102903123Y-111942243D01*
X102903126Y-111942247D01*
X103042477Y-112081598D01*
X103042481Y-112081601D01*
X103206342Y-112191090D01*
X103206355Y-112191097D01*
X103388423Y-112266511D01*
X103388428Y-112266513D01*
X103388432Y-112266513D01*
X103388433Y-112266514D01*
X103581719Y-112304962D01*
X103581722Y-112304962D01*
X103778806Y-112304962D01*
X103908845Y-112279094D01*
X103972098Y-112266513D01*
X104112918Y-112208183D01*
X104154170Y-112191097D01*
X104154170Y-112191096D01*
X104154177Y-112191094D01*
X104318045Y-112081601D01*
X104457402Y-111942244D01*
X104566895Y-111778376D01*
X104642314Y-111596297D01*
X104662849Y-111493061D01*
X104680763Y-111403005D01*
X110299762Y-111403005D01*
X110338210Y-111596291D01*
X110338213Y-111596301D01*
X110413627Y-111778369D01*
X110413634Y-111778382D01*
X110523123Y-111942243D01*
X110523126Y-111942247D01*
X110662477Y-112081598D01*
X110662481Y-112081601D01*
X110826342Y-112191090D01*
X110826355Y-112191097D01*
X111008423Y-112266511D01*
X111008428Y-112266513D01*
X111008432Y-112266513D01*
X111008433Y-112266514D01*
X111201719Y-112304962D01*
X111201722Y-112304962D01*
X111398806Y-112304962D01*
X111528845Y-112279094D01*
X111592098Y-112266513D01*
X111732918Y-112208183D01*
X111774170Y-112191097D01*
X111774170Y-112191096D01*
X111774177Y-112191094D01*
X111938045Y-112081601D01*
X112077402Y-111942244D01*
X112186895Y-111778376D01*
X112262314Y-111596297D01*
X112282849Y-111493061D01*
X112289046Y-111461910D01*
X113499499Y-111461910D01*
X113537947Y-111655196D01*
X113537950Y-111655206D01*
X113613364Y-111837274D01*
X113613371Y-111837287D01*
X113722860Y-112001148D01*
X113722863Y-112001152D01*
X113862214Y-112140503D01*
X113862218Y-112140506D01*
X114026079Y-112249995D01*
X114026092Y-112250002D01*
X114158779Y-112304962D01*
X114208165Y-112325418D01*
X114208169Y-112325418D01*
X114208170Y-112325419D01*
X114401456Y-112363867D01*
X114401459Y-112363867D01*
X114598543Y-112363867D01*
X114728582Y-112337999D01*
X114791835Y-112325418D01*
X114973914Y-112249999D01*
X115137782Y-112140506D01*
X115277139Y-112001149D01*
X115386632Y-111837281D01*
X115462051Y-111655202D01*
X115489726Y-111516073D01*
X115500500Y-111461910D01*
X118499499Y-111461910D01*
X118537947Y-111655196D01*
X118537950Y-111655206D01*
X118613364Y-111837274D01*
X118613371Y-111837287D01*
X118722860Y-112001148D01*
X118722863Y-112001152D01*
X118862214Y-112140503D01*
X118862218Y-112140506D01*
X119026079Y-112249995D01*
X119026092Y-112250002D01*
X119158779Y-112304962D01*
X119208165Y-112325418D01*
X119208169Y-112325418D01*
X119208170Y-112325419D01*
X119401456Y-112363867D01*
X119401459Y-112363867D01*
X119598543Y-112363867D01*
X119728582Y-112337999D01*
X119791835Y-112325418D01*
X119973914Y-112249999D01*
X120137782Y-112140506D01*
X120137785Y-112140503D01*
X120204368Y-112073921D01*
X120277136Y-112001152D01*
X120277139Y-112001149D01*
X120386632Y-111837281D01*
X120462051Y-111655202D01*
X120489726Y-111516073D01*
X120500500Y-111461910D01*
X120500500Y-111264823D01*
X120462052Y-111071537D01*
X120462051Y-111071536D01*
X120462051Y-111071532D01*
X120437650Y-111012622D01*
X120386635Y-110889459D01*
X120386628Y-110889446D01*
X120277139Y-110725585D01*
X120277136Y-110725581D01*
X120137785Y-110586230D01*
X120137781Y-110586227D01*
X119973920Y-110476738D01*
X119973907Y-110476731D01*
X119791839Y-110401317D01*
X119791829Y-110401314D01*
X119598543Y-110362867D01*
X119598541Y-110362867D01*
X119401459Y-110362867D01*
X119401457Y-110362867D01*
X119208170Y-110401314D01*
X119208160Y-110401317D01*
X119026092Y-110476731D01*
X119026079Y-110476738D01*
X118862218Y-110586227D01*
X118862214Y-110586230D01*
X118722863Y-110725581D01*
X118722860Y-110725585D01*
X118613371Y-110889446D01*
X118613364Y-110889459D01*
X118537950Y-111071527D01*
X118537947Y-111071537D01*
X118499500Y-111264823D01*
X118499500Y-111264826D01*
X118499500Y-111461908D01*
X118499500Y-111461910D01*
X118499499Y-111461910D01*
X115500500Y-111461910D01*
X115500500Y-111264823D01*
X115462052Y-111071537D01*
X115462051Y-111071536D01*
X115462051Y-111071532D01*
X115437650Y-111012622D01*
X115386635Y-110889459D01*
X115386628Y-110889446D01*
X115277139Y-110725585D01*
X115277136Y-110725581D01*
X115137785Y-110586230D01*
X115137781Y-110586227D01*
X114973920Y-110476738D01*
X114973907Y-110476731D01*
X114791839Y-110401317D01*
X114791829Y-110401314D01*
X114598543Y-110362867D01*
X114598541Y-110362867D01*
X114401459Y-110362867D01*
X114401457Y-110362867D01*
X114208170Y-110401314D01*
X114208160Y-110401317D01*
X114026092Y-110476731D01*
X114026079Y-110476738D01*
X113862218Y-110586227D01*
X113862214Y-110586230D01*
X113722863Y-110725581D01*
X113722860Y-110725585D01*
X113613371Y-110889446D01*
X113613364Y-110889459D01*
X113537950Y-111071527D01*
X113537947Y-111071537D01*
X113499500Y-111264823D01*
X113499500Y-111264826D01*
X113499500Y-111461908D01*
X113499500Y-111461910D01*
X113499499Y-111461910D01*
X112289046Y-111461910D01*
X112300763Y-111403005D01*
X112300763Y-111205918D01*
X112262315Y-111012632D01*
X112262314Y-111012631D01*
X112262314Y-111012627D01*
X112262312Y-111012622D01*
X112186898Y-110830554D01*
X112186891Y-110830541D01*
X112077402Y-110666680D01*
X112077399Y-110666676D01*
X111938048Y-110527325D01*
X111938044Y-110527322D01*
X111774183Y-110417833D01*
X111774170Y-110417826D01*
X111592102Y-110342412D01*
X111592092Y-110342409D01*
X111398806Y-110303962D01*
X111398804Y-110303962D01*
X111201722Y-110303962D01*
X111201720Y-110303962D01*
X111008433Y-110342409D01*
X111008423Y-110342412D01*
X110826355Y-110417826D01*
X110826342Y-110417833D01*
X110662481Y-110527322D01*
X110662477Y-110527325D01*
X110523126Y-110666676D01*
X110523123Y-110666680D01*
X110413634Y-110830541D01*
X110413627Y-110830554D01*
X110338213Y-111012622D01*
X110338210Y-111012632D01*
X110299763Y-111205918D01*
X110299763Y-111205921D01*
X110299763Y-111403003D01*
X110299763Y-111403005D01*
X110299762Y-111403005D01*
X104680763Y-111403005D01*
X104680763Y-111205918D01*
X104642315Y-111012632D01*
X104642314Y-111012631D01*
X104642314Y-111012627D01*
X104642312Y-111012622D01*
X104566898Y-110830554D01*
X104566891Y-110830541D01*
X104457402Y-110666680D01*
X104457399Y-110666676D01*
X104318048Y-110527325D01*
X104318044Y-110527322D01*
X104154183Y-110417833D01*
X104154170Y-110417826D01*
X103972102Y-110342412D01*
X103972092Y-110342409D01*
X103778806Y-110303962D01*
X103778804Y-110303962D01*
X103581722Y-110303962D01*
X103581720Y-110303962D01*
X103388433Y-110342409D01*
X103388423Y-110342412D01*
X103206355Y-110417826D01*
X103206342Y-110417833D01*
X103042481Y-110527322D01*
X103042477Y-110527325D01*
X102903126Y-110666676D01*
X102903123Y-110666680D01*
X102793634Y-110830541D01*
X102793627Y-110830554D01*
X102718213Y-111012622D01*
X102718210Y-111012632D01*
X102679763Y-111205918D01*
X102679763Y-111205921D01*
X102679763Y-111403003D01*
X102679763Y-111403005D01*
X102679762Y-111403005D01*
X101364976Y-111403005D01*
X101364976Y-111314442D01*
X101364976Y-111314439D01*
X101346990Y-111224021D01*
X101346990Y-111224020D01*
X101336005Y-111168796D01*
X101334213Y-111159787D01*
X101324439Y-111136190D01*
X101273873Y-111014111D01*
X101273866Y-111014098D01*
X101186265Y-110882995D01*
X101186262Y-110882991D01*
X101074768Y-110771497D01*
X101074764Y-110771494D01*
X100985491Y-110711843D01*
X100940686Y-110658230D01*
X100931979Y-110588905D01*
X100962134Y-110525878D01*
X101021577Y-110489159D01*
X101041784Y-110485383D01*
X101067172Y-110482790D01*
X101233595Y-110427642D01*
X101233600Y-110427640D01*
X101382821Y-110335599D01*
X101506791Y-110211629D01*
X101598832Y-110062408D01*
X101598834Y-110062403D01*
X101653981Y-109895981D01*
X101653982Y-109895974D01*
X101664475Y-109793270D01*
X101664476Y-109793257D01*
X101664476Y-109643284D01*
X100569806Y-109643284D01*
X100589551Y-109623539D01*
X100637556Y-109540391D01*
X123588975Y-109540391D01*
X123616855Y-109680548D01*
X123616857Y-109680554D01*
X123671545Y-109812584D01*
X123671550Y-109812593D01*
X123750943Y-109931412D01*
X123750946Y-109931416D01*
X123835783Y-110016253D01*
X123869268Y-110077576D01*
X123864284Y-110147268D01*
X123835783Y-110191615D01*
X123750946Y-110276451D01*
X123750943Y-110276455D01*
X123671550Y-110395274D01*
X123671545Y-110395283D01*
X123616857Y-110527313D01*
X123616855Y-110527319D01*
X123588976Y-110667476D01*
X123588976Y-110667479D01*
X123588976Y-110810389D01*
X123588976Y-110810391D01*
X123588975Y-110810391D01*
X123616855Y-110950548D01*
X123616857Y-110950554D01*
X123671545Y-111082584D01*
X123671550Y-111082593D01*
X123750943Y-111201412D01*
X123750946Y-111201416D01*
X123851993Y-111302463D01*
X123851997Y-111302466D01*
X123970816Y-111381859D01*
X123970822Y-111381862D01*
X123970823Y-111381863D01*
X124102856Y-111436553D01*
X124102860Y-111436553D01*
X124102861Y-111436554D01*
X124243018Y-111464434D01*
X124243021Y-111464434D01*
X124835933Y-111464434D01*
X124930227Y-111445676D01*
X124976096Y-111436553D01*
X125108129Y-111381863D01*
X125226955Y-111302466D01*
X125328008Y-111201413D01*
X125407405Y-111082587D01*
X125462095Y-110950554D01*
X125484588Y-110837477D01*
X133418975Y-110837477D01*
X133457423Y-111030763D01*
X133457426Y-111030773D01*
X133532840Y-111212841D01*
X133532847Y-111212854D01*
X133642336Y-111376715D01*
X133642339Y-111376719D01*
X133781690Y-111516070D01*
X133781694Y-111516073D01*
X133945555Y-111625562D01*
X133945568Y-111625569D01*
X134127636Y-111700983D01*
X134127641Y-111700985D01*
X134127645Y-111700985D01*
X134127646Y-111700986D01*
X134320932Y-111739434D01*
X134320935Y-111739434D01*
X134518019Y-111739434D01*
X134648058Y-111713566D01*
X134711311Y-111700985D01*
X134893390Y-111625566D01*
X135057258Y-111516073D01*
X135196615Y-111376716D01*
X135306108Y-111212848D01*
X135308979Y-111205918D01*
X135324356Y-111168794D01*
X135381527Y-111030769D01*
X135409638Y-110889446D01*
X135419976Y-110837477D01*
X141038975Y-110837477D01*
X141077423Y-111030763D01*
X141077426Y-111030773D01*
X141152840Y-111212841D01*
X141152847Y-111212854D01*
X141262336Y-111376715D01*
X141262339Y-111376719D01*
X141401690Y-111516070D01*
X141401694Y-111516073D01*
X141565555Y-111625562D01*
X141565568Y-111625569D01*
X141747636Y-111700983D01*
X141747641Y-111700985D01*
X141747645Y-111700985D01*
X141747646Y-111700986D01*
X141940932Y-111739434D01*
X141940935Y-111739434D01*
X142138019Y-111739434D01*
X142268058Y-111713566D01*
X142331311Y-111700985D01*
X142513390Y-111625566D01*
X142677258Y-111516073D01*
X142816615Y-111376716D01*
X142926108Y-111212848D01*
X142928979Y-111205918D01*
X142944356Y-111168794D01*
X143001527Y-111030769D01*
X143029638Y-110889446D01*
X143039976Y-110837477D01*
X143039976Y-110640390D01*
X143001528Y-110447104D01*
X143001527Y-110447103D01*
X143001527Y-110447099D01*
X142989405Y-110417833D01*
X142926111Y-110265026D01*
X142926104Y-110265013D01*
X142816615Y-110101152D01*
X142816612Y-110101148D01*
X142677261Y-109961797D01*
X142677257Y-109961794D01*
X142513396Y-109852305D01*
X142513383Y-109852298D01*
X142331315Y-109776884D01*
X142331305Y-109776881D01*
X142138019Y-109738434D01*
X142138017Y-109738434D01*
X141940935Y-109738434D01*
X141940933Y-109738434D01*
X141747646Y-109776881D01*
X141747636Y-109776884D01*
X141565568Y-109852298D01*
X141565555Y-109852305D01*
X141401694Y-109961794D01*
X141401690Y-109961797D01*
X141262339Y-110101148D01*
X141262336Y-110101152D01*
X141152847Y-110265013D01*
X141152840Y-110265026D01*
X141077426Y-110447094D01*
X141077423Y-110447104D01*
X141038976Y-110640390D01*
X141038976Y-110640393D01*
X141038976Y-110837475D01*
X141038976Y-110837477D01*
X141038975Y-110837477D01*
X135419976Y-110837477D01*
X135419976Y-110640390D01*
X135381528Y-110447104D01*
X135381527Y-110447103D01*
X135381527Y-110447099D01*
X135369405Y-110417833D01*
X135306111Y-110265026D01*
X135306104Y-110265013D01*
X135196615Y-110101152D01*
X135196612Y-110101148D01*
X135057261Y-109961797D01*
X135057257Y-109961794D01*
X134893396Y-109852305D01*
X134893383Y-109852298D01*
X134711315Y-109776884D01*
X134711305Y-109776881D01*
X134518019Y-109738434D01*
X134518017Y-109738434D01*
X134320935Y-109738434D01*
X134320933Y-109738434D01*
X134127646Y-109776881D01*
X134127636Y-109776884D01*
X133945568Y-109852298D01*
X133945555Y-109852305D01*
X133781694Y-109961794D01*
X133781690Y-109961797D01*
X133642339Y-110101148D01*
X133642336Y-110101152D01*
X133532847Y-110265013D01*
X133532840Y-110265026D01*
X133457426Y-110447094D01*
X133457423Y-110447104D01*
X133418976Y-110640390D01*
X133418976Y-110640393D01*
X133418976Y-110837475D01*
X133418976Y-110837477D01*
X133418975Y-110837477D01*
X125484588Y-110837477D01*
X125485966Y-110830548D01*
X125489976Y-110810391D01*
X125489976Y-110667476D01*
X125488189Y-110658493D01*
X125462096Y-110527319D01*
X125462095Y-110527318D01*
X125462095Y-110527314D01*
X125416745Y-110417830D01*
X125407406Y-110395283D01*
X125407401Y-110395274D01*
X125328008Y-110276455D01*
X125328005Y-110276451D01*
X125243169Y-110191615D01*
X125209684Y-110130292D01*
X125214668Y-110060600D01*
X125243169Y-110016253D01*
X125328005Y-109931416D01*
X125328008Y-109931413D01*
X125407405Y-109812587D01*
X125462095Y-109680554D01*
X125473436Y-109623539D01*
X125489976Y-109540391D01*
X125489976Y-109532404D01*
X129005695Y-109532404D01*
X129044143Y-109725690D01*
X129044146Y-109725700D01*
X129119560Y-109907768D01*
X129119567Y-109907781D01*
X129229056Y-110071642D01*
X129229059Y-110071646D01*
X129368410Y-110210997D01*
X129368414Y-110211000D01*
X129532275Y-110320489D01*
X129532288Y-110320496D01*
X129712842Y-110395283D01*
X129714361Y-110395912D01*
X129714365Y-110395912D01*
X129714366Y-110395913D01*
X129907652Y-110434361D01*
X129907655Y-110434361D01*
X130104739Y-110434361D01*
X130234778Y-110408493D01*
X130298031Y-110395912D01*
X130480110Y-110320493D01*
X130643978Y-110211000D01*
X130783335Y-110071643D01*
X130892828Y-109907775D01*
X130896807Y-109898170D01*
X130940257Y-109793270D01*
X130968247Y-109725696D01*
X130998392Y-109574149D01*
X131006696Y-109532404D01*
X131006696Y-109348543D01*
X147575830Y-109348543D01*
X147614278Y-109541829D01*
X147614281Y-109541839D01*
X147689695Y-109723907D01*
X147689702Y-109723920D01*
X147799191Y-109887781D01*
X147799194Y-109887785D01*
X147938545Y-110027136D01*
X147938549Y-110027139D01*
X148102410Y-110136628D01*
X148102423Y-110136635D01*
X148283477Y-110211629D01*
X148284496Y-110212051D01*
X148284500Y-110212051D01*
X148284501Y-110212052D01*
X148477787Y-110250500D01*
X148477790Y-110250500D01*
X148674874Y-110250500D01*
X148837987Y-110218054D01*
X148868166Y-110212051D01*
X149050245Y-110136632D01*
X149214113Y-110027139D01*
X149353470Y-109887782D01*
X149395568Y-109824778D01*
X152112074Y-109824778D01*
X152150522Y-110018064D01*
X152150525Y-110018074D01*
X152225939Y-110200142D01*
X152225946Y-110200155D01*
X152335435Y-110364016D01*
X152335438Y-110364020D01*
X152474789Y-110503371D01*
X152474793Y-110503374D01*
X152638654Y-110612863D01*
X152638667Y-110612870D01*
X152770507Y-110667479D01*
X152820740Y-110688286D01*
X152820744Y-110688286D01*
X152820745Y-110688287D01*
X153014031Y-110726735D01*
X153014034Y-110726735D01*
X153211118Y-110726735D01*
X153350306Y-110699048D01*
X153404410Y-110688286D01*
X153586489Y-110612867D01*
X153750357Y-110503374D01*
X153889714Y-110364017D01*
X153999207Y-110200149D01*
X154009458Y-110175402D01*
X154028142Y-110130292D01*
X154074626Y-110018070D01*
X154100542Y-109887782D01*
X154113075Y-109824778D01*
X159732074Y-109824778D01*
X159770522Y-110018064D01*
X159770525Y-110018074D01*
X159845939Y-110200142D01*
X159845946Y-110200155D01*
X159955435Y-110364016D01*
X159955438Y-110364020D01*
X160094789Y-110503371D01*
X160094793Y-110503374D01*
X160258654Y-110612863D01*
X160258667Y-110612870D01*
X160390507Y-110667479D01*
X160440740Y-110688286D01*
X160440744Y-110688286D01*
X160440745Y-110688287D01*
X160634031Y-110726735D01*
X160634034Y-110726735D01*
X160831118Y-110726735D01*
X160970306Y-110699048D01*
X161024410Y-110688286D01*
X161206489Y-110612867D01*
X161370357Y-110503374D01*
X161509714Y-110364017D01*
X161560144Y-110288543D01*
X170999499Y-110288543D01*
X171037947Y-110481829D01*
X171037950Y-110481839D01*
X171113364Y-110663907D01*
X171113371Y-110663920D01*
X171222860Y-110827781D01*
X171222863Y-110827785D01*
X171362214Y-110967136D01*
X171362218Y-110967139D01*
X171526079Y-111076628D01*
X171526092Y-111076635D01*
X171708160Y-111152049D01*
X171708165Y-111152051D01*
X171708169Y-111152051D01*
X171708170Y-111152052D01*
X171901456Y-111190500D01*
X171901459Y-111190500D01*
X172098543Y-111190500D01*
X172228582Y-111164632D01*
X172291835Y-111152051D01*
X172459537Y-111082587D01*
X172473907Y-111076635D01*
X172473907Y-111076634D01*
X172473914Y-111076632D01*
X172637782Y-110967139D01*
X172777139Y-110827782D01*
X172886632Y-110663914D01*
X172888878Y-110658493D01*
X172916095Y-110592784D01*
X172962051Y-110481835D01*
X172979143Y-110395910D01*
X173000500Y-110288543D01*
X173000500Y-110091456D01*
X172962052Y-109898170D01*
X172962051Y-109898169D01*
X172962051Y-109898165D01*
X172961146Y-109895981D01*
X172886635Y-109716092D01*
X172886628Y-109716079D01*
X172777139Y-109552218D01*
X172777136Y-109552214D01*
X172637785Y-109412863D01*
X172637781Y-109412860D01*
X172473920Y-109303371D01*
X172473907Y-109303364D01*
X172291839Y-109227950D01*
X172291829Y-109227947D01*
X172098543Y-109189500D01*
X172098541Y-109189500D01*
X171901459Y-109189500D01*
X171901457Y-109189500D01*
X171708170Y-109227947D01*
X171708160Y-109227950D01*
X171526092Y-109303364D01*
X171526079Y-109303371D01*
X171362218Y-109412860D01*
X171362214Y-109412863D01*
X171222863Y-109552214D01*
X171222860Y-109552218D01*
X171113371Y-109716079D01*
X171113364Y-109716092D01*
X171037950Y-109898160D01*
X171037947Y-109898170D01*
X170999500Y-110091456D01*
X170999500Y-110091459D01*
X170999500Y-110288541D01*
X170999500Y-110288543D01*
X170999499Y-110288543D01*
X161560144Y-110288543D01*
X161619207Y-110200149D01*
X161629458Y-110175402D01*
X161648142Y-110130292D01*
X161694626Y-110018070D01*
X161720542Y-109887782D01*
X161733075Y-109824778D01*
X161733075Y-109627691D01*
X161694627Y-109434405D01*
X161694626Y-109434404D01*
X161694626Y-109434400D01*
X161659063Y-109348543D01*
X161645624Y-109316097D01*
X164822145Y-109316097D01*
X164860593Y-109509383D01*
X164860596Y-109509393D01*
X164936010Y-109691461D01*
X164936017Y-109691474D01*
X165045506Y-109855335D01*
X165045509Y-109855339D01*
X165184860Y-109994690D01*
X165184864Y-109994693D01*
X165348725Y-110104182D01*
X165348738Y-110104189D01*
X165520664Y-110175402D01*
X165530811Y-110179605D01*
X165530815Y-110179605D01*
X165530816Y-110179606D01*
X165724102Y-110218054D01*
X165724105Y-110218054D01*
X165921189Y-110218054D01*
X166054103Y-110191615D01*
X166114481Y-110179605D01*
X166296560Y-110104186D01*
X166460428Y-109994693D01*
X166599785Y-109855336D01*
X166709278Y-109691468D01*
X166784697Y-109509389D01*
X166799614Y-109434395D01*
X166823146Y-109316097D01*
X166823146Y-109119010D01*
X166784698Y-108925724D01*
X166784697Y-108925723D01*
X166784697Y-108925719D01*
X166770380Y-108891154D01*
X166709281Y-108743646D01*
X166709274Y-108743633D01*
X166599785Y-108579772D01*
X166599782Y-108579768D01*
X166460431Y-108440417D01*
X166460427Y-108440414D01*
X166296566Y-108330925D01*
X166296553Y-108330918D01*
X166114485Y-108255504D01*
X166114475Y-108255501D01*
X165921189Y-108217054D01*
X165921187Y-108217054D01*
X165724105Y-108217054D01*
X165724103Y-108217054D01*
X165530816Y-108255501D01*
X165530806Y-108255504D01*
X165348738Y-108330918D01*
X165348725Y-108330925D01*
X165184864Y-108440414D01*
X165184860Y-108440417D01*
X165045509Y-108579768D01*
X165045506Y-108579772D01*
X164936017Y-108743633D01*
X164936010Y-108743646D01*
X164860596Y-108925714D01*
X164860593Y-108925724D01*
X164822146Y-109119010D01*
X164822146Y-109119013D01*
X164822146Y-109316095D01*
X164822146Y-109316097D01*
X164822145Y-109316097D01*
X161645624Y-109316097D01*
X161619210Y-109252327D01*
X161619203Y-109252314D01*
X161572095Y-109181812D01*
X161509714Y-109088453D01*
X161509711Y-109088449D01*
X161370360Y-108949098D01*
X161370356Y-108949095D01*
X161206495Y-108839606D01*
X161206482Y-108839599D01*
X161024414Y-108764185D01*
X161024404Y-108764182D01*
X160831118Y-108725735D01*
X160831116Y-108725735D01*
X160634034Y-108725735D01*
X160634032Y-108725735D01*
X160440745Y-108764182D01*
X160440735Y-108764185D01*
X160258667Y-108839599D01*
X160258654Y-108839606D01*
X160094793Y-108949095D01*
X160094789Y-108949098D01*
X159955438Y-109088449D01*
X159955435Y-109088453D01*
X159845946Y-109252314D01*
X159845939Y-109252327D01*
X159770525Y-109434395D01*
X159770522Y-109434405D01*
X159732075Y-109627691D01*
X159732075Y-109627694D01*
X159732075Y-109824776D01*
X159732075Y-109824778D01*
X159732074Y-109824778D01*
X154113075Y-109824778D01*
X154113075Y-109627691D01*
X154074627Y-109434405D01*
X154074626Y-109434404D01*
X154074626Y-109434400D01*
X154039063Y-109348543D01*
X153999210Y-109252327D01*
X153999203Y-109252314D01*
X153889714Y-109088453D01*
X153889711Y-109088449D01*
X153750360Y-108949098D01*
X153750356Y-108949095D01*
X153586495Y-108839606D01*
X153586482Y-108839599D01*
X153404414Y-108764185D01*
X153404404Y-108764182D01*
X153211118Y-108725735D01*
X153211116Y-108725735D01*
X153014034Y-108725735D01*
X153014032Y-108725735D01*
X152820745Y-108764182D01*
X152820735Y-108764185D01*
X152638667Y-108839599D01*
X152638654Y-108839606D01*
X152474793Y-108949095D01*
X152474789Y-108949098D01*
X152335438Y-109088449D01*
X152335435Y-109088453D01*
X152225946Y-109252314D01*
X152225939Y-109252327D01*
X152150525Y-109434395D01*
X152150522Y-109434405D01*
X152112075Y-109627691D01*
X152112075Y-109627694D01*
X152112075Y-109824776D01*
X152112075Y-109824778D01*
X152112074Y-109824778D01*
X149395568Y-109824778D01*
X149462963Y-109723914D01*
X149466203Y-109716092D01*
X149524997Y-109574150D01*
X149524997Y-109574149D01*
X149534081Y-109552218D01*
X149538382Y-109541835D01*
X149558111Y-109442654D01*
X149576831Y-109348543D01*
X149576831Y-109151456D01*
X149538383Y-108958170D01*
X149538382Y-108958169D01*
X149538382Y-108958165D01*
X149534625Y-108949095D01*
X149462966Y-108776092D01*
X149462959Y-108776079D01*
X149353470Y-108612218D01*
X149353467Y-108612214D01*
X149214116Y-108472863D01*
X149214112Y-108472860D01*
X149050251Y-108363371D01*
X149050238Y-108363364D01*
X148868170Y-108287950D01*
X148868160Y-108287947D01*
X148674874Y-108249500D01*
X148674872Y-108249500D01*
X148477790Y-108249500D01*
X148477788Y-108249500D01*
X148284501Y-108287947D01*
X148284491Y-108287950D01*
X148102423Y-108363364D01*
X148102410Y-108363371D01*
X147938549Y-108472860D01*
X147938545Y-108472863D01*
X147799194Y-108612214D01*
X147799191Y-108612218D01*
X147689702Y-108776079D01*
X147689695Y-108776092D01*
X147614281Y-108958160D01*
X147614278Y-108958170D01*
X147575831Y-109151456D01*
X147575831Y-109151459D01*
X147575831Y-109348541D01*
X147575831Y-109348543D01*
X147575830Y-109348543D01*
X131006696Y-109348543D01*
X131006696Y-109335317D01*
X130973724Y-109169559D01*
X130973724Y-109169558D01*
X130968248Y-109142033D01*
X130968248Y-109142031D01*
X130968247Y-109142026D01*
X130955752Y-109111859D01*
X130892831Y-108959953D01*
X130892824Y-108959940D01*
X130783335Y-108796079D01*
X130783332Y-108796075D01*
X130643981Y-108656724D01*
X130643977Y-108656721D01*
X130480116Y-108547232D01*
X130480103Y-108547225D01*
X130298035Y-108471811D01*
X130298025Y-108471808D01*
X130104739Y-108433361D01*
X130104737Y-108433361D01*
X129907655Y-108433361D01*
X129907653Y-108433361D01*
X129714366Y-108471808D01*
X129714356Y-108471811D01*
X129532288Y-108547225D01*
X129532275Y-108547232D01*
X129368414Y-108656721D01*
X129368410Y-108656724D01*
X129229059Y-108796075D01*
X129229056Y-108796079D01*
X129119567Y-108959940D01*
X129119560Y-108959953D01*
X129044146Y-109142021D01*
X129044143Y-109142031D01*
X129005696Y-109335317D01*
X129005696Y-109335320D01*
X129005696Y-109532402D01*
X129005696Y-109532404D01*
X129005695Y-109532404D01*
X125489976Y-109532404D01*
X125489976Y-109397477D01*
X125481212Y-109353421D01*
X125481212Y-109353419D01*
X125470586Y-109300000D01*
X125462095Y-109257314D01*
X125407405Y-109125281D01*
X125407404Y-109125279D01*
X125407398Y-109125269D01*
X125365890Y-109063147D01*
X125345012Y-108996470D01*
X125363497Y-108929090D01*
X125400099Y-108891156D01*
X125434028Y-108868486D01*
X125478343Y-108802165D01*
X125478343Y-108802163D01*
X125478344Y-108802163D01*
X125489975Y-108743686D01*
X125489976Y-108743684D01*
X125489976Y-107654183D01*
X125489975Y-107654181D01*
X125478344Y-107595704D01*
X125478343Y-107595703D01*
X125434028Y-107529381D01*
X125367706Y-107485066D01*
X125367705Y-107485065D01*
X125309228Y-107473434D01*
X125309224Y-107473434D01*
X123769728Y-107473434D01*
X123769723Y-107473434D01*
X123711246Y-107485065D01*
X123711245Y-107485066D01*
X123644923Y-107529381D01*
X123600608Y-107595703D01*
X123600607Y-107595704D01*
X123588976Y-107654181D01*
X123588976Y-108743686D01*
X123600607Y-108802163D01*
X123600608Y-108802164D01*
X123644923Y-108868486D01*
X123678850Y-108891155D01*
X123723655Y-108944767D01*
X123732362Y-109014092D01*
X123713062Y-109063146D01*
X123671552Y-109125271D01*
X123671545Y-109125283D01*
X123616857Y-109257313D01*
X123616855Y-109257319D01*
X123588976Y-109397476D01*
X123588976Y-109397477D01*
X123588976Y-109397479D01*
X123588976Y-109540389D01*
X123588976Y-109540391D01*
X123588975Y-109540391D01*
X100637556Y-109540391D01*
X100638920Y-109538029D01*
X100664476Y-109442654D01*
X100664476Y-109343914D01*
X100638920Y-109248539D01*
X100589551Y-109163029D01*
X100569806Y-109143284D01*
X101664475Y-109143284D01*
X101664475Y-108993312D01*
X101664474Y-108993297D01*
X101653981Y-108890586D01*
X101598834Y-108724164D01*
X101598832Y-108724159D01*
X101506791Y-108574938D01*
X101382821Y-108450968D01*
X101233600Y-108358927D01*
X101233595Y-108358925D01*
X101067173Y-108303778D01*
X101067166Y-108303777D01*
X100964462Y-108293284D01*
X100539476Y-108293284D01*
X100539476Y-109112954D01*
X100519731Y-109093209D01*
X100434221Y-109043840D01*
X100338846Y-109018284D01*
X100240106Y-109018284D01*
X100144731Y-109043840D01*
X100059221Y-109093209D01*
X100039476Y-109112954D01*
X100039476Y-108293284D01*
X99614504Y-108293284D01*
X99614488Y-108293285D01*
X99511778Y-108303778D01*
X99345356Y-108358925D01*
X99345351Y-108358927D01*
X99196130Y-108450968D01*
X99072160Y-108574938D01*
X98980119Y-108724159D01*
X98980117Y-108724164D01*
X98924970Y-108890586D01*
X98924969Y-108890593D01*
X98914476Y-108993297D01*
X93500000Y-108993297D01*
X93500000Y-107897682D01*
X110140000Y-107897682D01*
X110140000Y-108102317D01*
X110172009Y-108304417D01*
X110235244Y-108499031D01*
X110328141Y-108681350D01*
X110328147Y-108681359D01*
X110360523Y-108725921D01*
X110360524Y-108725922D01*
X111040000Y-108046446D01*
X111040000Y-108052661D01*
X111067259Y-108154394D01*
X111119920Y-108245606D01*
X111194394Y-108320080D01*
X111285606Y-108372741D01*
X111387339Y-108400000D01*
X111393553Y-108400000D01*
X110714076Y-109079474D01*
X110758650Y-109111859D01*
X110940968Y-109204755D01*
X111135582Y-109267990D01*
X111337683Y-109300000D01*
X111542317Y-109300000D01*
X111744417Y-109267990D01*
X111939031Y-109204755D01*
X112121349Y-109111859D01*
X112165921Y-109079474D01*
X111486447Y-108400000D01*
X111492661Y-108400000D01*
X111594394Y-108372741D01*
X111685606Y-108320080D01*
X111760080Y-108245606D01*
X111812741Y-108154394D01*
X111840000Y-108052661D01*
X111840000Y-108046448D01*
X112519474Y-108725922D01*
X112519474Y-108725921D01*
X112551859Y-108681349D01*
X112644755Y-108499031D01*
X112707990Y-108304417D01*
X112740000Y-108102317D01*
X112740000Y-108098543D01*
X118059499Y-108098543D01*
X118097947Y-108291829D01*
X118097950Y-108291839D01*
X118173364Y-108473907D01*
X118173371Y-108473920D01*
X118282860Y-108637781D01*
X118282863Y-108637785D01*
X118422214Y-108777136D01*
X118422218Y-108777139D01*
X118586079Y-108886628D01*
X118586092Y-108886635D01*
X118763085Y-108959947D01*
X118768165Y-108962051D01*
X118768169Y-108962051D01*
X118768170Y-108962052D01*
X118961456Y-109000500D01*
X118961459Y-109000500D01*
X119158543Y-109000500D01*
X119288582Y-108974632D01*
X119351835Y-108962051D01*
X119492655Y-108903721D01*
X119533907Y-108886635D01*
X119533907Y-108886634D01*
X119533914Y-108886632D01*
X119697782Y-108777139D01*
X119837139Y-108637782D01*
X119946632Y-108473914D01*
X119947504Y-108471810D01*
X119994261Y-108358927D01*
X120022051Y-108291835D01*
X120050605Y-108148286D01*
X120060500Y-108098543D01*
X120060500Y-107901456D01*
X120022052Y-107708170D01*
X120022049Y-107708159D01*
X120016825Y-107695548D01*
X120016824Y-107695546D01*
X119946635Y-107526092D01*
X119946628Y-107526079D01*
X119837139Y-107362218D01*
X119837136Y-107362214D01*
X119697785Y-107222863D01*
X119697781Y-107222860D01*
X119533920Y-107113371D01*
X119533907Y-107113364D01*
X119351839Y-107037950D01*
X119351829Y-107037947D01*
X119158543Y-106999500D01*
X119158541Y-106999500D01*
X118961459Y-106999500D01*
X118961457Y-106999500D01*
X118768170Y-107037947D01*
X118768160Y-107037950D01*
X118586092Y-107113364D01*
X118586079Y-107113371D01*
X118422218Y-107222860D01*
X118422214Y-107222863D01*
X118282863Y-107362214D01*
X118282860Y-107362218D01*
X118173371Y-107526079D01*
X118173364Y-107526092D01*
X118097950Y-107708160D01*
X118097947Y-107708170D01*
X118059500Y-107901456D01*
X118059500Y-107901459D01*
X118059500Y-108098541D01*
X118059500Y-108098543D01*
X118059499Y-108098543D01*
X112740000Y-108098543D01*
X112740000Y-107897682D01*
X112707990Y-107695582D01*
X112644755Y-107500968D01*
X112551859Y-107318650D01*
X112519474Y-107274077D01*
X112519474Y-107274076D01*
X111840000Y-107953551D01*
X111840000Y-107947339D01*
X111812741Y-107845606D01*
X111760080Y-107754394D01*
X111685606Y-107679920D01*
X111594394Y-107627259D01*
X111492661Y-107600000D01*
X111486446Y-107600000D01*
X112165922Y-106920524D01*
X112165921Y-106920523D01*
X112121359Y-106888147D01*
X112121350Y-106888141D01*
X111939031Y-106795244D01*
X111744417Y-106732009D01*
X111542317Y-106700000D01*
X111337683Y-106700000D01*
X111135582Y-106732009D01*
X110940968Y-106795244D01*
X110758644Y-106888143D01*
X110714077Y-106920523D01*
X110714077Y-106920524D01*
X111393554Y-107600000D01*
X111387339Y-107600000D01*
X111285606Y-107627259D01*
X111194394Y-107679920D01*
X111119920Y-107754394D01*
X111067259Y-107845606D01*
X111040000Y-107947339D01*
X111040000Y-107953553D01*
X110360524Y-107274077D01*
X110360523Y-107274077D01*
X110328143Y-107318644D01*
X110235244Y-107500968D01*
X110172009Y-107695582D01*
X110140000Y-107897682D01*
X93500000Y-107897682D01*
X93500000Y-106337477D01*
X141228975Y-106337477D01*
X141267423Y-106530763D01*
X141267426Y-106530773D01*
X141342840Y-106712841D01*
X141342847Y-106712854D01*
X141452336Y-106876715D01*
X141452339Y-106876719D01*
X141591690Y-107016070D01*
X141591694Y-107016073D01*
X141755555Y-107125562D01*
X141755568Y-107125569D01*
X141937636Y-107200983D01*
X141937641Y-107200985D01*
X141937645Y-107200985D01*
X141937646Y-107200986D01*
X142130932Y-107239434D01*
X142130935Y-107239434D01*
X142328019Y-107239434D01*
X142458058Y-107213566D01*
X142521311Y-107200985D01*
X142703390Y-107125566D01*
X142867258Y-107016073D01*
X143006615Y-106876716D01*
X143116108Y-106712848D01*
X143191527Y-106530769D01*
X143204108Y-106467516D01*
X143229976Y-106337477D01*
X148848975Y-106337477D01*
X148887423Y-106530763D01*
X148887426Y-106530773D01*
X148962840Y-106712841D01*
X148962847Y-106712854D01*
X149072336Y-106876715D01*
X149072339Y-106876719D01*
X149211690Y-107016070D01*
X149211694Y-107016073D01*
X149375555Y-107125562D01*
X149375568Y-107125569D01*
X149557636Y-107200983D01*
X149557641Y-107200985D01*
X149557645Y-107200985D01*
X149557646Y-107200986D01*
X149750932Y-107239434D01*
X149750935Y-107239434D01*
X149948019Y-107239434D01*
X150078058Y-107213566D01*
X150141311Y-107200985D01*
X150323390Y-107125566D01*
X150487258Y-107016073D01*
X150626615Y-106876716D01*
X150736108Y-106712848D01*
X150790321Y-106581965D01*
X152112075Y-106581965D01*
X152112075Y-107790504D01*
X152114928Y-107820934D01*
X152114928Y-107820936D01*
X152159160Y-107947339D01*
X152159782Y-107949117D01*
X152240425Y-108058385D01*
X152349693Y-108139028D01*
X152376151Y-108148286D01*
X152477874Y-108183881D01*
X152508305Y-108186735D01*
X152508309Y-108186735D01*
X153716845Y-108186735D01*
X153747274Y-108183881D01*
X153747276Y-108183881D01*
X153831543Y-108154394D01*
X153875457Y-108139028D01*
X153984725Y-108058385D01*
X154065368Y-107949117D01*
X154101588Y-107845606D01*
X154110221Y-107820936D01*
X154110221Y-107820934D01*
X154113075Y-107790504D01*
X154113075Y-106581965D01*
X154110221Y-106551535D01*
X154110221Y-106551533D01*
X154065368Y-106423354D01*
X154065367Y-106423352D01*
X154054845Y-106409095D01*
X153984725Y-106314085D01*
X153875457Y-106233442D01*
X153875455Y-106233441D01*
X153747275Y-106188588D01*
X153716845Y-106185735D01*
X153716841Y-106185735D01*
X152508309Y-106185735D01*
X152508305Y-106185735D01*
X152477875Y-106188588D01*
X152477873Y-106188588D01*
X152349694Y-106233441D01*
X152349692Y-106233442D01*
X152240425Y-106314085D01*
X152159782Y-106423352D01*
X152159781Y-106423354D01*
X152114928Y-106551533D01*
X152114928Y-106551535D01*
X152112075Y-106581965D01*
X150790321Y-106581965D01*
X150811527Y-106530769D01*
X150824108Y-106467516D01*
X150849976Y-106337477D01*
X150849976Y-106140390D01*
X150811528Y-105947104D01*
X150811527Y-105947103D01*
X150811527Y-105947099D01*
X150811525Y-105947094D01*
X150736111Y-105765026D01*
X150736104Y-105765013D01*
X150626615Y-105601152D01*
X150626612Y-105601148D01*
X150487261Y-105461797D01*
X150487257Y-105461794D01*
X150323396Y-105352305D01*
X150323383Y-105352298D01*
X150141315Y-105276884D01*
X150141305Y-105276881D01*
X149948019Y-105238434D01*
X149948017Y-105238434D01*
X149750935Y-105238434D01*
X149750933Y-105238434D01*
X149557646Y-105276881D01*
X149557636Y-105276884D01*
X149375568Y-105352298D01*
X149375555Y-105352305D01*
X149211694Y-105461794D01*
X149211690Y-105461797D01*
X149072339Y-105601148D01*
X149072336Y-105601152D01*
X148962847Y-105765013D01*
X148962840Y-105765026D01*
X148887426Y-105947094D01*
X148887423Y-105947104D01*
X148848976Y-106140390D01*
X148848976Y-106140393D01*
X148848976Y-106337475D01*
X148848976Y-106337477D01*
X148848975Y-106337477D01*
X143229976Y-106337477D01*
X143229976Y-106140390D01*
X143191528Y-105947104D01*
X143191527Y-105947103D01*
X143191527Y-105947099D01*
X143191525Y-105947094D01*
X143116111Y-105765026D01*
X143116104Y-105765013D01*
X143006615Y-105601152D01*
X143006612Y-105601148D01*
X142867261Y-105461797D01*
X142867257Y-105461794D01*
X142703396Y-105352305D01*
X142703383Y-105352298D01*
X142521315Y-105276884D01*
X142521305Y-105276881D01*
X142328019Y-105238434D01*
X142328017Y-105238434D01*
X142130935Y-105238434D01*
X142130933Y-105238434D01*
X141937646Y-105276881D01*
X141937636Y-105276884D01*
X141755568Y-105352298D01*
X141755555Y-105352305D01*
X141591694Y-105461794D01*
X141591690Y-105461797D01*
X141452339Y-105601148D01*
X141452336Y-105601152D01*
X141342847Y-105765013D01*
X141342840Y-105765026D01*
X141267426Y-105947094D01*
X141267423Y-105947104D01*
X141228976Y-106140390D01*
X141228976Y-106140393D01*
X141228976Y-106337475D01*
X141228976Y-106337477D01*
X141228975Y-106337477D01*
X93500000Y-106337477D01*
X93500000Y-105278726D01*
X123619912Y-105278726D01*
X123658360Y-105472012D01*
X123658363Y-105472022D01*
X123733777Y-105654090D01*
X123733784Y-105654103D01*
X123843273Y-105817964D01*
X123843276Y-105817968D01*
X123982627Y-105957319D01*
X123982631Y-105957322D01*
X124146492Y-106066811D01*
X124146505Y-106066818D01*
X124324126Y-106140390D01*
X124328578Y-106142234D01*
X124328582Y-106142234D01*
X124328583Y-106142235D01*
X124521869Y-106180683D01*
X124521872Y-106180683D01*
X124718956Y-106180683D01*
X124848995Y-106154815D01*
X124912248Y-106142234D01*
X125094327Y-106066815D01*
X125094333Y-106066811D01*
X125147631Y-106031199D01*
X125198167Y-105997430D01*
X125258195Y-105957322D01*
X125397552Y-105817965D01*
X125507045Y-105654097D01*
X125582464Y-105472018D01*
X125620913Y-105278724D01*
X125620913Y-105081642D01*
X125620913Y-105081639D01*
X125582465Y-104888353D01*
X125582464Y-104888352D01*
X125582464Y-104888348D01*
X125520829Y-104739546D01*
X125507048Y-104706275D01*
X125507041Y-104706262D01*
X125397552Y-104542401D01*
X125397549Y-104542397D01*
X125258198Y-104403046D01*
X125258194Y-104403043D01*
X125154900Y-104334024D01*
X125094333Y-104293554D01*
X125094320Y-104293547D01*
X124950117Y-104233817D01*
X128030537Y-104233817D01*
X128030537Y-105442356D01*
X128033390Y-105472786D01*
X128033390Y-105472788D01*
X128078243Y-105600967D01*
X128078244Y-105600969D01*
X128158887Y-105710237D01*
X128268155Y-105790880D01*
X128294613Y-105800138D01*
X128396336Y-105835733D01*
X128426767Y-105838587D01*
X128426771Y-105838587D01*
X129635307Y-105838587D01*
X129665736Y-105835733D01*
X129665738Y-105835733D01*
X129729827Y-105813306D01*
X129793919Y-105790880D01*
X129903187Y-105710237D01*
X129983830Y-105600969D01*
X130024219Y-105485544D01*
X130028683Y-105472788D01*
X130028683Y-105472786D01*
X130031537Y-105442356D01*
X130031537Y-104936630D01*
X130530536Y-104936630D01*
X130568984Y-105129916D01*
X130568987Y-105129926D01*
X130644401Y-105311994D01*
X130644408Y-105312007D01*
X130753897Y-105475868D01*
X130753900Y-105475872D01*
X130893251Y-105615223D01*
X130893255Y-105615226D01*
X131057116Y-105724715D01*
X131057129Y-105724722D01*
X131216851Y-105790880D01*
X131239202Y-105800138D01*
X131239206Y-105800138D01*
X131239207Y-105800139D01*
X131432493Y-105838587D01*
X131432496Y-105838587D01*
X131629580Y-105838587D01*
X131759619Y-105812719D01*
X131822872Y-105800138D01*
X132004951Y-105724719D01*
X132168819Y-105615226D01*
X132308176Y-105475869D01*
X132417669Y-105312001D01*
X132493088Y-105129922D01*
X132531537Y-104936628D01*
X132531537Y-104739546D01*
X132531537Y-104739543D01*
X132493089Y-104546257D01*
X132493088Y-104546256D01*
X132493088Y-104546252D01*
X132483031Y-104521971D01*
X132417672Y-104364179D01*
X132417665Y-104364166D01*
X132308176Y-104200305D01*
X132308173Y-104200301D01*
X132168822Y-104060950D01*
X132168818Y-104060947D01*
X132004957Y-103951458D01*
X132004944Y-103951451D01*
X131822876Y-103876037D01*
X131822866Y-103876034D01*
X131629580Y-103837587D01*
X131629578Y-103837587D01*
X131432496Y-103837587D01*
X131432494Y-103837587D01*
X131239207Y-103876034D01*
X131239197Y-103876037D01*
X131057129Y-103951451D01*
X131057116Y-103951458D01*
X130893255Y-104060947D01*
X130893251Y-104060950D01*
X130753900Y-104200301D01*
X130753897Y-104200305D01*
X130644408Y-104364166D01*
X130644401Y-104364179D01*
X130568987Y-104546247D01*
X130568984Y-104546257D01*
X130530537Y-104739543D01*
X130530537Y-104739546D01*
X130530537Y-104936628D01*
X130530537Y-104936630D01*
X130530536Y-104936630D01*
X130031537Y-104936630D01*
X130031537Y-104233817D01*
X130028683Y-104203387D01*
X130028683Y-104203385D01*
X129983830Y-104075206D01*
X129983829Y-104075204D01*
X129973307Y-104060947D01*
X129903187Y-103965937D01*
X129793919Y-103885294D01*
X129793917Y-103885293D01*
X129665737Y-103840440D01*
X129635307Y-103837587D01*
X129635303Y-103837587D01*
X128426771Y-103837587D01*
X128426767Y-103837587D01*
X128396337Y-103840440D01*
X128396335Y-103840440D01*
X128268156Y-103885293D01*
X128268154Y-103885294D01*
X128158887Y-103965937D01*
X128078244Y-104075204D01*
X128078243Y-104075206D01*
X128033390Y-104203385D01*
X128033390Y-104203387D01*
X128030537Y-104233817D01*
X124950117Y-104233817D01*
X124912252Y-104218133D01*
X124912242Y-104218130D01*
X124718956Y-104179683D01*
X124718954Y-104179683D01*
X124521872Y-104179683D01*
X124521870Y-104179683D01*
X124328583Y-104218130D01*
X124328573Y-104218133D01*
X124146505Y-104293547D01*
X124146492Y-104293554D01*
X123982631Y-104403043D01*
X123982627Y-104403046D01*
X123843276Y-104542397D01*
X123843273Y-104542401D01*
X123733784Y-104706262D01*
X123733777Y-104706275D01*
X123658363Y-104888343D01*
X123658360Y-104888353D01*
X123619913Y-105081639D01*
X123619913Y-105081642D01*
X123619913Y-105278724D01*
X123619913Y-105278726D01*
X123619912Y-105278726D01*
X93500000Y-105278726D01*
X93500000Y-102514270D01*
X113250000Y-102514270D01*
X113250000Y-102750375D01*
X113286934Y-102983570D01*
X113359897Y-103208125D01*
X113467087Y-103418497D01*
X113527338Y-103501427D01*
X113527340Y-103501428D01*
X114267037Y-102761731D01*
X114284075Y-102825316D01*
X114349901Y-102939330D01*
X114442993Y-103032422D01*
X114557007Y-103098248D01*
X114620590Y-103115285D01*
X113880893Y-103854981D01*
X113963828Y-103915237D01*
X114174197Y-104022425D01*
X114398752Y-104095388D01*
X114398751Y-104095388D01*
X114631948Y-104132323D01*
X114868052Y-104132323D01*
X115101247Y-104095388D01*
X115325802Y-104022425D01*
X115536163Y-103915241D01*
X115536169Y-103915237D01*
X115619104Y-103854981D01*
X115619105Y-103854981D01*
X114879408Y-103115285D01*
X114942993Y-103098248D01*
X115057007Y-103032422D01*
X115150099Y-102939330D01*
X115215925Y-102825316D01*
X115232962Y-102761732D01*
X115972658Y-103501428D01*
X115972658Y-103501427D01*
X116032914Y-103418492D01*
X116032918Y-103418486D01*
X116140102Y-103208125D01*
X116175708Y-103098543D01*
X148999499Y-103098543D01*
X149037947Y-103291829D01*
X149037950Y-103291839D01*
X149113364Y-103473907D01*
X149113371Y-103473920D01*
X149222860Y-103637781D01*
X149222863Y-103637785D01*
X149362214Y-103777136D01*
X149362218Y-103777139D01*
X149526079Y-103886628D01*
X149526092Y-103886635D01*
X149682591Y-103951458D01*
X149708165Y-103962051D01*
X149708169Y-103962051D01*
X149708170Y-103962052D01*
X149901456Y-104000500D01*
X149901459Y-104000500D01*
X150098543Y-104000500D01*
X150242080Y-103971948D01*
X150291835Y-103962051D01*
X150473914Y-103886632D01*
X150637782Y-103777139D01*
X150777139Y-103637782D01*
X150886632Y-103473914D01*
X150962051Y-103291835D01*
X150988047Y-103161145D01*
X151000500Y-103098543D01*
X151000500Y-102901456D01*
X150962052Y-102708170D01*
X150962051Y-102708169D01*
X150962051Y-102708165D01*
X150959604Y-102702257D01*
X150886635Y-102526092D01*
X150886628Y-102526079D01*
X150777139Y-102362218D01*
X150777136Y-102362214D01*
X150637785Y-102222863D01*
X150637781Y-102222860D01*
X150473920Y-102113371D01*
X150473907Y-102113364D01*
X150291839Y-102037950D01*
X150291829Y-102037947D01*
X150098543Y-101999500D01*
X150098541Y-101999500D01*
X149901459Y-101999500D01*
X149901457Y-101999500D01*
X149708170Y-102037947D01*
X149708160Y-102037950D01*
X149526092Y-102113364D01*
X149526079Y-102113371D01*
X149362218Y-102222860D01*
X149362214Y-102222863D01*
X149222863Y-102362214D01*
X149222860Y-102362218D01*
X149113371Y-102526079D01*
X149113364Y-102526092D01*
X149037950Y-102708160D01*
X149037947Y-102708170D01*
X148999500Y-102901456D01*
X148999500Y-102901459D01*
X148999500Y-103098541D01*
X148999500Y-103098543D01*
X148999499Y-103098543D01*
X116175708Y-103098543D01*
X116213065Y-102983570D01*
X116230108Y-102875969D01*
X116250000Y-102750375D01*
X116250000Y-102514270D01*
X116213065Y-102281075D01*
X116140102Y-102056520D01*
X116032914Y-101846151D01*
X115972658Y-101763217D01*
X115972658Y-101763216D01*
X115232962Y-102502913D01*
X115215925Y-102439330D01*
X115150099Y-102325316D01*
X115057007Y-102232224D01*
X114942993Y-102166398D01*
X114879409Y-102149360D01*
X115619105Y-101409663D01*
X115619104Y-101409661D01*
X115536174Y-101349410D01*
X115325802Y-101242220D01*
X115101247Y-101169257D01*
X115101248Y-101169257D01*
X114868052Y-101132323D01*
X114631948Y-101132323D01*
X114398752Y-101169257D01*
X114174197Y-101242220D01*
X113963830Y-101349407D01*
X113880894Y-101409663D01*
X114620591Y-102149360D01*
X114557007Y-102166398D01*
X114442993Y-102232224D01*
X114349901Y-102325316D01*
X114284075Y-102439330D01*
X114267037Y-102502914D01*
X113527340Y-101763217D01*
X113467084Y-101846153D01*
X113359897Y-102056520D01*
X113286934Y-102281075D01*
X113250000Y-102514270D01*
X93500000Y-102514270D01*
X93500000Y-96828053D01*
X113549500Y-96828053D01*
X113549500Y-98436592D01*
X113552353Y-98467022D01*
X113552353Y-98467024D01*
X113585127Y-98560683D01*
X113597207Y-98595205D01*
X113677850Y-98704473D01*
X113787118Y-98785116D01*
X113829845Y-98800067D01*
X113915299Y-98829969D01*
X113945730Y-98832823D01*
X113945734Y-98832823D01*
X115554270Y-98832823D01*
X115584699Y-98829969D01*
X115584701Y-98829969D01*
X115648790Y-98807542D01*
X115712882Y-98785116D01*
X115822150Y-98704473D01*
X115902793Y-98595205D01*
X115937697Y-98495456D01*
X115947646Y-98467024D01*
X115947646Y-98467022D01*
X115950500Y-98436592D01*
X115950500Y-97658726D01*
X123619912Y-97658726D01*
X123658360Y-97852012D01*
X123658363Y-97852022D01*
X123733777Y-98034090D01*
X123733784Y-98034103D01*
X123843273Y-98197964D01*
X123843276Y-98197968D01*
X123982627Y-98337319D01*
X123982631Y-98337322D01*
X124146492Y-98446811D01*
X124146505Y-98446818D01*
X124310935Y-98514926D01*
X124328578Y-98522234D01*
X124328582Y-98522234D01*
X124328583Y-98522235D01*
X124521869Y-98560683D01*
X124720316Y-98560683D01*
X124787355Y-98580368D01*
X124807997Y-98597002D01*
X126325369Y-100114374D01*
X126325379Y-100114385D01*
X126329709Y-100118715D01*
X126329710Y-100118716D01*
X126441514Y-100230520D01*
X126460221Y-100241320D01*
X126528325Y-100280639D01*
X126528327Y-100280641D01*
X126566381Y-100302611D01*
X126578445Y-100309577D01*
X126731173Y-100350501D01*
X126731176Y-100350501D01*
X126896883Y-100350501D01*
X126896899Y-100350500D01*
X150166841Y-100350500D01*
X150233880Y-100370185D01*
X150254522Y-100386819D01*
X157418312Y-107550609D01*
X157418322Y-107550620D01*
X157422652Y-107554950D01*
X157422653Y-107554951D01*
X157534457Y-107666755D01*
X157534459Y-107666756D01*
X157534463Y-107666759D01*
X157671382Y-107745808D01*
X157671389Y-107745812D01*
X157783192Y-107775769D01*
X157824115Y-107786735D01*
X157824116Y-107786735D01*
X159866791Y-107786735D01*
X159933830Y-107806420D01*
X159954472Y-107823054D01*
X160094789Y-107963371D01*
X160094793Y-107963374D01*
X160258654Y-108072863D01*
X160258667Y-108072870D01*
X160418389Y-108139028D01*
X160440740Y-108148286D01*
X160440744Y-108148286D01*
X160440745Y-108148287D01*
X160634031Y-108186735D01*
X160634034Y-108186735D01*
X160831118Y-108186735D01*
X160993703Y-108154394D01*
X161024410Y-108148286D01*
X161206489Y-108072867D01*
X161370357Y-107963374D01*
X161509714Y-107824017D01*
X161619207Y-107660149D01*
X161694626Y-107478070D01*
X161717671Y-107362218D01*
X161733075Y-107284778D01*
X161733075Y-107087691D01*
X161694627Y-106894405D01*
X161694626Y-106894404D01*
X161694626Y-106894400D01*
X161692034Y-106888143D01*
X161619210Y-106712327D01*
X161619203Y-106712314D01*
X161509714Y-106548453D01*
X161509711Y-106548449D01*
X161370360Y-106409098D01*
X161370356Y-106409095D01*
X161206495Y-106299606D01*
X161206482Y-106299599D01*
X161024414Y-106224185D01*
X161024404Y-106224182D01*
X160831118Y-106185735D01*
X160831116Y-106185735D01*
X160634034Y-106185735D01*
X160634032Y-106185735D01*
X160440745Y-106224182D01*
X160440735Y-106224185D01*
X160258667Y-106299599D01*
X160258654Y-106299606D01*
X160094793Y-106409095D01*
X160094789Y-106409098D01*
X159954472Y-106549416D01*
X159893149Y-106582901D01*
X159866791Y-106585735D01*
X158203270Y-106585735D01*
X158136231Y-106566050D01*
X158115589Y-106549416D01*
X155681409Y-104115236D01*
X164522646Y-104115236D01*
X164522646Y-104319871D01*
X164554655Y-104521971D01*
X164617890Y-104716585D01*
X164710787Y-104898904D01*
X164710793Y-104898913D01*
X164743169Y-104943475D01*
X164743170Y-104943476D01*
X165422646Y-104264000D01*
X165422646Y-104270215D01*
X165449905Y-104371948D01*
X165502566Y-104463160D01*
X165577040Y-104537634D01*
X165668252Y-104590295D01*
X165769985Y-104617554D01*
X165776199Y-104617554D01*
X165096722Y-105297028D01*
X165141296Y-105329413D01*
X165323614Y-105422309D01*
X165518228Y-105485544D01*
X165720329Y-105517554D01*
X165924963Y-105517554D01*
X166127063Y-105485544D01*
X166321677Y-105422309D01*
X166503995Y-105329413D01*
X166548567Y-105297028D01*
X165869093Y-104617554D01*
X165875307Y-104617554D01*
X165977040Y-104590295D01*
X166068252Y-104537634D01*
X166142726Y-104463160D01*
X166195387Y-104371948D01*
X166222646Y-104270215D01*
X166222646Y-104264001D01*
X166902120Y-104943475D01*
X166934505Y-104898903D01*
X167027401Y-104716585D01*
X167079329Y-104556772D01*
X167079329Y-104556771D01*
X167090635Y-104521975D01*
X167090635Y-104521972D01*
X167122646Y-104319871D01*
X167122646Y-104115236D01*
X167090636Y-103913136D01*
X167027401Y-103718522D01*
X166934505Y-103536204D01*
X166902120Y-103491631D01*
X166902120Y-103491630D01*
X166222646Y-104171105D01*
X166222646Y-104164893D01*
X166195387Y-104063160D01*
X166142726Y-103971948D01*
X166068252Y-103897474D01*
X165977040Y-103844813D01*
X165875307Y-103817554D01*
X165869092Y-103817554D01*
X166548568Y-103138078D01*
X166548567Y-103138077D01*
X166504005Y-103105701D01*
X166503996Y-103105695D01*
X166321677Y-103012798D01*
X166127063Y-102949563D01*
X165924963Y-102917554D01*
X165720329Y-102917554D01*
X165518228Y-102949563D01*
X165323614Y-103012798D01*
X165141290Y-103105697D01*
X165096723Y-103138077D01*
X165096723Y-103138078D01*
X165776200Y-103817554D01*
X165769985Y-103817554D01*
X165668252Y-103844813D01*
X165577040Y-103897474D01*
X165502566Y-103971948D01*
X165449905Y-104063160D01*
X165422646Y-104164893D01*
X165422646Y-104171107D01*
X164743170Y-103491631D01*
X164743169Y-103491631D01*
X164710789Y-103536198D01*
X164617890Y-103718522D01*
X164554655Y-103913136D01*
X164522646Y-104115236D01*
X155681409Y-104115236D01*
X154664716Y-103098543D01*
X156619499Y-103098543D01*
X156657947Y-103291829D01*
X156657950Y-103291839D01*
X156733364Y-103473907D01*
X156733371Y-103473920D01*
X156842860Y-103637781D01*
X156842863Y-103637785D01*
X156982214Y-103777136D01*
X156982218Y-103777139D01*
X157146079Y-103886628D01*
X157146092Y-103886635D01*
X157302591Y-103951458D01*
X157328165Y-103962051D01*
X157328169Y-103962051D01*
X157328170Y-103962052D01*
X157521456Y-104000500D01*
X157521459Y-104000500D01*
X157718543Y-104000500D01*
X157718544Y-104000499D01*
X157738384Y-103996553D01*
X157777594Y-103988754D01*
X157777599Y-103988753D01*
X157892299Y-103965937D01*
X157911835Y-103962051D01*
X158093914Y-103886632D01*
X158257782Y-103777139D01*
X158397139Y-103637782D01*
X158506632Y-103473914D01*
X158582051Y-103291835D01*
X158586872Y-103267598D01*
X158608048Y-103161145D01*
X158608048Y-103161144D01*
X158619076Y-103105701D01*
X158620500Y-103098541D01*
X158620500Y-102901459D01*
X158620500Y-102901456D01*
X158582052Y-102708170D01*
X158582051Y-102708169D01*
X158582051Y-102708165D01*
X158537222Y-102599938D01*
X170863093Y-102599938D01*
X170863093Y-102804573D01*
X170895102Y-103006673D01*
X170958337Y-103201287D01*
X171051234Y-103383606D01*
X171051240Y-103383615D01*
X171083616Y-103428177D01*
X171083617Y-103428178D01*
X171763093Y-102748702D01*
X171763093Y-102754917D01*
X171790352Y-102856650D01*
X171843013Y-102947862D01*
X171917487Y-103022336D01*
X172008699Y-103074997D01*
X172110432Y-103102256D01*
X172116646Y-103102256D01*
X171437169Y-103781730D01*
X171481743Y-103814115D01*
X171664061Y-103907011D01*
X171826603Y-103959825D01*
X171884278Y-103999263D01*
X171911476Y-104063622D01*
X171899561Y-104132468D01*
X171852317Y-104183944D01*
X171788284Y-104201756D01*
X171558823Y-104201756D01*
X171528393Y-104204609D01*
X171528391Y-104204609D01*
X171400212Y-104249462D01*
X171400210Y-104249463D01*
X171290943Y-104330106D01*
X171210300Y-104439373D01*
X171210299Y-104439375D01*
X171165446Y-104567554D01*
X171165446Y-104567556D01*
X171162593Y-104597986D01*
X171162593Y-105806525D01*
X171165446Y-105836955D01*
X171165446Y-105836957D01*
X171207564Y-105957319D01*
X171210300Y-105965138D01*
X171290943Y-106074406D01*
X171400211Y-106155049D01*
X171442938Y-106170000D01*
X171528392Y-106199902D01*
X171558823Y-106202756D01*
X171558827Y-106202756D01*
X172767363Y-106202756D01*
X172797792Y-106199902D01*
X172797794Y-106199902D01*
X172861883Y-106177475D01*
X172925975Y-106155049D01*
X173035243Y-106074406D01*
X173115886Y-105965138D01*
X173138312Y-105901046D01*
X173160739Y-105836957D01*
X173160739Y-105836955D01*
X173163593Y-105806525D01*
X173163593Y-104597986D01*
X173160739Y-104567556D01*
X173160739Y-104567554D01*
X173115886Y-104439375D01*
X173115885Y-104439373D01*
X173035243Y-104330106D01*
X172925975Y-104249463D01*
X172925973Y-104249462D01*
X172797793Y-104204609D01*
X172767363Y-104201756D01*
X172767359Y-104201756D01*
X172537902Y-104201756D01*
X172470863Y-104182071D01*
X172425108Y-104129267D01*
X172415164Y-104060109D01*
X172444189Y-103996553D01*
X172499583Y-103959825D01*
X172662124Y-103907011D01*
X172844442Y-103814115D01*
X172889014Y-103781730D01*
X172209540Y-103102256D01*
X172215754Y-103102256D01*
X172317487Y-103074997D01*
X172408699Y-103022336D01*
X172483173Y-102947862D01*
X172535834Y-102856650D01*
X172563093Y-102754917D01*
X172563093Y-102748703D01*
X173242567Y-103428177D01*
X173274952Y-103383605D01*
X173367848Y-103201287D01*
X173431083Y-103006673D01*
X173463093Y-102804573D01*
X173463093Y-102599938D01*
X173431083Y-102397838D01*
X173367848Y-102203224D01*
X173274952Y-102020906D01*
X173242567Y-101976333D01*
X173242567Y-101976332D01*
X172563093Y-102655807D01*
X172563093Y-102649595D01*
X172535834Y-102547862D01*
X172483173Y-102456650D01*
X172408699Y-102382176D01*
X172317487Y-102329515D01*
X172215754Y-102302256D01*
X172209539Y-102302256D01*
X172889015Y-101622780D01*
X172889014Y-101622779D01*
X172844452Y-101590403D01*
X172844443Y-101590397D01*
X172662124Y-101497500D01*
X172467510Y-101434265D01*
X172265410Y-101402256D01*
X172060776Y-101402256D01*
X171858675Y-101434265D01*
X171664061Y-101497500D01*
X171481737Y-101590399D01*
X171437170Y-101622779D01*
X171437170Y-101622780D01*
X172116647Y-102302256D01*
X172110432Y-102302256D01*
X172008699Y-102329515D01*
X171917487Y-102382176D01*
X171843013Y-102456650D01*
X171790352Y-102547862D01*
X171763093Y-102649595D01*
X171763093Y-102655809D01*
X171083617Y-101976333D01*
X171083616Y-101976333D01*
X171051236Y-102020900D01*
X170958337Y-102203224D01*
X170895102Y-102397838D01*
X170863093Y-102599938D01*
X158537222Y-102599938D01*
X158515652Y-102547862D01*
X158506635Y-102526092D01*
X158506628Y-102526079D01*
X158397139Y-102362218D01*
X158397136Y-102362214D01*
X158257785Y-102222863D01*
X158257781Y-102222860D01*
X158093920Y-102113371D01*
X158093907Y-102113364D01*
X157911839Y-102037950D01*
X157911829Y-102037947D01*
X157718543Y-101999500D01*
X157718541Y-101999500D01*
X157521459Y-101999500D01*
X157521457Y-101999500D01*
X157328170Y-102037947D01*
X157328160Y-102037950D01*
X157146092Y-102113364D01*
X157146079Y-102113371D01*
X156982218Y-102222860D01*
X156982214Y-102222863D01*
X156842863Y-102362214D01*
X156842860Y-102362218D01*
X156733371Y-102526079D01*
X156733364Y-102526092D01*
X156657950Y-102708160D01*
X156657947Y-102708170D01*
X156619500Y-102901456D01*
X156619500Y-102901459D01*
X156619500Y-103098541D01*
X156619500Y-103098543D01*
X156619499Y-103098543D01*
X154664716Y-103098543D01*
X152075373Y-100509200D01*
X161151609Y-100509200D01*
X161151609Y-101717739D01*
X161154462Y-101748169D01*
X161154462Y-101748171D01*
X161199315Y-101876350D01*
X161199316Y-101876352D01*
X161279959Y-101985620D01*
X161389227Y-102066263D01*
X161431954Y-102081214D01*
X161517408Y-102111116D01*
X161547839Y-102113970D01*
X161547843Y-102113970D01*
X162756379Y-102113970D01*
X162786808Y-102111116D01*
X162786810Y-102111116D01*
X162850899Y-102088689D01*
X162914991Y-102066263D01*
X163024259Y-101985620D01*
X163104902Y-101876352D01*
X163127328Y-101812260D01*
X163149755Y-101748171D01*
X163149755Y-101748169D01*
X163152609Y-101717739D01*
X163152609Y-100509200D01*
X163149755Y-100478770D01*
X163149755Y-100478768D01*
X163104902Y-100350589D01*
X163104901Y-100350587D01*
X163104837Y-100350500D01*
X163024259Y-100241320D01*
X162914991Y-100160677D01*
X162914989Y-100160676D01*
X162786809Y-100115823D01*
X162756379Y-100112970D01*
X162756375Y-100112970D01*
X161547843Y-100112970D01*
X161547839Y-100112970D01*
X161517409Y-100115823D01*
X161517407Y-100115823D01*
X161389228Y-100160676D01*
X161389226Y-100160677D01*
X161279959Y-100241320D01*
X161199316Y-100350587D01*
X161199315Y-100350589D01*
X161154462Y-100478768D01*
X161154462Y-100478770D01*
X161151609Y-100509200D01*
X152075373Y-100509200D01*
X150954528Y-99388355D01*
X150954526Y-99388352D01*
X150835655Y-99269481D01*
X150835654Y-99269480D01*
X150748842Y-99219360D01*
X150748842Y-99219359D01*
X150748838Y-99219358D01*
X150698723Y-99190423D01*
X150545995Y-99149499D01*
X150387881Y-99149499D01*
X150380285Y-99149499D01*
X150380269Y-99149500D01*
X127110327Y-99149500D01*
X127043288Y-99129815D01*
X127022646Y-99113181D01*
X125657232Y-97747767D01*
X125623747Y-97686444D01*
X125620913Y-97660086D01*
X125620913Y-97461639D01*
X125584341Y-97277784D01*
X125584340Y-97277781D01*
X125582464Y-97268348D01*
X125577551Y-97256487D01*
X150815535Y-97256487D01*
X150815535Y-98465026D01*
X150818388Y-98495456D01*
X150818388Y-98495458D01*
X150853921Y-98597002D01*
X150863242Y-98623639D01*
X150943885Y-98732907D01*
X151053153Y-98813550D01*
X151079611Y-98822808D01*
X151181334Y-98858403D01*
X151211765Y-98861257D01*
X151211769Y-98861257D01*
X152420305Y-98861257D01*
X152450734Y-98858403D01*
X152450736Y-98858403D01*
X152514825Y-98835976D01*
X152578917Y-98813550D01*
X152688185Y-98732907D01*
X152768828Y-98623639D01*
X152804312Y-98522232D01*
X152813681Y-98495458D01*
X152813681Y-98495456D01*
X152816535Y-98465026D01*
X152816535Y-97959300D01*
X153315534Y-97959300D01*
X153353982Y-98152586D01*
X153353985Y-98152596D01*
X153429399Y-98334664D01*
X153429406Y-98334677D01*
X153538895Y-98498538D01*
X153538898Y-98498542D01*
X153678249Y-98637893D01*
X153678253Y-98637896D01*
X153842114Y-98747385D01*
X153842127Y-98747392D01*
X154001849Y-98813550D01*
X154024200Y-98822808D01*
X154024204Y-98822808D01*
X154024205Y-98822809D01*
X154217491Y-98861257D01*
X154217494Y-98861257D01*
X154414578Y-98861257D01*
X154557522Y-98832823D01*
X154607870Y-98822808D01*
X154789949Y-98747389D01*
X154842893Y-98712013D01*
X161151608Y-98712013D01*
X161190056Y-98905299D01*
X161190059Y-98905309D01*
X161265473Y-99087377D01*
X161265480Y-99087390D01*
X161374969Y-99251251D01*
X161374972Y-99251255D01*
X161514323Y-99390606D01*
X161514327Y-99390609D01*
X161678188Y-99500098D01*
X161678201Y-99500105D01*
X161860269Y-99575519D01*
X161860274Y-99575521D01*
X161860278Y-99575521D01*
X161860279Y-99575522D01*
X162053565Y-99613970D01*
X162053568Y-99613970D01*
X162250652Y-99613970D01*
X162380691Y-99588102D01*
X162443944Y-99575521D01*
X162626023Y-99500102D01*
X162789891Y-99390609D01*
X162929248Y-99251252D01*
X163038741Y-99087384D01*
X163114160Y-98905305D01*
X163132412Y-98813549D01*
X163152609Y-98712013D01*
X163152609Y-98514926D01*
X163114161Y-98321640D01*
X163114160Y-98321639D01*
X163114160Y-98321635D01*
X163062935Y-98197965D01*
X163038744Y-98139562D01*
X163038737Y-98139549D01*
X162929248Y-97975688D01*
X162929245Y-97975684D01*
X162789894Y-97836333D01*
X162789890Y-97836330D01*
X162626029Y-97726841D01*
X162626016Y-97726834D01*
X162443948Y-97651420D01*
X162443938Y-97651417D01*
X162250652Y-97612970D01*
X162250650Y-97612970D01*
X162053568Y-97612970D01*
X162053566Y-97612970D01*
X161860279Y-97651417D01*
X161860269Y-97651420D01*
X161678201Y-97726834D01*
X161678188Y-97726841D01*
X161514327Y-97836330D01*
X161514323Y-97836333D01*
X161374972Y-97975684D01*
X161374969Y-97975688D01*
X161265480Y-98139549D01*
X161265473Y-98139562D01*
X161190059Y-98321630D01*
X161190056Y-98321640D01*
X161151609Y-98514926D01*
X161151609Y-98514929D01*
X161151609Y-98712011D01*
X161151609Y-98712013D01*
X161151608Y-98712013D01*
X154842893Y-98712013D01*
X154953817Y-98637896D01*
X155093174Y-98498539D01*
X155202667Y-98334671D01*
X155278086Y-98152592D01*
X155301655Y-98034103D01*
X155316535Y-97959300D01*
X155316535Y-97762213D01*
X155278087Y-97568927D01*
X155278086Y-97568926D01*
X155278086Y-97568922D01*
X155233650Y-97461642D01*
X155202670Y-97386849D01*
X155202663Y-97386836D01*
X155093174Y-97222975D01*
X155093171Y-97222971D01*
X154953820Y-97083620D01*
X154953816Y-97083617D01*
X154789955Y-96974128D01*
X154789942Y-96974121D01*
X154607874Y-96898707D01*
X154607864Y-96898704D01*
X154414578Y-96860257D01*
X154414576Y-96860257D01*
X154217494Y-96860257D01*
X154217492Y-96860257D01*
X154024205Y-96898704D01*
X154024195Y-96898707D01*
X153842127Y-96974121D01*
X153842114Y-96974128D01*
X153678253Y-97083617D01*
X153678249Y-97083620D01*
X153538898Y-97222971D01*
X153538895Y-97222975D01*
X153429406Y-97386836D01*
X153429399Y-97386849D01*
X153353985Y-97568917D01*
X153353982Y-97568927D01*
X153315535Y-97762213D01*
X153315535Y-97762216D01*
X153315535Y-97959298D01*
X153315535Y-97959300D01*
X153315534Y-97959300D01*
X152816535Y-97959300D01*
X152816535Y-97256487D01*
X152813681Y-97226057D01*
X152813681Y-97226055D01*
X152768828Y-97097876D01*
X152768827Y-97097874D01*
X152758305Y-97083617D01*
X152688185Y-96988607D01*
X152578917Y-96907964D01*
X152578915Y-96907963D01*
X152450735Y-96863110D01*
X152420305Y-96860257D01*
X152420301Y-96860257D01*
X151211769Y-96860257D01*
X151211765Y-96860257D01*
X151181335Y-96863110D01*
X151181333Y-96863110D01*
X151053154Y-96907963D01*
X151053152Y-96907964D01*
X150943885Y-96988607D01*
X150863242Y-97097874D01*
X150863241Y-97097876D01*
X150818388Y-97226055D01*
X150818388Y-97226057D01*
X150815535Y-97256487D01*
X125577551Y-97256487D01*
X125563670Y-97222975D01*
X125507048Y-97086275D01*
X125507041Y-97086262D01*
X125397552Y-96922401D01*
X125397549Y-96922397D01*
X125258198Y-96783046D01*
X125258194Y-96783043D01*
X125094333Y-96673554D01*
X125094320Y-96673547D01*
X124912252Y-96598133D01*
X124912242Y-96598130D01*
X124718956Y-96559683D01*
X124718954Y-96559683D01*
X124521872Y-96559683D01*
X124521870Y-96559683D01*
X124328583Y-96598130D01*
X124328573Y-96598133D01*
X124146505Y-96673547D01*
X124146492Y-96673554D01*
X123982631Y-96783043D01*
X123982627Y-96783046D01*
X123843276Y-96922397D01*
X123843273Y-96922401D01*
X123733784Y-97086262D01*
X123733777Y-97086275D01*
X123658363Y-97268343D01*
X123658360Y-97268353D01*
X123619913Y-97461639D01*
X123619913Y-97461642D01*
X123619913Y-97658724D01*
X123619913Y-97658726D01*
X123619912Y-97658726D01*
X115950500Y-97658726D01*
X115950500Y-96828053D01*
X115947646Y-96797623D01*
X115947646Y-96797621D01*
X115904231Y-96673551D01*
X115902793Y-96669441D01*
X115822150Y-96560173D01*
X115712882Y-96479530D01*
X115712880Y-96479529D01*
X115584700Y-96434676D01*
X115554270Y-96431823D01*
X115554266Y-96431823D01*
X113945734Y-96431823D01*
X113945730Y-96431823D01*
X113915300Y-96434676D01*
X113915298Y-96434676D01*
X113787119Y-96479529D01*
X113787117Y-96479530D01*
X113677850Y-96560173D01*
X113597207Y-96669440D01*
X113597206Y-96669442D01*
X113552353Y-96797621D01*
X113552353Y-96797623D01*
X113549500Y-96828053D01*
X93500000Y-96828053D01*
X93500000Y-93206678D01*
X103897792Y-93206678D01*
X103897792Y-93318250D01*
X104717462Y-93318250D01*
X104697717Y-93337995D01*
X104648348Y-93423505D01*
X104622792Y-93518880D01*
X104622792Y-93617620D01*
X104648348Y-93712995D01*
X104697717Y-93798505D01*
X104717462Y-93818250D01*
X103897792Y-93818250D01*
X103897792Y-93929821D01*
X103924877Y-94100834D01*
X103978383Y-94265507D01*
X104056987Y-94419774D01*
X104158759Y-94559852D01*
X104281189Y-94682282D01*
X104421267Y-94784054D01*
X104575536Y-94862658D01*
X104740207Y-94916164D01*
X104740206Y-94916164D01*
X104747791Y-94917365D01*
X104747792Y-94917364D01*
X104747792Y-93848580D01*
X104767537Y-93868325D01*
X104853047Y-93917694D01*
X104948422Y-93943250D01*
X105047162Y-93943250D01*
X105142537Y-93917694D01*
X105228047Y-93868325D01*
X105247792Y-93848580D01*
X105247792Y-94917365D01*
X105255376Y-94916164D01*
X105420047Y-94862658D01*
X105574316Y-94784054D01*
X105714394Y-94682282D01*
X105836824Y-94559852D01*
X105938596Y-94419774D01*
X105991371Y-94316198D01*
X106039346Y-94265402D01*
X106107167Y-94248607D01*
X106173301Y-94271144D01*
X106216753Y-94325859D01*
X106218897Y-94331538D01*
X106244998Y-94406130D01*
X106244999Y-94406132D01*
X106325642Y-94515400D01*
X106434910Y-94596043D01*
X106477637Y-94610994D01*
X106563091Y-94640896D01*
X106593522Y-94643750D01*
X106593526Y-94643750D01*
X107402062Y-94643750D01*
X107432491Y-94640896D01*
X107432493Y-94640896D01*
X107496582Y-94618469D01*
X107560674Y-94596043D01*
X107669942Y-94515400D01*
X107750585Y-94406132D01*
X107773011Y-94342040D01*
X107795438Y-94277951D01*
X107795438Y-94277949D01*
X107798292Y-94247519D01*
X107798292Y-92888980D01*
X107795438Y-92858550D01*
X107795438Y-92858548D01*
X107791937Y-92848543D01*
X113749499Y-92848543D01*
X113787947Y-93041829D01*
X113787950Y-93041839D01*
X113863364Y-93223907D01*
X113863371Y-93223920D01*
X113972860Y-93387781D01*
X113972863Y-93387785D01*
X114112214Y-93527136D01*
X114112218Y-93527139D01*
X114276079Y-93636628D01*
X114276092Y-93636635D01*
X114350980Y-93667654D01*
X114458165Y-93712051D01*
X114458169Y-93712051D01*
X114458170Y-93712052D01*
X114651456Y-93750500D01*
X114651459Y-93750500D01*
X114848543Y-93750500D01*
X114978582Y-93724632D01*
X115041835Y-93712051D01*
X115083164Y-93694931D01*
X115149021Y-93667654D01*
X115223907Y-93636635D01*
X115223907Y-93636634D01*
X115223914Y-93636632D01*
X115387782Y-93527139D01*
X115527139Y-93387782D01*
X115636632Y-93223914D01*
X115712051Y-93041835D01*
X115739390Y-92904394D01*
X115750500Y-92848543D01*
X115750500Y-92651458D01*
X115750499Y-92651455D01*
X115749748Y-92647682D01*
X118450000Y-92647682D01*
X118450000Y-92852317D01*
X118482009Y-93054417D01*
X118545244Y-93249031D01*
X118638141Y-93431350D01*
X118638147Y-93431359D01*
X118670523Y-93475921D01*
X118670524Y-93475922D01*
X119350000Y-92796446D01*
X119350000Y-92802661D01*
X119377259Y-92904394D01*
X119429920Y-92995606D01*
X119504394Y-93070080D01*
X119595606Y-93122741D01*
X119697339Y-93150000D01*
X119703553Y-93150000D01*
X119024076Y-93829474D01*
X119068650Y-93861859D01*
X119250968Y-93954755D01*
X119445582Y-94017990D01*
X119647683Y-94050000D01*
X119852317Y-94050000D01*
X120054417Y-94017990D01*
X120249031Y-93954755D01*
X120431349Y-93861859D01*
X120475921Y-93829474D01*
X119796447Y-93150000D01*
X119802661Y-93150000D01*
X119904394Y-93122741D01*
X119995606Y-93070080D01*
X120070080Y-92995606D01*
X120122741Y-92904394D01*
X120150000Y-92802661D01*
X120150000Y-92796447D01*
X120829474Y-93475921D01*
X120861859Y-93431349D01*
X120954755Y-93249031D01*
X121017990Y-93054417D01*
X121050000Y-92852317D01*
X121050000Y-92647682D01*
X121017990Y-92445582D01*
X120954755Y-92250968D01*
X120861859Y-92068650D01*
X120829474Y-92024077D01*
X120829474Y-92024076D01*
X120150000Y-92703551D01*
X120150000Y-92697339D01*
X120122741Y-92595606D01*
X120070080Y-92504394D01*
X119995606Y-92429920D01*
X119904394Y-92377259D01*
X119802661Y-92350000D01*
X119796446Y-92350000D01*
X120337947Y-91808500D01*
X154795050Y-91808500D01*
X154811849Y-91819725D01*
X154811855Y-91819728D01*
X154980182Y-91889451D01*
X154980194Y-91889454D01*
X155158890Y-91924999D01*
X155158894Y-91925000D01*
X155341106Y-91925000D01*
X155341109Y-91924999D01*
X155519805Y-91889454D01*
X155519813Y-91889452D01*
X155688151Y-91819724D01*
X155688154Y-91819723D01*
X155704947Y-91808500D01*
X155704948Y-91808500D01*
X155250001Y-91353553D01*
X155250000Y-91353553D01*
X154795050Y-91808500D01*
X120337947Y-91808500D01*
X120471839Y-91674608D01*
X120475922Y-91670524D01*
X120475921Y-91670523D01*
X120431359Y-91638147D01*
X120431350Y-91638141D01*
X120249031Y-91545244D01*
X120054417Y-91482009D01*
X119852317Y-91450000D01*
X119647683Y-91450000D01*
X119445582Y-91482009D01*
X119250968Y-91545244D01*
X119068644Y-91638143D01*
X119024077Y-91670523D01*
X119024077Y-91670524D01*
X119703554Y-92350000D01*
X119697339Y-92350000D01*
X119595606Y-92377259D01*
X119504394Y-92429920D01*
X119429920Y-92504394D01*
X119377259Y-92595606D01*
X119350000Y-92697339D01*
X119350000Y-92703553D01*
X118670524Y-92024077D01*
X118670523Y-92024077D01*
X118638143Y-92068644D01*
X118545244Y-92250968D01*
X118482009Y-92445582D01*
X118450000Y-92647682D01*
X115749748Y-92647682D01*
X115712051Y-92458165D01*
X115694969Y-92416924D01*
X115636635Y-92276092D01*
X115636628Y-92276079D01*
X115527139Y-92112218D01*
X115527136Y-92112214D01*
X115387785Y-91972863D01*
X115387781Y-91972860D01*
X115223920Y-91863371D01*
X115223907Y-91863364D01*
X115149016Y-91832344D01*
X115041839Y-91787950D01*
X115041829Y-91787947D01*
X114848543Y-91749500D01*
X114848541Y-91749500D01*
X114651459Y-91749500D01*
X114651457Y-91749500D01*
X114458170Y-91787947D01*
X114458160Y-91787950D01*
X114276092Y-91863364D01*
X114276079Y-91863371D01*
X114112218Y-91972860D01*
X114112214Y-91972863D01*
X113972863Y-92112214D01*
X113972860Y-92112218D01*
X113863371Y-92276079D01*
X113863364Y-92276092D01*
X113787950Y-92458160D01*
X113787947Y-92458170D01*
X113749500Y-92651456D01*
X113749500Y-92651458D01*
X113749500Y-92651459D01*
X113749500Y-92848541D01*
X113749500Y-92848543D01*
X113749499Y-92848543D01*
X107791937Y-92848543D01*
X107757455Y-92750001D01*
X107750585Y-92730368D01*
X107750011Y-92729591D01*
X107742195Y-92718999D01*
X107713556Y-92680195D01*
X107669942Y-92621100D01*
X107560674Y-92540457D01*
X107560672Y-92540456D01*
X107432492Y-92495603D01*
X107402062Y-92492750D01*
X107402058Y-92492750D01*
X106593526Y-92492750D01*
X106593522Y-92492750D01*
X106563092Y-92495603D01*
X106563090Y-92495603D01*
X106434911Y-92540456D01*
X106434909Y-92540457D01*
X106325642Y-92621100D01*
X106244999Y-92730367D01*
X106218897Y-92804962D01*
X106178175Y-92861737D01*
X106113222Y-92887484D01*
X106044660Y-92874027D01*
X105994258Y-92825639D01*
X105991371Y-92820301D01*
X105938596Y-92716725D01*
X105836824Y-92576647D01*
X105714394Y-92454217D01*
X105574316Y-92352445D01*
X105420049Y-92273841D01*
X105255381Y-92220337D01*
X105255373Y-92220335D01*
X105247792Y-92219134D01*
X105247792Y-93287920D01*
X105228047Y-93268175D01*
X105142537Y-93218806D01*
X105047162Y-93193250D01*
X104948422Y-93193250D01*
X104853047Y-93218806D01*
X104767537Y-93268175D01*
X104747792Y-93287920D01*
X104747792Y-92219134D01*
X104747791Y-92219134D01*
X104740210Y-92220335D01*
X104740202Y-92220337D01*
X104575534Y-92273841D01*
X104421267Y-92352445D01*
X104281189Y-92454217D01*
X104158759Y-92576647D01*
X104056987Y-92716725D01*
X103978383Y-92870992D01*
X103924877Y-93035665D01*
X103897792Y-93206678D01*
X93500000Y-93206678D01*
X93500000Y-90618872D01*
X95249500Y-90618872D01*
X95249500Y-90881127D01*
X95256378Y-90933366D01*
X95283730Y-91141116D01*
X95340652Y-91353553D01*
X95351602Y-91394418D01*
X95351605Y-91394428D01*
X95451953Y-91636690D01*
X95451958Y-91636700D01*
X95583075Y-91863803D01*
X95742718Y-92071851D01*
X95742726Y-92071860D01*
X95928140Y-92257274D01*
X95928148Y-92257281D01*
X95928149Y-92257282D01*
X95976554Y-92294424D01*
X96136196Y-92416924D01*
X96363299Y-92548041D01*
X96363309Y-92548046D01*
X96603852Y-92647682D01*
X96605581Y-92648398D01*
X96858884Y-92716270D01*
X97107188Y-92748960D01*
X97115074Y-92749999D01*
X97118880Y-92750500D01*
X97118887Y-92750500D01*
X97381113Y-92750500D01*
X97381120Y-92750500D01*
X97641116Y-92716270D01*
X97894419Y-92648398D01*
X98136697Y-92548043D01*
X98363803Y-92416924D01*
X98571851Y-92257282D01*
X98571855Y-92257277D01*
X98571860Y-92257274D01*
X98757274Y-92071860D01*
X98757277Y-92071855D01*
X98757282Y-92071851D01*
X98916924Y-91863803D01*
X99048043Y-91636697D01*
X99148398Y-91394419D01*
X99216270Y-91141116D01*
X99246844Y-90908890D01*
X154325000Y-90908890D01*
X154325000Y-91091109D01*
X154360545Y-91269805D01*
X154360548Y-91269817D01*
X154430271Y-91438145D01*
X154441498Y-91454947D01*
X154896446Y-91000000D01*
X154896446Y-90999999D01*
X154846719Y-90950272D01*
X155000000Y-90950272D01*
X155000000Y-91049728D01*
X155038060Y-91141614D01*
X155108386Y-91211940D01*
X155200272Y-91250000D01*
X155299728Y-91250000D01*
X155391614Y-91211940D01*
X155461940Y-91141614D01*
X155500000Y-91049728D01*
X155500000Y-90999999D01*
X155603553Y-90999999D01*
X155603553Y-91000001D01*
X156075053Y-91471501D01*
X156080583Y-91472550D01*
X156096057Y-91482690D01*
X156096202Y-91482474D01*
X156203707Y-91554307D01*
X156203713Y-91554310D01*
X156203714Y-91554311D01*
X156317548Y-91601463D01*
X156438389Y-91625499D01*
X156438393Y-91625500D01*
X156438394Y-91625500D01*
X156561607Y-91625500D01*
X156561608Y-91625499D01*
X156682452Y-91601463D01*
X156796286Y-91554311D01*
X156898733Y-91485858D01*
X156930286Y-91454305D01*
X156991608Y-91420819D01*
X157061300Y-91425803D01*
X157117234Y-91467673D01*
X157132528Y-91494528D01*
X157136132Y-91503228D01*
X157136133Y-91503231D01*
X157136134Y-91503232D01*
X157180447Y-91569552D01*
X157246769Y-91613867D01*
X157246770Y-91613868D01*
X157305247Y-91625499D01*
X157305250Y-91625500D01*
X157305252Y-91625500D01*
X158194750Y-91625500D01*
X158194751Y-91625499D01*
X158209568Y-91622552D01*
X158253229Y-91613868D01*
X158253229Y-91613867D01*
X158253231Y-91613867D01*
X158319552Y-91569552D01*
X158363867Y-91503231D01*
X158363867Y-91503229D01*
X158363868Y-91503229D01*
X158375499Y-91444752D01*
X158375500Y-91444750D01*
X158375500Y-90618872D01*
X169999500Y-90618872D01*
X169999500Y-90881127D01*
X170006378Y-90933366D01*
X170033730Y-91141116D01*
X170090652Y-91353553D01*
X170101602Y-91394418D01*
X170101605Y-91394428D01*
X170201953Y-91636690D01*
X170201958Y-91636700D01*
X170333075Y-91863803D01*
X170492718Y-92071851D01*
X170492726Y-92071860D01*
X170678140Y-92257274D01*
X170678148Y-92257281D01*
X170678149Y-92257282D01*
X170726554Y-92294424D01*
X170886196Y-92416924D01*
X171113299Y-92548041D01*
X171113309Y-92548046D01*
X171353852Y-92647682D01*
X171355581Y-92648398D01*
X171608884Y-92716270D01*
X171857188Y-92748960D01*
X171865074Y-92749999D01*
X171868880Y-92750500D01*
X171868887Y-92750500D01*
X172131113Y-92750500D01*
X172131120Y-92750500D01*
X172391116Y-92716270D01*
X172644419Y-92648398D01*
X172886697Y-92548043D01*
X173113803Y-92416924D01*
X173321851Y-92257282D01*
X173321855Y-92257277D01*
X173321860Y-92257274D01*
X173507274Y-92071860D01*
X173507277Y-92071855D01*
X173507282Y-92071851D01*
X173666924Y-91863803D01*
X173798043Y-91636697D01*
X173898398Y-91394419D01*
X173966270Y-91141116D01*
X174000500Y-90881120D01*
X174000500Y-90618880D01*
X173966270Y-90358884D01*
X173898398Y-90105581D01*
X173885731Y-90075000D01*
X173798046Y-89863309D01*
X173798041Y-89863299D01*
X173666924Y-89636196D01*
X173507281Y-89428148D01*
X173507274Y-89428140D01*
X173321860Y-89242726D01*
X173321851Y-89242718D01*
X173113803Y-89083075D01*
X172886700Y-88951958D01*
X172886690Y-88951953D01*
X172644428Y-88851605D01*
X172644421Y-88851603D01*
X172644419Y-88851602D01*
X172391116Y-88783730D01*
X172333339Y-88776123D01*
X172131127Y-88749500D01*
X172131120Y-88749500D01*
X171868880Y-88749500D01*
X171868872Y-88749500D01*
X171637772Y-88779926D01*
X171608884Y-88783730D01*
X171355581Y-88851602D01*
X171355571Y-88851605D01*
X171113309Y-88951953D01*
X171113299Y-88951958D01*
X170886196Y-89083075D01*
X170678148Y-89242718D01*
X170492718Y-89428148D01*
X170333075Y-89636196D01*
X170201958Y-89863299D01*
X170201953Y-89863309D01*
X170101605Y-90105571D01*
X170101602Y-90105581D01*
X170057600Y-90269802D01*
X170033730Y-90358885D01*
X169999500Y-90618872D01*
X158375500Y-90618872D01*
X158375500Y-90555249D01*
X158375499Y-90555247D01*
X158363868Y-90496770D01*
X158363867Y-90496769D01*
X158319552Y-90430447D01*
X158253230Y-90386132D01*
X158253229Y-90386131D01*
X158194752Y-90374500D01*
X158194748Y-90374500D01*
X157305252Y-90374500D01*
X157305247Y-90374500D01*
X157246770Y-90386131D01*
X157246769Y-90386132D01*
X157180447Y-90430447D01*
X157136132Y-90496768D01*
X157132527Y-90505473D01*
X157088683Y-90559874D01*
X157022388Y-90581935D01*
X156954689Y-90564653D01*
X156930287Y-90545695D01*
X156898736Y-90514144D01*
X156898732Y-90514141D01*
X156796292Y-90445692D01*
X156796283Y-90445687D01*
X156682454Y-90398538D01*
X156682455Y-90398538D01*
X156682452Y-90398537D01*
X156682448Y-90398536D01*
X156682444Y-90398535D01*
X156561610Y-90374500D01*
X156561606Y-90374500D01*
X156438394Y-90374500D01*
X156438389Y-90374500D01*
X156317555Y-90398535D01*
X156317545Y-90398538D01*
X156203716Y-90445687D01*
X156203707Y-90445692D01*
X156096202Y-90517526D01*
X156095255Y-90516109D01*
X156081679Y-90521871D01*
X155603553Y-90999999D01*
X155500000Y-90999999D01*
X155500000Y-90950272D01*
X155461940Y-90858386D01*
X155391614Y-90788060D01*
X155299728Y-90750000D01*
X155200272Y-90750000D01*
X155108386Y-90788060D01*
X155038060Y-90858386D01*
X155000000Y-90950272D01*
X154846719Y-90950272D01*
X154441498Y-90545050D01*
X154430274Y-90561848D01*
X154360547Y-90730186D01*
X154360545Y-90730194D01*
X154325000Y-90908890D01*
X99246844Y-90908890D01*
X99250500Y-90881120D01*
X99250500Y-90618880D01*
X99216270Y-90358884D01*
X99171419Y-90191498D01*
X154795050Y-90191498D01*
X155250000Y-90646446D01*
X155250001Y-90646446D01*
X155704947Y-90191498D01*
X155688145Y-90180271D01*
X155519817Y-90110548D01*
X155519805Y-90110545D01*
X155341109Y-90075000D01*
X155158890Y-90075000D01*
X154980194Y-90110545D01*
X154980186Y-90110547D01*
X154811848Y-90180274D01*
X154795050Y-90191498D01*
X99171419Y-90191498D01*
X99148398Y-90105581D01*
X99135731Y-90075000D01*
X99048046Y-89863309D01*
X99048041Y-89863299D01*
X98916924Y-89636196D01*
X98757281Y-89428148D01*
X98757274Y-89428140D01*
X98571860Y-89242726D01*
X98571851Y-89242718D01*
X98363803Y-89083075D01*
X98136700Y-88951958D01*
X98136690Y-88951953D01*
X97894428Y-88851605D01*
X97894421Y-88851603D01*
X97894419Y-88851602D01*
X97641116Y-88783730D01*
X97583339Y-88776123D01*
X97381127Y-88749500D01*
X97381120Y-88749500D01*
X97118880Y-88749500D01*
X97118872Y-88749500D01*
X96887772Y-88779926D01*
X96858884Y-88783730D01*
X96605581Y-88851602D01*
X96605571Y-88851605D01*
X96363309Y-88951953D01*
X96363299Y-88951958D01*
X96136196Y-89083075D01*
X95928148Y-89242718D01*
X95742718Y-89428148D01*
X95583075Y-89636196D01*
X95451958Y-89863299D01*
X95451953Y-89863309D01*
X95351605Y-90105571D01*
X95351602Y-90105581D01*
X95307600Y-90269802D01*
X95283730Y-90358885D01*
X95249500Y-90618872D01*
X93500000Y-90618872D01*
X93500000Y-89386834D01*
X93506426Y-89347433D01*
X93518765Y-89310619D01*
X93522886Y-89299984D01*
X93667486Y-88972494D01*
X93672569Y-88962285D01*
X93846767Y-88649540D01*
X93852793Y-88639808D01*
X93912998Y-88551920D01*
X94055103Y-88344472D01*
X94061986Y-88335359D01*
X94290681Y-88059951D01*
X94298375Y-88051511D01*
X94551511Y-87798375D01*
X94559951Y-87790681D01*
X94835359Y-87561986D01*
X94844472Y-87555103D01*
X95139813Y-87352789D01*
X95149540Y-87346767D01*
X95462285Y-87172569D01*
X95472494Y-87167486D01*
X95799984Y-87022886D01*
X95810623Y-87018763D01*
X96150070Y-86904992D01*
X96161049Y-86901869D01*
X96509520Y-86819909D01*
X96520757Y-86817808D01*
X96875301Y-86768352D01*
X96886686Y-86767296D01*
X97247145Y-86750632D01*
X97252872Y-86750500D01*
X97315892Y-86750500D01*
X171934108Y-86750500D01*
X171997128Y-86750500D01*
X172002855Y-86750632D01*
G37*
%TD.AperFunction*%
%TD*%
M02*
