%TF.GenerationSoftware,KiCad,Pcbnew,10.0.1*%
%TF.CreationDate,2026-09-12T20:25:44+01:00*%
%TF.ProjectId,gen,67656e2e-6b69-4636-9164-5f7063625858,rev?*%
%TF.SameCoordinates,Original*%
%TF.FileFunction,Paste,Top*%
%TF.FilePolarity,Positive*%
%FSLAX46Y46*%
G04 Gerber Fmt 4.6, Leading zero omitted, Abs format (unit mm)*
G04 Created by KiCad (PCBNEW 10.0.1) date 2026-09-12 20:25:44*
%MOMM*%
%LPD*%
G01*
G04 APERTURE LIST*
G04 Aperture macros list*
%AMRoundRect*
0 Rectangle with rounded corners*
0 $1 Rounding radius*
0 $2 $3 $4 $5 $6 $7 $8 $9 X,Y pos of 4 corners*
0 Add a 4 corners polygon primitive as box body*
4,1,4,$2,$3,$4,$5,$6,$7,$8,$9,$2,$3,0*
0 Add four circle primitives for the rounded corners*
1,1,$1+$1,$2,$3*
1,1,$1+$1,$4,$5*
1,1,$1+$1,$6,$7*
1,1,$1+$1,$8,$9*
0 Add four rect primitives between the rounded corners*
20,1,$1+$1,$2,$3,$4,$5,0*
20,1,$1+$1,$4,$5,$6,$7,0*
20,1,$1+$1,$6,$7,$8,$9,0*
20,1,$1+$1,$8,$9,$2,$3,0*%
G04 Aperture macros list end*
%ADD10RoundRect,0.237500X-0.237500X0.250000X-0.237500X-0.250000X0.237500X-0.250000X0.237500X0.250000X0*%
%ADD11RoundRect,0.250000X-0.900000X1.000000X-0.900000X-1.000000X0.900000X-1.000000X0.900000X1.000000X0*%
%ADD12RoundRect,0.250000X0.900000X-1.000000X0.900000X1.000000X-0.900000X1.000000X-0.900000X-1.000000X0*%
%ADD13RoundRect,0.250000X1.000000X0.900000X-1.000000X0.900000X-1.000000X-0.900000X1.000000X-0.900000X0*%
%ADD14RoundRect,0.250000X-1.000000X-0.900000X1.000000X-0.900000X1.000000X0.900000X-1.000000X0.900000X0*%
%ADD15RoundRect,0.155000X0.155000X-0.212500X0.155000X0.212500X-0.155000X0.212500X-0.155000X-0.212500X0*%
%ADD16RoundRect,0.087500X0.087500X-0.250000X0.087500X0.250000X-0.087500X0.250000X-0.087500X-0.250000X0*%
%ADD17RoundRect,0.237500X-0.250000X-0.237500X0.250000X-0.237500X0.250000X0.237500X-0.250000X0.237500X0*%
%ADD18RoundRect,0.243750X0.456250X-0.243750X0.456250X0.243750X-0.456250X0.243750X-0.456250X-0.243750X0*%
%ADD19RoundRect,0.250000X-0.412500X-0.650000X0.412500X-0.650000X0.412500X0.650000X-0.412500X0.650000X0*%
%ADD20RoundRect,0.250000X-0.337500X-0.475000X0.337500X-0.475000X0.337500X0.475000X-0.337500X0.475000X0*%
%ADD21RoundRect,0.237500X0.237500X-0.250000X0.237500X0.250000X-0.237500X0.250000X-0.237500X-0.250000X0*%
%ADD22RoundRect,0.250000X-0.400000X-0.625000X0.400000X-0.625000X0.400000X0.625000X-0.400000X0.625000X0*%
%ADD23RoundRect,0.155000X0.212500X0.155000X-0.212500X0.155000X-0.212500X-0.155000X0.212500X-0.155000X0*%
%ADD24RoundRect,0.387500X-0.777500X-0.387500X0.777500X-0.387500X0.777500X0.387500X-0.777500X0.387500X0*%
%ADD25RoundRect,0.250000X0.475000X-0.337500X0.475000X0.337500X-0.475000X0.337500X-0.475000X-0.337500X0*%
%ADD26RoundRect,0.243750X-0.243750X-0.456250X0.243750X-0.456250X0.243750X0.456250X-0.243750X0.456250X0*%
%ADD27RoundRect,0.250000X-0.350000X-0.450000X0.350000X-0.450000X0.350000X0.450000X-0.350000X0.450000X0*%
%ADD28RoundRect,0.160000X-0.197500X-0.160000X0.197500X-0.160000X0.197500X0.160000X-0.197500X0.160000X0*%
%ADD29R,1.850000X3.400000*%
%ADD30RoundRect,0.387500X0.387500X-0.777500X0.387500X0.777500X-0.387500X0.777500X-0.387500X-0.777500X0*%
%ADD31RoundRect,0.155000X-0.212500X-0.155000X0.212500X-0.155000X0.212500X0.155000X-0.212500X0.155000X0*%
%ADD32R,2.000000X1.100000*%
%ADD33RoundRect,0.250000X0.450000X-0.350000X0.450000X0.350000X-0.450000X0.350000X-0.450000X-0.350000X0*%
%ADD34RoundRect,0.250000X-0.650000X0.325000X-0.650000X-0.325000X0.650000X-0.325000X0.650000X0.325000X0*%
%ADD35RoundRect,0.155000X-0.155000X0.212500X-0.155000X-0.212500X0.155000X-0.212500X0.155000X0.212500X0*%
%ADD36RoundRect,0.160000X0.197500X0.160000X-0.197500X0.160000X-0.197500X-0.160000X0.197500X-0.160000X0*%
%ADD37RoundRect,0.162500X0.617500X0.162500X-0.617500X0.162500X-0.617500X-0.162500X0.617500X-0.162500X0*%
G04 APERTURE END LIST*
D10*
%TO.C,R6*%
X199000000Y-124662500D03*
X199000000Y-122837500D03*
%TD*%
D11*
%TO.C,D9*%
X207750000Y-140300000D03*
X207750000Y-136000000D03*
%TD*%
D12*
%TO.C,D11*%
X208750000Y-117400000D03*
X208750000Y-113100000D03*
%TD*%
%TO.C,D10*%
X208250000Y-100500000D03*
X208250000Y-104800000D03*
%TD*%
D13*
%TO.C,D8*%
X217150000Y-92750000D03*
X212850000Y-92750000D03*
%TD*%
D12*
%TO.C,D7*%
X191000000Y-93150000D03*
X191000000Y-88850000D03*
%TD*%
D14*
%TO.C,D6*%
X188500000Y-148500000D03*
X192800000Y-148500000D03*
%TD*%
D15*
%TO.C,C14*%
X190783041Y-124817500D03*
X190783041Y-123682500D03*
%TD*%
D16*
%TO.C,U1*%
X190500000Y-108000000D03*
X191000000Y-108000000D03*
X191500000Y-108000000D03*
X191500000Y-106575000D03*
X191000000Y-106575000D03*
X190500000Y-106575000D03*
%TD*%
D17*
%TO.C,R7*%
X189058041Y-121094268D03*
X190883041Y-121094268D03*
%TD*%
D18*
%TO.C,D3*%
X177200000Y-121537500D03*
X177200000Y-119662500D03*
%TD*%
D17*
%TO.C,R8*%
X192495541Y-121144268D03*
X194320541Y-121144268D03*
%TD*%
D19*
%TO.C,C13*%
X197687500Y-127000000D03*
X200812500Y-127000000D03*
%TD*%
D20*
%TO.C,C26*%
X202042612Y-116929043D03*
X204117612Y-116929043D03*
%TD*%
D21*
%TO.C,R5*%
X200650000Y-124662500D03*
X200650000Y-122837500D03*
%TD*%
D22*
%TO.C,R15*%
X180040000Y-119650000D03*
X183140000Y-119650000D03*
%TD*%
D23*
%TO.C,C19*%
X191613696Y-105388048D03*
X190478696Y-105388048D03*
%TD*%
D24*
%TO.C,D4*%
X178924868Y-134134001D03*
X174654868Y-134134001D03*
%TD*%
D18*
%TO.C,D1*%
X184000000Y-98825000D03*
X184000000Y-96950000D03*
%TD*%
D25*
%TO.C,C15*%
X188921616Y-125695621D03*
X188921616Y-123620621D03*
%TD*%
D26*
%TO.C,D2*%
X210375000Y-96750000D03*
X212250000Y-96750000D03*
%TD*%
D20*
%TO.C,C16*%
X186212500Y-109500000D03*
X188287500Y-109500000D03*
%TD*%
D27*
%TO.C,R14*%
X214750000Y-96750000D03*
X216750000Y-96750000D03*
%TD*%
D25*
%TO.C,C25*%
X202000000Y-108787500D03*
X202000000Y-106712500D03*
%TD*%
D28*
%TO.C,R10*%
X190365544Y-103004333D03*
X191560544Y-103004333D03*
%TD*%
D29*
%TO.C,L3*%
X197275000Y-112500000D03*
X191725000Y-112500000D03*
%TD*%
D15*
%TO.C,C24*%
X203700000Y-107817500D03*
X203700000Y-106682500D03*
%TD*%
D30*
%TO.C,D5*%
X182665000Y-136065000D03*
X182665000Y-140335000D03*
%TD*%
D31*
%TO.C,C27*%
X203750000Y-118750000D03*
X202615000Y-118750000D03*
%TD*%
D32*
%TO.C,L2*%
X193200000Y-129750000D03*
X193200000Y-127850000D03*
%TD*%
D33*
%TO.C,R13*%
X186250000Y-97000000D03*
X186250000Y-95000000D03*
%TD*%
D34*
%TO.C,C18*%
X194750000Y-101325000D03*
X194750000Y-104275000D03*
%TD*%
D35*
%TO.C,C23*%
X207750000Y-130932500D03*
X207750000Y-132067500D03*
%TD*%
D36*
%TO.C,R9*%
X191597500Y-104242387D03*
X190402500Y-104242387D03*
%TD*%
D37*
%TO.C,U3*%
X195200000Y-124650000D03*
X195200000Y-123700000D03*
X195200000Y-122750000D03*
X192500000Y-122750000D03*
X192500000Y-123700000D03*
X192500000Y-124650000D03*
%TD*%
D31*
%TO.C,C12*%
X192678041Y-126144268D03*
X193813041Y-126144268D03*
%TD*%
D34*
%TO.C,C20*%
X197375000Y-101250000D03*
X197375000Y-104200000D03*
%TD*%
D23*
%TO.C,C17*%
X194067500Y-107000000D03*
X192932500Y-107000000D03*
%TD*%
M02*
