M48
; DRILL file KiCad 10.0.1 date 2026-09-12T20:25:42
; FORMAT={-:-/ absolute / metric / decimal}
; #@! TF.CreationDate,2026-09-12T20:25:42+01:00
; #@! TF.GenerationSoftware,Kicad,Pcbnew,10.0.1
; #@! TF.FileFunction,Plated,1,2,PTH
FMAT,2
METRIC
; #@! TA.AperFunction,Plated,PTH,ViaDrill
T1C0.300
; #@! TA.AperFunction,Plated,PTH,ViaDrill
T2C0.600
; #@! TA.AperFunction,Plated,PTH,ComponentDrill
T3C0.750
; #@! TA.AperFunction,Plated,PTH,ComponentDrill
T4C0.800
; #@! TA.AperFunction,Plated,PTH,ComponentDrill
T5C1.000
; #@! TA.AperFunction,Plated,PTH,ComponentDrill
T6C1.200
; #@! TA.AperFunction,Plated,PTH,ComponentDrill
T7C1.600
; #@! TA.AperFunction,Plated,PTH,ComponentDrill
T8C2.200
%
G90
G05
T1
X71.0Y-129.0
X71.0Y-137.0
X79.85Y-145.7
X86.15Y-145.7
X90.0Y-140.0
X100.0Y-140.0
X110.0Y-140.0
X120.0Y-140.0
X130.0Y-140.0
X140.0Y-140.0
X150.0Y-140.0
X160.0Y-140.0
X170.0Y-140.0
X171.0Y-130.5
X173.5Y-138.5
X173.5Y-140.294
X174.0Y-89.5
X174.0Y-95.5
X174.0Y-101.5
X174.0Y-107.0
X174.0Y-112.5
X174.0Y-118.0
X174.0Y-123.5
X175.0Y-82.0
X175.5Y-138.5
X175.5Y-140.294
X175.5Y-142.0
X176.0Y-113.0
X176.0Y-114.794
X176.0Y-125.5
X176.0Y-127.294
X176.007Y-116.5
X176.007Y-129.0
X178.0Y-113.0
X178.0Y-114.794
X178.0Y-116.5
X178.0Y-125.5
X178.0Y-127.294
X178.0Y-129.0
X179.985Y-113.0
X179.985Y-114.794
X179.985Y-125.5
X179.985Y-127.294
X179.993Y-116.5
X179.993Y-129.0
X180.0Y-105.5
X180.0Y-107.294
X180.007Y-109.0
X180.8Y-90.8
X181.0Y-95.5
X182.0Y-82.0
X182.0Y-105.5
X182.0Y-107.294
X182.0Y-109.0
X183.0Y-88.5
X183.985Y-105.5
X183.985Y-107.294
X183.993Y-109.0
X184.0Y-100.2
X185.0Y-102.294
X185.007Y-104.0
X186.5Y-108.2
X187.0Y-100.5
X187.0Y-102.294
X187.0Y-104.0
X187.4Y-131.0
X187.5Y-114.5
X187.5Y-117.0
X187.5Y-119.0
X187.735Y-155.75
X187.743Y-153.25
X188.0Y-88.5
X188.985Y-100.5
X188.985Y-102.294
X189.1Y-82.0
X189.5Y-114.5
X189.514Y-96.855
X189.515Y-98.294
X190.8Y-122.45
X191.0Y-116.5
X191.0Y-155.75
X191.015Y-153.25
X191.25Y-131.0
X191.514Y-96.855
X191.515Y-98.294
X192.55Y-108.8
X193.25Y-108.1
X193.499Y-96.855
X193.5Y-98.294
X193.5Y-116.5
X193.895Y-123.705
X193.985Y-155.794
X193.993Y-153.294
X195.0Y-82.0
X195.5Y-116.5
X195.514Y-96.855
X195.515Y-98.294
X196.014Y-126.975
X196.244Y-125.676
X196.284Y-131.265
X196.75Y-124.75
X197.5Y-124.0
X197.514Y-96.855
X197.515Y-98.294
X198.0Y-116.5
X199.499Y-96.855
X199.5Y-98.294
X200.25Y-131.25
X201.0Y-82.0
X201.5Y-114.75
X201.522Y-113.206
X201.75Y-146.206
X201.757Y-143.706
X203.4Y-91.8
X203.493Y-114.75
X203.515Y-111.5
X203.515Y-113.206
X203.75Y-131.25
X205.015Y-146.206
X205.029Y-143.706
X205.485Y-114.75
X205.5Y-109.706
X205.5Y-111.5
X205.507Y-113.206
X207.0Y-82.0
X207.735Y-125.544
X207.75Y-122.25
X207.75Y-124.0
X207.75Y-129.0
X207.765Y-127.456
X207.779Y-109.706
X208.0Y-146.25
X208.007Y-143.75
X208.5Y-96.75
X209.721Y-125.544
X209.735Y-129.0
X209.735Y-130.544
X209.743Y-122.25
X209.743Y-124.0
X209.757Y-127.456
X209.765Y-109.706
X211.265Y-146.206
X211.279Y-143.706
X214.25Y-146.25
X214.257Y-143.75
X219.0Y-81.877
X224.348Y-124.971
X224.348Y-130.971
X224.348Y-136.971
T2
X177.2Y-123.4
X180.167Y-84.41
X189.0Y-127.6
X190.75Y-126.25
X191.0Y-86.0
X194.5Y-119.5
X200.5Y-117.0
X209.5Y-93.25
T3
X212.0Y-87.7
X214.0Y-87.7
T4
X187.4Y-135.5
X187.4Y-138.0
T5
X197.25Y-91.04
X199.75Y-91.04
T6
X90.75Y-92.497
X90.75Y-99.247
X196.2Y-136.285
X196.2Y-141.285
T7
X76.075Y-125.815
X76.075Y-130.895
X76.537Y-94.86
X76.537Y-99.94
X76.537Y-105.02
X216.642Y-125.75
X216.642Y-130.83
X216.642Y-135.91
X216.75Y-103.26
X216.75Y-108.34
X216.75Y-113.42
X216.75Y-118.5
T8
X166.75Y-128.247
X166.75Y-133.747
T5
G00X175.0Y-150.75
M15
G01X175.0Y-152.25
M16
G05
G00X180.5Y-144.5
M15
G01X178.5Y-144.5
M16
G05
G00X180.15Y-150.5
M15
G01X178.85Y-150.5
M16
G05
G00X184.0Y-150.75
M15
G01X184.0Y-152.25
M16
G05
M30
