%TF.GenerationSoftware,KiCad,Pcbnew,10.0.1*%
%TF.CreationDate,2026-09-12T20:25:44+01:00*%
%TF.ProjectId,gen,67656e2e-6b69-4636-9164-5f7063625858,rev?*%
%TF.SameCoordinates,Original*%
%TF.FileFunction,Legend,Top*%
%TF.FilePolarity,Positive*%
%FSLAX46Y46*%
G04 Gerber Fmt 4.6, Leading zero omitted, Abs format (unit mm)*
G04 Created by KiCad (PCBNEW 10.0.1) date 2026-09-12 20:25:44*
%MOMM*%
%LPD*%
G01*
G04 APERTURE LIST*
%ADD10C,0.200000*%
%ADD11C,0.125000*%
%ADD12C,0.250000*%
%ADD13C,0.150000*%
%ADD14C,0.120000*%
%ADD15C,0.127000*%
%ADD16C,0.000000*%
%ADD17C,0.400000*%
G04 APERTURE END LIST*
D10*
X222614838Y-131456517D02*
X222567219Y-131551755D01*
X222567219Y-131551755D02*
X222567219Y-131694612D01*
X222567219Y-131694612D02*
X222614838Y-131837469D01*
X222614838Y-131837469D02*
X222710076Y-131932707D01*
X222710076Y-131932707D02*
X222805314Y-131980326D01*
X222805314Y-131980326D02*
X222995790Y-132027945D01*
X222995790Y-132027945D02*
X223138647Y-132027945D01*
X223138647Y-132027945D02*
X223329123Y-131980326D01*
X223329123Y-131980326D02*
X223424361Y-131932707D01*
X223424361Y-131932707D02*
X223519600Y-131837469D01*
X223519600Y-131837469D02*
X223567219Y-131694612D01*
X223567219Y-131694612D02*
X223567219Y-131599374D01*
X223567219Y-131599374D02*
X223519600Y-131456517D01*
X223519600Y-131456517D02*
X223471980Y-131408898D01*
X223471980Y-131408898D02*
X223138647Y-131408898D01*
X223138647Y-131408898D02*
X223138647Y-131599374D01*
X223567219Y-130980326D02*
X222567219Y-130980326D01*
X222567219Y-130980326D02*
X223567219Y-130408898D01*
X223567219Y-130408898D02*
X222567219Y-130408898D01*
X223567219Y-129932707D02*
X222567219Y-129932707D01*
X222567219Y-129932707D02*
X222567219Y-129694612D01*
X222567219Y-129694612D02*
X222614838Y-129551755D01*
X222614838Y-129551755D02*
X222710076Y-129456517D01*
X222710076Y-129456517D02*
X222805314Y-129408898D01*
X222805314Y-129408898D02*
X222995790Y-129361279D01*
X222995790Y-129361279D02*
X223138647Y-129361279D01*
X223138647Y-129361279D02*
X223329123Y-129408898D01*
X223329123Y-129408898D02*
X223424361Y-129456517D01*
X223424361Y-129456517D02*
X223519600Y-129551755D01*
X223519600Y-129551755D02*
X223567219Y-129694612D01*
X223567219Y-129694612D02*
X223567219Y-129932707D01*
X222714838Y-125906517D02*
X222667219Y-126001755D01*
X222667219Y-126001755D02*
X222667219Y-126144612D01*
X222667219Y-126144612D02*
X222714838Y-126287469D01*
X222714838Y-126287469D02*
X222810076Y-126382707D01*
X222810076Y-126382707D02*
X222905314Y-126430326D01*
X222905314Y-126430326D02*
X223095790Y-126477945D01*
X223095790Y-126477945D02*
X223238647Y-126477945D01*
X223238647Y-126477945D02*
X223429123Y-126430326D01*
X223429123Y-126430326D02*
X223524361Y-126382707D01*
X223524361Y-126382707D02*
X223619600Y-126287469D01*
X223619600Y-126287469D02*
X223667219Y-126144612D01*
X223667219Y-126144612D02*
X223667219Y-126049374D01*
X223667219Y-126049374D02*
X223619600Y-125906517D01*
X223619600Y-125906517D02*
X223571980Y-125858898D01*
X223571980Y-125858898D02*
X223238647Y-125858898D01*
X223238647Y-125858898D02*
X223238647Y-126049374D01*
X223667219Y-125430326D02*
X222667219Y-125430326D01*
X222667219Y-125430326D02*
X223667219Y-124858898D01*
X223667219Y-124858898D02*
X222667219Y-124858898D01*
X223667219Y-124382707D02*
X222667219Y-124382707D01*
X222667219Y-124382707D02*
X222667219Y-124144612D01*
X222667219Y-124144612D02*
X222714838Y-124001755D01*
X222714838Y-124001755D02*
X222810076Y-123906517D01*
X222810076Y-123906517D02*
X222905314Y-123858898D01*
X222905314Y-123858898D02*
X223095790Y-123811279D01*
X223095790Y-123811279D02*
X223238647Y-123811279D01*
X223238647Y-123811279D02*
X223429123Y-123858898D01*
X223429123Y-123858898D02*
X223524361Y-123906517D01*
X223524361Y-123906517D02*
X223619600Y-124001755D01*
X223619600Y-124001755D02*
X223667219Y-124144612D01*
X223667219Y-124144612D02*
X223667219Y-124382707D01*
X222762457Y-137577945D02*
X222714838Y-137530326D01*
X222714838Y-137530326D02*
X222667219Y-137435088D01*
X222667219Y-137435088D02*
X222667219Y-137196993D01*
X222667219Y-137196993D02*
X222714838Y-137101755D01*
X222714838Y-137101755D02*
X222762457Y-137054136D01*
X222762457Y-137054136D02*
X222857695Y-137006517D01*
X222857695Y-137006517D02*
X222952933Y-137006517D01*
X222952933Y-137006517D02*
X223095790Y-137054136D01*
X223095790Y-137054136D02*
X223667219Y-137625564D01*
X223667219Y-137625564D02*
X223667219Y-137006517D01*
X223000552Y-136149374D02*
X223667219Y-136149374D01*
X222619600Y-136387469D02*
X223333885Y-136625564D01*
X223333885Y-136625564D02*
X223333885Y-136006517D01*
X222667219Y-135768421D02*
X223667219Y-135435088D01*
X223667219Y-135435088D02*
X222667219Y-135101755D01*
X222917219Y-108704136D02*
X222917219Y-109180326D01*
X222917219Y-109180326D02*
X223393409Y-109227945D01*
X223393409Y-109227945D02*
X223345790Y-109180326D01*
X223345790Y-109180326D02*
X223298171Y-109085088D01*
X223298171Y-109085088D02*
X223298171Y-108846993D01*
X223298171Y-108846993D02*
X223345790Y-108751755D01*
X223345790Y-108751755D02*
X223393409Y-108704136D01*
X223393409Y-108704136D02*
X223488647Y-108656517D01*
X223488647Y-108656517D02*
X223726742Y-108656517D01*
X223726742Y-108656517D02*
X223821980Y-108704136D01*
X223821980Y-108704136D02*
X223869600Y-108751755D01*
X223869600Y-108751755D02*
X223917219Y-108846993D01*
X223917219Y-108846993D02*
X223917219Y-109085088D01*
X223917219Y-109085088D02*
X223869600Y-109180326D01*
X223869600Y-109180326D02*
X223821980Y-109227945D01*
X222917219Y-108370802D02*
X223917219Y-108037469D01*
X223917219Y-108037469D02*
X222917219Y-107704136D01*
X222964838Y-103856517D02*
X222917219Y-103951755D01*
X222917219Y-103951755D02*
X222917219Y-104094612D01*
X222917219Y-104094612D02*
X222964838Y-104237469D01*
X222964838Y-104237469D02*
X223060076Y-104332707D01*
X223060076Y-104332707D02*
X223155314Y-104380326D01*
X223155314Y-104380326D02*
X223345790Y-104427945D01*
X223345790Y-104427945D02*
X223488647Y-104427945D01*
X223488647Y-104427945D02*
X223679123Y-104380326D01*
X223679123Y-104380326D02*
X223774361Y-104332707D01*
X223774361Y-104332707D02*
X223869600Y-104237469D01*
X223869600Y-104237469D02*
X223917219Y-104094612D01*
X223917219Y-104094612D02*
X223917219Y-103999374D01*
X223917219Y-103999374D02*
X223869600Y-103856517D01*
X223869600Y-103856517D02*
X223821980Y-103808898D01*
X223821980Y-103808898D02*
X223488647Y-103808898D01*
X223488647Y-103808898D02*
X223488647Y-103999374D01*
X223917219Y-103380326D02*
X222917219Y-103380326D01*
X222917219Y-103380326D02*
X223917219Y-102808898D01*
X223917219Y-102808898D02*
X222917219Y-102808898D01*
X223917219Y-102332707D02*
X222917219Y-102332707D01*
X222917219Y-102332707D02*
X222917219Y-102094612D01*
X222917219Y-102094612D02*
X222964838Y-101951755D01*
X222964838Y-101951755D02*
X223060076Y-101856517D01*
X223060076Y-101856517D02*
X223155314Y-101808898D01*
X223155314Y-101808898D02*
X223345790Y-101761279D01*
X223345790Y-101761279D02*
X223488647Y-101761279D01*
X223488647Y-101761279D02*
X223679123Y-101808898D01*
X223679123Y-101808898D02*
X223774361Y-101856517D01*
X223774361Y-101856517D02*
X223869600Y-101951755D01*
X223869600Y-101951755D02*
X223917219Y-102094612D01*
X223917219Y-102094612D02*
X223917219Y-102332707D01*
X223014838Y-114006517D02*
X222967219Y-114101755D01*
X222967219Y-114101755D02*
X222967219Y-114244612D01*
X222967219Y-114244612D02*
X223014838Y-114387469D01*
X223014838Y-114387469D02*
X223110076Y-114482707D01*
X223110076Y-114482707D02*
X223205314Y-114530326D01*
X223205314Y-114530326D02*
X223395790Y-114577945D01*
X223395790Y-114577945D02*
X223538647Y-114577945D01*
X223538647Y-114577945D02*
X223729123Y-114530326D01*
X223729123Y-114530326D02*
X223824361Y-114482707D01*
X223824361Y-114482707D02*
X223919600Y-114387469D01*
X223919600Y-114387469D02*
X223967219Y-114244612D01*
X223967219Y-114244612D02*
X223967219Y-114149374D01*
X223967219Y-114149374D02*
X223919600Y-114006517D01*
X223919600Y-114006517D02*
X223871980Y-113958898D01*
X223871980Y-113958898D02*
X223538647Y-113958898D01*
X223538647Y-113958898D02*
X223538647Y-114149374D01*
X223967219Y-113530326D02*
X222967219Y-113530326D01*
X222967219Y-113530326D02*
X223967219Y-112958898D01*
X223967219Y-112958898D02*
X222967219Y-112958898D01*
X223967219Y-112482707D02*
X222967219Y-112482707D01*
X222967219Y-112482707D02*
X222967219Y-112244612D01*
X222967219Y-112244612D02*
X223014838Y-112101755D01*
X223014838Y-112101755D02*
X223110076Y-112006517D01*
X223110076Y-112006517D02*
X223205314Y-111958898D01*
X223205314Y-111958898D02*
X223395790Y-111911279D01*
X223395790Y-111911279D02*
X223538647Y-111911279D01*
X223538647Y-111911279D02*
X223729123Y-111958898D01*
X223729123Y-111958898D02*
X223824361Y-112006517D01*
X223824361Y-112006517D02*
X223919600Y-112101755D01*
X223919600Y-112101755D02*
X223967219Y-112244612D01*
X223967219Y-112244612D02*
X223967219Y-112482707D01*
X223932442Y-119121122D02*
X223932442Y-118930646D01*
X223932442Y-118930646D02*
X223884823Y-118835408D01*
X223884823Y-118835408D02*
X223837203Y-118787789D01*
X223837203Y-118787789D02*
X223694346Y-118692551D01*
X223694346Y-118692551D02*
X223503870Y-118644932D01*
X223503870Y-118644932D02*
X223122918Y-118644932D01*
X223122918Y-118644932D02*
X223027680Y-118692551D01*
X223027680Y-118692551D02*
X222980061Y-118740170D01*
X222980061Y-118740170D02*
X222932442Y-118835408D01*
X222932442Y-118835408D02*
X222932442Y-119025884D01*
X222932442Y-119025884D02*
X222980061Y-119121122D01*
X222980061Y-119121122D02*
X223027680Y-119168741D01*
X223027680Y-119168741D02*
X223122918Y-119216360D01*
X223122918Y-119216360D02*
X223361013Y-119216360D01*
X223361013Y-119216360D02*
X223456251Y-119168741D01*
X223456251Y-119168741D02*
X223503870Y-119121122D01*
X223503870Y-119121122D02*
X223551489Y-119025884D01*
X223551489Y-119025884D02*
X223551489Y-118835408D01*
X223551489Y-118835408D02*
X223503870Y-118740170D01*
X223503870Y-118740170D02*
X223456251Y-118692551D01*
X223456251Y-118692551D02*
X223361013Y-118644932D01*
X222932442Y-118359217D02*
X223932442Y-118025884D01*
X223932442Y-118025884D02*
X222932442Y-117692551D01*
D11*
G36*
X179315000Y-103569914D02*
G01*
X179043585Y-103579195D01*
X179043585Y-103881629D01*
X179315000Y-104003689D01*
X179315000Y-104129596D01*
X178293698Y-103657292D01*
X178293698Y-103596109D01*
X178394448Y-103596109D01*
X178472789Y-103627494D01*
X178621106Y-103692463D01*
X178937278Y-103834856D01*
X178937278Y-103583042D01*
X178622510Y-103594277D01*
X178472789Y-103597391D01*
X178394448Y-103596109D01*
X178293698Y-103596109D01*
X178293698Y-103491756D01*
X179315000Y-103445411D01*
X179315000Y-103569914D01*
G37*
G36*
X178587522Y-102475462D02*
G01*
X178653970Y-102495171D01*
X178712838Y-102524742D01*
X178765209Y-102564366D01*
X178809970Y-102612479D01*
X178844243Y-102665490D01*
X178868707Y-102724101D01*
X179315000Y-102613032D01*
X179315000Y-102748464D01*
X178881285Y-102854038D01*
X178881285Y-103019574D01*
X179315000Y-103109760D01*
X179315000Y-103231577D01*
X178293698Y-103019268D01*
X178293698Y-102734909D01*
X178407027Y-102734909D01*
X178407027Y-102921022D01*
X178767957Y-102996004D01*
X178767957Y-102809891D01*
X178762360Y-102760660D01*
X178745941Y-102716601D01*
X178718314Y-102676413D01*
X178682193Y-102643302D01*
X178639042Y-102618787D01*
X178587522Y-102602712D01*
X178533179Y-102597278D01*
X178490365Y-102604273D01*
X178455997Y-102621946D01*
X178429503Y-102649574D01*
X178413017Y-102686236D01*
X178407027Y-102734909D01*
X178293698Y-102734909D01*
X178293698Y-102711339D01*
X178298190Y-102653065D01*
X178310824Y-102604206D01*
X178330823Y-102563084D01*
X178358870Y-102527341D01*
X178392865Y-102500016D01*
X178433649Y-102480408D01*
X178477962Y-102469782D01*
X178528743Y-102467742D01*
X178587522Y-102475462D01*
G37*
G36*
X179315000Y-102396449D02*
G01*
X178293698Y-102184141D01*
X178293698Y-102019888D01*
X179168087Y-101896545D01*
X179082053Y-101884821D01*
X178974342Y-101867847D01*
X178867302Y-101847697D01*
X178293698Y-101728445D01*
X178293698Y-101609438D01*
X179315000Y-101821746D01*
X179315000Y-101985877D01*
X178440610Y-102107937D01*
X178525240Y-102120027D01*
X178632951Y-102137674D01*
X178741395Y-102158190D01*
X179315000Y-102277442D01*
X179315000Y-102396449D01*
G37*
G36*
X179315000Y-101052259D02*
G01*
X179043585Y-101061540D01*
X179043585Y-101363974D01*
X179315000Y-101486034D01*
X179315000Y-101611941D01*
X178293698Y-101139637D01*
X178293698Y-101078454D01*
X178394448Y-101078454D01*
X178472789Y-101109839D01*
X178621106Y-101174808D01*
X178937278Y-101317201D01*
X178937278Y-101065387D01*
X178622510Y-101076622D01*
X178472789Y-101079736D01*
X178394448Y-101078454D01*
X178293698Y-101078454D01*
X178293698Y-100974101D01*
X179315000Y-100927756D01*
X179315000Y-101052259D01*
G37*
G36*
X179315000Y-100515474D02*
G01*
X178293698Y-100560415D01*
X178293698Y-100434507D01*
X178989057Y-100408007D01*
X179123330Y-100406542D01*
X179217058Y-100408923D01*
X179122658Y-100370821D01*
X178987653Y-100311959D01*
X178293698Y-100003480D01*
X178293698Y-99876229D01*
X179315000Y-100347191D01*
X179315000Y-100515474D01*
G37*
G36*
X179445000Y-97819668D02*
G01*
X178423698Y-97726428D01*
X178423698Y-97612855D01*
X179179202Y-97691868D01*
X179275068Y-97703592D01*
X179354080Y-97715926D01*
X179275068Y-97691990D01*
X179179202Y-97661765D01*
X178423698Y-97406165D01*
X178423698Y-97273480D01*
X179179202Y-97340219D01*
X179275068Y-97349195D01*
X179354080Y-97357377D01*
X179275068Y-97334785D01*
X179179202Y-97305964D01*
X178423698Y-97068194D01*
X178423698Y-96960116D01*
X179445000Y-97294179D01*
X179445000Y-97448785D01*
X178675512Y-97379115D01*
X178582517Y-97368063D01*
X178511870Y-97358843D01*
X178582517Y-97378993D01*
X178675512Y-97407936D01*
X179445000Y-97665001D01*
X179445000Y-97819668D01*
G37*
G36*
X179445000Y-96498742D02*
G01*
X179173585Y-96508023D01*
X179173585Y-96810456D01*
X179445000Y-96932517D01*
X179445000Y-97058424D01*
X178423698Y-96586119D01*
X178423698Y-96524937D01*
X178524448Y-96524937D01*
X178602789Y-96556322D01*
X178751106Y-96621290D01*
X179067278Y-96763684D01*
X179067278Y-96511870D01*
X178752510Y-96523105D01*
X178602789Y-96526219D01*
X178524448Y-96524937D01*
X178423698Y-96524937D01*
X178423698Y-96420584D01*
X179445000Y-96374239D01*
X179445000Y-96498742D01*
G37*
G36*
X179445000Y-95961957D02*
G01*
X178423698Y-96006898D01*
X178423698Y-95880990D01*
X179119057Y-95854490D01*
X179253330Y-95853025D01*
X179347058Y-95855406D01*
X179252658Y-95817304D01*
X179117653Y-95758441D01*
X178423698Y-95449963D01*
X178423698Y-95322712D01*
X179445000Y-95793673D01*
X179445000Y-95961957D01*
G37*
G36*
X179445000Y-95311599D02*
G01*
X178423698Y-95099291D01*
X178423698Y-94524588D01*
X178538431Y-94548401D01*
X178538431Y-95001350D01*
X178854603Y-95067112D01*
X178854603Y-94662035D01*
X178966528Y-94685299D01*
X178966528Y-95090376D01*
X179330266Y-95165969D01*
X179330266Y-94713021D01*
X179445000Y-94736896D01*
X179445000Y-95311599D01*
G37*
G36*
X179445000Y-93640001D02*
G01*
X178423698Y-93427693D01*
X178423698Y-92839251D01*
X178538431Y-92863065D01*
X178538431Y-93331095D01*
X178877013Y-93401498D01*
X178877013Y-92969066D01*
X178991746Y-92992941D01*
X178991746Y-93422625D01*
X179445000Y-93516842D01*
X179445000Y-93640001D01*
G37*
G36*
X178716118Y-92078618D02*
G01*
X179151175Y-92169110D01*
X179224037Y-92189589D01*
X179285293Y-92217518D01*
X179336608Y-92252470D01*
X179379237Y-92294528D01*
X179413895Y-92343860D01*
X179438634Y-92397768D01*
X179453767Y-92457142D01*
X179458982Y-92523140D01*
X179453265Y-92589768D01*
X179437475Y-92642863D01*
X179412807Y-92685192D01*
X179379237Y-92718717D01*
X179338431Y-92742301D01*
X179288578Y-92756166D01*
X179227183Y-92759275D01*
X179151175Y-92749309D01*
X178717522Y-92659122D01*
X178644661Y-92638643D01*
X178583404Y-92610713D01*
X178532089Y-92575762D01*
X178489460Y-92533703D01*
X178454803Y-92484342D01*
X178430064Y-92430404D01*
X178414931Y-92370999D01*
X178411577Y-92328539D01*
X178523044Y-92328539D01*
X178528500Y-92379688D01*
X178544173Y-92423466D01*
X178569938Y-92461468D01*
X178604262Y-92492285D01*
X178648113Y-92516244D01*
X178703539Y-92533031D01*
X179165219Y-92629019D01*
X179222609Y-92635273D01*
X179265875Y-92629148D01*
X179298820Y-92613021D01*
X179323825Y-92586838D01*
X179339747Y-92550236D01*
X179345654Y-92499570D01*
X179340160Y-92447576D01*
X179324468Y-92403637D01*
X179298820Y-92366030D01*
X179264515Y-92335601D01*
X179220664Y-92311839D01*
X179165219Y-92295078D01*
X178703539Y-92199090D01*
X178646060Y-92192786D01*
X178602795Y-92198716D01*
X178569938Y-92214478D01*
X178544985Y-92240304D01*
X178529007Y-92277022D01*
X178523044Y-92328539D01*
X178411577Y-92328539D01*
X178409715Y-92304970D01*
X178415433Y-92238374D01*
X178431223Y-92185311D01*
X178455890Y-92143011D01*
X178489460Y-92109514D01*
X178530284Y-92085875D01*
X178579955Y-92071973D01*
X178640901Y-92068801D01*
X178716118Y-92078618D01*
G37*
G36*
X178717522Y-91208197D02*
G01*
X178783970Y-91227906D01*
X178842838Y-91257477D01*
X178895209Y-91297102D01*
X178939970Y-91345215D01*
X178974243Y-91398225D01*
X178998707Y-91456836D01*
X179445000Y-91345767D01*
X179445000Y-91481200D01*
X179011285Y-91586774D01*
X179011285Y-91752309D01*
X179445000Y-91842496D01*
X179445000Y-91964312D01*
X178423698Y-91752004D01*
X178423698Y-91467644D01*
X178537027Y-91467644D01*
X178537027Y-91653757D01*
X178897957Y-91728740D01*
X178897957Y-91542627D01*
X178892360Y-91493395D01*
X178875941Y-91449336D01*
X178848314Y-91409148D01*
X178812193Y-91376038D01*
X178769042Y-91351522D01*
X178717522Y-91335448D01*
X178663179Y-91330013D01*
X178620365Y-91337008D01*
X178585997Y-91354682D01*
X178559503Y-91382310D01*
X178543017Y-91418972D01*
X178537027Y-91467644D01*
X178423698Y-91467644D01*
X178423698Y-91444075D01*
X178428190Y-91385800D01*
X178440824Y-91336941D01*
X178460823Y-91295819D01*
X178488870Y-91260076D01*
X178522865Y-91232752D01*
X178563649Y-91213143D01*
X178607962Y-91202517D01*
X178658743Y-91200477D01*
X178717522Y-91208197D01*
G37*
G36*
X179458982Y-90839268D02*
G01*
X179453330Y-90907458D01*
X179437744Y-90961766D01*
X179413482Y-91004995D01*
X179380642Y-91039181D01*
X179340267Y-91063908D01*
X179292372Y-91078546D01*
X179234888Y-91082461D01*
X179165219Y-91073742D01*
X178703539Y-90977754D01*
X178636758Y-90958623D01*
X178579396Y-90931506D01*
X178530140Y-90896609D01*
X178488056Y-90853618D01*
X178454131Y-90803832D01*
X178429807Y-90749139D01*
X178414874Y-90688620D01*
X178409715Y-90621098D01*
X178415370Y-90554446D01*
X178431016Y-90501041D01*
X178455489Y-90458214D01*
X178488789Y-90424056D01*
X178529494Y-90399332D01*
X178577449Y-90384716D01*
X178634636Y-90380789D01*
X178703539Y-90389373D01*
X178703539Y-90512471D01*
X178646159Y-90506341D01*
X178602900Y-90512704D01*
X178569938Y-90529202D01*
X178544938Y-90555822D01*
X178528974Y-90593071D01*
X178523044Y-90644668D01*
X178528418Y-90696845D01*
X178543862Y-90741741D01*
X178569206Y-90780894D01*
X178603265Y-90812780D01*
X178646884Y-90837347D01*
X178702135Y-90854350D01*
X179165219Y-90950582D01*
X179222470Y-90956602D01*
X179265986Y-90949907D01*
X179299492Y-90932752D01*
X179324931Y-90905351D01*
X179341089Y-90867613D01*
X179347058Y-90816004D01*
X179341519Y-90763985D01*
X179325618Y-90719505D01*
X179299492Y-90680938D01*
X179264666Y-90649572D01*
X179220559Y-90625326D01*
X179165219Y-90608459D01*
X179025268Y-90579394D01*
X179025268Y-90781932D01*
X178910596Y-90758058D01*
X178910596Y-90432421D01*
X179165219Y-90485361D01*
X179231207Y-90504321D01*
X179288232Y-90531332D01*
X179337528Y-90566234D01*
X179379970Y-90609375D01*
X179414322Y-90659263D01*
X179438839Y-90713590D01*
X179453824Y-90773220D01*
X179458982Y-90839268D01*
G37*
G36*
X179445000Y-90276289D02*
G01*
X178423698Y-90063981D01*
X178423698Y-89489277D01*
X178538431Y-89513091D01*
X178538431Y-89966039D01*
X178854603Y-90031802D01*
X178854603Y-89626725D01*
X178966528Y-89649989D01*
X178966528Y-90055066D01*
X179330266Y-90130659D01*
X179330266Y-89677710D01*
X179445000Y-89701585D01*
X179445000Y-90276289D01*
G37*
D12*
G36*
X177357965Y-103226813D02*
G01*
X177346660Y-103363193D01*
X177315489Y-103471808D01*
X177266965Y-103558267D01*
X177201284Y-103626639D01*
X177120535Y-103676093D01*
X177024745Y-103705369D01*
X176909776Y-103713197D01*
X176770439Y-103695759D01*
X175847079Y-103503784D01*
X175713517Y-103465523D01*
X175598792Y-103411289D01*
X175500281Y-103341495D01*
X175416113Y-103255512D01*
X175348262Y-103155940D01*
X175299615Y-103046555D01*
X175269749Y-102925517D01*
X175259431Y-102790473D01*
X175270740Y-102657168D01*
X175302032Y-102550359D01*
X175350978Y-102464705D01*
X175417578Y-102396387D01*
X175498989Y-102346939D01*
X175594899Y-102317708D01*
X175709273Y-102309854D01*
X175847079Y-102327022D01*
X175847079Y-102573219D01*
X175732318Y-102560957D01*
X175645800Y-102573684D01*
X175579877Y-102606680D01*
X175529876Y-102659920D01*
X175497948Y-102734419D01*
X175486088Y-102837612D01*
X175496836Y-102941966D01*
X175527725Y-103031759D01*
X175578412Y-103110065D01*
X175646530Y-103173837D01*
X175733768Y-103222971D01*
X175844270Y-103256977D01*
X176770439Y-103449440D01*
X176884941Y-103461480D01*
X176971972Y-103448089D01*
X177038984Y-103413781D01*
X177089863Y-103358978D01*
X177122179Y-103283502D01*
X177134117Y-103180285D01*
X177123039Y-103076246D01*
X177091237Y-102987286D01*
X177038984Y-102910152D01*
X176969332Y-102847420D01*
X176881118Y-102798928D01*
X176770439Y-102765194D01*
X176490537Y-102707064D01*
X176490537Y-103112141D01*
X176261193Y-103064392D01*
X176261193Y-102413118D01*
X176770439Y-102518997D01*
X176902415Y-102556918D01*
X177016464Y-102610941D01*
X177115056Y-102680744D01*
X177199940Y-102767026D01*
X177268644Y-102866803D01*
X177317678Y-102975456D01*
X177347648Y-103094716D01*
X177357965Y-103226813D01*
G37*
G36*
X177330000Y-102100854D02*
G01*
X175287397Y-101676237D01*
X175287397Y-100526831D01*
X175516863Y-100574458D01*
X175516863Y-101480355D01*
X176149207Y-101611879D01*
X176149207Y-100801726D01*
X176373056Y-100848254D01*
X176373056Y-101658408D01*
X177100533Y-101809594D01*
X177100533Y-100903697D01*
X177330000Y-100951447D01*
X177330000Y-102100854D01*
G37*
G36*
X177330000Y-100449772D02*
G01*
X175287397Y-100025156D01*
X175287397Y-99696649D01*
X177036175Y-99449964D01*
X176864106Y-99426516D01*
X176648684Y-99392567D01*
X176434605Y-99352267D01*
X175287397Y-99113764D01*
X175287397Y-98875749D01*
X177330000Y-99300365D01*
X177330000Y-99628627D01*
X175581221Y-99872748D01*
X175750481Y-99896928D01*
X175965903Y-99932221D01*
X176182791Y-99973254D01*
X177330000Y-100211757D01*
X177330000Y-100449772D01*
G37*
G36*
X175875045Y-95572486D02*
G01*
X176007940Y-95611904D01*
X176125676Y-95671046D01*
X176230418Y-95750295D01*
X176319940Y-95846521D01*
X176388486Y-95952542D01*
X176437414Y-96069765D01*
X177330000Y-95847626D01*
X177330000Y-96118491D01*
X176462571Y-96329639D01*
X176462571Y-96660710D01*
X177330000Y-96841084D01*
X177330000Y-97084716D01*
X175287397Y-96660100D01*
X175287397Y-96091380D01*
X175514054Y-96091380D01*
X175514054Y-96463607D01*
X176235914Y-96613572D01*
X176235914Y-96241346D01*
X176224720Y-96142883D01*
X176191883Y-96054765D01*
X176136629Y-95974388D01*
X176064386Y-95908168D01*
X175978084Y-95859137D01*
X175875045Y-95826988D01*
X175766359Y-95816118D01*
X175680730Y-95830109D01*
X175611995Y-95865456D01*
X175559006Y-95920711D01*
X175526034Y-95994036D01*
X175514054Y-96091380D01*
X175287397Y-96091380D01*
X175287397Y-96044242D01*
X175296381Y-95927692D01*
X175321648Y-95829975D01*
X175361646Y-95747731D01*
X175417741Y-95676245D01*
X175485731Y-95621595D01*
X175567299Y-95582378D01*
X175655924Y-95561126D01*
X175757487Y-95557046D01*
X175875045Y-95572486D01*
G37*
G36*
X177330000Y-95387106D02*
G01*
X175287397Y-94962490D01*
X175287397Y-93813083D01*
X175516863Y-93860710D01*
X175516863Y-94766607D01*
X176149207Y-94898132D01*
X176149207Y-94087978D01*
X176373056Y-94134507D01*
X176373056Y-94944660D01*
X177100533Y-95095847D01*
X177100533Y-94189950D01*
X177330000Y-94237699D01*
X177330000Y-95387106D01*
G37*
G36*
X177330000Y-93330948D02*
G01*
X175287397Y-93420829D01*
X175287397Y-93169015D01*
X176678115Y-93116014D01*
X176946660Y-93113083D01*
X177134117Y-93117846D01*
X176945317Y-93041642D01*
X176675307Y-92923917D01*
X175287397Y-92306960D01*
X175287397Y-92052459D01*
X177330000Y-92994381D01*
X177330000Y-93330948D01*
G37*
G36*
X177330000Y-90390142D02*
G01*
X177097725Y-90341904D01*
X176370247Y-89525522D01*
X176213612Y-89362984D01*
X176090467Y-89261984D01*
X175965353Y-89189934D01*
X175849888Y-89151708D01*
X175739343Y-89140623D01*
X175652377Y-89154807D01*
X175582686Y-89190665D01*
X175529206Y-89246910D01*
X175495596Y-89323079D01*
X175483279Y-89425871D01*
X175494998Y-89533431D01*
X175529000Y-89627594D01*
X175585495Y-89711391D01*
X175660049Y-89780097D01*
X175750825Y-89831525D01*
X175861001Y-89865752D01*
X175861001Y-90112071D01*
X175726384Y-90069635D01*
X175609758Y-90011532D01*
X175508766Y-89938016D01*
X175421730Y-89848411D01*
X175350939Y-89745242D01*
X175300598Y-89633868D01*
X175269946Y-89512619D01*
X175259431Y-89379343D01*
X175270884Y-89241769D01*
X175302534Y-89131676D01*
X175351926Y-89043553D01*
X175418921Y-88973411D01*
X175501263Y-88922287D01*
X175598136Y-88891986D01*
X175713555Y-88883583D01*
X175852575Y-88900749D01*
X175946758Y-88928214D01*
X176048876Y-88974532D01*
X176160443Y-89042776D01*
X176264031Y-89122736D01*
X176384437Y-89234614D01*
X176524120Y-89384960D01*
X177100533Y-90044050D01*
X177100533Y-89135344D01*
X177330000Y-89183094D01*
X177330000Y-90390142D01*
G37*
D13*
X200072319Y-121516666D02*
X199596128Y-121849999D01*
X200072319Y-122088094D02*
X199072319Y-122088094D01*
X199072319Y-122088094D02*
X199072319Y-121707142D01*
X199072319Y-121707142D02*
X199119938Y-121611904D01*
X199119938Y-121611904D02*
X199167557Y-121564285D01*
X199167557Y-121564285D02*
X199262795Y-121516666D01*
X199262795Y-121516666D02*
X199405652Y-121516666D01*
X199405652Y-121516666D02*
X199500890Y-121564285D01*
X199500890Y-121564285D02*
X199548509Y-121611904D01*
X199548509Y-121611904D02*
X199596128Y-121707142D01*
X199596128Y-121707142D02*
X199596128Y-122088094D01*
X199072319Y-120659523D02*
X199072319Y-120849999D01*
X199072319Y-120849999D02*
X199119938Y-120945237D01*
X199119938Y-120945237D02*
X199167557Y-120992856D01*
X199167557Y-120992856D02*
X199310414Y-121088094D01*
X199310414Y-121088094D02*
X199500890Y-121135713D01*
X199500890Y-121135713D02*
X199881842Y-121135713D01*
X199881842Y-121135713D02*
X199977080Y-121088094D01*
X199977080Y-121088094D02*
X200024700Y-121040475D01*
X200024700Y-121040475D02*
X200072319Y-120945237D01*
X200072319Y-120945237D02*
X200072319Y-120754761D01*
X200072319Y-120754761D02*
X200024700Y-120659523D01*
X200024700Y-120659523D02*
X199977080Y-120611904D01*
X199977080Y-120611904D02*
X199881842Y-120564285D01*
X199881842Y-120564285D02*
X199643747Y-120564285D01*
X199643747Y-120564285D02*
X199548509Y-120611904D01*
X199548509Y-120611904D02*
X199500890Y-120659523D01*
X199500890Y-120659523D02*
X199453271Y-120754761D01*
X199453271Y-120754761D02*
X199453271Y-120945237D01*
X199453271Y-120945237D02*
X199500890Y-121040475D01*
X199500890Y-121040475D02*
X199548509Y-121088094D01*
X199548509Y-121088094D02*
X199643747Y-121135713D01*
X210704819Y-142238094D02*
X209704819Y-142238094D01*
X209704819Y-142238094D02*
X209704819Y-141999999D01*
X209704819Y-141999999D02*
X209752438Y-141857142D01*
X209752438Y-141857142D02*
X209847676Y-141761904D01*
X209847676Y-141761904D02*
X209942914Y-141714285D01*
X209942914Y-141714285D02*
X210133390Y-141666666D01*
X210133390Y-141666666D02*
X210276247Y-141666666D01*
X210276247Y-141666666D02*
X210466723Y-141714285D01*
X210466723Y-141714285D02*
X210561961Y-141761904D01*
X210561961Y-141761904D02*
X210657200Y-141857142D01*
X210657200Y-141857142D02*
X210704819Y-141999999D01*
X210704819Y-141999999D02*
X210704819Y-142238094D01*
X210704819Y-141190475D02*
X210704819Y-140999999D01*
X210704819Y-140999999D02*
X210657200Y-140904761D01*
X210657200Y-140904761D02*
X210609580Y-140857142D01*
X210609580Y-140857142D02*
X210466723Y-140761904D01*
X210466723Y-140761904D02*
X210276247Y-140714285D01*
X210276247Y-140714285D02*
X209895295Y-140714285D01*
X209895295Y-140714285D02*
X209800057Y-140761904D01*
X209800057Y-140761904D02*
X209752438Y-140809523D01*
X209752438Y-140809523D02*
X209704819Y-140904761D01*
X209704819Y-140904761D02*
X209704819Y-141095237D01*
X209704819Y-141095237D02*
X209752438Y-141190475D01*
X209752438Y-141190475D02*
X209800057Y-141238094D01*
X209800057Y-141238094D02*
X209895295Y-141285713D01*
X209895295Y-141285713D02*
X210133390Y-141285713D01*
X210133390Y-141285713D02*
X210228628Y-141238094D01*
X210228628Y-141238094D02*
X210276247Y-141190475D01*
X210276247Y-141190475D02*
X210323866Y-141095237D01*
X210323866Y-141095237D02*
X210323866Y-140904761D01*
X210323866Y-140904761D02*
X210276247Y-140809523D01*
X210276247Y-140809523D02*
X210228628Y-140761904D01*
X210228628Y-140761904D02*
X210133390Y-140714285D01*
X207501183Y-120082639D02*
X207501183Y-119082639D01*
X207501183Y-119082639D02*
X207739278Y-119082639D01*
X207739278Y-119082639D02*
X207882135Y-119130258D01*
X207882135Y-119130258D02*
X207977373Y-119225496D01*
X207977373Y-119225496D02*
X208024992Y-119320734D01*
X208024992Y-119320734D02*
X208072611Y-119511210D01*
X208072611Y-119511210D02*
X208072611Y-119654067D01*
X208072611Y-119654067D02*
X208024992Y-119844543D01*
X208024992Y-119844543D02*
X207977373Y-119939781D01*
X207977373Y-119939781D02*
X207882135Y-120035020D01*
X207882135Y-120035020D02*
X207739278Y-120082639D01*
X207739278Y-120082639D02*
X207501183Y-120082639D01*
X209024992Y-120082639D02*
X208453564Y-120082639D01*
X208739278Y-120082639D02*
X208739278Y-119082639D01*
X208739278Y-119082639D02*
X208644040Y-119225496D01*
X208644040Y-119225496D02*
X208548802Y-119320734D01*
X208548802Y-119320734D02*
X208453564Y-119368353D01*
X209977373Y-120082639D02*
X209405945Y-120082639D01*
X209691659Y-120082639D02*
X209691659Y-119082639D01*
X209691659Y-119082639D02*
X209596421Y-119225496D01*
X209596421Y-119225496D02*
X209501183Y-119320734D01*
X209501183Y-119320734D02*
X209405945Y-119368353D01*
X207285714Y-107704819D02*
X207285714Y-106704819D01*
X207285714Y-106704819D02*
X207523809Y-106704819D01*
X207523809Y-106704819D02*
X207666666Y-106752438D01*
X207666666Y-106752438D02*
X207761904Y-106847676D01*
X207761904Y-106847676D02*
X207809523Y-106942914D01*
X207809523Y-106942914D02*
X207857142Y-107133390D01*
X207857142Y-107133390D02*
X207857142Y-107276247D01*
X207857142Y-107276247D02*
X207809523Y-107466723D01*
X207809523Y-107466723D02*
X207761904Y-107561961D01*
X207761904Y-107561961D02*
X207666666Y-107657200D01*
X207666666Y-107657200D02*
X207523809Y-107704819D01*
X207523809Y-107704819D02*
X207285714Y-107704819D01*
X208809523Y-107704819D02*
X208238095Y-107704819D01*
X208523809Y-107704819D02*
X208523809Y-106704819D01*
X208523809Y-106704819D02*
X208428571Y-106847676D01*
X208428571Y-106847676D02*
X208333333Y-106942914D01*
X208333333Y-106942914D02*
X208238095Y-106990533D01*
X209428571Y-106704819D02*
X209523809Y-106704819D01*
X209523809Y-106704819D02*
X209619047Y-106752438D01*
X209619047Y-106752438D02*
X209666666Y-106800057D01*
X209666666Y-106800057D02*
X209714285Y-106895295D01*
X209714285Y-106895295D02*
X209761904Y-107085771D01*
X209761904Y-107085771D02*
X209761904Y-107323866D01*
X209761904Y-107323866D02*
X209714285Y-107514342D01*
X209714285Y-107514342D02*
X209666666Y-107609580D01*
X209666666Y-107609580D02*
X209619047Y-107657200D01*
X209619047Y-107657200D02*
X209523809Y-107704819D01*
X209523809Y-107704819D02*
X209428571Y-107704819D01*
X209428571Y-107704819D02*
X209333333Y-107657200D01*
X209333333Y-107657200D02*
X209285714Y-107609580D01*
X209285714Y-107609580D02*
X209238095Y-107514342D01*
X209238095Y-107514342D02*
X209190476Y-107323866D01*
X209190476Y-107323866D02*
X209190476Y-107085771D01*
X209190476Y-107085771D02*
X209238095Y-106895295D01*
X209238095Y-106895295D02*
X209285714Y-106800057D01*
X209285714Y-106800057D02*
X209333333Y-106752438D01*
X209333333Y-106752438D02*
X209428571Y-106704819D01*
X209561905Y-92404819D02*
X209561905Y-91404819D01*
X209561905Y-91404819D02*
X209800000Y-91404819D01*
X209800000Y-91404819D02*
X209942857Y-91452438D01*
X209942857Y-91452438D02*
X210038095Y-91547676D01*
X210038095Y-91547676D02*
X210085714Y-91642914D01*
X210085714Y-91642914D02*
X210133333Y-91833390D01*
X210133333Y-91833390D02*
X210133333Y-91976247D01*
X210133333Y-91976247D02*
X210085714Y-92166723D01*
X210085714Y-92166723D02*
X210038095Y-92261961D01*
X210038095Y-92261961D02*
X209942857Y-92357200D01*
X209942857Y-92357200D02*
X209800000Y-92404819D01*
X209800000Y-92404819D02*
X209561905Y-92404819D01*
X210704762Y-91833390D02*
X210609524Y-91785771D01*
X210609524Y-91785771D02*
X210561905Y-91738152D01*
X210561905Y-91738152D02*
X210514286Y-91642914D01*
X210514286Y-91642914D02*
X210514286Y-91595295D01*
X210514286Y-91595295D02*
X210561905Y-91500057D01*
X210561905Y-91500057D02*
X210609524Y-91452438D01*
X210609524Y-91452438D02*
X210704762Y-91404819D01*
X210704762Y-91404819D02*
X210895238Y-91404819D01*
X210895238Y-91404819D02*
X210990476Y-91452438D01*
X210990476Y-91452438D02*
X211038095Y-91500057D01*
X211038095Y-91500057D02*
X211085714Y-91595295D01*
X211085714Y-91595295D02*
X211085714Y-91642914D01*
X211085714Y-91642914D02*
X211038095Y-91738152D01*
X211038095Y-91738152D02*
X210990476Y-91785771D01*
X210990476Y-91785771D02*
X210895238Y-91833390D01*
X210895238Y-91833390D02*
X210704762Y-91833390D01*
X210704762Y-91833390D02*
X210609524Y-91881009D01*
X210609524Y-91881009D02*
X210561905Y-91928628D01*
X210561905Y-91928628D02*
X210514286Y-92023866D01*
X210514286Y-92023866D02*
X210514286Y-92214342D01*
X210514286Y-92214342D02*
X210561905Y-92309580D01*
X210561905Y-92309580D02*
X210609524Y-92357200D01*
X210609524Y-92357200D02*
X210704762Y-92404819D01*
X210704762Y-92404819D02*
X210895238Y-92404819D01*
X210895238Y-92404819D02*
X210990476Y-92357200D01*
X210990476Y-92357200D02*
X211038095Y-92309580D01*
X211038095Y-92309580D02*
X211085714Y-92214342D01*
X211085714Y-92214342D02*
X211085714Y-92023866D01*
X211085714Y-92023866D02*
X211038095Y-91928628D01*
X211038095Y-91928628D02*
X210990476Y-91881009D01*
X210990476Y-91881009D02*
X210895238Y-91833390D01*
X193704819Y-88238094D02*
X192704819Y-88238094D01*
X192704819Y-88238094D02*
X192704819Y-87999999D01*
X192704819Y-87999999D02*
X192752438Y-87857142D01*
X192752438Y-87857142D02*
X192847676Y-87761904D01*
X192847676Y-87761904D02*
X192942914Y-87714285D01*
X192942914Y-87714285D02*
X193133390Y-87666666D01*
X193133390Y-87666666D02*
X193276247Y-87666666D01*
X193276247Y-87666666D02*
X193466723Y-87714285D01*
X193466723Y-87714285D02*
X193561961Y-87761904D01*
X193561961Y-87761904D02*
X193657200Y-87857142D01*
X193657200Y-87857142D02*
X193704819Y-87999999D01*
X193704819Y-87999999D02*
X193704819Y-88238094D01*
X192704819Y-87333332D02*
X192704819Y-86666666D01*
X192704819Y-86666666D02*
X193704819Y-87095237D01*
X189911905Y-145954819D02*
X189911905Y-144954819D01*
X189911905Y-144954819D02*
X190150000Y-144954819D01*
X190150000Y-144954819D02*
X190292857Y-145002438D01*
X190292857Y-145002438D02*
X190388095Y-145097676D01*
X190388095Y-145097676D02*
X190435714Y-145192914D01*
X190435714Y-145192914D02*
X190483333Y-145383390D01*
X190483333Y-145383390D02*
X190483333Y-145526247D01*
X190483333Y-145526247D02*
X190435714Y-145716723D01*
X190435714Y-145716723D02*
X190388095Y-145811961D01*
X190388095Y-145811961D02*
X190292857Y-145907200D01*
X190292857Y-145907200D02*
X190150000Y-145954819D01*
X190150000Y-145954819D02*
X189911905Y-145954819D01*
X191340476Y-144954819D02*
X191150000Y-144954819D01*
X191150000Y-144954819D02*
X191054762Y-145002438D01*
X191054762Y-145002438D02*
X191007143Y-145050057D01*
X191007143Y-145050057D02*
X190911905Y-145192914D01*
X190911905Y-145192914D02*
X190864286Y-145383390D01*
X190864286Y-145383390D02*
X190864286Y-145764342D01*
X190864286Y-145764342D02*
X190911905Y-145859580D01*
X190911905Y-145859580D02*
X190959524Y-145907200D01*
X190959524Y-145907200D02*
X191054762Y-145954819D01*
X191054762Y-145954819D02*
X191245238Y-145954819D01*
X191245238Y-145954819D02*
X191340476Y-145907200D01*
X191340476Y-145907200D02*
X191388095Y-145859580D01*
X191388095Y-145859580D02*
X191435714Y-145764342D01*
X191435714Y-145764342D02*
X191435714Y-145526247D01*
X191435714Y-145526247D02*
X191388095Y-145431009D01*
X191388095Y-145431009D02*
X191340476Y-145383390D01*
X191340476Y-145383390D02*
X191245238Y-145335771D01*
X191245238Y-145335771D02*
X191054762Y-145335771D01*
X191054762Y-145335771D02*
X190959524Y-145383390D01*
X190959524Y-145383390D02*
X190911905Y-145431009D01*
X190911905Y-145431009D02*
X190864286Y-145526247D01*
X191109580Y-128892857D02*
X191157200Y-128940476D01*
X191157200Y-128940476D02*
X191204819Y-129083333D01*
X191204819Y-129083333D02*
X191204819Y-129178571D01*
X191204819Y-129178571D02*
X191157200Y-129321428D01*
X191157200Y-129321428D02*
X191061961Y-129416666D01*
X191061961Y-129416666D02*
X190966723Y-129464285D01*
X190966723Y-129464285D02*
X190776247Y-129511904D01*
X190776247Y-129511904D02*
X190633390Y-129511904D01*
X190633390Y-129511904D02*
X190442914Y-129464285D01*
X190442914Y-129464285D02*
X190347676Y-129416666D01*
X190347676Y-129416666D02*
X190252438Y-129321428D01*
X190252438Y-129321428D02*
X190204819Y-129178571D01*
X190204819Y-129178571D02*
X190204819Y-129083333D01*
X190204819Y-129083333D02*
X190252438Y-128940476D01*
X190252438Y-128940476D02*
X190300057Y-128892857D01*
X191204819Y-127940476D02*
X191204819Y-128511904D01*
X191204819Y-128226190D02*
X190204819Y-128226190D01*
X190204819Y-128226190D02*
X190347676Y-128321428D01*
X190347676Y-128321428D02*
X190442914Y-128416666D01*
X190442914Y-128416666D02*
X190490533Y-128511904D01*
X190538152Y-127083333D02*
X191204819Y-127083333D01*
X190157200Y-127321428D02*
X190871485Y-127559523D01*
X190871485Y-127559523D02*
X190871485Y-126940476D01*
X187988095Y-106454819D02*
X187988095Y-107264342D01*
X187988095Y-107264342D02*
X188035714Y-107359580D01*
X188035714Y-107359580D02*
X188083333Y-107407200D01*
X188083333Y-107407200D02*
X188178571Y-107454819D01*
X188178571Y-107454819D02*
X188369047Y-107454819D01*
X188369047Y-107454819D02*
X188464285Y-107407200D01*
X188464285Y-107407200D02*
X188511904Y-107359580D01*
X188511904Y-107359580D02*
X188559523Y-107264342D01*
X188559523Y-107264342D02*
X188559523Y-106454819D01*
X189559523Y-107454819D02*
X188988095Y-107454819D01*
X189273809Y-107454819D02*
X189273809Y-106454819D01*
X189273809Y-106454819D02*
X189178571Y-106597676D01*
X189178571Y-106597676D02*
X189083333Y-106692914D01*
X189083333Y-106692914D02*
X188988095Y-106740533D01*
X182248095Y-86302438D02*
X182152857Y-86254819D01*
X182152857Y-86254819D02*
X182010000Y-86254819D01*
X182010000Y-86254819D02*
X181867143Y-86302438D01*
X181867143Y-86302438D02*
X181771905Y-86397676D01*
X181771905Y-86397676D02*
X181724286Y-86492914D01*
X181724286Y-86492914D02*
X181676667Y-86683390D01*
X181676667Y-86683390D02*
X181676667Y-86826247D01*
X181676667Y-86826247D02*
X181724286Y-87016723D01*
X181724286Y-87016723D02*
X181771905Y-87111961D01*
X181771905Y-87111961D02*
X181867143Y-87207200D01*
X181867143Y-87207200D02*
X182010000Y-87254819D01*
X182010000Y-87254819D02*
X182105238Y-87254819D01*
X182105238Y-87254819D02*
X182248095Y-87207200D01*
X182248095Y-87207200D02*
X182295714Y-87159580D01*
X182295714Y-87159580D02*
X182295714Y-86826247D01*
X182295714Y-86826247D02*
X182105238Y-86826247D01*
X182724286Y-87254819D02*
X182724286Y-86254819D01*
X182724286Y-86254819D02*
X183295714Y-87254819D01*
X183295714Y-87254819D02*
X183295714Y-86254819D01*
X183771905Y-87254819D02*
X183771905Y-86254819D01*
X183771905Y-86254819D02*
X184010000Y-86254819D01*
X184010000Y-86254819D02*
X184152857Y-86302438D01*
X184152857Y-86302438D02*
X184248095Y-86397676D01*
X184248095Y-86397676D02*
X184295714Y-86492914D01*
X184295714Y-86492914D02*
X184343333Y-86683390D01*
X184343333Y-86683390D02*
X184343333Y-86826247D01*
X184343333Y-86826247D02*
X184295714Y-87016723D01*
X184295714Y-87016723D02*
X184248095Y-87111961D01*
X184248095Y-87111961D02*
X184152857Y-87207200D01*
X184152857Y-87207200D02*
X184010000Y-87254819D01*
X184010000Y-87254819D02*
X183771905Y-87254819D01*
X189746374Y-120249087D02*
X189413041Y-119772896D01*
X189174946Y-120249087D02*
X189174946Y-119249087D01*
X189174946Y-119249087D02*
X189555898Y-119249087D01*
X189555898Y-119249087D02*
X189651136Y-119296706D01*
X189651136Y-119296706D02*
X189698755Y-119344325D01*
X189698755Y-119344325D02*
X189746374Y-119439563D01*
X189746374Y-119439563D02*
X189746374Y-119582420D01*
X189746374Y-119582420D02*
X189698755Y-119677658D01*
X189698755Y-119677658D02*
X189651136Y-119725277D01*
X189651136Y-119725277D02*
X189555898Y-119772896D01*
X189555898Y-119772896D02*
X189174946Y-119772896D01*
X190079708Y-119249087D02*
X190746374Y-119249087D01*
X190746374Y-119249087D02*
X190317803Y-120249087D01*
X175784819Y-121358094D02*
X174784819Y-121358094D01*
X174784819Y-121358094D02*
X174784819Y-121119999D01*
X174784819Y-121119999D02*
X174832438Y-120977142D01*
X174832438Y-120977142D02*
X174927676Y-120881904D01*
X174927676Y-120881904D02*
X175022914Y-120834285D01*
X175022914Y-120834285D02*
X175213390Y-120786666D01*
X175213390Y-120786666D02*
X175356247Y-120786666D01*
X175356247Y-120786666D02*
X175546723Y-120834285D01*
X175546723Y-120834285D02*
X175641961Y-120881904D01*
X175641961Y-120881904D02*
X175737200Y-120977142D01*
X175737200Y-120977142D02*
X175784819Y-121119999D01*
X175784819Y-121119999D02*
X175784819Y-121358094D01*
X174784819Y-120453332D02*
X174784819Y-119834285D01*
X174784819Y-119834285D02*
X175165771Y-120167618D01*
X175165771Y-120167618D02*
X175165771Y-120024761D01*
X175165771Y-120024761D02*
X175213390Y-119929523D01*
X175213390Y-119929523D02*
X175261009Y-119881904D01*
X175261009Y-119881904D02*
X175356247Y-119834285D01*
X175356247Y-119834285D02*
X175594342Y-119834285D01*
X175594342Y-119834285D02*
X175689580Y-119881904D01*
X175689580Y-119881904D02*
X175737200Y-119929523D01*
X175737200Y-119929523D02*
X175784819Y-120024761D01*
X175784819Y-120024761D02*
X175784819Y-120310475D01*
X175784819Y-120310475D02*
X175737200Y-120405713D01*
X175737200Y-120405713D02*
X175689580Y-120453332D01*
X192833333Y-120349087D02*
X192500000Y-119872896D01*
X192261905Y-120349087D02*
X192261905Y-119349087D01*
X192261905Y-119349087D02*
X192642857Y-119349087D01*
X192642857Y-119349087D02*
X192738095Y-119396706D01*
X192738095Y-119396706D02*
X192785714Y-119444325D01*
X192785714Y-119444325D02*
X192833333Y-119539563D01*
X192833333Y-119539563D02*
X192833333Y-119682420D01*
X192833333Y-119682420D02*
X192785714Y-119777658D01*
X192785714Y-119777658D02*
X192738095Y-119825277D01*
X192738095Y-119825277D02*
X192642857Y-119872896D01*
X192642857Y-119872896D02*
X192261905Y-119872896D01*
X193404762Y-119777658D02*
X193309524Y-119730039D01*
X193309524Y-119730039D02*
X193261905Y-119682420D01*
X193261905Y-119682420D02*
X193214286Y-119587182D01*
X193214286Y-119587182D02*
X193214286Y-119539563D01*
X193214286Y-119539563D02*
X193261905Y-119444325D01*
X193261905Y-119444325D02*
X193309524Y-119396706D01*
X193309524Y-119396706D02*
X193404762Y-119349087D01*
X193404762Y-119349087D02*
X193595238Y-119349087D01*
X193595238Y-119349087D02*
X193690476Y-119396706D01*
X193690476Y-119396706D02*
X193738095Y-119444325D01*
X193738095Y-119444325D02*
X193785714Y-119539563D01*
X193785714Y-119539563D02*
X193785714Y-119587182D01*
X193785714Y-119587182D02*
X193738095Y-119682420D01*
X193738095Y-119682420D02*
X193690476Y-119730039D01*
X193690476Y-119730039D02*
X193595238Y-119777658D01*
X193595238Y-119777658D02*
X193404762Y-119777658D01*
X193404762Y-119777658D02*
X193309524Y-119825277D01*
X193309524Y-119825277D02*
X193261905Y-119872896D01*
X193261905Y-119872896D02*
X193214286Y-119968134D01*
X193214286Y-119968134D02*
X193214286Y-120158610D01*
X193214286Y-120158610D02*
X193261905Y-120253848D01*
X193261905Y-120253848D02*
X193309524Y-120301468D01*
X193309524Y-120301468D02*
X193404762Y-120349087D01*
X193404762Y-120349087D02*
X193595238Y-120349087D01*
X193595238Y-120349087D02*
X193690476Y-120301468D01*
X193690476Y-120301468D02*
X193738095Y-120253848D01*
X193738095Y-120253848D02*
X193785714Y-120158610D01*
X193785714Y-120158610D02*
X193785714Y-119968134D01*
X193785714Y-119968134D02*
X193738095Y-119872896D01*
X193738095Y-119872896D02*
X193690476Y-119825277D01*
X193690476Y-119825277D02*
X193595238Y-119777658D01*
X198511601Y-129159580D02*
X198463982Y-129207200D01*
X198463982Y-129207200D02*
X198321125Y-129254819D01*
X198321125Y-129254819D02*
X198225887Y-129254819D01*
X198225887Y-129254819D02*
X198083030Y-129207200D01*
X198083030Y-129207200D02*
X197987792Y-129111961D01*
X197987792Y-129111961D02*
X197940173Y-129016723D01*
X197940173Y-129016723D02*
X197892554Y-128826247D01*
X197892554Y-128826247D02*
X197892554Y-128683390D01*
X197892554Y-128683390D02*
X197940173Y-128492914D01*
X197940173Y-128492914D02*
X197987792Y-128397676D01*
X197987792Y-128397676D02*
X198083030Y-128302438D01*
X198083030Y-128302438D02*
X198225887Y-128254819D01*
X198225887Y-128254819D02*
X198321125Y-128254819D01*
X198321125Y-128254819D02*
X198463982Y-128302438D01*
X198463982Y-128302438D02*
X198511601Y-128350057D01*
X199463982Y-129254819D02*
X198892554Y-129254819D01*
X199178268Y-129254819D02*
X199178268Y-128254819D01*
X199178268Y-128254819D02*
X199083030Y-128397676D01*
X199083030Y-128397676D02*
X198987792Y-128492914D01*
X198987792Y-128492914D02*
X198892554Y-128540533D01*
X199797316Y-128254819D02*
X200416363Y-128254819D01*
X200416363Y-128254819D02*
X200083030Y-128635771D01*
X200083030Y-128635771D02*
X200225887Y-128635771D01*
X200225887Y-128635771D02*
X200321125Y-128683390D01*
X200321125Y-128683390D02*
X200368744Y-128731009D01*
X200368744Y-128731009D02*
X200416363Y-128826247D01*
X200416363Y-128826247D02*
X200416363Y-129064342D01*
X200416363Y-129064342D02*
X200368744Y-129159580D01*
X200368744Y-129159580D02*
X200321125Y-129207200D01*
X200321125Y-129207200D02*
X200225887Y-129254819D01*
X200225887Y-129254819D02*
X199940173Y-129254819D01*
X199940173Y-129254819D02*
X199844935Y-129207200D01*
X199844935Y-129207200D02*
X199797316Y-129159580D01*
X199607142Y-118859580D02*
X199559523Y-118907200D01*
X199559523Y-118907200D02*
X199416666Y-118954819D01*
X199416666Y-118954819D02*
X199321428Y-118954819D01*
X199321428Y-118954819D02*
X199178571Y-118907200D01*
X199178571Y-118907200D02*
X199083333Y-118811961D01*
X199083333Y-118811961D02*
X199035714Y-118716723D01*
X199035714Y-118716723D02*
X198988095Y-118526247D01*
X198988095Y-118526247D02*
X198988095Y-118383390D01*
X198988095Y-118383390D02*
X199035714Y-118192914D01*
X199035714Y-118192914D02*
X199083333Y-118097676D01*
X199083333Y-118097676D02*
X199178571Y-118002438D01*
X199178571Y-118002438D02*
X199321428Y-117954819D01*
X199321428Y-117954819D02*
X199416666Y-117954819D01*
X199416666Y-117954819D02*
X199559523Y-118002438D01*
X199559523Y-118002438D02*
X199607142Y-118050057D01*
X199988095Y-118050057D02*
X200035714Y-118002438D01*
X200035714Y-118002438D02*
X200130952Y-117954819D01*
X200130952Y-117954819D02*
X200369047Y-117954819D01*
X200369047Y-117954819D02*
X200464285Y-118002438D01*
X200464285Y-118002438D02*
X200511904Y-118050057D01*
X200511904Y-118050057D02*
X200559523Y-118145295D01*
X200559523Y-118145295D02*
X200559523Y-118240533D01*
X200559523Y-118240533D02*
X200511904Y-118383390D01*
X200511904Y-118383390D02*
X199940476Y-118954819D01*
X199940476Y-118954819D02*
X200559523Y-118954819D01*
X201416666Y-117954819D02*
X201226190Y-117954819D01*
X201226190Y-117954819D02*
X201130952Y-118002438D01*
X201130952Y-118002438D02*
X201083333Y-118050057D01*
X201083333Y-118050057D02*
X200988095Y-118192914D01*
X200988095Y-118192914D02*
X200940476Y-118383390D01*
X200940476Y-118383390D02*
X200940476Y-118764342D01*
X200940476Y-118764342D02*
X200988095Y-118859580D01*
X200988095Y-118859580D02*
X201035714Y-118907200D01*
X201035714Y-118907200D02*
X201130952Y-118954819D01*
X201130952Y-118954819D02*
X201321428Y-118954819D01*
X201321428Y-118954819D02*
X201416666Y-118907200D01*
X201416666Y-118907200D02*
X201464285Y-118859580D01*
X201464285Y-118859580D02*
X201511904Y-118764342D01*
X201511904Y-118764342D02*
X201511904Y-118526247D01*
X201511904Y-118526247D02*
X201464285Y-118431009D01*
X201464285Y-118431009D02*
X201416666Y-118383390D01*
X201416666Y-118383390D02*
X201321428Y-118335771D01*
X201321428Y-118335771D02*
X201130952Y-118335771D01*
X201130952Y-118335771D02*
X201035714Y-118383390D01*
X201035714Y-118383390D02*
X200988095Y-118431009D01*
X200988095Y-118431009D02*
X200940476Y-118526247D01*
X201622319Y-121416666D02*
X201146128Y-121749999D01*
X201622319Y-121988094D02*
X200622319Y-121988094D01*
X200622319Y-121988094D02*
X200622319Y-121607142D01*
X200622319Y-121607142D02*
X200669938Y-121511904D01*
X200669938Y-121511904D02*
X200717557Y-121464285D01*
X200717557Y-121464285D02*
X200812795Y-121416666D01*
X200812795Y-121416666D02*
X200955652Y-121416666D01*
X200955652Y-121416666D02*
X201050890Y-121464285D01*
X201050890Y-121464285D02*
X201098509Y-121511904D01*
X201098509Y-121511904D02*
X201146128Y-121607142D01*
X201146128Y-121607142D02*
X201146128Y-121988094D01*
X200622319Y-120511904D02*
X200622319Y-120988094D01*
X200622319Y-120988094D02*
X201098509Y-121035713D01*
X201098509Y-121035713D02*
X201050890Y-120988094D01*
X201050890Y-120988094D02*
X201003271Y-120892856D01*
X201003271Y-120892856D02*
X201003271Y-120654761D01*
X201003271Y-120654761D02*
X201050890Y-120559523D01*
X201050890Y-120559523D02*
X201098509Y-120511904D01*
X201098509Y-120511904D02*
X201193747Y-120464285D01*
X201193747Y-120464285D02*
X201431842Y-120464285D01*
X201431842Y-120464285D02*
X201527080Y-120511904D01*
X201527080Y-120511904D02*
X201574700Y-120559523D01*
X201574700Y-120559523D02*
X201622319Y-120654761D01*
X201622319Y-120654761D02*
X201622319Y-120892856D01*
X201622319Y-120892856D02*
X201574700Y-120988094D01*
X201574700Y-120988094D02*
X201527080Y-121035713D01*
X180947142Y-118274819D02*
X180613809Y-117798628D01*
X180375714Y-118274819D02*
X180375714Y-117274819D01*
X180375714Y-117274819D02*
X180756666Y-117274819D01*
X180756666Y-117274819D02*
X180851904Y-117322438D01*
X180851904Y-117322438D02*
X180899523Y-117370057D01*
X180899523Y-117370057D02*
X180947142Y-117465295D01*
X180947142Y-117465295D02*
X180947142Y-117608152D01*
X180947142Y-117608152D02*
X180899523Y-117703390D01*
X180899523Y-117703390D02*
X180851904Y-117751009D01*
X180851904Y-117751009D02*
X180756666Y-117798628D01*
X180756666Y-117798628D02*
X180375714Y-117798628D01*
X181899523Y-118274819D02*
X181328095Y-118274819D01*
X181613809Y-118274819D02*
X181613809Y-117274819D01*
X181613809Y-117274819D02*
X181518571Y-117417676D01*
X181518571Y-117417676D02*
X181423333Y-117512914D01*
X181423333Y-117512914D02*
X181328095Y-117560533D01*
X182804285Y-117274819D02*
X182328095Y-117274819D01*
X182328095Y-117274819D02*
X182280476Y-117751009D01*
X182280476Y-117751009D02*
X182328095Y-117703390D01*
X182328095Y-117703390D02*
X182423333Y-117655771D01*
X182423333Y-117655771D02*
X182661428Y-117655771D01*
X182661428Y-117655771D02*
X182756666Y-117703390D01*
X182756666Y-117703390D02*
X182804285Y-117751009D01*
X182804285Y-117751009D02*
X182851904Y-117846247D01*
X182851904Y-117846247D02*
X182851904Y-118084342D01*
X182851904Y-118084342D02*
X182804285Y-118179580D01*
X182804285Y-118179580D02*
X182756666Y-118227200D01*
X182756666Y-118227200D02*
X182661428Y-118274819D01*
X182661428Y-118274819D02*
X182423333Y-118274819D01*
X182423333Y-118274819D02*
X182328095Y-118227200D01*
X182328095Y-118227200D02*
X182280476Y-118179580D01*
X187607142Y-105859580D02*
X187559523Y-105907200D01*
X187559523Y-105907200D02*
X187416666Y-105954819D01*
X187416666Y-105954819D02*
X187321428Y-105954819D01*
X187321428Y-105954819D02*
X187178571Y-105907200D01*
X187178571Y-105907200D02*
X187083333Y-105811961D01*
X187083333Y-105811961D02*
X187035714Y-105716723D01*
X187035714Y-105716723D02*
X186988095Y-105526247D01*
X186988095Y-105526247D02*
X186988095Y-105383390D01*
X186988095Y-105383390D02*
X187035714Y-105192914D01*
X187035714Y-105192914D02*
X187083333Y-105097676D01*
X187083333Y-105097676D02*
X187178571Y-105002438D01*
X187178571Y-105002438D02*
X187321428Y-104954819D01*
X187321428Y-104954819D02*
X187416666Y-104954819D01*
X187416666Y-104954819D02*
X187559523Y-105002438D01*
X187559523Y-105002438D02*
X187607142Y-105050057D01*
X188559523Y-105954819D02*
X187988095Y-105954819D01*
X188273809Y-105954819D02*
X188273809Y-104954819D01*
X188273809Y-104954819D02*
X188178571Y-105097676D01*
X188178571Y-105097676D02*
X188083333Y-105192914D01*
X188083333Y-105192914D02*
X187988095Y-105240533D01*
X189035714Y-105954819D02*
X189226190Y-105954819D01*
X189226190Y-105954819D02*
X189321428Y-105907200D01*
X189321428Y-105907200D02*
X189369047Y-105859580D01*
X189369047Y-105859580D02*
X189464285Y-105716723D01*
X189464285Y-105716723D02*
X189511904Y-105526247D01*
X189511904Y-105526247D02*
X189511904Y-105145295D01*
X189511904Y-105145295D02*
X189464285Y-105050057D01*
X189464285Y-105050057D02*
X189416666Y-105002438D01*
X189416666Y-105002438D02*
X189321428Y-104954819D01*
X189321428Y-104954819D02*
X189130952Y-104954819D01*
X189130952Y-104954819D02*
X189035714Y-105002438D01*
X189035714Y-105002438D02*
X188988095Y-105050057D01*
X188988095Y-105050057D02*
X188940476Y-105145295D01*
X188940476Y-105145295D02*
X188940476Y-105383390D01*
X188940476Y-105383390D02*
X188988095Y-105478628D01*
X188988095Y-105478628D02*
X189035714Y-105526247D01*
X189035714Y-105526247D02*
X189130952Y-105573866D01*
X189130952Y-105573866D02*
X189321428Y-105573866D01*
X189321428Y-105573866D02*
X189416666Y-105526247D01*
X189416666Y-105526247D02*
X189464285Y-105478628D01*
X189464285Y-105478628D02*
X189511904Y-105383390D01*
X176209524Y-131562295D02*
X176209524Y-130762295D01*
X176209524Y-130762295D02*
X176400000Y-130762295D01*
X176400000Y-130762295D02*
X176514286Y-130800390D01*
X176514286Y-130800390D02*
X176590476Y-130876580D01*
X176590476Y-130876580D02*
X176628571Y-130952771D01*
X176628571Y-130952771D02*
X176666667Y-131105152D01*
X176666667Y-131105152D02*
X176666667Y-131219438D01*
X176666667Y-131219438D02*
X176628571Y-131371819D01*
X176628571Y-131371819D02*
X176590476Y-131448009D01*
X176590476Y-131448009D02*
X176514286Y-131524200D01*
X176514286Y-131524200D02*
X176400000Y-131562295D01*
X176400000Y-131562295D02*
X176209524Y-131562295D01*
X177352381Y-131028961D02*
X177352381Y-131562295D01*
X177161905Y-130724200D02*
X176971428Y-131295628D01*
X176971428Y-131295628D02*
X177466667Y-131295628D01*
X209504819Y-86728571D02*
X209504819Y-86538095D01*
X209504819Y-86538095D02*
X209457200Y-86442857D01*
X209457200Y-86442857D02*
X209409580Y-86395238D01*
X209409580Y-86395238D02*
X209266723Y-86300000D01*
X209266723Y-86300000D02*
X209076247Y-86252381D01*
X209076247Y-86252381D02*
X208695295Y-86252381D01*
X208695295Y-86252381D02*
X208600057Y-86300000D01*
X208600057Y-86300000D02*
X208552438Y-86347619D01*
X208552438Y-86347619D02*
X208504819Y-86442857D01*
X208504819Y-86442857D02*
X208504819Y-86633333D01*
X208504819Y-86633333D02*
X208552438Y-86728571D01*
X208552438Y-86728571D02*
X208600057Y-86776190D01*
X208600057Y-86776190D02*
X208695295Y-86823809D01*
X208695295Y-86823809D02*
X208933390Y-86823809D01*
X208933390Y-86823809D02*
X209028628Y-86776190D01*
X209028628Y-86776190D02*
X209076247Y-86728571D01*
X209076247Y-86728571D02*
X209123866Y-86633333D01*
X209123866Y-86633333D02*
X209123866Y-86442857D01*
X209123866Y-86442857D02*
X209076247Y-86347619D01*
X209076247Y-86347619D02*
X209028628Y-86300000D01*
X209028628Y-86300000D02*
X208933390Y-86252381D01*
X208504819Y-85966666D02*
X209504819Y-85633333D01*
X209504819Y-85633333D02*
X208504819Y-85300000D01*
X208504819Y-84014285D02*
X208504819Y-83823809D01*
X208504819Y-83823809D02*
X208552438Y-83728571D01*
X208552438Y-83728571D02*
X208647676Y-83633333D01*
X208647676Y-83633333D02*
X208838152Y-83585714D01*
X208838152Y-83585714D02*
X209171485Y-83585714D01*
X209171485Y-83585714D02*
X209361961Y-83633333D01*
X209361961Y-83633333D02*
X209457200Y-83728571D01*
X209457200Y-83728571D02*
X209504819Y-83823809D01*
X209504819Y-83823809D02*
X209504819Y-84014285D01*
X209504819Y-84014285D02*
X209457200Y-84109523D01*
X209457200Y-84109523D02*
X209361961Y-84204761D01*
X209361961Y-84204761D02*
X209171485Y-84252380D01*
X209171485Y-84252380D02*
X208838152Y-84252380D01*
X208838152Y-84252380D02*
X208647676Y-84204761D01*
X208647676Y-84204761D02*
X208552438Y-84109523D01*
X208552438Y-84109523D02*
X208504819Y-84014285D01*
X208504819Y-83157142D02*
X209314342Y-83157142D01*
X209314342Y-83157142D02*
X209409580Y-83109523D01*
X209409580Y-83109523D02*
X209457200Y-83061904D01*
X209457200Y-83061904D02*
X209504819Y-82966666D01*
X209504819Y-82966666D02*
X209504819Y-82776190D01*
X209504819Y-82776190D02*
X209457200Y-82680952D01*
X209457200Y-82680952D02*
X209409580Y-82633333D01*
X209409580Y-82633333D02*
X209314342Y-82585714D01*
X209314342Y-82585714D02*
X208504819Y-82585714D01*
X208504819Y-82252380D02*
X208504819Y-81680952D01*
X209504819Y-81966666D02*
X208504819Y-81966666D01*
X202904819Y-86300000D02*
X202904819Y-86776190D01*
X202904819Y-86776190D02*
X203381009Y-86823809D01*
X203381009Y-86823809D02*
X203333390Y-86776190D01*
X203333390Y-86776190D02*
X203285771Y-86680952D01*
X203285771Y-86680952D02*
X203285771Y-86442857D01*
X203285771Y-86442857D02*
X203333390Y-86347619D01*
X203333390Y-86347619D02*
X203381009Y-86300000D01*
X203381009Y-86300000D02*
X203476247Y-86252381D01*
X203476247Y-86252381D02*
X203714342Y-86252381D01*
X203714342Y-86252381D02*
X203809580Y-86300000D01*
X203809580Y-86300000D02*
X203857200Y-86347619D01*
X203857200Y-86347619D02*
X203904819Y-86442857D01*
X203904819Y-86442857D02*
X203904819Y-86680952D01*
X203904819Y-86680952D02*
X203857200Y-86776190D01*
X203857200Y-86776190D02*
X203809580Y-86823809D01*
X202904819Y-85966666D02*
X203904819Y-85633333D01*
X203904819Y-85633333D02*
X202904819Y-85300000D01*
X202904819Y-84014285D02*
X202904819Y-83823809D01*
X202904819Y-83823809D02*
X202952438Y-83728571D01*
X202952438Y-83728571D02*
X203047676Y-83633333D01*
X203047676Y-83633333D02*
X203238152Y-83585714D01*
X203238152Y-83585714D02*
X203571485Y-83585714D01*
X203571485Y-83585714D02*
X203761961Y-83633333D01*
X203761961Y-83633333D02*
X203857200Y-83728571D01*
X203857200Y-83728571D02*
X203904819Y-83823809D01*
X203904819Y-83823809D02*
X203904819Y-84014285D01*
X203904819Y-84014285D02*
X203857200Y-84109523D01*
X203857200Y-84109523D02*
X203761961Y-84204761D01*
X203761961Y-84204761D02*
X203571485Y-84252380D01*
X203571485Y-84252380D02*
X203238152Y-84252380D01*
X203238152Y-84252380D02*
X203047676Y-84204761D01*
X203047676Y-84204761D02*
X202952438Y-84109523D01*
X202952438Y-84109523D02*
X202904819Y-84014285D01*
X202904819Y-83157142D02*
X203714342Y-83157142D01*
X203714342Y-83157142D02*
X203809580Y-83109523D01*
X203809580Y-83109523D02*
X203857200Y-83061904D01*
X203857200Y-83061904D02*
X203904819Y-82966666D01*
X203904819Y-82966666D02*
X203904819Y-82776190D01*
X203904819Y-82776190D02*
X203857200Y-82680952D01*
X203857200Y-82680952D02*
X203809580Y-82633333D01*
X203809580Y-82633333D02*
X203714342Y-82585714D01*
X203714342Y-82585714D02*
X202904819Y-82585714D01*
X202904819Y-82252380D02*
X202904819Y-81680952D01*
X203904819Y-81966666D02*
X202904819Y-81966666D01*
X183088720Y-93040823D02*
X182612530Y-93040823D01*
X182612530Y-93040823D02*
X182564911Y-93517013D01*
X182564911Y-93517013D02*
X182612530Y-93469394D01*
X182612530Y-93469394D02*
X182707768Y-93421775D01*
X182707768Y-93421775D02*
X182945863Y-93421775D01*
X182945863Y-93421775D02*
X183041101Y-93469394D01*
X183041101Y-93469394D02*
X183088720Y-93517013D01*
X183088720Y-93517013D02*
X183136339Y-93612251D01*
X183136339Y-93612251D02*
X183136339Y-93850346D01*
X183136339Y-93850346D02*
X183088720Y-93945584D01*
X183088720Y-93945584D02*
X183041101Y-93993204D01*
X183041101Y-93993204D02*
X182945863Y-94040823D01*
X182945863Y-94040823D02*
X182707768Y-94040823D01*
X182707768Y-94040823D02*
X182612530Y-93993204D01*
X182612530Y-93993204D02*
X182564911Y-93945584D01*
X183422054Y-93040823D02*
X183755387Y-94040823D01*
X183755387Y-94040823D02*
X184088720Y-93040823D01*
X182804819Y-98625594D02*
X181804819Y-98625594D01*
X181804819Y-98625594D02*
X181804819Y-98387499D01*
X181804819Y-98387499D02*
X181852438Y-98244642D01*
X181852438Y-98244642D02*
X181947676Y-98149404D01*
X181947676Y-98149404D02*
X182042914Y-98101785D01*
X182042914Y-98101785D02*
X182233390Y-98054166D01*
X182233390Y-98054166D02*
X182376247Y-98054166D01*
X182376247Y-98054166D02*
X182566723Y-98101785D01*
X182566723Y-98101785D02*
X182661961Y-98149404D01*
X182661961Y-98149404D02*
X182757200Y-98244642D01*
X182757200Y-98244642D02*
X182804819Y-98387499D01*
X182804819Y-98387499D02*
X182804819Y-98625594D01*
X182804819Y-97101785D02*
X182804819Y-97673213D01*
X182804819Y-97387499D02*
X181804819Y-97387499D01*
X181804819Y-97387499D02*
X181947676Y-97482737D01*
X181947676Y-97482737D02*
X182042914Y-97577975D01*
X182042914Y-97577975D02*
X182090533Y-97673213D01*
X187601196Y-125300978D02*
X187648816Y-125348597D01*
X187648816Y-125348597D02*
X187696435Y-125491454D01*
X187696435Y-125491454D02*
X187696435Y-125586692D01*
X187696435Y-125586692D02*
X187648816Y-125729549D01*
X187648816Y-125729549D02*
X187553577Y-125824787D01*
X187553577Y-125824787D02*
X187458339Y-125872406D01*
X187458339Y-125872406D02*
X187267863Y-125920025D01*
X187267863Y-125920025D02*
X187125006Y-125920025D01*
X187125006Y-125920025D02*
X186934530Y-125872406D01*
X186934530Y-125872406D02*
X186839292Y-125824787D01*
X186839292Y-125824787D02*
X186744054Y-125729549D01*
X186744054Y-125729549D02*
X186696435Y-125586692D01*
X186696435Y-125586692D02*
X186696435Y-125491454D01*
X186696435Y-125491454D02*
X186744054Y-125348597D01*
X186744054Y-125348597D02*
X186791673Y-125300978D01*
X187696435Y-124348597D02*
X187696435Y-124920025D01*
X187696435Y-124634311D02*
X186696435Y-124634311D01*
X186696435Y-124634311D02*
X186839292Y-124729549D01*
X186839292Y-124729549D02*
X186934530Y-124824787D01*
X186934530Y-124824787D02*
X186982149Y-124920025D01*
X186696435Y-123443835D02*
X186696435Y-123920025D01*
X186696435Y-123920025D02*
X187172625Y-123967644D01*
X187172625Y-123967644D02*
X187125006Y-123920025D01*
X187125006Y-123920025D02*
X187077387Y-123824787D01*
X187077387Y-123824787D02*
X187077387Y-123586692D01*
X187077387Y-123586692D02*
X187125006Y-123491454D01*
X187125006Y-123491454D02*
X187172625Y-123443835D01*
X187172625Y-123443835D02*
X187267863Y-123396216D01*
X187267863Y-123396216D02*
X187505958Y-123396216D01*
X187505958Y-123396216D02*
X187601196Y-123443835D01*
X187601196Y-123443835D02*
X187648816Y-123491454D01*
X187648816Y-123491454D02*
X187696435Y-123586692D01*
X187696435Y-123586692D02*
X187696435Y-123824787D01*
X187696435Y-123824787D02*
X187648816Y-123920025D01*
X187648816Y-123920025D02*
X187601196Y-123967644D01*
X207761905Y-96204819D02*
X207761905Y-95204819D01*
X207761905Y-95204819D02*
X208000000Y-95204819D01*
X208000000Y-95204819D02*
X208142857Y-95252438D01*
X208142857Y-95252438D02*
X208238095Y-95347676D01*
X208238095Y-95347676D02*
X208285714Y-95442914D01*
X208285714Y-95442914D02*
X208333333Y-95633390D01*
X208333333Y-95633390D02*
X208333333Y-95776247D01*
X208333333Y-95776247D02*
X208285714Y-95966723D01*
X208285714Y-95966723D02*
X208238095Y-96061961D01*
X208238095Y-96061961D02*
X208142857Y-96157200D01*
X208142857Y-96157200D02*
X208000000Y-96204819D01*
X208000000Y-96204819D02*
X207761905Y-96204819D01*
X208714286Y-95300057D02*
X208761905Y-95252438D01*
X208761905Y-95252438D02*
X208857143Y-95204819D01*
X208857143Y-95204819D02*
X209095238Y-95204819D01*
X209095238Y-95204819D02*
X209190476Y-95252438D01*
X209190476Y-95252438D02*
X209238095Y-95300057D01*
X209238095Y-95300057D02*
X209285714Y-95395295D01*
X209285714Y-95395295D02*
X209285714Y-95490533D01*
X209285714Y-95490533D02*
X209238095Y-95633390D01*
X209238095Y-95633390D02*
X208666667Y-96204819D01*
X208666667Y-96204819D02*
X209285714Y-96204819D01*
X185147080Y-110142857D02*
X185194700Y-110190476D01*
X185194700Y-110190476D02*
X185242319Y-110333333D01*
X185242319Y-110333333D02*
X185242319Y-110428571D01*
X185242319Y-110428571D02*
X185194700Y-110571428D01*
X185194700Y-110571428D02*
X185099461Y-110666666D01*
X185099461Y-110666666D02*
X185004223Y-110714285D01*
X185004223Y-110714285D02*
X184813747Y-110761904D01*
X184813747Y-110761904D02*
X184670890Y-110761904D01*
X184670890Y-110761904D02*
X184480414Y-110714285D01*
X184480414Y-110714285D02*
X184385176Y-110666666D01*
X184385176Y-110666666D02*
X184289938Y-110571428D01*
X184289938Y-110571428D02*
X184242319Y-110428571D01*
X184242319Y-110428571D02*
X184242319Y-110333333D01*
X184242319Y-110333333D02*
X184289938Y-110190476D01*
X184289938Y-110190476D02*
X184337557Y-110142857D01*
X185242319Y-109190476D02*
X185242319Y-109761904D01*
X185242319Y-109476190D02*
X184242319Y-109476190D01*
X184242319Y-109476190D02*
X184385176Y-109571428D01*
X184385176Y-109571428D02*
X184480414Y-109666666D01*
X184480414Y-109666666D02*
X184528033Y-109761904D01*
X184242319Y-108333333D02*
X184242319Y-108523809D01*
X184242319Y-108523809D02*
X184289938Y-108619047D01*
X184289938Y-108619047D02*
X184337557Y-108666666D01*
X184337557Y-108666666D02*
X184480414Y-108761904D01*
X184480414Y-108761904D02*
X184670890Y-108809523D01*
X184670890Y-108809523D02*
X185051842Y-108809523D01*
X185051842Y-108809523D02*
X185147080Y-108761904D01*
X185147080Y-108761904D02*
X185194700Y-108714285D01*
X185194700Y-108714285D02*
X185242319Y-108619047D01*
X185242319Y-108619047D02*
X185242319Y-108428571D01*
X185242319Y-108428571D02*
X185194700Y-108333333D01*
X185194700Y-108333333D02*
X185147080Y-108285714D01*
X185147080Y-108285714D02*
X185051842Y-108238095D01*
X185051842Y-108238095D02*
X184813747Y-108238095D01*
X184813747Y-108238095D02*
X184718509Y-108285714D01*
X184718509Y-108285714D02*
X184670890Y-108333333D01*
X184670890Y-108333333D02*
X184623271Y-108428571D01*
X184623271Y-108428571D02*
X184623271Y-108619047D01*
X184623271Y-108619047D02*
X184670890Y-108714285D01*
X184670890Y-108714285D02*
X184718509Y-108761904D01*
X184718509Y-108761904D02*
X184813747Y-108809523D01*
X215107142Y-98954819D02*
X214773809Y-98478628D01*
X214535714Y-98954819D02*
X214535714Y-97954819D01*
X214535714Y-97954819D02*
X214916666Y-97954819D01*
X214916666Y-97954819D02*
X215011904Y-98002438D01*
X215011904Y-98002438D02*
X215059523Y-98050057D01*
X215059523Y-98050057D02*
X215107142Y-98145295D01*
X215107142Y-98145295D02*
X215107142Y-98288152D01*
X215107142Y-98288152D02*
X215059523Y-98383390D01*
X215059523Y-98383390D02*
X215011904Y-98431009D01*
X215011904Y-98431009D02*
X214916666Y-98478628D01*
X214916666Y-98478628D02*
X214535714Y-98478628D01*
X216059523Y-98954819D02*
X215488095Y-98954819D01*
X215773809Y-98954819D02*
X215773809Y-97954819D01*
X215773809Y-97954819D02*
X215678571Y-98097676D01*
X215678571Y-98097676D02*
X215583333Y-98192914D01*
X215583333Y-98192914D02*
X215488095Y-98240533D01*
X216916666Y-98288152D02*
X216916666Y-98954819D01*
X216678571Y-97907200D02*
X216440476Y-98621485D01*
X216440476Y-98621485D02*
X217059523Y-98621485D01*
X201107142Y-110647080D02*
X201059523Y-110694700D01*
X201059523Y-110694700D02*
X200916666Y-110742319D01*
X200916666Y-110742319D02*
X200821428Y-110742319D01*
X200821428Y-110742319D02*
X200678571Y-110694700D01*
X200678571Y-110694700D02*
X200583333Y-110599461D01*
X200583333Y-110599461D02*
X200535714Y-110504223D01*
X200535714Y-110504223D02*
X200488095Y-110313747D01*
X200488095Y-110313747D02*
X200488095Y-110170890D01*
X200488095Y-110170890D02*
X200535714Y-109980414D01*
X200535714Y-109980414D02*
X200583333Y-109885176D01*
X200583333Y-109885176D02*
X200678571Y-109789938D01*
X200678571Y-109789938D02*
X200821428Y-109742319D01*
X200821428Y-109742319D02*
X200916666Y-109742319D01*
X200916666Y-109742319D02*
X201059523Y-109789938D01*
X201059523Y-109789938D02*
X201107142Y-109837557D01*
X201488095Y-109837557D02*
X201535714Y-109789938D01*
X201535714Y-109789938D02*
X201630952Y-109742319D01*
X201630952Y-109742319D02*
X201869047Y-109742319D01*
X201869047Y-109742319D02*
X201964285Y-109789938D01*
X201964285Y-109789938D02*
X202011904Y-109837557D01*
X202011904Y-109837557D02*
X202059523Y-109932795D01*
X202059523Y-109932795D02*
X202059523Y-110028033D01*
X202059523Y-110028033D02*
X202011904Y-110170890D01*
X202011904Y-110170890D02*
X201440476Y-110742319D01*
X201440476Y-110742319D02*
X202059523Y-110742319D01*
X202964285Y-109742319D02*
X202488095Y-109742319D01*
X202488095Y-109742319D02*
X202440476Y-110218509D01*
X202440476Y-110218509D02*
X202488095Y-110170890D01*
X202488095Y-110170890D02*
X202583333Y-110123271D01*
X202583333Y-110123271D02*
X202821428Y-110123271D01*
X202821428Y-110123271D02*
X202916666Y-110170890D01*
X202916666Y-110170890D02*
X202964285Y-110218509D01*
X202964285Y-110218509D02*
X203011904Y-110313747D01*
X203011904Y-110313747D02*
X203011904Y-110551842D01*
X203011904Y-110551842D02*
X202964285Y-110647080D01*
X202964285Y-110647080D02*
X202916666Y-110694700D01*
X202916666Y-110694700D02*
X202821428Y-110742319D01*
X202821428Y-110742319D02*
X202583333Y-110742319D01*
X202583333Y-110742319D02*
X202488095Y-110694700D01*
X202488095Y-110694700D02*
X202440476Y-110647080D01*
X204309580Y-138951451D02*
X204357200Y-138999070D01*
X204357200Y-138999070D02*
X204404819Y-139141927D01*
X204404819Y-139141927D02*
X204404819Y-139237165D01*
X204404819Y-139237165D02*
X204357200Y-139380022D01*
X204357200Y-139380022D02*
X204261961Y-139475260D01*
X204261961Y-139475260D02*
X204166723Y-139522879D01*
X204166723Y-139522879D02*
X203976247Y-139570498D01*
X203976247Y-139570498D02*
X203833390Y-139570498D01*
X203833390Y-139570498D02*
X203642914Y-139522879D01*
X203642914Y-139522879D02*
X203547676Y-139475260D01*
X203547676Y-139475260D02*
X203452438Y-139380022D01*
X203452438Y-139380022D02*
X203404819Y-139237165D01*
X203404819Y-139237165D02*
X203404819Y-139141927D01*
X203404819Y-139141927D02*
X203452438Y-138999070D01*
X203452438Y-138999070D02*
X203500057Y-138951451D01*
X204404819Y-137999070D02*
X204404819Y-138570498D01*
X204404819Y-138284784D02*
X203404819Y-138284784D01*
X203404819Y-138284784D02*
X203547676Y-138380022D01*
X203547676Y-138380022D02*
X203642914Y-138475260D01*
X203642914Y-138475260D02*
X203690533Y-138570498D01*
X190107142Y-102254819D02*
X189773809Y-101778628D01*
X189535714Y-102254819D02*
X189535714Y-101254819D01*
X189535714Y-101254819D02*
X189916666Y-101254819D01*
X189916666Y-101254819D02*
X190011904Y-101302438D01*
X190011904Y-101302438D02*
X190059523Y-101350057D01*
X190059523Y-101350057D02*
X190107142Y-101445295D01*
X190107142Y-101445295D02*
X190107142Y-101588152D01*
X190107142Y-101588152D02*
X190059523Y-101683390D01*
X190059523Y-101683390D02*
X190011904Y-101731009D01*
X190011904Y-101731009D02*
X189916666Y-101778628D01*
X189916666Y-101778628D02*
X189535714Y-101778628D01*
X191059523Y-102254819D02*
X190488095Y-102254819D01*
X190773809Y-102254819D02*
X190773809Y-101254819D01*
X190773809Y-101254819D02*
X190678571Y-101397676D01*
X190678571Y-101397676D02*
X190583333Y-101492914D01*
X190583333Y-101492914D02*
X190488095Y-101540533D01*
X191678571Y-101254819D02*
X191773809Y-101254819D01*
X191773809Y-101254819D02*
X191869047Y-101302438D01*
X191869047Y-101302438D02*
X191916666Y-101350057D01*
X191916666Y-101350057D02*
X191964285Y-101445295D01*
X191964285Y-101445295D02*
X192011904Y-101635771D01*
X192011904Y-101635771D02*
X192011904Y-101873866D01*
X192011904Y-101873866D02*
X191964285Y-102064342D01*
X191964285Y-102064342D02*
X191916666Y-102159580D01*
X191916666Y-102159580D02*
X191869047Y-102207200D01*
X191869047Y-102207200D02*
X191773809Y-102254819D01*
X191773809Y-102254819D02*
X191678571Y-102254819D01*
X191678571Y-102254819D02*
X191583333Y-102207200D01*
X191583333Y-102207200D02*
X191535714Y-102159580D01*
X191535714Y-102159580D02*
X191488095Y-102064342D01*
X191488095Y-102064342D02*
X191440476Y-101873866D01*
X191440476Y-101873866D02*
X191440476Y-101635771D01*
X191440476Y-101635771D02*
X191488095Y-101445295D01*
X191488095Y-101445295D02*
X191535714Y-101350057D01*
X191535714Y-101350057D02*
X191583333Y-101302438D01*
X191583333Y-101302438D02*
X191678571Y-101254819D01*
X194333157Y-112955307D02*
X193856464Y-112955307D01*
X193856464Y-112955307D02*
X193856464Y-111954252D01*
X194571503Y-111954252D02*
X195191204Y-111954252D01*
X195191204Y-111954252D02*
X194857519Y-112335606D01*
X194857519Y-112335606D02*
X195000527Y-112335606D01*
X195000527Y-112335606D02*
X195095866Y-112383275D01*
X195095866Y-112383275D02*
X195143535Y-112430945D01*
X195143535Y-112430945D02*
X195191204Y-112526283D01*
X195191204Y-112526283D02*
X195191204Y-112764630D01*
X195191204Y-112764630D02*
X195143535Y-112859968D01*
X195143535Y-112859968D02*
X195095866Y-112907638D01*
X195095866Y-112907638D02*
X195000527Y-112955307D01*
X195000527Y-112955307D02*
X194714511Y-112955307D01*
X194714511Y-112955307D02*
X194619173Y-112907638D01*
X194619173Y-112907638D02*
X194571503Y-112859968D01*
X205359580Y-107830357D02*
X205407200Y-107877976D01*
X205407200Y-107877976D02*
X205454819Y-108020833D01*
X205454819Y-108020833D02*
X205454819Y-108116071D01*
X205454819Y-108116071D02*
X205407200Y-108258928D01*
X205407200Y-108258928D02*
X205311961Y-108354166D01*
X205311961Y-108354166D02*
X205216723Y-108401785D01*
X205216723Y-108401785D02*
X205026247Y-108449404D01*
X205026247Y-108449404D02*
X204883390Y-108449404D01*
X204883390Y-108449404D02*
X204692914Y-108401785D01*
X204692914Y-108401785D02*
X204597676Y-108354166D01*
X204597676Y-108354166D02*
X204502438Y-108258928D01*
X204502438Y-108258928D02*
X204454819Y-108116071D01*
X204454819Y-108116071D02*
X204454819Y-108020833D01*
X204454819Y-108020833D02*
X204502438Y-107877976D01*
X204502438Y-107877976D02*
X204550057Y-107830357D01*
X204550057Y-107449404D02*
X204502438Y-107401785D01*
X204502438Y-107401785D02*
X204454819Y-107306547D01*
X204454819Y-107306547D02*
X204454819Y-107068452D01*
X204454819Y-107068452D02*
X204502438Y-106973214D01*
X204502438Y-106973214D02*
X204550057Y-106925595D01*
X204550057Y-106925595D02*
X204645295Y-106877976D01*
X204645295Y-106877976D02*
X204740533Y-106877976D01*
X204740533Y-106877976D02*
X204883390Y-106925595D01*
X204883390Y-106925595D02*
X205454819Y-107497023D01*
X205454819Y-107497023D02*
X205454819Y-106877976D01*
X204788152Y-106020833D02*
X205454819Y-106020833D01*
X204407200Y-106258928D02*
X205121485Y-106497023D01*
X205121485Y-106497023D02*
X205121485Y-105877976D01*
X185292295Y-137590475D02*
X184492295Y-137590475D01*
X184492295Y-137590475D02*
X184492295Y-137399999D01*
X184492295Y-137399999D02*
X184530390Y-137285713D01*
X184530390Y-137285713D02*
X184606580Y-137209523D01*
X184606580Y-137209523D02*
X184682771Y-137171428D01*
X184682771Y-137171428D02*
X184835152Y-137133332D01*
X184835152Y-137133332D02*
X184949438Y-137133332D01*
X184949438Y-137133332D02*
X185101819Y-137171428D01*
X185101819Y-137171428D02*
X185178009Y-137209523D01*
X185178009Y-137209523D02*
X185254200Y-137285713D01*
X185254200Y-137285713D02*
X185292295Y-137399999D01*
X185292295Y-137399999D02*
X185292295Y-137590475D01*
X184492295Y-136409523D02*
X184492295Y-136790475D01*
X184492295Y-136790475D02*
X184873247Y-136828571D01*
X184873247Y-136828571D02*
X184835152Y-136790475D01*
X184835152Y-136790475D02*
X184797057Y-136714285D01*
X184797057Y-136714285D02*
X184797057Y-136523809D01*
X184797057Y-136523809D02*
X184835152Y-136447618D01*
X184835152Y-136447618D02*
X184873247Y-136409523D01*
X184873247Y-136409523D02*
X184949438Y-136371428D01*
X184949438Y-136371428D02*
X185139914Y-136371428D01*
X185139914Y-136371428D02*
X185216104Y-136409523D01*
X185216104Y-136409523D02*
X185254200Y-136447618D01*
X185254200Y-136447618D02*
X185292295Y-136523809D01*
X185292295Y-136523809D02*
X185292295Y-136714285D01*
X185292295Y-136714285D02*
X185254200Y-136790475D01*
X185254200Y-136790475D02*
X185216104Y-136828571D01*
X187193333Y-140379580D02*
X187145714Y-140427200D01*
X187145714Y-140427200D02*
X187002857Y-140474819D01*
X187002857Y-140474819D02*
X186907619Y-140474819D01*
X186907619Y-140474819D02*
X186764762Y-140427200D01*
X186764762Y-140427200D02*
X186669524Y-140331961D01*
X186669524Y-140331961D02*
X186621905Y-140236723D01*
X186621905Y-140236723D02*
X186574286Y-140046247D01*
X186574286Y-140046247D02*
X186574286Y-139903390D01*
X186574286Y-139903390D02*
X186621905Y-139712914D01*
X186621905Y-139712914D02*
X186669524Y-139617676D01*
X186669524Y-139617676D02*
X186764762Y-139522438D01*
X186764762Y-139522438D02*
X186907619Y-139474819D01*
X186907619Y-139474819D02*
X187002857Y-139474819D01*
X187002857Y-139474819D02*
X187145714Y-139522438D01*
X187145714Y-139522438D02*
X187193333Y-139570057D01*
X187574286Y-139570057D02*
X187621905Y-139522438D01*
X187621905Y-139522438D02*
X187717143Y-139474819D01*
X187717143Y-139474819D02*
X187955238Y-139474819D01*
X187955238Y-139474819D02*
X188050476Y-139522438D01*
X188050476Y-139522438D02*
X188098095Y-139570057D01*
X188098095Y-139570057D02*
X188145714Y-139665295D01*
X188145714Y-139665295D02*
X188145714Y-139760533D01*
X188145714Y-139760533D02*
X188098095Y-139903390D01*
X188098095Y-139903390D02*
X187526667Y-140474819D01*
X187526667Y-140474819D02*
X188145714Y-140474819D01*
X202568300Y-120442112D02*
X202520681Y-120489732D01*
X202520681Y-120489732D02*
X202377824Y-120537351D01*
X202377824Y-120537351D02*
X202282586Y-120537351D01*
X202282586Y-120537351D02*
X202139729Y-120489732D01*
X202139729Y-120489732D02*
X202044491Y-120394493D01*
X202044491Y-120394493D02*
X201996872Y-120299255D01*
X201996872Y-120299255D02*
X201949253Y-120108779D01*
X201949253Y-120108779D02*
X201949253Y-119965922D01*
X201949253Y-119965922D02*
X201996872Y-119775446D01*
X201996872Y-119775446D02*
X202044491Y-119680208D01*
X202044491Y-119680208D02*
X202139729Y-119584970D01*
X202139729Y-119584970D02*
X202282586Y-119537351D01*
X202282586Y-119537351D02*
X202377824Y-119537351D01*
X202377824Y-119537351D02*
X202520681Y-119584970D01*
X202520681Y-119584970D02*
X202568300Y-119632589D01*
X202949253Y-119632589D02*
X202996872Y-119584970D01*
X202996872Y-119584970D02*
X203092110Y-119537351D01*
X203092110Y-119537351D02*
X203330205Y-119537351D01*
X203330205Y-119537351D02*
X203425443Y-119584970D01*
X203425443Y-119584970D02*
X203473062Y-119632589D01*
X203473062Y-119632589D02*
X203520681Y-119727827D01*
X203520681Y-119727827D02*
X203520681Y-119823065D01*
X203520681Y-119823065D02*
X203473062Y-119965922D01*
X203473062Y-119965922D02*
X202901634Y-120537351D01*
X202901634Y-120537351D02*
X203520681Y-120537351D01*
X203854015Y-119537351D02*
X204520681Y-119537351D01*
X204520681Y-119537351D02*
X204092110Y-120537351D01*
X195612295Y-129633333D02*
X195612295Y-130014285D01*
X195612295Y-130014285D02*
X194812295Y-130014285D01*
X194888485Y-129404762D02*
X194850390Y-129366666D01*
X194850390Y-129366666D02*
X194812295Y-129290476D01*
X194812295Y-129290476D02*
X194812295Y-129100000D01*
X194812295Y-129100000D02*
X194850390Y-129023809D01*
X194850390Y-129023809D02*
X194888485Y-128985714D01*
X194888485Y-128985714D02*
X194964676Y-128947619D01*
X194964676Y-128947619D02*
X195040866Y-128947619D01*
X195040866Y-128947619D02*
X195155152Y-128985714D01*
X195155152Y-128985714D02*
X195612295Y-129442857D01*
X195612295Y-129442857D02*
X195612295Y-128947619D01*
X188254819Y-96642857D02*
X187778628Y-96976190D01*
X188254819Y-97214285D02*
X187254819Y-97214285D01*
X187254819Y-97214285D02*
X187254819Y-96833333D01*
X187254819Y-96833333D02*
X187302438Y-96738095D01*
X187302438Y-96738095D02*
X187350057Y-96690476D01*
X187350057Y-96690476D02*
X187445295Y-96642857D01*
X187445295Y-96642857D02*
X187588152Y-96642857D01*
X187588152Y-96642857D02*
X187683390Y-96690476D01*
X187683390Y-96690476D02*
X187731009Y-96738095D01*
X187731009Y-96738095D02*
X187778628Y-96833333D01*
X187778628Y-96833333D02*
X187778628Y-97214285D01*
X188254819Y-95690476D02*
X188254819Y-96261904D01*
X188254819Y-95976190D02*
X187254819Y-95976190D01*
X187254819Y-95976190D02*
X187397676Y-96071428D01*
X187397676Y-96071428D02*
X187492914Y-96166666D01*
X187492914Y-96166666D02*
X187540533Y-96261904D01*
X187254819Y-95357142D02*
X187254819Y-94738095D01*
X187254819Y-94738095D02*
X187635771Y-95071428D01*
X187635771Y-95071428D02*
X187635771Y-94928571D01*
X187635771Y-94928571D02*
X187683390Y-94833333D01*
X187683390Y-94833333D02*
X187731009Y-94785714D01*
X187731009Y-94785714D02*
X187826247Y-94738095D01*
X187826247Y-94738095D02*
X188064342Y-94738095D01*
X188064342Y-94738095D02*
X188159580Y-94785714D01*
X188159580Y-94785714D02*
X188207200Y-94833333D01*
X188207200Y-94833333D02*
X188254819Y-94928571D01*
X188254819Y-94928571D02*
X188254819Y-95214285D01*
X188254819Y-95214285D02*
X188207200Y-95309523D01*
X188207200Y-95309523D02*
X188159580Y-95357142D01*
X186105249Y-146796719D02*
X185104320Y-146796719D01*
X185104320Y-146796719D02*
X185104320Y-146415413D01*
X185104320Y-146415413D02*
X185151983Y-146320086D01*
X185151983Y-146320086D02*
X185199646Y-146272423D01*
X185199646Y-146272423D02*
X185294973Y-146224760D01*
X185294973Y-146224760D02*
X185437963Y-146224760D01*
X185437963Y-146224760D02*
X185533289Y-146272423D01*
X185533289Y-146272423D02*
X185580953Y-146320086D01*
X185580953Y-146320086D02*
X185628616Y-146415413D01*
X185628616Y-146415413D02*
X185628616Y-146796719D01*
X185104320Y-145891117D02*
X186105249Y-145652800D01*
X186105249Y-145652800D02*
X185390300Y-145462147D01*
X185390300Y-145462147D02*
X186105249Y-145271494D01*
X186105249Y-145271494D02*
X185104320Y-145033178D01*
X186105249Y-144651871D02*
X185104320Y-144651871D01*
X186105249Y-144175238D02*
X185104320Y-144175238D01*
X185104320Y-144175238D02*
X186105249Y-143603279D01*
X186105249Y-143603279D02*
X185104320Y-143603279D01*
X220580952Y-96454819D02*
X220771428Y-96454819D01*
X220771428Y-96454819D02*
X220866666Y-96407200D01*
X220866666Y-96407200D02*
X220914285Y-96359580D01*
X220914285Y-96359580D02*
X221009523Y-96216723D01*
X221009523Y-96216723D02*
X221057142Y-96026247D01*
X221057142Y-96026247D02*
X221057142Y-95645295D01*
X221057142Y-95645295D02*
X221009523Y-95550057D01*
X221009523Y-95550057D02*
X220961904Y-95502438D01*
X220961904Y-95502438D02*
X220866666Y-95454819D01*
X220866666Y-95454819D02*
X220676190Y-95454819D01*
X220676190Y-95454819D02*
X220580952Y-95502438D01*
X220580952Y-95502438D02*
X220533333Y-95550057D01*
X220533333Y-95550057D02*
X220485714Y-95645295D01*
X220485714Y-95645295D02*
X220485714Y-95883390D01*
X220485714Y-95883390D02*
X220533333Y-95978628D01*
X220533333Y-95978628D02*
X220580952Y-96026247D01*
X220580952Y-96026247D02*
X220676190Y-96073866D01*
X220676190Y-96073866D02*
X220866666Y-96073866D01*
X220866666Y-96073866D02*
X220961904Y-96026247D01*
X220961904Y-96026247D02*
X221009523Y-95978628D01*
X221009523Y-95978628D02*
X221057142Y-95883390D01*
X221342857Y-95454819D02*
X221676190Y-96454819D01*
X221676190Y-96454819D02*
X222009523Y-95454819D01*
X193359580Y-102892857D02*
X193407200Y-102940476D01*
X193407200Y-102940476D02*
X193454819Y-103083333D01*
X193454819Y-103083333D02*
X193454819Y-103178571D01*
X193454819Y-103178571D02*
X193407200Y-103321428D01*
X193407200Y-103321428D02*
X193311961Y-103416666D01*
X193311961Y-103416666D02*
X193216723Y-103464285D01*
X193216723Y-103464285D02*
X193026247Y-103511904D01*
X193026247Y-103511904D02*
X192883390Y-103511904D01*
X192883390Y-103511904D02*
X192692914Y-103464285D01*
X192692914Y-103464285D02*
X192597676Y-103416666D01*
X192597676Y-103416666D02*
X192502438Y-103321428D01*
X192502438Y-103321428D02*
X192454819Y-103178571D01*
X192454819Y-103178571D02*
X192454819Y-103083333D01*
X192454819Y-103083333D02*
X192502438Y-102940476D01*
X192502438Y-102940476D02*
X192550057Y-102892857D01*
X193454819Y-101940476D02*
X193454819Y-102511904D01*
X193454819Y-102226190D02*
X192454819Y-102226190D01*
X192454819Y-102226190D02*
X192597676Y-102321428D01*
X192597676Y-102321428D02*
X192692914Y-102416666D01*
X192692914Y-102416666D02*
X192740533Y-102511904D01*
X192883390Y-101369047D02*
X192835771Y-101464285D01*
X192835771Y-101464285D02*
X192788152Y-101511904D01*
X192788152Y-101511904D02*
X192692914Y-101559523D01*
X192692914Y-101559523D02*
X192645295Y-101559523D01*
X192645295Y-101559523D02*
X192550057Y-101511904D01*
X192550057Y-101511904D02*
X192502438Y-101464285D01*
X192502438Y-101464285D02*
X192454819Y-101369047D01*
X192454819Y-101369047D02*
X192454819Y-101178571D01*
X192454819Y-101178571D02*
X192502438Y-101083333D01*
X192502438Y-101083333D02*
X192550057Y-101035714D01*
X192550057Y-101035714D02*
X192645295Y-100988095D01*
X192645295Y-100988095D02*
X192692914Y-100988095D01*
X192692914Y-100988095D02*
X192788152Y-101035714D01*
X192788152Y-101035714D02*
X192835771Y-101083333D01*
X192835771Y-101083333D02*
X192883390Y-101178571D01*
X192883390Y-101178571D02*
X192883390Y-101369047D01*
X192883390Y-101369047D02*
X192931009Y-101464285D01*
X192931009Y-101464285D02*
X192978628Y-101511904D01*
X192978628Y-101511904D02*
X193073866Y-101559523D01*
X193073866Y-101559523D02*
X193264342Y-101559523D01*
X193264342Y-101559523D02*
X193359580Y-101511904D01*
X193359580Y-101511904D02*
X193407200Y-101464285D01*
X193407200Y-101464285D02*
X193454819Y-101369047D01*
X193454819Y-101369047D02*
X193454819Y-101178571D01*
X193454819Y-101178571D02*
X193407200Y-101083333D01*
X193407200Y-101083333D02*
X193359580Y-101035714D01*
X193359580Y-101035714D02*
X193264342Y-100988095D01*
X193264342Y-100988095D02*
X193073866Y-100988095D01*
X193073866Y-100988095D02*
X192978628Y-101035714D01*
X192978628Y-101035714D02*
X192931009Y-101083333D01*
X192931009Y-101083333D02*
X192883390Y-101178571D01*
X206958366Y-132162033D02*
X207005986Y-132209652D01*
X207005986Y-132209652D02*
X207053605Y-132352509D01*
X207053605Y-132352509D02*
X207053605Y-132447747D01*
X207053605Y-132447747D02*
X207005986Y-132590604D01*
X207005986Y-132590604D02*
X206910747Y-132685842D01*
X206910747Y-132685842D02*
X206815509Y-132733461D01*
X206815509Y-132733461D02*
X206625033Y-132781080D01*
X206625033Y-132781080D02*
X206482176Y-132781080D01*
X206482176Y-132781080D02*
X206291700Y-132733461D01*
X206291700Y-132733461D02*
X206196462Y-132685842D01*
X206196462Y-132685842D02*
X206101224Y-132590604D01*
X206101224Y-132590604D02*
X206053605Y-132447747D01*
X206053605Y-132447747D02*
X206053605Y-132352509D01*
X206053605Y-132352509D02*
X206101224Y-132209652D01*
X206101224Y-132209652D02*
X206148843Y-132162033D01*
X206148843Y-131781080D02*
X206101224Y-131733461D01*
X206101224Y-131733461D02*
X206053605Y-131638223D01*
X206053605Y-131638223D02*
X206053605Y-131400128D01*
X206053605Y-131400128D02*
X206101224Y-131304890D01*
X206101224Y-131304890D02*
X206148843Y-131257271D01*
X206148843Y-131257271D02*
X206244081Y-131209652D01*
X206244081Y-131209652D02*
X206339319Y-131209652D01*
X206339319Y-131209652D02*
X206482176Y-131257271D01*
X206482176Y-131257271D02*
X207053605Y-131828699D01*
X207053605Y-131828699D02*
X207053605Y-131209652D01*
X206053605Y-130876318D02*
X206053605Y-130257271D01*
X206053605Y-130257271D02*
X206434557Y-130590604D01*
X206434557Y-130590604D02*
X206434557Y-130447747D01*
X206434557Y-130447747D02*
X206482176Y-130352509D01*
X206482176Y-130352509D02*
X206529795Y-130304890D01*
X206529795Y-130304890D02*
X206625033Y-130257271D01*
X206625033Y-130257271D02*
X206863128Y-130257271D01*
X206863128Y-130257271D02*
X206958366Y-130304890D01*
X206958366Y-130304890D02*
X207005986Y-130352509D01*
X207005986Y-130352509D02*
X207053605Y-130447747D01*
X207053605Y-130447747D02*
X207053605Y-130733461D01*
X207053605Y-130733461D02*
X207005986Y-130828699D01*
X207005986Y-130828699D02*
X206958366Y-130876318D01*
X188333333Y-104454819D02*
X188000000Y-103978628D01*
X187761905Y-104454819D02*
X187761905Y-103454819D01*
X187761905Y-103454819D02*
X188142857Y-103454819D01*
X188142857Y-103454819D02*
X188238095Y-103502438D01*
X188238095Y-103502438D02*
X188285714Y-103550057D01*
X188285714Y-103550057D02*
X188333333Y-103645295D01*
X188333333Y-103645295D02*
X188333333Y-103788152D01*
X188333333Y-103788152D02*
X188285714Y-103883390D01*
X188285714Y-103883390D02*
X188238095Y-103931009D01*
X188238095Y-103931009D02*
X188142857Y-103978628D01*
X188142857Y-103978628D02*
X187761905Y-103978628D01*
X188809524Y-104454819D02*
X189000000Y-104454819D01*
X189000000Y-104454819D02*
X189095238Y-104407200D01*
X189095238Y-104407200D02*
X189142857Y-104359580D01*
X189142857Y-104359580D02*
X189238095Y-104216723D01*
X189238095Y-104216723D02*
X189285714Y-104026247D01*
X189285714Y-104026247D02*
X189285714Y-103645295D01*
X189285714Y-103645295D02*
X189238095Y-103550057D01*
X189238095Y-103550057D02*
X189190476Y-103502438D01*
X189190476Y-103502438D02*
X189095238Y-103454819D01*
X189095238Y-103454819D02*
X188904762Y-103454819D01*
X188904762Y-103454819D02*
X188809524Y-103502438D01*
X188809524Y-103502438D02*
X188761905Y-103550057D01*
X188761905Y-103550057D02*
X188714286Y-103645295D01*
X188714286Y-103645295D02*
X188714286Y-103883390D01*
X188714286Y-103883390D02*
X188761905Y-103978628D01*
X188761905Y-103978628D02*
X188809524Y-104026247D01*
X188809524Y-104026247D02*
X188904762Y-104073866D01*
X188904762Y-104073866D02*
X189095238Y-104073866D01*
X189095238Y-104073866D02*
X189190476Y-104026247D01*
X189190476Y-104026247D02*
X189238095Y-103978628D01*
X189238095Y-103978628D02*
X189285714Y-103883390D01*
X195488095Y-120949087D02*
X195488095Y-121758610D01*
X195488095Y-121758610D02*
X195535714Y-121853848D01*
X195535714Y-121853848D02*
X195583333Y-121901468D01*
X195583333Y-121901468D02*
X195678571Y-121949087D01*
X195678571Y-121949087D02*
X195869047Y-121949087D01*
X195869047Y-121949087D02*
X195964285Y-121901468D01*
X195964285Y-121901468D02*
X196011904Y-121853848D01*
X196011904Y-121853848D02*
X196059523Y-121758610D01*
X196059523Y-121758610D02*
X196059523Y-120949087D01*
X196440476Y-120949087D02*
X197059523Y-120949087D01*
X197059523Y-120949087D02*
X196726190Y-121330039D01*
X196726190Y-121330039D02*
X196869047Y-121330039D01*
X196869047Y-121330039D02*
X196964285Y-121377658D01*
X196964285Y-121377658D02*
X197011904Y-121425277D01*
X197011904Y-121425277D02*
X197059523Y-121520515D01*
X197059523Y-121520515D02*
X197059523Y-121758610D01*
X197059523Y-121758610D02*
X197011904Y-121853848D01*
X197011904Y-121853848D02*
X196964285Y-121901468D01*
X196964285Y-121901468D02*
X196869047Y-121949087D01*
X196869047Y-121949087D02*
X196583333Y-121949087D01*
X196583333Y-121949087D02*
X196488095Y-121901468D01*
X196488095Y-121901468D02*
X196440476Y-121853848D01*
X199584580Y-103367857D02*
X199632200Y-103415476D01*
X199632200Y-103415476D02*
X199679819Y-103558333D01*
X199679819Y-103558333D02*
X199679819Y-103653571D01*
X199679819Y-103653571D02*
X199632200Y-103796428D01*
X199632200Y-103796428D02*
X199536961Y-103891666D01*
X199536961Y-103891666D02*
X199441723Y-103939285D01*
X199441723Y-103939285D02*
X199251247Y-103986904D01*
X199251247Y-103986904D02*
X199108390Y-103986904D01*
X199108390Y-103986904D02*
X198917914Y-103939285D01*
X198917914Y-103939285D02*
X198822676Y-103891666D01*
X198822676Y-103891666D02*
X198727438Y-103796428D01*
X198727438Y-103796428D02*
X198679819Y-103653571D01*
X198679819Y-103653571D02*
X198679819Y-103558333D01*
X198679819Y-103558333D02*
X198727438Y-103415476D01*
X198727438Y-103415476D02*
X198775057Y-103367857D01*
X198775057Y-102986904D02*
X198727438Y-102939285D01*
X198727438Y-102939285D02*
X198679819Y-102844047D01*
X198679819Y-102844047D02*
X198679819Y-102605952D01*
X198679819Y-102605952D02*
X198727438Y-102510714D01*
X198727438Y-102510714D02*
X198775057Y-102463095D01*
X198775057Y-102463095D02*
X198870295Y-102415476D01*
X198870295Y-102415476D02*
X198965533Y-102415476D01*
X198965533Y-102415476D02*
X199108390Y-102463095D01*
X199108390Y-102463095D02*
X199679819Y-103034523D01*
X199679819Y-103034523D02*
X199679819Y-102415476D01*
X198679819Y-101796428D02*
X198679819Y-101701190D01*
X198679819Y-101701190D02*
X198727438Y-101605952D01*
X198727438Y-101605952D02*
X198775057Y-101558333D01*
X198775057Y-101558333D02*
X198870295Y-101510714D01*
X198870295Y-101510714D02*
X199060771Y-101463095D01*
X199060771Y-101463095D02*
X199298866Y-101463095D01*
X199298866Y-101463095D02*
X199489342Y-101510714D01*
X199489342Y-101510714D02*
X199584580Y-101558333D01*
X199584580Y-101558333D02*
X199632200Y-101605952D01*
X199632200Y-101605952D02*
X199679819Y-101701190D01*
X199679819Y-101701190D02*
X199679819Y-101796428D01*
X199679819Y-101796428D02*
X199632200Y-101891666D01*
X199632200Y-101891666D02*
X199584580Y-101939285D01*
X199584580Y-101939285D02*
X199489342Y-101986904D01*
X199489342Y-101986904D02*
X199298866Y-102034523D01*
X199298866Y-102034523D02*
X199060771Y-102034523D01*
X199060771Y-102034523D02*
X198870295Y-101986904D01*
X198870295Y-101986904D02*
X198775057Y-101939285D01*
X198775057Y-101939285D02*
X198727438Y-101891666D01*
X198727438Y-101891666D02*
X198679819Y-101796428D01*
X195470358Y-107466768D02*
X195422739Y-107514388D01*
X195422739Y-107514388D02*
X195279882Y-107562007D01*
X195279882Y-107562007D02*
X195184644Y-107562007D01*
X195184644Y-107562007D02*
X195041787Y-107514388D01*
X195041787Y-107514388D02*
X194946549Y-107419149D01*
X194946549Y-107419149D02*
X194898930Y-107323911D01*
X194898930Y-107323911D02*
X194851311Y-107133435D01*
X194851311Y-107133435D02*
X194851311Y-106990578D01*
X194851311Y-106990578D02*
X194898930Y-106800102D01*
X194898930Y-106800102D02*
X194946549Y-106704864D01*
X194946549Y-106704864D02*
X195041787Y-106609626D01*
X195041787Y-106609626D02*
X195184644Y-106562007D01*
X195184644Y-106562007D02*
X195279882Y-106562007D01*
X195279882Y-106562007D02*
X195422739Y-106609626D01*
X195422739Y-106609626D02*
X195470358Y-106657245D01*
X196422739Y-107562007D02*
X195851311Y-107562007D01*
X196137025Y-107562007D02*
X196137025Y-106562007D01*
X196137025Y-106562007D02*
X196041787Y-106704864D01*
X196041787Y-106704864D02*
X195946549Y-106800102D01*
X195946549Y-106800102D02*
X195851311Y-106847721D01*
X196756073Y-106562007D02*
X197422739Y-106562007D01*
X197422739Y-106562007D02*
X196994168Y-107562007D01*
%TO.C,J3*%
D14*
X211622500Y-122490000D02*
X222112500Y-122490000D01*
X211622500Y-138570000D02*
X211622500Y-122490000D01*
X213242500Y-138570000D02*
X213242500Y-122490000D01*
X220992500Y-138570000D02*
X220992500Y-122490000D01*
X222112500Y-122490000D02*
X222112500Y-135610000D01*
X222112500Y-136210000D02*
X222112500Y-138570000D01*
X222112500Y-138570000D02*
X211622500Y-138570000D01*
%TO.C,J2*%
X211730000Y-100000000D02*
X222220000Y-100000000D01*
X211730000Y-121160000D02*
X211730000Y-100000000D01*
X213350000Y-121160000D02*
X213350000Y-100000000D01*
X221100000Y-121160000D02*
X221100000Y-100000000D01*
X222220000Y-100000000D02*
X222220000Y-118200000D01*
X222220000Y-118800000D02*
X222220000Y-121160000D01*
X222220000Y-121160000D02*
X211730000Y-121160000D01*
%TO.C,R6*%
X199522500Y-123495276D02*
X199522500Y-124004724D01*
X198477500Y-123495276D02*
X198477500Y-124004724D01*
%TO.C,D9*%
X205600000Y-134490000D02*
X205600000Y-140300000D01*
X209900000Y-134490000D02*
X209900000Y-140300000D01*
X209900000Y-134490000D02*
X205600000Y-134490000D01*
%TO.C,D11*%
X206600000Y-118910000D02*
X210900000Y-118910000D01*
X206600000Y-118910000D02*
X206600000Y-113100000D01*
X210900000Y-118910000D02*
X210900000Y-113100000D01*
%TO.C,D10*%
X210400000Y-106310000D02*
X210400000Y-100500000D01*
X206100000Y-106310000D02*
X206100000Y-100500000D01*
X206100000Y-106310000D02*
X210400000Y-106310000D01*
%TO.C,D8*%
X218660000Y-94900000D02*
X218660000Y-90600000D01*
X218660000Y-94900000D02*
X212850000Y-94900000D01*
X218660000Y-90600000D02*
X212850000Y-90600000D01*
%TO.C,D7*%
X188850000Y-94660000D02*
X193150000Y-94660000D01*
X188850000Y-94660000D02*
X188850000Y-88850000D01*
X193150000Y-94660000D02*
X193150000Y-88850000D01*
%TO.C,D6*%
X186990000Y-146350000D02*
X186990000Y-150650000D01*
X186990000Y-146350000D02*
X192800000Y-146350000D01*
X186990000Y-150650000D02*
X192800000Y-150650000D01*
%TO.C,C14*%
X190423041Y-124365835D02*
X190423041Y-124134165D01*
X191143041Y-124365835D02*
X191143041Y-124134165D01*
%TO.C,U1*%
X190065000Y-107713068D02*
X190065000Y-106577500D01*
X191935000Y-106577500D02*
X191935000Y-107997500D01*
X190060000Y-108007500D02*
X189870000Y-108147500D01*
X189870000Y-107867500D01*
X190060000Y-108007500D01*
G36*
X190060000Y-108007500D02*
G01*
X189870000Y-108147500D01*
X189870000Y-107867500D01*
X190060000Y-108007500D01*
G37*
%TO.C,PS1*%
D15*
X85450000Y-87497467D02*
X172450000Y-87497467D01*
X85450000Y-139497467D02*
X85450000Y-87497467D01*
X172450000Y-87497467D02*
X172450000Y-139497467D01*
X172450000Y-139497467D02*
X85450000Y-139497467D01*
%TO.C,GND*%
D14*
X184460000Y-84410000D02*
G75*
G02*
X181560000Y-84410000I-1450000J0D01*
G01*
X181560000Y-84410000D02*
G75*
G02*
X184460000Y-84410000I1450000J0D01*
G01*
D16*
%TO.C,G\u002A\u002A\u002A*%
G36*
X109940048Y-103963263D02*
G01*
X110032076Y-104172605D01*
X110161701Y-104494758D01*
X110302787Y-104863735D01*
X110511699Y-105396744D01*
X110671188Y-105746719D01*
X110782259Y-105915309D01*
X110845934Y-105904165D01*
X110863229Y-105777076D01*
X110874592Y-105590933D01*
X110900169Y-105282563D01*
X110932668Y-104936930D01*
X110992706Y-104546065D01*
X111071819Y-104336671D01*
X111162654Y-104300507D01*
X111257858Y-104429342D01*
X111350087Y-104714983D01*
X111431981Y-105149182D01*
X111480483Y-105549783D01*
X111539316Y-105951873D01*
X111625536Y-106312148D01*
X111721937Y-106561038D01*
X111736140Y-106584356D01*
X111884932Y-106756966D01*
X112144175Y-107008641D01*
X112473307Y-107301355D01*
X112730741Y-107516155D01*
X113307245Y-108006449D01*
X113765424Y-108456490D01*
X114153107Y-108920360D01*
X114518131Y-109452178D01*
X114691499Y-109734360D01*
X114909531Y-110095840D01*
X115110523Y-110423904D01*
X115259299Y-110661290D01*
X115287621Y-110704949D01*
X115397602Y-110900812D01*
X115557151Y-111220880D01*
X115740924Y-111613239D01*
X115853587Y-111864728D01*
X116078635Y-112344772D01*
X116357526Y-112892213D01*
X116665089Y-113461997D01*
X116976149Y-114009079D01*
X117265514Y-114488419D01*
X117508019Y-114854937D01*
X117576461Y-114947325D01*
X117868415Y-115228424D01*
X118193630Y-115390567D01*
X118477354Y-115408822D01*
X118684786Y-115336860D01*
X118957584Y-115209156D01*
X119030384Y-115170232D01*
X119388121Y-114972781D01*
X119267742Y-115230939D01*
X119036545Y-115541282D01*
X118720814Y-115691394D01*
X118341390Y-115680629D01*
X117919113Y-115508317D01*
X117599350Y-115283123D01*
X117295844Y-115039873D01*
X117084530Y-114910817D01*
X116913343Y-114884755D01*
X116730247Y-114950512D01*
X116547640Y-115057135D01*
X116230569Y-115202421D01*
X115923727Y-115264588D01*
X115854751Y-115262842D01*
X115620929Y-115235017D01*
X115479744Y-115183643D01*
X115347774Y-115064316D01*
X115226752Y-114928519D01*
X115034022Y-114655252D01*
X114960356Y-114378897D01*
X115008112Y-114059565D01*
X115179632Y-113657371D01*
X115316576Y-113405654D01*
X115526321Y-113016995D01*
X115638523Y-112751301D01*
X115666282Y-112575009D01*
X115658709Y-112529085D01*
X115538325Y-112211062D01*
X115325653Y-111777747D01*
X115043344Y-111266671D01*
X114714039Y-110715365D01*
X114360385Y-110161356D01*
X114005020Y-109642156D01*
X113670584Y-109195301D01*
X113578743Y-109082184D01*
X113328051Y-108813505D01*
X112957685Y-108458747D01*
X112501028Y-108046199D01*
X111991500Y-107604137D01*
X111462495Y-107160846D01*
X110947417Y-106744624D01*
X110479669Y-106383740D01*
X110092651Y-106106487D01*
X109970651Y-106027024D01*
X109662838Y-105808439D01*
X109384485Y-105567817D01*
X109285066Y-105462834D01*
X109041735Y-105174914D01*
X109402668Y-105305088D01*
X109656661Y-105379786D01*
X109839231Y-105403635D01*
X109865700Y-105399113D01*
X109909284Y-105293192D01*
X109930353Y-105046790D01*
X109925101Y-104710031D01*
X109921952Y-104656865D01*
X109902698Y-104308320D01*
X109894255Y-104040636D01*
X109898130Y-103905460D01*
X109899662Y-103900209D01*
X109940048Y-103963263D01*
G37*
G36*
X103221847Y-94309118D02*
G01*
X103500745Y-94427697D01*
X103879794Y-94624520D01*
X104331835Y-94882494D01*
X104829670Y-95184510D01*
X105346163Y-95513481D01*
X105854113Y-95852309D01*
X106326351Y-96183886D01*
X106735714Y-96491118D01*
X107055011Y-96756914D01*
X107167840Y-96864263D01*
X107529834Y-97358929D01*
X107806913Y-98015939D01*
X107995412Y-98823958D01*
X108087133Y-99685923D01*
X108123840Y-100222151D01*
X108176666Y-100856095D01*
X108237558Y-101495518D01*
X108279979Y-101891059D01*
X108335187Y-102387271D01*
X108384470Y-102850825D01*
X108422295Y-103228296D01*
X108442555Y-103458496D01*
X108492437Y-103787764D01*
X108585516Y-104167797D01*
X108630386Y-104310903D01*
X108713877Y-104626345D01*
X108703285Y-104786397D01*
X108606868Y-104783758D01*
X108432844Y-104611144D01*
X108375353Y-104536781D01*
X108128706Y-104079708D01*
X107951739Y-103485345D01*
X107856934Y-102799339D01*
X107847115Y-102606338D01*
X107813585Y-101978868D01*
X107757336Y-101522797D01*
X107674227Y-101218779D01*
X107560104Y-101047475D01*
X107505104Y-101011900D01*
X107266007Y-100954170D01*
X106887933Y-100923300D01*
X106421163Y-100919000D01*
X105916045Y-100940955D01*
X105422882Y-100988897D01*
X105179217Y-101025495D01*
X104772974Y-101086283D01*
X104383436Y-101128301D01*
X104109396Y-101142097D01*
X103645090Y-101184094D01*
X103150290Y-101326267D01*
X102588344Y-101581855D01*
X102057712Y-101881710D01*
X101006791Y-102442532D01*
X99822084Y-102937820D01*
X98486763Y-103373741D01*
X96983992Y-103756454D01*
X96885922Y-103778351D01*
X96505375Y-103871220D01*
X96052292Y-103993820D01*
X95697302Y-104097768D01*
X95217323Y-104234435D01*
X94753674Y-104340332D01*
X94250236Y-104425409D01*
X93650907Y-104499630D01*
X93146947Y-104550202D01*
X92645853Y-104599049D01*
X92124408Y-104652622D01*
X91672969Y-104701571D01*
X91553786Y-104715231D01*
X91213272Y-104749201D01*
X90949538Y-104764669D01*
X90818101Y-104758446D01*
X90816682Y-104757840D01*
X90826533Y-104663783D01*
X90909865Y-104434797D01*
X91052396Y-104106390D01*
X91219218Y-103755743D01*
X91413273Y-103347480D01*
X91657267Y-102811458D01*
X91929072Y-102197531D01*
X92206580Y-101555592D01*
X92435310Y-101013419D01*
X92877926Y-99987641D01*
X93304031Y-99083480D01*
X93744476Y-98236806D01*
X93942833Y-97879962D01*
X94228493Y-97377034D01*
X94436481Y-97020048D01*
X94582944Y-96787789D01*
X94684062Y-96659057D01*
X94756024Y-96612639D01*
X94814976Y-96627318D01*
X94865180Y-96670290D01*
X95213353Y-96887293D01*
X95701752Y-97018976D01*
X96297551Y-97061836D01*
X96967931Y-97012392D01*
X97386053Y-96938315D01*
X97784951Y-96865013D01*
X98183059Y-96811626D01*
X98400168Y-96794495D01*
X98822693Y-96777995D01*
X98478922Y-96508657D01*
X98208626Y-96290332D01*
X97884219Y-96019351D01*
X97684895Y-95848621D01*
X97401568Y-95606324D01*
X97140494Y-95388944D01*
X97002730Y-95278485D01*
X96837715Y-95090783D01*
X96818101Y-94930005D01*
X96935158Y-94841091D01*
X97087228Y-94844408D01*
X97304477Y-94868073D01*
X97638997Y-94885098D01*
X98003372Y-94891662D01*
X98353750Y-94907711D01*
X98833799Y-94950888D01*
X99384964Y-95014973D01*
X99948750Y-95093718D01*
X100052020Y-95109748D01*
X100695440Y-95202362D01*
X101325343Y-95276546D01*
X101912782Y-95330514D01*
X102428815Y-95362526D01*
X102844534Y-95370810D01*
X103130962Y-95353589D01*
X103259206Y-95309120D01*
X103261238Y-95305538D01*
X103249975Y-95171925D01*
X103174117Y-94932619D01*
X103111373Y-94779228D01*
X103006445Y-94503189D01*
X102998906Y-94350189D01*
X103070271Y-94285882D01*
X103221847Y-94309118D01*
G37*
G36*
X132921064Y-115046072D02*
G01*
X133556133Y-115116572D01*
X134341016Y-115238801D01*
X134663897Y-115294906D01*
X135770821Y-115491923D01*
X136710443Y-115662055D01*
X137503799Y-115810848D01*
X138171918Y-115943835D01*
X138735843Y-116066551D01*
X139216610Y-116184537D01*
X139635250Y-116303328D01*
X140012795Y-116428459D01*
X140370292Y-116565463D01*
X140728765Y-116719891D01*
X141109250Y-116897263D01*
X141531822Y-117102655D01*
X142031356Y-117344232D01*
X142402796Y-117511798D01*
X142687361Y-117619928D01*
X142926263Y-117683172D01*
X143160701Y-117716089D01*
X143296647Y-117726187D01*
X143594371Y-117757931D01*
X143888333Y-117825881D01*
X144229576Y-117946258D01*
X144669152Y-118135325D01*
X144864923Y-118225009D01*
X145869283Y-118689892D01*
X146752888Y-118591434D01*
X147321022Y-118547128D01*
X148011630Y-118522291D01*
X148761962Y-118516642D01*
X149509261Y-118529853D01*
X150190779Y-118561631D01*
X150737013Y-118610822D01*
X151166016Y-118657370D01*
X151615805Y-118695489D01*
X151850284Y-118709934D01*
X152627541Y-118765511D01*
X153445464Y-118856799D01*
X154252510Y-118975754D01*
X154997164Y-119114303D01*
X155627885Y-119264385D01*
X155884065Y-119341112D01*
X156308516Y-119469276D01*
X156724807Y-119566064D01*
X157184002Y-119639854D01*
X157737176Y-119699006D01*
X158360045Y-119746807D01*
X159068890Y-119802988D01*
X159634687Y-119868189D01*
X160105576Y-119950031D01*
X160529655Y-120056182D01*
X160764321Y-120128988D01*
X161206896Y-120265571D01*
X161647275Y-120386281D01*
X162008189Y-120470368D01*
X162090158Y-120485466D01*
X162401789Y-120547776D01*
X162826229Y-120646698D01*
X163292846Y-120765399D01*
X163512957Y-120824969D01*
X163989557Y-120938606D01*
X164578667Y-121052000D01*
X165202152Y-121151308D01*
X165731732Y-121217600D01*
X166207921Y-121273245D01*
X166613395Y-121331834D01*
X166911306Y-121387207D01*
X167064814Y-121433208D01*
X167076246Y-121442422D01*
X167083318Y-121587613D01*
X167022924Y-121774611D01*
X166978254Y-121865375D01*
X166924323Y-121932734D01*
X166837931Y-121976629D01*
X166695905Y-121996971D01*
X166475056Y-121993701D01*
X166152180Y-121966745D01*
X165704092Y-121916034D01*
X165107600Y-121841504D01*
X164526587Y-121767062D01*
X163831939Y-121674934D01*
X163280268Y-121592276D01*
X162824436Y-121508658D01*
X162417328Y-121413672D01*
X162011823Y-121296900D01*
X161560791Y-121147934D01*
X161277576Y-121048960D01*
X160720742Y-120856754D01*
X160303122Y-120725935D01*
X159986383Y-120647406D01*
X159732149Y-120612055D01*
X159502064Y-120610758D01*
X159447541Y-120614395D01*
X159150872Y-120625157D01*
X158724326Y-120624958D01*
X158228827Y-120614407D01*
X157803388Y-120597959D01*
X157336435Y-120570601D01*
X156944539Y-120531093D01*
X156575615Y-120468926D01*
X156177592Y-120373594D01*
X155698408Y-120234590D01*
X155154019Y-120063230D01*
X154337367Y-119808995D01*
X153673096Y-119620749D01*
X153136158Y-119493547D01*
X152701518Y-119422446D01*
X152344147Y-119402501D01*
X152039003Y-119428772D01*
X151987909Y-119437980D01*
X151721523Y-119478419D01*
X151514443Y-119463578D01*
X151291515Y-119376625D01*
X151008322Y-119218793D01*
X150483059Y-118911205D01*
X148977036Y-118985305D01*
X148387097Y-119017730D01*
X147796627Y-119056116D01*
X147262744Y-119096359D01*
X146842546Y-119134367D01*
X146731608Y-119146535D01*
X145992202Y-119233663D01*
X145382585Y-118874850D01*
X145033864Y-118680740D01*
X144761574Y-118569011D01*
X144484285Y-118514391D01*
X144151399Y-118492716D01*
X143685175Y-118474320D01*
X143308018Y-118451798D01*
X142986353Y-118415360D01*
X142686572Y-118355214D01*
X142375098Y-118261565D01*
X142018329Y-118124634D01*
X141582672Y-117934626D01*
X141034523Y-117681760D01*
X140485888Y-117424544D01*
X138453597Y-116470674D01*
X137282092Y-116270404D01*
X136755909Y-116180692D01*
X136227965Y-116091094D01*
X135765129Y-116012934D01*
X135474799Y-115964274D01*
X135110415Y-115902494D01*
X134629025Y-115819354D01*
X134101772Y-115727197D01*
X133734854Y-115662400D01*
X133136631Y-115564869D01*
X132693125Y-115516215D01*
X132374102Y-115517209D01*
X132149357Y-115568619D01*
X131988671Y-115671206D01*
X131952548Y-115707563D01*
X131855659Y-115926576D01*
X131939600Y-116161651D01*
X132196129Y-116400806D01*
X132575107Y-116613049D01*
X133128933Y-116805827D01*
X133634119Y-116858994D01*
X134059677Y-116771699D01*
X134253870Y-116659435D01*
X134441459Y-116537799D01*
X134558019Y-116505526D01*
X134566865Y-116511811D01*
X134866226Y-116878128D01*
X135145883Y-117129389D01*
X135476382Y-117319171D01*
X135813323Y-117458415D01*
X136432398Y-117639722D01*
X136968631Y-117693410D01*
X137282658Y-117669085D01*
X137478839Y-117594778D01*
X137629665Y-117437950D01*
X137671581Y-117377889D01*
X137861573Y-117130077D01*
X137991616Y-117055549D01*
X138078846Y-117152041D01*
X138123274Y-117318510D01*
X138240803Y-117609531D01*
X138422906Y-117844280D01*
X138844334Y-118182491D01*
X139332507Y-118512195D01*
X139853047Y-118816501D01*
X140371570Y-119078542D01*
X140853692Y-119281443D01*
X141265044Y-119408302D01*
X141571236Y-119442249D01*
X141649276Y-119428421D01*
X141800042Y-119383471D01*
X141887368Y-119390041D01*
X141930239Y-119484392D01*
X141947619Y-119702772D01*
X141956589Y-120015546D01*
X142031889Y-120687222D01*
X142208307Y-121300030D01*
X142468593Y-121795636D01*
X142492590Y-121828565D01*
X142647069Y-122025141D01*
X142749561Y-122095992D01*
X142861936Y-122069001D01*
X142937888Y-122029297D01*
X143078993Y-121918386D01*
X143177570Y-121736743D01*
X143254508Y-121436544D01*
X143293084Y-121216644D01*
X143363860Y-121057736D01*
X143486794Y-121064536D01*
X143646840Y-121223573D01*
X143828972Y-121521351D01*
X143968931Y-121822637D01*
X144146436Y-122215291D01*
X144292522Y-122448927D01*
X144431386Y-122547715D01*
X144587224Y-122535796D01*
X144655073Y-122507673D01*
X144744467Y-122434888D01*
X144802978Y-122292284D01*
X144840299Y-122039503D01*
X144866128Y-121636171D01*
X144866513Y-121627985D01*
X144899612Y-121218358D01*
X144953540Y-120850885D01*
X145017869Y-120592844D01*
X145032460Y-120557269D01*
X145160920Y-120283624D01*
X146117051Y-120663204D01*
X146593441Y-120850496D01*
X147080877Y-121039102D01*
X147505106Y-121200399D01*
X147680736Y-121265693D01*
X148016457Y-121398669D01*
X148194702Y-121497704D01*
X148242361Y-121579031D01*
X148236054Y-121600643D01*
X148134636Y-121688061D01*
X147899147Y-121840096D01*
X147566085Y-122034373D01*
X147221578Y-122222359D01*
X146789636Y-122459821D01*
X146381329Y-122699516D01*
X146050595Y-122908968D01*
X145889326Y-123023993D01*
X145371340Y-123348672D01*
X144713804Y-123628963D01*
X143966572Y-123845780D01*
X143507608Y-123935593D01*
X143113009Y-124006163D01*
X142772848Y-124079735D01*
X142546141Y-124143177D01*
X142510376Y-124157637D01*
X142397165Y-124234055D01*
X142380180Y-124347780D01*
X142457516Y-124556269D01*
X142494392Y-124636449D01*
X142601715Y-124908998D01*
X142603360Y-125028228D01*
X142508295Y-124993886D01*
X142325471Y-124805672D01*
X142197847Y-124645762D01*
X141849506Y-124292779D01*
X141480254Y-124107239D01*
X141111990Y-124098321D01*
X140986308Y-124139089D01*
X140883450Y-124194697D01*
X140825598Y-124277360D01*
X140814468Y-124419340D01*
X140851780Y-124652925D01*
X140939249Y-125010375D01*
X141055634Y-125440469D01*
X141128686Y-125743370D01*
X141131162Y-125870575D01*
X141060966Y-125825100D01*
X140926098Y-125626368D01*
X140789444Y-125454913D01*
X140647829Y-125423017D01*
X140598102Y-125433490D01*
X140423360Y-125518489D01*
X140369222Y-125577234D01*
X140255941Y-125689899D01*
X140041475Y-125825391D01*
X139767910Y-125965815D01*
X139477323Y-126093306D01*
X139211792Y-126189982D01*
X139013416Y-126237969D01*
X138924257Y-126219378D01*
X138928607Y-126189281D01*
X139016641Y-126105756D01*
X139210518Y-125957572D01*
X139336376Y-125868254D01*
X139624445Y-125629966D01*
X139880105Y-125356132D01*
X139939263Y-125276194D01*
X140088612Y-124971975D01*
X140072983Y-124714626D01*
X139883776Y-124470711D01*
X139694946Y-124324862D01*
X139496517Y-124208679D01*
X139288642Y-124149743D01*
X139008322Y-124137796D01*
X138664318Y-124157074D01*
X138319457Y-124189165D01*
X138059810Y-124225002D01*
X137934322Y-124257572D01*
X137929992Y-124261961D01*
X137929617Y-124375248D01*
X137950607Y-124627458D01*
X137988596Y-124967744D01*
X137996082Y-125027925D01*
X138033045Y-125429517D01*
X138019372Y-125646870D01*
X137964006Y-125685398D01*
X137886664Y-125566298D01*
X137811705Y-125316244D01*
X137766569Y-125064530D01*
X137714318Y-124757816D01*
X137655748Y-124538641D01*
X137613758Y-124464472D01*
X137580002Y-124363847D01*
X137653504Y-124193810D01*
X137799671Y-124013752D01*
X137939276Y-123906003D01*
X138252685Y-123788093D01*
X138752446Y-123688361D01*
X139434613Y-123607420D01*
X140238974Y-123548994D01*
X140779246Y-123499415D01*
X141249753Y-123419915D01*
X141595642Y-123320259D01*
X141647426Y-123297640D01*
X141924470Y-123133998D01*
X142108184Y-122965806D01*
X142170163Y-122825559D01*
X142119012Y-122757936D01*
X142044095Y-122659358D01*
X141915560Y-122430443D01*
X141757856Y-122115579D01*
X141714628Y-122024112D01*
X141541644Y-121668204D01*
X141393845Y-121430610D01*
X141220041Y-121254214D01*
X140969014Y-121081892D01*
X140755141Y-120953817D01*
X140428336Y-120748716D01*
X140004258Y-120464454D01*
X139537210Y-120138241D01*
X139081488Y-119807295D01*
X139071551Y-119799905D01*
X138022078Y-119019319D01*
X137391130Y-118947669D01*
X136974700Y-118880777D01*
X136432561Y-118764378D01*
X135796955Y-118608123D01*
X135100106Y-118421642D01*
X134374251Y-118214580D01*
X133651628Y-117996566D01*
X132964467Y-117777230D01*
X132345005Y-117566229D01*
X131825469Y-117373193D01*
X131438102Y-117207755D01*
X131268364Y-117117034D01*
X130882399Y-116805775D01*
X130686730Y-116477492D01*
X130681494Y-116133597D01*
X130866846Y-115775483D01*
X131098012Y-115528036D01*
X131367566Y-115314812D01*
X131659078Y-115161676D01*
X131998113Y-115066958D01*
X132410245Y-115028981D01*
X132921064Y-115046072D01*
G37*
G36*
X162034323Y-123737415D02*
G01*
X162548989Y-123973211D01*
X162936384Y-124141073D01*
X163241841Y-124255057D01*
X163510672Y-124329216D01*
X163788179Y-124377615D01*
X164119687Y-124414286D01*
X164257675Y-124427028D01*
X164670818Y-124464652D01*
X165023241Y-124497237D01*
X165263529Y-124519993D01*
X165327302Y-124526375D01*
X165365798Y-124546016D01*
X165376737Y-124606155D01*
X165353387Y-124724601D01*
X165288963Y-124919202D01*
X165176714Y-125207778D01*
X165009886Y-125608152D01*
X164781702Y-126138158D01*
X164485407Y-126815621D01*
X164295256Y-127247804D01*
X163943690Y-128041834D01*
X163566079Y-128887696D01*
X163183237Y-129739199D01*
X162816009Y-130550188D01*
X162485211Y-131274478D01*
X162228969Y-131828831D01*
X161354071Y-133705448D01*
X160626007Y-133062831D01*
X159951134Y-132470189D01*
X159398867Y-131994640D01*
X158950859Y-131624184D01*
X158588775Y-131346844D01*
X158294272Y-131150626D01*
X158048997Y-131023553D01*
X157834610Y-130953634D01*
X157632765Y-130928879D01*
X157425118Y-130937300D01*
X157380239Y-130942033D01*
X157168305Y-130986142D01*
X156812381Y-131082322D01*
X156349216Y-131219717D01*
X155815556Y-131387447D01*
X155291756Y-131559930D01*
X154503352Y-131820270D01*
X153866467Y-132016903D01*
X153354126Y-132155100D01*
X152939302Y-132240158D01*
X152595029Y-132277367D01*
X152294275Y-132271993D01*
X152010068Y-132229328D01*
X151944760Y-132214932D01*
X151535997Y-132148699D01*
X151104313Y-132120984D01*
X150917561Y-132125572D01*
X150571996Y-132148775D01*
X150261463Y-132167357D01*
X150157761Y-132172620D01*
X149894168Y-132151990D01*
X149501149Y-132082347D01*
X149030039Y-131976651D01*
X148532144Y-131847857D01*
X148058797Y-131708931D01*
X147661317Y-131572831D01*
X147474366Y-131495032D01*
X147193944Y-131380811D01*
X146955039Y-131339777D01*
X146712833Y-131382107D01*
X146422499Y-131518010D01*
X146039193Y-131757671D01*
X145895310Y-131854066D01*
X145490460Y-132159940D01*
X145172405Y-132487932D01*
X144906564Y-132885310D01*
X144658347Y-133399383D01*
X144525284Y-133727147D01*
X144204181Y-134449571D01*
X143875551Y-134986895D01*
X143541086Y-135336661D01*
X143330328Y-135458734D01*
X143011078Y-135494469D01*
X142658511Y-135395965D01*
X142337144Y-135193292D01*
X142111498Y-134916544D01*
X142095293Y-134882869D01*
X142019303Y-134525394D01*
X142038323Y-134030983D01*
X142145574Y-133425173D01*
X142334322Y-132733484D01*
X142597796Y-131981449D01*
X142929246Y-131194590D01*
X143013587Y-131021007D01*
X143724969Y-131021007D01*
X143745521Y-131061089D01*
X143880416Y-131158103D01*
X144117085Y-131291747D01*
X144227960Y-131347741D01*
X144552254Y-131468361D01*
X144797006Y-131462883D01*
X144849093Y-131444212D01*
X145042415Y-131315486D01*
X145291010Y-131092647D01*
X145535616Y-130835271D01*
X145716979Y-130602969D01*
X145759387Y-130528628D01*
X145726848Y-130396870D01*
X145577545Y-130196413D01*
X145350913Y-129968574D01*
X145086410Y-129754710D01*
X144915421Y-129644223D01*
X144741777Y-129557398D01*
X144615827Y-129559524D01*
X144478336Y-129672181D01*
X144314737Y-129863036D01*
X144059563Y-130207485D01*
X143863346Y-130542391D01*
X143745372Y-130827107D01*
X143724969Y-131021007D01*
X143013587Y-131021007D01*
X143241326Y-130552299D01*
X143362428Y-130308809D01*
X143468756Y-130095015D01*
X143598600Y-129789788D01*
X143633837Y-129625441D01*
X143577424Y-129590838D01*
X143484138Y-129638381D01*
X143342320Y-129679605D01*
X143073235Y-129721389D01*
X142799927Y-129749042D01*
X142213313Y-129795420D01*
X141893673Y-130512226D01*
X141703857Y-130911064D01*
X141537242Y-131184132D01*
X141355457Y-131387173D01*
X141205839Y-131511977D01*
X140953309Y-131677120D01*
X140735218Y-131771427D01*
X140664610Y-131780684D01*
X140481665Y-131793169D01*
X140340969Y-131888460D01*
X140213368Y-132100488D01*
X140069745Y-132463207D01*
X140063215Y-132481460D01*
X139814161Y-133047242D01*
X139518351Y-133451761D01*
X139149673Y-133724120D01*
X138835885Y-133851262D01*
X138390758Y-133951377D01*
X138040587Y-133926978D01*
X137725697Y-133766629D01*
X137529153Y-133600681D01*
X137315737Y-133413758D01*
X137147336Y-133332643D01*
X136935133Y-133326671D01*
X136781692Y-133342663D01*
X136426650Y-133362073D01*
X136188950Y-133298348D01*
X136002105Y-133121430D01*
X135982943Y-133092505D01*
X137731011Y-133092505D01*
X137760043Y-133195195D01*
X137925576Y-133419125D01*
X138187816Y-133487912D01*
X138452507Y-133423681D01*
X138631449Y-133285838D01*
X138855327Y-133030585D01*
X139085391Y-132712967D01*
X139282850Y-132388030D01*
X139408961Y-132110818D01*
X139428578Y-132037806D01*
X139391845Y-131751405D01*
X139214459Y-131449885D01*
X139035765Y-131154181D01*
X139021859Y-130947784D01*
X139168289Y-130839668D01*
X139470613Y-130838775D01*
X139514635Y-130845856D01*
X140016896Y-130886250D01*
X140409123Y-130796402D01*
X140727727Y-130557313D01*
X141009092Y-130149995D01*
X141070586Y-130034028D01*
X141190177Y-129771489D01*
X141211563Y-129587126D01*
X141134600Y-129394395D01*
X141069276Y-129284230D01*
X140860255Y-128913168D01*
X140777800Y-128679324D01*
X140823511Y-128575225D01*
X140998968Y-128593425D01*
X141199453Y-128674756D01*
X141710796Y-128828491D01*
X142187293Y-128803728D01*
X142609254Y-128602056D01*
X142665231Y-128557808D01*
X142911988Y-128326807D01*
X143078608Y-128123341D01*
X143146929Y-127977478D01*
X143098808Y-127919332D01*
X143046369Y-127926437D01*
X142891442Y-127945377D01*
X142593722Y-127965463D01*
X142201568Y-127983837D01*
X141911833Y-127993706D01*
X141464622Y-128010035D01*
X141164134Y-128036237D01*
X140965963Y-128084799D01*
X140825673Y-128168214D01*
X140698840Y-128298948D01*
X140659882Y-128345503D01*
X140423556Y-128626963D01*
X140156571Y-128938915D01*
X140077280Y-129030246D01*
X139868030Y-129301609D01*
X139623702Y-129664211D01*
X139399222Y-130036070D01*
X139186220Y-130399320D01*
X138971985Y-130740035D01*
X138801837Y-130986276D01*
X138797521Y-130991931D01*
X138645037Y-131216122D01*
X138438947Y-131552802D01*
X138214001Y-131944322D01*
X138114467Y-132125619D01*
X137909210Y-132513777D01*
X137785959Y-132776910D01*
X137731100Y-132956115D01*
X137731011Y-133092505D01*
X135982943Y-133092505D01*
X135878056Y-132934174D01*
X135777868Y-132754259D01*
X135706997Y-132575888D01*
X135669873Y-132380374D01*
X135669921Y-132369394D01*
X136076528Y-132369394D01*
X136098347Y-132634690D01*
X136184326Y-132764635D01*
X136209142Y-132771153D01*
X136348966Y-132717290D01*
X136538632Y-132566508D01*
X136569214Y-132536031D01*
X136748475Y-132293122D01*
X136867608Y-132131699D01*
X137125375Y-131595079D01*
X137314329Y-130985026D01*
X137315897Y-130978214D01*
X137365188Y-130482597D01*
X137269149Y-129974519D01*
X137264220Y-129958797D01*
X137180898Y-129658622D01*
X137138781Y-129429908D01*
X137141519Y-129343570D01*
X137254923Y-129293315D01*
X137479771Y-129287113D01*
X137532748Y-129292214D01*
X137962272Y-129275387D01*
X138293546Y-129103935D01*
X138543238Y-128766529D01*
X138639662Y-128540522D01*
X138758254Y-128191571D01*
X138858093Y-127861329D01*
X138893061Y-127726386D01*
X138922862Y-127562095D01*
X145050464Y-127562095D01*
X145059413Y-128147466D01*
X145147149Y-128713406D01*
X145384341Y-129176690D01*
X145760016Y-129518607D01*
X145912849Y-129601786D01*
X146249808Y-129853931D01*
X146401973Y-130096009D01*
X146654004Y-130426930D01*
X147027325Y-130648842D01*
X147470774Y-130735793D01*
X147648069Y-130727930D01*
X147848462Y-130697401D01*
X147958123Y-130635340D01*
X147989199Y-130501189D01*
X147953889Y-130254419D01*
X147884271Y-129941137D01*
X147816502Y-129604030D01*
X147742026Y-129168779D01*
X147734960Y-129121151D01*
X148365415Y-129121151D01*
X148381950Y-129373005D01*
X148413419Y-129693479D01*
X148453338Y-130022155D01*
X148495211Y-130298614D01*
X148525376Y-130440304D01*
X148737733Y-130913476D01*
X149073345Y-131247595D01*
X149404120Y-131415319D01*
X149741226Y-131517205D01*
X150065479Y-131575330D01*
X150170218Y-131580797D01*
X150394983Y-131549794D01*
X150552028Y-131430634D01*
X150686762Y-131220725D01*
X150885244Y-130864582D01*
X150512574Y-130690064D01*
X150212041Y-130517015D01*
X149828354Y-130251285D01*
X149414732Y-129934131D01*
X149024383Y-129606816D01*
X148710520Y-129310593D01*
X148650084Y-129246054D01*
X148484400Y-129076127D01*
X148382605Y-128997039D01*
X148370316Y-128998340D01*
X148365415Y-129121151D01*
X147734960Y-129121151D01*
X147676551Y-128727435D01*
X147674438Y-128711693D01*
X147667699Y-128670703D01*
X147605066Y-128290068D01*
X147516530Y-127998388D01*
X147385100Y-127775081D01*
X147257258Y-127628939D01*
X146927494Y-127369562D01*
X146554953Y-127250484D01*
X146103741Y-127266281D01*
X145626575Y-127383287D01*
X145050464Y-127562095D01*
X138922862Y-127562095D01*
X138927164Y-127538378D01*
X138892967Y-127423060D01*
X138752395Y-127331200D01*
X138509541Y-127230255D01*
X138053351Y-127049063D01*
X137623299Y-127768552D01*
X137358922Y-128244636D01*
X137174616Y-128675240D01*
X137028141Y-129162428D01*
X136999657Y-129275680D01*
X136866625Y-129745568D01*
X136699426Y-130238166D01*
X136532910Y-130651300D01*
X136523466Y-130671841D01*
X136342336Y-131119975D01*
X136203888Y-131576180D01*
X136113502Y-132004606D01*
X136076528Y-132369394D01*
X135669921Y-132369394D01*
X135670879Y-132149069D01*
X135714433Y-131863307D01*
X135804937Y-131504424D01*
X135946794Y-131053748D01*
X136144412Y-130492628D01*
X136402191Y-129802396D01*
X136724533Y-128964383D01*
X136954368Y-128373656D01*
X137059189Y-128104867D01*
X137604509Y-126706501D01*
X137377827Y-126430840D01*
X137177171Y-126054721D01*
X137107080Y-125618005D01*
X137178546Y-125201303D01*
X137202330Y-125145144D01*
X137300123Y-124956602D01*
X137361932Y-124876781D01*
X137364579Y-124877079D01*
X137409717Y-124967229D01*
X137500121Y-125191667D01*
X137617305Y-125504202D01*
X137632512Y-125546070D01*
X137869522Y-126200646D01*
X138519973Y-126444280D01*
X139404417Y-126677286D01*
X140301369Y-126720041D01*
X141206008Y-126573148D01*
X142113494Y-126237188D01*
X142157857Y-126213249D01*
X142678553Y-125932335D01*
X143304866Y-125580873D01*
X143819204Y-125355750D01*
X144245295Y-125248006D01*
X144515668Y-125238421D01*
X144696263Y-125234297D01*
X145025572Y-125210909D01*
X145462419Y-125171767D01*
X145965656Y-125120361D01*
X146168178Y-125098068D01*
X146954842Y-124992229D01*
X147622358Y-124859616D01*
X148242425Y-124684265D01*
X148622010Y-124551714D01*
X149077909Y-124394670D01*
X149459497Y-124286324D01*
X149729952Y-124236032D01*
X149839148Y-124242685D01*
X149959476Y-124392539D01*
X150016233Y-124707926D01*
X150021147Y-124820627D01*
X150107925Y-125344387D01*
X150332016Y-125743206D01*
X150681322Y-126012050D01*
X151143725Y-126145908D01*
X151707138Y-126139733D01*
X152359452Y-125988505D01*
X152613138Y-125897813D01*
X153001954Y-125712560D01*
X153454783Y-125443225D01*
X153935681Y-125117341D01*
X154408709Y-124762466D01*
X154837939Y-124406135D01*
X155187414Y-124075884D01*
X155421195Y-123799261D01*
X155477733Y-123702535D01*
X155603678Y-123481862D01*
X155718440Y-123358398D01*
X155740725Y-123350095D01*
X155878015Y-123371597D01*
X156141513Y-123439864D01*
X156476422Y-123540593D01*
X156505760Y-123549978D01*
X156938429Y-123668196D01*
X157283138Y-123704388D01*
X157620514Y-123666392D01*
X157646579Y-123661029D01*
X157924166Y-123606847D01*
X158337451Y-123531618D01*
X158833255Y-123444789D01*
X159358459Y-123355818D01*
X159424029Y-123344930D01*
X160721256Y-123130120D01*
X162034323Y-123737415D01*
G37*
G36*
X97520294Y-91519888D02*
G01*
X97692497Y-91540447D01*
X98036863Y-91580207D01*
X98480668Y-91618920D01*
X98932364Y-91648690D01*
X98965788Y-91650437D01*
X99449489Y-91698049D01*
X100004418Y-91786946D01*
X100520192Y-91899066D01*
X100579009Y-91914512D01*
X100901032Y-91997687D01*
X101167643Y-92050794D01*
X101422232Y-92073463D01*
X101708235Y-92065369D01*
X102069037Y-92026141D01*
X102548059Y-91955429D01*
X102923923Y-91895551D01*
X103782749Y-91766643D01*
X104505321Y-91682498D01*
X105141033Y-91641651D01*
X105739286Y-91642628D01*
X106349469Y-91683950D01*
X107020962Y-91764160D01*
X107076630Y-91771908D01*
X108545014Y-92067441D01*
X110001394Y-92533513D01*
X111396084Y-93152928D01*
X111971748Y-93466339D01*
X112638962Y-93874401D01*
X113302734Y-94320927D01*
X113925304Y-94777721D01*
X114468915Y-95216545D01*
X114895825Y-95609156D01*
X115032029Y-95754388D01*
X115424094Y-96179250D01*
X115816057Y-96555333D01*
X116235211Y-96901209D01*
X116708874Y-97235470D01*
X117264320Y-97576671D01*
X117928856Y-97943397D01*
X118729784Y-98354215D01*
X119180540Y-98577373D01*
X119911907Y-98947702D01*
X120524628Y-99287835D01*
X121078757Y-99635151D01*
X121634362Y-100027049D01*
X122179812Y-100444457D01*
X122793860Y-100926802D01*
X123293038Y-102266774D01*
X123538312Y-102895856D01*
X123745896Y-103360531D01*
X123926079Y-103681728D01*
X124087142Y-103878490D01*
X124266857Y-104053746D01*
X124539703Y-104331480D01*
X124868964Y-104673886D01*
X125217943Y-105043139D01*
X125226375Y-105052148D01*
X125648329Y-105488296D01*
X126126172Y-105959298D01*
X126593287Y-106400488D01*
X126895413Y-106671977D01*
X127429962Y-107165904D01*
X127824126Y-107606786D01*
X128104057Y-108035220D01*
X128295898Y-108491837D01*
X128425794Y-109017255D01*
X128434020Y-109061966D01*
X128530387Y-109562612D01*
X128647543Y-110124097D01*
X128755544Y-110605004D01*
X128824986Y-110999254D01*
X128886156Y-111539915D01*
X128935187Y-112181833D01*
X128968205Y-112879878D01*
X128976357Y-113178508D01*
X129003611Y-114000362D01*
X129048463Y-114656543D01*
X129113433Y-115172405D01*
X129201042Y-115573304D01*
X129220547Y-115638887D01*
X129323772Y-115982881D01*
X129365884Y-116195305D01*
X129344933Y-116326639D01*
X129258934Y-116427375D01*
X129187530Y-116484659D01*
X128763039Y-116711161D01*
X128328141Y-116759978D01*
X127903655Y-116642369D01*
X127510400Y-116369592D01*
X127169198Y-115952899D01*
X126900846Y-115403541D01*
X126837490Y-115213988D01*
X126737352Y-114805489D01*
X126668385Y-114379029D01*
X126650005Y-114143837D01*
X126612198Y-113822737D01*
X126500932Y-113487877D01*
X126295407Y-113082874D01*
X126194670Y-112909612D01*
X125936194Y-112490051D01*
X125753127Y-112231309D01*
X125635367Y-112123091D01*
X125572795Y-112155066D01*
X125556283Y-112258395D01*
X125535532Y-112441946D01*
X125489251Y-112746872D01*
X125429301Y-113096639D01*
X125373119Y-113522176D01*
X125348254Y-113956998D01*
X125355972Y-114243748D01*
X125358194Y-114568005D01*
X125301608Y-114949381D01*
X125177769Y-115434681D01*
X125087384Y-115732857D01*
X124907374Y-116339794D01*
X124791477Y-116833972D01*
X124730292Y-117279695D01*
X124714438Y-117741277D01*
X124729204Y-118186741D01*
X124731400Y-118665954D01*
X124667953Y-118979140D01*
X124523336Y-119145080D01*
X124282070Y-119182496D01*
X123958271Y-119118635D01*
X123574467Y-118952655D01*
X123295360Y-118685219D01*
X123099101Y-118286780D01*
X122974945Y-117790199D01*
X122880316Y-117352031D01*
X122789328Y-117077624D01*
X122706143Y-116976495D01*
X122644333Y-117034628D01*
X122617495Y-117156891D01*
X122575753Y-117412809D01*
X122530273Y-117731635D01*
X122475090Y-118061200D01*
X122413213Y-118309250D01*
X122360228Y-118419110D01*
X122228913Y-118416264D01*
X121998851Y-118342964D01*
X121893492Y-118297352D01*
X121614813Y-118130354D01*
X121428762Y-117902675D01*
X121328397Y-117699644D01*
X121203195Y-117259125D01*
X121143521Y-116707703D01*
X121148130Y-116114194D01*
X121215797Y-115547403D01*
X121345265Y-115076121D01*
X121377009Y-115002494D01*
X121417203Y-114763187D01*
X121376005Y-114480137D01*
X121370612Y-114463465D01*
X121309800Y-114194800D01*
X121263243Y-113824772D01*
X121233812Y-113412062D01*
X121224381Y-113015328D01*
X121237846Y-112693251D01*
X121274726Y-112509267D01*
X121279339Y-112277063D01*
X121127929Y-111934700D01*
X120891029Y-111576785D01*
X120776102Y-111343563D01*
X120669984Y-111000936D01*
X120606575Y-110687265D01*
X120539174Y-110284612D01*
X120470828Y-110036185D01*
X120388237Y-109946077D01*
X120278059Y-110018387D01*
X120126981Y-110257203D01*
X119921672Y-110666625D01*
X119794373Y-110936907D01*
X119583038Y-111394541D01*
X119441626Y-111723735D01*
X119358038Y-111969327D01*
X119320213Y-112176156D01*
X119316063Y-112389049D01*
X119333160Y-112648645D01*
X119374408Y-113064954D01*
X119428708Y-113483821D01*
X119466938Y-113718052D01*
X119501507Y-114047042D01*
X119479247Y-114304902D01*
X119408200Y-114449046D01*
X119327482Y-114456799D01*
X119237267Y-114368834D01*
X119066909Y-114168104D01*
X118850564Y-113895133D01*
X118813616Y-113847014D01*
X118558640Y-113544896D01*
X118303110Y-113293374D01*
X118100036Y-113144297D01*
X118090696Y-113139755D01*
X117771458Y-113067583D01*
X117500157Y-113144026D01*
X117324274Y-113350513D01*
X117293794Y-113451326D01*
X117223932Y-113630901D01*
X117136407Y-113632493D01*
X117056653Y-113464682D01*
X117034701Y-113364120D01*
X117053554Y-113012231D01*
X117213235Y-112712796D01*
X117469152Y-112532637D01*
X117744928Y-112516465D01*
X118083013Y-112611033D01*
X118415172Y-112787453D01*
X118673167Y-113016838D01*
X118701542Y-113054431D01*
X118888889Y-113271438D01*
X119038274Y-113352292D01*
X119111087Y-113306400D01*
X119113868Y-113108707D01*
X119013873Y-112786462D01*
X118825811Y-112365978D01*
X118564356Y-111873560D01*
X118244186Y-111335533D01*
X117880008Y-110778198D01*
X117486492Y-110227879D01*
X117158534Y-109808033D01*
X116804979Y-109312522D01*
X116496953Y-108739482D01*
X116226936Y-108066786D01*
X115987387Y-107272287D01*
X115834427Y-106609612D01*
X116629565Y-106609612D01*
X116692686Y-107157398D01*
X116803971Y-107639943D01*
X117021005Y-108193928D01*
X117315500Y-108754520D01*
X117538851Y-109097057D01*
X117709175Y-109318902D01*
X117807747Y-109380181D01*
X117864923Y-109282076D01*
X117897863Y-109110957D01*
X117965815Y-108854629D01*
X118091388Y-108509171D01*
X118222412Y-108204694D01*
X118496112Y-107617740D01*
X118075902Y-107421792D01*
X117750826Y-107258247D01*
X117369692Y-107049823D01*
X117142637Y-106917732D01*
X116629565Y-106609612D01*
X115834427Y-106609612D01*
X115770777Y-106333858D01*
X115745958Y-106197579D01*
X115569596Y-105229353D01*
X115540664Y-105050402D01*
X115460287Y-104444337D01*
X115416795Y-103888530D01*
X115408536Y-103405644D01*
X115433865Y-103018369D01*
X115491109Y-102749392D01*
X115578615Y-102621384D01*
X115694745Y-102657022D01*
X115713975Y-102677252D01*
X115839706Y-102767721D01*
X116102929Y-102922602D01*
X116469311Y-103122781D01*
X116904525Y-103349141D01*
X117073738Y-103434503D01*
X117521611Y-103661134D01*
X117910172Y-103862602D01*
X118206310Y-104021363D01*
X118376911Y-104119877D01*
X118402055Y-104137985D01*
X118419458Y-104263389D01*
X118287075Y-104431931D01*
X118034237Y-104619344D01*
X117690302Y-104801380D01*
X117507506Y-104877431D01*
X117224068Y-104997828D01*
X117034744Y-105101678D01*
X116982520Y-105159961D01*
X117124712Y-105295171D01*
X117411593Y-105393002D01*
X117799661Y-105450346D01*
X118245448Y-105464109D01*
X118705447Y-105431171D01*
X119136163Y-105348434D01*
X119231246Y-105320543D01*
X119572897Y-105231074D01*
X119750719Y-105229481D01*
X119761621Y-105313263D01*
X119602478Y-105479889D01*
X119514820Y-105550539D01*
X119270669Y-105739478D01*
X119613083Y-106074476D01*
X119875079Y-106293764D01*
X120229976Y-106544014D01*
X120592825Y-106766301D01*
X120942594Y-106953015D01*
X121196014Y-107056206D01*
X121417851Y-107095104D01*
X121672855Y-107088918D01*
X121678332Y-107088496D01*
X122126511Y-107053865D01*
X122578133Y-107806023D01*
X122990454Y-108387479D01*
X123456080Y-108821590D01*
X124013890Y-109134641D01*
X124702741Y-109352930D01*
X124939560Y-109403630D01*
X125099376Y-109462553D01*
X125170268Y-109595222D01*
X125186708Y-109836294D01*
X125283769Y-110507969D01*
X125563889Y-111221658D01*
X126024751Y-111972953D01*
X126664044Y-112757462D01*
X126795181Y-112898985D01*
X126930224Y-113079407D01*
X127017844Y-113308222D01*
X127072691Y-113637365D01*
X127101291Y-113983831D01*
X127161288Y-114635614D01*
X127253213Y-115135417D01*
X127387844Y-115521731D01*
X127575947Y-115833062D01*
X127641123Y-115913747D01*
X127893305Y-116159272D01*
X128164223Y-116347074D01*
X128403961Y-116448463D01*
X128556124Y-116439462D01*
X128589083Y-116322014D01*
X128590431Y-116070048D01*
X128559905Y-115737962D01*
X128559627Y-115735826D01*
X128518169Y-115273144D01*
X128501869Y-114767096D01*
X128508231Y-114463175D01*
X128517763Y-114073802D01*
X128495276Y-113713757D01*
X128431863Y-113337767D01*
X128318623Y-112900561D01*
X128146651Y-112356858D01*
X128021822Y-111990275D01*
X127851357Y-111453158D01*
X127688020Y-110862016D01*
X127556213Y-110308425D01*
X127506854Y-110057976D01*
X127426931Y-109603003D01*
X127367002Y-109293474D01*
X127310491Y-109086883D01*
X127240775Y-108940724D01*
X127141272Y-108812489D01*
X126995375Y-108659677D01*
X126937555Y-108600068D01*
X126722862Y-108376442D01*
X126422114Y-108061905D01*
X126080901Y-107704150D01*
X125844677Y-107455979D01*
X125489777Y-107092046D01*
X125128551Y-106737198D01*
X124812055Y-106440865D01*
X124652336Y-106301251D01*
X124179643Y-105863697D01*
X123786977Y-105390362D01*
X123446432Y-104838476D01*
X123130071Y-104165274D01*
X122935388Y-103672387D01*
X122763390Y-103195285D01*
X122618468Y-102759010D01*
X122513974Y-102406323D01*
X122463265Y-102180010D01*
X122460701Y-102152525D01*
X122432657Y-101986341D01*
X122341903Y-101840226D01*
X122153449Y-101674057D01*
X121865784Y-101470396D01*
X121072691Y-100923515D01*
X120198206Y-100305818D01*
X119372257Y-99710436D01*
X119061238Y-99492416D01*
X118800230Y-99324836D01*
X118633747Y-99235815D01*
X118608765Y-99228605D01*
X118640841Y-99285991D01*
X118787138Y-99449323D01*
X119022343Y-99693882D01*
X119321148Y-99994955D01*
X119658250Y-100327871D01*
X120008364Y-100667898D01*
X120346179Y-100990343D01*
X120646404Y-101270484D01*
X120883728Y-101483646D01*
X121032852Y-101605104D01*
X121058972Y-101621117D01*
X121191734Y-101715595D01*
X121342238Y-101861696D01*
X121457899Y-102002236D01*
X121486133Y-102080025D01*
X121482703Y-102081957D01*
X121387319Y-102038259D01*
X121170627Y-101904371D01*
X120866266Y-101701900D01*
X120558934Y-101488601D01*
X119732685Y-100899049D01*
X119039064Y-100389000D01*
X118449592Y-99935221D01*
X117935777Y-99514518D01*
X117469116Y-99103655D01*
X117021139Y-98679441D01*
X116630308Y-98287474D01*
X116230800Y-97882096D01*
X115850619Y-97503494D01*
X115521371Y-97182634D01*
X115274643Y-96950466D01*
X115181435Y-96868330D01*
X114927662Y-96638472D01*
X114709932Y-96411046D01*
X114661826Y-96352560D01*
X114443318Y-96132125D01*
X114080993Y-95840086D01*
X113600700Y-95492705D01*
X113028270Y-95106276D01*
X112389559Y-94697073D01*
X111710391Y-94281370D01*
X111016610Y-93875439D01*
X110334061Y-93495571D01*
X109688580Y-93158037D01*
X109260994Y-92950233D01*
X108865686Y-92769681D01*
X108546362Y-92640171D01*
X108249558Y-92547807D01*
X107921761Y-92478703D01*
X107509489Y-92418972D01*
X106973277Y-92356306D01*
X106235718Y-92289336D01*
X105619191Y-92271334D01*
X105060088Y-92302004D01*
X104711964Y-92345692D01*
X104263920Y-92408141D01*
X103843399Y-92458669D01*
X103515691Y-92489768D01*
X103412080Y-92495526D01*
X103100993Y-92527358D01*
X102716564Y-92596455D01*
X102497816Y-92647804D01*
X102110017Y-92741312D01*
X101807956Y-92783328D01*
X101525584Y-92770721D01*
X101196931Y-92700370D01*
X100755973Y-92569170D01*
X100742529Y-92564954D01*
X100254770Y-92411820D01*
X99718042Y-92243160D01*
X99246511Y-92094833D01*
X99236068Y-92091546D01*
X98767906Y-91965892D01*
X98254025Y-91860926D01*
X97829862Y-91802116D01*
X97459197Y-91758471D01*
X97141677Y-91702483D01*
X96946644Y-91646479D01*
X96808276Y-91573160D01*
X96846572Y-91535527D01*
X96971336Y-91510890D01*
X97199124Y-91500466D01*
X97520294Y-91519888D01*
G37*
%TO.C,R7*%
D14*
X189715817Y-120571768D02*
X190225265Y-120571768D01*
X189715817Y-121616768D02*
X190225265Y-121616768D01*
%TO.C,J1*%
X71067500Y-92200000D02*
X81557500Y-92200000D01*
X71067500Y-94560000D02*
X71067500Y-92200000D01*
X71067500Y-108280000D02*
X71067500Y-95160000D01*
X72187500Y-92200000D02*
X72187500Y-108280000D01*
X79937500Y-92200000D02*
X79937500Y-108280000D01*
X81557500Y-92200000D02*
X81557500Y-108280000D01*
X81557500Y-108280000D02*
X71067500Y-108280000D01*
X71067500Y-94860000D02*
X70457500Y-95300000D01*
X70457500Y-94420000D01*
X71067500Y-94860000D01*
G36*
X71067500Y-94860000D02*
G01*
X70457500Y-95300000D01*
X70457500Y-94420000D01*
X71067500Y-94860000D01*
G37*
%TO.C,D3*%
X176240000Y-119600000D02*
X176240000Y-122285000D01*
X176240000Y-122285000D02*
X178160000Y-122285000D01*
X178160000Y-122285000D02*
X178160000Y-119600000D01*
%TO.C,R8*%
X193153317Y-120621768D02*
X193662765Y-120621768D01*
X193153317Y-121666768D02*
X193662765Y-121666768D01*
%TO.C,C13*%
X198538748Y-126090000D02*
X199961252Y-126090000D01*
X198538748Y-127910000D02*
X199961252Y-127910000D01*
%TO.C,C26*%
X202818860Y-116194043D02*
X203341364Y-116194043D01*
X202818860Y-117664043D02*
X203341364Y-117664043D01*
%TO.C,R5*%
X200127500Y-124004724D02*
X200127500Y-123495276D01*
X201172500Y-124004724D02*
X201172500Y-123495276D01*
%TO.C,R15*%
X180862936Y-118740000D02*
X182317064Y-118740000D01*
X180862936Y-120560000D02*
X182317064Y-120560000D01*
%TO.C,C19*%
X191162031Y-105028048D02*
X190930361Y-105028048D01*
X191162031Y-105748048D02*
X190930361Y-105748048D01*
%TO.C,D4*%
D15*
X174189868Y-132674001D02*
X179389868Y-132674001D01*
X174189868Y-135594001D02*
X179389868Y-135594001D01*
D10*
X172889868Y-134134001D02*
G75*
G02*
X172689868Y-134134001I-100000J0D01*
G01*
X172689868Y-134134001D02*
G75*
G02*
X172889868Y-134134001I100000J0D01*
G01*
%TO.C,9V OUT*%
D14*
X209940000Y-81340000D02*
X209940000Y-89160000D01*
X209940000Y-87560000D02*
X210860000Y-87560000D01*
X209940000Y-89160000D02*
X210860000Y-89160000D01*
X210860000Y-87560000D02*
X211140000Y-87560000D01*
X210860000Y-89160000D02*
X210860000Y-87560000D01*
X212500000Y-85700000D02*
X212500000Y-81340000D01*
X213500000Y-81340000D02*
X213500000Y-85700000D01*
X213500000Y-85700000D02*
X212500000Y-85700000D01*
X214300000Y-83600000D02*
X214300000Y-81340000D01*
X214800000Y-83600000D02*
X214800000Y-81340000D01*
X214860000Y-87560000D02*
X214860000Y-88775000D01*
X214860000Y-87560000D02*
X215140000Y-87560000D01*
X215140000Y-87560000D02*
X215140000Y-89160000D01*
X215140000Y-89160000D02*
X216060000Y-89160000D01*
X216060000Y-81340000D02*
X209940000Y-81340000D01*
X216060000Y-87560000D02*
X215140000Y-87560000D01*
X216060000Y-89160000D02*
X216060000Y-81340000D01*
X210700000Y-83600000D02*
X211700000Y-83600000D01*
X211700000Y-85200000D01*
X210700000Y-85200000D01*
X210700000Y-83600000D01*
X214300000Y-83600000D02*
X215300000Y-83600000D01*
X215300000Y-85200000D01*
X214300000Y-85200000D01*
X214300000Y-83600000D01*
%TO.C,5V OUT*%
X194690000Y-81730000D02*
X194690000Y-93450000D01*
X194690000Y-93450000D02*
X196110000Y-93450000D01*
X196110000Y-88950000D02*
X198500000Y-88950000D01*
X196110000Y-93450000D02*
X196110000Y-88950000D01*
X198500000Y-81730000D02*
X194690000Y-81730000D01*
X198500000Y-81730000D02*
X202310000Y-81730000D01*
X199450000Y-93140000D02*
X199750000Y-92540000D01*
X199750000Y-92540000D02*
X200050000Y-93140000D01*
X200050000Y-93140000D02*
X199450000Y-93140000D01*
X200890000Y-88950000D02*
X198500000Y-88950000D01*
X200890000Y-93450000D02*
X200890000Y-88950000D01*
X202310000Y-81730000D02*
X202310000Y-93450000D01*
X202310000Y-93450000D02*
X200890000Y-93450000D01*
X197000000Y-82340000D02*
X197500000Y-82340000D01*
X197500000Y-87840000D01*
X197000000Y-87840000D01*
X197000000Y-82340000D01*
X199500000Y-82340000D02*
X200000000Y-82340000D01*
X200000000Y-87840000D01*
X199500000Y-87840000D01*
X199500000Y-82340000D01*
%TO.C,5V*%
X184650000Y-91050000D02*
G75*
G02*
X181750000Y-91050000I-1450000J0D01*
G01*
X181750000Y-91050000D02*
G75*
G02*
X184650000Y-91050000I1450000J0D01*
G01*
%TO.C,D1*%
X183040000Y-96887500D02*
X183040000Y-99572500D01*
X183040000Y-99572500D02*
X184960000Y-99572500D01*
X184960000Y-99572500D02*
X184960000Y-96887500D01*
%TO.C,C15*%
X188186616Y-124919373D02*
X188186616Y-124396869D01*
X189656616Y-124919373D02*
X189656616Y-124396869D01*
%TO.C,D2*%
X209627500Y-95790000D02*
X209627500Y-97710000D01*
X209627500Y-97710000D02*
X212312500Y-97710000D01*
X212312500Y-95790000D02*
X209627500Y-95790000D01*
%TO.C,MAINS TO GROUND*%
X70605000Y-123155000D02*
X81095000Y-123155000D01*
X70605000Y-125515000D02*
X70605000Y-123155000D01*
X70605000Y-134155000D02*
X70605000Y-126115000D01*
X71725000Y-123155000D02*
X71725000Y-134155000D01*
X79475000Y-123155000D02*
X79475000Y-134155000D01*
X81095000Y-123155000D02*
X81095000Y-134155000D01*
X81095000Y-134155000D02*
X70605000Y-134155000D01*
X70605000Y-125815000D02*
X69995000Y-126255000D01*
X69995000Y-125375000D01*
X70605000Y-125815000D01*
G36*
X70605000Y-125815000D02*
G01*
X69995000Y-126255000D01*
X69995000Y-125375000D01*
X70605000Y-125815000D01*
G37*
%TO.C,C16*%
X186988748Y-108765000D02*
X187511252Y-108765000D01*
X186988748Y-110235000D02*
X187511252Y-110235000D01*
%TO.C,R14*%
X215522936Y-96015000D02*
X215977064Y-96015000D01*
X215522936Y-97485000D02*
X215977064Y-97485000D01*
%TO.C,C25*%
X201265000Y-108011252D02*
X201265000Y-107488748D01*
X202735000Y-108011252D02*
X202735000Y-107488748D01*
%TO.C,C1*%
X194760000Y-139864785D02*
X189709000Y-139864785D01*
X194760000Y-139904785D02*
X189715000Y-139904785D01*
X194760000Y-139944785D02*
X189722000Y-139944785D01*
X194760000Y-139984785D02*
X189730000Y-139984785D01*
X194760000Y-140024785D02*
X189737000Y-140024785D01*
X194760000Y-140064785D02*
X189745000Y-140064785D01*
X194760000Y-140104785D02*
X189753000Y-140104785D01*
X194760000Y-140144785D02*
X189761000Y-140144785D01*
X194760000Y-140184785D02*
X189770000Y-140184785D01*
X194760000Y-140224785D02*
X189779000Y-140224785D01*
X194760000Y-140264785D02*
X189788000Y-140264785D01*
X194760000Y-140304785D02*
X189797000Y-140304785D01*
X194760000Y-140344785D02*
X189806000Y-140344785D01*
X194760000Y-140384785D02*
X189816000Y-140384785D01*
X194760000Y-140424785D02*
X189826000Y-140424785D01*
X194760000Y-140464785D02*
X189837000Y-140464785D01*
X194760000Y-140504785D02*
X189847000Y-140504785D01*
X194760000Y-140544785D02*
X189858000Y-140544785D01*
X194760000Y-140584785D02*
X189869000Y-140584785D01*
X194760000Y-140624785D02*
X189881000Y-140624785D01*
X194760000Y-140664785D02*
X189893000Y-140664785D01*
X194760000Y-140704785D02*
X189905000Y-140704785D01*
X194760000Y-140744785D02*
X189917000Y-140744785D01*
X194760000Y-140784785D02*
X189929000Y-140784785D01*
X194760000Y-140824785D02*
X189942000Y-140824785D01*
X194760000Y-140864785D02*
X189955000Y-140864785D01*
X194760000Y-140904785D02*
X189969000Y-140904785D01*
X194760000Y-140944785D02*
X189982000Y-140944785D01*
X194760000Y-140984785D02*
X189996000Y-140984785D01*
X194760000Y-141024785D02*
X190010000Y-141024785D01*
X194760000Y-141064785D02*
X190025000Y-141064785D01*
X194760000Y-141104785D02*
X190040000Y-141104785D01*
X194760000Y-141144785D02*
X190055000Y-141144785D01*
X194760000Y-141184785D02*
X190070000Y-141184785D01*
X194760000Y-141224785D02*
X190086000Y-141224785D01*
X194760000Y-141264785D02*
X190102000Y-141264785D01*
X194760000Y-141304785D02*
X190118000Y-141304785D01*
X194760000Y-141344785D02*
X190135000Y-141344785D01*
X194760000Y-141384785D02*
X190152000Y-141384785D01*
X194760000Y-141424785D02*
X190169000Y-141424785D01*
X194760000Y-141464785D02*
X190187000Y-141464785D01*
X194760000Y-141504785D02*
X190205000Y-141504785D01*
X194760000Y-141544785D02*
X190223000Y-141544785D01*
X194760000Y-141584785D02*
X190241000Y-141584785D01*
X194760000Y-141624785D02*
X190260000Y-141624785D01*
X194760000Y-141664785D02*
X190279000Y-141664785D01*
X194760000Y-141704785D02*
X190299000Y-141704785D01*
X194760000Y-141744785D02*
X190319000Y-141744785D01*
X194760000Y-141784785D02*
X190339000Y-141784785D01*
X194760000Y-141824785D02*
X190359000Y-141824785D01*
X194760000Y-141864785D02*
X190380000Y-141864785D01*
X194760000Y-141904785D02*
X190401000Y-141904785D01*
X194760000Y-141944785D02*
X190423000Y-141944785D01*
X194760000Y-141984785D02*
X190445000Y-141984785D01*
X194760000Y-142024785D02*
X190467000Y-142024785D01*
X194760000Y-142064785D02*
X190490000Y-142064785D01*
X194760000Y-142104785D02*
X190513000Y-142104785D01*
X194760000Y-142144785D02*
X190536000Y-142144785D01*
X194760000Y-142184785D02*
X190560000Y-142184785D01*
X194760000Y-142224785D02*
X190584000Y-142224785D01*
X194760000Y-142264785D02*
X190608000Y-142264785D01*
X194760000Y-142304785D02*
X190633000Y-142304785D01*
X194760000Y-142344785D02*
X190659000Y-142344785D01*
X194760000Y-142384785D02*
X190684000Y-142384785D01*
X194760000Y-142424785D02*
X190711000Y-142424785D01*
X194760000Y-142464785D02*
X190737000Y-142464785D01*
X194760000Y-142504785D02*
X190764000Y-142504785D01*
X194760000Y-142544785D02*
X190791000Y-142544785D01*
X194760000Y-142584785D02*
X190819000Y-142584785D01*
X194760000Y-142624785D02*
X190848000Y-142624785D01*
X194760000Y-142664785D02*
X190876000Y-142664785D01*
X194760000Y-142704785D02*
X190905000Y-142704785D01*
X196674000Y-145384785D02*
X195726000Y-145384785D01*
X197049000Y-145344785D02*
X195351000Y-145344785D01*
X197306000Y-145304785D02*
X195094000Y-145304785D01*
X197514000Y-145264785D02*
X194886000Y-145264785D01*
X197693000Y-145224785D02*
X194707000Y-145224785D01*
X197852000Y-145184785D02*
X194548000Y-145184785D01*
X197997000Y-145144785D02*
X194403000Y-145144785D01*
X198130000Y-145104785D02*
X194270000Y-145104785D01*
X198254000Y-145064785D02*
X194146000Y-145064785D01*
X198371000Y-145024785D02*
X194029000Y-145024785D01*
X198480000Y-144984785D02*
X193920000Y-144984785D01*
X198585000Y-144944785D02*
X193815000Y-144944785D01*
X198684000Y-144904785D02*
X193716000Y-144904785D01*
X198779000Y-144864785D02*
X193621000Y-144864785D01*
X198870000Y-144824785D02*
X193530000Y-144824785D01*
X198957000Y-144784785D02*
X193443000Y-144784785D01*
X199041000Y-144744785D02*
X193359000Y-144744785D01*
X199123000Y-144704785D02*
X193277000Y-144704785D01*
X199201000Y-144664785D02*
X193199000Y-144664785D01*
X199277000Y-144624785D02*
X193123000Y-144624785D01*
X199351000Y-144584785D02*
X193049000Y-144584785D01*
X199423000Y-144544785D02*
X192977000Y-144544785D01*
X199493000Y-144504785D02*
X192907000Y-144504785D01*
X199560000Y-144464785D02*
X192840000Y-144464785D01*
X199626000Y-144424785D02*
X192774000Y-144424785D01*
X199690000Y-144384785D02*
X192710000Y-144384785D01*
X199753000Y-144344785D02*
X192647000Y-144344785D01*
X199814000Y-144304785D02*
X192586000Y-144304785D01*
X199874000Y-144264785D02*
X192526000Y-144264785D01*
X199915000Y-131700216D02*
X199915000Y-133000216D01*
X199932000Y-144224785D02*
X192468000Y-144224785D01*
X199989000Y-144184785D02*
X192411000Y-144184785D01*
X200045000Y-144144785D02*
X192355000Y-144144785D01*
X200100000Y-144104785D02*
X192300000Y-144104785D01*
X200153000Y-144064785D02*
X192247000Y-144064785D01*
X200206000Y-144024785D02*
X192194000Y-144024785D01*
X200257000Y-143984785D02*
X192143000Y-143984785D01*
X200307000Y-143944785D02*
X192093000Y-143944785D01*
X200356000Y-143904785D02*
X192044000Y-143904785D01*
X200405000Y-143864785D02*
X191995000Y-143864785D01*
X200452000Y-143824785D02*
X191948000Y-143824785D01*
X200499000Y-143784785D02*
X191901000Y-143784785D01*
X200544000Y-143744785D02*
X191856000Y-143744785D01*
X200565000Y-132350216D02*
X199265000Y-132350216D01*
X200589000Y-143704785D02*
X191811000Y-143704785D01*
X200633000Y-143664785D02*
X191767000Y-143664785D01*
X200677000Y-143624785D02*
X191723000Y-143624785D01*
X200719000Y-143584785D02*
X191681000Y-143584785D01*
X200761000Y-143544785D02*
X191639000Y-143544785D01*
X200802000Y-143504785D02*
X191598000Y-143504785D01*
X200842000Y-143464785D02*
X191558000Y-143464785D01*
X200882000Y-143424785D02*
X191518000Y-143424785D01*
X200921000Y-143384785D02*
X191479000Y-143384785D01*
X200959000Y-143344785D02*
X191441000Y-143344785D01*
X200997000Y-143304785D02*
X191403000Y-143304785D01*
X201034000Y-143264785D02*
X191366000Y-143264785D01*
X201070000Y-143224785D02*
X191330000Y-143224785D01*
X201106000Y-143184785D02*
X191294000Y-143184785D01*
X201141000Y-143144785D02*
X191259000Y-143144785D01*
X201176000Y-143104785D02*
X191224000Y-143104785D01*
X201210000Y-143064785D02*
X191190000Y-143064785D01*
X201244000Y-143024785D02*
X191156000Y-143024785D01*
X201277000Y-142984785D02*
X191123000Y-142984785D01*
X201310000Y-142944785D02*
X191090000Y-142944785D01*
X201342000Y-142904785D02*
X191058000Y-142904785D01*
X201373000Y-142864785D02*
X191027000Y-142864785D01*
X201404000Y-142824785D02*
X190996000Y-142824785D01*
X201435000Y-142784785D02*
X190965000Y-142784785D01*
X201465000Y-142744785D02*
X190935000Y-142744785D01*
X201495000Y-142704785D02*
X197640000Y-142704785D01*
X201524000Y-142664785D02*
X197640000Y-142664785D01*
X201552000Y-142624785D02*
X197640000Y-142624785D01*
X201581000Y-142584785D02*
X197640000Y-142584785D01*
X201609000Y-142544785D02*
X197640000Y-142544785D01*
X201636000Y-142504785D02*
X197640000Y-142504785D01*
X201663000Y-142464785D02*
X197640000Y-142464785D01*
X201689000Y-142424785D02*
X197640000Y-142424785D01*
X201716000Y-142384785D02*
X197640000Y-142384785D01*
X201741000Y-142344785D02*
X197640000Y-142344785D01*
X201767000Y-142304785D02*
X197640000Y-142304785D01*
X201792000Y-142264785D02*
X197640000Y-142264785D01*
X201816000Y-142224785D02*
X197640000Y-142224785D01*
X201840000Y-142184785D02*
X197640000Y-142184785D01*
X201864000Y-142144785D02*
X197640000Y-142144785D01*
X201887000Y-142104785D02*
X197640000Y-142104785D01*
X201910000Y-142064785D02*
X197640000Y-142064785D01*
X201933000Y-142024785D02*
X197640000Y-142024785D01*
X201955000Y-141984785D02*
X197640000Y-141984785D01*
X201977000Y-141944785D02*
X197640000Y-141944785D01*
X201999000Y-141904785D02*
X197640000Y-141904785D01*
X202020000Y-141864785D02*
X197640000Y-141864785D01*
X202041000Y-141824785D02*
X197640000Y-141824785D01*
X202061000Y-141784785D02*
X197640000Y-141784785D01*
X202081000Y-141744785D02*
X197640000Y-141744785D01*
X202101000Y-141704785D02*
X197640000Y-141704785D01*
X202121000Y-141664785D02*
X197640000Y-141664785D01*
X202140000Y-141624785D02*
X197640000Y-141624785D01*
X202159000Y-141584785D02*
X197640000Y-141584785D01*
X202177000Y-141544785D02*
X197640000Y-141544785D01*
X202195000Y-141504785D02*
X197640000Y-141504785D01*
X202213000Y-141464785D02*
X197640000Y-141464785D01*
X202231000Y-141424785D02*
X197640000Y-141424785D01*
X202248000Y-141384785D02*
X197640000Y-141384785D01*
X202265000Y-141344785D02*
X197640000Y-141344785D01*
X202282000Y-141304785D02*
X197640000Y-141304785D01*
X202298000Y-141264785D02*
X197640000Y-141264785D01*
X202314000Y-141224785D02*
X197640000Y-141224785D01*
X202330000Y-141184785D02*
X197640000Y-141184785D01*
X202345000Y-141144785D02*
X197640000Y-141144785D01*
X202360000Y-141104785D02*
X197640000Y-141104785D01*
X202375000Y-141064785D02*
X197640000Y-141064785D01*
X202390000Y-141024785D02*
X197640000Y-141024785D01*
X202404000Y-140984785D02*
X197640000Y-140984785D01*
X202418000Y-140944785D02*
X197640000Y-140944785D01*
X202431000Y-140904785D02*
X197640000Y-140904785D01*
X202445000Y-140864785D02*
X197640000Y-140864785D01*
X202458000Y-140824785D02*
X197640000Y-140824785D01*
X202471000Y-140784785D02*
X197640000Y-140784785D01*
X202483000Y-140744785D02*
X197640000Y-140744785D01*
X202495000Y-140704785D02*
X197640000Y-140704785D01*
X202507000Y-140664785D02*
X197640000Y-140664785D01*
X202519000Y-140624785D02*
X197640000Y-140624785D01*
X202531000Y-140584785D02*
X197640000Y-140584785D01*
X202542000Y-140544785D02*
X197640000Y-140544785D01*
X202553000Y-140504785D02*
X197640000Y-140504785D01*
X202563000Y-140464785D02*
X197640000Y-140464785D01*
X202574000Y-140424785D02*
X197640000Y-140424785D01*
X202584000Y-140384785D02*
X197640000Y-140384785D01*
X202594000Y-140344785D02*
X197640000Y-140344785D01*
X202603000Y-140304785D02*
X197640000Y-140304785D01*
X202612000Y-140264785D02*
X197640000Y-140264785D01*
X202621000Y-140224785D02*
X197640000Y-140224785D01*
X202630000Y-140184785D02*
X197640000Y-140184785D01*
X202639000Y-140144785D02*
X197640000Y-140144785D01*
X202647000Y-140104785D02*
X197640000Y-140104785D01*
X202655000Y-140064785D02*
X197640000Y-140064785D01*
X202663000Y-140024785D02*
X197640000Y-140024785D01*
X202670000Y-139984785D02*
X197640000Y-139984785D01*
X202678000Y-139944785D02*
X197640000Y-139944785D01*
X202685000Y-139904785D02*
X197640000Y-139904785D01*
X202691000Y-139864785D02*
X197640000Y-139864785D01*
X202698000Y-139824785D02*
X189702000Y-139824785D01*
X202704000Y-139784785D02*
X189696000Y-139784785D01*
X202710000Y-139744785D02*
X189690000Y-139744785D01*
X202716000Y-139704785D02*
X189684000Y-139704785D01*
X202721000Y-139664785D02*
X189679000Y-139664785D01*
X202726000Y-139624785D02*
X189674000Y-139624785D01*
X202731000Y-139584785D02*
X189669000Y-139584785D01*
X202736000Y-139544785D02*
X189664000Y-139544785D01*
X202741000Y-139504785D02*
X189659000Y-139504785D01*
X202745000Y-139464785D02*
X189655000Y-139464785D01*
X202749000Y-139424785D02*
X189651000Y-139424785D01*
X202753000Y-139384785D02*
X189647000Y-139384785D01*
X202756000Y-139344785D02*
X189644000Y-139344785D01*
X202760000Y-139304785D02*
X189640000Y-139304785D01*
X202763000Y-139264785D02*
X189637000Y-139264785D01*
X202765000Y-139224785D02*
X189635000Y-139224785D01*
X202768000Y-139184785D02*
X189632000Y-139184785D01*
X202770000Y-139144785D02*
X189630000Y-139144785D01*
X202772000Y-139104785D02*
X189628000Y-139104785D01*
X202774000Y-139064785D02*
X189626000Y-139064785D01*
X202776000Y-139024785D02*
X189624000Y-139024785D01*
X202777000Y-138984785D02*
X189623000Y-138984785D01*
X202778000Y-138944785D02*
X189622000Y-138944785D01*
X202779000Y-138904785D02*
X189621000Y-138904785D01*
X202780000Y-138784785D02*
X189620000Y-138784785D01*
X202780000Y-138824785D02*
X189620000Y-138824785D01*
X202780000Y-138864785D02*
X189620000Y-138864785D01*
X202820000Y-138784785D02*
G75*
G02*
X189580000Y-138784785I-6620000J0D01*
G01*
X189580000Y-138784785D02*
G75*
G02*
X202820000Y-138784785I6620000J0D01*
G01*
%TO.C,R10*%
X190795423Y-102624333D02*
X191130665Y-102624333D01*
X190795423Y-103384333D02*
X191130665Y-103384333D01*
%TO.C,L3*%
D15*
X190900000Y-109250000D02*
X198100000Y-109250000D01*
X190900000Y-110600000D02*
X190900000Y-109250000D01*
X190900000Y-115750000D02*
X190900000Y-114400000D01*
X198100000Y-109250000D02*
X198100000Y-110600000D01*
X198100000Y-114400000D02*
X198100000Y-115750000D01*
X198100000Y-115750000D02*
X190900000Y-115750000D01*
%TO.C,C24*%
D14*
X204060000Y-107365835D02*
X204060000Y-107134165D01*
X203340000Y-107365835D02*
X203340000Y-107134165D01*
%TO.C,D5*%
D15*
X181205000Y-140800000D02*
X181205000Y-135600000D01*
X184125000Y-140800000D02*
X184125000Y-135600000D01*
D10*
X182765000Y-142200000D02*
G75*
G02*
X182565000Y-142200000I-100000J0D01*
G01*
X182565000Y-142200000D02*
G75*
G02*
X182765000Y-142200000I100000J0D01*
G01*
%TO.C,C2*%
D14*
X186030000Y-134130000D02*
X188770000Y-134130000D01*
X186030000Y-139370000D02*
X186030000Y-134130000D01*
X188770000Y-134130000D02*
X188770000Y-139370000D01*
X188770000Y-139370000D02*
X186030000Y-139370000D01*
%TO.C,C27*%
X203066665Y-119110000D02*
X203298335Y-119110000D01*
X203066665Y-118390000D02*
X203298335Y-118390000D01*
%TO.C,R13*%
X185515000Y-96227064D02*
X185515000Y-95772936D01*
X186985000Y-96227064D02*
X186985000Y-95772936D01*
%TO.C,PWIN*%
D15*
X174500000Y-143500000D02*
X177400000Y-143500000D01*
X174500000Y-149300000D02*
X174500000Y-143500000D01*
X174500000Y-156500000D02*
X174500000Y-153700000D01*
X181700000Y-143500000D02*
X184500000Y-143500000D01*
X184500000Y-143500000D02*
X184500000Y-149300000D01*
X184500000Y-153700000D02*
X184500000Y-156500000D01*
X184500000Y-156500000D02*
X174500000Y-156500000D01*
D17*
X179700000Y-142700000D02*
G75*
G02*
X179300000Y-142700000I-200000J0D01*
G01*
X179300000Y-142700000D02*
G75*
G02*
X179700000Y-142700000I200000J0D01*
G01*
%TO.C,9V*%
D14*
X222667500Y-93326936D02*
G75*
G02*
X219767500Y-93326936I-1450000J0D01*
G01*
X219767500Y-93326936D02*
G75*
G02*
X222667500Y-93326936I1450000J0D01*
G01*
%TO.C,C18*%
X193840000Y-102088748D02*
X193840000Y-103511252D01*
X195660000Y-102088748D02*
X195660000Y-103511252D01*
%TO.C,C23*%
X207390000Y-131384165D02*
X207390000Y-131615835D01*
X208110000Y-131384165D02*
X208110000Y-131615835D01*
D16*
%TO.C,G\u002A\u002A\u002A*%
G36*
X176412479Y-106523920D02*
G01*
X176440411Y-106537730D01*
X176467304Y-106550955D01*
X176491673Y-106562908D01*
X176512033Y-106572807D01*
X176526892Y-106579941D01*
X176531892Y-106582301D01*
X176543517Y-106587766D01*
X176561385Y-106596278D01*
X176583965Y-106607109D01*
X176609719Y-106619500D01*
X176637073Y-106632688D01*
X176648048Y-106637994D01*
X176738154Y-106681587D01*
X176738154Y-107254485D01*
X176738126Y-107339929D01*
X176738087Y-107417039D01*
X176737997Y-107486208D01*
X176737873Y-107547808D01*
X176737700Y-107602214D01*
X176737499Y-107649778D01*
X176737219Y-107690891D01*
X176736899Y-107725920D01*
X176736522Y-107755227D01*
X176736087Y-107779195D01*
X176735577Y-107798161D01*
X176734997Y-107812534D01*
X176734368Y-107822690D01*
X176733645Y-107828974D01*
X176732834Y-107831766D01*
X176732713Y-107831922D01*
X176726884Y-107835405D01*
X176714852Y-107841717D01*
X176698381Y-107849971D01*
X176679151Y-107859274D01*
X176677361Y-107860138D01*
X176647636Y-107874346D01*
X176611966Y-107891533D01*
X176572192Y-107910828D01*
X176530119Y-107931309D01*
X176487601Y-107952112D01*
X176446455Y-107972302D01*
X176408505Y-107991039D01*
X176382876Y-108003775D01*
X176361031Y-108014616D01*
X176342123Y-108023973D01*
X176327402Y-108031208D01*
X176318159Y-108035717D01*
X176315552Y-108036900D01*
X176315457Y-108032664D01*
X176315375Y-108020256D01*
X176315317Y-108000235D01*
X176315264Y-107973163D01*
X176315251Y-107939541D01*
X176315235Y-107899914D01*
X176315251Y-107854848D01*
X176315264Y-107804830D01*
X176315309Y-107750450D01*
X176315358Y-107692191D01*
X176315417Y-107630641D01*
X176315485Y-107566290D01*
X176315574Y-107499729D01*
X176315673Y-107431451D01*
X176315768Y-107361999D01*
X176315885Y-107291949D01*
X176316014Y-107221774D01*
X176316139Y-107152069D01*
X176316255Y-107083332D01*
X176316391Y-107016096D01*
X176316536Y-106950966D01*
X176316673Y-106888382D01*
X176316823Y-106828957D01*
X176316958Y-106773173D01*
X176317098Y-106721613D01*
X176317236Y-106674795D01*
X176317387Y-106633254D01*
X176317534Y-106597528D01*
X176317663Y-106568159D01*
X176317795Y-106545699D01*
X176317924Y-106530626D01*
X176318002Y-106524530D01*
X176319123Y-106477662D01*
X176412479Y-106523920D01*
G37*
G36*
X175579547Y-106107906D02*
G01*
X175588559Y-106113145D01*
X175598425Y-106119442D01*
X175610118Y-106126609D01*
X175627525Y-106136562D01*
X175648566Y-106148168D01*
X175671234Y-106160276D01*
X175679592Y-106164647D01*
X175706209Y-106178715D01*
X175736846Y-106195237D01*
X175768062Y-106212371D01*
X175796348Y-106228221D01*
X175801186Y-106230958D01*
X175834517Y-106249952D01*
X175861396Y-106265215D01*
X175882928Y-106277378D01*
X175900143Y-106286994D01*
X175914178Y-106294704D01*
X175926066Y-106301087D01*
X175936935Y-106306741D01*
X175947830Y-106312274D01*
X175948354Y-106312536D01*
X175964329Y-106321076D01*
X175978678Y-106329611D01*
X175988271Y-106336286D01*
X175999497Y-106345627D01*
X176002375Y-107101165D01*
X176002689Y-107182850D01*
X176003006Y-107262959D01*
X176003328Y-107341023D01*
X176003647Y-107416516D01*
X176003970Y-107488927D01*
X176004276Y-107557781D01*
X176004568Y-107622530D01*
X176004860Y-107682728D01*
X176005141Y-107737836D01*
X176005381Y-107787336D01*
X176005636Y-107830785D01*
X176005864Y-107867604D01*
X176006052Y-107897335D01*
X176006221Y-107919461D01*
X176006363Y-107933495D01*
X176006394Y-107934857D01*
X176006622Y-107954900D01*
X176006862Y-107982412D01*
X176007120Y-108016197D01*
X176007362Y-108055034D01*
X176007582Y-108097726D01*
X176007778Y-108143064D01*
X176007950Y-108189835D01*
X176008088Y-108236822D01*
X176008105Y-108242058D01*
X176008667Y-108471099D01*
X176133494Y-108407327D01*
X176168938Y-108389196D01*
X176206476Y-108369961D01*
X176244116Y-108350636D01*
X176279980Y-108332201D01*
X176312131Y-108315625D01*
X176338664Y-108301916D01*
X176340840Y-108300790D01*
X176369347Y-108286089D01*
X176403180Y-108268722D01*
X176439945Y-108249945D01*
X176477184Y-108231004D01*
X176512494Y-108213117D01*
X176526787Y-108205905D01*
X176556314Y-108190986D01*
X176585072Y-108176422D01*
X176611571Y-108162911D01*
X176634366Y-108151247D01*
X176652022Y-108142134D01*
X176661392Y-108137227D01*
X176673184Y-108131053D01*
X176691447Y-108121579D01*
X176714916Y-108109474D01*
X176742315Y-108095412D01*
X176772383Y-108079990D01*
X176803847Y-108063927D01*
X176814128Y-108058664D01*
X176847747Y-108041509D01*
X176882097Y-108023953D01*
X176915591Y-108006819D01*
X176946519Y-107990956D01*
X176973263Y-107977218D01*
X176994142Y-107966460D01*
X176996500Y-107965227D01*
X177016823Y-107954755D01*
X177043148Y-107941177D01*
X177073745Y-107925451D01*
X177106869Y-107908415D01*
X177140833Y-107890988D01*
X177173573Y-107874179D01*
X177289872Y-107814584D01*
X177325543Y-107829046D01*
X177341703Y-107835541D01*
X177354574Y-107840630D01*
X177362217Y-107843557D01*
X177363433Y-107843969D01*
X177368545Y-107845786D01*
X177378010Y-107849553D01*
X177378605Y-107849821D01*
X177392163Y-107855252D01*
X177406638Y-107860789D01*
X177406839Y-107860868D01*
X177414439Y-107863791D01*
X177429023Y-107869586D01*
X177449512Y-107877768D01*
X177474861Y-107887922D01*
X177504011Y-107899627D01*
X177535847Y-107912446D01*
X177558834Y-107921717D01*
X177592406Y-107935272D01*
X177624456Y-107948121D01*
X177653776Y-107959865D01*
X177679272Y-107970023D01*
X177699740Y-107978113D01*
X177714081Y-107983704D01*
X177719481Y-107985745D01*
X177735846Y-107992136D01*
X177744962Y-107996826D01*
X177747879Y-108000641D01*
X177745643Y-108004413D01*
X177744632Y-108005267D01*
X177737703Y-108009769D01*
X177723638Y-108018007D01*
X177702936Y-108029701D01*
X177676167Y-108044537D01*
X177643874Y-108062256D01*
X177606587Y-108082579D01*
X177564840Y-108105171D01*
X177519156Y-108129767D01*
X177470115Y-108156076D01*
X177418228Y-108183811D01*
X177364046Y-108212675D01*
X177308105Y-108242361D01*
X177250938Y-108272627D01*
X177193086Y-108303151D01*
X177135092Y-108333637D01*
X177100715Y-108351661D01*
X177052927Y-108376693D01*
X177011956Y-108398125D01*
X176976945Y-108416445D01*
X176947049Y-108432088D01*
X176921353Y-108445512D01*
X176899004Y-108457165D01*
X176879170Y-108467481D01*
X176860971Y-108476939D01*
X176843501Y-108485970D01*
X176825925Y-108495030D01*
X176807381Y-108504594D01*
X176788088Y-108514532D01*
X176761460Y-108528253D01*
X176734854Y-108542018D01*
X176710261Y-108554799D01*
X176689569Y-108565585D01*
X176675180Y-108573147D01*
X176660250Y-108580999D01*
X176639476Y-108591806D01*
X176614765Y-108604636D01*
X176587982Y-108618441D01*
X176561062Y-108632324D01*
X176560124Y-108632788D01*
X176532802Y-108646820D01*
X176500049Y-108663621D01*
X176464120Y-108682065D01*
X176427296Y-108700961D01*
X176391859Y-108719143D01*
X176373391Y-108728622D01*
X176337381Y-108747114D01*
X176296543Y-108768109D01*
X176253693Y-108790132D01*
X176211729Y-108811685D01*
X176173542Y-108831331D01*
X176160650Y-108837963D01*
X176109140Y-108864372D01*
X176056955Y-108890987D01*
X176004617Y-108917512D01*
X175952737Y-108943639D01*
X175901864Y-108969114D01*
X175852614Y-108993635D01*
X175805550Y-109016947D01*
X175761269Y-109038722D01*
X175720299Y-109058723D01*
X175683260Y-109076621D01*
X175650753Y-109092175D01*
X175623319Y-109105068D01*
X175601553Y-109114991D01*
X175586044Y-109121725D01*
X175577345Y-109124954D01*
X175575665Y-109125113D01*
X175575558Y-109120720D01*
X175575453Y-109108039D01*
X175575375Y-109087432D01*
X175575275Y-109059283D01*
X175575187Y-109023968D01*
X175575108Y-108981873D01*
X175575046Y-108933368D01*
X175574979Y-108878859D01*
X175574914Y-108818705D01*
X175574851Y-108753293D01*
X175574794Y-108683006D01*
X175574741Y-108608220D01*
X175574692Y-108529311D01*
X175574662Y-108446663D01*
X175574608Y-108360663D01*
X175574575Y-108271694D01*
X175574547Y-108180134D01*
X175574507Y-108086330D01*
X175574491Y-107990738D01*
X175574486Y-107893663D01*
X175574469Y-107795528D01*
X175574469Y-107696690D01*
X175574446Y-107597556D01*
X175574446Y-107498481D01*
X175574469Y-107399868D01*
X175574483Y-107302062D01*
X175574486Y-107205488D01*
X175574505Y-107110492D01*
X175574524Y-107017483D01*
X175574557Y-106926848D01*
X175574594Y-106838912D01*
X175574630Y-106754092D01*
X175574679Y-106672762D01*
X175574721Y-106595338D01*
X175574765Y-106522147D01*
X175574821Y-106453606D01*
X175574884Y-106390079D01*
X175574960Y-106331947D01*
X175575021Y-106279606D01*
X175575097Y-106233419D01*
X175575169Y-106193754D01*
X175575253Y-106161030D01*
X175575337Y-106135589D01*
X175575440Y-106117848D01*
X175575545Y-106108167D01*
X175575596Y-106106373D01*
X175579547Y-106107906D01*
G37*
G36*
X176011347Y-105501540D02*
G01*
X176014823Y-105503229D01*
X176021223Y-105506537D01*
X176031327Y-105511885D01*
X176045838Y-105519610D01*
X176065561Y-105530190D01*
X176091198Y-105543975D01*
X176123562Y-105561408D01*
X176132418Y-105566188D01*
X176151707Y-105576667D01*
X176171526Y-105587585D01*
X176188160Y-105596896D01*
X176191045Y-105598516D01*
X176206209Y-105606931D01*
X176225667Y-105617365D01*
X176245851Y-105627974D01*
X176251824Y-105631027D01*
X176268294Y-105639564D01*
X176281971Y-105646844D01*
X176290917Y-105651806D01*
X176293081Y-105653153D01*
X176297880Y-105655979D01*
X176309343Y-105662376D01*
X176326448Y-105671768D01*
X176348181Y-105683646D01*
X176373570Y-105697423D01*
X176401589Y-105712574D01*
X176408133Y-105716104D01*
X176443933Y-105735406D01*
X176483967Y-105757034D01*
X176525633Y-105779553D01*
X176566323Y-105801537D01*
X176603476Y-105821635D01*
X176621999Y-105831669D01*
X176657082Y-105850666D01*
X176696972Y-105872284D01*
X176738858Y-105894966D01*
X176779896Y-105917196D01*
X176817283Y-105937451D01*
X176829335Y-105943995D01*
X176864596Y-105963072D01*
X176904661Y-105984770D01*
X176946757Y-106007590D01*
X176988061Y-106029950D01*
X177025742Y-106050389D01*
X177038845Y-106057484D01*
X177070071Y-106074398D01*
X177102056Y-106091692D01*
X177133027Y-106108468D01*
X177161218Y-106123715D01*
X177184858Y-106136480D01*
X177198418Y-106143801D01*
X177224097Y-106157668D01*
X177252816Y-106173222D01*
X177280881Y-106188439D01*
X177302626Y-106200269D01*
X177326971Y-106213489D01*
X177355290Y-106228819D01*
X177383881Y-106244239D01*
X177406839Y-106256564D01*
X177431892Y-106270061D01*
X177459355Y-106284955D01*
X177485809Y-106299374D01*
X177506711Y-106310849D01*
X177528936Y-106323078D01*
X177555456Y-106337538D01*
X177582877Y-106352415D01*
X177607115Y-106365479D01*
X177633439Y-106379635D01*
X177663315Y-106395750D01*
X177692856Y-106411702D01*
X177715666Y-106424063D01*
X177741774Y-106438217D01*
X177771602Y-106454357D01*
X177801230Y-106470379D01*
X177823699Y-106482495D01*
X177849364Y-106496352D01*
X177878084Y-106511881D01*
X177906150Y-106527090D01*
X177927906Y-106538896D01*
X177951818Y-106551848D01*
X177977875Y-106565904D01*
X178002600Y-106579160D01*
X178019085Y-106587946D01*
X178037966Y-106598088D01*
X178055611Y-106607772D01*
X178069606Y-106615619D01*
X178075526Y-106619111D01*
X178086300Y-106625264D01*
X178102089Y-106633839D01*
X178120153Y-106643314D01*
X178127641Y-106647169D01*
X178144113Y-106655676D01*
X178157792Y-106662923D01*
X178166734Y-106667880D01*
X178168884Y-106669246D01*
X178174049Y-106672328D01*
X178185464Y-106678710D01*
X178201708Y-106687606D01*
X178221389Y-106698252D01*
X178234023Y-106705035D01*
X178260268Y-106719108D01*
X178288983Y-106734545D01*
X178316931Y-106749657D01*
X178340990Y-106762681D01*
X178344756Y-106764716D01*
X178367983Y-106777338D01*
X178395894Y-106792497D01*
X178427170Y-106809424D01*
X178460490Y-106827446D01*
X178494513Y-106845857D01*
X178527961Y-106863933D01*
X178559455Y-106880964D01*
X178587727Y-106896218D01*
X178611416Y-106908988D01*
X178629230Y-106918557D01*
X178633494Y-106920854D01*
X178651567Y-106930584D01*
X178669000Y-106940046D01*
X178682694Y-106947582D01*
X178685615Y-106949204D01*
X178695760Y-106954815D01*
X178711640Y-106963497D01*
X178731274Y-106974165D01*
X178752726Y-106985766D01*
X178759412Y-106989372D01*
X178781329Y-107001180D01*
X178802223Y-107012480D01*
X178820106Y-107022188D01*
X178832933Y-107029207D01*
X178835417Y-107030563D01*
X178845043Y-107035834D01*
X178860876Y-107044447D01*
X178881441Y-107055596D01*
X178905333Y-107068550D01*
X178931059Y-107082440D01*
X178939622Y-107087064D01*
X178984156Y-107111117D01*
X179022044Y-107131568D01*
X179054268Y-107148991D01*
X179081860Y-107163924D01*
X179105787Y-107176868D01*
X179127066Y-107188426D01*
X179146677Y-107199102D01*
X179165624Y-107209424D01*
X179175340Y-107214741D01*
X179192786Y-107224070D01*
X179207484Y-107231618D01*
X179217778Y-107236489D01*
X179221769Y-107237937D01*
X179225189Y-107238512D01*
X179225554Y-107240332D01*
X179222444Y-107243658D01*
X179215482Y-107248653D01*
X179204318Y-107255528D01*
X179188532Y-107264489D01*
X179167769Y-107275776D01*
X179141627Y-107289583D01*
X179109719Y-107306088D01*
X179071676Y-107325531D01*
X179027106Y-107348094D01*
X178975622Y-107374009D01*
X178916865Y-107403460D01*
X178896406Y-107413701D01*
X178845983Y-107438869D01*
X178797689Y-107462887D01*
X178752112Y-107485469D01*
X178709797Y-107506352D01*
X178671352Y-107525236D01*
X178637330Y-107541838D01*
X178608335Y-107555884D01*
X178584911Y-107567106D01*
X178567684Y-107575195D01*
X178557175Y-107579871D01*
X178554060Y-107580980D01*
X178545110Y-107578898D01*
X178542090Y-107576908D01*
X178536983Y-107573528D01*
X178525642Y-107566922D01*
X178509471Y-107557896D01*
X178489967Y-107547259D01*
X178479343Y-107541574D01*
X178454340Y-107528217D01*
X178424697Y-107512421D01*
X178393441Y-107495771D01*
X178363629Y-107479878D01*
X178351274Y-107473285D01*
X178324420Y-107458982D01*
X178295976Y-107443786D01*
X178268519Y-107429143D01*
X178244709Y-107416400D01*
X178234023Y-107410692D01*
X178215046Y-107400642D01*
X178198343Y-107392031D01*
X178185660Y-107385756D01*
X178178776Y-107382703D01*
X178178659Y-107382658D01*
X178171866Y-107378085D01*
X178173355Y-107371630D01*
X178182926Y-107363681D01*
X178186253Y-107361705D01*
X178198294Y-107354600D01*
X178215131Y-107344407D01*
X178235435Y-107331936D01*
X178257857Y-107318053D01*
X178281099Y-107303556D01*
X178303815Y-107289285D01*
X178324686Y-107276082D01*
X178342389Y-107264758D01*
X178355587Y-107256186D01*
X178362942Y-107251139D01*
X178363570Y-107250659D01*
X178368333Y-107246808D01*
X178370446Y-107243879D01*
X178368910Y-107240765D01*
X178362653Y-107236406D01*
X178350726Y-107229768D01*
X178336063Y-107221894D01*
X178319604Y-107212958D01*
X178298202Y-107201244D01*
X178274554Y-107188216D01*
X178251306Y-107175306D01*
X178249221Y-107174142D01*
X178223906Y-107160111D01*
X178194504Y-107143922D01*
X178164560Y-107127500D01*
X178137642Y-107112838D01*
X178136330Y-107112111D01*
X178114094Y-107099989D01*
X178092909Y-107088283D01*
X178074703Y-107078107D01*
X178061470Y-107070549D01*
X178058179Y-107068603D01*
X178047296Y-107062319D01*
X178030734Y-107053017D01*
X178010424Y-107041784D01*
X177988369Y-107029715D01*
X177980009Y-107025197D01*
X177958846Y-107013709D01*
X177939760Y-107003264D01*
X177924351Y-106994751D01*
X177914221Y-106989056D01*
X177911761Y-106987620D01*
X177904089Y-106983149D01*
X177890828Y-106975670D01*
X177873981Y-106966279D01*
X177859646Y-106958367D01*
X177837152Y-106945936D01*
X177812479Y-106932255D01*
X177789578Y-106919506D01*
X177780271Y-106914295D01*
X177758243Y-106902023D01*
X177733376Y-106888233D01*
X177710408Y-106875557D01*
X177706448Y-106873379D01*
X177689006Y-106863755D01*
X177666513Y-106851340D01*
X177641491Y-106837467D01*
X177616508Y-106823584D01*
X177608743Y-106819289D01*
X177583489Y-106805206D01*
X177556606Y-106790274D01*
X177530943Y-106776002D01*
X177509254Y-106763983D01*
X177504539Y-106761370D01*
X177482727Y-106749239D01*
X177459578Y-106736336D01*
X177438504Y-106724576D01*
X177428542Y-106718987D01*
X177409439Y-106708291D01*
X177386652Y-106695577D01*
X177364198Y-106683113D01*
X177356909Y-106679083D01*
X177320461Y-106658922D01*
X177290620Y-106642414D01*
X177266375Y-106629001D01*
X177246742Y-106618113D01*
X177230702Y-106609215D01*
X177217281Y-106601744D01*
X177205460Y-106595156D01*
X177194268Y-106588885D01*
X177194071Y-106588792D01*
X177176249Y-106578850D01*
X177154085Y-106566528D01*
X177130874Y-106553641D01*
X177115926Y-106545363D01*
X177093859Y-106533144D01*
X177070609Y-106520250D01*
X177049440Y-106508468D01*
X177037760Y-106501954D01*
X177019941Y-106492003D01*
X176997776Y-106479672D01*
X176974548Y-106466801D01*
X176959604Y-106458534D01*
X176937527Y-106446324D01*
X176914286Y-106433409D01*
X176893122Y-106421628D01*
X176881447Y-106415102D01*
X176863605Y-106405164D01*
X176841455Y-106392838D01*
X176818222Y-106379944D01*
X176803285Y-106371675D01*
X176781223Y-106359472D01*
X176757978Y-106346568D01*
X176736805Y-106334768D01*
X176725132Y-106328256D01*
X176698944Y-106313650D01*
X176667042Y-106295908D01*
X176631303Y-106276088D01*
X176593651Y-106255238D01*
X176560124Y-106236720D01*
X176538905Y-106224994D01*
X176516523Y-106212578D01*
X176496493Y-106201415D01*
X176488475Y-106196941D01*
X176454301Y-106177810D01*
X176422016Y-106159807D01*
X176389526Y-106141746D01*
X176354758Y-106122474D01*
X176315634Y-106100853D01*
X176290905Y-106087204D01*
X176261444Y-106070936D01*
X176230680Y-106053886D01*
X176200723Y-106037288D01*
X176173693Y-106022273D01*
X176151682Y-106010016D01*
X176147608Y-106007737D01*
X176123363Y-105994186D01*
X176097296Y-105979703D01*
X176072575Y-105965988D01*
X176052257Y-105954769D01*
X176052087Y-105954676D01*
X176010842Y-105931984D01*
X176009710Y-105716531D01*
X176009527Y-105674198D01*
X176009387Y-105634619D01*
X176009337Y-105598622D01*
X176009340Y-105567031D01*
X176009409Y-105540681D01*
X176009539Y-105520360D01*
X176009729Y-105506939D01*
X176009995Y-105501233D01*
X176010040Y-105501087D01*
X176011347Y-105501540D01*
G37*
G36*
X177027477Y-106990806D02*
G01*
X177052036Y-107003549D01*
X177078934Y-107017567D01*
X177104623Y-107030989D01*
X177122440Y-107040324D01*
X177165922Y-107063169D01*
X177203753Y-107082998D01*
X177237962Y-107100862D01*
X177270518Y-107117814D01*
X177303502Y-107134897D01*
X177326516Y-107146773D01*
X177351572Y-107159752D01*
X177376424Y-107172676D01*
X177399045Y-107184462D01*
X177417378Y-107194046D01*
X177426392Y-107198809D01*
X177463566Y-107218540D01*
X177497653Y-107236485D01*
X177531006Y-107253936D01*
X177565981Y-107272084D01*
X177604977Y-107292205D01*
X177630460Y-107305296D01*
X177657858Y-107319378D01*
X177684101Y-107332938D01*
X177707728Y-107345204D01*
X177727269Y-107355404D01*
X177741242Y-107362776D01*
X177745537Y-107365061D01*
X177757534Y-107371469D01*
X177775381Y-107380874D01*
X177797150Y-107392250D01*
X177820942Y-107404602D01*
X177836712Y-107412759D01*
X177862185Y-107425936D01*
X177888198Y-107439466D01*
X177912436Y-107452090D01*
X177932531Y-107462633D01*
X177940925Y-107467075D01*
X177957345Y-107475719D01*
X177979321Y-107487235D01*
X178004631Y-107500425D01*
X178031131Y-107514197D01*
X178049479Y-107523711D01*
X178076667Y-107537811D01*
X178105336Y-107552786D01*
X178132942Y-107567259D01*
X178156947Y-107579941D01*
X178168884Y-107586292D01*
X178191132Y-107598046D01*
X178218003Y-107612067D01*
X178246383Y-107626701D01*
X178273147Y-107640361D01*
X178277451Y-107642542D01*
X178298599Y-107653312D01*
X178317110Y-107662847D01*
X178331572Y-107670419D01*
X178340516Y-107675274D01*
X178342570Y-107676539D01*
X178347483Y-107679343D01*
X178359051Y-107685511D01*
X178376201Y-107694506D01*
X178397824Y-107705772D01*
X178422879Y-107718717D01*
X178446787Y-107731010D01*
X178476049Y-107746079D01*
X178504751Y-107760929D01*
X178531359Y-107774785D01*
X178554327Y-107786856D01*
X178572150Y-107796311D01*
X178580508Y-107800830D01*
X178596394Y-107809379D01*
X178617762Y-107820606D01*
X178642325Y-107833322D01*
X178667816Y-107846379D01*
X178680367Y-107852732D01*
X178702430Y-107863915D01*
X178721895Y-107873892D01*
X178737358Y-107881933D01*
X178747488Y-107887347D01*
X178750736Y-107889270D01*
X178755665Y-107892076D01*
X178767219Y-107898246D01*
X178784299Y-107907224D01*
X178805786Y-107918440D01*
X178830599Y-107931263D01*
X178850617Y-107941581D01*
X178879331Y-107956405D01*
X178907580Y-107971055D01*
X178933735Y-107984705D01*
X178956208Y-107996537D01*
X178973406Y-108005701D01*
X178979980Y-108009255D01*
X178995870Y-108017802D01*
X179017218Y-108029041D01*
X179041775Y-108041785D01*
X179067239Y-108054859D01*
X179079866Y-108061262D01*
X179104956Y-108074063D01*
X179130319Y-108087179D01*
X179153687Y-108099400D01*
X179172787Y-108109569D01*
X179180072Y-108113550D01*
X179195612Y-108121942D01*
X179208323Y-108128407D01*
X179216270Y-108132001D01*
X179217793Y-108132429D01*
X179223170Y-108135551D01*
X179223955Y-108136663D01*
X179221068Y-108139784D01*
X179211456Y-108146039D01*
X179196251Y-108154814D01*
X179176579Y-108165512D01*
X179153513Y-108177415D01*
X179147141Y-108180619D01*
X179119455Y-108194518D01*
X179091038Y-108208883D01*
X179064081Y-108222577D01*
X179040734Y-108234534D01*
X179024290Y-108243065D01*
X179001052Y-108255177D01*
X178970601Y-108270955D01*
X178932829Y-108290398D01*
X178887700Y-108313645D01*
X178835084Y-108340658D01*
X178774875Y-108371545D01*
X178720346Y-108399479D01*
X178689004Y-108415542D01*
X178655095Y-108432946D01*
X178621142Y-108450395D01*
X178589595Y-108466624D01*
X178562953Y-108480354D01*
X178559694Y-108482030D01*
X178539068Y-108492647D01*
X178512201Y-108506490D01*
X178480561Y-108522796D01*
X178445603Y-108540799D01*
X178408828Y-108559740D01*
X178371685Y-108578863D01*
X178344756Y-108592712D01*
X178309058Y-108611085D01*
X178273310Y-108629499D01*
X178238840Y-108647268D01*
X178206981Y-108663698D01*
X178179072Y-108678095D01*
X178156462Y-108689776D01*
X178142838Y-108696816D01*
X178121075Y-108708081D01*
X178093863Y-108722146D01*
X178063469Y-108737807D01*
X178032174Y-108753909D01*
X178002245Y-108769297D01*
X177999544Y-108770683D01*
X177971071Y-108785337D01*
X177942136Y-108800248D01*
X177914691Y-108814422D01*
X177890701Y-108826867D01*
X177872098Y-108836528D01*
X177869289Y-108837980D01*
X177821981Y-108862668D01*
X177768689Y-108890306D01*
X177711116Y-108920093D01*
X177651004Y-108951081D01*
X177615260Y-108969448D01*
X177585952Y-108984514D01*
X177552879Y-109001547D01*
X177515603Y-109020757D01*
X177473612Y-109042418D01*
X177426450Y-109066788D01*
X177373605Y-109094088D01*
X177314622Y-109124574D01*
X177249019Y-109158507D01*
X177176291Y-109196133D01*
X177157172Y-109206022D01*
X177123465Y-109223406D01*
X177089833Y-109240728D01*
X177057620Y-109257223D01*
X177028304Y-109272195D01*
X177003205Y-109284927D01*
X176983800Y-109294714D01*
X176977109Y-109298033D01*
X176957921Y-109307644D01*
X176941433Y-109316062D01*
X176929266Y-109322498D01*
X176923081Y-109326054D01*
X176922841Y-109326229D01*
X176917814Y-109329174D01*
X176906197Y-109335431D01*
X176889202Y-109344403D01*
X176867980Y-109355471D01*
X176843699Y-109367994D01*
X176831503Y-109374242D01*
X176802218Y-109389270D01*
X176771748Y-109404940D01*
X176742213Y-109420165D01*
X176715822Y-109433802D01*
X176694727Y-109444747D01*
X176692546Y-109445872D01*
X176671798Y-109456668D01*
X176645606Y-109470247D01*
X176616277Y-109485378D01*
X176586082Y-109500965D01*
X176557963Y-109515420D01*
X176528260Y-109530671D01*
X176496376Y-109547103D01*
X176464814Y-109563344D01*
X176436124Y-109578156D01*
X176414649Y-109589226D01*
X176345215Y-109625117D01*
X176283128Y-109657138D01*
X176228180Y-109685457D01*
X176180012Y-109710226D01*
X176138325Y-109731591D01*
X176102831Y-109749717D01*
X176073215Y-109764735D01*
X176049211Y-109776831D01*
X176030443Y-109786118D01*
X176016665Y-109792785D01*
X176007569Y-109796975D01*
X176002833Y-109798834D01*
X176001988Y-109798913D01*
X176001716Y-109794487D01*
X176001464Y-109782388D01*
X176001212Y-109763611D01*
X176000956Y-109739136D01*
X176000715Y-109709961D01*
X176000466Y-109677137D01*
X176000260Y-109641591D01*
X176000054Y-109604380D01*
X175999890Y-109566482D01*
X175999759Y-109528911D01*
X175999678Y-109492647D01*
X175999621Y-109458703D01*
X175999616Y-109428073D01*
X175999662Y-109401749D01*
X175999748Y-109380762D01*
X175999890Y-109367134D01*
X176003508Y-109362648D01*
X176012786Y-109356032D01*
X176022780Y-109350385D01*
X176046339Y-109338141D01*
X176076282Y-109322550D01*
X176111361Y-109304229D01*
X176150272Y-109283884D01*
X176191732Y-109262189D01*
X176234474Y-109239769D01*
X176239875Y-109236915D01*
X176303653Y-109203467D01*
X176361776Y-109172968D01*
X176413899Y-109145597D01*
X176459682Y-109121599D01*
X176498715Y-109101145D01*
X176530648Y-109084398D01*
X176547087Y-109075767D01*
X176574678Y-109061320D01*
X176606094Y-109044839D01*
X176639789Y-109027143D01*
X176674260Y-109009033D01*
X176707959Y-108991295D01*
X176739397Y-108974773D01*
X176767047Y-108960218D01*
X176789372Y-108948454D01*
X176798945Y-108943397D01*
X176817452Y-108933637D01*
X176840730Y-108921422D01*
X176865797Y-108908286D01*
X176889724Y-108895802D01*
X176890119Y-108895584D01*
X176922002Y-108878959D01*
X176956276Y-108861033D01*
X176991649Y-108842520D01*
X177026762Y-108824106D01*
X177060331Y-108806473D01*
X177091023Y-108790333D01*
X177117516Y-108776379D01*
X177138477Y-108765303D01*
X177148488Y-108760000D01*
X177165209Y-108751120D01*
X177187164Y-108739562D01*
X177211818Y-108726670D01*
X177236663Y-108713725D01*
X177244011Y-108709900D01*
X177267887Y-108697472D01*
X177291853Y-108684947D01*
X177313580Y-108673559D01*
X177330701Y-108664517D01*
X177335195Y-108662117D01*
X177350913Y-108653801D01*
X177371710Y-108642857D01*
X177394974Y-108630643D01*
X177418103Y-108618567D01*
X177419867Y-108617653D01*
X177441060Y-108606606D01*
X177467693Y-108592675D01*
X177497441Y-108577079D01*
X177528091Y-108560995D01*
X177557388Y-108545599D01*
X177558834Y-108544832D01*
X177589931Y-108528491D01*
X177625839Y-108509665D01*
X177663679Y-108489833D01*
X177700558Y-108470523D01*
X177733567Y-108453286D01*
X177734672Y-108452702D01*
X177763235Y-108437768D01*
X177791785Y-108422817D01*
X177818595Y-108408783D01*
X177841868Y-108396553D01*
X177859861Y-108387080D01*
X177864936Y-108384389D01*
X177882579Y-108375062D01*
X177901836Y-108364903D01*
X177923628Y-108353436D01*
X177948856Y-108340177D01*
X177978410Y-108324652D01*
X178013251Y-108306403D01*
X178054236Y-108284937D01*
X178086384Y-108268096D01*
X178112977Y-108254157D01*
X178138306Y-108240817D01*
X178160908Y-108228876D01*
X178179312Y-108219095D01*
X178192031Y-108212277D01*
X178194948Y-108210681D01*
X178206557Y-108204465D01*
X178223932Y-108195387D01*
X178245089Y-108184490D01*
X178268051Y-108172794D01*
X178278404Y-108167540D01*
X178299549Y-108156694D01*
X178317885Y-108147001D01*
X178332026Y-108139221D01*
X178340600Y-108134057D01*
X178342506Y-108132537D01*
X178342017Y-108130619D01*
X178338384Y-108127294D01*
X178330901Y-108122187D01*
X178318844Y-108114846D01*
X178301531Y-108104866D01*
X178278245Y-108091805D01*
X178248292Y-108075275D01*
X178234023Y-108067433D01*
X178217913Y-108058570D01*
X178197785Y-108047483D01*
X178177253Y-108036115D01*
X178171067Y-108032691D01*
X178151145Y-108021651D01*
X178127215Y-108008389D01*
X178102846Y-107994905D01*
X178088566Y-107986999D01*
X178066484Y-107974773D01*
X178043252Y-107961848D01*
X178022105Y-107950075D01*
X178010398Y-107943544D01*
X177992573Y-107933592D01*
X177970423Y-107921273D01*
X177947178Y-107908401D01*
X177932252Y-107900124D01*
X177910173Y-107887897D01*
X177886927Y-107875010D01*
X177865764Y-107863225D01*
X177854082Y-107856712D01*
X177835853Y-107846541D01*
X177813502Y-107834123D01*
X177790455Y-107821376D01*
X177778098Y-107814557D01*
X177764025Y-107806804D01*
X177750058Y-107799096D01*
X177735371Y-107790996D01*
X177719124Y-107782029D01*
X177700501Y-107771742D01*
X177678659Y-107759663D01*
X177652779Y-107745345D01*
X177622047Y-107728341D01*
X177585600Y-107708184D01*
X177542648Y-107684414D01*
X177528421Y-107676541D01*
X177482832Y-107651305D01*
X177444082Y-107629858D01*
X177411390Y-107611753D01*
X177384002Y-107596576D01*
X177361159Y-107583897D01*
X177342064Y-107573306D01*
X177325977Y-107564344D01*
X177312143Y-107556629D01*
X177299772Y-107549686D01*
X177289597Y-107543991D01*
X177270262Y-107533192D01*
X177249779Y-107521827D01*
X177232310Y-107512209D01*
X177230984Y-107511502D01*
X177213980Y-107502176D01*
X177193566Y-107490919D01*
X177173948Y-107480013D01*
X177172357Y-107479121D01*
X177157460Y-107470866D01*
X177137009Y-107459544D01*
X177113085Y-107446329D01*
X177087750Y-107432376D01*
X177070332Y-107422784D01*
X177048006Y-107410473D01*
X177028353Y-107399500D01*
X177012598Y-107390593D01*
X177002050Y-107384447D01*
X176997951Y-107381846D01*
X176996776Y-107376753D01*
X176995487Y-107364552D01*
X176994151Y-107346767D01*
X176992945Y-107324996D01*
X176992349Y-107311760D01*
X176991157Y-107283360D01*
X176989675Y-107249689D01*
X176988047Y-107214080D01*
X176986426Y-107179940D01*
X176985647Y-107164135D01*
X176984104Y-107132905D01*
X176982465Y-107099348D01*
X176980868Y-107066528D01*
X176979463Y-107037529D01*
X176978804Y-107023951D01*
X176975929Y-106964087D01*
X177027477Y-106990806D01*
G37*
%TO.C,R9*%
D14*
X191167621Y-103862387D02*
X190832379Y-103862387D01*
X191167621Y-104622387D02*
X190832379Y-104622387D01*
%TO.C,U3*%
X193750000Y-125310000D02*
X192950000Y-125310000D01*
X193750000Y-125310000D02*
X194550000Y-125310000D01*
X194750000Y-122090000D02*
X192950000Y-122090000D01*
X195290000Y-125590000D02*
X194810000Y-125590000D01*
X195050000Y-125260000D01*
X195290000Y-125590000D01*
G36*
X195290000Y-125590000D02*
G01*
X194810000Y-125590000D01*
X195050000Y-125260000D01*
X195290000Y-125590000D01*
G37*
%TO.C,C12*%
X193129706Y-125784268D02*
X193361376Y-125784268D01*
X193129706Y-126504268D02*
X193361376Y-126504268D01*
%TO.C,C20*%
X196465000Y-102013748D02*
X196465000Y-103436252D01*
X198285000Y-102013748D02*
X198285000Y-103436252D01*
%TO.C,C17*%
X193615835Y-107360000D02*
X193384165Y-107360000D01*
X193615835Y-106640000D02*
X193384165Y-106640000D01*
%TD*%
M02*
