%TF.GenerationSoftware,KiCad,Pcbnew,10.0.1*%
%TF.CreationDate,2026-09-12T20:25:44+01:00*%
%TF.ProjectId,gen,67656e2e-6b69-4636-9164-5f7063625858,rev?*%
%TF.SameCoordinates,Original*%
%TF.FileFunction,Profile,NP*%
%FSLAX46Y46*%
G04 Gerber Fmt 4.6, Leading zero omitted, Abs format (unit mm)*
G04 Created by KiCad (PCBNEW 10.0.1) date 2026-09-12 20:25:44*
%MOMM*%
%LPD*%
G01*
G04 APERTURE LIST*
%TA.AperFunction,Profile*%
%ADD10C,0.050000*%
%TD*%
G04 APERTURE END LIST*
D10*
X197524320Y-148768999D02*
G75*
G02*
X198274116Y-148036472I749796J-17473D01*
G01*
X221000000Y-148000000D02*
X198274116Y-148036472D01*
X197475680Y-156731001D02*
G75*
G02*
X196725884Y-157463534I-749800J17471D01*
G01*
X225750000Y-143250000D02*
G75*
G02*
X221000000Y-148000000I-4750000J0D01*
G01*
X221060043Y-80876936D02*
G75*
G02*
X225623454Y-85500000I-60043J-4623064D01*
G01*
X197475680Y-156731001D02*
X197524320Y-148768999D01*
X184750000Y-157500000D02*
X196725884Y-157463528D01*
X70000000Y-141900000D02*
X70205111Y-110704889D01*
X70230000Y-85650000D02*
X70205111Y-110704889D01*
X70230000Y-85650000D02*
G75*
G02*
X74880000Y-81000000I4650000J0D01*
G01*
X74850000Y-146750000D02*
G75*
G02*
X70000000Y-141900000I0J4850000D01*
G01*
X74850000Y-146750000D02*
X86750000Y-146750000D01*
X74880000Y-81000000D02*
X86750000Y-81000000D01*
X86750000Y-81000000D02*
G75*
G02*
X87500000Y-81750000I0J-750000D01*
G01*
X87500000Y-85500000D02*
X87500000Y-81750000D01*
X87500000Y-141750000D02*
G75*
G02*
X88250000Y-141000000I750000J0D01*
G01*
X87500000Y-146000000D02*
G75*
G02*
X86750000Y-146750000I-750000J0D01*
G01*
X87500000Y-146000000D02*
X87500000Y-141750000D01*
X88000000Y-86000000D02*
G75*
G02*
X87500000Y-85500000I0J500000D01*
G01*
X88250000Y-141000000D02*
X171750000Y-141000000D01*
X171500000Y-86000000D02*
X88000000Y-86000000D01*
X171750000Y-141000000D02*
G75*
G02*
X172500000Y-141750000I0J-750000D01*
G01*
X172500000Y-81750000D02*
X172500000Y-85000000D01*
X172500000Y-81750000D02*
G75*
G02*
X173250000Y-81000000I750000J0D01*
G01*
X172500000Y-85000000D02*
G75*
G02*
X171500000Y-86000000I-1000000J0D01*
G01*
X172500000Y-141750000D02*
X172500000Y-156750000D01*
X173232527Y-157499796D02*
G75*
G02*
X172500000Y-156750000I17473J749796D01*
G01*
X184750000Y-157500000D02*
X173232527Y-157499796D01*
X221060043Y-80876936D02*
X173250000Y-81000000D01*
X225623454Y-85500000D02*
X225750000Y-143250000D01*
M02*
