%TF.GenerationSoftware,KiCad,Pcbnew,10.0.0*%
%TF.CreationDate,2026-04-23T23:16:21+01:00*%
%TF.ProjectId,shori,73686f72-692e-46b6-9963-61645f706362,rev?*%
%TF.SameCoordinates,Original*%
%TF.FileFunction,Soldermask,Top*%
%TF.FilePolarity,Negative*%
%FSLAX46Y46*%
G04 Gerber Fmt 4.6, Leading zero omitted, Abs format (unit mm)*
G04 Created by KiCad (PCBNEW 10.0.0) date 2026-04-23 23:16:21*
%MOMM*%
%LPD*%
G01*
G04 APERTURE LIST*
G04 Aperture macros list*
%AMRoundRect*
0 Rectangle with rounded corners*
0 $1 Rounding radius*
0 $2 $3 $4 $5 $6 $7 $8 $9 X,Y pos of 4 corners*
0 Add a 4 corners polygon primitive as box body*
4,1,4,$2,$3,$4,$5,$6,$7,$8,$9,$2,$3,0*
0 Add four circle primitives for the rounded corners*
1,1,$1+$1,$2,$3*
1,1,$1+$1,$4,$5*
1,1,$1+$1,$6,$7*
1,1,$1+$1,$8,$9*
0 Add four rect primitives between the rounded corners*
20,1,$1+$1,$2,$3,$4,$5,0*
20,1,$1+$1,$4,$5,$6,$7,0*
20,1,$1+$1,$6,$7,$8,$9,0*
20,1,$1+$1,$8,$9,$2,$3,0*%
G04 Aperture macros list end*
%ADD10C,0.501200*%
%ADD11C,0.010000*%
%ADD12RoundRect,0.160000X-0.160000X0.197500X-0.160000X-0.197500X0.160000X-0.197500X0.160000X0.197500X0*%
%ADD13RoundRect,0.237500X-0.300000X-0.237500X0.300000X-0.237500X0.300000X0.237500X-0.300000X0.237500X0*%
%ADD14RoundRect,0.155000X0.155000X-0.212500X0.155000X0.212500X-0.155000X0.212500X-0.155000X-0.212500X0*%
%ADD15RoundRect,0.160000X0.160000X-0.197500X0.160000X0.197500X-0.160000X0.197500X-0.160000X-0.197500X0*%
%ADD16RoundRect,0.150000X-0.512500X-0.150000X0.512500X-0.150000X0.512500X0.150000X-0.512500X0.150000X0*%
%ADD17C,1.000000*%
%ADD18RoundRect,0.160000X-0.197500X-0.160000X0.197500X-0.160000X0.197500X0.160000X-0.197500X0.160000X0*%
%ADD19RoundRect,0.250000X0.625000X-0.350000X0.625000X0.350000X-0.625000X0.350000X-0.625000X-0.350000X0*%
%ADD20O,1.750000X1.200000*%
%ADD21RoundRect,0.150000X0.512500X0.150000X-0.512500X0.150000X-0.512500X-0.150000X0.512500X-0.150000X0*%
%ADD22RoundRect,0.250000X-0.250000X-0.475000X0.250000X-0.475000X0.250000X0.475000X-0.250000X0.475000X0*%
%ADD23RoundRect,0.250000X0.650000X-0.800000X0.650000X0.800000X-0.650000X0.800000X-0.650000X-0.800000X0*%
%ADD24RoundRect,0.160000X0.197500X0.160000X-0.197500X0.160000X-0.197500X-0.160000X0.197500X-0.160000X0*%
%ADD25RoundRect,0.155000X-0.212500X-0.155000X0.212500X-0.155000X0.212500X0.155000X-0.212500X0.155000X0*%
%ADD26RoundRect,0.237500X0.300000X0.237500X-0.300000X0.237500X-0.300000X-0.237500X0.300000X-0.237500X0*%
%ADD27RoundRect,0.155000X0.212500X0.155000X-0.212500X0.155000X-0.212500X-0.155000X0.212500X-0.155000X0*%
%ADD28RoundRect,0.100000X-0.637500X-0.100000X0.637500X-0.100000X0.637500X0.100000X-0.637500X0.100000X0*%
%ADD29RoundRect,0.155000X-0.155000X0.212500X-0.155000X-0.212500X0.155000X-0.212500X0.155000X0.212500X0*%
%ADD30C,3.500000*%
%ADD31RoundRect,0.150000X0.150000X-0.825000X0.150000X0.825000X-0.150000X0.825000X-0.150000X-0.825000X0*%
%ADD32R,1.700000X1.700000*%
%ADD33C,1.700000*%
%ADD34RoundRect,0.237500X-0.237500X0.300000X-0.237500X-0.300000X0.237500X-0.300000X0.237500X0.300000X0*%
%ADD35RoundRect,0.250000X-0.650000X0.412500X-0.650000X-0.412500X0.650000X-0.412500X0.650000X0.412500X0*%
%ADD36R,1.350000X1.350000*%
%ADD37C,1.350000*%
%ADD38RoundRect,0.250000X-0.325000X-0.450000X0.325000X-0.450000X0.325000X0.450000X-0.325000X0.450000X0*%
%ADD39R,0.900000X1.700000*%
%ADD40RoundRect,0.150000X0.150000X-0.512500X0.150000X0.512500X-0.150000X0.512500X-0.150000X-0.512500X0*%
%ADD41RoundRect,0.250000X-0.600000X-0.750000X0.600000X-0.750000X0.600000X0.750000X-0.600000X0.750000X0*%
%ADD42O,1.700000X2.000000*%
%ADD43RoundRect,0.075000X-0.725000X-0.075000X0.725000X-0.075000X0.725000X0.075000X-0.725000X0.075000X0*%
%ADD44RoundRect,0.075000X-0.075000X-0.725000X0.075000X-0.725000X0.075000X0.725000X-0.075000X0.725000X0*%
%ADD45RoundRect,0.250000X-0.475000X0.250000X-0.475000X-0.250000X0.475000X-0.250000X0.475000X0.250000X0*%
%ADD46C,1.066800*%
%ADD47RoundRect,0.150000X0.825000X0.150000X-0.825000X0.150000X-0.825000X-0.150000X0.825000X-0.150000X0*%
%ADD48RoundRect,0.160000X-0.222500X-0.160000X0.222500X-0.160000X0.222500X0.160000X-0.222500X0.160000X0*%
%ADD49RoundRect,0.150000X-0.150000X0.512500X-0.150000X-0.512500X0.150000X-0.512500X0.150000X0.512500X0*%
%ADD50RoundRect,0.100000X-0.562500X-0.100000X0.562500X-0.100000X0.562500X0.100000X-0.562500X0.100000X0*%
G04 APERTURE END LIST*
%TO.C,AUDIO IN*%
D10*
X170122942Y-129621254D02*
G75*
G02*
X169621742Y-129621254I-250600J0D01*
G01*
X169621742Y-129621254D02*
G75*
G02*
X170122942Y-129621254I250600J0D01*
G01*
X171372942Y-129621254D02*
G75*
G02*
X170871742Y-129621254I-250600J0D01*
G01*
X170871742Y-129621254D02*
G75*
G02*
X171372942Y-129621254I250600J0D01*
G01*
D11*
X169123542Y-130122454D02*
X168121142Y-130122454D01*
X168121142Y-129120054D01*
X169123542Y-129120054D01*
X169123542Y-130122454D01*
G36*
X169123542Y-130122454D02*
G01*
X168121142Y-130122454D01*
X168121142Y-129120054D01*
X169123542Y-129120054D01*
X169123542Y-130122454D01*
G37*
%TO.C,U5*%
X141585970Y-126370462D02*
X140845970Y-126370462D01*
X140845970Y-124030462D01*
X141585970Y-124030462D01*
X141585970Y-126370462D01*
G36*
X141585970Y-126370462D02*
G01*
X140845970Y-126370462D01*
X140845970Y-124030462D01*
X141585970Y-124030462D01*
X141585970Y-126370462D01*
G37*
X142855970Y-126370462D02*
X142115970Y-126370462D01*
X142115970Y-124030462D01*
X142855970Y-124030462D01*
X142855970Y-126370462D01*
G36*
X142855970Y-126370462D02*
G01*
X142115970Y-126370462D01*
X142115970Y-124030462D01*
X142855970Y-124030462D01*
X142855970Y-126370462D01*
G37*
X144125970Y-126370462D02*
X143385970Y-126370462D01*
X143385970Y-124030462D01*
X144125970Y-124030462D01*
X144125970Y-126370462D01*
G36*
X144125970Y-126370462D02*
G01*
X143385970Y-126370462D01*
X143385970Y-124030462D01*
X144125970Y-124030462D01*
X144125970Y-126370462D01*
G37*
X145395970Y-126370462D02*
X144655970Y-126370462D01*
X144655970Y-124030462D01*
X145395970Y-124030462D01*
X145395970Y-126370462D01*
G36*
X145395970Y-126370462D02*
G01*
X144655970Y-126370462D01*
X144655970Y-124030462D01*
X145395970Y-124030462D01*
X145395970Y-126370462D01*
G37*
X145505970Y-132500462D02*
X142005970Y-132500462D01*
X142005970Y-130300462D01*
X145505970Y-130300462D01*
X145505970Y-132500462D01*
G36*
X145505970Y-132500462D02*
G01*
X142005970Y-132500462D01*
X142005970Y-130300462D01*
X145505970Y-130300462D01*
X145505970Y-132500462D01*
G37*
X146665970Y-126370462D02*
X145925970Y-126370462D01*
X145925970Y-124030462D01*
X146665970Y-124030462D01*
X146665970Y-126370462D01*
G36*
X146665970Y-126370462D02*
G01*
X145925970Y-126370462D01*
X145925970Y-124030462D01*
X146665970Y-124030462D01*
X146665970Y-126370462D01*
G37*
%TD*%
D12*
%TO.C,R18*%
X163236339Y-120684718D03*
X163236339Y-121879718D03*
%TD*%
D13*
%TO.C,C40*%
X166760274Y-123547786D03*
X168485274Y-123547786D03*
%TD*%
D14*
%TO.C,C25*%
X174658889Y-109973149D03*
X174658889Y-108838149D03*
%TD*%
D15*
%TO.C,R3*%
X124408125Y-120296814D03*
X124408125Y-119101814D03*
%TD*%
D12*
%TO.C,R33*%
X154750000Y-101605000D03*
X154750000Y-102800000D03*
%TD*%
D15*
%TO.C,R38*%
X110761245Y-102039648D03*
X110761245Y-100844648D03*
%TD*%
D16*
%TO.C,U13*%
X122182805Y-123701373D03*
X122182805Y-125601373D03*
X124457805Y-124651373D03*
%TD*%
D17*
%TO.C,TX*%
X119837594Y-125606550D03*
%TD*%
D18*
%TO.C,R27*%
X161864474Y-107138122D03*
X163059474Y-107138122D03*
%TD*%
D19*
%TO.C,AUX IN*%
X193550000Y-114500000D03*
D20*
X193550000Y-112500000D03*
X193550000Y-110500000D03*
%TD*%
D15*
%TO.C,R1*%
X116683301Y-100104278D03*
X116683301Y-98909278D03*
%TD*%
D14*
%TO.C,C32*%
X109245899Y-113088215D03*
X109245899Y-111953215D03*
%TD*%
D18*
%TO.C,R26*%
X159159882Y-107355437D03*
X160354882Y-107355437D03*
%TD*%
D12*
%TO.C,R20*%
X164529096Y-120719975D03*
X164529096Y-121914975D03*
%TD*%
D21*
%TO.C,U12*%
X190102206Y-120816447D03*
X190102206Y-118916447D03*
X187827206Y-119866447D03*
%TD*%
D15*
%TO.C,R29*%
X163159093Y-103252741D03*
X163159093Y-102057741D03*
%TD*%
D22*
%TO.C,C46*%
X164600000Y-102000000D03*
X166500000Y-102000000D03*
%TD*%
D18*
%TO.C,R25*%
X159190691Y-106092286D03*
X160385691Y-106092286D03*
%TD*%
D23*
%TO.C,Y1*%
X107750000Y-107250000D03*
X107750000Y-104350000D03*
X105450000Y-104350000D03*
X105450000Y-107250000D03*
%TD*%
D13*
%TO.C,C3*%
X146506614Y-122736316D03*
X148231614Y-122736316D03*
%TD*%
D24*
%TO.C,R42*%
X171152481Y-126652650D03*
X169957481Y-126652650D03*
%TD*%
D22*
%TO.C,C23*%
X158341065Y-109368351D03*
X160241065Y-109368351D03*
%TD*%
D25*
%TO.C,C45*%
X165379945Y-108329456D03*
X166514945Y-108329456D03*
%TD*%
D15*
%TO.C,R14*%
X117339942Y-128635305D03*
X117339942Y-127440305D03*
%TD*%
D26*
%TO.C,C29*%
X185390316Y-108332687D03*
X183665316Y-108332687D03*
%TD*%
D12*
%TO.C,R2*%
X122889033Y-119070807D03*
X122889033Y-120265807D03*
%TD*%
D13*
%TO.C,C30*%
X127250000Y-118750000D03*
X128975000Y-118750000D03*
%TD*%
D27*
%TO.C,C8*%
X113739464Y-99927608D03*
X112604464Y-99927608D03*
%TD*%
%TO.C,C11*%
X130290658Y-104426497D03*
X129155658Y-104426497D03*
%TD*%
D24*
%TO.C,R5*%
X177986963Y-108786971D03*
X176791963Y-108786971D03*
%TD*%
%TO.C,R30*%
X168768043Y-110939134D03*
X167573043Y-110939134D03*
%TD*%
D27*
%TO.C,C39*%
X168135000Y-121000000D03*
X167000000Y-121000000D03*
%TD*%
D12*
%TO.C,R37*%
X111515281Y-117626660D03*
X111515281Y-118821660D03*
%TD*%
D17*
%TO.C,3V3A*%
X106000000Y-116500000D03*
%TD*%
D18*
%TO.C,R28*%
X164079190Y-109622212D03*
X165274190Y-109622212D03*
%TD*%
%TO.C,R34*%
X129191875Y-109473687D03*
X130386875Y-109473687D03*
%TD*%
D14*
%TO.C,C27*%
X188866133Y-115750000D03*
X188866133Y-114615000D03*
%TD*%
D21*
%TO.C,U14*%
X117637500Y-122727952D03*
X117637500Y-120827952D03*
X115362500Y-121777952D03*
%TD*%
D14*
%TO.C,C28*%
X185689089Y-112719981D03*
X185689089Y-111584981D03*
%TD*%
D18*
%TO.C,R36*%
X119805000Y-100000000D03*
X121000000Y-100000000D03*
%TD*%
D28*
%TO.C,U1*%
X149525000Y-104600000D03*
X149525000Y-105250000D03*
X149525000Y-105900000D03*
X149525000Y-106550000D03*
X149525000Y-107200000D03*
X149525000Y-107850000D03*
X149525000Y-108500000D03*
X149525000Y-109150000D03*
X149525000Y-109800000D03*
X149525000Y-110450000D03*
X149525000Y-111100000D03*
X149525000Y-111750000D03*
X149525000Y-112400000D03*
X149525000Y-113050000D03*
X155250000Y-113050000D03*
X155250000Y-112400000D03*
X155250000Y-111750000D03*
X155250000Y-111100000D03*
X155250000Y-110450000D03*
X155250000Y-109800000D03*
X155250000Y-109150000D03*
X155250000Y-108500000D03*
X155250000Y-107850000D03*
X155250000Y-107200000D03*
X155250000Y-106550000D03*
X155250000Y-105900000D03*
X155250000Y-105250000D03*
X155250000Y-104600000D03*
%TD*%
D14*
%TO.C,C14*%
X110564736Y-107597020D03*
X110564736Y-106462020D03*
%TD*%
D24*
%TO.C,R23*%
X171500000Y-122000000D03*
X170305000Y-122000000D03*
%TD*%
D29*
%TO.C,C49*%
X154000000Y-128500000D03*
X154000000Y-129635000D03*
%TD*%
%TO.C,C35*%
X145092483Y-109428587D03*
X145092483Y-110563587D03*
%TD*%
D30*
%TO.C,H2*%
X195000000Y-95974311D03*
%TD*%
D31*
%TO.C,U3*%
X158962022Y-130967666D03*
X160232022Y-130967666D03*
X161502022Y-130967666D03*
X162772022Y-130967666D03*
X162772022Y-126017666D03*
X161502022Y-126017666D03*
X160232022Y-126017666D03*
X158962022Y-126017666D03*
%TD*%
D25*
%TO.C,C9*%
X129156902Y-103129564D03*
X130291902Y-103129564D03*
%TD*%
D32*
%TO.C,PROGRAMMING*%
X121690000Y-94500000D03*
D33*
X124230000Y-94500000D03*
X126770000Y-94500000D03*
X129310000Y-94500000D03*
%TD*%
D34*
%TO.C,C4*%
X108500000Y-115974253D03*
X108500000Y-117699253D03*
%TD*%
D15*
%TO.C,R4*%
X174642077Y-112814380D03*
X174642077Y-111619380D03*
%TD*%
D27*
%TO.C,C26*%
X190112726Y-109515353D03*
X188977726Y-109515353D03*
%TD*%
D12*
%TO.C,R6*%
X189000000Y-111055000D03*
X189000000Y-112250000D03*
%TD*%
D15*
%TO.C,R45*%
X192273030Y-118851394D03*
X192273030Y-117656394D03*
%TD*%
D29*
%TO.C,C21*%
X157021791Y-108922723D03*
X157021791Y-110057723D03*
%TD*%
D27*
%TO.C,C33*%
X116135000Y-128098298D03*
X115000000Y-128098298D03*
%TD*%
D35*
%TO.C,C15*%
X155974487Y-126937500D03*
X155974487Y-130062500D03*
%TD*%
D36*
%TO.C,GND*%
X104000000Y-122250000D03*
D37*
X104000000Y-124250000D03*
%TD*%
D25*
%TO.C,C44*%
X164974597Y-104430255D03*
X166109597Y-104430255D03*
%TD*%
%TO.C,C24*%
X173686961Y-114207247D03*
X174821961Y-114207247D03*
%TD*%
D18*
%TO.C,R11*%
X129289253Y-107155714D03*
X130484253Y-107155714D03*
%TD*%
D38*
%TO.C,D1*%
X137680154Y-119500000D03*
X139730154Y-119500000D03*
%TD*%
D39*
%TO.C,RST*%
X106561861Y-110720355D03*
X103161861Y-110720355D03*
%TD*%
D25*
%TO.C,C37*%
X159005239Y-132958070D03*
X160140239Y-132958070D03*
%TD*%
D18*
%TO.C,R21*%
X160767564Y-121377528D03*
X161962564Y-121377528D03*
%TD*%
D40*
%TO.C,U11*%
X188040042Y-106717221D03*
X189940042Y-106717221D03*
X188990042Y-104442221D03*
%TD*%
D15*
%TO.C,R9*%
X187441576Y-112297319D03*
X187441576Y-111102319D03*
%TD*%
D41*
%TO.C,POWER*%
X130658320Y-125849555D03*
D42*
X133158320Y-125849555D03*
%TD*%
D32*
%TO.C,P*%
X115483004Y-93442688D03*
D33*
X112943004Y-93442688D03*
X110403004Y-93442688D03*
%TD*%
D18*
%TO.C,R8*%
X178864320Y-116074273D03*
X180059320Y-116074273D03*
%TD*%
D25*
%TO.C,C7*%
X127123837Y-117439787D03*
X128258837Y-117439787D03*
%TD*%
D43*
%TO.C,U2*%
X112162594Y-103450000D03*
X112162594Y-103950000D03*
X112162594Y-104450000D03*
X112162594Y-104950000D03*
X112162594Y-105450000D03*
X112162594Y-105950000D03*
X112162594Y-106450000D03*
X112162594Y-106950000D03*
X112162594Y-107450000D03*
X112162594Y-107950000D03*
X112162594Y-108450000D03*
X112162594Y-108950000D03*
X112162594Y-109450000D03*
X112162594Y-109950000D03*
X112162594Y-110450000D03*
X112162594Y-110950000D03*
X112162594Y-111450000D03*
X112162594Y-111950000D03*
X112162594Y-112450000D03*
X112162594Y-112950000D03*
X112162594Y-113450000D03*
X112162594Y-113950000D03*
X112162594Y-114450000D03*
X112162594Y-114950000D03*
X112162594Y-115450000D03*
D44*
X113837594Y-117125000D03*
X114337594Y-117125000D03*
X114837594Y-117125000D03*
X115337594Y-117125000D03*
X115837594Y-117125000D03*
X116337594Y-117125000D03*
X116837594Y-117125000D03*
X117337594Y-117125000D03*
X117837594Y-117125000D03*
X118337594Y-117125000D03*
X118837594Y-117125000D03*
X119337594Y-117125000D03*
X119837594Y-117125000D03*
X120337594Y-117125000D03*
X120837594Y-117125000D03*
X121337594Y-117125000D03*
X121837594Y-117125000D03*
X122337594Y-117125000D03*
X122837594Y-117125000D03*
X123337594Y-117125000D03*
X123837594Y-117125000D03*
X124337594Y-117125000D03*
X124837594Y-117125000D03*
X125337594Y-117125000D03*
X125837594Y-117125000D03*
D43*
X127512594Y-115450000D03*
X127512594Y-114950000D03*
X127512594Y-114450000D03*
X127512594Y-113950000D03*
X127512594Y-113450000D03*
X127512594Y-112950000D03*
X127512594Y-112450000D03*
X127512594Y-111950000D03*
X127512594Y-111450000D03*
X127512594Y-110950000D03*
X127512594Y-110450000D03*
X127512594Y-109950000D03*
X127512594Y-109450000D03*
X127512594Y-108950000D03*
X127512594Y-108450000D03*
X127512594Y-107950000D03*
X127512594Y-107450000D03*
X127512594Y-106950000D03*
X127512594Y-106450000D03*
X127512594Y-105950000D03*
X127512594Y-105450000D03*
X127512594Y-104950000D03*
X127512594Y-104450000D03*
X127512594Y-103950000D03*
X127512594Y-103450000D03*
D44*
X125837594Y-101775000D03*
X125337594Y-101775000D03*
X124837594Y-101775000D03*
X124337594Y-101775000D03*
X123837594Y-101775000D03*
X123337594Y-101775000D03*
X122837594Y-101775000D03*
X122337594Y-101775000D03*
X121837594Y-101775000D03*
X121337594Y-101775000D03*
X120837594Y-101775000D03*
X120337594Y-101775000D03*
X119837594Y-101775000D03*
X119337594Y-101775000D03*
X118837594Y-101775000D03*
X118337594Y-101775000D03*
X117837594Y-101775000D03*
X117337594Y-101775000D03*
X116837594Y-101775000D03*
X116337594Y-101775000D03*
X115837594Y-101775000D03*
X115337594Y-101775000D03*
X114837594Y-101775000D03*
X114337594Y-101775000D03*
X113837594Y-101775000D03*
%TD*%
D25*
%TO.C,C38*%
X160168546Y-124048693D03*
X161303546Y-124048693D03*
%TD*%
D17*
%TO.C,5VA*%
X155974487Y-120474487D03*
%TD*%
D24*
%TO.C,R19*%
X160745660Y-122833729D03*
X159550660Y-122833729D03*
%TD*%
D45*
%TO.C,C43*%
X168907918Y-107499903D03*
X168907918Y-109399903D03*
%TD*%
D18*
%TO.C,R12*%
X129199751Y-115000379D03*
X130394751Y-115000379D03*
%TD*%
D24*
%TO.C,R22*%
X169000000Y-122047786D03*
X167805000Y-122047786D03*
%TD*%
D12*
%TO.C,R32*%
X155874395Y-101601615D03*
X155874395Y-102796615D03*
%TD*%
%TO.C,R17*%
X158500000Y-102305000D03*
X158500000Y-103500000D03*
%TD*%
D26*
%TO.C,C51*%
X178362500Y-107500000D03*
X176637500Y-107500000D03*
%TD*%
D24*
%TO.C,R43*%
X168542868Y-126662422D03*
X167347868Y-126662422D03*
%TD*%
D25*
%TO.C,C22*%
X161951451Y-104531167D03*
X163086451Y-104531167D03*
%TD*%
D15*
%TO.C,R10*%
X118674264Y-128584431D03*
X118674264Y-127389431D03*
%TD*%
D29*
%TO.C,C1*%
X110386942Y-114380033D03*
X110386942Y-115515033D03*
%TD*%
D27*
%TO.C,C12*%
X104980560Y-113562688D03*
X103845560Y-113562688D03*
%TD*%
D46*
%TO.C,AUDIO OUT*%
X183666236Y-95963903D03*
X182416236Y-95963903D03*
%TD*%
D30*
%TO.C,H4*%
X103785534Y-95750000D03*
%TD*%
D12*
%TO.C,R16*%
X157501918Y-102305000D03*
X157501918Y-103500000D03*
%TD*%
D27*
%TO.C,C5*%
X144954284Y-123014701D03*
X143819284Y-123014701D03*
%TD*%
%TO.C,C36*%
X160909109Y-116084068D03*
X159774109Y-116084068D03*
%TD*%
%TO.C,C13*%
X110210944Y-109364420D03*
X109075944Y-109364420D03*
%TD*%
D14*
%TO.C,C2*%
X125684634Y-120142338D03*
X125684634Y-119007338D03*
%TD*%
D47*
%TO.C,U4*%
X182024393Y-114085175D03*
X182024393Y-112815175D03*
X182024393Y-111545175D03*
X182024393Y-110275175D03*
X177074393Y-110275175D03*
X177074393Y-111545175D03*
X177074393Y-112815175D03*
X177074393Y-114085175D03*
%TD*%
D24*
%TO.C,R39*%
X109218469Y-114394955D03*
X108023469Y-114394955D03*
%TD*%
D46*
%TO.C,UART*%
X116116524Y-130500000D03*
X117366524Y-130500000D03*
X118616524Y-130500000D03*
X119866524Y-130500000D03*
%TD*%
D27*
%TO.C,C34*%
X147658785Y-110271049D03*
X146523785Y-110271049D03*
%TD*%
D18*
%TO.C,R41*%
X141805000Y-119500000D03*
X143000000Y-119500000D03*
%TD*%
%TO.C,R15*%
X129191875Y-105973687D03*
X130386875Y-105973687D03*
%TD*%
D48*
%TO.C,D2*%
X119853067Y-98844932D03*
X120998067Y-98844932D03*
%TD*%
D25*
%TO.C,C42*%
X161916821Y-108491965D03*
X163051821Y-108491965D03*
%TD*%
D17*
%TO.C,5V*%
X148971478Y-127055977D03*
%TD*%
D14*
%TO.C,C31*%
X110446136Y-113045169D03*
X110446136Y-111910169D03*
%TD*%
D15*
%TO.C,R35*%
X118000000Y-100095751D03*
X118000000Y-98900751D03*
%TD*%
D24*
%TO.C,R7*%
X187445000Y-114750000D03*
X186250000Y-114750000D03*
%TD*%
D18*
%TO.C,R31*%
X164857066Y-111017596D03*
X166052066Y-111017596D03*
%TD*%
D30*
%TO.C,H3*%
X103785534Y-130500000D03*
%TD*%
D18*
%TO.C,R24*%
X161802640Y-105805013D03*
X162997640Y-105805013D03*
%TD*%
D30*
%TO.C,H1*%
X195250000Y-130500000D03*
%TD*%
D24*
%TO.C,R40*%
X152859526Y-126926125D03*
X151664526Y-126926125D03*
%TD*%
D49*
%TO.C,U8*%
X139160446Y-122774249D03*
X138210446Y-122774249D03*
X137260446Y-122774249D03*
X137260446Y-125049249D03*
X139160446Y-125049249D03*
%TD*%
D17*
%TO.C,3V3*%
X144954284Y-119500000D03*
%TD*%
D12*
%TO.C,R44*%
X191717994Y-106153612D03*
X191717994Y-107348612D03*
%TD*%
D26*
%TO.C,C41*%
X171791560Y-123547786D03*
X170066560Y-123547786D03*
%TD*%
D18*
%TO.C,R13*%
X129191875Y-113473687D03*
X130386875Y-113473687D03*
%TD*%
D25*
%TO.C,C10*%
X114369733Y-118800527D03*
X115504733Y-118800527D03*
%TD*%
D50*
%TO.C,U7*%
X165015660Y-105783351D03*
X165015660Y-106433351D03*
X165015660Y-107083351D03*
X166790660Y-107083351D03*
X166790660Y-105783351D03*
%TD*%
M02*
