%TF.GenerationSoftware,KiCad,Pcbnew,10.0.1*%
%TF.CreationDate,2026-09-12T21:44:00+01:00*%
%TF.ProjectId,shori,73686f72-692e-46b6-9963-61645f706362,rev?*%
%TF.SameCoordinates,Original*%
%TF.FileFunction,Copper,L4,Bot*%
%TF.FilePolarity,Positive*%
%FSLAX46Y46*%
G04 Gerber Fmt 4.6, Leading zero omitted, Abs format (unit mm)*
G04 Created by KiCad (PCBNEW 10.0.1) date 2026-09-12 21:44:00*
%MOMM*%
%LPD*%
G01*
G04 APERTURE LIST*
G04 Aperture macros list*
%AMRoundRect*
0 Rectangle with rounded corners*
0 $1 Rounding radius*
0 $2 $3 $4 $5 $6 $7 $8 $9 X,Y pos of 4 corners*
0 Add a 4 corners polygon primitive as box body*
4,1,4,$2,$3,$4,$5,$6,$7,$8,$9,$2,$3,0*
0 Add four circle primitives for the rounded corners*
1,1,$1+$1,$2,$3*
1,1,$1+$1,$4,$5*
1,1,$1+$1,$6,$7*
1,1,$1+$1,$8,$9*
0 Add four rect primitives between the rounded corners*
20,1,$1+$1,$2,$3,$4,$5,0*
20,1,$1+$1,$4,$5,$6,$7,0*
20,1,$1+$1,$6,$7,$8,$9,0*
20,1,$1+$1,$8,$9,$2,$3,0*%
G04 Aperture macros list end*
%TA.AperFunction,SMDPad,CuDef*%
%ADD10RoundRect,0.250000X0.475000X-0.250000X0.475000X0.250000X-0.475000X0.250000X-0.475000X-0.250000X0*%
%TD*%
%TA.AperFunction,ComponentPad*%
%ADD11RoundRect,0.250000X0.625000X-0.350000X0.625000X0.350000X-0.625000X0.350000X-0.625000X-0.350000X0*%
%TD*%
%TA.AperFunction,ComponentPad*%
%ADD12O,1.750000X1.200000*%
%TD*%
%TA.AperFunction,ComponentPad*%
%ADD13R,0.850000X0.850000*%
%TD*%
%TA.AperFunction,ComponentPad*%
%ADD14C,0.850000*%
%TD*%
%TA.AperFunction,ComponentPad*%
%ADD15C,2.000000*%
%TD*%
%TA.AperFunction,ComponentPad*%
%ADD16RoundRect,0.250000X-0.600000X-0.750000X0.600000X-0.750000X0.600000X0.750000X-0.600000X0.750000X0*%
%TD*%
%TA.AperFunction,ComponentPad*%
%ADD17O,1.700000X2.000000*%
%TD*%
%TA.AperFunction,ComponentPad*%
%ADD18R,1.700000X1.700000*%
%TD*%
%TA.AperFunction,ComponentPad*%
%ADD19C,1.700000*%
%TD*%
%TA.AperFunction,ComponentPad*%
%ADD20C,0.600000*%
%TD*%
%TA.AperFunction,SMDPad,CuDef*%
%ADD21RoundRect,0.155000X0.155000X-0.212500X0.155000X0.212500X-0.155000X0.212500X-0.155000X-0.212500X0*%
%TD*%
%TA.AperFunction,SMDPad,CuDef*%
%ADD22RoundRect,0.250000X0.250000X0.475000X-0.250000X0.475000X-0.250000X-0.475000X0.250000X-0.475000X0*%
%TD*%
%TA.AperFunction,SMDPad,CuDef*%
%ADD23RoundRect,0.155000X-0.212500X-0.155000X0.212500X-0.155000X0.212500X0.155000X-0.212500X0.155000X0*%
%TD*%
%TA.AperFunction,SMDPad,CuDef*%
%ADD24C,1.000000*%
%TD*%
%TA.AperFunction,SMDPad,CuDef*%
%ADD25RoundRect,0.162500X-0.162500X0.650000X-0.162500X-0.650000X0.162500X-0.650000X0.162500X0.650000X0*%
%TD*%
%TA.AperFunction,ViaPad*%
%ADD26C,0.600000*%
%TD*%
%TA.AperFunction,Conductor*%
%ADD27C,0.800000*%
%TD*%
%TA.AperFunction,Conductor*%
%ADD28C,0.500000*%
%TD*%
%TA.AperFunction,Conductor*%
%ADD29C,0.250000*%
%TD*%
G04 APERTURE END LIST*
D10*
%TO.P,C47,1*%
%TO.N,+3.3V*%
X115500000Y-113653328D03*
%TO.P,C47,2*%
%TO.N,GND*%
X115500000Y-111753328D03*
%TD*%
D11*
%TO.P,J5,1,Pin_1_1*%
%TO.N,/JACKR*%
X193550000Y-114500000D03*
D12*
%TO.P,J5,2,Pin_2_2*%
%TO.N,GND*%
X193550000Y-112500000D03*
%TO.P,J5,3,Pin_3_3*%
%TO.N,/JACKT*%
X193550000Y-110500000D03*
%TD*%
D13*
%TO.P,J4,1,1_1*%
%TO.N,/AUDIO_IN+*%
X169850000Y-130500000D03*
D14*
%TO.P,J4,2,2_2*%
%TO.N,/AUDIO_IN-*%
X171100000Y-130500000D03*
%TO.P,J4,3,3_3*%
%TO.N,GND*%
X172350000Y-130500000D03*
%TD*%
D15*
%TO.P,GND,1*%
%TO.N,GND*%
X103800000Y-123800000D03*
X103800000Y-121260000D03*
%TD*%
D16*
%TO.P,J1,1,1_1*%
%TO.N,GND*%
X130658320Y-125849555D03*
D17*
%TO.P,J1,2,2_2*%
%TO.N,+5V*%
X133158320Y-125849555D03*
%TD*%
D18*
%TO.P,p,1,A_1*%
%TO.N,GND*%
X115483004Y-93442688D03*
D19*
%TO.P,p,2,B_2*%
%TO.N,/BOOT0_R_TO_SW*%
X112943004Y-93442688D03*
%TO.P,p,3,C_3*%
%TO.N,+3.3V*%
X110403004Y-93442688D03*
%TD*%
D18*
%TO.P,J2,1,Pin_1_1*%
%TO.N,GND*%
X130580000Y-94000000D03*
D19*
%TO.P,J2,2,Pin_2_2*%
%TO.N,/NRST*%
X128040000Y-94000000D03*
%TO.P,J2,3,Pin_3_3*%
%TO.N,/SWCLK*%
X125500000Y-94000000D03*
%TO.P,J2,4,Pin_4_4*%
%TO.N,/SWDIO*%
X122960000Y-94000000D03*
%TO.P,J2,5,Pin_5_5*%
%TO.N,+3.3V*%
X120420000Y-94000000D03*
%TD*%
D13*
%TO.P,J3,1,Pin_1_1*%
%TO.N,GND*%
X116116524Y-130500000D03*
D14*
%TO.P,J3,2,Pin_2_2*%
%TO.N,/UART_RX*%
X117366524Y-130500000D03*
%TO.P,J3,3,Pin_3_3*%
%TO.N,/UART_TX*%
X118616524Y-130500000D03*
%TD*%
D20*
%TO.P,U5,7*%
%TO.N,N/C*%
X141505970Y-133000462D03*
%TO.P,U5,8*%
X143005970Y-133000462D03*
%TO.P,U5,9*%
X144505970Y-133000462D03*
%TO.P,U5,10*%
X146005970Y-133000462D03*
%TO.P,U5,11*%
X141505970Y-131400462D03*
%TO.P,U5,12*%
X146005970Y-131400462D03*
%TO.P,U5,13*%
X141505970Y-129800462D03*
%TO.P,U5,14*%
X143005970Y-129800462D03*
%TO.P,U5,15*%
X144505970Y-129800462D03*
%TO.P,U5,16*%
X146005970Y-129800462D03*
%TD*%
D13*
%TO.P,J6,1,1_1*%
%TO.N,/AUDIO_OUT+*%
X181550000Y-95900000D03*
D14*
%TO.P,J6,2,2_2*%
%TO.N,/AUDIO_OUT-*%
X180300000Y-95900000D03*
%TO.P,J6,3,3_3*%
%TO.N,GND*%
X179050000Y-95900000D03*
%TD*%
D21*
%TO.P,C48,1*%
%TO.N,+3.3V*%
X117323927Y-113691045D03*
%TO.P,C48,2*%
%TO.N,GND*%
X117323927Y-112556045D03*
%TD*%
D10*
%TO.P,C17,1*%
%TO.N,+3.3V*%
X145557004Y-109144373D03*
%TO.P,C17,2*%
%TO.N,GND*%
X145557004Y-107244373D03*
%TD*%
D21*
%TO.P,C18,1*%
%TO.N,+3.3V*%
X147400000Y-109267500D03*
%TO.P,C18,2*%
%TO.N,GND*%
X147400000Y-108132500D03*
%TD*%
%TO.P,C6,1*%
%TO.N,+3.3V*%
X114750000Y-108750000D03*
%TO.P,C6,2*%
%TO.N,GND*%
X114750000Y-107615000D03*
%TD*%
D22*
%TO.P,C50,1*%
%TO.N,GND*%
X177450000Y-116500000D03*
%TO.P,C50,2*%
%TO.N,+5V*%
X175550000Y-116500000D03*
%TD*%
D23*
%TO.P,C20,1*%
%TO.N,/VCOM*%
X157628346Y-111029120D03*
%TO.P,C20,2*%
%TO.N,GND*%
X158763346Y-111029120D03*
%TD*%
D24*
%TO.P,TP5,1,1_1*%
%TO.N,/I2S_MCLK*%
X138000000Y-105900000D03*
%TD*%
D23*
%TO.P,C19,1*%
%TO.N,/VCOM*%
X157357687Y-109950022D03*
%TO.P,C19,2*%
%TO.N,GND*%
X158492687Y-109950022D03*
%TD*%
D25*
%TO.P,U6,1,~{CS}_1*%
%TO.N,/QSPI_NCS*%
X118690000Y-105414380D03*
%TO.P,U6,2,DO/IO_{1}_2*%
%TO.N,/QSPI_IO1*%
X119960000Y-105414380D03*
%TO.P,U6,3,~{WP}/IO_{2}_3*%
%TO.N,/QSPI_IO2*%
X121230000Y-105414380D03*
%TO.P,U6,4,GND_4*%
%TO.N,GND*%
X122500000Y-105414380D03*
%TO.P,U6,5,DI/IO_{0}_5*%
%TO.N,/QSPI_IO0*%
X122500000Y-112589380D03*
%TO.P,U6,6,CLK_6*%
%TO.N,/QSPI_CLK*%
X121230000Y-112589380D03*
%TO.P,U6,7,~{HOLD}/~{RESET}/IO_{3}_7*%
%TO.N,/QSPI_IO3*%
X119960000Y-112589380D03*
%TO.P,U6,8,VCC_8*%
%TO.N,+3.3V*%
X118690000Y-112589380D03*
%TD*%
D26*
%TO.N,GND*%
X166000000Y-134500000D03*
X164500000Y-134500000D03*
X164500000Y-133000000D03*
X164500000Y-131500000D03*
X171500000Y-99500000D03*
X171500000Y-101550000D03*
X174300000Y-99500000D03*
X174300000Y-101550000D03*
X156175497Y-133088966D03*
X155175497Y-133088966D03*
X154175497Y-133088966D03*
%TO.N,+3.3V*%
X114000000Y-113500000D03*
%TO.N,Net-(C37-Pad1)*%
X159000000Y-129500000D03*
X163205759Y-122882720D03*
%TO.N,Net-(U3A-+)*%
X161502022Y-129499576D03*
X166250000Y-124750000D03*
%TO.N,GND*%
X135000000Y-92000000D03*
X125979203Y-124653019D03*
X174946162Y-107972788D03*
X112176452Y-101834550D03*
X122500000Y-114750000D03*
X142250000Y-120900000D03*
X143000000Y-128350000D03*
X177800000Y-107200000D03*
X134100000Y-101900000D03*
X180316236Y-94813903D03*
X156750000Y-92000000D03*
X172000000Y-111500000D03*
X199250000Y-96250000D03*
X199250000Y-109500000D03*
X167000000Y-117600000D03*
X182100000Y-110900000D03*
X126172351Y-103957414D03*
X158719381Y-104914855D03*
X170500000Y-113800000D03*
X142750000Y-134500000D03*
X139200000Y-102100000D03*
X181900000Y-101200000D03*
X99785534Y-129500000D03*
X141400000Y-128400000D03*
X184700000Y-105400000D03*
X160007203Y-109291900D03*
X103750000Y-107250000D03*
X136600000Y-99900000D03*
X178800000Y-121850000D03*
X142400000Y-113400000D03*
X144048648Y-110528505D03*
X109050000Y-124100000D03*
X175000000Y-92000000D03*
X191664413Y-113759833D03*
X111500000Y-128000000D03*
X146100000Y-128300000D03*
X117450000Y-109200000D03*
X129450000Y-96450000D03*
X110464263Y-105321355D03*
X107000000Y-92250000D03*
X119836443Y-97610255D03*
X117377487Y-131665599D03*
X162983047Y-113749556D03*
X132250000Y-96450000D03*
X163750000Y-106447156D03*
X188700000Y-95750000D03*
X104531569Y-110718905D03*
X142400000Y-111350000D03*
X195950000Y-105750000D03*
X118395648Y-126177111D03*
X177436476Y-118524705D03*
X135900000Y-122850000D03*
X164186649Y-108254230D03*
X153917296Y-109129142D03*
X152301792Y-107160177D03*
X130400000Y-119000000D03*
X137000000Y-134500000D03*
X167200000Y-109900000D03*
X184700000Y-103350000D03*
X113717034Y-107690279D03*
X148000000Y-112500000D03*
X182350000Y-119800000D03*
X106000000Y-134500000D03*
X144500000Y-128350000D03*
X163714164Y-111000000D03*
X111800000Y-122050000D03*
X118597723Y-131683811D03*
X159744291Y-111030512D03*
X139600000Y-111350000D03*
X187700000Y-92000000D03*
X166100000Y-132000000D03*
X111450000Y-125950000D03*
X147500000Y-92000000D03*
X175500000Y-119800000D03*
X119450000Y-109200000D03*
X136250000Y-119500000D03*
X181900000Y-105400000D03*
X109000000Y-122050000D03*
X131500000Y-111612447D03*
X181900000Y-103350000D03*
X141500000Y-92000000D03*
X178924200Y-98826481D03*
X179000000Y-128000000D03*
X156000000Y-134500000D03*
X145500000Y-105000000D03*
X113000000Y-117500000D03*
X172750000Y-119800000D03*
X110386942Y-117310033D03*
X131759087Y-102942058D03*
X126352154Y-120090143D03*
X148500000Y-134500000D03*
X135900000Y-120800000D03*
X182600000Y-108200000D03*
X159594834Y-102305000D03*
X135437922Y-108518555D03*
X99785534Y-103000000D03*
X193700000Y-92000000D03*
X199250000Y-122750000D03*
X114892560Y-100107441D03*
X108159523Y-111878850D03*
X129500000Y-98500000D03*
X152301792Y-120330089D03*
X167238228Y-115580470D03*
X102256109Y-113519371D03*
X111800000Y-124100000D03*
X154964723Y-103755291D03*
X107500000Y-103000000D03*
X199250000Y-129000000D03*
X195900000Y-103700000D03*
X141500000Y-99800000D03*
X138000000Y-104600000D03*
X154731946Y-100054253D03*
X112750000Y-134500000D03*
X194850536Y-109699100D03*
X198700000Y-105750000D03*
X166098388Y-103499918D03*
X116050000Y-129000000D03*
X165458172Y-113664791D03*
X150673378Y-108935264D03*
X169000000Y-92000000D03*
X156750000Y-117000000D03*
X99785534Y-115750000D03*
X166050000Y-120150000D03*
X137900000Y-128200000D03*
X124723167Y-112269208D03*
X139650000Y-113400000D03*
X108316726Y-118879349D03*
X162750000Y-134500000D03*
X118460662Y-114006631D03*
X107954826Y-109476512D03*
X178750000Y-119800000D03*
X174900000Y-110500000D03*
X193800000Y-102050000D03*
X185900000Y-95750000D03*
X116707451Y-118856379D03*
X182350000Y-121850000D03*
X140200000Y-123200000D03*
X133100000Y-120800000D03*
X150000000Y-122500000D03*
X169600000Y-124800000D03*
X163750000Y-131500000D03*
X152301792Y-111550148D03*
X164763103Y-115733047D03*
X199250000Y-115750000D03*
X167700000Y-124875000D03*
X99785534Y-96250000D03*
X152301792Y-115940118D03*
X163500000Y-92000000D03*
X114250000Y-128000000D03*
X198700000Y-103700000D03*
X184700000Y-99150000D03*
X136700000Y-113400000D03*
X189000000Y-103000000D03*
X144100000Y-102000000D03*
X172000000Y-116900000D03*
X152301792Y-98276624D03*
X169000000Y-101800000D03*
X111733025Y-99481677D03*
X188700000Y-97800000D03*
X152301792Y-129110030D03*
X191050000Y-102050000D03*
X160000000Y-97500000D03*
X99785534Y-109500000D03*
X191000000Y-100000000D03*
X132250000Y-98500000D03*
X186000000Y-121850000D03*
X184700000Y-101200000D03*
X152301792Y-94000000D03*
X122000000Y-107250000D03*
X152301792Y-124720059D03*
X133150000Y-122850000D03*
X186000000Y-119800000D03*
X116397214Y-97157355D03*
X179500000Y-134500000D03*
X176549271Y-110677809D03*
X143800000Y-122200000D03*
X187100000Y-108900000D03*
X194881944Y-115415323D03*
X121100000Y-119000000D03*
X181900000Y-99150000D03*
X152301792Y-102770207D03*
X120950000Y-108200000D03*
X99785534Y-122750000D03*
X147600000Y-99800000D03*
X143750000Y-120900000D03*
X114250000Y-125950000D03*
X185950000Y-97800000D03*
X114410647Y-122553635D03*
X152301792Y-133500000D03*
X142400000Y-109400000D03*
X192750000Y-134500000D03*
X123000000Y-134500000D03*
X160789811Y-104521739D03*
%TO.N,+3.3V*%
X113317758Y-120250000D03*
X114500000Y-109725592D03*
X115750000Y-108250000D03*
X148171111Y-109334334D03*
X113711322Y-108684068D03*
X121750000Y-120250000D03*
%TO.N,/I2C_SDA*%
X124802278Y-115697723D03*
X146033984Y-113052826D03*
%TO.N,/QSPI_IO2*%
X114000000Y-104500000D03*
%TO.N,/BOOT0_R_TO_SW*%
X115636492Y-99148548D03*
%TO.N,Net-(U3A--)*%
X160232022Y-129502340D03*
X164500000Y-122873517D03*
%TO.N,+5V*%
X170400000Y-105600000D03*
X155200000Y-114700000D03*
X177000000Y-114670000D03*
X176932500Y-109267500D03*
%TO.N,/SUMMED_OUT+*%
X180500000Y-113000000D03*
X182200000Y-114700000D03*
%TO.N,/I2C_SCL*%
X145477796Y-112477796D03*
X124000000Y-115500000D03*
%TO.N,/VCOM*%
X156576945Y-111107274D03*
X158000000Y-112000000D03*
%TO.N,/QSPI_IO3*%
X113582027Y-115060639D03*
%TO.N,/I2S_MCLK*%
X143500000Y-105925000D03*
X131500000Y-109500000D03*
%TO.N,/CODEC_SDIN*%
X143248615Y-108500000D03*
X131500000Y-113500000D03*
%TO.N,/NRST*%
X115744590Y-110441124D03*
X113629715Y-110379715D03*
%TO.N,Net-(U3B-+)*%
X167000000Y-125500000D03*
X172400000Y-125000000D03*
%TO.N,/QSPI_CLK*%
X119204070Y-115746170D03*
%TO.N,/QSPI_IO0*%
X125500000Y-108500000D03*
%TO.N,/SWDIO*%
X125848606Y-104957779D03*
%TO.N,/QSPI_IO1*%
X120568986Y-103931014D03*
%TO.N,/QSPI_NCS*%
X118000000Y-103500000D03*
%TD*%
%TO.N,+5V*%
D27*
X172958358Y-109300000D02*
X172958358Y-114697900D01*
D28*
X172958358Y-109300000D02*
X176900000Y-109300000D01*
D27*
X172958358Y-109300000D02*
X172958358Y-108158358D01*
X172958358Y-108158358D02*
X170400000Y-105600000D01*
D28*
X176900000Y-109300000D02*
X176932500Y-109267500D01*
%TO.N,GND*%
X177450000Y-117550000D02*
X177450000Y-116100000D01*
X177436476Y-118524705D02*
X177436476Y-117563524D01*
X177436476Y-117563524D02*
X177450000Y-117550000D01*
%TO.N,+3.3V*%
X114153328Y-113653328D02*
X114000000Y-113500000D01*
X115500000Y-113653328D02*
X114153328Y-113653328D01*
X116112242Y-113691045D02*
X117323927Y-113691045D01*
X115987025Y-113565828D02*
X116112242Y-113691045D01*
X115851816Y-113701037D02*
X115987025Y-113565828D01*
%TO.N,Net-(C37-Pad1)*%
D29*
X159000000Y-129500000D02*
X163205759Y-125294241D01*
X163205759Y-125294241D02*
X163205759Y-122882720D01*
%TO.N,Net-(U3A-+)*%
X162000000Y-129000000D02*
X162000000Y-129001597D01*
X162000000Y-129001597D02*
X161502022Y-129499576D01*
X162000000Y-129000000D02*
X166250000Y-124750000D01*
%TO.N,GND*%
X114674721Y-107690279D02*
X114750000Y-107615000D01*
D28*
X146414960Y-108189829D02*
X145557004Y-107331873D01*
X158763346Y-111029120D02*
X158763346Y-110220681D01*
X158764738Y-111030512D02*
X158763346Y-111029120D01*
X159744291Y-111030512D02*
X158764738Y-111030512D01*
X122500000Y-106750000D02*
X122000000Y-107250000D01*
D29*
X113717034Y-107690279D02*
X114674721Y-107690279D01*
D28*
X145557004Y-105057004D02*
X145500000Y-105000000D01*
X145557004Y-107331873D02*
X145557004Y-105057004D01*
X122500000Y-105414380D02*
X122500000Y-106750000D01*
X147081004Y-108189829D02*
X146414960Y-108189829D01*
%TO.N,+3.3V*%
X147400000Y-109267500D02*
X147332500Y-109200000D01*
X115250000Y-108750000D02*
X114750000Y-108750000D01*
D29*
X113711322Y-108684068D02*
X114684068Y-108684068D01*
D28*
X114500000Y-109725592D02*
X114500000Y-109000000D01*
D29*
X148169890Y-109332527D02*
X148171111Y-109333748D01*
X148171111Y-109333748D02*
X148171111Y-109334334D01*
X114684068Y-108684068D02*
X114750000Y-108750000D01*
D28*
X117323927Y-113691045D02*
X117588335Y-113691045D01*
X145700131Y-109200000D02*
X145557004Y-109056873D01*
X117588335Y-113691045D02*
X118690000Y-112589380D01*
X115750000Y-108250000D02*
X115250000Y-108750000D01*
D29*
X147400000Y-109267500D02*
X147466834Y-109334334D01*
X147466834Y-109334334D02*
X148171111Y-109334334D01*
D28*
X147332500Y-109200000D02*
X145700131Y-109200000D01*
X121750000Y-120250000D02*
X121738140Y-120238140D01*
X114500000Y-109000000D02*
X114750000Y-108750000D01*
X121750000Y-120250000D02*
X121728052Y-120228052D01*
X121750000Y-120250000D02*
X113317758Y-120250000D01*
%TO.N,/I2C_SDA*%
D29*
X144000000Y-115000000D02*
X145947174Y-113052826D01*
X124802278Y-115697723D02*
X125500000Y-115000000D01*
X125500000Y-115000000D02*
X144000000Y-115000000D01*
X145947174Y-113052826D02*
X146033984Y-113052826D01*
%TO.N,/QSPI_IO2*%
X121230000Y-105414380D02*
X121230000Y-106226879D01*
X116500000Y-107000000D02*
X114000000Y-104500000D01*
X121230000Y-106226879D02*
X120456879Y-107000000D01*
X120456879Y-107000000D02*
X116500000Y-107000000D01*
%TO.N,/BOOT0_R_TO_SW*%
X112943004Y-96455060D02*
X115636492Y-99148548D01*
X112943004Y-93442688D02*
X112943004Y-96455060D01*
%TO.N,Net-(U3A--)*%
X160232022Y-129502340D02*
X164500000Y-125234362D01*
X164500000Y-125234362D02*
X164500000Y-122873517D01*
%TO.N,+5V*%
D28*
X175550000Y-116100000D02*
X175550000Y-114750000D01*
X176970000Y-114700000D02*
X175500000Y-114700000D01*
D27*
X133158320Y-125999555D02*
X133158320Y-125849555D01*
D28*
X175550000Y-114750000D02*
X175500000Y-114700000D01*
D27*
X172956258Y-114700000D02*
X155200000Y-114700000D01*
D28*
X177000000Y-114670000D02*
X176970000Y-114700000D01*
D27*
X175500000Y-114700000D02*
X172956258Y-114700000D01*
D28*
X172958358Y-114697900D02*
X172956258Y-114700000D01*
%TO.N,/SUMMED_OUT+*%
D29*
X182200000Y-114700000D02*
X180500000Y-113000000D01*
%TO.N,/I2C_SCL*%
X145477796Y-112477796D02*
X143455592Y-114500000D01*
X143455592Y-114500000D02*
X125000000Y-114500000D01*
X125000000Y-114500000D02*
X124000000Y-115500000D01*
%TO.N,/VCOM*%
X157550192Y-111107274D02*
X157628346Y-111029120D01*
X157628346Y-111029120D02*
X157628346Y-110220681D01*
X156576945Y-111107274D02*
X157550192Y-111107274D01*
X157628346Y-111029120D02*
X157628346Y-111628346D01*
X157628346Y-111628346D02*
X158000000Y-112000000D01*
%TO.N,/QSPI_IO3*%
X117041240Y-115060639D02*
X116951240Y-115060639D01*
X117671240Y-115771895D02*
X117671240Y-115240639D01*
X117671240Y-114880639D02*
X117671240Y-114699356D01*
X117221240Y-114699356D02*
X117221240Y-114880639D01*
X116500000Y-115060639D02*
X113582027Y-115060639D01*
X117671240Y-115240639D02*
X117671240Y-114880639D01*
X118121240Y-115240639D02*
X118121240Y-115771895D01*
X119960000Y-112589380D02*
X119960000Y-113401879D01*
X117941240Y-115951895D02*
X117851240Y-115951895D01*
X118327385Y-115034493D02*
X118301240Y-115060639D01*
X119960000Y-113401879D02*
X118680939Y-114680940D01*
X117491240Y-114519356D02*
X117401240Y-114519356D01*
X118680939Y-114680940D02*
X118327385Y-115034493D01*
X116951240Y-115060639D02*
X116500000Y-115060639D01*
X117221240Y-114880639D02*
G75*
G02*
X117041240Y-115060640I-180040J39D01*
G01*
X117671240Y-114699356D02*
G75*
G03*
X117491240Y-114519360I-180040J-44D01*
G01*
X117851240Y-115951895D02*
G75*
G02*
X117671205Y-115771895I-40J179995D01*
G01*
X118121240Y-115771895D02*
G75*
G02*
X117941240Y-115951940I-180040J-5D01*
G01*
X118301240Y-115060639D02*
G75*
G03*
X118121239Y-115240639I-40J-179961D01*
G01*
X117401240Y-114519356D02*
G75*
G03*
X117221156Y-114699356I-40J-180044D01*
G01*
%TO.N,/I2S_MCLK*%
X143500000Y-105925000D02*
X143499805Y-105924805D01*
X135325195Y-105924805D02*
X131750000Y-109500000D01*
X131750000Y-109500000D02*
X131500000Y-109500000D01*
X143499805Y-105924805D02*
X135325195Y-105924805D01*
%TO.N,/CODEC_SDIN*%
X143248615Y-108500000D02*
X139250000Y-108500000D01*
X139250000Y-108500000D02*
X134250000Y-113500000D01*
X134250000Y-113500000D02*
X131500000Y-113500000D01*
%TO.N,/NRST*%
X115744590Y-110441124D02*
X115626838Y-110441124D01*
X115598513Y-110412799D02*
X113662799Y-110412799D01*
X115626838Y-110441124D02*
X115598513Y-110412799D01*
X113662799Y-110412799D02*
X113629715Y-110379715D01*
%TO.N,Net-(U3B-+)*%
X171900000Y-125500000D02*
X172400000Y-125000000D01*
X167000000Y-125500000D02*
X171900000Y-125500000D01*
%TO.N,/QSPI_CLK*%
X121230000Y-113720240D02*
X119204070Y-115746170D01*
X121230000Y-112589380D02*
X121230000Y-113720240D01*
%TO.N,/QSPI_IO0*%
X123809387Y-109851197D02*
X123979093Y-110020903D01*
X125500000Y-108500000D02*
X124573067Y-109426933D01*
X123328870Y-109370680D02*
X123809387Y-109851197D01*
X122500000Y-112339788D02*
X122500000Y-112589380D01*
X123385126Y-110275462D02*
X122904581Y-109794917D01*
X123979093Y-110020903D02*
X123979096Y-110020904D01*
X123979096Y-110020904D02*
X124629347Y-110671155D01*
X123554833Y-110445169D02*
X123385126Y-110275462D01*
X122500000Y-111500000D02*
X122500000Y-112339788D01*
X124629346Y-111010567D02*
X124544495Y-111095419D01*
X124233655Y-109426933D02*
X123753137Y-108946415D01*
X122480316Y-110219181D02*
X122960860Y-110699725D01*
X124205083Y-111095419D02*
X123554833Y-110445169D01*
X122876008Y-111123991D02*
X122500000Y-111500000D01*
X122960860Y-111039137D02*
X122876008Y-111123991D01*
X123413725Y-108946415D02*
X123328870Y-109031269D01*
X122565170Y-109794917D02*
X122480316Y-109879770D01*
X123328870Y-109031269D02*
G75*
G03*
X123328844Y-109370705I169730J-169731D01*
G01*
X122480316Y-109879770D02*
G75*
G03*
X122480291Y-110219206I169684J-169730D01*
G01*
X122904581Y-109794917D02*
G75*
G03*
X122565171Y-109794917I-169705J-169703D01*
G01*
X124573067Y-109426933D02*
G75*
G02*
X124233655Y-109426933I-169706J169704D01*
G01*
X122960860Y-110699725D02*
G75*
G02*
X122960829Y-111039106I-169660J-169675D01*
G01*
X123753137Y-108946415D02*
G75*
G03*
X123413725Y-108946415I-169706J-169704D01*
G01*
X124629347Y-110671155D02*
G75*
G02*
X124629386Y-111010606I-169747J-169745D01*
G01*
X124544495Y-111095419D02*
G75*
G02*
X124205083Y-111095419I-169706J169701D01*
G01*
%TO.N,/SWDIO*%
X125848606Y-104957779D02*
X123445413Y-102554587D01*
X123445413Y-102554587D02*
X122960000Y-102069174D01*
X122960000Y-102569174D02*
X122960000Y-94000000D01*
X123445413Y-102554587D02*
X123325000Y-102434173D01*
%TO.N,/QSPI_IO1*%
X120568986Y-103931014D02*
X119960000Y-104540000D01*
X119960000Y-104540000D02*
X119960000Y-105414380D01*
%TO.N,/QSPI_NCS*%
X118690000Y-105414380D02*
X118690000Y-104190000D01*
X118690000Y-104190000D02*
X118000000Y-103500000D01*
%TD*%
%TA.AperFunction,Conductor*%
%TO.N,GND*%
G36*
X119111651Y-113597430D02*
G01*
X119150959Y-113655194D01*
X119152797Y-113725040D01*
X119120623Y-113780928D01*
X118770434Y-114131118D01*
X118420474Y-114481078D01*
X118420473Y-114481079D01*
X118245048Y-114656503D01*
X118204151Y-114697400D01*
X118142828Y-114730884D01*
X118073136Y-114725900D01*
X118017203Y-114684028D01*
X117995579Y-114637312D01*
X117991843Y-114620943D01*
X117971392Y-114531343D01*
X117940988Y-114468209D01*
X117921969Y-114428715D01*
X117893237Y-114392686D01*
X117850944Y-114339652D01*
X117789536Y-114290681D01*
X117780364Y-114277613D01*
X117767584Y-114268046D01*
X117760706Y-114249605D01*
X117749398Y-114233495D01*
X117748746Y-114217541D01*
X117743167Y-114202582D01*
X117747350Y-114183349D01*
X117746548Y-114163683D01*
X117754800Y-114149104D01*
X117758019Y-114134309D01*
X117779170Y-114106055D01*
X117779450Y-114105775D01*
X117805124Y-114086073D01*
X117864949Y-114051534D01*
X118294681Y-113621801D01*
X118356002Y-113588318D01*
X118412954Y-113590754D01*
X118412961Y-113590711D01*
X118413387Y-113590773D01*
X118418971Y-113591012D01*
X118422488Y-113592099D01*
X118422489Y-113592099D01*
X118422491Y-113592100D01*
X118493051Y-113602380D01*
X118886948Y-113602379D01*
X118886950Y-113602379D01*
X118922228Y-113597239D01*
X118957509Y-113592100D01*
X118978482Y-113581846D01*
X119047354Y-113570087D01*
X119111651Y-113597430D01*
G37*
%TD.AperFunction*%
%TA.AperFunction,Conductor*%
G36*
X104680314Y-91250001D02*
G01*
X104684103Y-91250500D01*
X194934108Y-91250500D01*
X194997308Y-91250500D01*
X195002691Y-91250616D01*
X195406693Y-91268175D01*
X195417377Y-91269105D01*
X195815680Y-91321300D01*
X195826274Y-91323160D01*
X196218522Y-91409709D01*
X196228890Y-91412474D01*
X196612173Y-91532734D01*
X196622274Y-91536392D01*
X196993658Y-91689445D01*
X197003407Y-91693966D01*
X197132337Y-91760724D01*
X197360119Y-91878666D01*
X197369458Y-91884028D01*
X197698868Y-92092688D01*
X197708778Y-92098965D01*
X197717613Y-92105114D01*
X197888587Y-92235497D01*
X198037008Y-92348680D01*
X198045279Y-92355575D01*
X198342345Y-92625940D01*
X198349986Y-92633527D01*
X198622462Y-92928630D01*
X198629417Y-92936851D01*
X198875277Y-93254497D01*
X198881489Y-93263287D01*
X198925795Y-93332134D01*
X199098857Y-93601058D01*
X199104286Y-93610358D01*
X199291532Y-93965718D01*
X199296133Y-93975453D01*
X199451843Y-94345717D01*
X199455582Y-94355815D01*
X199578579Y-94738190D01*
X199581428Y-94748574D01*
X199670786Y-95140167D01*
X199672724Y-95150760D01*
X199727773Y-95548649D01*
X199728784Y-95559370D01*
X199749241Y-95963205D01*
X199749397Y-95968585D01*
X199749497Y-95982478D01*
X199749500Y-95983371D01*
X199749500Y-130497293D01*
X199749382Y-130502702D01*
X199732614Y-130886751D01*
X199731671Y-130897527D01*
X199681850Y-131275955D01*
X199679972Y-131286609D01*
X199597353Y-131659275D01*
X199594553Y-131669723D01*
X199479775Y-132033755D01*
X199476075Y-132043921D01*
X199330002Y-132396572D01*
X199325430Y-132406376D01*
X199149183Y-132744942D01*
X199143775Y-132754310D01*
X198938681Y-133076244D01*
X198932476Y-133085105D01*
X198700110Y-133387930D01*
X198693156Y-133396217D01*
X198435284Y-133677635D01*
X198427635Y-133685284D01*
X198146217Y-133943156D01*
X198137930Y-133950110D01*
X197835105Y-134182476D01*
X197826244Y-134188681D01*
X197504310Y-134393775D01*
X197494942Y-134399183D01*
X197156376Y-134575430D01*
X197146572Y-134580002D01*
X196793921Y-134726075D01*
X196783755Y-134729775D01*
X196419723Y-134844553D01*
X196409275Y-134847353D01*
X196036609Y-134929972D01*
X196025955Y-134931850D01*
X195647527Y-134981671D01*
X195636751Y-134982614D01*
X195634713Y-134982703D01*
X195253024Y-134999368D01*
X195252703Y-134999382D01*
X195247294Y-134999500D01*
X103288406Y-134999500D01*
X103282679Y-134999368D01*
X102922229Y-134982703D01*
X102910825Y-134981646D01*
X102556302Y-134932192D01*
X102545043Y-134930087D01*
X102196602Y-134848135D01*
X102185586Y-134845001D01*
X101846178Y-134731243D01*
X101835498Y-134727105D01*
X101776224Y-134700933D01*
X101508045Y-134582520D01*
X101497802Y-134577420D01*
X101395850Y-134520633D01*
X101185080Y-134403235D01*
X101175342Y-134397206D01*
X100880020Y-134194906D01*
X100870880Y-134188003D01*
X100595498Y-133959329D01*
X100587034Y-133951613D01*
X100333920Y-133698499D01*
X100326204Y-133690035D01*
X100097530Y-133414653D01*
X100090627Y-133405513D01*
X100087509Y-133400962D01*
X99888327Y-133110191D01*
X99882298Y-133100453D01*
X99863304Y-133066352D01*
X99789902Y-132934570D01*
X141005470Y-132934570D01*
X141005470Y-133066353D01*
X141039578Y-133193649D01*
X141072524Y-133250712D01*
X141105470Y-133307776D01*
X141198656Y-133400962D01*
X141312784Y-133466854D01*
X141440078Y-133500962D01*
X141440080Y-133500962D01*
X141571860Y-133500962D01*
X141571862Y-133500962D01*
X141699156Y-133466854D01*
X141813284Y-133400962D01*
X141906470Y-133307776D01*
X141972362Y-133193648D01*
X142006470Y-133066354D01*
X142006470Y-132934570D01*
X142505470Y-132934570D01*
X142505470Y-133066353D01*
X142539578Y-133193649D01*
X142572524Y-133250712D01*
X142605470Y-133307776D01*
X142698656Y-133400962D01*
X142812784Y-133466854D01*
X142940078Y-133500962D01*
X142940080Y-133500962D01*
X143071860Y-133500962D01*
X143071862Y-133500962D01*
X143199156Y-133466854D01*
X143313284Y-133400962D01*
X143406470Y-133307776D01*
X143472362Y-133193648D01*
X143506470Y-133066354D01*
X143506470Y-132934570D01*
X144005470Y-132934570D01*
X144005470Y-133066353D01*
X144039578Y-133193649D01*
X144072524Y-133250712D01*
X144105470Y-133307776D01*
X144198656Y-133400962D01*
X144312784Y-133466854D01*
X144440078Y-133500962D01*
X144440080Y-133500962D01*
X144571860Y-133500962D01*
X144571862Y-133500962D01*
X144699156Y-133466854D01*
X144813284Y-133400962D01*
X144906470Y-133307776D01*
X144972362Y-133193648D01*
X145006470Y-133066354D01*
X145006470Y-132934570D01*
X145505470Y-132934570D01*
X145505470Y-133066353D01*
X145539578Y-133193649D01*
X145572524Y-133250712D01*
X145605470Y-133307776D01*
X145698656Y-133400962D01*
X145812784Y-133466854D01*
X145940078Y-133500962D01*
X145940080Y-133500962D01*
X146071860Y-133500962D01*
X146071862Y-133500962D01*
X146199156Y-133466854D01*
X146313284Y-133400962D01*
X146406470Y-133307776D01*
X146472362Y-133193648D01*
X146506470Y-133066354D01*
X146506470Y-132934570D01*
X146472362Y-132807276D01*
X146406470Y-132693148D01*
X146313284Y-132599962D01*
X146256220Y-132567016D01*
X146199157Y-132534070D01*
X146135509Y-132517016D01*
X146071862Y-132499962D01*
X145940078Y-132499962D01*
X145812782Y-132534070D01*
X145698656Y-132599962D01*
X145698653Y-132599964D01*
X145605472Y-132693145D01*
X145605470Y-132693148D01*
X145539578Y-132807274D01*
X145505470Y-132934570D01*
X145006470Y-132934570D01*
X144972362Y-132807276D01*
X144906470Y-132693148D01*
X144813284Y-132599962D01*
X144756220Y-132567016D01*
X144699157Y-132534070D01*
X144635509Y-132517016D01*
X144571862Y-132499962D01*
X144440078Y-132499962D01*
X144312782Y-132534070D01*
X144198656Y-132599962D01*
X144198653Y-132599964D01*
X144105472Y-132693145D01*
X144105470Y-132693148D01*
X144039578Y-132807274D01*
X144005470Y-132934570D01*
X143506470Y-132934570D01*
X143472362Y-132807276D01*
X143406470Y-132693148D01*
X143313284Y-132599962D01*
X143256220Y-132567016D01*
X143199157Y-132534070D01*
X143135509Y-132517016D01*
X143071862Y-132499962D01*
X142940078Y-132499962D01*
X142812782Y-132534070D01*
X142698656Y-132599962D01*
X142698653Y-132599964D01*
X142605472Y-132693145D01*
X142605470Y-132693148D01*
X142539578Y-132807274D01*
X142505470Y-132934570D01*
X142006470Y-132934570D01*
X141972362Y-132807276D01*
X141906470Y-132693148D01*
X141813284Y-132599962D01*
X141756220Y-132567016D01*
X141699157Y-132534070D01*
X141635509Y-132517016D01*
X141571862Y-132499962D01*
X141440078Y-132499962D01*
X141312782Y-132534070D01*
X141198656Y-132599962D01*
X141198653Y-132599964D01*
X141105472Y-132693145D01*
X141105470Y-132693148D01*
X141039578Y-132807274D01*
X141005470Y-132934570D01*
X99789902Y-132934570D01*
X99708108Y-132787723D01*
X99703016Y-132777496D01*
X99558423Y-132450022D01*
X99554295Y-132439368D01*
X99440528Y-132099934D01*
X99437401Y-132088944D01*
X99355444Y-131740482D01*
X99353341Y-131729231D01*
X99350348Y-131707778D01*
X99303886Y-131374700D01*
X99302830Y-131363304D01*
X99300815Y-131319728D01*
X99286166Y-131002855D01*
X99286034Y-130997128D01*
X99286034Y-130368872D01*
X101785034Y-130368872D01*
X101785034Y-130631127D01*
X101806779Y-130796283D01*
X101819264Y-130891116D01*
X101882067Y-131125500D01*
X101887136Y-131144418D01*
X101887139Y-131144428D01*
X101987487Y-131386690D01*
X101987492Y-131386700D01*
X102118609Y-131613803D01*
X102278252Y-131821851D01*
X102278260Y-131821860D01*
X102463674Y-132007274D01*
X102463682Y-132007281D01*
X102671730Y-132166924D01*
X102898833Y-132298041D01*
X102898843Y-132298046D01*
X103141105Y-132398394D01*
X103141115Y-132398398D01*
X103394418Y-132466270D01*
X103642722Y-132498960D01*
X103650327Y-132499962D01*
X103654414Y-132500500D01*
X103654421Y-132500500D01*
X103916647Y-132500500D01*
X103916654Y-132500500D01*
X104176650Y-132466270D01*
X104429953Y-132398398D01*
X104672231Y-132298043D01*
X104899337Y-132166924D01*
X105107385Y-132007282D01*
X105107389Y-132007277D01*
X105107394Y-132007274D01*
X105292808Y-131821860D01*
X105292811Y-131821855D01*
X105292816Y-131821851D01*
X105452458Y-131613803D01*
X105583577Y-131386697D01*
X105683932Y-131144419D01*
X105729905Y-130972844D01*
X115191524Y-130972844D01*
X115197925Y-131032372D01*
X115197927Y-131032379D01*
X115248169Y-131167086D01*
X115248173Y-131167093D01*
X115334333Y-131282187D01*
X115334336Y-131282190D01*
X115449430Y-131368350D01*
X115449437Y-131368354D01*
X115584144Y-131418596D01*
X115584151Y-131418598D01*
X115643679Y-131424999D01*
X115643696Y-131425000D01*
X115866524Y-131425000D01*
X115866524Y-130750000D01*
X115191524Y-130750000D01*
X115191524Y-130972844D01*
X105729905Y-130972844D01*
X105751804Y-130891116D01*
X105786034Y-130631120D01*
X105786034Y-130450272D01*
X115866524Y-130450272D01*
X115866524Y-130549728D01*
X115904584Y-130641614D01*
X115974910Y-130711940D01*
X116066796Y-130750000D01*
X116166252Y-130750000D01*
X116258138Y-130711940D01*
X116328464Y-130641614D01*
X116366524Y-130549728D01*
X116366524Y-131425000D01*
X116589352Y-131425000D01*
X116589368Y-131424999D01*
X116648896Y-131418598D01*
X116648903Y-131418596D01*
X116783610Y-131368354D01*
X116783617Y-131368350D01*
X116828741Y-131334570D01*
X141005470Y-131334570D01*
X141005470Y-131466353D01*
X141039578Y-131593649D01*
X141072524Y-131650712D01*
X141105470Y-131707776D01*
X141198656Y-131800962D01*
X141312784Y-131866854D01*
X141440078Y-131900962D01*
X141440080Y-131900962D01*
X141571860Y-131900962D01*
X141571862Y-131900962D01*
X141699156Y-131866854D01*
X141813284Y-131800962D01*
X141906470Y-131707776D01*
X141972362Y-131593648D01*
X142006470Y-131466354D01*
X142006470Y-131334570D01*
X145505470Y-131334570D01*
X145505470Y-131466353D01*
X145539578Y-131593649D01*
X145572524Y-131650712D01*
X145605470Y-131707776D01*
X145698656Y-131800962D01*
X145812784Y-131866854D01*
X145940078Y-131900962D01*
X145940080Y-131900962D01*
X146071860Y-131900962D01*
X146071862Y-131900962D01*
X146199156Y-131866854D01*
X146313284Y-131800962D01*
X146406470Y-131707776D01*
X146472362Y-131593648D01*
X146506470Y-131466354D01*
X146506470Y-131334570D01*
X146499485Y-131308500D01*
X171895050Y-131308500D01*
X171911849Y-131319725D01*
X171911855Y-131319728D01*
X172080182Y-131389451D01*
X172080194Y-131389454D01*
X172258890Y-131424999D01*
X172258894Y-131425000D01*
X172441106Y-131425000D01*
X172441109Y-131424999D01*
X172619805Y-131389454D01*
X172619813Y-131389452D01*
X172788151Y-131319724D01*
X172788154Y-131319723D01*
X172804947Y-131308500D01*
X172804948Y-131308500D01*
X172350001Y-130853553D01*
X172350000Y-130853553D01*
X171895050Y-131308500D01*
X146499485Y-131308500D01*
X146472362Y-131207276D01*
X146406470Y-131093148D01*
X146313284Y-130999962D01*
X146235316Y-130954947D01*
X146199157Y-130934070D01*
X146135509Y-130917016D01*
X146071862Y-130899962D01*
X145940078Y-130899962D01*
X145812782Y-130934070D01*
X145698656Y-130999962D01*
X145698653Y-130999964D01*
X145605472Y-131093145D01*
X145605470Y-131093148D01*
X145539578Y-131207274D01*
X145505470Y-131334570D01*
X142006470Y-131334570D01*
X141972362Y-131207276D01*
X141906470Y-131093148D01*
X141813284Y-130999962D01*
X141735316Y-130954947D01*
X141699157Y-130934070D01*
X141635509Y-130917016D01*
X141571862Y-130899962D01*
X141440078Y-130899962D01*
X141312782Y-130934070D01*
X141198656Y-130999962D01*
X141198653Y-130999964D01*
X141105472Y-131093145D01*
X141105470Y-131093148D01*
X141039578Y-131207274D01*
X141005470Y-131334570D01*
X116828741Y-131334570D01*
X116898710Y-131282190D01*
X116919373Y-131254588D01*
X117001183Y-131133211D01*
X117017214Y-131119921D01*
X117029694Y-131103250D01*
X117043572Y-131098073D01*
X117054975Y-131088621D01*
X117075647Y-131086108D01*
X117095158Y-131078831D01*
X117112461Y-131081634D01*
X117124334Y-131080192D01*
X117134811Y-131085256D01*
X117151459Y-131087954D01*
X117184072Y-131101463D01*
X117276870Y-131119921D01*
X117304913Y-131125499D01*
X117304917Y-131125500D01*
X117304918Y-131125500D01*
X117428131Y-131125500D01*
X117428132Y-131125499D01*
X117548976Y-131101463D01*
X117662810Y-131054311D01*
X117765257Y-130985858D01*
X117852382Y-130898733D01*
X117875042Y-130864819D01*
X117888422Y-130844796D01*
X117942034Y-130799991D01*
X118011359Y-130791284D01*
X118074387Y-130821438D01*
X118094626Y-130844796D01*
X118130665Y-130898732D01*
X118130668Y-130898736D01*
X118217787Y-130985855D01*
X118217791Y-130985858D01*
X118320231Y-131054307D01*
X118320237Y-131054310D01*
X118320238Y-131054311D01*
X118434072Y-131101463D01*
X118526870Y-131119921D01*
X118554913Y-131125499D01*
X118554917Y-131125500D01*
X118554918Y-131125500D01*
X118678131Y-131125500D01*
X118678132Y-131125499D01*
X118798976Y-131101463D01*
X118912810Y-131054311D01*
X119015257Y-130985858D01*
X119102382Y-130898733D01*
X119170835Y-130796286D01*
X119217987Y-130682452D01*
X119242024Y-130561606D01*
X119242024Y-130438394D01*
X119217987Y-130317548D01*
X119170835Y-130203714D01*
X119170834Y-130203713D01*
X119170831Y-130203707D01*
X119102382Y-130101267D01*
X119102379Y-130101263D01*
X119015260Y-130014144D01*
X119015256Y-130014141D01*
X118912816Y-129945692D01*
X118912807Y-129945687D01*
X118803715Y-129900500D01*
X118798976Y-129898537D01*
X118798972Y-129898536D01*
X118798968Y-129898535D01*
X118678134Y-129874500D01*
X118678130Y-129874500D01*
X118554918Y-129874500D01*
X118554913Y-129874500D01*
X118434079Y-129898535D01*
X118434069Y-129898538D01*
X118320240Y-129945687D01*
X118320231Y-129945692D01*
X118217791Y-130014141D01*
X118217787Y-130014144D01*
X118130668Y-130101263D01*
X118094626Y-130155204D01*
X118041013Y-130200008D01*
X117971688Y-130208715D01*
X117908661Y-130178560D01*
X117888422Y-130155204D01*
X117868721Y-130125720D01*
X117852382Y-130101267D01*
X117852381Y-130101266D01*
X117852379Y-130101263D01*
X117765260Y-130014144D01*
X117765256Y-130014141D01*
X117662816Y-129945692D01*
X117662807Y-129945687D01*
X117553715Y-129900500D01*
X117548976Y-129898537D01*
X117548972Y-129898536D01*
X117548968Y-129898535D01*
X117428134Y-129874500D01*
X117428130Y-129874500D01*
X117304918Y-129874500D01*
X117304913Y-129874500D01*
X117184079Y-129898535D01*
X117184065Y-129898539D01*
X117151460Y-129912045D01*
X117081991Y-129919514D01*
X117019512Y-129888239D01*
X116998548Y-129862708D01*
X116957503Y-129796343D01*
X116911259Y-129734570D01*
X141005470Y-129734570D01*
X141005470Y-129866354D01*
X141015246Y-129902839D01*
X141039578Y-129993649D01*
X141053364Y-130017526D01*
X141105470Y-130107776D01*
X141198656Y-130200962D01*
X141312784Y-130266854D01*
X141440078Y-130300962D01*
X141440080Y-130300962D01*
X141571860Y-130300962D01*
X141571862Y-130300962D01*
X141699156Y-130266854D01*
X141813284Y-130200962D01*
X141906470Y-130107776D01*
X141972362Y-129993648D01*
X142006470Y-129866354D01*
X142006470Y-129734570D01*
X142505470Y-129734570D01*
X142505470Y-129866354D01*
X142515246Y-129902839D01*
X142539578Y-129993649D01*
X142553364Y-130017526D01*
X142605470Y-130107776D01*
X142698656Y-130200962D01*
X142812784Y-130266854D01*
X142940078Y-130300962D01*
X142940080Y-130300962D01*
X143071860Y-130300962D01*
X143071862Y-130300962D01*
X143199156Y-130266854D01*
X143313284Y-130200962D01*
X143406470Y-130107776D01*
X143472362Y-129993648D01*
X143506470Y-129866354D01*
X143506470Y-129734570D01*
X144005470Y-129734570D01*
X144005470Y-129866354D01*
X144015246Y-129902839D01*
X144039578Y-129993649D01*
X144053364Y-130017526D01*
X144105470Y-130107776D01*
X144198656Y-130200962D01*
X144312784Y-130266854D01*
X144440078Y-130300962D01*
X144440080Y-130300962D01*
X144571860Y-130300962D01*
X144571862Y-130300962D01*
X144699156Y-130266854D01*
X144813284Y-130200962D01*
X144906470Y-130107776D01*
X144972362Y-129993648D01*
X145006470Y-129866354D01*
X145006470Y-129734570D01*
X145505470Y-129734570D01*
X145505470Y-129866354D01*
X145515246Y-129902839D01*
X145539578Y-129993649D01*
X145553364Y-130017526D01*
X145605470Y-130107776D01*
X145698656Y-130200962D01*
X145812784Y-130266854D01*
X145940078Y-130300962D01*
X145940080Y-130300962D01*
X146071860Y-130300962D01*
X146071862Y-130300962D01*
X146199156Y-130266854D01*
X146313284Y-130200962D01*
X146406470Y-130107776D01*
X146436798Y-130055247D01*
X169224500Y-130055247D01*
X169224500Y-130944752D01*
X169236131Y-131003229D01*
X169236132Y-131003230D01*
X169280447Y-131069552D01*
X169346769Y-131113867D01*
X169346770Y-131113868D01*
X169405247Y-131125499D01*
X169405250Y-131125500D01*
X169405252Y-131125500D01*
X170294750Y-131125500D01*
X170294751Y-131125499D01*
X170322796Y-131119921D01*
X170353229Y-131113868D01*
X170353229Y-131113867D01*
X170353231Y-131113867D01*
X170419552Y-131069552D01*
X170463867Y-131003231D01*
X170463868Y-131003222D01*
X170467469Y-130994533D01*
X170511310Y-130940130D01*
X170577604Y-130918064D01*
X170645303Y-130935343D01*
X170669712Y-130954304D01*
X170701263Y-130985855D01*
X170701267Y-130985858D01*
X170803707Y-131054307D01*
X170803713Y-131054310D01*
X170803714Y-131054311D01*
X170917548Y-131101463D01*
X171010346Y-131119921D01*
X171038389Y-131125499D01*
X171038393Y-131125500D01*
X171038394Y-131125500D01*
X171161607Y-131125500D01*
X171161608Y-131125499D01*
X171282452Y-131101463D01*
X171396286Y-131054311D01*
X171472736Y-131003229D01*
X171503798Y-130982474D01*
X171504749Y-130983897D01*
X171518311Y-130978135D01*
X171996446Y-130500001D01*
X171996446Y-130499999D01*
X171946719Y-130450272D01*
X172100000Y-130450272D01*
X172100000Y-130549728D01*
X172138060Y-130641614D01*
X172208386Y-130711940D01*
X172300272Y-130750000D01*
X172399728Y-130750000D01*
X172491614Y-130711940D01*
X172561940Y-130641614D01*
X172600000Y-130549728D01*
X172600000Y-130499999D01*
X172703553Y-130499999D01*
X172703553Y-130500001D01*
X173158500Y-130954948D01*
X173158500Y-130954947D01*
X173169723Y-130938154D01*
X173169724Y-130938151D01*
X173239452Y-130769813D01*
X173239454Y-130769805D01*
X173274999Y-130591109D01*
X173275000Y-130591106D01*
X173275000Y-130408894D01*
X173271045Y-130389010D01*
X173271045Y-130389007D01*
X173267040Y-130368872D01*
X193249500Y-130368872D01*
X193249500Y-130631127D01*
X193271245Y-130796283D01*
X193283730Y-130891116D01*
X193346533Y-131125500D01*
X193351602Y-131144418D01*
X193351605Y-131144428D01*
X193451953Y-131386690D01*
X193451958Y-131386700D01*
X193583075Y-131613803D01*
X193742718Y-131821851D01*
X193742726Y-131821860D01*
X193928140Y-132007274D01*
X193928148Y-132007281D01*
X194136196Y-132166924D01*
X194363299Y-132298041D01*
X194363309Y-132298046D01*
X194605571Y-132398394D01*
X194605581Y-132398398D01*
X194858884Y-132466270D01*
X195107188Y-132498960D01*
X195114793Y-132499962D01*
X195118880Y-132500500D01*
X195118887Y-132500500D01*
X195381113Y-132500500D01*
X195381120Y-132500500D01*
X195641116Y-132466270D01*
X195894419Y-132398398D01*
X196136697Y-132298043D01*
X196363803Y-132166924D01*
X196571851Y-132007282D01*
X196571855Y-132007277D01*
X196571860Y-132007274D01*
X196757274Y-131821860D01*
X196757277Y-131821855D01*
X196757282Y-131821851D01*
X196916924Y-131613803D01*
X197048043Y-131386697D01*
X197148398Y-131144419D01*
X197216270Y-130891116D01*
X197250500Y-130631120D01*
X197250500Y-130368880D01*
X197216270Y-130108884D01*
X197148398Y-129855581D01*
X197129375Y-129809656D01*
X197048046Y-129613309D01*
X197048041Y-129613299D01*
X196916924Y-129386196D01*
X196775169Y-129201460D01*
X196757282Y-129178149D01*
X196757281Y-129178148D01*
X196757274Y-129178140D01*
X196571860Y-128992726D01*
X196571851Y-128992718D01*
X196363803Y-128833075D01*
X196136700Y-128701958D01*
X196136690Y-128701953D01*
X195894428Y-128601605D01*
X195894421Y-128601603D01*
X195894419Y-128601602D01*
X195641116Y-128533730D01*
X195583339Y-128526123D01*
X195381127Y-128499500D01*
X195381120Y-128499500D01*
X195118880Y-128499500D01*
X195118872Y-128499500D01*
X194887772Y-128529926D01*
X194858884Y-128533730D01*
X194605581Y-128601602D01*
X194605571Y-128601605D01*
X194363309Y-128701953D01*
X194363299Y-128701958D01*
X194136196Y-128833075D01*
X193928148Y-128992718D01*
X193742718Y-129178148D01*
X193583075Y-129386196D01*
X193451958Y-129613299D01*
X193451953Y-129613309D01*
X193351605Y-129855571D01*
X193351602Y-129855581D01*
X193284027Y-130107778D01*
X193283730Y-130108885D01*
X193249500Y-130368872D01*
X173267040Y-130368872D01*
X173239454Y-130230194D01*
X173239451Y-130230182D01*
X173169728Y-130061855D01*
X173169725Y-130061849D01*
X173158500Y-130045050D01*
X172703553Y-130499999D01*
X172600000Y-130499999D01*
X172600000Y-130450272D01*
X172561940Y-130358386D01*
X172491614Y-130288060D01*
X172399728Y-130250000D01*
X172300272Y-130250000D01*
X172208386Y-130288060D01*
X172138060Y-130358386D01*
X172100000Y-130450272D01*
X171946719Y-130450272D01*
X171524940Y-130028492D01*
X171519405Y-130027442D01*
X171503942Y-130017309D01*
X171503798Y-130017526D01*
X171396292Y-129945692D01*
X171396283Y-129945687D01*
X171287191Y-129900500D01*
X171282452Y-129898537D01*
X171282448Y-129898536D01*
X171282444Y-129898535D01*
X171161610Y-129874500D01*
X171161606Y-129874500D01*
X171038394Y-129874500D01*
X171038389Y-129874500D01*
X170917555Y-129898535D01*
X170917545Y-129898538D01*
X170803716Y-129945687D01*
X170803707Y-129945692D01*
X170701267Y-130014141D01*
X170701262Y-130014145D01*
X170669711Y-130045696D01*
X170608387Y-130079181D01*
X170538696Y-130074195D01*
X170482763Y-130032323D01*
X170467470Y-130005468D01*
X170463867Y-129996770D01*
X170463867Y-129996769D01*
X170445133Y-129968732D01*
X170419552Y-129930447D01*
X170353230Y-129886132D01*
X170353229Y-129886131D01*
X170294752Y-129874500D01*
X170294748Y-129874500D01*
X169405252Y-129874500D01*
X169405247Y-129874500D01*
X169346770Y-129886131D01*
X169346769Y-129886132D01*
X169280447Y-129930447D01*
X169236132Y-129996769D01*
X169236131Y-129996770D01*
X169224500Y-130055247D01*
X146436798Y-130055247D01*
X146472362Y-129993648D01*
X146506470Y-129866354D01*
X146506470Y-129734570D01*
X146472362Y-129607276D01*
X146453727Y-129575000D01*
X146406472Y-129493152D01*
X146406470Y-129493148D01*
X146347430Y-129434108D01*
X158499500Y-129434108D01*
X158499500Y-129565892D01*
X158512203Y-129613299D01*
X158533608Y-129693187D01*
X158547824Y-129717809D01*
X158599500Y-129807314D01*
X158692686Y-129900500D01*
X158770961Y-129945692D01*
X158806079Y-129965968D01*
X158806814Y-129966392D01*
X158934108Y-130000500D01*
X158934110Y-130000500D01*
X159065890Y-130000500D01*
X159065892Y-130000500D01*
X159193186Y-129966392D01*
X159307314Y-129900500D01*
X159400500Y-129807314D01*
X159466392Y-129693186D01*
X159495923Y-129582971D01*
X159532286Y-129523314D01*
X159595133Y-129492784D01*
X159664509Y-129501078D01*
X159718387Y-129545563D01*
X159735471Y-129582971D01*
X159765630Y-129695526D01*
X159831522Y-129809654D01*
X159924708Y-129902840D01*
X159998930Y-129945692D01*
X160034048Y-129965968D01*
X160038836Y-129968732D01*
X160166130Y-130002840D01*
X160166132Y-130002840D01*
X160297912Y-130002840D01*
X160297914Y-130002840D01*
X160425208Y-129968732D01*
X160539336Y-129902840D01*
X160632522Y-129809654D01*
X160698414Y-129695526D01*
X160732522Y-129568232D01*
X160732522Y-129513529D01*
X160741166Y-129484088D01*
X160747690Y-129454102D01*
X160751444Y-129449086D01*
X160752207Y-129446490D01*
X160768841Y-129425848D01*
X160789841Y-129404848D01*
X160851164Y-129371363D01*
X160920856Y-129376347D01*
X160976789Y-129418219D01*
X161001206Y-129483683D01*
X161001522Y-129492529D01*
X161001522Y-129565468D01*
X161006213Y-129582974D01*
X161035630Y-129692763D01*
X161059768Y-129734570D01*
X161101522Y-129806890D01*
X161194708Y-129900076D01*
X161308836Y-129965968D01*
X161436130Y-130000076D01*
X161436132Y-130000076D01*
X161567912Y-130000076D01*
X161567914Y-130000076D01*
X161695208Y-129965968D01*
X161809336Y-129900076D01*
X161902522Y-129806890D01*
X161968414Y-129692762D01*
X161968753Y-129691498D01*
X171895050Y-129691498D01*
X172350000Y-130146446D01*
X172350001Y-130146446D01*
X172804947Y-129691498D01*
X172788145Y-129680271D01*
X172619817Y-129610548D01*
X172619805Y-129610545D01*
X172441109Y-129575000D01*
X172258890Y-129575000D01*
X172080194Y-129610545D01*
X172080186Y-129610547D01*
X171911848Y-129680274D01*
X171895050Y-129691498D01*
X161968753Y-129691498D01*
X162002522Y-129565468D01*
X162002522Y-129499252D01*
X162004642Y-129487934D01*
X162015477Y-129466643D01*
X162022207Y-129443724D01*
X162035599Y-129427103D01*
X162036332Y-129425664D01*
X162037139Y-129425191D01*
X162038835Y-129423087D01*
X162199860Y-129262063D01*
X162199862Y-129262062D01*
X162260465Y-129201459D01*
X162260468Y-129201452D01*
X162260773Y-129201057D01*
X162271475Y-129188850D01*
X166173507Y-125286819D01*
X166194083Y-125275583D01*
X166212132Y-125260616D01*
X166227175Y-125257513D01*
X166234830Y-125253334D01*
X166246204Y-125251409D01*
X166253671Y-125250500D01*
X166315892Y-125250500D01*
X166367694Y-125236619D01*
X166376359Y-125235565D01*
X166402550Y-125239911D01*
X166429097Y-125240543D01*
X166436485Y-125245543D01*
X166445286Y-125247004D01*
X166464970Y-125264822D01*
X166486961Y-125279705D01*
X166490473Y-125287906D01*
X166497086Y-125293892D01*
X166504012Y-125319522D01*
X166514466Y-125343933D01*
X166513658Y-125355217D01*
X166515314Y-125361342D01*
X166512612Y-125369857D01*
X166511118Y-125390748D01*
X166499500Y-125434108D01*
X166499500Y-125565892D01*
X166508329Y-125598841D01*
X166533608Y-125693187D01*
X166566554Y-125750250D01*
X166599500Y-125807314D01*
X166692686Y-125900500D01*
X166806814Y-125966392D01*
X166934108Y-126000500D01*
X166934110Y-126000500D01*
X167065890Y-126000500D01*
X167065892Y-126000500D01*
X167193186Y-125966392D01*
X167307314Y-125900500D01*
X167345995Y-125861819D01*
X167407318Y-125828334D01*
X167433676Y-125825500D01*
X171942851Y-125825500D01*
X171942853Y-125825500D01*
X172025639Y-125803318D01*
X172099862Y-125760465D01*
X172323508Y-125536819D01*
X172384831Y-125503334D01*
X172411189Y-125500500D01*
X172465890Y-125500500D01*
X172465892Y-125500500D01*
X172593186Y-125466392D01*
X172707314Y-125400500D01*
X172800500Y-125307314D01*
X172866392Y-125193186D01*
X172900500Y-125065892D01*
X172900500Y-124934108D01*
X172866392Y-124806814D01*
X172865835Y-124805850D01*
X172844337Y-124768614D01*
X172800500Y-124692686D01*
X172707314Y-124599500D01*
X172633380Y-124556814D01*
X172593187Y-124533608D01*
X172529539Y-124516554D01*
X172465892Y-124499500D01*
X172334108Y-124499500D01*
X172206812Y-124533608D01*
X172092686Y-124599500D01*
X172092683Y-124599502D01*
X171999502Y-124692683D01*
X171999500Y-124692686D01*
X171933608Y-124806812D01*
X171899500Y-124934108D01*
X171899500Y-124988811D01*
X171890855Y-125018251D01*
X171884332Y-125048238D01*
X171880577Y-125053253D01*
X171879815Y-125055850D01*
X171863181Y-125076492D01*
X171801492Y-125138181D01*
X171740169Y-125171666D01*
X171713811Y-125174500D01*
X167433676Y-125174500D01*
X167366637Y-125154815D01*
X167345995Y-125138181D01*
X167307316Y-125099502D01*
X167307314Y-125099500D01*
X167234246Y-125057314D01*
X167193187Y-125033608D01*
X167103045Y-125009455D01*
X167065892Y-124999500D01*
X166934108Y-124999500D01*
X166890749Y-125011118D01*
X166820899Y-125009455D01*
X166763037Y-124970292D01*
X166735533Y-124906063D01*
X166738881Y-124859252D01*
X166750500Y-124815892D01*
X166750500Y-124684108D01*
X166716392Y-124556814D01*
X166650500Y-124442686D01*
X166557314Y-124349500D01*
X166471578Y-124300000D01*
X166443187Y-124283608D01*
X166379539Y-124266554D01*
X166315892Y-124249500D01*
X166184108Y-124249500D01*
X166056812Y-124283608D01*
X165942686Y-124349500D01*
X165942683Y-124349502D01*
X165849502Y-124442683D01*
X165849500Y-124442686D01*
X165783608Y-124556812D01*
X165749500Y-124684108D01*
X165749500Y-124738811D01*
X165729815Y-124805850D01*
X165713181Y-124826492D01*
X164955212Y-125584460D01*
X164893889Y-125617945D01*
X164824197Y-125612961D01*
X164768264Y-125571089D01*
X164743847Y-125505625D01*
X164758699Y-125437352D01*
X164760145Y-125434778D01*
X164779935Y-125400500D01*
X164803317Y-125360001D01*
X164803318Y-125360000D01*
X164825500Y-125277215D01*
X164825500Y-123307193D01*
X164845185Y-123240154D01*
X164861819Y-123219512D01*
X164900500Y-123180831D01*
X164966392Y-123066703D01*
X165000500Y-122939409D01*
X165000500Y-122807625D01*
X164966392Y-122680331D01*
X164900500Y-122566203D01*
X164807314Y-122473017D01*
X164750250Y-122440071D01*
X164693187Y-122407125D01*
X164600238Y-122382220D01*
X164565892Y-122373017D01*
X164434108Y-122373017D01*
X164306812Y-122407125D01*
X164192686Y-122473017D01*
X164192683Y-122473019D01*
X164099502Y-122566200D01*
X164099500Y-122566203D01*
X164033608Y-122680329D01*
X164031142Y-122689534D01*
X163999500Y-122807625D01*
X163999500Y-122939409D01*
X164001966Y-122948611D01*
X164033608Y-123066704D01*
X164066554Y-123123767D01*
X164099500Y-123180831D01*
X164099502Y-123180833D01*
X164138181Y-123219512D01*
X164171666Y-123280835D01*
X164174500Y-123307193D01*
X164174500Y-125048173D01*
X164154815Y-125115212D01*
X164138181Y-125135854D01*
X163703694Y-125570340D01*
X163642371Y-125603825D01*
X163572679Y-125598841D01*
X163516746Y-125556969D01*
X163492329Y-125491505D01*
X163507181Y-125423232D01*
X163508666Y-125420590D01*
X163509078Y-125419877D01*
X163522480Y-125369857D01*
X163531259Y-125337094D01*
X163531259Y-123316396D01*
X163550944Y-123249357D01*
X163567578Y-123228715D01*
X163576781Y-123219512D01*
X163606259Y-123190034D01*
X163672151Y-123075906D01*
X163706259Y-122948612D01*
X163706259Y-122816828D01*
X163672151Y-122689534D01*
X163666836Y-122680329D01*
X163663322Y-122674241D01*
X163606259Y-122575406D01*
X163513073Y-122482220D01*
X163456009Y-122449274D01*
X163398946Y-122416328D01*
X163335298Y-122399274D01*
X163271651Y-122382220D01*
X163139867Y-122382220D01*
X163012571Y-122416328D01*
X162898445Y-122482220D01*
X162898442Y-122482222D01*
X162805261Y-122575403D01*
X162805259Y-122575406D01*
X162739367Y-122689532D01*
X162705259Y-122816828D01*
X162705259Y-122948611D01*
X162739367Y-123075907D01*
X162772313Y-123132970D01*
X162805259Y-123190034D01*
X162805261Y-123190036D01*
X162843940Y-123228715D01*
X162877425Y-123290038D01*
X162880259Y-123316396D01*
X162880259Y-125108052D01*
X162860574Y-125175091D01*
X162843940Y-125195733D01*
X159076492Y-128963181D01*
X159015169Y-128996666D01*
X158988811Y-128999500D01*
X158934108Y-128999500D01*
X158806812Y-129033608D01*
X158692686Y-129099500D01*
X158692683Y-129099502D01*
X158599502Y-129192683D01*
X158599500Y-129192686D01*
X158533608Y-129306812D01*
X158508649Y-129399962D01*
X158499500Y-129434108D01*
X146347430Y-129434108D01*
X146313284Y-129399962D01*
X146256220Y-129367016D01*
X146199157Y-129334070D01*
X146097434Y-129306814D01*
X146071862Y-129299962D01*
X145940078Y-129299962D01*
X145812782Y-129334070D01*
X145698656Y-129399962D01*
X145698653Y-129399964D01*
X145605472Y-129493145D01*
X145605470Y-129493148D01*
X145539578Y-129607274D01*
X145538701Y-129610548D01*
X145505470Y-129734570D01*
X145006470Y-129734570D01*
X144972362Y-129607276D01*
X144906470Y-129493148D01*
X144813284Y-129399962D01*
X144756220Y-129367016D01*
X144699157Y-129334070D01*
X144597434Y-129306814D01*
X144571862Y-129299962D01*
X144440078Y-129299962D01*
X144312782Y-129334070D01*
X144198656Y-129399962D01*
X144198653Y-129399964D01*
X144105472Y-129493145D01*
X144105470Y-129493148D01*
X144039578Y-129607274D01*
X144038701Y-129610548D01*
X144005470Y-129734570D01*
X143506470Y-129734570D01*
X143472362Y-129607276D01*
X143406470Y-129493148D01*
X143313284Y-129399962D01*
X143256220Y-129367016D01*
X143199157Y-129334070D01*
X143097434Y-129306814D01*
X143071862Y-129299962D01*
X142940078Y-129299962D01*
X142812782Y-129334070D01*
X142698656Y-129399962D01*
X142698653Y-129399964D01*
X142605472Y-129493145D01*
X142605470Y-129493148D01*
X142539578Y-129607274D01*
X142538701Y-129610548D01*
X142505470Y-129734570D01*
X142006470Y-129734570D01*
X141972362Y-129607276D01*
X141906470Y-129493148D01*
X141813284Y-129399962D01*
X141756220Y-129367016D01*
X141699157Y-129334070D01*
X141597434Y-129306814D01*
X141571862Y-129299962D01*
X141440078Y-129299962D01*
X141312782Y-129334070D01*
X141198656Y-129399962D01*
X141198653Y-129399964D01*
X141105472Y-129493145D01*
X141105470Y-129493148D01*
X141039578Y-129607274D01*
X141038701Y-129610548D01*
X141005470Y-129734570D01*
X116911259Y-129734570D01*
X116898714Y-129717812D01*
X116898711Y-129717809D01*
X116783617Y-129631649D01*
X116783610Y-129631645D01*
X116648903Y-129581403D01*
X116648896Y-129581401D01*
X116589368Y-129575000D01*
X116366524Y-129575000D01*
X116366524Y-130450272D01*
X116328464Y-130358386D01*
X116258138Y-130288060D01*
X116166252Y-130250000D01*
X116066796Y-130250000D01*
X115974910Y-130288060D01*
X115904584Y-130358386D01*
X115866524Y-130450272D01*
X105786034Y-130450272D01*
X105786034Y-130368880D01*
X105751804Y-130108884D01*
X105729905Y-130027155D01*
X115191524Y-130027155D01*
X115191524Y-130250000D01*
X115866524Y-130250000D01*
X115866524Y-129575000D01*
X115643679Y-129575000D01*
X115584151Y-129581401D01*
X115584144Y-129581403D01*
X115449437Y-129631645D01*
X115449430Y-129631649D01*
X115334336Y-129717809D01*
X115334333Y-129717812D01*
X115248173Y-129832906D01*
X115248169Y-129832913D01*
X115197927Y-129967620D01*
X115197925Y-129967627D01*
X115191524Y-130027155D01*
X105729905Y-130027155D01*
X105683932Y-129855581D01*
X105664909Y-129809656D01*
X105583580Y-129613309D01*
X105583575Y-129613299D01*
X105452458Y-129386196D01*
X105310703Y-129201460D01*
X105292816Y-129178149D01*
X105292815Y-129178148D01*
X105292808Y-129178140D01*
X105107394Y-128992726D01*
X105107385Y-128992718D01*
X104899337Y-128833075D01*
X104672234Y-128701958D01*
X104672224Y-128701953D01*
X104429962Y-128601605D01*
X104429955Y-128601603D01*
X104429953Y-128601602D01*
X104176650Y-128533730D01*
X104118873Y-128526123D01*
X103916661Y-128499500D01*
X103916654Y-128499500D01*
X103654414Y-128499500D01*
X103654406Y-128499500D01*
X103423306Y-128529926D01*
X103394418Y-128533730D01*
X103141115Y-128601602D01*
X103141105Y-128601605D01*
X102898843Y-128701953D01*
X102898833Y-128701958D01*
X102671730Y-128833075D01*
X102463682Y-128992718D01*
X102278252Y-129178148D01*
X102118609Y-129386196D01*
X101987492Y-129613299D01*
X101987487Y-129613309D01*
X101887139Y-129855571D01*
X101887136Y-129855581D01*
X101819561Y-130107778D01*
X101819264Y-130108885D01*
X101785034Y-130368872D01*
X99286034Y-130368872D01*
X99286034Y-121141947D01*
X102300000Y-121141947D01*
X102300000Y-121378052D01*
X102336934Y-121611247D01*
X102409897Y-121835802D01*
X102517087Y-122046174D01*
X102577338Y-122129104D01*
X102577340Y-122129105D01*
X103317037Y-121389408D01*
X103334075Y-121452993D01*
X103399901Y-121567007D01*
X103492993Y-121660099D01*
X103607007Y-121725925D01*
X103670590Y-121742962D01*
X102930893Y-122482658D01*
X102933854Y-122520276D01*
X102933854Y-122539733D01*
X102930894Y-122577340D01*
X103670591Y-123317037D01*
X103607007Y-123334075D01*
X103492993Y-123399901D01*
X103399901Y-123492993D01*
X103334075Y-123607007D01*
X103317037Y-123670591D01*
X102577340Y-122930894D01*
X102517084Y-123013830D01*
X102409897Y-123224197D01*
X102336934Y-123448752D01*
X102300000Y-123681947D01*
X102300000Y-123918052D01*
X102336934Y-124151247D01*
X102409897Y-124375802D01*
X102517087Y-124586174D01*
X102577338Y-124669104D01*
X102577340Y-124669105D01*
X103317037Y-123929408D01*
X103334075Y-123992993D01*
X103399901Y-124107007D01*
X103492993Y-124200099D01*
X103607007Y-124265925D01*
X103670590Y-124282962D01*
X102930893Y-125022658D01*
X103013828Y-125082914D01*
X103224197Y-125190102D01*
X103448752Y-125263065D01*
X103448751Y-125263065D01*
X103681948Y-125300000D01*
X103918052Y-125300000D01*
X104151247Y-125263065D01*
X104375802Y-125190102D01*
X104586163Y-125082918D01*
X104586169Y-125082914D01*
X104632066Y-125049568D01*
X129308320Y-125049568D01*
X129308320Y-125599555D01*
X130225308Y-125599555D01*
X130192395Y-125656562D01*
X130158320Y-125783729D01*
X130158320Y-125915381D01*
X130192395Y-126042548D01*
X130225308Y-126099555D01*
X129308321Y-126099555D01*
X129308321Y-126649541D01*
X129318814Y-126752252D01*
X129373961Y-126918674D01*
X129373963Y-126918679D01*
X129466004Y-127067900D01*
X129589974Y-127191870D01*
X129739195Y-127283911D01*
X129739200Y-127283913D01*
X129905622Y-127339060D01*
X129905629Y-127339061D01*
X130008339Y-127349554D01*
X130408319Y-127349554D01*
X130408320Y-127349553D01*
X130408320Y-126282567D01*
X130465327Y-126315480D01*
X130592494Y-126349555D01*
X130724146Y-126349555D01*
X130851313Y-126315480D01*
X130908320Y-126282567D01*
X130908320Y-127349554D01*
X131308292Y-127349554D01*
X131308306Y-127349553D01*
X131411017Y-127339060D01*
X131577439Y-127283913D01*
X131577444Y-127283911D01*
X131726665Y-127191870D01*
X131850635Y-127067900D01*
X131942676Y-126918679D01*
X131942678Y-126918674D01*
X131997825Y-126752252D01*
X131997826Y-126752245D01*
X132008319Y-126649541D01*
X132008319Y-126578083D01*
X132028003Y-126511043D01*
X132080806Y-126465287D01*
X132149964Y-126455343D01*
X132213520Y-126484367D01*
X132235421Y-126509190D01*
X132342342Y-126669210D01*
X132488662Y-126815530D01*
X132488665Y-126815532D01*
X132660722Y-126930496D01*
X132851900Y-127009685D01*
X133054850Y-127050054D01*
X133054854Y-127050055D01*
X133054855Y-127050055D01*
X133261786Y-127050055D01*
X133261787Y-127050054D01*
X133464740Y-127009685D01*
X133655918Y-126930496D01*
X133827975Y-126815532D01*
X133974297Y-126669210D01*
X134089261Y-126497153D01*
X134168450Y-126305975D01*
X134208820Y-126103020D01*
X134208820Y-125596090D01*
X134168450Y-125393135D01*
X134089261Y-125201957D01*
X133974297Y-125029900D01*
X133974295Y-125029897D01*
X133827977Y-124883579D01*
X133741946Y-124826096D01*
X133655918Y-124768614D01*
X133464740Y-124689425D01*
X133464732Y-124689423D01*
X133261789Y-124649055D01*
X133261785Y-124649055D01*
X133054855Y-124649055D01*
X133054850Y-124649055D01*
X132851907Y-124689423D01*
X132851899Y-124689425D01*
X132660723Y-124768613D01*
X132488662Y-124883579D01*
X132342344Y-125029897D01*
X132235422Y-125189920D01*
X132181809Y-125234726D01*
X132112485Y-125243433D01*
X132049457Y-125213279D01*
X132012737Y-125153836D01*
X132008319Y-125121030D01*
X132008319Y-125049583D01*
X132008318Y-125049567D01*
X131997825Y-124946857D01*
X131942678Y-124780435D01*
X131942676Y-124780430D01*
X131850635Y-124631209D01*
X131726665Y-124507239D01*
X131577444Y-124415198D01*
X131577439Y-124415196D01*
X131411017Y-124360049D01*
X131411010Y-124360048D01*
X131308306Y-124349555D01*
X130908320Y-124349555D01*
X130908320Y-125416543D01*
X130851313Y-125383630D01*
X130724146Y-125349555D01*
X130592494Y-125349555D01*
X130465327Y-125383630D01*
X130408320Y-125416543D01*
X130408320Y-124349555D01*
X130008348Y-124349555D01*
X130008332Y-124349556D01*
X129905622Y-124360049D01*
X129739200Y-124415196D01*
X129739195Y-124415198D01*
X129589974Y-124507239D01*
X129466004Y-124631209D01*
X129373963Y-124780430D01*
X129373961Y-124780435D01*
X129318814Y-124946857D01*
X129318813Y-124946864D01*
X129308320Y-125049568D01*
X104632066Y-125049568D01*
X104669105Y-125022658D01*
X103929408Y-124282962D01*
X103992993Y-124265925D01*
X104107007Y-124200099D01*
X104200099Y-124107007D01*
X104265925Y-123992993D01*
X104282962Y-123929409D01*
X105022658Y-124669105D01*
X105022658Y-124669104D01*
X105082914Y-124586169D01*
X105082918Y-124586163D01*
X105190102Y-124375802D01*
X105263065Y-124151247D01*
X105300000Y-123918052D01*
X105300000Y-123681947D01*
X105263065Y-123448752D01*
X105190102Y-123224197D01*
X105082914Y-123013828D01*
X105022658Y-122930894D01*
X105022658Y-122930893D01*
X104282962Y-123670590D01*
X104265925Y-123607007D01*
X104200099Y-123492993D01*
X104107007Y-123399901D01*
X103992993Y-123334075D01*
X103929409Y-123317037D01*
X104669104Y-122577340D01*
X104666144Y-122539735D01*
X104666144Y-122520275D01*
X104669104Y-122482657D01*
X103929408Y-121742962D01*
X103992993Y-121725925D01*
X104107007Y-121660099D01*
X104200099Y-121567007D01*
X104265925Y-121452993D01*
X104282962Y-121389409D01*
X105022658Y-122129105D01*
X105022658Y-122129104D01*
X105082914Y-122046169D01*
X105082918Y-122046163D01*
X105190102Y-121835802D01*
X105263065Y-121611247D01*
X105300000Y-121378052D01*
X105300000Y-121141947D01*
X105263065Y-120908752D01*
X105190102Y-120684197D01*
X105082914Y-120473828D01*
X105022658Y-120390894D01*
X105022658Y-120390893D01*
X104282962Y-121130590D01*
X104265925Y-121067007D01*
X104200099Y-120952993D01*
X104107007Y-120859901D01*
X103992993Y-120794075D01*
X103929409Y-120777037D01*
X104522338Y-120184108D01*
X112817258Y-120184108D01*
X112817258Y-120315891D01*
X112851366Y-120443187D01*
X112869057Y-120473828D01*
X112917258Y-120557314D01*
X113010444Y-120650500D01*
X113109279Y-120707563D01*
X113119183Y-120713281D01*
X113124572Y-120716392D01*
X113251866Y-120750500D01*
X113251868Y-120750500D01*
X113383648Y-120750500D01*
X113383650Y-120750500D01*
X113510944Y-120716392D01*
X113510952Y-120716387D01*
X113518454Y-120713281D01*
X113519007Y-120714618D01*
X113571695Y-120700500D01*
X121496063Y-120700500D01*
X121548750Y-120714618D01*
X121549304Y-120713281D01*
X121556807Y-120716388D01*
X121556814Y-120716392D01*
X121684108Y-120750500D01*
X121684110Y-120750500D01*
X121815890Y-120750500D01*
X121815892Y-120750500D01*
X121943186Y-120716392D01*
X122057314Y-120650500D01*
X122150500Y-120557314D01*
X122216392Y-120443186D01*
X122250500Y-120315892D01*
X122250500Y-120184108D01*
X122216392Y-120056814D01*
X122150500Y-119942686D01*
X122057314Y-119849500D01*
X121970712Y-119799500D01*
X121943187Y-119783608D01*
X121855079Y-119760000D01*
X121815892Y-119749500D01*
X121684108Y-119749500D01*
X121556814Y-119783608D01*
X121549304Y-119786719D01*
X121548750Y-119785381D01*
X121496063Y-119799500D01*
X113571695Y-119799500D01*
X113519007Y-119785381D01*
X113518454Y-119786719D01*
X113510946Y-119783609D01*
X113510944Y-119783608D01*
X113383650Y-119749500D01*
X113251866Y-119749500D01*
X113124570Y-119783608D01*
X113010444Y-119849500D01*
X113010441Y-119849502D01*
X112917260Y-119942683D01*
X112917258Y-119942686D01*
X112851366Y-120056812D01*
X112817258Y-120184108D01*
X104522338Y-120184108D01*
X104618146Y-120088300D01*
X104669105Y-120037340D01*
X104669104Y-120037338D01*
X104586174Y-119977087D01*
X104375802Y-119869897D01*
X104151247Y-119796934D01*
X104151248Y-119796934D01*
X103918052Y-119760000D01*
X103681948Y-119760000D01*
X103448752Y-119796934D01*
X103224197Y-119869897D01*
X103013830Y-119977084D01*
X102930894Y-120037340D01*
X103670591Y-120777037D01*
X103607007Y-120794075D01*
X103492993Y-120859901D01*
X103399901Y-120952993D01*
X103334075Y-121067007D01*
X103317037Y-121130591D01*
X102577340Y-120390894D01*
X102517084Y-120473830D01*
X102409897Y-120684197D01*
X102336934Y-120908752D01*
X102300000Y-121141947D01*
X99286034Y-121141947D01*
X99286034Y-114994747D01*
X113081527Y-114994747D01*
X113081527Y-115126531D01*
X113095993Y-115180518D01*
X113115635Y-115253826D01*
X113144055Y-115303050D01*
X113181527Y-115367953D01*
X113274713Y-115461139D01*
X113388841Y-115527031D01*
X113516135Y-115561139D01*
X113516137Y-115561139D01*
X113647917Y-115561139D01*
X113647919Y-115561139D01*
X113775213Y-115527031D01*
X113889341Y-115461139D01*
X113928022Y-115422458D01*
X113989345Y-115388973D01*
X114015703Y-115386139D01*
X117098197Y-115386139D01*
X117194149Y-115364238D01*
X117263885Y-115368511D01*
X117320243Y-115409809D01*
X117345327Y-115475020D01*
X117345740Y-115485129D01*
X117345740Y-115720342D01*
X117345740Y-115771896D01*
X117345740Y-115828852D01*
X117371088Y-115939908D01*
X117371089Y-115939910D01*
X117420510Y-116042535D01*
X117420512Y-116042538D01*
X117420513Y-116042539D01*
X117491536Y-116131599D01*
X117575079Y-116198222D01*
X117580599Y-116202624D01*
X117601234Y-116212561D01*
X117683227Y-116252047D01*
X117794283Y-116277395D01*
X117998197Y-116277395D01*
X118109253Y-116252047D01*
X118211884Y-116202622D01*
X118300944Y-116131599D01*
X118371967Y-116042539D01*
X118421392Y-115939908D01*
X118446740Y-115828852D01*
X118446740Y-115771896D01*
X118446740Y-115720342D01*
X118446740Y-115423966D01*
X118456448Y-115390904D01*
X118466014Y-115357569D01*
X118466341Y-115357210D01*
X118466425Y-115356927D01*
X118488963Y-115330754D01*
X118497773Y-115323024D01*
X118501107Y-115321100D01*
X118509255Y-115312951D01*
X118512301Y-115310279D01*
X118513555Y-115309696D01*
X118521196Y-115303171D01*
X118534270Y-115293672D01*
X118534269Y-115293672D01*
X118534273Y-115293670D01*
X118543789Y-115280571D01*
X118556417Y-115265786D01*
X118576534Y-115245670D01*
X118941404Y-114880802D01*
X120217961Y-113604244D01*
X120251172Y-113580531D01*
X120336347Y-113538892D01*
X120422012Y-113453227D01*
X120475220Y-113344389D01*
X120475221Y-113344381D01*
X120476523Y-113340168D01*
X120479424Y-113335789D01*
X120479450Y-113335737D01*
X120479456Y-113335740D01*
X120515117Y-113281925D01*
X120579074Y-113253794D01*
X120648086Y-113264706D01*
X120700102Y-113310968D01*
X120712886Y-113331388D01*
X120714780Y-113344389D01*
X120767988Y-113453227D01*
X120824608Y-113509847D01*
X120832077Y-113521777D01*
X120837870Y-113542411D01*
X120848140Y-113561218D01*
X120847127Y-113575378D01*
X120850965Y-113589046D01*
X120844684Y-113609533D01*
X120843156Y-113630910D01*
X120833550Y-113645855D01*
X120830488Y-113655847D01*
X120823127Y-113662073D01*
X120814655Y-113675257D01*
X119280562Y-115209351D01*
X119219239Y-115242836D01*
X119192881Y-115245670D01*
X119138178Y-115245670D01*
X119010882Y-115279778D01*
X118896756Y-115345670D01*
X118896753Y-115345672D01*
X118803572Y-115438853D01*
X118803570Y-115438856D01*
X118737678Y-115552982D01*
X118709660Y-115657549D01*
X118703570Y-115680278D01*
X118703570Y-115812062D01*
X118708069Y-115828851D01*
X118737678Y-115939357D01*
X118758273Y-115975028D01*
X118803570Y-116053484D01*
X118896756Y-116146670D01*
X119010884Y-116212562D01*
X119138178Y-116246670D01*
X119138180Y-116246670D01*
X119269960Y-116246670D01*
X119269962Y-116246670D01*
X119397256Y-116212562D01*
X119511384Y-116146670D01*
X119604570Y-116053484D01*
X119670462Y-115939356D01*
X119704570Y-115812062D01*
X119704570Y-115757357D01*
X119724255Y-115690318D01*
X119740884Y-115669681D01*
X119976457Y-115434108D01*
X123499500Y-115434108D01*
X123499500Y-115565891D01*
X123533608Y-115693187D01*
X123566554Y-115750250D01*
X123599500Y-115807314D01*
X123692686Y-115900500D01*
X123806814Y-115966392D01*
X123934108Y-116000500D01*
X123934110Y-116000500D01*
X124065890Y-116000500D01*
X124065892Y-116000500D01*
X124193186Y-115966392D01*
X124225508Y-115947730D01*
X124293407Y-115931257D01*
X124359434Y-115954108D01*
X124394895Y-115993116D01*
X124401778Y-116005037D01*
X124494964Y-116098223D01*
X124609092Y-116164115D01*
X124736386Y-116198223D01*
X124736388Y-116198223D01*
X124868168Y-116198223D01*
X124868170Y-116198223D01*
X124995464Y-116164115D01*
X125109592Y-116098223D01*
X125202778Y-116005037D01*
X125268670Y-115890909D01*
X125302778Y-115763615D01*
X125302778Y-115708910D01*
X125322463Y-115641871D01*
X125339093Y-115621233D01*
X125598507Y-115361818D01*
X125659830Y-115328334D01*
X125686188Y-115325500D01*
X144042851Y-115325500D01*
X144042853Y-115325500D01*
X144125639Y-115303318D01*
X144199862Y-115260465D01*
X144839383Y-114620943D01*
X154599500Y-114620943D01*
X154599500Y-114779057D01*
X154633051Y-114904269D01*
X154640423Y-114931783D01*
X154640426Y-114931790D01*
X154719475Y-115068709D01*
X154719479Y-115068714D01*
X154719480Y-115068716D01*
X154831284Y-115180520D01*
X154831286Y-115180521D01*
X154831290Y-115180524D01*
X154944128Y-115245670D01*
X154968216Y-115259577D01*
X155120943Y-115300500D01*
X172877201Y-115300500D01*
X174975500Y-115300500D01*
X174984185Y-115303050D01*
X174993147Y-115301762D01*
X175017187Y-115312740D01*
X175042539Y-115320185D01*
X175048466Y-115327025D01*
X175056703Y-115330787D01*
X175070992Y-115353021D01*
X175088294Y-115372989D01*
X175090581Y-115383503D01*
X175094477Y-115389565D01*
X175099500Y-115424500D01*
X175099500Y-115550470D01*
X175079815Y-115617509D01*
X175049134Y-115650240D01*
X174977850Y-115702850D01*
X174897207Y-115812117D01*
X174897206Y-115812119D01*
X174852353Y-115940298D01*
X174852353Y-115940300D01*
X174849500Y-115970730D01*
X174849500Y-117029269D01*
X174852353Y-117059699D01*
X174852353Y-117059701D01*
X174897206Y-117187880D01*
X174897207Y-117187882D01*
X174977850Y-117297150D01*
X175087118Y-117377793D01*
X175129845Y-117392744D01*
X175215299Y-117422646D01*
X175245730Y-117425500D01*
X175245734Y-117425500D01*
X175854270Y-117425500D01*
X175884699Y-117422646D01*
X175884701Y-117422646D01*
X175948790Y-117400219D01*
X176012882Y-117377793D01*
X176122150Y-117297150D01*
X176202793Y-117187882D01*
X176225158Y-117123964D01*
X176265877Y-117067192D01*
X176330830Y-117041444D01*
X176399392Y-117054900D01*
X176449795Y-117103287D01*
X176459904Y-117125917D01*
X176515642Y-117294121D01*
X176515643Y-117294124D01*
X176607684Y-117443345D01*
X176731654Y-117567315D01*
X176880875Y-117659356D01*
X176880880Y-117659358D01*
X177047302Y-117714505D01*
X177047309Y-117714506D01*
X177150019Y-117724999D01*
X177700000Y-117724999D01*
X177749972Y-117724999D01*
X177749986Y-117724998D01*
X177852697Y-117714505D01*
X178019119Y-117659358D01*
X178019124Y-117659356D01*
X178168345Y-117567315D01*
X178292315Y-117443345D01*
X178384356Y-117294124D01*
X178384358Y-117294119D01*
X178439505Y-117127697D01*
X178439506Y-117127690D01*
X178449999Y-117024986D01*
X178450000Y-117024973D01*
X178450000Y-116750000D01*
X177700000Y-116750000D01*
X177700000Y-117724999D01*
X177150019Y-117724999D01*
X177199999Y-117724998D01*
X177200000Y-117724998D01*
X177200000Y-116250000D01*
X177700000Y-116250000D01*
X178449999Y-116250000D01*
X178449999Y-115975028D01*
X178449998Y-115975013D01*
X178439505Y-115872302D01*
X178384358Y-115705880D01*
X178384356Y-115705875D01*
X178292315Y-115556654D01*
X178168345Y-115432684D01*
X178019124Y-115340643D01*
X178019119Y-115340641D01*
X177852697Y-115285494D01*
X177852690Y-115285493D01*
X177749986Y-115275000D01*
X177700000Y-115275000D01*
X177700000Y-116250000D01*
X177200000Y-116250000D01*
X177200000Y-115255132D01*
X177190416Y-115237582D01*
X177190416Y-115237579D01*
X177190415Y-115237577D01*
X177192916Y-115202603D01*
X177195397Y-115167890D01*
X177195398Y-115167887D01*
X177195399Y-115167885D01*
X177217955Y-115137754D01*
X177237267Y-115111955D01*
X177237270Y-115111952D01*
X177237271Y-115111952D01*
X177237272Y-115111951D01*
X177249581Y-115103832D01*
X177307314Y-115070500D01*
X177400500Y-114977314D01*
X177466392Y-114863186D01*
X177500500Y-114735892D01*
X177500500Y-114604108D01*
X177466392Y-114476814D01*
X177400500Y-114362686D01*
X177307314Y-114269500D01*
X177231064Y-114225477D01*
X177193187Y-114203608D01*
X177129539Y-114186554D01*
X177065892Y-114169500D01*
X176934108Y-114169500D01*
X176806812Y-114203608D01*
X176768938Y-114225476D01*
X176756100Y-114232887D01*
X176694101Y-114249500D01*
X175949931Y-114249500D01*
X175882892Y-114229815D01*
X175874443Y-114223875D01*
X175868709Y-114219475D01*
X175731790Y-114140426D01*
X175731786Y-114140424D01*
X175731784Y-114140423D01*
X175579057Y-114099500D01*
X175579056Y-114099500D01*
X173682858Y-114099500D01*
X173615819Y-114079815D01*
X173570064Y-114027011D01*
X173558858Y-113975500D01*
X173558858Y-112934108D01*
X179999500Y-112934108D01*
X179999500Y-113065891D01*
X180033608Y-113193187D01*
X180047127Y-113216602D01*
X180099500Y-113307314D01*
X180192686Y-113400500D01*
X180306814Y-113466392D01*
X180434108Y-113500500D01*
X180488811Y-113500500D01*
X180555850Y-113520185D01*
X180576492Y-113536819D01*
X181663181Y-114623508D01*
X181696666Y-114684831D01*
X181699500Y-114711189D01*
X181699500Y-114765891D01*
X181733608Y-114893187D01*
X181757577Y-114934701D01*
X181799500Y-115007314D01*
X181892686Y-115100500D01*
X182006814Y-115166392D01*
X182134108Y-115200500D01*
X182134110Y-115200500D01*
X182265890Y-115200500D01*
X182265892Y-115200500D01*
X182393186Y-115166392D01*
X182507314Y-115100500D01*
X182600500Y-115007314D01*
X182666392Y-114893186D01*
X182700500Y-114765892D01*
X182700500Y-114634108D01*
X182666392Y-114506814D01*
X182600500Y-114392686D01*
X182507314Y-114299500D01*
X182403454Y-114239536D01*
X182393187Y-114233608D01*
X182281223Y-114203608D01*
X182265892Y-114199500D01*
X182265891Y-114199500D01*
X182211189Y-114199500D01*
X182144150Y-114179815D01*
X182123508Y-114163181D01*
X181036819Y-113076492D01*
X181003334Y-113015169D01*
X181000500Y-112988811D01*
X181000500Y-112934110D01*
X181000500Y-112934108D01*
X180966392Y-112806814D01*
X180930999Y-112745512D01*
X180900502Y-112692689D01*
X180900497Y-112692683D01*
X180807316Y-112599502D01*
X180807314Y-112599500D01*
X180729005Y-112554288D01*
X180693187Y-112533608D01*
X180629539Y-112516554D01*
X180565892Y-112499500D01*
X180434108Y-112499500D01*
X180306812Y-112533608D01*
X180192686Y-112599500D01*
X180192683Y-112599502D01*
X180099502Y-112692683D01*
X180099500Y-112692686D01*
X180033608Y-112806812D01*
X179999500Y-112934108D01*
X173558858Y-112934108D01*
X173558858Y-112249999D01*
X192200884Y-112249999D01*
X192200885Y-112250000D01*
X193269670Y-112250000D01*
X193249925Y-112269745D01*
X193200556Y-112355255D01*
X193175000Y-112450630D01*
X193175000Y-112549370D01*
X193200556Y-112644745D01*
X193249925Y-112730255D01*
X193269670Y-112750000D01*
X192200885Y-112750000D01*
X192202085Y-112757584D01*
X192255591Y-112922255D01*
X192334195Y-113076524D01*
X192435967Y-113216602D01*
X192558397Y-113339032D01*
X192698475Y-113440804D01*
X192802051Y-113493579D01*
X192852847Y-113541554D01*
X192869642Y-113609375D01*
X192847104Y-113675510D01*
X192792389Y-113718961D01*
X192786712Y-113721105D01*
X192712117Y-113747207D01*
X192602850Y-113827850D01*
X192522207Y-113937117D01*
X192522206Y-113937119D01*
X192477353Y-114065298D01*
X192477353Y-114065300D01*
X192474500Y-114095730D01*
X192474500Y-114904269D01*
X192477353Y-114934699D01*
X192477353Y-114934701D01*
X192522206Y-115062880D01*
X192522207Y-115062882D01*
X192602850Y-115172150D01*
X192712118Y-115252793D01*
X192749233Y-115265780D01*
X192840299Y-115297646D01*
X192870730Y-115300500D01*
X192870734Y-115300500D01*
X194229270Y-115300500D01*
X194259699Y-115297646D01*
X194259701Y-115297646D01*
X194331031Y-115272686D01*
X194387882Y-115252793D01*
X194497150Y-115172150D01*
X194577793Y-115062882D01*
X194607734Y-114977316D01*
X194622646Y-114934701D01*
X194622646Y-114934699D01*
X194625500Y-114904269D01*
X194625500Y-114095730D01*
X194622646Y-114065300D01*
X194622646Y-114065298D01*
X194582438Y-113950394D01*
X194577793Y-113937118D01*
X194497150Y-113827850D01*
X194387882Y-113747207D01*
X194387880Y-113747206D01*
X194313288Y-113721105D01*
X194256512Y-113680383D01*
X194230765Y-113615430D01*
X194244222Y-113546869D01*
X194292609Y-113496466D01*
X194297948Y-113493579D01*
X194401524Y-113440804D01*
X194541602Y-113339032D01*
X194664032Y-113216602D01*
X194765804Y-113076524D01*
X194844408Y-112922255D01*
X194897914Y-112757584D01*
X194899115Y-112750000D01*
X193830330Y-112750000D01*
X193850075Y-112730255D01*
X193899444Y-112644745D01*
X193925000Y-112549370D01*
X193925000Y-112450630D01*
X193899444Y-112355255D01*
X193850075Y-112269745D01*
X193830330Y-112250000D01*
X194899115Y-112250000D01*
X194899115Y-112249999D01*
X194897914Y-112242415D01*
X194844408Y-112077744D01*
X194765804Y-111923475D01*
X194664032Y-111783397D01*
X194541602Y-111660967D01*
X194401524Y-111559195D01*
X194247255Y-111480591D01*
X194175869Y-111457396D01*
X194118193Y-111417958D01*
X194090995Y-111353600D01*
X194102910Y-111284753D01*
X194150154Y-111233278D01*
X194166735Y-111224904D01*
X194204173Y-111209397D01*
X194204176Y-111209395D01*
X194204179Y-111209394D01*
X194335289Y-111121789D01*
X194446789Y-111010289D01*
X194534394Y-110879179D01*
X194594737Y-110733497D01*
X194625500Y-110578842D01*
X194625500Y-110421158D01*
X194625500Y-110421155D01*
X194625499Y-110421153D01*
X194622193Y-110404535D01*
X194594737Y-110266503D01*
X194580270Y-110231577D01*
X194534397Y-110120827D01*
X194534390Y-110120814D01*
X194446789Y-109989711D01*
X194446786Y-109989707D01*
X194335292Y-109878213D01*
X194335288Y-109878210D01*
X194204185Y-109790609D01*
X194204172Y-109790602D01*
X194058501Y-109730264D01*
X194058489Y-109730261D01*
X193903845Y-109699500D01*
X193903842Y-109699500D01*
X193196158Y-109699500D01*
X193196155Y-109699500D01*
X193041510Y-109730261D01*
X193041498Y-109730264D01*
X192895827Y-109790602D01*
X192895814Y-109790609D01*
X192764711Y-109878210D01*
X192764707Y-109878213D01*
X192653213Y-109989707D01*
X192653210Y-109989711D01*
X192565609Y-110120814D01*
X192565602Y-110120827D01*
X192505264Y-110266498D01*
X192505261Y-110266510D01*
X192474500Y-110421153D01*
X192474500Y-110578846D01*
X192505261Y-110733489D01*
X192505264Y-110733501D01*
X192565602Y-110879172D01*
X192565609Y-110879185D01*
X192653210Y-111010288D01*
X192653213Y-111010292D01*
X192764707Y-111121786D01*
X192764711Y-111121789D01*
X192895814Y-111209390D01*
X192895823Y-111209395D01*
X192933265Y-111224904D01*
X192987668Y-111268745D01*
X193009733Y-111335039D01*
X192992454Y-111402738D01*
X192941317Y-111450349D01*
X192924131Y-111457396D01*
X192852742Y-111480591D01*
X192698475Y-111559195D01*
X192558397Y-111660967D01*
X192435967Y-111783397D01*
X192334195Y-111923475D01*
X192255591Y-112077744D01*
X192202085Y-112242415D01*
X192200884Y-112249999D01*
X173558858Y-112249999D01*
X173558858Y-109874500D01*
X173578543Y-109807461D01*
X173631347Y-109761706D01*
X173682858Y-109750500D01*
X176784971Y-109750500D01*
X176817063Y-109754725D01*
X176837166Y-109760111D01*
X176866608Y-109768000D01*
X176866610Y-109768000D01*
X176998390Y-109768000D01*
X176998392Y-109768000D01*
X177125686Y-109733892D01*
X177239814Y-109668000D01*
X177333000Y-109574814D01*
X177398892Y-109460686D01*
X177433000Y-109333392D01*
X177433000Y-109201608D01*
X177398892Y-109074314D01*
X177333000Y-108960186D01*
X177239814Y-108867000D01*
X177140523Y-108809674D01*
X177125687Y-108801108D01*
X177035754Y-108777011D01*
X176998392Y-108767000D01*
X176866608Y-108767000D01*
X176739312Y-108801108D01*
X176697066Y-108825500D01*
X176684270Y-108832887D01*
X176622271Y-108849500D01*
X173682858Y-108849500D01*
X173615819Y-108829815D01*
X173570064Y-108777011D01*
X173558858Y-108725500D01*
X173558858Y-108247418D01*
X173558859Y-108247405D01*
X173558859Y-108079302D01*
X173546615Y-108033608D01*
X173517935Y-107926574D01*
X173482386Y-107865000D01*
X173438882Y-107789648D01*
X173438876Y-107789640D01*
X170768718Y-105119483D01*
X170768716Y-105119481D01*
X170631785Y-105040423D01*
X170479057Y-104999499D01*
X170320943Y-104999499D01*
X170206397Y-105030192D01*
X170168214Y-105040423D01*
X170031284Y-105119481D01*
X170031281Y-105119483D01*
X169919483Y-105231281D01*
X169919481Y-105231284D01*
X169840423Y-105368214D01*
X169840423Y-105368215D01*
X169799499Y-105520943D01*
X169799499Y-105520945D01*
X169799499Y-105679054D01*
X169799498Y-105679054D01*
X169799499Y-105679057D01*
X169840423Y-105831785D01*
X169919481Y-105968716D01*
X169919483Y-105968718D01*
X172321539Y-108370774D01*
X172355024Y-108432097D01*
X172357858Y-108458455D01*
X172357858Y-113975500D01*
X172338173Y-114042539D01*
X172285369Y-114088294D01*
X172233858Y-114099500D01*
X155120943Y-114099500D01*
X154968216Y-114140423D01*
X154968209Y-114140426D01*
X154831290Y-114219475D01*
X154831282Y-114219481D01*
X154719481Y-114331282D01*
X154719475Y-114331290D01*
X154640426Y-114468209D01*
X154640423Y-114468216D01*
X154599500Y-114620943D01*
X144839383Y-114620943D01*
X145870869Y-113589456D01*
X145932190Y-113555973D01*
X145959965Y-113554819D01*
X145959965Y-113553326D01*
X146099874Y-113553326D01*
X146099876Y-113553326D01*
X146227170Y-113519218D01*
X146341298Y-113453326D01*
X146434484Y-113360140D01*
X146500376Y-113246012D01*
X146534484Y-113118718D01*
X146534484Y-112986934D01*
X146500376Y-112859640D01*
X146434484Y-112745512D01*
X146341298Y-112652326D01*
X146284234Y-112619380D01*
X146227171Y-112586434D01*
X146163523Y-112569380D01*
X146099876Y-112552326D01*
X146099875Y-112552326D01*
X146091816Y-112551265D01*
X146092071Y-112549323D01*
X146035257Y-112532641D01*
X145989502Y-112479837D01*
X145978296Y-112428326D01*
X145978296Y-112411906D01*
X145978296Y-112411904D01*
X145944188Y-112284610D01*
X145878296Y-112170482D01*
X145785110Y-112077296D01*
X145728046Y-112044350D01*
X145670983Y-112011404D01*
X145571809Y-111984831D01*
X145543688Y-111977296D01*
X145411904Y-111977296D01*
X145284608Y-112011404D01*
X145170482Y-112077296D01*
X145170479Y-112077298D01*
X145077298Y-112170479D01*
X145077296Y-112170482D01*
X145011404Y-112284608D01*
X144977296Y-112411904D01*
X144977296Y-112466607D01*
X144957611Y-112533646D01*
X144940977Y-112554288D01*
X143357084Y-114138181D01*
X143295761Y-114171666D01*
X143269403Y-114174500D01*
X131795507Y-114174500D01*
X131765420Y-114165665D01*
X131734846Y-114158649D01*
X131732157Y-114155898D01*
X131728468Y-114154815D01*
X131707934Y-114131118D01*
X131686006Y-114108685D01*
X131685231Y-114104917D01*
X131682713Y-114102011D01*
X131678249Y-114070966D01*
X131671932Y-114040248D01*
X131673316Y-114036661D01*
X131672769Y-114032853D01*
X131685801Y-114004315D01*
X131697092Y-113975065D01*
X131700542Y-113972037D01*
X131701794Y-113969297D01*
X131722331Y-113950394D01*
X131727726Y-113946450D01*
X131807314Y-113900500D01*
X131852767Y-113855046D01*
X131860500Y-113849394D01*
X131884723Y-113840671D01*
X131907318Y-113828334D01*
X131923954Y-113826545D01*
X131926238Y-113825723D01*
X131927949Y-113826115D01*
X131933676Y-113825500D01*
X134292851Y-113825500D01*
X134292853Y-113825500D01*
X134375639Y-113803318D01*
X134449862Y-113760465D01*
X137168944Y-111041382D01*
X156076445Y-111041382D01*
X156076445Y-111173166D01*
X156086153Y-111209397D01*
X156110553Y-111300461D01*
X156130517Y-111335039D01*
X156176445Y-111414588D01*
X156269631Y-111507774D01*
X156383759Y-111573666D01*
X156511053Y-111607774D01*
X156511055Y-111607774D01*
X156642835Y-111607774D01*
X156642837Y-111607774D01*
X156770131Y-111573666D01*
X156884259Y-111507774D01*
X156922940Y-111469093D01*
X156949867Y-111454389D01*
X156975686Y-111437797D01*
X156981886Y-111436905D01*
X156984263Y-111435608D01*
X157010621Y-111432774D01*
X157110384Y-111432774D01*
X157177423Y-111452459D01*
X157198065Y-111469093D01*
X157206414Y-111477442D01*
X157206415Y-111477442D01*
X157206417Y-111477444D01*
X157233307Y-111490590D01*
X157284888Y-111537715D01*
X157302846Y-111601989D01*
X157302846Y-111671199D01*
X157308328Y-111691658D01*
X157325028Y-111753986D01*
X157333251Y-111768228D01*
X157367881Y-111828208D01*
X157367883Y-111828210D01*
X157463181Y-111923508D01*
X157496666Y-111984831D01*
X157499500Y-112011189D01*
X157499500Y-112065891D01*
X157533608Y-112193187D01*
X157562030Y-112242415D01*
X157599500Y-112307314D01*
X157692686Y-112400500D01*
X157806814Y-112466392D01*
X157934108Y-112500500D01*
X157934110Y-112500500D01*
X158065890Y-112500500D01*
X158065892Y-112500500D01*
X158193186Y-112466392D01*
X158307314Y-112400500D01*
X158400500Y-112307314D01*
X158466392Y-112193186D01*
X158500500Y-112065892D01*
X158500500Y-111934108D01*
X158500499Y-111934106D01*
X158499439Y-111926052D01*
X158501972Y-111925718D01*
X158503336Y-111868617D01*
X158513346Y-111852196D01*
X158513346Y-111839120D01*
X159013346Y-111839120D01*
X159041988Y-111839120D01*
X159042003Y-111839119D01*
X159079123Y-111836198D01*
X159079129Y-111836197D01*
X159238040Y-111790028D01*
X159238043Y-111790027D01*
X159380488Y-111705786D01*
X159380496Y-111705780D01*
X159497506Y-111588770D01*
X159497512Y-111588762D01*
X159581753Y-111446317D01*
X159581755Y-111446314D01*
X159627924Y-111287401D01*
X159628576Y-111279120D01*
X159013346Y-111279120D01*
X159013346Y-111839120D01*
X158513346Y-111839120D01*
X158513346Y-111153120D01*
X158533031Y-111086081D01*
X158585835Y-111040326D01*
X158637346Y-111029120D01*
X158763346Y-111029120D01*
X158763346Y-110903120D01*
X158783031Y-110836081D01*
X158835835Y-110790326D01*
X158887346Y-110779120D01*
X159628576Y-110779120D01*
X159627924Y-110770838D01*
X159581755Y-110611925D01*
X159581753Y-110611922D01*
X159497512Y-110469477D01*
X159497506Y-110469469D01*
X159381895Y-110353858D01*
X159348410Y-110292535D01*
X159350501Y-110231577D01*
X159357265Y-110208297D01*
X159357265Y-110208295D01*
X159357917Y-110200022D01*
X158616687Y-110200022D01*
X158549648Y-110180337D01*
X158503893Y-110127533D01*
X158492687Y-110076022D01*
X158492687Y-109950022D01*
X158366687Y-109950022D01*
X158299648Y-109930337D01*
X158253893Y-109877533D01*
X158242687Y-109826022D01*
X158242687Y-109700022D01*
X158742687Y-109700022D01*
X159357917Y-109700022D01*
X159357265Y-109691740D01*
X159311096Y-109532827D01*
X159311094Y-109532824D01*
X159226853Y-109390379D01*
X159226847Y-109390371D01*
X159109837Y-109273361D01*
X159109829Y-109273355D01*
X158967384Y-109189114D01*
X158967381Y-109189113D01*
X158808470Y-109142944D01*
X158808464Y-109142943D01*
X158771344Y-109140022D01*
X158742687Y-109140022D01*
X158742687Y-109700022D01*
X158242687Y-109700022D01*
X158242687Y-109140022D01*
X158214029Y-109140022D01*
X158176909Y-109142943D01*
X158176903Y-109142944D01*
X158017992Y-109189113D01*
X158017989Y-109189114D01*
X157875544Y-109273355D01*
X157875536Y-109273361D01*
X157758524Y-109390374D01*
X157753743Y-109396538D01*
X157751290Y-109394635D01*
X157710722Y-109432490D01*
X157641976Y-109444971D01*
X157637221Y-109444372D01*
X157618692Y-109441672D01*
X157603929Y-109439522D01*
X157111445Y-109439522D01*
X157065379Y-109446233D01*
X157042344Y-109449589D01*
X156935756Y-109501698D01*
X156935755Y-109501700D01*
X156851865Y-109585590D01*
X156851863Y-109585591D01*
X156799754Y-109692179D01*
X156796208Y-109716522D01*
X156789687Y-109761280D01*
X156789687Y-110138764D01*
X156795744Y-110180337D01*
X156799754Y-110207864D01*
X156851863Y-110314452D01*
X156935756Y-110398345D01*
X156935757Y-110398345D01*
X156935758Y-110398346D01*
X157042347Y-110450455D01*
X157054757Y-110452263D01*
X157118257Y-110481404D01*
X157155923Y-110540251D01*
X157155795Y-110610121D01*
X157142503Y-110639930D01*
X157134865Y-110652347D01*
X157122522Y-110664691D01*
X157104112Y-110702348D01*
X157100967Y-110707462D01*
X157079302Y-110726997D01*
X157059617Y-110748543D01*
X157053655Y-110750124D01*
X157049078Y-110754252D01*
X157020288Y-110758974D01*
X156992082Y-110766456D01*
X156986214Y-110764563D01*
X156980130Y-110765562D01*
X156953354Y-110753968D01*
X156925584Y-110745014D01*
X156917809Y-110738577D01*
X156916013Y-110737800D01*
X156914942Y-110736204D01*
X156907665Y-110730180D01*
X156884261Y-110706776D01*
X156884259Y-110706774D01*
X156823639Y-110671775D01*
X156770132Y-110640882D01*
X156706484Y-110623828D01*
X156642837Y-110606774D01*
X156511053Y-110606774D01*
X156383757Y-110640882D01*
X156269631Y-110706774D01*
X156269628Y-110706776D01*
X156176447Y-110799957D01*
X156176445Y-110799960D01*
X156110553Y-110914086D01*
X156084776Y-111010289D01*
X156076445Y-111041382D01*
X137168944Y-111041382D01*
X139348507Y-108861818D01*
X139409830Y-108828334D01*
X139436188Y-108825500D01*
X142814939Y-108825500D01*
X142881978Y-108845185D01*
X142902620Y-108861819D01*
X142941301Y-108900500D01*
X143055429Y-108966392D01*
X143182723Y-109000500D01*
X143182725Y-109000500D01*
X143314505Y-109000500D01*
X143314507Y-109000500D01*
X143441801Y-108966392D01*
X143555929Y-108900500D01*
X143649115Y-108807314D01*
X143715007Y-108693186D01*
X143749115Y-108565892D01*
X143749115Y-108434108D01*
X143715007Y-108306814D01*
X143649115Y-108192686D01*
X143555929Y-108099500D01*
X143481995Y-108056814D01*
X143441802Y-108033608D01*
X143378154Y-108016554D01*
X143314507Y-107999500D01*
X143182723Y-107999500D01*
X143055427Y-108033608D01*
X142941301Y-108099500D01*
X142941298Y-108099502D01*
X142902620Y-108138181D01*
X142841297Y-108171666D01*
X142814939Y-108174500D01*
X139207147Y-108174500D01*
X139124359Y-108196682D01*
X139087999Y-108217676D01*
X139087998Y-108217676D01*
X139050141Y-108239532D01*
X139050136Y-108239536D01*
X134151492Y-113138181D01*
X134090169Y-113171666D01*
X134063811Y-113174500D01*
X131933676Y-113174500D01*
X131866637Y-113154815D01*
X131845995Y-113138181D01*
X131807316Y-113099502D01*
X131807314Y-113099500D01*
X131749102Y-113065891D01*
X131693187Y-113033608D01*
X131624370Y-113015169D01*
X131565892Y-112999500D01*
X131434108Y-112999500D01*
X131306812Y-113033608D01*
X131192686Y-113099500D01*
X131192683Y-113099502D01*
X131099502Y-113192683D01*
X131099500Y-113192686D01*
X131033608Y-113306812D01*
X131019319Y-113360140D01*
X130999500Y-113434108D01*
X130999500Y-113565892D01*
X131012774Y-113615430D01*
X131033608Y-113693187D01*
X131037253Y-113699500D01*
X131099500Y-113807314D01*
X131192686Y-113900500D01*
X131256112Y-113937119D01*
X131266494Y-113943113D01*
X131314709Y-113993680D01*
X131327931Y-114062288D01*
X131301963Y-114127152D01*
X131245049Y-114167680D01*
X131204493Y-114174500D01*
X125050465Y-114174500D01*
X125050449Y-114174499D01*
X125042853Y-114174499D01*
X124957148Y-114174499D01*
X124957147Y-114174499D01*
X124884907Y-114193856D01*
X124874364Y-114196681D01*
X124874355Y-114196684D01*
X124800144Y-114239530D01*
X124800136Y-114239536D01*
X124076492Y-114963181D01*
X124015169Y-114996666D01*
X123988811Y-114999500D01*
X123934108Y-114999500D01*
X123806812Y-115033608D01*
X123692686Y-115099500D01*
X123692683Y-115099502D01*
X123599502Y-115192683D01*
X123599500Y-115192686D01*
X123533608Y-115306812D01*
X123499500Y-115434108D01*
X119976457Y-115434108D01*
X121429859Y-113980706D01*
X121429862Y-113980705D01*
X121490465Y-113920102D01*
X121511891Y-113882990D01*
X121533318Y-113845879D01*
X121555501Y-113763093D01*
X121555501Y-113677387D01*
X121555501Y-113669792D01*
X121555500Y-113669774D01*
X121555500Y-113639024D01*
X121575185Y-113571985D01*
X121599440Y-113546516D01*
X121599082Y-113546158D01*
X121692011Y-113453228D01*
X121692012Y-113453227D01*
X121745220Y-113344389D01*
X121745221Y-113344381D01*
X121746523Y-113340168D01*
X121749424Y-113335789D01*
X121749450Y-113335737D01*
X121749456Y-113335740D01*
X121785117Y-113281925D01*
X121849074Y-113253794D01*
X121918086Y-113264706D01*
X121970244Y-113311196D01*
X121983469Y-113340150D01*
X121984776Y-113344380D01*
X121984779Y-113344387D01*
X121984780Y-113344389D01*
X122012210Y-113400497D01*
X122037989Y-113453229D01*
X122123651Y-113538891D01*
X122232488Y-113592099D01*
X122232489Y-113592099D01*
X122232491Y-113592100D01*
X122303051Y-113602380D01*
X122696948Y-113602379D01*
X122696950Y-113602379D01*
X122725172Y-113598267D01*
X122767509Y-113592100D01*
X122876347Y-113538892D01*
X122962012Y-113453227D01*
X123015220Y-113344389D01*
X123025500Y-113273829D01*
X123025499Y-111904932D01*
X123025201Y-111902888D01*
X123015912Y-111839120D01*
X123015220Y-111834371D01*
X122962012Y-111725533D01*
X122962010Y-111725531D01*
X122962010Y-111725530D01*
X122936083Y-111699603D01*
X122931745Y-111691658D01*
X122924497Y-111686233D01*
X122915260Y-111661470D01*
X122902598Y-111638280D01*
X122903243Y-111629251D01*
X122900080Y-111620769D01*
X122905696Y-111594949D01*
X122907582Y-111568588D01*
X122913401Y-111559533D01*
X122914932Y-111552496D01*
X122936077Y-111524247D01*
X123066966Y-111393357D01*
X123066982Y-111393345D01*
X123210691Y-111249633D01*
X123210693Y-111249630D01*
X123220790Y-111239533D01*
X123236077Y-111224247D01*
X123303876Y-111116346D01*
X123345965Y-110996063D01*
X123347456Y-110982823D01*
X123374519Y-110918409D01*
X123432112Y-110878851D01*
X123501949Y-110876710D01*
X123558358Y-110909021D01*
X123974917Y-111325580D01*
X124019966Y-111370630D01*
X124019968Y-111370631D01*
X124019971Y-111370634D01*
X124127872Y-111438435D01*
X124239351Y-111477444D01*
X124248159Y-111480526D01*
X124374785Y-111494793D01*
X124374789Y-111494793D01*
X124374793Y-111494793D01*
X124501418Y-111480526D01*
X124501420Y-111480525D01*
X124501422Y-111480525D01*
X124621706Y-111438435D01*
X124729607Y-111370634D01*
X124774662Y-111325579D01*
X124800102Y-111300138D01*
X124879182Y-111221057D01*
X124904561Y-111195679D01*
X124972362Y-111087778D01*
X125014451Y-110967495D01*
X125014451Y-110967493D01*
X125014452Y-110967491D01*
X125028720Y-110840864D01*
X125028720Y-110840859D01*
X125014453Y-110714237D01*
X125014452Y-110714231D01*
X125014452Y-110714229D01*
X124972363Y-110593946D01*
X124972362Y-110593944D01*
X124904565Y-110486046D01*
X124904562Y-110486043D01*
X124859511Y-110440991D01*
X124859511Y-110440992D01*
X124859509Y-110440990D01*
X124823054Y-110404536D01*
X124442949Y-110024430D01*
X124409465Y-109963109D01*
X124414449Y-109893417D01*
X124456321Y-109837484D01*
X124516748Y-109813531D01*
X124529987Y-109812039D01*
X124529988Y-109812038D01*
X124529993Y-109812038D01*
X124650276Y-109769949D01*
X124758177Y-109702150D01*
X124780420Y-109679907D01*
X125026219Y-109434108D01*
X130999500Y-109434108D01*
X130999500Y-109565892D01*
X131001891Y-109574814D01*
X131033608Y-109693187D01*
X131064310Y-109746363D01*
X131099500Y-109807314D01*
X131192686Y-109900500D01*
X131306814Y-109966392D01*
X131434108Y-110000500D01*
X131434110Y-110000500D01*
X131565890Y-110000500D01*
X131565892Y-110000500D01*
X131693186Y-109966392D01*
X131807314Y-109900500D01*
X131900500Y-109807314D01*
X131900505Y-109807304D01*
X131905444Y-109800870D01*
X131906594Y-109801752D01*
X131945167Y-109763175D01*
X131949862Y-109760465D01*
X134215954Y-107494373D01*
X144332005Y-107494373D01*
X144332005Y-107544359D01*
X144342498Y-107647070D01*
X144397645Y-107813492D01*
X144397647Y-107813497D01*
X144489688Y-107962718D01*
X144613658Y-108086688D01*
X144762879Y-108178729D01*
X144762886Y-108178732D01*
X144931085Y-108234467D01*
X144988530Y-108274239D01*
X145015354Y-108338755D01*
X145003039Y-108407531D01*
X144955497Y-108458731D01*
X144933039Y-108469214D01*
X144891426Y-108483775D01*
X144869122Y-108491580D01*
X144869121Y-108491580D01*
X144869120Y-108491581D01*
X144759854Y-108572223D01*
X144679211Y-108681490D01*
X144679210Y-108681492D01*
X144634357Y-108809671D01*
X144634357Y-108809673D01*
X144631504Y-108840103D01*
X144631504Y-109448642D01*
X144634357Y-109479072D01*
X144634357Y-109479074D01*
X144671630Y-109585590D01*
X144679211Y-109607255D01*
X144759854Y-109716523D01*
X144869122Y-109797166D01*
X144898129Y-109807316D01*
X144997303Y-109842019D01*
X145027734Y-109844873D01*
X145027738Y-109844873D01*
X146086274Y-109844873D01*
X146116703Y-109842019D01*
X146116705Y-109842019D01*
X146202381Y-109812039D01*
X146244886Y-109797166D01*
X146354154Y-109716523D01*
X146365709Y-109700865D01*
X146421357Y-109658616D01*
X146465479Y-109650500D01*
X146861385Y-109650500D01*
X146928424Y-109670185D01*
X146949067Y-109686819D01*
X146951675Y-109689427D01*
X146951676Y-109689429D01*
X147035571Y-109773324D01*
X147089341Y-109799611D01*
X147142157Y-109825432D01*
X147142158Y-109825432D01*
X147142160Y-109825433D01*
X147211258Y-109835500D01*
X147211264Y-109835500D01*
X147588736Y-109835500D01*
X147588742Y-109835500D01*
X147657840Y-109825433D01*
X147764429Y-109773324D01*
X147764430Y-109773323D01*
X147772794Y-109767352D01*
X147775038Y-109770496D01*
X147819165Y-109746363D01*
X147888860Y-109751302D01*
X147907604Y-109760126D01*
X147977919Y-109800723D01*
X147977920Y-109800723D01*
X147977925Y-109800726D01*
X148105219Y-109834834D01*
X148105221Y-109834834D01*
X148237001Y-109834834D01*
X148237003Y-109834834D01*
X148364297Y-109800726D01*
X148478425Y-109734834D01*
X148571611Y-109641648D01*
X148637503Y-109527520D01*
X148671611Y-109400226D01*
X148671611Y-109268442D01*
X148637503Y-109141148D01*
X148571611Y-109027020D01*
X148478425Y-108933834D01*
X148380428Y-108877255D01*
X148364298Y-108867942D01*
X148283008Y-108846161D01*
X148237003Y-108833834D01*
X148237002Y-108833834D01*
X148228943Y-108832773D01*
X148229379Y-108829461D01*
X148177231Y-108814149D01*
X148131476Y-108761345D01*
X148121532Y-108692187D01*
X148137538Y-108646712D01*
X148160909Y-108607193D01*
X148207077Y-108448283D01*
X148207078Y-108448277D01*
X148209999Y-108411157D01*
X148210000Y-108411142D01*
X148210000Y-108382500D01*
X146590000Y-108382500D01*
X146590000Y-108411157D01*
X146592921Y-108448277D01*
X146592922Y-108448283D01*
X146613385Y-108518714D01*
X146613186Y-108588583D01*
X146575244Y-108647253D01*
X146511606Y-108676097D01*
X146442476Y-108665956D01*
X146394539Y-108626943D01*
X146379963Y-108607193D01*
X146354154Y-108572223D01*
X146244886Y-108491580D01*
X146244884Y-108491579D01*
X146180971Y-108469215D01*
X146124195Y-108428493D01*
X146098448Y-108363541D01*
X146111905Y-108294979D01*
X146160292Y-108244576D01*
X146182922Y-108234468D01*
X146351129Y-108178729D01*
X146460000Y-108111575D01*
X146460000Y-108006500D01*
X146479685Y-107939461D01*
X146532489Y-107893706D01*
X146584000Y-107882500D01*
X147150000Y-107882500D01*
X147650000Y-107882500D01*
X148210000Y-107882500D01*
X148210000Y-107853857D01*
X148209999Y-107853842D01*
X148207078Y-107816722D01*
X148207077Y-107816716D01*
X148160908Y-107657805D01*
X148160907Y-107657802D01*
X148076666Y-107515357D01*
X148076660Y-107515349D01*
X147959650Y-107398339D01*
X147959642Y-107398333D01*
X147817197Y-107314092D01*
X147817194Y-107314090D01*
X147658280Y-107267921D01*
X147658281Y-107267921D01*
X147650000Y-107267269D01*
X147650000Y-107882500D01*
X147150000Y-107882500D01*
X147150000Y-107267269D01*
X147141718Y-107267921D01*
X146982805Y-107314090D01*
X146982802Y-107314092D01*
X146912004Y-107355961D01*
X146912004Y-107370373D01*
X146892319Y-107437412D01*
X146839515Y-107483167D01*
X146788004Y-107494373D01*
X144332005Y-107494373D01*
X134215954Y-107494373D01*
X134765941Y-106944386D01*
X144332004Y-106944386D01*
X144332004Y-106994373D01*
X145307004Y-106994373D01*
X145807004Y-106994373D01*
X146782003Y-106994373D01*
X146782003Y-106944401D01*
X146782002Y-106944386D01*
X146771509Y-106841675D01*
X146716362Y-106675253D01*
X146716360Y-106675248D01*
X146624319Y-106526027D01*
X146500349Y-106402057D01*
X146351128Y-106310016D01*
X146351123Y-106310014D01*
X146184701Y-106254867D01*
X146184694Y-106254866D01*
X146081990Y-106244373D01*
X145807004Y-106244373D01*
X145807004Y-106994373D01*
X145307004Y-106994373D01*
X145307004Y-106244373D01*
X145032033Y-106244373D01*
X145032016Y-106244374D01*
X144929306Y-106254867D01*
X144762884Y-106310014D01*
X144762879Y-106310016D01*
X144613658Y-106402057D01*
X144489688Y-106526027D01*
X144397647Y-106675248D01*
X144397645Y-106675253D01*
X144342498Y-106841675D01*
X144342497Y-106841682D01*
X144332004Y-106944386D01*
X134765941Y-106944386D01*
X135423703Y-106286624D01*
X135485026Y-106253139D01*
X135511384Y-106250305D01*
X137325303Y-106250305D01*
X137392342Y-106269990D01*
X137428405Y-106305415D01*
X137455882Y-106346537D01*
X137455888Y-106346545D01*
X137553454Y-106444111D01*
X137553458Y-106444114D01*
X137668182Y-106520771D01*
X137668195Y-106520778D01*
X137795667Y-106573578D01*
X137795672Y-106573580D01*
X137795676Y-106573580D01*
X137795677Y-106573581D01*
X137931004Y-106600500D01*
X137931007Y-106600500D01*
X138068995Y-106600500D01*
X138160041Y-106582389D01*
X138204328Y-106573580D01*
X138331811Y-106520775D01*
X138446542Y-106444114D01*
X138544114Y-106346542D01*
X138558176Y-106325497D01*
X138571595Y-106305415D01*
X138625207Y-106260609D01*
X138674697Y-106250305D01*
X143066129Y-106250305D01*
X143133168Y-106269990D01*
X143153810Y-106286624D01*
X143192686Y-106325500D01*
X143306814Y-106391392D01*
X143434108Y-106425500D01*
X143434110Y-106425500D01*
X143565890Y-106425500D01*
X143565892Y-106425500D01*
X143693186Y-106391392D01*
X143807314Y-106325500D01*
X143900500Y-106232314D01*
X143966392Y-106118186D01*
X144000500Y-105990892D01*
X144000500Y-105859108D01*
X143966392Y-105731814D01*
X143900500Y-105617686D01*
X143807314Y-105524500D01*
X143750250Y-105491554D01*
X143693187Y-105458608D01*
X143629539Y-105441554D01*
X143565892Y-105424500D01*
X143434108Y-105424500D01*
X143306812Y-105458608D01*
X143192686Y-105524500D01*
X143192683Y-105524502D01*
X143154200Y-105562986D01*
X143092877Y-105596471D01*
X143066519Y-105599305D01*
X138707845Y-105599305D01*
X138640806Y-105579620D01*
X138604743Y-105544195D01*
X138544117Y-105453462D01*
X138544111Y-105453454D01*
X138446545Y-105355888D01*
X138446541Y-105355885D01*
X138331817Y-105279228D01*
X138331804Y-105279221D01*
X138204332Y-105226421D01*
X138204322Y-105226418D01*
X138068995Y-105199500D01*
X138068993Y-105199500D01*
X137931007Y-105199500D01*
X137931005Y-105199500D01*
X137795677Y-105226418D01*
X137795667Y-105226421D01*
X137668195Y-105279221D01*
X137668182Y-105279228D01*
X137553458Y-105355885D01*
X137553454Y-105355888D01*
X137455888Y-105453454D01*
X137455882Y-105453462D01*
X137395257Y-105544195D01*
X137341645Y-105589001D01*
X137292155Y-105599305D01*
X135282342Y-105599305D01*
X135199554Y-105621487D01*
X135125333Y-105664340D01*
X135125330Y-105664342D01*
X131793398Y-108996273D01*
X131732075Y-109029758D01*
X131673626Y-109028367D01*
X131565892Y-108999500D01*
X131434108Y-108999500D01*
X131306812Y-109033608D01*
X131192686Y-109099500D01*
X131192683Y-109099502D01*
X131099502Y-109192683D01*
X131099500Y-109192686D01*
X131033608Y-109306812D01*
X131006010Y-109409812D01*
X130999500Y-109434108D01*
X125026219Y-109434108D01*
X125423508Y-109036819D01*
X125484831Y-109003334D01*
X125511189Y-109000500D01*
X125565890Y-109000500D01*
X125565892Y-109000500D01*
X125693186Y-108966392D01*
X125807314Y-108900500D01*
X125900500Y-108807314D01*
X125966392Y-108693186D01*
X126000500Y-108565892D01*
X126000500Y-108434108D01*
X125966392Y-108306814D01*
X125900500Y-108192686D01*
X125807314Y-108099500D01*
X125733380Y-108056814D01*
X125693187Y-108033608D01*
X125629539Y-108016554D01*
X125565892Y-107999500D01*
X125434108Y-107999500D01*
X125306812Y-108033608D01*
X125192686Y-108099500D01*
X125192683Y-108099502D01*
X125099502Y-108192683D01*
X125099500Y-108192686D01*
X125033608Y-108306812D01*
X124999500Y-108434108D01*
X124999500Y-108488811D01*
X124979815Y-108555850D01*
X124963181Y-108576492D01*
X124491042Y-109048631D01*
X124429719Y-109082116D01*
X124360027Y-109077132D01*
X124315680Y-109048631D01*
X123938245Y-108671196D01*
X123830347Y-108603399D01*
X123736688Y-108570626D01*
X123710063Y-108561310D01*
X123710062Y-108561309D01*
X123710057Y-108561308D01*
X123583435Y-108547042D01*
X123583427Y-108547042D01*
X123456804Y-108561308D01*
X123336514Y-108603399D01*
X123228614Y-108671198D01*
X123207627Y-108692187D01*
X123203430Y-108696384D01*
X123135161Y-108764651D01*
X123135160Y-108764652D01*
X123135158Y-108764653D01*
X123135157Y-108764654D01*
X123068408Y-108831404D01*
X123053653Y-108846160D01*
X123053652Y-108846161D01*
X122985855Y-108954058D01*
X122985854Y-108954059D01*
X122943765Y-109074345D01*
X122929498Y-109200971D01*
X122929498Y-109200978D01*
X122936795Y-109265743D01*
X122924740Y-109334565D01*
X122877391Y-109385944D01*
X122809781Y-109403568D01*
X122799692Y-109402846D01*
X122734880Y-109395544D01*
X122734872Y-109395544D01*
X122608246Y-109409810D01*
X122487963Y-109451900D01*
X122487961Y-109451900D01*
X122487961Y-109451901D01*
X122456665Y-109471565D01*
X122380059Y-109519701D01*
X122380057Y-109519702D01*
X122335004Y-109564755D01*
X122328763Y-109570997D01*
X122328755Y-109571005D01*
X122286605Y-109613153D01*
X122286606Y-109613153D01*
X122219854Y-109679905D01*
X122205099Y-109694661D01*
X122205098Y-109694662D01*
X122137301Y-109802559D01*
X122137300Y-109802560D01*
X122095211Y-109922846D01*
X122080944Y-110049472D01*
X122080944Y-110049479D01*
X122095210Y-110176104D01*
X122137300Y-110296390D01*
X122205098Y-110404289D01*
X122212780Y-110411971D01*
X122212783Y-110411975D01*
X122582559Y-110781751D01*
X122616044Y-110843074D01*
X122611060Y-110912766D01*
X122582559Y-110957113D01*
X122300140Y-111239533D01*
X122239538Y-111300135D01*
X122239530Y-111300144D01*
X122196685Y-111374355D01*
X122196682Y-111374362D01*
X122174500Y-111457147D01*
X122174500Y-111539735D01*
X122154815Y-111606774D01*
X122130560Y-111632244D01*
X122130918Y-111632602D01*
X122037988Y-111725531D01*
X121984780Y-111834368D01*
X121983473Y-111838601D01*
X121980571Y-111842978D01*
X121980550Y-111843023D01*
X121980544Y-111843020D01*
X121944873Y-111896841D01*
X121880914Y-111924967D01*
X121811903Y-111914049D01*
X121759750Y-111867554D01*
X121746528Y-111838604D01*
X121745220Y-111834374D01*
X121745220Y-111834373D01*
X121745220Y-111834371D01*
X121692012Y-111725533D01*
X121692010Y-111725531D01*
X121692010Y-111725530D01*
X121606348Y-111639868D01*
X121497511Y-111586660D01*
X121479869Y-111584090D01*
X121426949Y-111576380D01*
X121426943Y-111576380D01*
X121033049Y-111576380D01*
X120962493Y-111586659D01*
X120853650Y-111639869D01*
X120767988Y-111725531D01*
X120714780Y-111834368D01*
X120713473Y-111838601D01*
X120710571Y-111842978D01*
X120710550Y-111843023D01*
X120710544Y-111843020D01*
X120674873Y-111896841D01*
X120610914Y-111924967D01*
X120541903Y-111914049D01*
X120489750Y-111867554D01*
X120476528Y-111838604D01*
X120475220Y-111834374D01*
X120475220Y-111834373D01*
X120475220Y-111834371D01*
X120422012Y-111725533D01*
X120422010Y-111725531D01*
X120422010Y-111725530D01*
X120336348Y-111639868D01*
X120227511Y-111586660D01*
X120209869Y-111584090D01*
X120156949Y-111576380D01*
X120156943Y-111576380D01*
X119763049Y-111576380D01*
X119692493Y-111586659D01*
X119583650Y-111639869D01*
X119497988Y-111725531D01*
X119444780Y-111834368D01*
X119443473Y-111838601D01*
X119440571Y-111842978D01*
X119440550Y-111843023D01*
X119440544Y-111843020D01*
X119404873Y-111896841D01*
X119340914Y-111924967D01*
X119271903Y-111914049D01*
X119219750Y-111867554D01*
X119206528Y-111838604D01*
X119205220Y-111834374D01*
X119205220Y-111834373D01*
X119205220Y-111834371D01*
X119152012Y-111725533D01*
X119152010Y-111725531D01*
X119152010Y-111725530D01*
X119066348Y-111639868D01*
X118957511Y-111586660D01*
X118939869Y-111584090D01*
X118886949Y-111576380D01*
X118886943Y-111576380D01*
X118493049Y-111576380D01*
X118422493Y-111586659D01*
X118313650Y-111639869D01*
X118227988Y-111725531D01*
X118174779Y-111834371D01*
X118171937Y-111843571D01*
X118170377Y-111843089D01*
X118145812Y-111896597D01*
X118086959Y-111934254D01*
X118017089Y-111934114D01*
X117964581Y-111902888D01*
X117883577Y-111821884D01*
X117883569Y-111821878D01*
X117741124Y-111737637D01*
X117741121Y-111737635D01*
X117582207Y-111691466D01*
X117582208Y-111691466D01*
X117573927Y-111690814D01*
X117573927Y-112432045D01*
X117554242Y-112499084D01*
X117501438Y-112544839D01*
X117449927Y-112556045D01*
X117197927Y-112556045D01*
X117130888Y-112536360D01*
X117085133Y-112483556D01*
X117073927Y-112432045D01*
X117073927Y-111690814D01*
X117065645Y-111691466D01*
X116906733Y-111737636D01*
X116906726Y-111737639D01*
X116855000Y-111768228D01*
X116855000Y-111879328D01*
X116835315Y-111946367D01*
X116782511Y-111992122D01*
X116731000Y-112003328D01*
X114275001Y-112003328D01*
X114275001Y-112053314D01*
X114285494Y-112156025D01*
X114340641Y-112322447D01*
X114340643Y-112322452D01*
X114432684Y-112471673D01*
X114556654Y-112595643D01*
X114705875Y-112687684D01*
X114705882Y-112687687D01*
X114874081Y-112743422D01*
X114931526Y-112783194D01*
X114958350Y-112847710D01*
X114946035Y-112916486D01*
X114898493Y-112967686D01*
X114876035Y-112978169D01*
X114845623Y-112988811D01*
X114812118Y-113000535D01*
X114812117Y-113000535D01*
X114812116Y-113000536D01*
X114702848Y-113081179D01*
X114650241Y-113152461D01*
X114646261Y-113155482D01*
X114644184Y-113160031D01*
X114618705Y-113176404D01*
X114594594Y-113194712D01*
X114588464Y-113195839D01*
X114585406Y-113197805D01*
X114550471Y-113202828D01*
X114462004Y-113202828D01*
X114394965Y-113183143D01*
X114374323Y-113166509D01*
X114307316Y-113099502D01*
X114307314Y-113099500D01*
X114249102Y-113065891D01*
X114193187Y-113033608D01*
X114124370Y-113015169D01*
X114065892Y-112999500D01*
X113934108Y-112999500D01*
X113806812Y-113033608D01*
X113692686Y-113099500D01*
X113692683Y-113099502D01*
X113599502Y-113192683D01*
X113599500Y-113192686D01*
X113533608Y-113306812D01*
X113519319Y-113360140D01*
X113499500Y-113434108D01*
X113499500Y-113565892D01*
X113512774Y-113615430D01*
X113533608Y-113693187D01*
X113537253Y-113699500D01*
X113599500Y-113807314D01*
X113692686Y-113900500D01*
X113806814Y-113966392D01*
X113806816Y-113966392D01*
X113814326Y-113969504D01*
X113814137Y-113969959D01*
X113842033Y-113982567D01*
X113852291Y-113989394D01*
X113876715Y-114013818D01*
X113965887Y-114065301D01*
X113979442Y-114073127D01*
X114094019Y-114103828D01*
X114550471Y-114103828D01*
X114617510Y-114123513D01*
X114650241Y-114154195D01*
X114702848Y-114225476D01*
X114702849Y-114225476D01*
X114702850Y-114225478D01*
X114812118Y-114306121D01*
X114854845Y-114321072D01*
X114940299Y-114350974D01*
X114970730Y-114353828D01*
X114970734Y-114353828D01*
X116029270Y-114353828D01*
X116059699Y-114350974D01*
X116059701Y-114350974D01*
X116131342Y-114325905D01*
X116187882Y-114306121D01*
X116297150Y-114225478D01*
X116321923Y-114191910D01*
X116377570Y-114149661D01*
X116421693Y-114141545D01*
X116852811Y-114141545D01*
X116876094Y-114148381D01*
X116900226Y-114150968D01*
X116912246Y-114158997D01*
X116919850Y-114161230D01*
X116930585Y-114168968D01*
X116935782Y-114173153D01*
X116959498Y-114196869D01*
X116974090Y-114204002D01*
X116984915Y-114212720D01*
X116997236Y-114230454D01*
X117013182Y-114245022D01*
X117016778Y-114258580D01*
X117024782Y-114270099D01*
X117025559Y-114291679D01*
X117031098Y-114312555D01*
X117026793Y-114325905D01*
X117027299Y-114339923D01*
X117016285Y-114358499D01*
X117009659Y-114379054D01*
X117004089Y-114386609D01*
X116970510Y-114428715D01*
X116921088Y-114531340D01*
X116896577Y-114638732D01*
X116862468Y-114699710D01*
X116800806Y-114732568D01*
X116775686Y-114735139D01*
X114015703Y-114735139D01*
X113948664Y-114715454D01*
X113928022Y-114698820D01*
X113889343Y-114660141D01*
X113889341Y-114660139D01*
X113832277Y-114627193D01*
X113775214Y-114594247D01*
X113711566Y-114577193D01*
X113647919Y-114560139D01*
X113516135Y-114560139D01*
X113388839Y-114594247D01*
X113274713Y-114660139D01*
X113274710Y-114660141D01*
X113181529Y-114753322D01*
X113181527Y-114753325D01*
X113115635Y-114867451D01*
X113097616Y-114934701D01*
X113081527Y-114994747D01*
X99286034Y-114994747D01*
X99286034Y-110313823D01*
X113129215Y-110313823D01*
X113129215Y-110445607D01*
X113145669Y-110507014D01*
X113163323Y-110572902D01*
X113196269Y-110629965D01*
X113229215Y-110687029D01*
X113322401Y-110780215D01*
X113436529Y-110846107D01*
X113563823Y-110880215D01*
X113563825Y-110880215D01*
X113695605Y-110880215D01*
X113695607Y-110880215D01*
X113822901Y-110846107D01*
X113937029Y-110780215D01*
X113942626Y-110774618D01*
X114003949Y-110741133D01*
X114030307Y-110738299D01*
X114430006Y-110738299D01*
X114497045Y-110757984D01*
X114542800Y-110810788D01*
X114552744Y-110879946D01*
X114523719Y-110943502D01*
X114517687Y-110949980D01*
X114432684Y-111034982D01*
X114340643Y-111184203D01*
X114340641Y-111184208D01*
X114285494Y-111350630D01*
X114285493Y-111350637D01*
X114275000Y-111453341D01*
X114275000Y-111503328D01*
X116724999Y-111503328D01*
X116724999Y-111453356D01*
X116724998Y-111453341D01*
X116714505Y-111350630D01*
X116659358Y-111184208D01*
X116659356Y-111184203D01*
X116567315Y-111034982D01*
X116443345Y-110911012D01*
X116294124Y-110818971D01*
X116294121Y-110818970D01*
X116279333Y-110814070D01*
X116221888Y-110774297D01*
X116195066Y-110709781D01*
X116207381Y-110641005D01*
X116210954Y-110634359D01*
X116210981Y-110634312D01*
X116210982Y-110634310D01*
X116245090Y-110507016D01*
X116245090Y-110375232D01*
X116210982Y-110247938D01*
X116145090Y-110133810D01*
X116051904Y-110040624D01*
X115994840Y-110007678D01*
X115937777Y-109974732D01*
X115845556Y-109950022D01*
X115810482Y-109940624D01*
X115678698Y-109940624D01*
X115551402Y-109974732D01*
X115437276Y-110040624D01*
X115437273Y-110040626D01*
X115426920Y-110050980D01*
X115365597Y-110084465D01*
X115339239Y-110087299D01*
X115082167Y-110087299D01*
X115015128Y-110067614D01*
X114969373Y-110014810D01*
X114959429Y-109945652D01*
X114964623Y-109926718D01*
X114964288Y-109926629D01*
X114967853Y-109913324D01*
X115000500Y-109791484D01*
X115000500Y-109659700D01*
X114966392Y-109532406D01*
X114966388Y-109532399D01*
X114963281Y-109524896D01*
X114964616Y-109524343D01*
X114962959Y-109518161D01*
X114955523Y-109506589D01*
X114950500Y-109471654D01*
X114950500Y-109413369D01*
X114970185Y-109346330D01*
X115020039Y-109301969D01*
X115114429Y-109255824D01*
X115114430Y-109255823D01*
X115114432Y-109255822D01*
X115133435Y-109236819D01*
X115194758Y-109203334D01*
X115221116Y-109200500D01*
X115309307Y-109200500D01*
X115309309Y-109200500D01*
X115406342Y-109174500D01*
X115423887Y-109169799D01*
X115526614Y-109110489D01*
X115888991Y-108748111D01*
X115936228Y-108720842D01*
X115935674Y-108719504D01*
X115943180Y-108716393D01*
X115943186Y-108716392D01*
X116057314Y-108650500D01*
X116150500Y-108557314D01*
X116216392Y-108443186D01*
X116250500Y-108315892D01*
X116250500Y-108184108D01*
X116216392Y-108056814D01*
X116150500Y-107942686D01*
X116057314Y-107849500D01*
X115994955Y-107813497D01*
X115943187Y-107783608D01*
X115879539Y-107766554D01*
X115815892Y-107749500D01*
X115684108Y-107749500D01*
X115556812Y-107783608D01*
X115499469Y-107816716D01*
X115444612Y-107848387D01*
X115382614Y-107865000D01*
X113940000Y-107865000D01*
X113940000Y-107893657D01*
X113942921Y-107930777D01*
X113942922Y-107930783D01*
X113975156Y-108041731D01*
X113974957Y-108111601D01*
X113937015Y-108170271D01*
X113873376Y-108199114D01*
X113823988Y-108196101D01*
X113777214Y-108183568D01*
X113645430Y-108183568D01*
X113518134Y-108217676D01*
X113404008Y-108283568D01*
X113404005Y-108283570D01*
X113310824Y-108376751D01*
X113310822Y-108376754D01*
X113244930Y-108490880D01*
X113224831Y-108565892D01*
X113210822Y-108618176D01*
X113210822Y-108749960D01*
X113214759Y-108764652D01*
X113244930Y-108877255D01*
X113277597Y-108933834D01*
X113310822Y-108991382D01*
X113404008Y-109084568D01*
X113518136Y-109150460D01*
X113645430Y-109184568D01*
X113645432Y-109184568D01*
X113777212Y-109184568D01*
X113777214Y-109184568D01*
X113893408Y-109153434D01*
X113918401Y-109154029D01*
X113943147Y-109150471D01*
X113952727Y-109154846D01*
X113963257Y-109155097D01*
X113983960Y-109169109D01*
X114006703Y-109179496D01*
X114012397Y-109188357D01*
X114021119Y-109194260D01*
X114030960Y-109217240D01*
X114044477Y-109238274D01*
X114046756Y-109254129D01*
X114048623Y-109258488D01*
X114049500Y-109273209D01*
X114049500Y-109471654D01*
X114035383Y-109524343D01*
X114036719Y-109524896D01*
X114033608Y-109532406D01*
X113999500Y-109659700D01*
X113999500Y-109799611D01*
X113996312Y-109799611D01*
X113987831Y-109853859D01*
X113941432Y-109906098D01*
X113874156Y-109924958D01*
X113828230Y-109915530D01*
X113822904Y-109913324D01*
X113822901Y-109913323D01*
X113695607Y-109879215D01*
X113563823Y-109879215D01*
X113436527Y-109913323D01*
X113322401Y-109979215D01*
X113322398Y-109979217D01*
X113229217Y-110072398D01*
X113229215Y-110072401D01*
X113163323Y-110186527D01*
X113141894Y-110266503D01*
X113129215Y-110313823D01*
X99286034Y-110313823D01*
X99286034Y-107336342D01*
X113940000Y-107336342D01*
X113940000Y-107365000D01*
X114500000Y-107365000D01*
X115000000Y-107365000D01*
X115560000Y-107365000D01*
X115560000Y-107336357D01*
X115559999Y-107336342D01*
X115557078Y-107299222D01*
X115557077Y-107299216D01*
X115510908Y-107140305D01*
X115510907Y-107140302D01*
X115426666Y-106997857D01*
X115426660Y-106997849D01*
X115309650Y-106880839D01*
X115309642Y-106880833D01*
X115167197Y-106796592D01*
X115167194Y-106796590D01*
X115008280Y-106750421D01*
X115008281Y-106750421D01*
X115000000Y-106749769D01*
X115000000Y-107365000D01*
X114500000Y-107365000D01*
X114500000Y-106749769D01*
X114491718Y-106750421D01*
X114332805Y-106796590D01*
X114332802Y-106796592D01*
X114190357Y-106880833D01*
X114190349Y-106880839D01*
X114073339Y-106997849D01*
X114073333Y-106997857D01*
X113989092Y-107140302D01*
X113989091Y-107140305D01*
X113942922Y-107299216D01*
X113942921Y-107299222D01*
X113940000Y-107336342D01*
X99286034Y-107336342D01*
X99286034Y-104434108D01*
X113499500Y-104434108D01*
X113499500Y-104565891D01*
X113533608Y-104693187D01*
X113560087Y-104739049D01*
X113599500Y-104807314D01*
X113692686Y-104900500D01*
X113806814Y-104966392D01*
X113934108Y-105000500D01*
X113988811Y-105000500D01*
X114055850Y-105020185D01*
X114076492Y-105036819D01*
X116300138Y-107260465D01*
X116364414Y-107297575D01*
X116367266Y-107299222D01*
X116374361Y-107303318D01*
X116457147Y-107325500D01*
X116457149Y-107325500D01*
X120499730Y-107325500D01*
X120499732Y-107325500D01*
X120582518Y-107303318D01*
X120656741Y-107260465D01*
X121487961Y-106429244D01*
X121490954Y-106427107D01*
X121492000Y-106425383D01*
X121521171Y-106405531D01*
X121606347Y-106363892D01*
X121606349Y-106363889D01*
X121611021Y-106361606D01*
X121679894Y-106349847D01*
X121744191Y-106377191D01*
X121771598Y-106408857D01*
X121812163Y-106475960D01*
X121925919Y-106589716D01*
X122063607Y-106672952D01*
X122063606Y-106672952D01*
X122217197Y-106720812D01*
X122217207Y-106720815D01*
X122249999Y-106723794D01*
X122250000Y-106723794D01*
X122750000Y-106723794D01*
X122782792Y-106720815D01*
X122782802Y-106720812D01*
X122936392Y-106672952D01*
X123074080Y-106589716D01*
X123187836Y-106475960D01*
X123271070Y-106338276D01*
X123318934Y-106184672D01*
X123325000Y-106117923D01*
X123325000Y-105664380D01*
X122750000Y-105664380D01*
X122750000Y-106723794D01*
X122250000Y-106723794D01*
X122250000Y-105164380D01*
X122750000Y-105164380D01*
X123325000Y-105164380D01*
X123325000Y-104710836D01*
X123318934Y-104644087D01*
X123271070Y-104490483D01*
X123187836Y-104352799D01*
X123074080Y-104239043D01*
X122936396Y-104155809D01*
X122782794Y-104107946D01*
X122750000Y-104104965D01*
X122750000Y-105164380D01*
X122250000Y-105164380D01*
X122250000Y-104104965D01*
X122249999Y-104104965D01*
X122217205Y-104107946D01*
X122063603Y-104155809D01*
X121925919Y-104239043D01*
X121812164Y-104352798D01*
X121812161Y-104352802D01*
X121771597Y-104419903D01*
X121720069Y-104467090D01*
X121651210Y-104478928D01*
X121611021Y-104467152D01*
X121497512Y-104411661D01*
X121497510Y-104411660D01*
X121497509Y-104411660D01*
X121426949Y-104401380D01*
X121426943Y-104401380D01*
X121090121Y-104401380D01*
X121023082Y-104381695D01*
X120977327Y-104328891D01*
X120967383Y-104259733D01*
X120982734Y-104215381D01*
X121035378Y-104124200D01*
X121069486Y-103996906D01*
X121069486Y-103865122D01*
X121035378Y-103737828D01*
X120969486Y-103623700D01*
X120876300Y-103530514D01*
X120819236Y-103497568D01*
X120762173Y-103464622D01*
X120698525Y-103447568D01*
X120634878Y-103430514D01*
X120503094Y-103430514D01*
X120375798Y-103464622D01*
X120261672Y-103530514D01*
X120261669Y-103530516D01*
X120168488Y-103623697D01*
X120168486Y-103623700D01*
X120102594Y-103737826D01*
X120068486Y-103865122D01*
X120068486Y-103919825D01*
X120048801Y-103986864D01*
X120032167Y-104007506D01*
X119699537Y-104340135D01*
X119699533Y-104340141D01*
X119663695Y-104402212D01*
X119613127Y-104450427D01*
X119610773Y-104451609D01*
X119583654Y-104464867D01*
X119497987Y-104550533D01*
X119444780Y-104659368D01*
X119443473Y-104663601D01*
X119440571Y-104667978D01*
X119440550Y-104668023D01*
X119440544Y-104668020D01*
X119404873Y-104721841D01*
X119340914Y-104749967D01*
X119271903Y-104739049D01*
X119219750Y-104692554D01*
X119206528Y-104663604D01*
X119205220Y-104659374D01*
X119205220Y-104659371D01*
X119152012Y-104550533D01*
X119152010Y-104550531D01*
X119152010Y-104550530D01*
X119059082Y-104457602D01*
X119060230Y-104456453D01*
X119024323Y-104410674D01*
X119015500Y-104364735D01*
X119015500Y-104147149D01*
X119015500Y-104147147D01*
X118993318Y-104064362D01*
X118977416Y-104036819D01*
X118950469Y-103990144D01*
X118950463Y-103990136D01*
X118536819Y-103576492D01*
X118503334Y-103515169D01*
X118500500Y-103488811D01*
X118500500Y-103434110D01*
X118500500Y-103434108D01*
X118466392Y-103306814D01*
X118400500Y-103192686D01*
X118307314Y-103099500D01*
X118250250Y-103066554D01*
X118193187Y-103033608D01*
X118129539Y-103016554D01*
X118065892Y-102999500D01*
X117934108Y-102999500D01*
X117806812Y-103033608D01*
X117692686Y-103099500D01*
X117692683Y-103099502D01*
X117599502Y-103192683D01*
X117599500Y-103192686D01*
X117533608Y-103306812D01*
X117499500Y-103434108D01*
X117499500Y-103565891D01*
X117533608Y-103693187D01*
X117559381Y-103737826D01*
X117599500Y-103807314D01*
X117692686Y-103900500D01*
X117806814Y-103966392D01*
X117934108Y-104000500D01*
X117988811Y-104000500D01*
X118055850Y-104020185D01*
X118076492Y-104036819D01*
X118321498Y-104281825D01*
X118354983Y-104343148D01*
X118349999Y-104412840D01*
X118318385Y-104455069D01*
X118320918Y-104457602D01*
X118227988Y-104550531D01*
X118174780Y-104659368D01*
X118174163Y-104663604D01*
X118164500Y-104729931D01*
X118164500Y-104729935D01*
X118164500Y-104729936D01*
X118164500Y-106098830D01*
X118174779Y-106169386D01*
X118174779Y-106169387D01*
X118174780Y-106169389D01*
X118216568Y-106254867D01*
X118227989Y-106278229D01*
X118313651Y-106363891D01*
X118422488Y-106417099D01*
X118422489Y-106417099D01*
X118422491Y-106417100D01*
X118493051Y-106427380D01*
X118493056Y-106427379D01*
X118495905Y-106427795D01*
X118559406Y-106456939D01*
X118597070Y-106515788D01*
X118596940Y-106585657D01*
X118559055Y-106644365D01*
X118495445Y-106673271D01*
X118478028Y-106674500D01*
X116686189Y-106674500D01*
X116619150Y-106654815D01*
X116598508Y-106638181D01*
X114536819Y-104576492D01*
X114503334Y-104515169D01*
X114500500Y-104488811D01*
X114500500Y-104434110D01*
X114500500Y-104434108D01*
X114466392Y-104306814D01*
X114400500Y-104192686D01*
X114307314Y-104099500D01*
X114246441Y-104064355D01*
X114193187Y-104033608D01*
X114095771Y-104007506D01*
X114065892Y-103999500D01*
X113934108Y-103999500D01*
X113806812Y-104033608D01*
X113692686Y-104099500D01*
X113692683Y-104099502D01*
X113599502Y-104192683D01*
X113599500Y-104192686D01*
X113533608Y-104306812D01*
X113499500Y-104434108D01*
X99286034Y-104434108D01*
X99286034Y-95752706D01*
X99286152Y-95747297D01*
X99291265Y-95630186D01*
X99291759Y-95618872D01*
X101785034Y-95618872D01*
X101785034Y-95881127D01*
X101803925Y-96024609D01*
X101819264Y-96141116D01*
X101884842Y-96385858D01*
X101887136Y-96394418D01*
X101887139Y-96394428D01*
X101987487Y-96636690D01*
X101987492Y-96636700D01*
X102118609Y-96863803D01*
X102278252Y-97071851D01*
X102278260Y-97071860D01*
X102463674Y-97257274D01*
X102463682Y-97257281D01*
X102671730Y-97416924D01*
X102898833Y-97548041D01*
X102898843Y-97548046D01*
X103123822Y-97641235D01*
X103141115Y-97648398D01*
X103394418Y-97716270D01*
X103654414Y-97750500D01*
X103654421Y-97750500D01*
X103916647Y-97750500D01*
X103916654Y-97750500D01*
X104176650Y-97716270D01*
X104429953Y-97648398D01*
X104672231Y-97548043D01*
X104899337Y-97416924D01*
X105107385Y-97257282D01*
X105107389Y-97257277D01*
X105107394Y-97257274D01*
X105292808Y-97071860D01*
X105292811Y-97071855D01*
X105292816Y-97071851D01*
X105452458Y-96863803D01*
X105583577Y-96636697D01*
X105591016Y-96618739D01*
X105629637Y-96525499D01*
X105683932Y-96394419D01*
X105751804Y-96141116D01*
X105786034Y-95881120D01*
X105786034Y-95618880D01*
X105751804Y-95358884D01*
X105683932Y-95105581D01*
X105675440Y-95085080D01*
X105583580Y-94863309D01*
X105583575Y-94863299D01*
X105452458Y-94636196D01*
X105311745Y-94452818D01*
X105292816Y-94428149D01*
X105292815Y-94428148D01*
X105292808Y-94428140D01*
X105107394Y-94242726D01*
X105107385Y-94242718D01*
X104899337Y-94083075D01*
X104672234Y-93951958D01*
X104672224Y-93951953D01*
X104429962Y-93851605D01*
X104429955Y-93851603D01*
X104429953Y-93851602D01*
X104176650Y-93783730D01*
X104118873Y-93776123D01*
X103916661Y-93749500D01*
X103916654Y-93749500D01*
X103654414Y-93749500D01*
X103654406Y-93749500D01*
X103423306Y-93779926D01*
X103394418Y-93783730D01*
X103307547Y-93807007D01*
X103141115Y-93851602D01*
X103141105Y-93851605D01*
X102898843Y-93951953D01*
X102898833Y-93951958D01*
X102671730Y-94083075D01*
X102463682Y-94242718D01*
X102278252Y-94428148D01*
X102118609Y-94636196D01*
X101987492Y-94863299D01*
X101987487Y-94863309D01*
X101887139Y-95105571D01*
X101887136Y-95105581D01*
X101821645Y-95350000D01*
X101819264Y-95358885D01*
X101785034Y-95618872D01*
X99291759Y-95618872D01*
X99302920Y-95363226D01*
X99303859Y-95352496D01*
X99353685Y-94974032D01*
X99355558Y-94963402D01*
X99438182Y-94590714D01*
X99440980Y-94580276D01*
X99555764Y-94216227D01*
X99559451Y-94206095D01*
X99705537Y-93853412D01*
X99710095Y-93843638D01*
X99886356Y-93505045D01*
X99891751Y-93495700D01*
X99991441Y-93339218D01*
X109352504Y-93339218D01*
X109352504Y-93546157D01*
X109392872Y-93749100D01*
X109392874Y-93749108D01*
X109458943Y-93908613D01*
X109472063Y-93940286D01*
X109479862Y-93951958D01*
X109587028Y-94112345D01*
X109733346Y-94258663D01*
X109733349Y-94258665D01*
X109905406Y-94373629D01*
X110096584Y-94452818D01*
X110299534Y-94493187D01*
X110299538Y-94493188D01*
X110299539Y-94493188D01*
X110506470Y-94493188D01*
X110506471Y-94493187D01*
X110709424Y-94452818D01*
X110900602Y-94373629D01*
X111072659Y-94258665D01*
X111218981Y-94112343D01*
X111333945Y-93940286D01*
X111413134Y-93749108D01*
X111453504Y-93546153D01*
X111453504Y-93339223D01*
X111453503Y-93339218D01*
X111892504Y-93339218D01*
X111892504Y-93546157D01*
X111932872Y-93749100D01*
X111932874Y-93749108D01*
X111998943Y-93908613D01*
X112012063Y-93940286D01*
X112019862Y-93951958D01*
X112127028Y-94112345D01*
X112273346Y-94258663D01*
X112273349Y-94258665D01*
X112445406Y-94373629D01*
X112482327Y-94388922D01*
X112540956Y-94413207D01*
X112595360Y-94457047D01*
X112617425Y-94523341D01*
X112617504Y-94527768D01*
X112617504Y-96412207D01*
X112617504Y-96497913D01*
X112624896Y-96525500D01*
X112639686Y-96580700D01*
X112661112Y-96617810D01*
X112682539Y-96654922D01*
X112682541Y-96654924D01*
X115099673Y-99072056D01*
X115133158Y-99133379D01*
X115135992Y-99159737D01*
X115135992Y-99214439D01*
X115170100Y-99341735D01*
X115203046Y-99398798D01*
X115235992Y-99455862D01*
X115329178Y-99549048D01*
X115443306Y-99614940D01*
X115570600Y-99649048D01*
X115570602Y-99649048D01*
X115702382Y-99649048D01*
X115702384Y-99649048D01*
X115829678Y-99614940D01*
X115943806Y-99549048D01*
X116036992Y-99455862D01*
X116102884Y-99341734D01*
X116136992Y-99214440D01*
X116136992Y-99082656D01*
X116102884Y-98955362D01*
X116036992Y-98841234D01*
X115943806Y-98748048D01*
X115886742Y-98715102D01*
X115829679Y-98682156D01*
X115766031Y-98665102D01*
X115702384Y-98648048D01*
X115702383Y-98648048D01*
X115647681Y-98648048D01*
X115580642Y-98628363D01*
X115560000Y-98611729D01*
X113304823Y-96356552D01*
X113271338Y-96295229D01*
X113268504Y-96268871D01*
X113268504Y-94527768D01*
X113288189Y-94460729D01*
X113340993Y-94414974D01*
X113345052Y-94413207D01*
X113354834Y-94409154D01*
X113440602Y-94373629D01*
X113612659Y-94258665D01*
X113758981Y-94112343D01*
X113873945Y-93940286D01*
X113894443Y-93890800D01*
X113938283Y-93836396D01*
X114004577Y-93814331D01*
X114072277Y-93831610D01*
X114119888Y-93882747D01*
X114133004Y-93938252D01*
X114133004Y-94340532D01*
X114139405Y-94400060D01*
X114139407Y-94400067D01*
X114189649Y-94534774D01*
X114189653Y-94534781D01*
X114275813Y-94649875D01*
X114275816Y-94649878D01*
X114390910Y-94736038D01*
X114390917Y-94736042D01*
X114525624Y-94786284D01*
X114525631Y-94786286D01*
X114585159Y-94792687D01*
X114585176Y-94792688D01*
X115233004Y-94792688D01*
X115233004Y-93875700D01*
X115290011Y-93908613D01*
X115417178Y-93942688D01*
X115548830Y-93942688D01*
X115675997Y-93908613D01*
X115733004Y-93875700D01*
X115733004Y-94792688D01*
X116380832Y-94792688D01*
X116380848Y-94792687D01*
X116440376Y-94786286D01*
X116440383Y-94786284D01*
X116575090Y-94736042D01*
X116575097Y-94736038D01*
X116690191Y-94649878D01*
X116690194Y-94649875D01*
X116776354Y-94534781D01*
X116776358Y-94534774D01*
X116826600Y-94400067D01*
X116826602Y-94400060D01*
X116833003Y-94340532D01*
X116833004Y-94340515D01*
X116833004Y-93896530D01*
X119369500Y-93896530D01*
X119369500Y-94103469D01*
X119409868Y-94306412D01*
X119409870Y-94306420D01*
X119489058Y-94497596D01*
X119604024Y-94669657D01*
X119750342Y-94815975D01*
X119750345Y-94815977D01*
X119922402Y-94930941D01*
X120113580Y-95010130D01*
X120316530Y-95050499D01*
X120316534Y-95050500D01*
X120316535Y-95050500D01*
X120523466Y-95050500D01*
X120523467Y-95050499D01*
X120726420Y-95010130D01*
X120917598Y-94930941D01*
X121089655Y-94815977D01*
X121235977Y-94669655D01*
X121350941Y-94497598D01*
X121430130Y-94306420D01*
X121470500Y-94103465D01*
X121470500Y-93896535D01*
X121470499Y-93896530D01*
X121909500Y-93896530D01*
X121909500Y-94103469D01*
X121949868Y-94306412D01*
X121949870Y-94306420D01*
X122029058Y-94497596D01*
X122144024Y-94669657D01*
X122290342Y-94815975D01*
X122290345Y-94815977D01*
X122462402Y-94930941D01*
X122526212Y-94957372D01*
X122557952Y-94970519D01*
X122612356Y-95014359D01*
X122634421Y-95080653D01*
X122634500Y-95085080D01*
X122634500Y-102612026D01*
X122656682Y-102694811D01*
X122656685Y-102694818D01*
X122699530Y-102769029D01*
X122699534Y-102769034D01*
X122699535Y-102769036D01*
X122760138Y-102829639D01*
X122760140Y-102829640D01*
X122760144Y-102829643D01*
X122790014Y-102846888D01*
X122834362Y-102872492D01*
X122917147Y-102894674D01*
X122917149Y-102894674D01*
X123002851Y-102894674D01*
X123002853Y-102894674D01*
X123085638Y-102872492D01*
X123141034Y-102840508D01*
X123208934Y-102824036D01*
X123274961Y-102846888D01*
X123290715Y-102860215D01*
X125311787Y-104881287D01*
X125345272Y-104942610D01*
X125348106Y-104968968D01*
X125348106Y-105023670D01*
X125382214Y-105150966D01*
X125389959Y-105164380D01*
X125448106Y-105265093D01*
X125541292Y-105358279D01*
X125655420Y-105424171D01*
X125782714Y-105458279D01*
X125782716Y-105458279D01*
X125914496Y-105458279D01*
X125914498Y-105458279D01*
X126041792Y-105424171D01*
X126155920Y-105358279D01*
X126249106Y-105265093D01*
X126314998Y-105150965D01*
X126349106Y-105023671D01*
X126349106Y-104891887D01*
X126314998Y-104764593D01*
X126249106Y-104650465D01*
X126155920Y-104557279D01*
X126082984Y-104515169D01*
X126041793Y-104491387D01*
X125978145Y-104474333D01*
X125914498Y-104457279D01*
X125914497Y-104457279D01*
X125859795Y-104457279D01*
X125792756Y-104437594D01*
X125772114Y-104420960D01*
X123645275Y-102294122D01*
X123645274Y-102294121D01*
X123521751Y-102170597D01*
X123521736Y-102170583D01*
X123321819Y-101970666D01*
X123288334Y-101909343D01*
X123285500Y-101882985D01*
X123285500Y-96708500D01*
X178595050Y-96708500D01*
X178611849Y-96719725D01*
X178611855Y-96719728D01*
X178780182Y-96789451D01*
X178780194Y-96789454D01*
X178958890Y-96824999D01*
X178958894Y-96825000D01*
X179141106Y-96825000D01*
X179141109Y-96824999D01*
X179319805Y-96789454D01*
X179319813Y-96789452D01*
X179488151Y-96719724D01*
X179488154Y-96719723D01*
X179504947Y-96708500D01*
X179504948Y-96708500D01*
X179050001Y-96253553D01*
X179050000Y-96253553D01*
X178595050Y-96708500D01*
X123285500Y-96708500D01*
X123285500Y-95808890D01*
X178125000Y-95808890D01*
X178125000Y-95991109D01*
X178160545Y-96169805D01*
X178160548Y-96169817D01*
X178230271Y-96338145D01*
X178241498Y-96354947D01*
X178696446Y-95900000D01*
X178696446Y-95899999D01*
X178646719Y-95850272D01*
X178800000Y-95850272D01*
X178800000Y-95949728D01*
X178838060Y-96041614D01*
X178908386Y-96111940D01*
X179000272Y-96150000D01*
X179099728Y-96150000D01*
X179191614Y-96111940D01*
X179261940Y-96041614D01*
X179300000Y-95949728D01*
X179300000Y-95899999D01*
X179403553Y-95899999D01*
X179403553Y-95900001D01*
X179875053Y-96371501D01*
X179880583Y-96372550D01*
X179896057Y-96382690D01*
X179896202Y-96382474D01*
X180003707Y-96454307D01*
X180003713Y-96454310D01*
X180003714Y-96454311D01*
X180117548Y-96501463D01*
X180238389Y-96525499D01*
X180238393Y-96525500D01*
X180238394Y-96525500D01*
X180361607Y-96525500D01*
X180361608Y-96525499D01*
X180482452Y-96501463D01*
X180596286Y-96454311D01*
X180698733Y-96385858D01*
X180730286Y-96354305D01*
X180791608Y-96320819D01*
X180861300Y-96325803D01*
X180917234Y-96367673D01*
X180932528Y-96394528D01*
X180936132Y-96403228D01*
X180936133Y-96403231D01*
X180936134Y-96403232D01*
X180980447Y-96469552D01*
X181046769Y-96513867D01*
X181046770Y-96513868D01*
X181105247Y-96525499D01*
X181105250Y-96525500D01*
X181105252Y-96525500D01*
X181994750Y-96525500D01*
X181994751Y-96525499D01*
X182009568Y-96522552D01*
X182053229Y-96513868D01*
X182053229Y-96513867D01*
X182053231Y-96513867D01*
X182119552Y-96469552D01*
X182163867Y-96403231D01*
X182163867Y-96403229D01*
X182163868Y-96403229D01*
X182175499Y-96344752D01*
X182175500Y-96344750D01*
X182175500Y-95843183D01*
X192999500Y-95843183D01*
X192999500Y-96105438D01*
X193019001Y-96253553D01*
X193033730Y-96365427D01*
X193091412Y-96580699D01*
X193101602Y-96618729D01*
X193101605Y-96618739D01*
X193201953Y-96861001D01*
X193201958Y-96861011D01*
X193333075Y-97088114D01*
X193492718Y-97296162D01*
X193492726Y-97296171D01*
X193678140Y-97481585D01*
X193678148Y-97481592D01*
X193886196Y-97641235D01*
X194113299Y-97772352D01*
X194113309Y-97772357D01*
X194355571Y-97872705D01*
X194355581Y-97872709D01*
X194608884Y-97940581D01*
X194868880Y-97974811D01*
X194868887Y-97974811D01*
X195131113Y-97974811D01*
X195131120Y-97974811D01*
X195391116Y-97940581D01*
X195644419Y-97872709D01*
X195886697Y-97772354D01*
X196113803Y-97641235D01*
X196321851Y-97481593D01*
X196321855Y-97481588D01*
X196321860Y-97481585D01*
X196507274Y-97296171D01*
X196507277Y-97296166D01*
X196507282Y-97296162D01*
X196666924Y-97088114D01*
X196798043Y-96861008D01*
X196898398Y-96618730D01*
X196966270Y-96365427D01*
X197000500Y-96105431D01*
X197000500Y-95843191D01*
X196966270Y-95583195D01*
X196898398Y-95329892D01*
X196885411Y-95298538D01*
X196798046Y-95087620D01*
X196798041Y-95087610D01*
X196666924Y-94860507D01*
X196507281Y-94652459D01*
X196507274Y-94652451D01*
X196321860Y-94467037D01*
X196321851Y-94467029D01*
X196113803Y-94307386D01*
X195886700Y-94176269D01*
X195886690Y-94176264D01*
X195644428Y-94075916D01*
X195644421Y-94075914D01*
X195644419Y-94075913D01*
X195391116Y-94008041D01*
X195333339Y-94000434D01*
X195131127Y-93973811D01*
X195131120Y-93973811D01*
X194868880Y-93973811D01*
X194868872Y-93973811D01*
X194637772Y-94004237D01*
X194608884Y-94008041D01*
X194355581Y-94075913D01*
X194355571Y-94075916D01*
X194113309Y-94176264D01*
X194113299Y-94176269D01*
X193886196Y-94307386D01*
X193678148Y-94467029D01*
X193492718Y-94652459D01*
X193333075Y-94860507D01*
X193201958Y-95087610D01*
X193201953Y-95087620D01*
X193101605Y-95329882D01*
X193101602Y-95329892D01*
X193055683Y-95501267D01*
X193033730Y-95583196D01*
X192999500Y-95843183D01*
X182175500Y-95843183D01*
X182175500Y-95455249D01*
X182175499Y-95455247D01*
X182163868Y-95396770D01*
X182163867Y-95396769D01*
X182119552Y-95330447D01*
X182053230Y-95286132D01*
X182053229Y-95286131D01*
X181994752Y-95274500D01*
X181994748Y-95274500D01*
X181105252Y-95274500D01*
X181105247Y-95274500D01*
X181046770Y-95286131D01*
X181046769Y-95286132D01*
X180980447Y-95330447D01*
X180936132Y-95396768D01*
X180932527Y-95405473D01*
X180888683Y-95459874D01*
X180822388Y-95481935D01*
X180754689Y-95464653D01*
X180730287Y-95445695D01*
X180698736Y-95414144D01*
X180698732Y-95414141D01*
X180596292Y-95345692D01*
X180596283Y-95345687D01*
X180482454Y-95298538D01*
X180482455Y-95298538D01*
X180482452Y-95298537D01*
X180482448Y-95298536D01*
X180482444Y-95298535D01*
X180361610Y-95274500D01*
X180361606Y-95274500D01*
X180238394Y-95274500D01*
X180238389Y-95274500D01*
X180117555Y-95298535D01*
X180117545Y-95298538D01*
X180003716Y-95345687D01*
X180003707Y-95345692D01*
X179896202Y-95417526D01*
X179895255Y-95416109D01*
X179881679Y-95421871D01*
X179403553Y-95899999D01*
X179300000Y-95899999D01*
X179300000Y-95850272D01*
X179261940Y-95758386D01*
X179191614Y-95688060D01*
X179099728Y-95650000D01*
X179000272Y-95650000D01*
X178908386Y-95688060D01*
X178838060Y-95758386D01*
X178800000Y-95850272D01*
X178646719Y-95850272D01*
X178241498Y-95445050D01*
X178230274Y-95461848D01*
X178160547Y-95630186D01*
X178160545Y-95630194D01*
X178125000Y-95808890D01*
X123285500Y-95808890D01*
X123285500Y-95085080D01*
X123305185Y-95018041D01*
X123357989Y-94972286D01*
X123362048Y-94970519D01*
X123379259Y-94963390D01*
X123457598Y-94930941D01*
X123629655Y-94815977D01*
X123775977Y-94669655D01*
X123890941Y-94497598D01*
X123970130Y-94306420D01*
X124010500Y-94103465D01*
X124010500Y-93896535D01*
X124010499Y-93896530D01*
X124449500Y-93896530D01*
X124449500Y-94103469D01*
X124489868Y-94306412D01*
X124489870Y-94306420D01*
X124569058Y-94497596D01*
X124684024Y-94669657D01*
X124830342Y-94815975D01*
X124830345Y-94815977D01*
X125002402Y-94930941D01*
X125193580Y-95010130D01*
X125396530Y-95050499D01*
X125396534Y-95050500D01*
X125396535Y-95050500D01*
X125603466Y-95050500D01*
X125603467Y-95050499D01*
X125806420Y-95010130D01*
X125997598Y-94930941D01*
X126169655Y-94815977D01*
X126315977Y-94669655D01*
X126430941Y-94497598D01*
X126510130Y-94306420D01*
X126550500Y-94103465D01*
X126550500Y-93896535D01*
X126550499Y-93896530D01*
X126989500Y-93896530D01*
X126989500Y-94103469D01*
X127029868Y-94306412D01*
X127029870Y-94306420D01*
X127109058Y-94497596D01*
X127224024Y-94669657D01*
X127370342Y-94815975D01*
X127370345Y-94815977D01*
X127542402Y-94930941D01*
X127733580Y-95010130D01*
X127936530Y-95050499D01*
X127936534Y-95050500D01*
X127936535Y-95050500D01*
X128143466Y-95050500D01*
X128143467Y-95050499D01*
X128346420Y-95010130D01*
X128537598Y-94930941D01*
X128709655Y-94815977D01*
X128855977Y-94669655D01*
X128970941Y-94497598D01*
X128991439Y-94448112D01*
X129035279Y-94393708D01*
X129101573Y-94371643D01*
X129169273Y-94388922D01*
X129216884Y-94440059D01*
X129230000Y-94495564D01*
X129230000Y-94897844D01*
X129236401Y-94957372D01*
X129236403Y-94957379D01*
X129286645Y-95092086D01*
X129286649Y-95092093D01*
X129372809Y-95207187D01*
X129372812Y-95207190D01*
X129487906Y-95293350D01*
X129487913Y-95293354D01*
X129622620Y-95343596D01*
X129622627Y-95343598D01*
X129682155Y-95349999D01*
X129682172Y-95350000D01*
X130330000Y-95350000D01*
X130330000Y-94433012D01*
X130387007Y-94465925D01*
X130514174Y-94500000D01*
X130645826Y-94500000D01*
X130772993Y-94465925D01*
X130830000Y-94433012D01*
X130830000Y-95350000D01*
X131477828Y-95350000D01*
X131477844Y-95349999D01*
X131537372Y-95343598D01*
X131537379Y-95343596D01*
X131672086Y-95293354D01*
X131672093Y-95293350D01*
X131787187Y-95207190D01*
X131787190Y-95207187D01*
X131873350Y-95092093D01*
X131873353Y-95092088D01*
X131873573Y-95091498D01*
X178595050Y-95091498D01*
X179050000Y-95546446D01*
X179050001Y-95546446D01*
X179504947Y-95091498D01*
X179488145Y-95080271D01*
X179319817Y-95010548D01*
X179319805Y-95010545D01*
X179141109Y-94975000D01*
X178958890Y-94975000D01*
X178780194Y-95010545D01*
X178780186Y-95010547D01*
X178611848Y-95080274D01*
X178595050Y-95091498D01*
X131873573Y-95091498D01*
X131923596Y-94957379D01*
X131923598Y-94957372D01*
X131929999Y-94897844D01*
X131930000Y-94897827D01*
X131930000Y-94250000D01*
X131013012Y-94250000D01*
X131045925Y-94192993D01*
X131080000Y-94065826D01*
X131080000Y-93934174D01*
X131045925Y-93807007D01*
X131013012Y-93750000D01*
X131930000Y-93750000D01*
X131930000Y-93102172D01*
X131929999Y-93102155D01*
X131923598Y-93042627D01*
X131923596Y-93042620D01*
X131873354Y-92907913D01*
X131873350Y-92907906D01*
X131787190Y-92792812D01*
X131787187Y-92792809D01*
X131672093Y-92706649D01*
X131672086Y-92706645D01*
X131537379Y-92656403D01*
X131537372Y-92656401D01*
X131477844Y-92650000D01*
X130830000Y-92650000D01*
X130830000Y-93566988D01*
X130772993Y-93534075D01*
X130645826Y-93500000D01*
X130514174Y-93500000D01*
X130387007Y-93534075D01*
X130330000Y-93566988D01*
X130330000Y-92650000D01*
X129682155Y-92650000D01*
X129622627Y-92656401D01*
X129622620Y-92656403D01*
X129487913Y-92706645D01*
X129487906Y-92706649D01*
X129372812Y-92792809D01*
X129372809Y-92792812D01*
X129286649Y-92907906D01*
X129286645Y-92907913D01*
X129236403Y-93042620D01*
X129236401Y-93042627D01*
X129230000Y-93102155D01*
X129230000Y-93504435D01*
X129210315Y-93571474D01*
X129157511Y-93617229D01*
X129088353Y-93627173D01*
X129024797Y-93598148D01*
X128991439Y-93551888D01*
X128984060Y-93534075D01*
X128970941Y-93502402D01*
X128855977Y-93330345D01*
X128855975Y-93330342D01*
X128709657Y-93184024D01*
X128538798Y-93069861D01*
X128537598Y-93069059D01*
X128515527Y-93059917D01*
X128346420Y-92989870D01*
X128346412Y-92989868D01*
X128143469Y-92949500D01*
X128143465Y-92949500D01*
X127936535Y-92949500D01*
X127936530Y-92949500D01*
X127733587Y-92989868D01*
X127733579Y-92989870D01*
X127542403Y-93069058D01*
X127370342Y-93184024D01*
X127224024Y-93330342D01*
X127109058Y-93502403D01*
X127029870Y-93693579D01*
X127029868Y-93693587D01*
X126989500Y-93896530D01*
X126550499Y-93896530D01*
X126510130Y-93693580D01*
X126430941Y-93502402D01*
X126315977Y-93330345D01*
X126315975Y-93330342D01*
X126169657Y-93184024D01*
X125998798Y-93069861D01*
X125997598Y-93069059D01*
X125975527Y-93059917D01*
X125806420Y-92989870D01*
X125806412Y-92989868D01*
X125603469Y-92949500D01*
X125603465Y-92949500D01*
X125396535Y-92949500D01*
X125396530Y-92949500D01*
X125193587Y-92989868D01*
X125193579Y-92989870D01*
X125002403Y-93069058D01*
X124830342Y-93184024D01*
X124684024Y-93330342D01*
X124569058Y-93502403D01*
X124489870Y-93693579D01*
X124489868Y-93693587D01*
X124449500Y-93896530D01*
X124010499Y-93896530D01*
X123970130Y-93693580D01*
X123890941Y-93502402D01*
X123775977Y-93330345D01*
X123775975Y-93330342D01*
X123629657Y-93184024D01*
X123458798Y-93069861D01*
X123457598Y-93069059D01*
X123435527Y-93059917D01*
X123266420Y-92989870D01*
X123266412Y-92989868D01*
X123063469Y-92949500D01*
X123063465Y-92949500D01*
X122856535Y-92949500D01*
X122856530Y-92949500D01*
X122653587Y-92989868D01*
X122653579Y-92989870D01*
X122462403Y-93069058D01*
X122290342Y-93184024D01*
X122144024Y-93330342D01*
X122029058Y-93502403D01*
X121949870Y-93693579D01*
X121949868Y-93693587D01*
X121909500Y-93896530D01*
X121470499Y-93896530D01*
X121430130Y-93693580D01*
X121350941Y-93502402D01*
X121235977Y-93330345D01*
X121235975Y-93330342D01*
X121089657Y-93184024D01*
X120918798Y-93069861D01*
X120917598Y-93069059D01*
X120895527Y-93059917D01*
X120726420Y-92989870D01*
X120726412Y-92989868D01*
X120523469Y-92949500D01*
X120523465Y-92949500D01*
X120316535Y-92949500D01*
X120316530Y-92949500D01*
X120113587Y-92989868D01*
X120113579Y-92989870D01*
X119922403Y-93069058D01*
X119750342Y-93184024D01*
X119604024Y-93330342D01*
X119489058Y-93502403D01*
X119409870Y-93693579D01*
X119409868Y-93693587D01*
X119369500Y-93896530D01*
X116833004Y-93896530D01*
X116833004Y-93692688D01*
X115916016Y-93692688D01*
X115948929Y-93635681D01*
X115983004Y-93508514D01*
X115983004Y-93376862D01*
X115948929Y-93249695D01*
X115916016Y-93192688D01*
X116833004Y-93192688D01*
X116833004Y-92544860D01*
X116833003Y-92544843D01*
X116826602Y-92485315D01*
X116826600Y-92485308D01*
X116776358Y-92350601D01*
X116776354Y-92350594D01*
X116690194Y-92235500D01*
X116690191Y-92235497D01*
X116575097Y-92149337D01*
X116575090Y-92149333D01*
X116440383Y-92099091D01*
X116440376Y-92099089D01*
X116380848Y-92092688D01*
X115733004Y-92092688D01*
X115733004Y-93009676D01*
X115675997Y-92976763D01*
X115548830Y-92942688D01*
X115417178Y-92942688D01*
X115290011Y-92976763D01*
X115233004Y-93009676D01*
X115233004Y-92092688D01*
X114585159Y-92092688D01*
X114525631Y-92099089D01*
X114525624Y-92099091D01*
X114390917Y-92149333D01*
X114390910Y-92149337D01*
X114275816Y-92235497D01*
X114275813Y-92235500D01*
X114189653Y-92350594D01*
X114189649Y-92350601D01*
X114139407Y-92485308D01*
X114139405Y-92485315D01*
X114133004Y-92544843D01*
X114133004Y-92947123D01*
X114113319Y-93014162D01*
X114060515Y-93059917D01*
X113991357Y-93069861D01*
X113927801Y-93040836D01*
X113894443Y-92994576D01*
X113887064Y-92976763D01*
X113873945Y-92945090D01*
X113758981Y-92773033D01*
X113758979Y-92773030D01*
X113612661Y-92626712D01*
X113490134Y-92544843D01*
X113440602Y-92511747D01*
X113249424Y-92432558D01*
X113249416Y-92432556D01*
X113046473Y-92392188D01*
X113046469Y-92392188D01*
X112839539Y-92392188D01*
X112839534Y-92392188D01*
X112636591Y-92432556D01*
X112636583Y-92432558D01*
X112445407Y-92511746D01*
X112273346Y-92626712D01*
X112127028Y-92773030D01*
X112012062Y-92945091D01*
X111932874Y-93136267D01*
X111932872Y-93136275D01*
X111892504Y-93339218D01*
X111453503Y-93339218D01*
X111413134Y-93136268D01*
X111333945Y-92945090D01*
X111218981Y-92773033D01*
X111218979Y-92773030D01*
X111072661Y-92626712D01*
X110950134Y-92544843D01*
X110900602Y-92511747D01*
X110709424Y-92432558D01*
X110709416Y-92432556D01*
X110506473Y-92392188D01*
X110506469Y-92392188D01*
X110299539Y-92392188D01*
X110299534Y-92392188D01*
X110096591Y-92432556D01*
X110096583Y-92432558D01*
X109905407Y-92511746D01*
X109733346Y-92626712D01*
X109587028Y-92773030D01*
X109472062Y-92945091D01*
X109392874Y-93136267D01*
X109392872Y-93136275D01*
X109352504Y-93339218D01*
X99991441Y-93339218D01*
X100090311Y-93184024D01*
X100096853Y-93173755D01*
X100103049Y-93164905D01*
X100335430Y-92862060D01*
X100342368Y-92853791D01*
X100600260Y-92572352D01*
X100607886Y-92564726D01*
X100889325Y-92306834D01*
X100897594Y-92299896D01*
X101200439Y-92067515D01*
X101209278Y-92061325D01*
X101531234Y-91856217D01*
X101540579Y-91850822D01*
X101879172Y-91674561D01*
X101888946Y-91670003D01*
X102241629Y-91523917D01*
X102251761Y-91520230D01*
X102615819Y-91405443D01*
X102626248Y-91402648D01*
X102998936Y-91320024D01*
X103009566Y-91318151D01*
X103388028Y-91268326D01*
X103398761Y-91267386D01*
X103782819Y-91250617D01*
X103787998Y-91250500D01*
X103851426Y-91250500D01*
X103851864Y-91250382D01*
X104663908Y-91248939D01*
X104680314Y-91250001D01*
G37*
%TD.AperFunction*%
%TD*%
M02*
