%TF.GenerationSoftware,KiCad,Pcbnew,10.0.0*%
%TF.CreationDate,2026-04-23T23:16:21+01:00*%
%TF.ProjectId,shori,73686f72-692e-46b6-9963-61645f706362,rev?*%
%TF.SameCoordinates,Original*%
%TF.FileFunction,Soldermask,Bot*%
%TF.FilePolarity,Negative*%
%FSLAX46Y46*%
G04 Gerber Fmt 4.6, Leading zero omitted, Abs format (unit mm)*
G04 Created by KiCad (PCBNEW 10.0.0) date 2026-04-23 23:16:21*
%MOMM*%
%LPD*%
G01*
G04 APERTURE LIST*
G04 Aperture macros list*
%AMRoundRect*
0 Rectangle with rounded corners*
0 $1 Rounding radius*
0 $2 $3 $4 $5 $6 $7 $8 $9 X,Y pos of 4 corners*
0 Add a 4 corners polygon primitive as box body*
4,1,4,$2,$3,$4,$5,$6,$7,$8,$9,$2,$3,0*
0 Add four circle primitives for the rounded corners*
1,1,$1+$1,$2,$3*
1,1,$1+$1,$4,$5*
1,1,$1+$1,$6,$7*
1,1,$1+$1,$8,$9*
0 Add four rect primitives between the rounded corners*
20,1,$1+$1,$2,$3,$4,$5,0*
20,1,$1+$1,$4,$5,$6,$7,0*
20,1,$1+$1,$6,$7,$8,$9,0*
20,1,$1+$1,$8,$9,$2,$3,0*%
G04 Aperture macros list end*
%ADD10C,0.501200*%
%ADD11C,0.010000*%
%ADD12RoundRect,0.250000X0.625000X-0.350000X0.625000X0.350000X-0.625000X0.350000X-0.625000X-0.350000X0*%
%ADD13O,1.750000X1.200000*%
%ADD14C,3.500000*%
%ADD15R,1.700000X1.700000*%
%ADD16C,1.700000*%
%ADD17R,1.350000X1.350000*%
%ADD18C,1.350000*%
%ADD19RoundRect,0.250000X-0.600000X-0.750000X0.600000X-0.750000X0.600000X0.750000X-0.600000X0.750000X0*%
%ADD20O,1.700000X2.000000*%
%ADD21C,1.066800*%
%ADD22RoundRect,0.155000X0.155000X-0.212500X0.155000X0.212500X-0.155000X0.212500X-0.155000X-0.212500X0*%
%ADD23RoundRect,0.237500X0.237500X-0.300000X0.237500X0.300000X-0.237500X0.300000X-0.237500X-0.300000X0*%
%ADD24RoundRect,0.150000X-0.512500X-0.150000X0.512500X-0.150000X0.512500X0.150000X-0.512500X0.150000X0*%
%ADD25RoundRect,0.150000X-0.150000X0.512500X-0.150000X-0.512500X0.150000X-0.512500X0.150000X0.512500X0*%
%ADD26RoundRect,0.162500X-0.162500X0.650000X-0.162500X-0.650000X0.162500X-0.650000X0.162500X0.650000X0*%
%ADD27RoundRect,0.155000X-0.212500X-0.155000X0.212500X-0.155000X0.212500X0.155000X-0.212500X0.155000X0*%
%ADD28C,1.000000*%
G04 APERTURE END LIST*
%TO.C,AUDIO IN*%
D10*
X170122942Y-129621254D02*
G75*
G02*
X169621742Y-129621254I-250600J0D01*
G01*
X169621742Y-129621254D02*
G75*
G02*
X170122942Y-129621254I250600J0D01*
G01*
X171372942Y-129621254D02*
G75*
G02*
X170871742Y-129621254I-250600J0D01*
G01*
X170871742Y-129621254D02*
G75*
G02*
X171372942Y-129621254I250600J0D01*
G01*
D11*
X169123542Y-130122454D02*
X168121142Y-130122454D01*
X168121142Y-129120054D01*
X169123542Y-129120054D01*
X169123542Y-130122454D01*
G36*
X169123542Y-130122454D02*
G01*
X168121142Y-130122454D01*
X168121142Y-129120054D01*
X169123542Y-129120054D01*
X169123542Y-130122454D01*
G37*
%TD*%
D12*
%TO.C,AUX IN*%
X193550000Y-114500000D03*
D13*
X193550000Y-112500000D03*
X193550000Y-110500000D03*
%TD*%
D14*
%TO.C,H2*%
X195000000Y-95974311D03*
%TD*%
D15*
%TO.C,PROGRAMMING*%
X121690000Y-94500000D03*
D16*
X124230000Y-94500000D03*
X126770000Y-94500000D03*
X129310000Y-94500000D03*
%TD*%
D17*
%TO.C,GND*%
X104000000Y-122250000D03*
D18*
X104000000Y-124250000D03*
%TD*%
D19*
%TO.C,POWER*%
X130658320Y-125849555D03*
D20*
X133158320Y-125849555D03*
%TD*%
D15*
%TO.C,P*%
X115483004Y-93442688D03*
D16*
X112943004Y-93442688D03*
X110403004Y-93442688D03*
%TD*%
D21*
%TO.C,AUDIO OUT*%
X183666236Y-95963903D03*
X182416236Y-95963903D03*
%TD*%
D14*
%TO.C,H4*%
X103785534Y-95750000D03*
%TD*%
D21*
%TO.C,UART*%
X116116524Y-130500000D03*
X117366524Y-130500000D03*
X118616524Y-130500000D03*
X119866524Y-130500000D03*
%TD*%
D14*
%TO.C,H3*%
X103785534Y-130500000D03*
%TD*%
%TO.C,H1*%
X195250000Y-130500000D03*
%TD*%
D22*
%TO.C,C48*%
X117323927Y-113691045D03*
X117323927Y-112556045D03*
%TD*%
D23*
%TO.C,C47*%
X115987025Y-113565828D03*
X115987025Y-111840828D03*
%TD*%
D24*
%TO.C,U10*%
X173966514Y-128566870D03*
X173966514Y-126666870D03*
X176241514Y-127616870D03*
%TD*%
D25*
%TO.C,U9*%
X164431787Y-128482484D03*
X166331787Y-128482484D03*
X165381787Y-130757484D03*
%TD*%
D23*
%TO.C,C17*%
X145557004Y-109056873D03*
X145557004Y-107331873D03*
%TD*%
D22*
%TO.C,C18*%
X147081004Y-109324829D03*
X147081004Y-108189829D03*
%TD*%
D26*
%TO.C,U6*%
X118690000Y-105414380D03*
X119960000Y-105414380D03*
X121230000Y-105414380D03*
X122500000Y-105414380D03*
X122500000Y-112589380D03*
X121230000Y-112589380D03*
X119960000Y-112589380D03*
X118690000Y-112589380D03*
%TD*%
D22*
%TO.C,C6*%
X114750000Y-108750000D03*
X114750000Y-107615000D03*
%TD*%
D23*
%TO.C,C50*%
X170500000Y-112612500D03*
X170500000Y-110887500D03*
%TD*%
D27*
%TO.C,C20*%
X157628346Y-111029120D03*
X158763346Y-111029120D03*
%TD*%
D28*
%TO.C,MCK*%
X138000000Y-106000000D03*
%TD*%
D27*
%TO.C,C19*%
X157357687Y-109950022D03*
X158492687Y-109950022D03*
%TD*%
M02*
