%TF.GenerationSoftware,KiCad,Pcbnew,10.0.0*%
%TF.CreationDate,2026-04-23T23:16:21+01:00*%
%TF.ProjectId,shori,73686f72-692e-46b6-9963-61645f706362,rev?*%
%TF.SameCoordinates,Original*%
%TF.FileFunction,Copper,L3,Inr*%
%TF.FilePolarity,Positive*%
%FSLAX46Y46*%
G04 Gerber Fmt 4.6, Leading zero omitted, Abs format (unit mm)*
G04 Created by KiCad (PCBNEW 10.0.0) date 2026-04-23 23:16:21*
%MOMM*%
%LPD*%
G01*
G04 APERTURE LIST*
G04 Aperture macros list*
%AMRoundRect*
0 Rectangle with rounded corners*
0 $1 Rounding radius*
0 $2 $3 $4 $5 $6 $7 $8 $9 X,Y pos of 4 corners*
0 Add a 4 corners polygon primitive as box body*
4,1,4,$2,$3,$4,$5,$6,$7,$8,$9,$2,$3,0*
0 Add four circle primitives for the rounded corners*
1,1,$1+$1,$2,$3*
1,1,$1+$1,$4,$5*
1,1,$1+$1,$6,$7*
1,1,$1+$1,$8,$9*
0 Add four rect primitives between the rounded corners*
20,1,$1+$1,$2,$3,$4,$5,0*
20,1,$1+$1,$4,$5,$6,$7,0*
20,1,$1+$1,$6,$7,$8,$9,0*
20,1,$1+$1,$8,$9,$2,$3,0*%
G04 Aperture macros list end*
%TA.AperFunction,ComponentPad*%
%ADD10RoundRect,0.250000X0.625000X-0.350000X0.625000X0.350000X-0.625000X0.350000X-0.625000X-0.350000X0*%
%TD*%
%TA.AperFunction,ComponentPad*%
%ADD11O,1.750000X1.200000*%
%TD*%
%TA.AperFunction,ComponentPad*%
%ADD12R,0.850000X0.850000*%
%TD*%
%TA.AperFunction,ComponentPad*%
%ADD13C,0.850000*%
%TD*%
%TA.AperFunction,ComponentPad*%
%ADD14R,1.700000X1.700000*%
%TD*%
%TA.AperFunction,ComponentPad*%
%ADD15C,1.700000*%
%TD*%
%TA.AperFunction,ComponentPad*%
%ADD16R,1.350000X1.350000*%
%TD*%
%TA.AperFunction,ComponentPad*%
%ADD17C,1.350000*%
%TD*%
%TA.AperFunction,ComponentPad*%
%ADD18RoundRect,0.250000X-0.600000X-0.750000X0.600000X-0.750000X0.600000X0.750000X-0.600000X0.750000X0*%
%TD*%
%TA.AperFunction,ComponentPad*%
%ADD19O,1.700000X2.000000*%
%TD*%
%TA.AperFunction,ComponentPad*%
%ADD20C,1.066800*%
%TD*%
%TA.AperFunction,ComponentPad*%
%ADD21C,0.600000*%
%TD*%
%TA.AperFunction,ViaPad*%
%ADD22C,0.600000*%
%TD*%
G04 APERTURE END LIST*
D10*
%TO.N,/JACKR*%
%TO.C,AUX IN*%
X193550000Y-114500000D03*
D11*
%TO.N,GND*%
X193550000Y-112500000D03*
%TO.N,/JACKT*%
X193550000Y-110500000D03*
%TD*%
D12*
%TO.N,/AUDIO_IN+*%
%TO.C,AUDIO IN*%
X168622342Y-129621254D03*
D13*
%TO.N,/AUDIO_IN-*%
X169872342Y-129621254D03*
%TO.N,GND*%
X171122342Y-129621254D03*
%TD*%
D14*
%TO.N,+3.3V*%
%TO.C,PROGRAMMING*%
X121690000Y-94500000D03*
D15*
%TO.N,/SWDIO*%
X124230000Y-94500000D03*
%TO.N,/SWCLK*%
X126770000Y-94500000D03*
%TO.N,GND*%
X129310000Y-94500000D03*
%TD*%
D16*
%TO.N,GND*%
%TO.C,GND*%
X104000000Y-122250000D03*
D17*
X104000000Y-124250000D03*
%TD*%
D18*
%TO.N,GND*%
%TO.C,POWER*%
X130658320Y-125849555D03*
D19*
%TO.N,+5V*%
X133158320Y-125849555D03*
%TD*%
D14*
%TO.N,GND*%
%TO.C,P*%
X115483004Y-93442688D03*
D15*
%TO.N,/BOOT0_R_TO_SW*%
X112943004Y-93442688D03*
%TO.N,+3.3V*%
X110403004Y-93442688D03*
%TD*%
D20*
%TO.N,/AUDIO_OUT*%
%TO.C,AUDIO OUT*%
X183666236Y-95963903D03*
%TO.N,GND*%
X182416236Y-95963903D03*
%TD*%
%TO.N,+3.3V*%
%TO.C,UART*%
X116116524Y-130500000D03*
%TO.N,/UART_RX*%
X117366524Y-130500000D03*
%TO.N,/UART_TX*%
X118616524Y-130500000D03*
%TO.N,GND*%
X119866524Y-130500000D03*
%TD*%
D21*
%TO.N,N/C*%
%TO.C,U5*%
X141505970Y-133000462D03*
X143005970Y-133000462D03*
X144505970Y-133000462D03*
X146005970Y-133000462D03*
X141505970Y-131400462D03*
X146005970Y-131400462D03*
X141505970Y-129800462D03*
X143005970Y-129800462D03*
X144505970Y-129800462D03*
X146005970Y-129800462D03*
%TD*%
D22*
%TO.N,+3.3V*%
X113317758Y-120250000D03*
%TO.N,Net-(C37-Pad1)*%
X159000000Y-129500000D03*
X163205759Y-122882720D03*
%TO.N,Net-(U3A-+)*%
X161502022Y-129499576D03*
X166250000Y-124750000D03*
%TO.N,GND*%
X134250000Y-92000000D03*
X125979203Y-124653019D03*
X149373742Y-122730443D03*
X174750000Y-108000000D03*
X112176452Y-101834550D03*
X122500000Y-114750000D03*
X183666236Y-94713903D03*
X156750000Y-92000000D03*
X127750000Y-92000000D03*
X199250000Y-96250000D03*
X199250000Y-109500000D03*
X167085652Y-118259031D03*
X125785657Y-103410707D03*
X158719381Y-104914855D03*
X142750000Y-134500000D03*
X99785534Y-129500000D03*
X189500000Y-99250000D03*
X103750000Y-107250000D03*
X144048648Y-110528505D03*
X114500000Y-127000000D03*
X175000000Y-92000000D03*
X138223212Y-121401678D03*
X133138408Y-111152544D03*
X110464263Y-105321355D03*
X107000000Y-92250000D03*
X168863805Y-113652718D03*
X119853067Y-97898957D03*
X161665140Y-109368351D03*
X117377487Y-131665599D03*
X155661519Y-131676961D03*
X162983047Y-113749556D03*
X163750000Y-106447156D03*
X104531569Y-110718905D03*
X118395648Y-126177111D03*
X153917296Y-109129142D03*
X152301792Y-107160177D03*
X129000000Y-119750000D03*
X137000000Y-134500000D03*
X167440698Y-108978749D03*
X113717034Y-107690279D03*
X148000000Y-112500000D03*
X171748584Y-112629873D03*
X106000000Y-134500000D03*
X163714164Y-111000000D03*
X177717789Y-117036199D03*
X174821961Y-115207314D03*
X118597723Y-131683811D03*
X160000000Y-111000000D03*
X188750000Y-92000000D03*
X147500000Y-92000000D03*
X169868018Y-130750521D03*
X168601566Y-130750000D03*
X108250000Y-125250000D03*
X136250000Y-119500000D03*
X131340606Y-111612447D03*
X140500000Y-92000000D03*
X156250000Y-134500000D03*
X177899035Y-127631559D03*
X145500000Y-105000000D03*
X126442347Y-120120065D03*
X113000000Y-117500000D03*
X110386942Y-117310033D03*
X131759087Y-102942058D03*
X173750000Y-134500000D03*
X148500000Y-134500000D03*
X195631070Y-103151415D03*
X159594834Y-102305000D03*
X135437922Y-108518555D03*
X99785534Y-103000000D03*
X165383879Y-132312663D03*
X199250000Y-122750000D03*
X114892560Y-100107441D03*
X108159523Y-111878850D03*
X169188652Y-124813464D03*
X152301792Y-120330089D03*
X167238228Y-115580470D03*
X102256109Y-113519371D03*
X154964723Y-103755291D03*
X107750000Y-102500000D03*
X133000000Y-119500000D03*
X199250000Y-129000000D03*
X137762288Y-104543008D03*
X154731946Y-100054253D03*
X182609542Y-102156183D03*
X112750000Y-134500000D03*
X194850536Y-109699100D03*
X166098388Y-103499918D03*
X114000000Y-130500000D03*
X165458172Y-113664791D03*
X150673378Y-108935264D03*
X184750000Y-98250000D03*
X169000000Y-92000000D03*
X156750000Y-117000000D03*
X99785534Y-115750000D03*
X165809389Y-120988094D03*
X141000000Y-112000000D03*
X108491988Y-118603758D03*
X162750000Y-134500000D03*
X118460662Y-114006631D03*
X107954826Y-109476512D03*
X170500000Y-115461925D03*
X168250000Y-134500000D03*
X116707451Y-118856379D03*
X186361813Y-119886448D03*
X163750000Y-131500000D03*
X152301792Y-111550148D03*
X164763103Y-115733047D03*
X183750000Y-121250000D03*
X199250000Y-115750000D03*
X99785534Y-96250000D03*
X152301792Y-115940118D03*
X163500000Y-92000000D03*
X189000000Y-103000000D03*
X152301792Y-98276624D03*
X111733025Y-99481677D03*
X171750000Y-102750000D03*
X152301792Y-129110030D03*
X167563464Y-124780297D03*
X192055240Y-114410273D03*
X164178435Y-108165394D03*
X160000000Y-97500000D03*
X99785534Y-109500000D03*
X152301792Y-94000000D03*
X182500000Y-109250000D03*
X122000000Y-107250000D03*
X152301792Y-124720059D03*
X184799447Y-102156183D03*
X179500000Y-134500000D03*
X142505970Y-122953964D03*
X182500000Y-98250000D03*
X194881944Y-115415323D03*
X121000000Y-92000000D03*
X152301792Y-102770207D03*
X199250000Y-103000000D03*
X191976720Y-110735558D03*
X133155919Y-124081755D03*
X99785534Y-122750000D03*
X171750000Y-97500000D03*
X176500000Y-121250000D03*
X117106769Y-111224777D03*
X114410647Y-122553635D03*
X152301792Y-133500000D03*
X179500000Y-107500000D03*
X192750000Y-134500000D03*
X123000000Y-134500000D03*
X160789811Y-104521739D03*
%TO.N,+3.3V*%
X114500000Y-113701037D03*
X114500000Y-109725592D03*
X115750000Y-108250000D03*
X148171111Y-109334334D03*
X113711322Y-108684068D03*
X121750000Y-120250000D03*
%TO.N,/I2C_SDA*%
X124802278Y-115697723D03*
X146033984Y-113052826D03*
%TO.N,/QSPI_IO2*%
X114000000Y-104500000D03*
%TO.N,/BOOT0_R_TO_SW*%
X115636492Y-99148548D03*
%TO.N,Net-(U3A--)*%
X160232022Y-129502340D03*
X164500000Y-122873517D03*
%TO.N,/SHUNT_RES_AINM*%
X172354430Y-126656172D03*
%TO.N,/SUMMED_OUT*%
X184750000Y-112000000D03*
X183750000Y-114000000D03*
%TO.N,/I2C_SCL*%
X145477796Y-112477796D03*
X124000000Y-115500000D03*
%TO.N,/VCOM*%
X156576945Y-111107274D03*
X158000000Y-112000000D03*
%TO.N,/QSPI_IO3*%
X113582027Y-115060639D03*
%TO.N,/I2S_MCLK*%
X143500000Y-105925000D03*
X131500000Y-109500000D03*
%TO.N,/CODEC_SDIN*%
X143248615Y-108500000D03*
X131500000Y-113500000D03*
%TO.N,/NRST*%
X115744590Y-110441124D03*
X113629715Y-110379715D03*
%TO.N,+5VA*%
X155000000Y-114500000D03*
X170000000Y-106000000D03*
X172958358Y-114250000D03*
%TO.N,Net-(U3B-+)*%
X167000000Y-125500000D03*
X170584301Y-124755044D03*
%TO.N,/SWDIO*%
X125848606Y-104957779D03*
%TO.N,/SWCLK*%
X126284141Y-100215859D03*
%TO.N,/QSPI_CLK*%
X119204070Y-115746170D03*
%TO.N,/QSPI_IO0*%
X125500000Y-108500000D03*
%TO.N,/QSPI_IO1*%
X120568986Y-103931014D03*
%TO.N,/QSPI_NCS*%
X118000000Y-103500000D03*
%TO.N,/SHUNT_RES_AINP*%
X166500000Y-127250000D03*
%TD*%
%TA.AperFunction,Conductor*%
%TO.N,GND*%
G36*
X104680314Y-91250001D02*
G01*
X104684103Y-91250500D01*
X194934108Y-91250500D01*
X194997308Y-91250500D01*
X195002691Y-91250616D01*
X195406693Y-91268175D01*
X195417377Y-91269105D01*
X195815680Y-91321300D01*
X195826274Y-91323160D01*
X196218522Y-91409709D01*
X196228890Y-91412474D01*
X196612173Y-91532734D01*
X196622274Y-91536392D01*
X196993658Y-91689445D01*
X197003407Y-91693966D01*
X197132337Y-91760724D01*
X197360119Y-91878666D01*
X197369458Y-91884028D01*
X197698868Y-92092688D01*
X197708778Y-92098965D01*
X197717613Y-92105114D01*
X197888587Y-92235497D01*
X198037008Y-92348680D01*
X198045279Y-92355575D01*
X198342345Y-92625940D01*
X198349986Y-92633527D01*
X198622462Y-92928630D01*
X198629417Y-92936851D01*
X198875277Y-93254497D01*
X198881492Y-93263291D01*
X199098857Y-93601058D01*
X199104286Y-93610358D01*
X199291532Y-93965718D01*
X199296133Y-93975453D01*
X199451843Y-94345717D01*
X199455582Y-94355815D01*
X199578579Y-94738190D01*
X199581428Y-94748574D01*
X199670786Y-95140167D01*
X199672724Y-95150760D01*
X199727773Y-95548649D01*
X199728784Y-95559370D01*
X199749241Y-95963205D01*
X199749397Y-95968585D01*
X199749497Y-95982478D01*
X199749500Y-95983371D01*
X199749500Y-130497293D01*
X199749382Y-130502702D01*
X199732614Y-130886751D01*
X199731671Y-130897527D01*
X199681850Y-131275955D01*
X199679972Y-131286609D01*
X199597353Y-131659275D01*
X199594553Y-131669723D01*
X199479775Y-132033755D01*
X199476075Y-132043921D01*
X199330002Y-132396572D01*
X199325430Y-132406376D01*
X199149183Y-132744942D01*
X199143775Y-132754310D01*
X198938681Y-133076244D01*
X198932476Y-133085105D01*
X198700110Y-133387930D01*
X198693156Y-133396217D01*
X198435284Y-133677635D01*
X198427635Y-133685284D01*
X198146217Y-133943156D01*
X198137930Y-133950110D01*
X197835105Y-134182476D01*
X197826244Y-134188681D01*
X197504310Y-134393775D01*
X197494942Y-134399183D01*
X197156376Y-134575430D01*
X197146572Y-134580002D01*
X196793921Y-134726075D01*
X196783755Y-134729775D01*
X196419723Y-134844553D01*
X196409275Y-134847353D01*
X196036609Y-134929972D01*
X196025955Y-134931850D01*
X195647527Y-134981671D01*
X195636751Y-134982614D01*
X195634713Y-134982703D01*
X195253024Y-134999368D01*
X195252703Y-134999382D01*
X195247294Y-134999500D01*
X103288406Y-134999500D01*
X103282679Y-134999368D01*
X102922229Y-134982703D01*
X102910825Y-134981646D01*
X102556302Y-134932192D01*
X102545043Y-134930087D01*
X102196602Y-134848135D01*
X102185586Y-134845001D01*
X101846178Y-134731243D01*
X101835498Y-134727105D01*
X101776224Y-134700933D01*
X101508045Y-134582520D01*
X101497802Y-134577420D01*
X101395850Y-134520633D01*
X101185080Y-134403235D01*
X101175342Y-134397206D01*
X100880020Y-134194906D01*
X100870880Y-134188003D01*
X100595498Y-133959329D01*
X100587034Y-133951613D01*
X100333920Y-133698499D01*
X100326204Y-133690035D01*
X100097530Y-133414653D01*
X100090627Y-133405513D01*
X100087509Y-133400962D01*
X99888327Y-133110191D01*
X99882298Y-133100453D01*
X99863304Y-133066352D01*
X99789902Y-132934570D01*
X141005470Y-132934570D01*
X141005470Y-133066353D01*
X141039578Y-133193649D01*
X141072524Y-133250712D01*
X141105470Y-133307776D01*
X141198656Y-133400962D01*
X141312784Y-133466854D01*
X141440078Y-133500962D01*
X141440080Y-133500962D01*
X141571860Y-133500962D01*
X141571862Y-133500962D01*
X141699156Y-133466854D01*
X141813284Y-133400962D01*
X141906470Y-133307776D01*
X141972362Y-133193648D01*
X142006470Y-133066354D01*
X142006470Y-132934570D01*
X142505470Y-132934570D01*
X142505470Y-133066353D01*
X142539578Y-133193649D01*
X142572524Y-133250712D01*
X142605470Y-133307776D01*
X142698656Y-133400962D01*
X142812784Y-133466854D01*
X142940078Y-133500962D01*
X142940080Y-133500962D01*
X143071860Y-133500962D01*
X143071862Y-133500962D01*
X143199156Y-133466854D01*
X143313284Y-133400962D01*
X143406470Y-133307776D01*
X143472362Y-133193648D01*
X143506470Y-133066354D01*
X143506470Y-132934570D01*
X144005470Y-132934570D01*
X144005470Y-133066353D01*
X144039578Y-133193649D01*
X144072524Y-133250712D01*
X144105470Y-133307776D01*
X144198656Y-133400962D01*
X144312784Y-133466854D01*
X144440078Y-133500962D01*
X144440080Y-133500962D01*
X144571860Y-133500962D01*
X144571862Y-133500962D01*
X144699156Y-133466854D01*
X144813284Y-133400962D01*
X144906470Y-133307776D01*
X144972362Y-133193648D01*
X145006470Y-133066354D01*
X145006470Y-132934570D01*
X145505470Y-132934570D01*
X145505470Y-133066353D01*
X145539578Y-133193649D01*
X145572524Y-133250712D01*
X145605470Y-133307776D01*
X145698656Y-133400962D01*
X145812784Y-133466854D01*
X145940078Y-133500962D01*
X145940080Y-133500962D01*
X146071860Y-133500962D01*
X146071862Y-133500962D01*
X146199156Y-133466854D01*
X146313284Y-133400962D01*
X146406470Y-133307776D01*
X146472362Y-133193648D01*
X146506470Y-133066354D01*
X146506470Y-132934570D01*
X146472362Y-132807276D01*
X146406470Y-132693148D01*
X146313284Y-132599962D01*
X146256220Y-132567016D01*
X146199157Y-132534070D01*
X146135509Y-132517016D01*
X146071862Y-132499962D01*
X145940078Y-132499962D01*
X145812782Y-132534070D01*
X145698656Y-132599962D01*
X145698653Y-132599964D01*
X145605472Y-132693145D01*
X145605470Y-132693148D01*
X145539578Y-132807274D01*
X145505470Y-132934570D01*
X145006470Y-132934570D01*
X144972362Y-132807276D01*
X144906470Y-132693148D01*
X144813284Y-132599962D01*
X144756220Y-132567016D01*
X144699157Y-132534070D01*
X144635509Y-132517016D01*
X144571862Y-132499962D01*
X144440078Y-132499962D01*
X144312782Y-132534070D01*
X144198656Y-132599962D01*
X144198653Y-132599964D01*
X144105472Y-132693145D01*
X144105470Y-132693148D01*
X144039578Y-132807274D01*
X144005470Y-132934570D01*
X143506470Y-132934570D01*
X143472362Y-132807276D01*
X143406470Y-132693148D01*
X143313284Y-132599962D01*
X143256220Y-132567016D01*
X143199157Y-132534070D01*
X143135509Y-132517016D01*
X143071862Y-132499962D01*
X142940078Y-132499962D01*
X142812782Y-132534070D01*
X142698656Y-132599962D01*
X142698653Y-132599964D01*
X142605472Y-132693145D01*
X142605470Y-132693148D01*
X142539578Y-132807274D01*
X142505470Y-132934570D01*
X142006470Y-132934570D01*
X141972362Y-132807276D01*
X141906470Y-132693148D01*
X141813284Y-132599962D01*
X141756220Y-132567016D01*
X141699157Y-132534070D01*
X141635509Y-132517016D01*
X141571862Y-132499962D01*
X141440078Y-132499962D01*
X141312782Y-132534070D01*
X141198656Y-132599962D01*
X141198653Y-132599964D01*
X141105472Y-132693145D01*
X141105470Y-132693148D01*
X141039578Y-132807274D01*
X141005470Y-132934570D01*
X99789902Y-132934570D01*
X99708108Y-132787723D01*
X99703016Y-132777496D01*
X99558423Y-132450022D01*
X99554295Y-132439368D01*
X99440528Y-132099934D01*
X99437401Y-132088944D01*
X99355444Y-131740482D01*
X99353341Y-131729231D01*
X99350348Y-131707778D01*
X99303886Y-131374700D01*
X99302830Y-131363304D01*
X99299284Y-131286609D01*
X99286166Y-131002855D01*
X99286034Y-130997128D01*
X99286034Y-130368872D01*
X101785034Y-130368872D01*
X101785034Y-130631127D01*
X101811657Y-130833339D01*
X101819264Y-130891116D01*
X101873398Y-131093148D01*
X101887136Y-131144418D01*
X101887139Y-131144428D01*
X101987487Y-131386690D01*
X101987492Y-131386700D01*
X102118609Y-131613803D01*
X102278252Y-131821851D01*
X102278260Y-131821860D01*
X102463674Y-132007274D01*
X102463682Y-132007281D01*
X102671730Y-132166924D01*
X102898833Y-132298041D01*
X102898843Y-132298046D01*
X103141105Y-132398394D01*
X103141115Y-132398398D01*
X103394418Y-132466270D01*
X103642722Y-132498960D01*
X103650327Y-132499962D01*
X103654414Y-132500500D01*
X103654421Y-132500500D01*
X103916647Y-132500500D01*
X103916654Y-132500500D01*
X104176650Y-132466270D01*
X104429953Y-132398398D01*
X104672231Y-132298043D01*
X104899337Y-132166924D01*
X105107385Y-132007282D01*
X105107389Y-132007277D01*
X105107394Y-132007274D01*
X105292808Y-131821860D01*
X105292811Y-131821855D01*
X105292816Y-131821851D01*
X105452458Y-131613803D01*
X105583577Y-131386697D01*
X105583595Y-131386653D01*
X119333423Y-131386653D01*
X119377019Y-131415783D01*
X119377029Y-131415788D01*
X119565091Y-131493686D01*
X119565099Y-131493688D01*
X119764739Y-131533399D01*
X119764742Y-131533400D01*
X119968306Y-131533400D01*
X119968308Y-131533399D01*
X120167948Y-131493688D01*
X120167956Y-131493686D01*
X120356020Y-131415787D01*
X120356026Y-131415784D01*
X120399623Y-131386653D01*
X120347540Y-131334570D01*
X141005470Y-131334570D01*
X141005470Y-131466353D01*
X141039578Y-131593649D01*
X141072524Y-131650712D01*
X141105470Y-131707776D01*
X141198656Y-131800962D01*
X141312784Y-131866854D01*
X141440078Y-131900962D01*
X141440080Y-131900962D01*
X141571860Y-131900962D01*
X141571862Y-131900962D01*
X141699156Y-131866854D01*
X141813284Y-131800962D01*
X141906470Y-131707776D01*
X141972362Y-131593648D01*
X142006470Y-131466354D01*
X142006470Y-131334570D01*
X145505470Y-131334570D01*
X145505470Y-131466353D01*
X145539578Y-131593649D01*
X145572524Y-131650712D01*
X145605470Y-131707776D01*
X145698656Y-131800962D01*
X145812784Y-131866854D01*
X145940078Y-131900962D01*
X145940080Y-131900962D01*
X146071860Y-131900962D01*
X146071862Y-131900962D01*
X146199156Y-131866854D01*
X146313284Y-131800962D01*
X146406470Y-131707776D01*
X146472362Y-131593648D01*
X146506470Y-131466354D01*
X146506470Y-131334570D01*
X146472362Y-131207276D01*
X146471450Y-131205697D01*
X146439510Y-131150375D01*
X146406470Y-131093148D01*
X146313284Y-130999962D01*
X146256220Y-130967016D01*
X146199157Y-130934070D01*
X146135509Y-130917016D01*
X146071862Y-130899962D01*
X145940078Y-130899962D01*
X145812782Y-130934070D01*
X145698656Y-130999962D01*
X145698653Y-130999964D01*
X145605472Y-131093145D01*
X145605470Y-131093148D01*
X145539578Y-131207274D01*
X145505470Y-131334570D01*
X142006470Y-131334570D01*
X141972362Y-131207276D01*
X141971450Y-131205697D01*
X141939510Y-131150375D01*
X141906470Y-131093148D01*
X141813284Y-130999962D01*
X141756220Y-130967016D01*
X141699157Y-130934070D01*
X141635509Y-130917016D01*
X141571862Y-130899962D01*
X141440078Y-130899962D01*
X141312782Y-130934070D01*
X141198656Y-130999962D01*
X141198653Y-130999964D01*
X141105472Y-131093145D01*
X141105470Y-131093148D01*
X141039578Y-131207274D01*
X141005470Y-131334570D01*
X120347540Y-131334570D01*
X119866525Y-130853554D01*
X119866524Y-130853554D01*
X119333423Y-131386653D01*
X105583595Y-131386653D01*
X105683932Y-131144419D01*
X105751804Y-130891116D01*
X105786034Y-130631120D01*
X105786034Y-130427712D01*
X115382624Y-130427712D01*
X115382624Y-130572287D01*
X115410825Y-130714063D01*
X115410827Y-130714071D01*
X115466148Y-130847629D01*
X115546466Y-130967833D01*
X115546469Y-130967837D01*
X115648686Y-131070054D01*
X115648690Y-131070057D01*
X115768892Y-131150374D01*
X115902453Y-131205697D01*
X116044236Y-131233899D01*
X116044240Y-131233900D01*
X116044241Y-131233900D01*
X116188808Y-131233900D01*
X116188809Y-131233899D01*
X116330595Y-131205697D01*
X116464156Y-131150374D01*
X116584358Y-131070057D01*
X116584361Y-131070054D01*
X116653843Y-131000573D01*
X116715166Y-130967088D01*
X116784858Y-130972072D01*
X116829205Y-131000573D01*
X116898686Y-131070054D01*
X116898690Y-131070057D01*
X117018892Y-131150374D01*
X117152453Y-131205697D01*
X117294236Y-131233899D01*
X117294240Y-131233900D01*
X117294241Y-131233900D01*
X117438808Y-131233900D01*
X117438809Y-131233899D01*
X117580595Y-131205697D01*
X117714156Y-131150374D01*
X117834358Y-131070057D01*
X117834361Y-131070054D01*
X117903843Y-131000573D01*
X117965166Y-130967088D01*
X118034858Y-130972072D01*
X118079205Y-131000573D01*
X118148686Y-131070054D01*
X118148690Y-131070057D01*
X118268892Y-131150374D01*
X118402453Y-131205697D01*
X118544236Y-131233899D01*
X118544240Y-131233900D01*
X118544241Y-131233900D01*
X118688808Y-131233900D01*
X118688809Y-131233899D01*
X118709060Y-131229871D01*
X118764598Y-131218825D01*
X118796711Y-131212436D01*
X118830595Y-131205697D01*
X118964156Y-131150374D01*
X119084358Y-131070057D01*
X119186581Y-130967834D01*
X119266898Y-130847632D01*
X119322221Y-130714071D01*
X119322223Y-130714059D01*
X119323357Y-130710324D01*
X119354340Y-130658627D01*
X119512969Y-130499999D01*
X119476186Y-130463216D01*
X119587124Y-130463216D01*
X119587124Y-130536784D01*
X119606165Y-130607844D01*
X119642948Y-130671556D01*
X119694968Y-130723576D01*
X119758680Y-130760359D01*
X119829740Y-130779400D01*
X119903308Y-130779400D01*
X119974368Y-130760359D01*
X120038080Y-130723576D01*
X120090100Y-130671556D01*
X120126883Y-130607844D01*
X120145924Y-130536784D01*
X120145924Y-130499999D01*
X120220078Y-130499999D01*
X120220078Y-130500000D01*
X120753177Y-131033099D01*
X120782308Y-130989502D01*
X120782311Y-130989496D01*
X120860210Y-130801432D01*
X120860212Y-130801424D01*
X120899923Y-130601784D01*
X120899924Y-130601782D01*
X120899924Y-130429754D01*
X170667392Y-130429754D01*
X170684191Y-130440979D01*
X170684197Y-130440982D01*
X170852524Y-130510705D01*
X170852536Y-130510708D01*
X171031232Y-130546253D01*
X171031236Y-130546254D01*
X171213448Y-130546254D01*
X171213451Y-130546253D01*
X171392147Y-130510708D01*
X171392155Y-130510706D01*
X171560493Y-130440978D01*
X171560496Y-130440977D01*
X171577289Y-130429754D01*
X171577290Y-130429754D01*
X171516408Y-130368872D01*
X193249500Y-130368872D01*
X193249500Y-130631127D01*
X193276123Y-130833339D01*
X193283730Y-130891116D01*
X193337864Y-131093148D01*
X193351602Y-131144418D01*
X193351605Y-131144428D01*
X193451953Y-131386690D01*
X193451958Y-131386700D01*
X193583075Y-131613803D01*
X193742718Y-131821851D01*
X193742726Y-131821860D01*
X193928140Y-132007274D01*
X193928148Y-132007281D01*
X194136196Y-132166924D01*
X194363299Y-132298041D01*
X194363309Y-132298046D01*
X194605571Y-132398394D01*
X194605581Y-132398398D01*
X194858884Y-132466270D01*
X195107188Y-132498960D01*
X195114793Y-132499962D01*
X195118880Y-132500500D01*
X195118887Y-132500500D01*
X195381113Y-132500500D01*
X195381120Y-132500500D01*
X195641116Y-132466270D01*
X195894419Y-132398398D01*
X196136697Y-132298043D01*
X196363803Y-132166924D01*
X196571851Y-132007282D01*
X196571855Y-132007277D01*
X196571860Y-132007274D01*
X196757274Y-131821860D01*
X196757277Y-131821855D01*
X196757282Y-131821851D01*
X196916924Y-131613803D01*
X197048043Y-131386697D01*
X197148398Y-131144419D01*
X197216270Y-130891116D01*
X197250500Y-130631120D01*
X197250500Y-130368880D01*
X197216270Y-130108884D01*
X197148398Y-129855581D01*
X197148394Y-129855571D01*
X197048046Y-129613309D01*
X197048041Y-129613299D01*
X196916924Y-129386196D01*
X196757281Y-129178148D01*
X196757274Y-129178140D01*
X196571860Y-128992726D01*
X196571851Y-128992718D01*
X196363803Y-128833075D01*
X196136700Y-128701958D01*
X196136690Y-128701953D01*
X195894428Y-128601605D01*
X195894421Y-128601603D01*
X195894419Y-128601602D01*
X195641116Y-128533730D01*
X195583339Y-128526123D01*
X195381127Y-128499500D01*
X195381120Y-128499500D01*
X195118880Y-128499500D01*
X195118872Y-128499500D01*
X194887772Y-128529926D01*
X194858884Y-128533730D01*
X194605581Y-128601602D01*
X194605571Y-128601605D01*
X194363309Y-128701953D01*
X194363299Y-128701958D01*
X194136196Y-128833075D01*
X193928148Y-128992718D01*
X193742718Y-129178148D01*
X193583075Y-129386196D01*
X193451958Y-129613299D01*
X193451953Y-129613309D01*
X193351605Y-129855571D01*
X193351602Y-129855581D01*
X193284027Y-130107778D01*
X193283730Y-130108885D01*
X193249500Y-130368872D01*
X171516408Y-130368872D01*
X171122343Y-129974807D01*
X171122342Y-129974807D01*
X170667392Y-130429754D01*
X120899924Y-130429754D01*
X120899924Y-130398218D01*
X120899923Y-130398215D01*
X120860212Y-130198575D01*
X120860210Y-130198567D01*
X120782312Y-130010505D01*
X120782307Y-130010495D01*
X120753177Y-129966899D01*
X120220078Y-130499999D01*
X120145924Y-130499999D01*
X120145924Y-130463216D01*
X120126883Y-130392156D01*
X120090100Y-130328444D01*
X120038080Y-130276424D01*
X119974368Y-130239641D01*
X119903308Y-130220600D01*
X119829740Y-130220600D01*
X119758680Y-130239641D01*
X119694968Y-130276424D01*
X119642948Y-130328444D01*
X119606165Y-130392156D01*
X119587124Y-130463216D01*
X119476186Y-130463216D01*
X119354340Y-130341370D01*
X119323359Y-130289681D01*
X119322222Y-130285936D01*
X119322221Y-130285929D01*
X119266898Y-130152368D01*
X119186581Y-130032166D01*
X119186578Y-130032162D01*
X119084361Y-129929945D01*
X119084357Y-129929942D01*
X118964153Y-129849624D01*
X118830595Y-129794303D01*
X118830587Y-129794301D01*
X118764593Y-129781174D01*
X118688811Y-129766100D01*
X118688807Y-129766100D01*
X118544241Y-129766100D01*
X118544236Y-129766100D01*
X118402460Y-129794301D01*
X118402452Y-129794303D01*
X118268894Y-129849624D01*
X118148690Y-129929942D01*
X118148686Y-129929945D01*
X118079205Y-129999427D01*
X118017882Y-130032912D01*
X117948190Y-130027928D01*
X117903843Y-129999427D01*
X117834361Y-129929945D01*
X117834357Y-129929942D01*
X117714153Y-129849624D01*
X117580595Y-129794303D01*
X117580587Y-129794301D01*
X117438811Y-129766100D01*
X117438807Y-129766100D01*
X117294241Y-129766100D01*
X117294236Y-129766100D01*
X117152460Y-129794301D01*
X117152452Y-129794303D01*
X117018894Y-129849624D01*
X116898690Y-129929942D01*
X116898686Y-129929945D01*
X116829205Y-129999427D01*
X116767882Y-130032912D01*
X116698190Y-130027928D01*
X116653843Y-129999427D01*
X116584361Y-129929945D01*
X116584357Y-129929942D01*
X116464153Y-129849624D01*
X116330595Y-129794303D01*
X116330587Y-129794301D01*
X116188811Y-129766100D01*
X116188807Y-129766100D01*
X116044241Y-129766100D01*
X116044236Y-129766100D01*
X115902460Y-129794301D01*
X115902452Y-129794303D01*
X115768894Y-129849624D01*
X115648690Y-129929942D01*
X115648686Y-129929945D01*
X115546469Y-130032162D01*
X115546466Y-130032166D01*
X115466148Y-130152370D01*
X115410827Y-130285928D01*
X115410825Y-130285936D01*
X115382624Y-130427712D01*
X105786034Y-130427712D01*
X105786034Y-130368880D01*
X105751804Y-130108884D01*
X105683932Y-129855581D01*
X105683928Y-129855571D01*
X105583595Y-129613346D01*
X119333423Y-129613346D01*
X119866524Y-130146446D01*
X119866525Y-130146446D01*
X120278400Y-129734570D01*
X141005470Y-129734570D01*
X141005470Y-129866354D01*
X141015246Y-129902839D01*
X141039578Y-129993649D01*
X141061814Y-130032162D01*
X141105470Y-130107776D01*
X141198656Y-130200962D01*
X141312784Y-130266854D01*
X141440078Y-130300962D01*
X141440080Y-130300962D01*
X141571860Y-130300962D01*
X141571862Y-130300962D01*
X141699156Y-130266854D01*
X141813284Y-130200962D01*
X141906470Y-130107776D01*
X141972362Y-129993648D01*
X142006470Y-129866354D01*
X142006470Y-129734570D01*
X142505470Y-129734570D01*
X142505470Y-129866354D01*
X142515246Y-129902839D01*
X142539578Y-129993649D01*
X142561814Y-130032162D01*
X142605470Y-130107776D01*
X142698656Y-130200962D01*
X142812784Y-130266854D01*
X142940078Y-130300962D01*
X142940080Y-130300962D01*
X143071860Y-130300962D01*
X143071862Y-130300962D01*
X143199156Y-130266854D01*
X143313284Y-130200962D01*
X143406470Y-130107776D01*
X143472362Y-129993648D01*
X143506470Y-129866354D01*
X143506470Y-129734570D01*
X144005470Y-129734570D01*
X144005470Y-129866354D01*
X144015246Y-129902839D01*
X144039578Y-129993649D01*
X144061814Y-130032162D01*
X144105470Y-130107776D01*
X144198656Y-130200962D01*
X144312784Y-130266854D01*
X144440078Y-130300962D01*
X144440080Y-130300962D01*
X144571860Y-130300962D01*
X144571862Y-130300962D01*
X144699156Y-130266854D01*
X144813284Y-130200962D01*
X144906470Y-130107776D01*
X144972362Y-129993648D01*
X145006470Y-129866354D01*
X145006470Y-129734570D01*
X145505470Y-129734570D01*
X145505470Y-129866354D01*
X145515246Y-129902839D01*
X145539578Y-129993649D01*
X145561814Y-130032162D01*
X145605470Y-130107776D01*
X145698656Y-130200962D01*
X145812784Y-130266854D01*
X145940078Y-130300962D01*
X145940080Y-130300962D01*
X146071860Y-130300962D01*
X146071862Y-130300962D01*
X146199156Y-130266854D01*
X146313284Y-130200962D01*
X146406470Y-130107776D01*
X146472362Y-129993648D01*
X146506470Y-129866354D01*
X146506470Y-129734570D01*
X146472362Y-129607276D01*
X146406470Y-129493148D01*
X146347430Y-129434108D01*
X158499500Y-129434108D01*
X158499500Y-129565892D01*
X158500127Y-129568231D01*
X158533608Y-129693187D01*
X158557501Y-129734570D01*
X158599500Y-129807314D01*
X158692686Y-129900500D01*
X158791521Y-129957563D01*
X158806079Y-129965968D01*
X158806814Y-129966392D01*
X158934108Y-130000500D01*
X158934110Y-130000500D01*
X159065890Y-130000500D01*
X159065892Y-130000500D01*
X159193186Y-129966392D01*
X159307314Y-129900500D01*
X159400500Y-129807314D01*
X159466392Y-129693186D01*
X159500500Y-129565892D01*
X159500500Y-129436448D01*
X159731522Y-129436448D01*
X159731522Y-129568232D01*
X159765630Y-129695526D01*
X159831522Y-129809654D01*
X159924708Y-129902840D01*
X160023543Y-129959903D01*
X160034048Y-129965968D01*
X160038836Y-129968732D01*
X160166130Y-130002840D01*
X160166132Y-130002840D01*
X160297912Y-130002840D01*
X160297914Y-130002840D01*
X160425208Y-129968732D01*
X160539336Y-129902840D01*
X160632522Y-129809654D01*
X160698414Y-129695526D01*
X160732522Y-129568232D01*
X160732522Y-129436448D01*
X160731781Y-129433684D01*
X161001522Y-129433684D01*
X161001522Y-129565468D01*
X161010393Y-129598576D01*
X161035630Y-129692763D01*
X161059768Y-129734570D01*
X161101522Y-129806890D01*
X161194708Y-129900076D01*
X161308836Y-129965968D01*
X161436130Y-130000076D01*
X161436132Y-130000076D01*
X161567912Y-130000076D01*
X161567914Y-130000076D01*
X161695208Y-129965968D01*
X161809336Y-129900076D01*
X161902522Y-129806890D01*
X161968414Y-129692762D01*
X162002522Y-129565468D01*
X162002522Y-129433684D01*
X161968414Y-129306390D01*
X161902522Y-129192262D01*
X161886761Y-129176501D01*
X167996842Y-129176501D01*
X167996842Y-130066006D01*
X168008473Y-130124483D01*
X168008474Y-130124484D01*
X168052789Y-130190806D01*
X168119111Y-130235121D01*
X168119112Y-130235122D01*
X168177589Y-130246753D01*
X168177592Y-130246754D01*
X168177594Y-130246754D01*
X169067092Y-130246754D01*
X169067093Y-130246753D01*
X169081910Y-130243806D01*
X169125571Y-130235122D01*
X169125571Y-130235121D01*
X169125573Y-130235121D01*
X169191894Y-130190806D01*
X169236209Y-130124485D01*
X169236210Y-130124476D01*
X169239811Y-130115787D01*
X169283652Y-130061384D01*
X169349946Y-130039318D01*
X169417645Y-130056597D01*
X169442054Y-130075558D01*
X169473605Y-130107109D01*
X169473609Y-130107112D01*
X169576049Y-130175561D01*
X169576055Y-130175564D01*
X169576056Y-130175565D01*
X169689890Y-130222717D01*
X169810731Y-130246753D01*
X169810735Y-130246754D01*
X169810736Y-130246754D01*
X169933949Y-130246754D01*
X169933950Y-130246753D01*
X170054794Y-130222717D01*
X170168628Y-130175565D01*
X170258092Y-130115787D01*
X170276140Y-130103728D01*
X170277091Y-130105151D01*
X170290653Y-130099389D01*
X170768788Y-129621255D01*
X170768788Y-129621253D01*
X170719061Y-129571526D01*
X170872342Y-129571526D01*
X170872342Y-129670982D01*
X170910402Y-129762868D01*
X170980728Y-129833194D01*
X171072614Y-129871254D01*
X171172070Y-129871254D01*
X171263956Y-129833194D01*
X171334282Y-129762868D01*
X171372342Y-129670982D01*
X171372342Y-129621253D01*
X171475895Y-129621253D01*
X171475895Y-129621255D01*
X171930842Y-130076202D01*
X171930842Y-130076201D01*
X171942065Y-130059408D01*
X171942066Y-130059405D01*
X172011794Y-129891067D01*
X172011796Y-129891059D01*
X172047341Y-129712363D01*
X172047342Y-129712360D01*
X172047342Y-129530148D01*
X172047341Y-129530144D01*
X172011796Y-129351448D01*
X172011793Y-129351436D01*
X171942070Y-129183109D01*
X171942067Y-129183103D01*
X171930842Y-129166304D01*
X171475895Y-129621253D01*
X171372342Y-129621253D01*
X171372342Y-129571526D01*
X171334282Y-129479640D01*
X171263956Y-129409314D01*
X171172070Y-129371254D01*
X171072614Y-129371254D01*
X170980728Y-129409314D01*
X170910402Y-129479640D01*
X170872342Y-129571526D01*
X170719061Y-129571526D01*
X170297282Y-129149746D01*
X170291747Y-129148696D01*
X170276284Y-129138563D01*
X170276140Y-129138780D01*
X170168634Y-129066946D01*
X170168625Y-129066941D01*
X170054796Y-129019792D01*
X170054797Y-129019792D01*
X170054794Y-129019791D01*
X170054790Y-129019790D01*
X170054786Y-129019789D01*
X169933952Y-128995754D01*
X169933948Y-128995754D01*
X169810736Y-128995754D01*
X169810731Y-128995754D01*
X169689897Y-129019789D01*
X169689887Y-129019792D01*
X169576058Y-129066941D01*
X169576049Y-129066946D01*
X169473609Y-129135395D01*
X169473604Y-129135399D01*
X169442053Y-129166950D01*
X169380729Y-129200435D01*
X169311038Y-129195449D01*
X169255105Y-129153577D01*
X169239812Y-129126722D01*
X169236209Y-129118024D01*
X169236209Y-129118023D01*
X169225396Y-129101840D01*
X169191894Y-129051701D01*
X169125572Y-129007386D01*
X169125571Y-129007385D01*
X169067094Y-128995754D01*
X169067090Y-128995754D01*
X168177594Y-128995754D01*
X168177589Y-128995754D01*
X168119112Y-129007385D01*
X168119111Y-129007386D01*
X168052789Y-129051701D01*
X168008474Y-129118023D01*
X168008473Y-129118024D01*
X167996842Y-129176501D01*
X161886761Y-129176501D01*
X161809336Y-129099076D01*
X161727282Y-129051702D01*
X161695209Y-129033184D01*
X161598931Y-129007387D01*
X161567914Y-128999076D01*
X161436130Y-128999076D01*
X161308834Y-129033184D01*
X161194708Y-129099076D01*
X161194705Y-129099078D01*
X161101524Y-129192259D01*
X161101522Y-129192262D01*
X161035630Y-129306388D01*
X161034889Y-129309154D01*
X161001522Y-129433684D01*
X160731781Y-129433684D01*
X160698414Y-129309154D01*
X160632522Y-129195026D01*
X160539336Y-129101840D01*
X160452493Y-129051701D01*
X160425209Y-129035948D01*
X160361561Y-129018894D01*
X160297914Y-129001840D01*
X160166130Y-129001840D01*
X160038834Y-129035948D01*
X159924708Y-129101840D01*
X159924705Y-129101842D01*
X159831524Y-129195023D01*
X159831522Y-129195026D01*
X159765631Y-129309152D01*
X159741812Y-129398041D01*
X159741812Y-129398043D01*
X159731522Y-129436448D01*
X159500500Y-129436448D01*
X159500500Y-129434108D01*
X159466392Y-129306814D01*
X159400500Y-129192686D01*
X159307314Y-129099500D01*
X159224524Y-129051701D01*
X159193187Y-129033608D01*
X159129539Y-129016554D01*
X159065892Y-128999500D01*
X158934108Y-128999500D01*
X158806812Y-129033608D01*
X158692686Y-129099500D01*
X158692683Y-129099502D01*
X158599502Y-129192683D01*
X158599500Y-129192686D01*
X158533608Y-129306812D01*
X158509164Y-129398041D01*
X158499500Y-129434108D01*
X146347430Y-129434108D01*
X146313284Y-129399962D01*
X146229235Y-129351436D01*
X146199157Y-129334070D01*
X146106167Y-129309154D01*
X146071862Y-129299962D01*
X145940078Y-129299962D01*
X145812782Y-129334070D01*
X145698656Y-129399962D01*
X145698653Y-129399964D01*
X145605472Y-129493145D01*
X145605470Y-129493148D01*
X145539578Y-129607274D01*
X145516672Y-129692762D01*
X145505470Y-129734570D01*
X145006470Y-129734570D01*
X144972362Y-129607276D01*
X144906470Y-129493148D01*
X144813284Y-129399962D01*
X144729235Y-129351436D01*
X144699157Y-129334070D01*
X144606167Y-129309154D01*
X144571862Y-129299962D01*
X144440078Y-129299962D01*
X144312782Y-129334070D01*
X144198656Y-129399962D01*
X144198653Y-129399964D01*
X144105472Y-129493145D01*
X144105470Y-129493148D01*
X144039578Y-129607274D01*
X144016672Y-129692762D01*
X144005470Y-129734570D01*
X143506470Y-129734570D01*
X143472362Y-129607276D01*
X143406470Y-129493148D01*
X143313284Y-129399962D01*
X143229235Y-129351436D01*
X143199157Y-129334070D01*
X143106167Y-129309154D01*
X143071862Y-129299962D01*
X142940078Y-129299962D01*
X142812782Y-129334070D01*
X142698656Y-129399962D01*
X142698653Y-129399964D01*
X142605472Y-129493145D01*
X142605470Y-129493148D01*
X142539578Y-129607274D01*
X142516672Y-129692762D01*
X142505470Y-129734570D01*
X142006470Y-129734570D01*
X141972362Y-129607276D01*
X141906470Y-129493148D01*
X141813284Y-129399962D01*
X141729235Y-129351436D01*
X141699157Y-129334070D01*
X141606167Y-129309154D01*
X141571862Y-129299962D01*
X141440078Y-129299962D01*
X141312782Y-129334070D01*
X141198656Y-129399962D01*
X141198653Y-129399964D01*
X141105472Y-129493145D01*
X141105470Y-129493148D01*
X141039578Y-129607274D01*
X141016672Y-129692762D01*
X141005470Y-129734570D01*
X120278400Y-129734570D01*
X120374208Y-129638762D01*
X120399623Y-129613346D01*
X120356020Y-129584212D01*
X120167956Y-129506313D01*
X120167948Y-129506311D01*
X119968308Y-129466600D01*
X119764739Y-129466600D01*
X119565099Y-129506311D01*
X119565091Y-129506313D01*
X119377031Y-129584210D01*
X119333423Y-129613346D01*
X105583595Y-129613346D01*
X105583580Y-129613309D01*
X105583575Y-129613299D01*
X105452458Y-129386196D01*
X105292815Y-129178148D01*
X105292808Y-129178140D01*
X105107394Y-128992726D01*
X105107389Y-128992722D01*
X105107385Y-128992718D01*
X105061275Y-128957336D01*
X104899337Y-128833075D01*
X104864136Y-128812752D01*
X170667392Y-128812752D01*
X171122342Y-129267700D01*
X171122343Y-129267700D01*
X171577289Y-128812752D01*
X171560487Y-128801525D01*
X171392159Y-128731802D01*
X171392147Y-128731799D01*
X171213451Y-128696254D01*
X171031232Y-128696254D01*
X170852536Y-128731799D01*
X170852528Y-128731801D01*
X170684190Y-128801528D01*
X170667392Y-128812752D01*
X104864136Y-128812752D01*
X104672234Y-128701958D01*
X104672224Y-128701953D01*
X104429962Y-128601605D01*
X104429955Y-128601603D01*
X104429953Y-128601602D01*
X104176650Y-128533730D01*
X104118873Y-128526123D01*
X103916661Y-128499500D01*
X103916654Y-128499500D01*
X103654414Y-128499500D01*
X103654406Y-128499500D01*
X103423306Y-128529926D01*
X103394418Y-128533730D01*
X103141115Y-128601602D01*
X103141105Y-128601605D01*
X102898843Y-128701953D01*
X102898833Y-128701958D01*
X102671730Y-128833075D01*
X102463682Y-128992718D01*
X102278252Y-129178148D01*
X102118609Y-129386196D01*
X101987492Y-129613299D01*
X101987487Y-129613309D01*
X101887139Y-129855571D01*
X101887136Y-129855581D01*
X101819561Y-130107778D01*
X101819264Y-130108885D01*
X101785034Y-130368872D01*
X99286034Y-130368872D01*
X99286034Y-121527155D01*
X102825000Y-121527155D01*
X102825000Y-122000000D01*
X103684314Y-122000000D01*
X103679920Y-122004394D01*
X103627259Y-122095606D01*
X103600000Y-122197339D01*
X103600000Y-122302661D01*
X103627259Y-122404394D01*
X103679920Y-122495606D01*
X103684314Y-122500000D01*
X102825000Y-122500000D01*
X102825000Y-122972844D01*
X102831401Y-123032372D01*
X102831403Y-123032379D01*
X102881645Y-123167086D01*
X102881649Y-123167093D01*
X102967809Y-123282187D01*
X102967812Y-123282190D01*
X103053232Y-123346136D01*
X103095103Y-123402070D01*
X103100087Y-123471761D01*
X103079240Y-123518287D01*
X102995049Y-123634166D01*
X102911084Y-123798956D01*
X102911083Y-123798959D01*
X102853933Y-123974852D01*
X102825000Y-124157526D01*
X102825000Y-124342473D01*
X102853933Y-124525147D01*
X102911083Y-124701040D01*
X102911084Y-124701043D01*
X102995050Y-124865834D01*
X103010015Y-124886430D01*
X103600000Y-124296445D01*
X103600000Y-124302661D01*
X103627259Y-124404394D01*
X103679920Y-124495606D01*
X103754394Y-124570080D01*
X103845606Y-124622741D01*
X103947339Y-124650000D01*
X103953553Y-124650000D01*
X103363568Y-125239983D01*
X103363568Y-125239984D01*
X103384165Y-125254949D01*
X103548956Y-125338915D01*
X103548959Y-125338916D01*
X103724852Y-125396066D01*
X103907527Y-125425000D01*
X104092473Y-125425000D01*
X104275147Y-125396066D01*
X104451040Y-125338916D01*
X104451043Y-125338915D01*
X104615836Y-125254947D01*
X104615845Y-125254942D01*
X104636430Y-125239984D01*
X104636431Y-125239983D01*
X104446016Y-125049568D01*
X129308320Y-125049568D01*
X129308320Y-125599555D01*
X130225308Y-125599555D01*
X130192395Y-125656562D01*
X130158320Y-125783729D01*
X130158320Y-125915381D01*
X130192395Y-126042548D01*
X130225308Y-126099555D01*
X129308321Y-126099555D01*
X129308321Y-126649541D01*
X129318814Y-126752252D01*
X129373961Y-126918674D01*
X129373963Y-126918679D01*
X129466004Y-127067900D01*
X129589974Y-127191870D01*
X129739195Y-127283911D01*
X129739200Y-127283913D01*
X129905622Y-127339060D01*
X129905629Y-127339061D01*
X130008339Y-127349554D01*
X130408319Y-127349554D01*
X130408320Y-127349553D01*
X130408320Y-126282567D01*
X130465327Y-126315480D01*
X130592494Y-126349555D01*
X130724146Y-126349555D01*
X130851313Y-126315480D01*
X130908320Y-126282567D01*
X130908320Y-127349554D01*
X131308292Y-127349554D01*
X131308306Y-127349553D01*
X131411017Y-127339060D01*
X131577439Y-127283913D01*
X131577444Y-127283911D01*
X131726665Y-127191870D01*
X131734427Y-127184108D01*
X165999500Y-127184108D01*
X165999500Y-127315891D01*
X166033608Y-127443187D01*
X166066554Y-127500250D01*
X166099500Y-127557314D01*
X166192686Y-127650500D01*
X166306814Y-127716392D01*
X166434108Y-127750500D01*
X166434110Y-127750500D01*
X166565890Y-127750500D01*
X166565892Y-127750500D01*
X166693186Y-127716392D01*
X166807314Y-127650500D01*
X166900500Y-127557314D01*
X166966392Y-127443186D01*
X167000500Y-127315892D01*
X167000500Y-127184108D01*
X166966392Y-127056814D01*
X166966309Y-127056671D01*
X166957563Y-127041521D01*
X166900500Y-126942686D01*
X166807314Y-126849500D01*
X166748476Y-126815530D01*
X166693187Y-126783608D01*
X166629539Y-126766554D01*
X166565892Y-126749500D01*
X166434108Y-126749500D01*
X166306812Y-126783608D01*
X166192686Y-126849500D01*
X166192683Y-126849502D01*
X166099502Y-126942683D01*
X166099500Y-126942686D01*
X166033608Y-127056812D01*
X165999500Y-127184108D01*
X131734427Y-127184108D01*
X131830236Y-127088300D01*
X131850635Y-127067900D01*
X131942676Y-126918679D01*
X131942678Y-126918674D01*
X131997825Y-126752252D01*
X131997826Y-126752245D01*
X132008319Y-126649541D01*
X132008319Y-126578083D01*
X132028003Y-126511043D01*
X132080806Y-126465287D01*
X132149964Y-126455343D01*
X132213520Y-126484367D01*
X132235421Y-126509190D01*
X132342342Y-126669210D01*
X132488662Y-126815530D01*
X132488665Y-126815532D01*
X132660722Y-126930496D01*
X132851900Y-127009685D01*
X133054850Y-127050054D01*
X133054854Y-127050055D01*
X133054855Y-127050055D01*
X133261786Y-127050055D01*
X133261787Y-127050054D01*
X133464740Y-127009685D01*
X133655918Y-126930496D01*
X133827975Y-126815532D01*
X133974297Y-126669210D01*
X134027036Y-126590280D01*
X171853930Y-126590280D01*
X171853930Y-126722064D01*
X171862017Y-126752245D01*
X171888038Y-126849359D01*
X171888121Y-126849502D01*
X171953930Y-126963486D01*
X172047116Y-127056672D01*
X172161244Y-127122564D01*
X172288538Y-127156672D01*
X172288540Y-127156672D01*
X172420320Y-127156672D01*
X172420322Y-127156672D01*
X172547616Y-127122564D01*
X172661744Y-127056672D01*
X172754930Y-126963486D01*
X172820822Y-126849358D01*
X172854930Y-126722064D01*
X172854930Y-126590280D01*
X172820822Y-126462986D01*
X172754930Y-126348858D01*
X172661744Y-126255672D01*
X172604680Y-126222726D01*
X172547617Y-126189780D01*
X172483969Y-126172726D01*
X172420322Y-126155672D01*
X172288538Y-126155672D01*
X172161242Y-126189780D01*
X172047116Y-126255672D01*
X172047113Y-126255674D01*
X171953932Y-126348855D01*
X171953930Y-126348858D01*
X171888038Y-126462984D01*
X171874566Y-126513263D01*
X171853930Y-126590280D01*
X134027036Y-126590280D01*
X134089261Y-126497153D01*
X134168450Y-126305975D01*
X134208820Y-126103020D01*
X134208820Y-125596090D01*
X134168450Y-125393135D01*
X134089261Y-125201957D01*
X133974297Y-125029900D01*
X133974295Y-125029897D01*
X133827977Y-124883579D01*
X133726675Y-124815892D01*
X133655918Y-124768614D01*
X133655919Y-124768614D01*
X133655917Y-124768613D01*
X133464740Y-124689425D01*
X133464732Y-124689423D01*
X133438012Y-124684108D01*
X165749500Y-124684108D01*
X165749500Y-124815892D01*
X165750852Y-124820936D01*
X165783608Y-124943187D01*
X165816121Y-124999500D01*
X165849500Y-125057314D01*
X165942686Y-125150500D01*
X166056814Y-125216392D01*
X166184108Y-125250500D01*
X166184110Y-125250500D01*
X166315890Y-125250500D01*
X166315892Y-125250500D01*
X166359251Y-125238882D01*
X166429097Y-125240543D01*
X166486961Y-125279705D01*
X166514466Y-125343933D01*
X166511118Y-125390748D01*
X166499500Y-125434108D01*
X166499500Y-125565892D01*
X166508520Y-125599555D01*
X166533608Y-125693187D01*
X166566554Y-125750250D01*
X166599500Y-125807314D01*
X166692686Y-125900500D01*
X166806814Y-125966392D01*
X166934108Y-126000500D01*
X166934110Y-126000500D01*
X167065890Y-126000500D01*
X167065892Y-126000500D01*
X167193186Y-125966392D01*
X167307314Y-125900500D01*
X167400500Y-125807314D01*
X167466392Y-125693186D01*
X167500500Y-125565892D01*
X167500500Y-125434108D01*
X167466392Y-125306814D01*
X167400500Y-125192686D01*
X167307314Y-125099500D01*
X167242981Y-125062357D01*
X167193187Y-125033608D01*
X167103045Y-125009455D01*
X167065892Y-124999500D01*
X166934108Y-124999500D01*
X166890749Y-125011118D01*
X166820899Y-125009455D01*
X166763037Y-124970292D01*
X166735533Y-124906063D01*
X166735006Y-124882028D01*
X166735876Y-124870466D01*
X166750500Y-124815892D01*
X166750500Y-124689152D01*
X170083801Y-124689152D01*
X170083801Y-124820935D01*
X170117909Y-124948231D01*
X170147510Y-124999500D01*
X170183801Y-125062358D01*
X170276987Y-125155544D01*
X170375822Y-125212607D01*
X170382378Y-125216392D01*
X170391115Y-125221436D01*
X170518409Y-125255544D01*
X170518411Y-125255544D01*
X170650191Y-125255544D01*
X170650193Y-125255544D01*
X170777487Y-125221436D01*
X170891615Y-125155544D01*
X170984801Y-125062358D01*
X171050693Y-124948230D01*
X171084801Y-124820936D01*
X171084801Y-124689152D01*
X171050693Y-124561858D01*
X170984801Y-124447730D01*
X170891615Y-124354544D01*
X170834551Y-124321598D01*
X170777488Y-124288652D01*
X170713840Y-124271598D01*
X170650193Y-124254544D01*
X170518409Y-124254544D01*
X170391113Y-124288652D01*
X170276987Y-124354544D01*
X170276984Y-124354546D01*
X170183803Y-124447727D01*
X170183801Y-124447730D01*
X170117909Y-124561856D01*
X170083801Y-124689152D01*
X166750500Y-124689152D01*
X166750500Y-124684108D01*
X166716392Y-124556814D01*
X166650500Y-124442686D01*
X166557314Y-124349500D01*
X166476187Y-124302661D01*
X166443187Y-124283608D01*
X166379539Y-124266554D01*
X166315892Y-124249500D01*
X166184108Y-124249500D01*
X166056812Y-124283608D01*
X165942686Y-124349500D01*
X165942683Y-124349502D01*
X165849502Y-124442683D01*
X165849500Y-124442686D01*
X165783608Y-124556812D01*
X165782256Y-124561858D01*
X165749500Y-124684108D01*
X133438012Y-124684108D01*
X133261789Y-124649055D01*
X133261785Y-124649055D01*
X133054855Y-124649055D01*
X133054850Y-124649055D01*
X132851907Y-124689423D01*
X132851899Y-124689425D01*
X132660723Y-124768613D01*
X132488662Y-124883579D01*
X132342344Y-125029897D01*
X132235422Y-125189920D01*
X132181809Y-125234726D01*
X132112485Y-125243433D01*
X132049457Y-125213279D01*
X132012737Y-125153836D01*
X132008319Y-125121030D01*
X132008319Y-125049583D01*
X132008318Y-125049567D01*
X131997825Y-124946857D01*
X131942678Y-124780435D01*
X131942676Y-124780430D01*
X131850635Y-124631209D01*
X131726665Y-124507239D01*
X131577444Y-124415198D01*
X131577439Y-124415196D01*
X131411017Y-124360049D01*
X131411010Y-124360048D01*
X131308306Y-124349555D01*
X130908320Y-124349555D01*
X130908320Y-125416543D01*
X130851313Y-125383630D01*
X130724146Y-125349555D01*
X130592494Y-125349555D01*
X130465327Y-125383630D01*
X130408320Y-125416543D01*
X130408320Y-124349555D01*
X130008348Y-124349555D01*
X130008332Y-124349556D01*
X129905622Y-124360049D01*
X129739200Y-124415196D01*
X129739195Y-124415198D01*
X129589974Y-124507239D01*
X129466004Y-124631209D01*
X129373963Y-124780430D01*
X129373961Y-124780435D01*
X129318814Y-124946857D01*
X129318813Y-124946864D01*
X129308320Y-125049568D01*
X104446016Y-125049568D01*
X104046448Y-124650000D01*
X104052661Y-124650000D01*
X104154394Y-124622741D01*
X104245606Y-124570080D01*
X104320080Y-124495606D01*
X104372741Y-124404394D01*
X104400000Y-124302661D01*
X104400000Y-124296447D01*
X104989983Y-124886430D01*
X104989984Y-124886430D01*
X105004942Y-124865845D01*
X105004947Y-124865836D01*
X105088915Y-124701043D01*
X105088916Y-124701040D01*
X105146066Y-124525147D01*
X105175000Y-124342473D01*
X105175000Y-124157526D01*
X105146066Y-123974852D01*
X105088916Y-123798959D01*
X105088915Y-123798956D01*
X105004947Y-123634162D01*
X104920760Y-123518287D01*
X104897280Y-123452481D01*
X104913106Y-123384427D01*
X104946767Y-123346135D01*
X105032191Y-123282186D01*
X105118350Y-123167093D01*
X105118354Y-123167086D01*
X105168596Y-123032379D01*
X105168598Y-123032372D01*
X105174999Y-122972844D01*
X105175000Y-122972827D01*
X105175000Y-122816828D01*
X162705259Y-122816828D01*
X162705259Y-122948611D01*
X162739367Y-123075907D01*
X162772313Y-123132970D01*
X162805259Y-123190034D01*
X162898445Y-123283220D01*
X163012573Y-123349112D01*
X163139867Y-123383220D01*
X163139869Y-123383220D01*
X163271649Y-123383220D01*
X163271651Y-123383220D01*
X163398945Y-123349112D01*
X163513073Y-123283220D01*
X163606259Y-123190034D01*
X163672151Y-123075906D01*
X163706259Y-122948612D01*
X163706259Y-122816828D01*
X163703793Y-122807625D01*
X163999500Y-122807625D01*
X163999500Y-122939409D01*
X164001966Y-122948611D01*
X164033608Y-123066704D01*
X164066554Y-123123767D01*
X164099500Y-123180831D01*
X164192686Y-123274017D01*
X164306814Y-123339909D01*
X164434108Y-123374017D01*
X164434110Y-123374017D01*
X164565890Y-123374017D01*
X164565892Y-123374017D01*
X164693186Y-123339909D01*
X164807314Y-123274017D01*
X164900500Y-123180831D01*
X164966392Y-123066703D01*
X165000500Y-122939409D01*
X165000500Y-122807625D01*
X164966392Y-122680331D01*
X164900500Y-122566203D01*
X164807314Y-122473017D01*
X164750250Y-122440071D01*
X164693187Y-122407125D01*
X164600238Y-122382220D01*
X164565892Y-122373017D01*
X164434108Y-122373017D01*
X164306812Y-122407125D01*
X164192686Y-122473017D01*
X164192683Y-122473019D01*
X164099502Y-122566200D01*
X164099500Y-122566203D01*
X164033608Y-122680329D01*
X164031142Y-122689534D01*
X163999500Y-122807625D01*
X163703793Y-122807625D01*
X163672151Y-122689534D01*
X163666836Y-122680329D01*
X163649326Y-122650000D01*
X163606259Y-122575406D01*
X163513073Y-122482220D01*
X163456009Y-122449274D01*
X163398946Y-122416328D01*
X163335298Y-122399274D01*
X163271651Y-122382220D01*
X163139867Y-122382220D01*
X163012571Y-122416328D01*
X162898445Y-122482220D01*
X162898442Y-122482222D01*
X162805261Y-122575403D01*
X162805259Y-122575406D01*
X162739367Y-122689532D01*
X162705259Y-122816828D01*
X105175000Y-122816828D01*
X105175000Y-122500000D01*
X104315686Y-122500000D01*
X104320080Y-122495606D01*
X104372741Y-122404394D01*
X104400000Y-122302661D01*
X104400000Y-122197339D01*
X104372741Y-122095606D01*
X104320080Y-122004394D01*
X104315686Y-122000000D01*
X105175000Y-122000000D01*
X105175000Y-121527172D01*
X105174999Y-121527155D01*
X105168598Y-121467627D01*
X105168596Y-121467620D01*
X105118354Y-121332913D01*
X105118350Y-121332906D01*
X105032190Y-121217812D01*
X105032187Y-121217809D01*
X104917093Y-121131649D01*
X104917086Y-121131645D01*
X104782379Y-121081403D01*
X104782372Y-121081401D01*
X104722844Y-121075000D01*
X104250000Y-121075000D01*
X104250000Y-121934314D01*
X104245606Y-121929920D01*
X104154394Y-121877259D01*
X104052661Y-121850000D01*
X103947339Y-121850000D01*
X103845606Y-121877259D01*
X103754394Y-121929920D01*
X103750000Y-121934314D01*
X103750000Y-121075000D01*
X103277155Y-121075000D01*
X103217627Y-121081401D01*
X103217620Y-121081403D01*
X103082913Y-121131645D01*
X103082906Y-121131649D01*
X102967812Y-121217809D01*
X102967809Y-121217812D01*
X102881649Y-121332906D01*
X102881645Y-121332913D01*
X102831403Y-121467620D01*
X102831401Y-121467627D01*
X102825000Y-121527155D01*
X99286034Y-121527155D01*
X99286034Y-120184108D01*
X112817258Y-120184108D01*
X112817258Y-120315891D01*
X112851366Y-120443187D01*
X112884312Y-120500250D01*
X112917258Y-120557314D01*
X113010444Y-120650500D01*
X113124572Y-120716392D01*
X113251866Y-120750500D01*
X113251868Y-120750500D01*
X113383648Y-120750500D01*
X113383650Y-120750500D01*
X113510944Y-120716392D01*
X113625072Y-120650500D01*
X113718258Y-120557314D01*
X113784150Y-120443186D01*
X113818258Y-120315892D01*
X113818258Y-120184108D01*
X121249500Y-120184108D01*
X121249500Y-120315891D01*
X121283608Y-120443187D01*
X121316554Y-120500250D01*
X121349500Y-120557314D01*
X121442686Y-120650500D01*
X121556814Y-120716392D01*
X121684108Y-120750500D01*
X121684110Y-120750500D01*
X121815890Y-120750500D01*
X121815892Y-120750500D01*
X121943186Y-120716392D01*
X122057314Y-120650500D01*
X122150500Y-120557314D01*
X122216392Y-120443186D01*
X122250500Y-120315892D01*
X122250500Y-120184108D01*
X122216392Y-120056814D01*
X122150500Y-119942686D01*
X122057314Y-119849500D01*
X122000250Y-119816554D01*
X121943187Y-119783608D01*
X121879539Y-119766554D01*
X121815892Y-119749500D01*
X121684108Y-119749500D01*
X121556812Y-119783608D01*
X121442686Y-119849500D01*
X121442683Y-119849502D01*
X121349502Y-119942683D01*
X121349500Y-119942686D01*
X121283608Y-120056812D01*
X121249500Y-120184108D01*
X113818258Y-120184108D01*
X113784150Y-120056814D01*
X113718258Y-119942686D01*
X113625072Y-119849500D01*
X113568008Y-119816554D01*
X113510945Y-119783608D01*
X113447297Y-119766554D01*
X113383650Y-119749500D01*
X113251866Y-119749500D01*
X113124570Y-119783608D01*
X113010444Y-119849500D01*
X113010441Y-119849502D01*
X112917260Y-119942683D01*
X112917258Y-119942686D01*
X112851366Y-120056812D01*
X112817258Y-120184108D01*
X99286034Y-120184108D01*
X99286034Y-115680278D01*
X118703570Y-115680278D01*
X118703570Y-115812061D01*
X118737678Y-115939357D01*
X118753287Y-115966392D01*
X118803570Y-116053484D01*
X118896756Y-116146670D01*
X119010884Y-116212562D01*
X119138178Y-116246670D01*
X119138180Y-116246670D01*
X119269960Y-116246670D01*
X119269962Y-116246670D01*
X119397256Y-116212562D01*
X119511384Y-116146670D01*
X119604570Y-116053484D01*
X119670462Y-115939356D01*
X119704570Y-115812062D01*
X119704570Y-115680278D01*
X119670462Y-115552984D01*
X119655478Y-115527031D01*
X119632934Y-115487983D01*
X119632933Y-115487982D01*
X119617435Y-115461139D01*
X119604570Y-115438856D01*
X119599822Y-115434108D01*
X123499500Y-115434108D01*
X123499500Y-115565891D01*
X123533608Y-115693187D01*
X123566554Y-115750250D01*
X123599500Y-115807314D01*
X123692686Y-115900500D01*
X123806814Y-115966392D01*
X123934108Y-116000500D01*
X123934110Y-116000500D01*
X124065890Y-116000500D01*
X124065892Y-116000500D01*
X124193186Y-115966392D01*
X124225508Y-115947730D01*
X124293407Y-115931257D01*
X124359434Y-115954108D01*
X124394895Y-115993116D01*
X124401778Y-116005037D01*
X124494964Y-116098223D01*
X124609092Y-116164115D01*
X124736386Y-116198223D01*
X124736388Y-116198223D01*
X124868168Y-116198223D01*
X124868170Y-116198223D01*
X124995464Y-116164115D01*
X125109592Y-116098223D01*
X125202778Y-116005037D01*
X125268670Y-115890909D01*
X125302778Y-115763615D01*
X125302778Y-115631831D01*
X125268670Y-115504537D01*
X125202778Y-115390409D01*
X125109592Y-115297223D01*
X125052528Y-115264277D01*
X124995465Y-115231331D01*
X124931817Y-115214277D01*
X124868170Y-115197223D01*
X124736386Y-115197223D01*
X124609089Y-115231331D01*
X124576767Y-115249993D01*
X124508866Y-115266464D01*
X124442840Y-115243612D01*
X124407380Y-115204603D01*
X124403119Y-115197223D01*
X124400500Y-115192686D01*
X124307314Y-115099500D01*
X124243890Y-115062882D01*
X124193187Y-115033608D01*
X124129539Y-115016554D01*
X124065892Y-114999500D01*
X123934108Y-114999500D01*
X123806812Y-115033608D01*
X123692686Y-115099500D01*
X123692683Y-115099502D01*
X123599502Y-115192683D01*
X123599500Y-115192686D01*
X123533608Y-115306812D01*
X123499500Y-115434108D01*
X119599822Y-115434108D01*
X119511384Y-115345670D01*
X119444080Y-115306812D01*
X119397257Y-115279778D01*
X119333609Y-115262724D01*
X119269962Y-115245670D01*
X119138178Y-115245670D01*
X119010882Y-115279778D01*
X118896756Y-115345670D01*
X118896753Y-115345672D01*
X118803572Y-115438853D01*
X118803570Y-115438856D01*
X118737678Y-115552982D01*
X118703570Y-115680278D01*
X99286034Y-115680278D01*
X99286034Y-114994747D01*
X113081527Y-114994747D01*
X113081527Y-115126531D01*
X113098581Y-115190178D01*
X113115635Y-115253826D01*
X113122932Y-115266464D01*
X113181527Y-115367953D01*
X113274713Y-115461139D01*
X113388841Y-115527031D01*
X113516135Y-115561139D01*
X113516137Y-115561139D01*
X113647917Y-115561139D01*
X113647919Y-115561139D01*
X113775213Y-115527031D01*
X113889341Y-115461139D01*
X113982527Y-115367953D01*
X114048419Y-115253825D01*
X114082527Y-115126531D01*
X114082527Y-114994747D01*
X114048419Y-114867453D01*
X113982527Y-114753325D01*
X113889341Y-114660139D01*
X113832277Y-114627193D01*
X113775214Y-114594247D01*
X113711566Y-114577193D01*
X113647919Y-114560139D01*
X113516135Y-114560139D01*
X113388839Y-114594247D01*
X113274713Y-114660139D01*
X113274710Y-114660141D01*
X113181529Y-114753322D01*
X113181527Y-114753325D01*
X113115635Y-114867451D01*
X113097616Y-114934701D01*
X113081527Y-114994747D01*
X99286034Y-114994747D01*
X99286034Y-114434108D01*
X154499500Y-114434108D01*
X154499500Y-114565891D01*
X154533608Y-114693187D01*
X154547005Y-114716391D01*
X154599500Y-114807314D01*
X154692686Y-114900500D01*
X154806814Y-114966392D01*
X154934108Y-115000500D01*
X154934110Y-115000500D01*
X155065890Y-115000500D01*
X155065892Y-115000500D01*
X155193186Y-114966392D01*
X155307314Y-114900500D01*
X155400500Y-114807314D01*
X155466392Y-114693186D01*
X155500500Y-114565892D01*
X155500500Y-114434108D01*
X155466392Y-114306814D01*
X155400500Y-114192686D01*
X155391922Y-114184108D01*
X172457858Y-114184108D01*
X172457858Y-114315891D01*
X172491966Y-114443187D01*
X172505363Y-114466391D01*
X172557858Y-114557314D01*
X172651044Y-114650500D01*
X172765172Y-114716392D01*
X172892466Y-114750500D01*
X172892468Y-114750500D01*
X173024248Y-114750500D01*
X173024250Y-114750500D01*
X173151544Y-114716392D01*
X173265672Y-114650500D01*
X173358858Y-114557314D01*
X173424750Y-114443186D01*
X173458858Y-114315892D01*
X173458858Y-114184108D01*
X173424750Y-114056814D01*
X173358858Y-113942686D01*
X173350280Y-113934108D01*
X183249500Y-113934108D01*
X183249500Y-114065891D01*
X183283608Y-114193187D01*
X183288429Y-114201537D01*
X183349500Y-114307314D01*
X183442686Y-114400500D01*
X183556814Y-114466392D01*
X183684108Y-114500500D01*
X183684110Y-114500500D01*
X183815890Y-114500500D01*
X183815892Y-114500500D01*
X183943186Y-114466392D01*
X184057314Y-114400500D01*
X184150500Y-114307314D01*
X184216392Y-114193186D01*
X184250500Y-114065892D01*
X184250500Y-113934108D01*
X184216392Y-113806814D01*
X184150500Y-113692686D01*
X184057314Y-113599500D01*
X183999100Y-113565890D01*
X183943187Y-113533608D01*
X183879539Y-113516554D01*
X183815892Y-113499500D01*
X183684108Y-113499500D01*
X183556812Y-113533608D01*
X183442686Y-113599500D01*
X183442683Y-113599502D01*
X183349502Y-113692683D01*
X183349500Y-113692686D01*
X183283608Y-113806812D01*
X183249500Y-113934108D01*
X173350280Y-113934108D01*
X173265672Y-113849500D01*
X173208608Y-113816554D01*
X173151545Y-113783608D01*
X173087897Y-113766554D01*
X173024250Y-113749500D01*
X172892466Y-113749500D01*
X172765170Y-113783608D01*
X172651044Y-113849500D01*
X172651041Y-113849502D01*
X172557860Y-113942683D01*
X172557858Y-113942686D01*
X172491966Y-114056812D01*
X172457858Y-114184108D01*
X155391922Y-114184108D01*
X155307314Y-114099500D01*
X155233378Y-114056813D01*
X155193187Y-114033608D01*
X155098932Y-114008353D01*
X155065892Y-113999500D01*
X154934108Y-113999500D01*
X154806812Y-114033608D01*
X154692686Y-114099500D01*
X154692683Y-114099502D01*
X154599502Y-114192683D01*
X154599500Y-114192686D01*
X154533608Y-114306812D01*
X154499500Y-114434108D01*
X99286034Y-114434108D01*
X99286034Y-113635145D01*
X113999500Y-113635145D01*
X113999500Y-113766928D01*
X114033608Y-113894224D01*
X114058374Y-113937119D01*
X114099500Y-114008351D01*
X114192686Y-114101537D01*
X114306814Y-114167429D01*
X114434108Y-114201537D01*
X114434110Y-114201537D01*
X114565890Y-114201537D01*
X114565892Y-114201537D01*
X114693186Y-114167429D01*
X114807314Y-114101537D01*
X114900500Y-114008351D01*
X114966392Y-113894223D01*
X115000500Y-113766929D01*
X115000500Y-113635145D01*
X114966392Y-113507851D01*
X114966391Y-113507849D01*
X114966391Y-113507848D01*
X114954921Y-113487983D01*
X114954920Y-113487981D01*
X114927682Y-113440804D01*
X114923816Y-113434108D01*
X130999500Y-113434108D01*
X130999500Y-113565891D01*
X131033608Y-113693187D01*
X131037253Y-113699500D01*
X131099500Y-113807314D01*
X131192686Y-113900500D01*
X131306814Y-113966392D01*
X131434108Y-114000500D01*
X131434110Y-114000500D01*
X131565890Y-114000500D01*
X131565892Y-114000500D01*
X131693186Y-113966392D01*
X131807314Y-113900500D01*
X131900500Y-113807314D01*
X131966392Y-113693186D01*
X132000500Y-113565892D01*
X132000500Y-113434108D01*
X131966392Y-113306814D01*
X131900500Y-113192686D01*
X131807314Y-113099500D01*
X131750250Y-113066554D01*
X131693187Y-113033608D01*
X131629539Y-113016554D01*
X131565892Y-112999500D01*
X131434108Y-112999500D01*
X131306812Y-113033608D01*
X131192686Y-113099500D01*
X131192683Y-113099502D01*
X131099502Y-113192683D01*
X131099500Y-113192686D01*
X131033608Y-113306812D01*
X130999500Y-113434108D01*
X114923816Y-113434108D01*
X114900500Y-113393723D01*
X114807314Y-113300537D01*
X114750250Y-113267591D01*
X114693187Y-113234645D01*
X114625848Y-113216602D01*
X114565892Y-113200537D01*
X114434108Y-113200537D01*
X114306812Y-113234645D01*
X114192686Y-113300537D01*
X114192683Y-113300539D01*
X114099502Y-113393720D01*
X114099500Y-113393723D01*
X114033608Y-113507849D01*
X113999500Y-113635145D01*
X99286034Y-113635145D01*
X99286034Y-112411904D01*
X144977296Y-112411904D01*
X144977296Y-112543688D01*
X144979326Y-112551265D01*
X145011404Y-112670983D01*
X145044350Y-112728046D01*
X145077296Y-112785110D01*
X145170482Y-112878296D01*
X145284610Y-112944188D01*
X145411904Y-112978296D01*
X145411912Y-112978296D01*
X145419964Y-112979357D01*
X145419708Y-112981298D01*
X145476523Y-112997981D01*
X145522278Y-113050785D01*
X145533484Y-113102296D01*
X145533484Y-113118717D01*
X145567592Y-113246013D01*
X145599072Y-113300537D01*
X145633484Y-113360140D01*
X145726670Y-113453326D01*
X145840798Y-113519218D01*
X145968092Y-113553326D01*
X145968094Y-113553326D01*
X146099874Y-113553326D01*
X146099876Y-113553326D01*
X146227170Y-113519218D01*
X146341298Y-113453326D01*
X146434484Y-113360140D01*
X146500376Y-113246012D01*
X146534484Y-113118718D01*
X146534484Y-112986934D01*
X146500376Y-112859640D01*
X146500374Y-112859636D01*
X146451472Y-112774935D01*
X146451471Y-112774933D01*
X146434488Y-112745518D01*
X146434485Y-112745515D01*
X146434484Y-112745512D01*
X146341298Y-112652326D01*
X146284234Y-112619380D01*
X146227171Y-112586434D01*
X146163523Y-112569380D01*
X146099876Y-112552326D01*
X146099875Y-112552326D01*
X146091816Y-112551265D01*
X146092071Y-112549323D01*
X146035257Y-112532641D01*
X145989502Y-112479837D01*
X145978296Y-112428326D01*
X145978296Y-112411906D01*
X145978296Y-112411904D01*
X145944188Y-112284610D01*
X145878296Y-112170482D01*
X145785110Y-112077296D01*
X145693807Y-112024582D01*
X145670983Y-112011404D01*
X145607335Y-111994350D01*
X145543688Y-111977296D01*
X145411904Y-111977296D01*
X145284608Y-112011404D01*
X145170482Y-112077296D01*
X145170479Y-112077298D01*
X145077298Y-112170479D01*
X145077296Y-112170482D01*
X145011404Y-112284608D01*
X145005320Y-112307316D01*
X144977296Y-112411904D01*
X99286034Y-112411904D01*
X99286034Y-111934108D01*
X157499500Y-111934108D01*
X157499500Y-112065891D01*
X157533608Y-112193187D01*
X157552013Y-112225064D01*
X157599500Y-112307314D01*
X157692686Y-112400500D01*
X157806814Y-112466392D01*
X157934108Y-112500500D01*
X157934110Y-112500500D01*
X158065890Y-112500500D01*
X158065892Y-112500500D01*
X158193186Y-112466392D01*
X158307314Y-112400500D01*
X158400500Y-112307314D01*
X158466392Y-112193186D01*
X158500500Y-112065892D01*
X158500500Y-111934108D01*
X184249500Y-111934108D01*
X184249500Y-112065891D01*
X184283608Y-112193187D01*
X184302013Y-112225064D01*
X184349500Y-112307314D01*
X184442686Y-112400500D01*
X184556814Y-112466392D01*
X184684108Y-112500500D01*
X184684110Y-112500500D01*
X184815890Y-112500500D01*
X184815892Y-112500500D01*
X184943186Y-112466392D01*
X185057314Y-112400500D01*
X185150500Y-112307314D01*
X185172191Y-112269745D01*
X185183591Y-112249999D01*
X192200884Y-112249999D01*
X192200885Y-112250000D01*
X193269670Y-112250000D01*
X193249925Y-112269745D01*
X193200556Y-112355255D01*
X193175000Y-112450630D01*
X193175000Y-112549370D01*
X193200556Y-112644745D01*
X193249925Y-112730255D01*
X193269670Y-112750000D01*
X192200885Y-112750000D01*
X192202085Y-112757584D01*
X192255591Y-112922255D01*
X192334195Y-113076524D01*
X192435967Y-113216602D01*
X192558397Y-113339032D01*
X192698475Y-113440804D01*
X192802051Y-113493579D01*
X192852847Y-113541554D01*
X192869642Y-113609375D01*
X192847104Y-113675510D01*
X192792389Y-113718961D01*
X192786712Y-113721105D01*
X192712117Y-113747207D01*
X192602850Y-113827850D01*
X192522207Y-113937117D01*
X192522206Y-113937119D01*
X192477353Y-114065298D01*
X192477353Y-114065300D01*
X192474500Y-114095730D01*
X192474500Y-114904269D01*
X192477353Y-114934699D01*
X192477353Y-114934701D01*
X192522206Y-115062880D01*
X192522207Y-115062882D01*
X192602850Y-115172150D01*
X192712118Y-115252793D01*
X192751188Y-115266464D01*
X192840299Y-115297646D01*
X192870730Y-115300500D01*
X192870734Y-115300500D01*
X194229270Y-115300500D01*
X194259699Y-115297646D01*
X194259701Y-115297646D01*
X194348812Y-115266464D01*
X194387882Y-115252793D01*
X194497150Y-115172150D01*
X194577793Y-115062882D01*
X194601634Y-114994747D01*
X194622646Y-114934701D01*
X194622646Y-114934699D01*
X194625500Y-114904269D01*
X194625500Y-114095730D01*
X194622646Y-114065300D01*
X194622646Y-114065298D01*
X194577793Y-113937119D01*
X194577792Y-113937117D01*
X194575573Y-113934110D01*
X194497150Y-113827850D01*
X194387882Y-113747207D01*
X194387880Y-113747206D01*
X194313288Y-113721105D01*
X194256512Y-113680383D01*
X194230765Y-113615430D01*
X194244222Y-113546869D01*
X194292609Y-113496466D01*
X194297948Y-113493579D01*
X194401524Y-113440804D01*
X194541602Y-113339032D01*
X194664032Y-113216602D01*
X194765804Y-113076524D01*
X194844408Y-112922255D01*
X194897914Y-112757584D01*
X194899115Y-112750000D01*
X193830330Y-112750000D01*
X193850075Y-112730255D01*
X193899444Y-112644745D01*
X193925000Y-112549370D01*
X193925000Y-112450630D01*
X193899444Y-112355255D01*
X193850075Y-112269745D01*
X193830330Y-112250000D01*
X194899115Y-112250000D01*
X194899115Y-112249999D01*
X194897914Y-112242415D01*
X194844408Y-112077744D01*
X194765804Y-111923475D01*
X194664032Y-111783397D01*
X194541602Y-111660967D01*
X194401524Y-111559195D01*
X194247255Y-111480591D01*
X194175869Y-111457396D01*
X194118193Y-111417958D01*
X194090995Y-111353600D01*
X194102910Y-111284753D01*
X194150154Y-111233278D01*
X194166735Y-111224904D01*
X194204173Y-111209397D01*
X194204176Y-111209395D01*
X194204179Y-111209394D01*
X194335289Y-111121789D01*
X194446789Y-111010289D01*
X194534394Y-110879179D01*
X194594737Y-110733497D01*
X194625500Y-110578842D01*
X194625500Y-110421158D01*
X194625500Y-110421155D01*
X194625499Y-110421153D01*
X194614748Y-110367105D01*
X194594737Y-110266503D01*
X194582764Y-110237597D01*
X194534397Y-110120827D01*
X194534390Y-110120814D01*
X194446789Y-109989711D01*
X194446786Y-109989707D01*
X194335292Y-109878213D01*
X194335288Y-109878210D01*
X194204185Y-109790609D01*
X194204172Y-109790602D01*
X194058501Y-109730264D01*
X194058489Y-109730261D01*
X193903845Y-109699500D01*
X193903842Y-109699500D01*
X193196158Y-109699500D01*
X193196155Y-109699500D01*
X193041510Y-109730261D01*
X193041498Y-109730264D01*
X192895827Y-109790602D01*
X192895814Y-109790609D01*
X192764711Y-109878210D01*
X192764707Y-109878213D01*
X192653213Y-109989707D01*
X192653210Y-109989711D01*
X192565609Y-110120814D01*
X192565602Y-110120827D01*
X192505264Y-110266498D01*
X192505261Y-110266510D01*
X192474500Y-110421153D01*
X192474500Y-110578846D01*
X192505261Y-110733489D01*
X192505264Y-110733501D01*
X192565602Y-110879172D01*
X192565609Y-110879185D01*
X192653210Y-111010288D01*
X192653213Y-111010292D01*
X192764707Y-111121786D01*
X192764711Y-111121789D01*
X192895814Y-111209390D01*
X192895823Y-111209395D01*
X192933265Y-111224904D01*
X192987668Y-111268745D01*
X193009733Y-111335039D01*
X192992454Y-111402738D01*
X192941317Y-111450349D01*
X192924131Y-111457396D01*
X192852742Y-111480591D01*
X192698475Y-111559195D01*
X192558397Y-111660967D01*
X192435967Y-111783397D01*
X192334195Y-111923475D01*
X192255591Y-112077744D01*
X192202085Y-112242415D01*
X192200884Y-112249999D01*
X185183591Y-112249999D01*
X185197987Y-112225065D01*
X185197987Y-112225064D01*
X185216391Y-112193187D01*
X185216392Y-112193186D01*
X185250500Y-112065892D01*
X185250500Y-111934108D01*
X185216392Y-111806814D01*
X185150500Y-111692686D01*
X185057314Y-111599500D01*
X184987504Y-111559195D01*
X184943187Y-111533608D01*
X184846771Y-111507774D01*
X184815892Y-111499500D01*
X184684108Y-111499500D01*
X184556812Y-111533608D01*
X184442686Y-111599500D01*
X184442683Y-111599502D01*
X184349502Y-111692683D01*
X184349500Y-111692686D01*
X184283608Y-111806812D01*
X184249500Y-111934108D01*
X158500500Y-111934108D01*
X158466392Y-111806814D01*
X158400500Y-111692686D01*
X158307314Y-111599500D01*
X158237504Y-111559195D01*
X158193187Y-111533608D01*
X158096771Y-111507774D01*
X158065892Y-111499500D01*
X157934108Y-111499500D01*
X157806812Y-111533608D01*
X157692686Y-111599500D01*
X157692683Y-111599502D01*
X157599502Y-111692683D01*
X157599500Y-111692686D01*
X157533608Y-111806812D01*
X157499500Y-111934108D01*
X99286034Y-111934108D01*
X99286034Y-111041382D01*
X156076445Y-111041382D01*
X156076445Y-111173166D01*
X156086153Y-111209397D01*
X156110553Y-111300461D01*
X156110576Y-111300500D01*
X156176445Y-111414588D01*
X156269631Y-111507774D01*
X156383759Y-111573666D01*
X156511053Y-111607774D01*
X156511055Y-111607774D01*
X156642835Y-111607774D01*
X156642837Y-111607774D01*
X156770131Y-111573666D01*
X156884259Y-111507774D01*
X156977445Y-111414588D01*
X157043337Y-111300460D01*
X157077445Y-111173166D01*
X157077445Y-111041382D01*
X157043337Y-110914088D01*
X157039541Y-110907514D01*
X157023780Y-110880214D01*
X156977445Y-110799960D01*
X156884259Y-110706774D01*
X156827195Y-110673828D01*
X156770132Y-110640882D01*
X156706484Y-110623828D01*
X156642837Y-110606774D01*
X156511053Y-110606774D01*
X156383757Y-110640882D01*
X156269631Y-110706774D01*
X156269628Y-110706776D01*
X156176447Y-110799957D01*
X156176445Y-110799960D01*
X156110553Y-110914086D01*
X156084776Y-111010289D01*
X156076445Y-111041382D01*
X99286034Y-111041382D01*
X99286034Y-110313823D01*
X113129215Y-110313823D01*
X113129215Y-110445606D01*
X113163323Y-110572902D01*
X113196269Y-110629965D01*
X113229215Y-110687029D01*
X113322401Y-110780215D01*
X113421236Y-110837278D01*
X113428762Y-110841623D01*
X113436529Y-110846107D01*
X113563823Y-110880215D01*
X113563825Y-110880215D01*
X113695605Y-110880215D01*
X113695607Y-110880215D01*
X113822901Y-110846107D01*
X113937029Y-110780215D01*
X114030215Y-110687029D01*
X114096107Y-110572901D01*
X114130215Y-110445607D01*
X114130215Y-110375232D01*
X115244090Y-110375232D01*
X115244090Y-110507015D01*
X115278198Y-110634311D01*
X115281992Y-110640882D01*
X115344090Y-110748438D01*
X115437276Y-110841624D01*
X115536111Y-110898687D01*
X115551400Y-110907514D01*
X115551404Y-110907516D01*
X115678698Y-110941624D01*
X115678700Y-110941624D01*
X115810480Y-110941624D01*
X115810482Y-110941624D01*
X115937776Y-110907516D01*
X116051904Y-110841624D01*
X116145090Y-110748438D01*
X116210982Y-110634310D01*
X116245090Y-110507016D01*
X116245090Y-110375232D01*
X116210982Y-110247938D01*
X116145090Y-110133810D01*
X116051904Y-110040624D01*
X115994840Y-110007678D01*
X115937777Y-109974732D01*
X115874129Y-109957678D01*
X115810482Y-109940624D01*
X115678698Y-109940624D01*
X115551402Y-109974732D01*
X115437276Y-110040624D01*
X115437273Y-110040626D01*
X115344092Y-110133807D01*
X115344090Y-110133810D01*
X115278198Y-110247936D01*
X115244090Y-110375232D01*
X114130215Y-110375232D01*
X114130215Y-110313823D01*
X114130061Y-110313249D01*
X114130037Y-110304693D01*
X114137649Y-110278488D01*
X114141849Y-110251517D01*
X114147256Y-110245420D01*
X114149530Y-110237597D01*
X114170104Y-110219666D01*
X114188216Y-110199250D01*
X114196060Y-110197045D01*
X114202203Y-110191692D01*
X114238615Y-110185086D01*
X114255480Y-110180347D01*
X114259827Y-110181238D01*
X114262999Y-110180663D01*
X114290680Y-110182669D01*
X114306814Y-110191984D01*
X114434108Y-110226092D01*
X114565892Y-110226092D01*
X114693186Y-110191984D01*
X114807314Y-110126092D01*
X114900500Y-110032906D01*
X114966392Y-109918778D01*
X115000500Y-109791484D01*
X115000500Y-109659700D01*
X114966392Y-109532406D01*
X114963571Y-109527520D01*
X114940744Y-109487982D01*
X114940743Y-109487981D01*
X114909639Y-109434108D01*
X130999500Y-109434108D01*
X130999500Y-109565891D01*
X131033608Y-109693187D01*
X131066554Y-109750250D01*
X131099500Y-109807314D01*
X131192686Y-109900500D01*
X131306814Y-109966392D01*
X131434108Y-110000500D01*
X131434110Y-110000500D01*
X131565890Y-110000500D01*
X131565892Y-110000500D01*
X131693186Y-109966392D01*
X131807314Y-109900500D01*
X131900500Y-109807314D01*
X131966392Y-109693186D01*
X132000500Y-109565892D01*
X132000500Y-109434108D01*
X131966392Y-109306814D01*
X131944238Y-109268442D01*
X147670611Y-109268442D01*
X147670611Y-109400225D01*
X147704719Y-109527521D01*
X147726873Y-109565892D01*
X147770611Y-109641648D01*
X147863797Y-109734834D01*
X147977925Y-109800726D01*
X148105219Y-109834834D01*
X148105221Y-109834834D01*
X148237001Y-109834834D01*
X148237003Y-109834834D01*
X148364297Y-109800726D01*
X148478425Y-109734834D01*
X148571611Y-109641648D01*
X148637503Y-109527520D01*
X148671611Y-109400226D01*
X148671611Y-109268442D01*
X148637503Y-109141148D01*
X148571611Y-109027020D01*
X148478425Y-108933834D01*
X148380428Y-108877255D01*
X148364298Y-108867942D01*
X148300650Y-108850888D01*
X148237003Y-108833834D01*
X148105219Y-108833834D01*
X147977923Y-108867942D01*
X147863797Y-108933834D01*
X147863794Y-108933836D01*
X147770613Y-109027017D01*
X147770611Y-109027020D01*
X147704719Y-109141146D01*
X147670611Y-109268442D01*
X131944238Y-109268442D01*
X131900500Y-109192686D01*
X131807314Y-109099500D01*
X131750250Y-109066554D01*
X131693187Y-109033608D01*
X131629539Y-109016554D01*
X131565892Y-108999500D01*
X131434108Y-108999500D01*
X131306812Y-109033608D01*
X131192686Y-109099500D01*
X131192683Y-109099502D01*
X131099502Y-109192683D01*
X131099500Y-109192686D01*
X131033608Y-109306812D01*
X130999500Y-109434108D01*
X114909639Y-109434108D01*
X114900500Y-109418278D01*
X114807314Y-109325092D01*
X114750250Y-109292146D01*
X114693187Y-109259200D01*
X114629539Y-109242146D01*
X114565892Y-109225092D01*
X114434108Y-109225092D01*
X114306812Y-109259200D01*
X114192686Y-109325092D01*
X114192683Y-109325094D01*
X114099502Y-109418275D01*
X114099500Y-109418278D01*
X114033608Y-109532404D01*
X113999500Y-109659700D01*
X113999500Y-109799611D01*
X113996312Y-109799611D01*
X113987831Y-109853859D01*
X113941432Y-109906098D01*
X113874156Y-109924958D01*
X113828230Y-109915530D01*
X113822904Y-109913324D01*
X113822901Y-109913323D01*
X113695607Y-109879215D01*
X113563823Y-109879215D01*
X113436527Y-109913323D01*
X113322401Y-109979215D01*
X113322398Y-109979217D01*
X113229217Y-110072398D01*
X113229215Y-110072401D01*
X113163323Y-110186527D01*
X113129215Y-110313823D01*
X99286034Y-110313823D01*
X99286034Y-108618176D01*
X113210822Y-108618176D01*
X113210822Y-108749960D01*
X113210967Y-108750500D01*
X113244930Y-108877255D01*
X113258351Y-108900500D01*
X113310822Y-108991382D01*
X113404008Y-109084568D01*
X113518136Y-109150460D01*
X113645430Y-109184568D01*
X113645432Y-109184568D01*
X113777212Y-109184568D01*
X113777214Y-109184568D01*
X113904508Y-109150460D01*
X114018636Y-109084568D01*
X114111822Y-108991382D01*
X114177714Y-108877254D01*
X114211822Y-108749960D01*
X114211822Y-108618176D01*
X114177714Y-108490882D01*
X114111822Y-108376754D01*
X114018636Y-108283568D01*
X114018603Y-108283548D01*
X114018287Y-108283366D01*
X113904511Y-108217677D01*
X113904508Y-108217676D01*
X113779229Y-108184108D01*
X115249500Y-108184108D01*
X115249500Y-108315891D01*
X115283608Y-108443187D01*
X115311144Y-108490880D01*
X115349500Y-108557314D01*
X115442686Y-108650500D01*
X115556814Y-108716392D01*
X115684108Y-108750500D01*
X115684110Y-108750500D01*
X115815890Y-108750500D01*
X115815892Y-108750500D01*
X115943186Y-108716392D01*
X116057314Y-108650500D01*
X116150500Y-108557314D01*
X116216392Y-108443186D01*
X116218824Y-108434108D01*
X124999500Y-108434108D01*
X124999500Y-108565891D01*
X125033608Y-108693187D01*
X125047005Y-108716391D01*
X125099500Y-108807314D01*
X125192686Y-108900500D01*
X125306814Y-108966392D01*
X125434108Y-109000500D01*
X125434110Y-109000500D01*
X125565890Y-109000500D01*
X125565892Y-109000500D01*
X125693186Y-108966392D01*
X125807314Y-108900500D01*
X125900500Y-108807314D01*
X125966392Y-108693186D01*
X126000500Y-108565892D01*
X126000500Y-108434108D01*
X142748115Y-108434108D01*
X142748115Y-108565891D01*
X142782223Y-108693187D01*
X142795620Y-108716391D01*
X142848115Y-108807314D01*
X142941301Y-108900500D01*
X143055429Y-108966392D01*
X143182723Y-109000500D01*
X143182725Y-109000500D01*
X143314505Y-109000500D01*
X143314507Y-109000500D01*
X143441801Y-108966392D01*
X143555929Y-108900500D01*
X143649115Y-108807314D01*
X143715007Y-108693186D01*
X143749115Y-108565892D01*
X143749115Y-108434108D01*
X143715007Y-108306814D01*
X143649115Y-108192686D01*
X143555929Y-108099500D01*
X143481995Y-108056814D01*
X143441802Y-108033608D01*
X143378154Y-108016554D01*
X143314507Y-107999500D01*
X143182723Y-107999500D01*
X143055427Y-108033608D01*
X142941301Y-108099500D01*
X142941298Y-108099502D01*
X142848117Y-108192683D01*
X142848115Y-108192686D01*
X142782223Y-108306812D01*
X142748115Y-108434108D01*
X126000500Y-108434108D01*
X125966392Y-108306814D01*
X125900500Y-108192686D01*
X125807314Y-108099500D01*
X125733380Y-108056814D01*
X125693187Y-108033608D01*
X125629539Y-108016554D01*
X125565892Y-107999500D01*
X125434108Y-107999500D01*
X125306812Y-108033608D01*
X125192686Y-108099500D01*
X125192683Y-108099502D01*
X125099502Y-108192683D01*
X125099500Y-108192686D01*
X125033608Y-108306812D01*
X124999500Y-108434108D01*
X116218824Y-108434108D01*
X116250500Y-108315892D01*
X116250500Y-108184108D01*
X116216392Y-108056814D01*
X116150500Y-107942686D01*
X116057314Y-107849500D01*
X116000250Y-107816554D01*
X115943187Y-107783608D01*
X115879539Y-107766554D01*
X115815892Y-107749500D01*
X115684108Y-107749500D01*
X115556812Y-107783608D01*
X115442686Y-107849500D01*
X115442683Y-107849502D01*
X115349502Y-107942683D01*
X115349500Y-107942686D01*
X115283608Y-108056812D01*
X115249500Y-108184108D01*
X113779229Y-108184108D01*
X113777214Y-108183568D01*
X113645430Y-108183568D01*
X113518134Y-108217676D01*
X113404008Y-108283568D01*
X113404005Y-108283570D01*
X113310824Y-108376751D01*
X113310822Y-108376754D01*
X113244930Y-108490880D01*
X113224831Y-108565892D01*
X113210822Y-108618176D01*
X99286034Y-108618176D01*
X99286034Y-105859108D01*
X142999500Y-105859108D01*
X142999500Y-105990891D01*
X143033608Y-106118187D01*
X143066554Y-106175250D01*
X143099500Y-106232314D01*
X143192686Y-106325500D01*
X143306814Y-106391392D01*
X143434108Y-106425500D01*
X143434110Y-106425500D01*
X143565890Y-106425500D01*
X143565892Y-106425500D01*
X143693186Y-106391392D01*
X143807314Y-106325500D01*
X143900500Y-106232314D01*
X143966392Y-106118186D01*
X144000500Y-105990892D01*
X144000500Y-105934108D01*
X169499500Y-105934108D01*
X169499500Y-106065891D01*
X169533608Y-106193187D01*
X169556200Y-106232316D01*
X169599500Y-106307314D01*
X169692686Y-106400500D01*
X169806814Y-106466392D01*
X169934108Y-106500500D01*
X169934110Y-106500500D01*
X170065890Y-106500500D01*
X170065892Y-106500500D01*
X170193186Y-106466392D01*
X170307314Y-106400500D01*
X170400500Y-106307314D01*
X170466392Y-106193186D01*
X170500500Y-106065892D01*
X170500500Y-105934108D01*
X170466392Y-105806814D01*
X170400500Y-105692686D01*
X170307314Y-105599500D01*
X170250250Y-105566554D01*
X170193187Y-105533608D01*
X170129539Y-105516554D01*
X170065892Y-105499500D01*
X169934108Y-105499500D01*
X169806812Y-105533608D01*
X169692686Y-105599500D01*
X169692683Y-105599502D01*
X169599502Y-105692683D01*
X169599500Y-105692686D01*
X169533608Y-105806812D01*
X169499500Y-105934108D01*
X144000500Y-105934108D01*
X144000500Y-105859108D01*
X143966392Y-105731814D01*
X143900500Y-105617686D01*
X143807314Y-105524500D01*
X143750250Y-105491554D01*
X143693187Y-105458608D01*
X143629539Y-105441554D01*
X143565892Y-105424500D01*
X143434108Y-105424500D01*
X143306812Y-105458608D01*
X143192686Y-105524500D01*
X143192683Y-105524502D01*
X143099502Y-105617683D01*
X143099500Y-105617686D01*
X143033608Y-105731812D01*
X142999500Y-105859108D01*
X99286034Y-105859108D01*
X99286034Y-104434108D01*
X113499500Y-104434108D01*
X113499500Y-104565891D01*
X113533608Y-104693187D01*
X113566554Y-104750250D01*
X113599500Y-104807314D01*
X113692686Y-104900500D01*
X113806814Y-104966392D01*
X113934108Y-105000500D01*
X113934110Y-105000500D01*
X114065890Y-105000500D01*
X114065892Y-105000500D01*
X114193186Y-104966392D01*
X114307314Y-104900500D01*
X114315927Y-104891887D01*
X125348106Y-104891887D01*
X125348106Y-105023670D01*
X125382214Y-105150966D01*
X125415160Y-105208029D01*
X125448106Y-105265093D01*
X125541292Y-105358279D01*
X125655420Y-105424171D01*
X125782714Y-105458279D01*
X125782716Y-105458279D01*
X125914496Y-105458279D01*
X125914498Y-105458279D01*
X126041792Y-105424171D01*
X126155920Y-105358279D01*
X126249106Y-105265093D01*
X126314998Y-105150965D01*
X126349106Y-105023671D01*
X126349106Y-104891887D01*
X126314998Y-104764593D01*
X126249106Y-104650465D01*
X126155920Y-104557279D01*
X126098856Y-104524333D01*
X126041793Y-104491387D01*
X125978145Y-104474333D01*
X125914498Y-104457279D01*
X125782714Y-104457279D01*
X125655418Y-104491387D01*
X125541292Y-104557279D01*
X125541289Y-104557281D01*
X125448108Y-104650462D01*
X125448106Y-104650465D01*
X125382214Y-104764591D01*
X125348106Y-104891887D01*
X114315927Y-104891887D01*
X114400500Y-104807314D01*
X114466392Y-104693186D01*
X114500500Y-104565892D01*
X114500500Y-104434108D01*
X114466392Y-104306814D01*
X114400500Y-104192686D01*
X114307314Y-104099500D01*
X114250250Y-104066554D01*
X114193187Y-104033608D01*
X114129539Y-104016554D01*
X114065892Y-103999500D01*
X113934108Y-103999500D01*
X113806812Y-104033608D01*
X113692686Y-104099500D01*
X113692683Y-104099502D01*
X113599502Y-104192683D01*
X113599500Y-104192686D01*
X113533608Y-104306812D01*
X113499500Y-104434108D01*
X99286034Y-104434108D01*
X99286034Y-103434108D01*
X117499500Y-103434108D01*
X117499500Y-103565891D01*
X117533608Y-103693187D01*
X117559381Y-103737826D01*
X117599500Y-103807314D01*
X117692686Y-103900500D01*
X117806814Y-103966392D01*
X117934108Y-104000500D01*
X117934110Y-104000500D01*
X118065890Y-104000500D01*
X118065892Y-104000500D01*
X118193186Y-103966392D01*
X118307314Y-103900500D01*
X118342692Y-103865122D01*
X120068486Y-103865122D01*
X120068486Y-103996905D01*
X120102594Y-104124201D01*
X120135540Y-104181264D01*
X120168486Y-104238328D01*
X120261672Y-104331514D01*
X120375800Y-104397406D01*
X120503094Y-104431514D01*
X120503096Y-104431514D01*
X120634876Y-104431514D01*
X120634878Y-104431514D01*
X120762172Y-104397406D01*
X120876300Y-104331514D01*
X120969486Y-104238328D01*
X121035378Y-104124200D01*
X121069486Y-103996906D01*
X121069486Y-103865122D01*
X121035378Y-103737828D01*
X120969486Y-103623700D01*
X120876300Y-103530514D01*
X120819236Y-103497568D01*
X120762173Y-103464622D01*
X120698525Y-103447568D01*
X120634878Y-103430514D01*
X120503094Y-103430514D01*
X120375798Y-103464622D01*
X120261672Y-103530514D01*
X120261669Y-103530516D01*
X120168488Y-103623697D01*
X120168486Y-103623700D01*
X120102594Y-103737826D01*
X120068486Y-103865122D01*
X118342692Y-103865122D01*
X118400500Y-103807314D01*
X118466392Y-103693186D01*
X118500500Y-103565892D01*
X118500500Y-103434108D01*
X118466392Y-103306814D01*
X118400500Y-103192686D01*
X118307314Y-103099500D01*
X118250250Y-103066554D01*
X118193187Y-103033608D01*
X118129539Y-103016554D01*
X118065892Y-102999500D01*
X117934108Y-102999500D01*
X117806812Y-103033608D01*
X117692686Y-103099500D01*
X117692683Y-103099502D01*
X117599502Y-103192683D01*
X117599500Y-103192686D01*
X117533608Y-103306812D01*
X117499500Y-103434108D01*
X99286034Y-103434108D01*
X99286034Y-100149967D01*
X125783641Y-100149967D01*
X125783641Y-100281750D01*
X125817749Y-100409046D01*
X125850695Y-100466109D01*
X125883641Y-100523173D01*
X125976827Y-100616359D01*
X126090955Y-100682251D01*
X126218249Y-100716359D01*
X126218251Y-100716359D01*
X126350031Y-100716359D01*
X126350033Y-100716359D01*
X126477327Y-100682251D01*
X126591455Y-100616359D01*
X126684641Y-100523173D01*
X126750533Y-100409045D01*
X126784641Y-100281751D01*
X126784641Y-100149967D01*
X126750533Y-100022673D01*
X126684641Y-99908545D01*
X126591455Y-99815359D01*
X126534391Y-99782413D01*
X126477328Y-99749467D01*
X126413680Y-99732413D01*
X126350033Y-99715359D01*
X126218249Y-99715359D01*
X126090953Y-99749467D01*
X125976827Y-99815359D01*
X125976824Y-99815361D01*
X125883643Y-99908542D01*
X125883641Y-99908545D01*
X125817749Y-100022671D01*
X125783641Y-100149967D01*
X99286034Y-100149967D01*
X99286034Y-99082656D01*
X115135992Y-99082656D01*
X115135992Y-99214439D01*
X115170100Y-99341735D01*
X115203046Y-99398798D01*
X115235992Y-99455862D01*
X115329178Y-99549048D01*
X115443306Y-99614940D01*
X115570600Y-99649048D01*
X115570602Y-99649048D01*
X115702382Y-99649048D01*
X115702384Y-99649048D01*
X115829678Y-99614940D01*
X115943806Y-99549048D01*
X116036992Y-99455862D01*
X116102884Y-99341734D01*
X116136992Y-99214440D01*
X116136992Y-99082656D01*
X116102884Y-98955362D01*
X116036992Y-98841234D01*
X115943806Y-98748048D01*
X115886742Y-98715102D01*
X115829679Y-98682156D01*
X115766031Y-98665102D01*
X115702384Y-98648048D01*
X115570600Y-98648048D01*
X115443304Y-98682156D01*
X115329178Y-98748048D01*
X115329175Y-98748050D01*
X115235994Y-98841231D01*
X115235992Y-98841234D01*
X115170100Y-98955360D01*
X115135992Y-99082656D01*
X99286034Y-99082656D01*
X99286034Y-95752706D01*
X99286152Y-95747297D01*
X99286228Y-95745546D01*
X99291759Y-95618872D01*
X101785034Y-95618872D01*
X101785034Y-95881127D01*
X101803925Y-96024609D01*
X101819264Y-96141116D01*
X101879367Y-96365425D01*
X101887136Y-96394418D01*
X101887139Y-96394428D01*
X101987487Y-96636690D01*
X101987492Y-96636700D01*
X102118609Y-96863803D01*
X102278252Y-97071851D01*
X102278260Y-97071860D01*
X102463674Y-97257274D01*
X102463682Y-97257281D01*
X102671730Y-97416924D01*
X102898833Y-97548041D01*
X102898843Y-97548046D01*
X103123822Y-97641235D01*
X103141115Y-97648398D01*
X103394418Y-97716270D01*
X103654414Y-97750500D01*
X103654421Y-97750500D01*
X103916647Y-97750500D01*
X103916654Y-97750500D01*
X104176650Y-97716270D01*
X104429953Y-97648398D01*
X104672231Y-97548043D01*
X104899337Y-97416924D01*
X105107385Y-97257282D01*
X105107389Y-97257277D01*
X105107394Y-97257274D01*
X105292808Y-97071860D01*
X105292811Y-97071855D01*
X105292816Y-97071851D01*
X105452458Y-96863803D01*
X105460106Y-96850556D01*
X181883135Y-96850556D01*
X181926731Y-96879686D01*
X181926741Y-96879691D01*
X182114803Y-96957589D01*
X182114811Y-96957591D01*
X182314451Y-96997302D01*
X182314454Y-96997303D01*
X182518018Y-96997303D01*
X182518020Y-96997302D01*
X182717660Y-96957591D01*
X182717668Y-96957589D01*
X182905732Y-96879690D01*
X182905738Y-96879687D01*
X182949335Y-96850556D01*
X182949335Y-96850555D01*
X182416237Y-96317457D01*
X182416236Y-96317457D01*
X181883135Y-96850556D01*
X105460106Y-96850556D01*
X105460107Y-96850555D01*
X105522582Y-96742345D01*
X105542760Y-96707393D01*
X105583577Y-96636697D01*
X105591016Y-96618739D01*
X105641441Y-96497001D01*
X105683932Y-96394419D01*
X105751804Y-96141116D01*
X105786034Y-95881120D01*
X105786034Y-95862118D01*
X181382836Y-95862118D01*
X181382836Y-96065687D01*
X181422547Y-96265327D01*
X181422549Y-96265335D01*
X181500448Y-96453399D01*
X181529582Y-96497001D01*
X181529583Y-96497002D01*
X182062682Y-95963903D01*
X182062682Y-95963902D01*
X182025899Y-95927119D01*
X182136836Y-95927119D01*
X182136836Y-96000687D01*
X182155877Y-96071747D01*
X182192660Y-96135459D01*
X182244680Y-96187479D01*
X182308392Y-96224262D01*
X182379452Y-96243303D01*
X182453020Y-96243303D01*
X182524080Y-96224262D01*
X182587792Y-96187479D01*
X182639812Y-96135459D01*
X182676595Y-96071747D01*
X182695636Y-96000687D01*
X182695636Y-95963903D01*
X182769790Y-95963903D01*
X182928420Y-96122533D01*
X182959398Y-96174214D01*
X182960537Y-96177970D01*
X183015860Y-96311532D01*
X183096178Y-96431736D01*
X183096181Y-96431740D01*
X183198398Y-96533957D01*
X183198402Y-96533960D01*
X183318604Y-96614277D01*
X183452165Y-96669600D01*
X183593948Y-96697802D01*
X183593952Y-96697803D01*
X183593953Y-96697803D01*
X183738520Y-96697803D01*
X183738521Y-96697802D01*
X183880307Y-96669600D01*
X184013868Y-96614277D01*
X184134070Y-96533960D01*
X184236293Y-96431737D01*
X184316610Y-96311535D01*
X184371933Y-96177974D01*
X184400136Y-96036186D01*
X184400136Y-95891620D01*
X184398049Y-95881127D01*
X184394508Y-95863323D01*
X184390502Y-95843183D01*
X192999500Y-95843183D01*
X192999500Y-96105438D01*
X193020551Y-96265327D01*
X193033730Y-96365427D01*
X193078888Y-96533960D01*
X193101602Y-96618729D01*
X193101605Y-96618739D01*
X193201953Y-96861001D01*
X193201958Y-96861011D01*
X193333075Y-97088114D01*
X193492718Y-97296162D01*
X193492726Y-97296171D01*
X193678140Y-97481585D01*
X193678148Y-97481592D01*
X193886196Y-97641235D01*
X194113299Y-97772352D01*
X194113309Y-97772357D01*
X194355571Y-97872705D01*
X194355581Y-97872709D01*
X194608884Y-97940581D01*
X194868880Y-97974811D01*
X194868887Y-97974811D01*
X195131113Y-97974811D01*
X195131120Y-97974811D01*
X195391116Y-97940581D01*
X195644419Y-97872709D01*
X195886697Y-97772354D01*
X196113803Y-97641235D01*
X196321851Y-97481593D01*
X196321855Y-97481588D01*
X196321860Y-97481585D01*
X196507274Y-97296171D01*
X196507277Y-97296166D01*
X196507282Y-97296162D01*
X196666924Y-97088114D01*
X196798043Y-96861008D01*
X196898398Y-96618730D01*
X196966270Y-96365427D01*
X197000500Y-96105431D01*
X197000500Y-95843191D01*
X196966270Y-95583195D01*
X196898398Y-95329892D01*
X196892634Y-95315977D01*
X196798046Y-95087620D01*
X196798041Y-95087610D01*
X196666924Y-94860507D01*
X196507281Y-94652459D01*
X196507274Y-94652451D01*
X196321860Y-94467037D01*
X196321851Y-94467029D01*
X196113803Y-94307386D01*
X195886700Y-94176269D01*
X195886690Y-94176264D01*
X195644428Y-94075916D01*
X195644421Y-94075914D01*
X195644419Y-94075913D01*
X195391116Y-94008041D01*
X195330040Y-94000000D01*
X195131127Y-93973811D01*
X195131120Y-93973811D01*
X194868880Y-93973811D01*
X194868872Y-93973811D01*
X194637772Y-94004237D01*
X194608884Y-94008041D01*
X194355581Y-94075913D01*
X194355571Y-94075916D01*
X194113309Y-94176264D01*
X194113299Y-94176269D01*
X193886196Y-94307386D01*
X193678148Y-94467029D01*
X193492718Y-94652459D01*
X193333075Y-94860507D01*
X193201958Y-95087610D01*
X193201953Y-95087620D01*
X193101605Y-95329882D01*
X193101602Y-95329892D01*
X193045608Y-95538868D01*
X193033730Y-95583196D01*
X192999500Y-95843183D01*
X184390502Y-95843183D01*
X184372682Y-95753597D01*
X184371933Y-95749832D01*
X184317691Y-95618880D01*
X184316611Y-95616273D01*
X184274991Y-95553985D01*
X184236293Y-95496069D01*
X184236290Y-95496065D01*
X184134073Y-95393848D01*
X184134069Y-95393845D01*
X184013865Y-95313527D01*
X183880307Y-95258206D01*
X183880299Y-95258204D01*
X183738523Y-95230003D01*
X183738519Y-95230003D01*
X183593953Y-95230003D01*
X183593948Y-95230003D01*
X183452172Y-95258204D01*
X183452164Y-95258206D01*
X183318606Y-95313527D01*
X183198402Y-95393845D01*
X183198398Y-95393848D01*
X183096181Y-95496065D01*
X183096178Y-95496069D01*
X183015860Y-95616273D01*
X182960536Y-95749838D01*
X182959396Y-95753597D01*
X182928421Y-95805271D01*
X182769790Y-95963903D01*
X182695636Y-95963903D01*
X182695636Y-95927119D01*
X182676595Y-95856059D01*
X182639812Y-95792347D01*
X182587792Y-95740327D01*
X182524080Y-95703544D01*
X182453020Y-95684503D01*
X182379452Y-95684503D01*
X182308392Y-95703544D01*
X182244680Y-95740327D01*
X182192660Y-95792347D01*
X182155877Y-95856059D01*
X182136836Y-95927119D01*
X182025899Y-95927119D01*
X181529582Y-95430802D01*
X181500446Y-95474410D01*
X181422549Y-95662470D01*
X181422547Y-95662478D01*
X181382836Y-95862118D01*
X105786034Y-95862118D01*
X105786034Y-95618880D01*
X105751804Y-95358884D01*
X105683932Y-95105581D01*
X105672197Y-95077250D01*
X105583580Y-94863309D01*
X105583575Y-94863299D01*
X105452458Y-94636196D01*
X105311745Y-94452818D01*
X105292816Y-94428149D01*
X105292815Y-94428148D01*
X105292808Y-94428140D01*
X105107394Y-94242726D01*
X105107385Y-94242718D01*
X104899337Y-94083075D01*
X104672234Y-93951958D01*
X104672224Y-93951953D01*
X104429962Y-93851605D01*
X104429955Y-93851603D01*
X104429953Y-93851602D01*
X104176650Y-93783730D01*
X104118873Y-93776123D01*
X103916661Y-93749500D01*
X103916654Y-93749500D01*
X103654414Y-93749500D01*
X103654406Y-93749500D01*
X103423306Y-93779926D01*
X103394418Y-93783730D01*
X103280213Y-93814331D01*
X103141115Y-93851602D01*
X103141105Y-93851605D01*
X102898843Y-93951953D01*
X102898833Y-93951958D01*
X102671730Y-94083075D01*
X102463682Y-94242718D01*
X102278252Y-94428148D01*
X102118609Y-94636196D01*
X101987492Y-94863299D01*
X101987487Y-94863309D01*
X101887139Y-95105571D01*
X101887136Y-95105581D01*
X101819264Y-95358884D01*
X101817833Y-95369752D01*
X101785034Y-95618872D01*
X99291759Y-95618872D01*
X99302920Y-95363226D01*
X99303859Y-95352496D01*
X99353685Y-94974032D01*
X99355558Y-94963402D01*
X99438182Y-94590714D01*
X99440980Y-94580276D01*
X99555764Y-94216227D01*
X99559451Y-94206095D01*
X99705537Y-93853412D01*
X99710095Y-93843638D01*
X99886356Y-93505045D01*
X99891751Y-93495700D01*
X99991441Y-93339218D01*
X109352504Y-93339218D01*
X109352504Y-93546157D01*
X109392872Y-93749100D01*
X109392874Y-93749108D01*
X109458943Y-93908613D01*
X109472063Y-93940286D01*
X109479862Y-93951958D01*
X109587028Y-94112345D01*
X109733346Y-94258663D01*
X109733349Y-94258665D01*
X109905406Y-94373629D01*
X110096584Y-94452818D01*
X110299534Y-94493187D01*
X110299538Y-94493188D01*
X110299539Y-94493188D01*
X110506470Y-94493188D01*
X110506471Y-94493187D01*
X110709424Y-94452818D01*
X110900602Y-94373629D01*
X111072659Y-94258665D01*
X111218981Y-94112343D01*
X111333945Y-93940286D01*
X111413134Y-93749108D01*
X111453504Y-93546153D01*
X111453504Y-93339223D01*
X111453503Y-93339218D01*
X111892504Y-93339218D01*
X111892504Y-93546157D01*
X111932872Y-93749100D01*
X111932874Y-93749108D01*
X111998943Y-93908613D01*
X112012063Y-93940286D01*
X112019862Y-93951958D01*
X112127028Y-94112345D01*
X112273346Y-94258663D01*
X112273349Y-94258665D01*
X112445406Y-94373629D01*
X112636584Y-94452818D01*
X112839534Y-94493187D01*
X112839538Y-94493188D01*
X112839539Y-94493188D01*
X113046470Y-94493188D01*
X113046471Y-94493187D01*
X113249424Y-94452818D01*
X113440602Y-94373629D01*
X113612659Y-94258665D01*
X113758981Y-94112343D01*
X113873945Y-93940286D01*
X113894443Y-93890800D01*
X113938283Y-93836396D01*
X114004577Y-93814331D01*
X114072277Y-93831610D01*
X114119888Y-93882747D01*
X114133004Y-93938252D01*
X114133004Y-94340532D01*
X114139405Y-94400060D01*
X114139407Y-94400067D01*
X114189649Y-94534774D01*
X114189653Y-94534781D01*
X114275813Y-94649875D01*
X114275816Y-94649878D01*
X114390910Y-94736038D01*
X114390917Y-94736042D01*
X114525624Y-94786284D01*
X114525631Y-94786286D01*
X114585159Y-94792687D01*
X114585176Y-94792688D01*
X115233004Y-94792688D01*
X115233004Y-93875700D01*
X115290011Y-93908613D01*
X115417178Y-93942688D01*
X115548830Y-93942688D01*
X115675997Y-93908613D01*
X115733004Y-93875700D01*
X115733004Y-94792688D01*
X116380832Y-94792688D01*
X116380848Y-94792687D01*
X116440376Y-94786286D01*
X116440383Y-94786284D01*
X116575090Y-94736042D01*
X116575097Y-94736038D01*
X116690191Y-94649878D01*
X116690194Y-94649875D01*
X116776354Y-94534781D01*
X116776358Y-94534774D01*
X116826600Y-94400067D01*
X116826602Y-94400060D01*
X116833003Y-94340532D01*
X116833004Y-94340515D01*
X116833004Y-93692688D01*
X115916016Y-93692688D01*
X115948929Y-93635681D01*
X115950385Y-93630247D01*
X120639500Y-93630247D01*
X120639500Y-95369752D01*
X120651131Y-95428229D01*
X120651132Y-95428230D01*
X120695447Y-95494552D01*
X120761769Y-95538867D01*
X120761770Y-95538868D01*
X120820247Y-95550499D01*
X120820250Y-95550500D01*
X120820252Y-95550500D01*
X122559750Y-95550500D01*
X122559751Y-95550499D01*
X122574568Y-95547552D01*
X122618229Y-95538868D01*
X122618229Y-95538867D01*
X122618231Y-95538867D01*
X122684552Y-95494552D01*
X122728867Y-95428231D01*
X122728867Y-95428229D01*
X122728868Y-95428229D01*
X122740499Y-95369752D01*
X122740500Y-95369750D01*
X122740500Y-94396530D01*
X123179500Y-94396530D01*
X123179500Y-94603469D01*
X123219868Y-94806412D01*
X123219870Y-94806420D01*
X123289302Y-94974044D01*
X123299059Y-94997598D01*
X123332812Y-95048113D01*
X123414024Y-95169657D01*
X123560342Y-95315975D01*
X123560345Y-95315977D01*
X123732402Y-95430941D01*
X123923580Y-95510130D01*
X124068052Y-95538867D01*
X124126530Y-95550499D01*
X124126534Y-95550500D01*
X124126535Y-95550500D01*
X124333466Y-95550500D01*
X124333467Y-95550499D01*
X124536420Y-95510130D01*
X124727598Y-95430941D01*
X124899655Y-95315977D01*
X125045977Y-95169655D01*
X125160941Y-94997598D01*
X125240130Y-94806420D01*
X125280500Y-94603465D01*
X125280500Y-94396535D01*
X125280499Y-94396530D01*
X125719500Y-94396530D01*
X125719500Y-94603469D01*
X125759868Y-94806412D01*
X125759870Y-94806420D01*
X125829302Y-94974044D01*
X125839059Y-94997598D01*
X125872812Y-95048113D01*
X125954024Y-95169657D01*
X126100342Y-95315975D01*
X126100345Y-95315977D01*
X126272402Y-95430941D01*
X126463580Y-95510130D01*
X126608052Y-95538867D01*
X126666530Y-95550499D01*
X126666534Y-95550500D01*
X126666535Y-95550500D01*
X126873466Y-95550500D01*
X126873467Y-95550499D01*
X127076420Y-95510130D01*
X127267598Y-95430941D01*
X127439655Y-95315977D01*
X127585977Y-95169655D01*
X127700941Y-94997598D01*
X127769165Y-94832889D01*
X127813004Y-94778488D01*
X127879298Y-94756423D01*
X127946998Y-94773702D01*
X127994609Y-94824839D01*
X128001656Y-94842026D01*
X128058904Y-95018216D01*
X128155375Y-95207550D01*
X128194728Y-95261716D01*
X128827037Y-94629408D01*
X128844075Y-94692993D01*
X128909901Y-94807007D01*
X129002993Y-94900099D01*
X129117007Y-94965925D01*
X129180590Y-94982962D01*
X128548282Y-95615269D01*
X128548282Y-95615270D01*
X128602449Y-95654624D01*
X128791782Y-95751095D01*
X128993870Y-95816757D01*
X129203754Y-95850000D01*
X129416246Y-95850000D01*
X129626127Y-95816757D01*
X129626130Y-95816757D01*
X129828220Y-95751094D01*
X129839109Y-95745546D01*
X129839111Y-95745545D01*
X130017554Y-95654622D01*
X130071716Y-95615270D01*
X130071717Y-95615270D01*
X129439408Y-94982962D01*
X129502993Y-94965925D01*
X129617007Y-94900099D01*
X129710099Y-94807007D01*
X129775925Y-94692993D01*
X129792962Y-94629409D01*
X130425270Y-95261717D01*
X130425270Y-95261716D01*
X130464622Y-95207554D01*
X130531017Y-95077249D01*
X181883135Y-95077249D01*
X182416236Y-95610349D01*
X182416237Y-95610349D01*
X182949335Y-95077250D01*
X182949334Y-95077249D01*
X182905732Y-95048115D01*
X182717668Y-94970216D01*
X182717660Y-94970214D01*
X182518020Y-94930503D01*
X182314451Y-94930503D01*
X182114811Y-94970214D01*
X182114803Y-94970216D01*
X181926743Y-95048113D01*
X181883135Y-95077249D01*
X130531017Y-95077249D01*
X130536155Y-95067165D01*
X130536156Y-95067163D01*
X130561094Y-95018219D01*
X130626757Y-94816130D01*
X130626757Y-94816127D01*
X130660000Y-94606246D01*
X130660000Y-94393753D01*
X130626757Y-94183872D01*
X130626757Y-94183869D01*
X130561095Y-93981782D01*
X130464624Y-93792449D01*
X130425270Y-93738282D01*
X130425269Y-93738282D01*
X129792962Y-94370590D01*
X129775925Y-94307007D01*
X129710099Y-94192993D01*
X129617007Y-94099901D01*
X129502993Y-94034075D01*
X129439409Y-94017037D01*
X130071716Y-93384728D01*
X130017550Y-93345375D01*
X129828217Y-93248904D01*
X129626129Y-93183242D01*
X129416246Y-93150000D01*
X129203754Y-93150000D01*
X128993872Y-93183242D01*
X128993869Y-93183242D01*
X128791782Y-93248904D01*
X128602439Y-93345380D01*
X128548282Y-93384727D01*
X128548282Y-93384728D01*
X129180591Y-94017037D01*
X129117007Y-94034075D01*
X129002993Y-94099901D01*
X128909901Y-94192993D01*
X128844075Y-94307007D01*
X128827037Y-94370591D01*
X128194728Y-93738282D01*
X128194727Y-93738282D01*
X128155380Y-93792439D01*
X128058905Y-93981781D01*
X128001656Y-94157974D01*
X127962218Y-94215649D01*
X127897859Y-94242847D01*
X127829013Y-94230932D01*
X127777537Y-94183688D01*
X127769164Y-94167107D01*
X127700943Y-94002405D01*
X127585975Y-93830342D01*
X127439657Y-93684024D01*
X127271655Y-93571770D01*
X127267598Y-93569059D01*
X127076420Y-93489870D01*
X127076412Y-93489868D01*
X126873469Y-93449500D01*
X126873465Y-93449500D01*
X126666535Y-93449500D01*
X126666530Y-93449500D01*
X126463587Y-93489868D01*
X126463579Y-93489870D01*
X126272403Y-93569058D01*
X126100342Y-93684024D01*
X125954024Y-93830342D01*
X125839058Y-94002403D01*
X125759870Y-94193579D01*
X125759868Y-94193587D01*
X125719500Y-94396530D01*
X125280499Y-94396530D01*
X125240130Y-94193580D01*
X125160941Y-94002402D01*
X125045977Y-93830345D01*
X125045975Y-93830342D01*
X124899657Y-93684024D01*
X124731655Y-93571770D01*
X124727598Y-93569059D01*
X124672298Y-93546153D01*
X124536420Y-93489870D01*
X124536412Y-93489868D01*
X124333469Y-93449500D01*
X124333465Y-93449500D01*
X124126535Y-93449500D01*
X124126530Y-93449500D01*
X123923587Y-93489868D01*
X123923579Y-93489870D01*
X123732403Y-93569058D01*
X123560342Y-93684024D01*
X123414024Y-93830342D01*
X123299058Y-94002403D01*
X123219870Y-94193579D01*
X123219868Y-94193587D01*
X123179500Y-94396530D01*
X122740500Y-94396530D01*
X122740500Y-93630249D01*
X122740499Y-93630247D01*
X122728868Y-93571770D01*
X122728867Y-93571769D01*
X122684552Y-93505447D01*
X122618230Y-93461132D01*
X122618229Y-93461131D01*
X122559752Y-93449500D01*
X122559748Y-93449500D01*
X120820252Y-93449500D01*
X120820247Y-93449500D01*
X120761770Y-93461131D01*
X120761769Y-93461132D01*
X120695447Y-93505447D01*
X120651132Y-93571769D01*
X120651131Y-93571770D01*
X120639500Y-93630247D01*
X115950385Y-93630247D01*
X115983004Y-93508514D01*
X115983004Y-93376862D01*
X115948929Y-93249695D01*
X115916016Y-93192688D01*
X116833004Y-93192688D01*
X116833004Y-92544860D01*
X116833003Y-92544843D01*
X116826602Y-92485315D01*
X116826600Y-92485308D01*
X116776358Y-92350601D01*
X116776354Y-92350594D01*
X116690194Y-92235500D01*
X116690191Y-92235497D01*
X116575097Y-92149337D01*
X116575090Y-92149333D01*
X116440383Y-92099091D01*
X116440376Y-92099089D01*
X116380848Y-92092688D01*
X115733004Y-92092688D01*
X115733004Y-93009676D01*
X115675997Y-92976763D01*
X115548830Y-92942688D01*
X115417178Y-92942688D01*
X115290011Y-92976763D01*
X115233004Y-93009676D01*
X115233004Y-92092688D01*
X114585159Y-92092688D01*
X114525631Y-92099089D01*
X114525624Y-92099091D01*
X114390917Y-92149333D01*
X114390910Y-92149337D01*
X114275816Y-92235497D01*
X114275813Y-92235500D01*
X114189653Y-92350594D01*
X114189649Y-92350601D01*
X114139407Y-92485308D01*
X114139405Y-92485315D01*
X114133004Y-92544843D01*
X114133004Y-92947123D01*
X114113319Y-93014162D01*
X114060515Y-93059917D01*
X113991357Y-93069861D01*
X113927801Y-93040836D01*
X113894443Y-92994576D01*
X113873945Y-92945091D01*
X113873945Y-92945090D01*
X113758981Y-92773033D01*
X113758979Y-92773030D01*
X113612661Y-92626712D01*
X113490134Y-92544843D01*
X113440602Y-92511747D01*
X113249424Y-92432558D01*
X113249416Y-92432556D01*
X113046473Y-92392188D01*
X113046469Y-92392188D01*
X112839539Y-92392188D01*
X112839534Y-92392188D01*
X112636591Y-92432556D01*
X112636583Y-92432558D01*
X112445407Y-92511746D01*
X112273346Y-92626712D01*
X112127028Y-92773030D01*
X112012062Y-92945091D01*
X111932874Y-93136267D01*
X111932872Y-93136275D01*
X111892504Y-93339218D01*
X111453503Y-93339218D01*
X111413134Y-93136268D01*
X111333945Y-92945090D01*
X111218981Y-92773033D01*
X111218979Y-92773030D01*
X111072661Y-92626712D01*
X110950134Y-92544843D01*
X110900602Y-92511747D01*
X110709424Y-92432558D01*
X110709416Y-92432556D01*
X110506473Y-92392188D01*
X110506469Y-92392188D01*
X110299539Y-92392188D01*
X110299534Y-92392188D01*
X110096591Y-92432556D01*
X110096583Y-92432558D01*
X109905407Y-92511746D01*
X109733346Y-92626712D01*
X109587028Y-92773030D01*
X109472062Y-92945091D01*
X109392874Y-93136267D01*
X109392872Y-93136275D01*
X109352504Y-93339218D01*
X99991441Y-93339218D01*
X100096853Y-93173755D01*
X100103049Y-93164905D01*
X100335430Y-92862060D01*
X100342368Y-92853791D01*
X100600260Y-92572352D01*
X100607886Y-92564726D01*
X100889325Y-92306834D01*
X100897594Y-92299896D01*
X101200439Y-92067515D01*
X101209278Y-92061325D01*
X101531234Y-91856217D01*
X101540579Y-91850822D01*
X101879172Y-91674561D01*
X101888946Y-91670003D01*
X102241629Y-91523917D01*
X102251761Y-91520230D01*
X102615819Y-91405443D01*
X102626248Y-91402648D01*
X102998936Y-91320024D01*
X103009566Y-91318151D01*
X103388028Y-91268326D01*
X103398761Y-91267386D01*
X103782819Y-91250617D01*
X103787998Y-91250500D01*
X103851426Y-91250500D01*
X103851864Y-91250382D01*
X104663908Y-91248939D01*
X104680314Y-91250001D01*
G37*
%TD.AperFunction*%
%TD*%
M02*
