M48
; DRILL file KiCad 10.0.1 date 2026-09-12T21:44:09
; FORMAT={-:-/ absolute / metric / decimal}
; #@! TF.CreationDate,2026-09-12T21:44:09+01:00
; #@! TF.GenerationSoftware,Kicad,Pcbnew,10.0.1
; #@! TF.FileFunction,Plated,1,4,PTH
FMAT,2
METRIC
; #@! TA.AperFunction,Plated,PTH,ViaDrill
T1C0.300
; #@! TA.AperFunction,Plated,PTH,ComponentDrill
T2C0.500
; #@! TA.AperFunction,Plated,PTH,ComponentDrill
T3C0.750
; #@! TA.AperFunction,Plated,PTH,ComponentDrill
T4C1.000
%
G90
G05
T1
X99.786Y-96.25
X99.786Y-103.0
X99.786Y-109.5
X99.786Y-115.75
X99.786Y-122.75
X99.786Y-129.5
X102.256Y-113.519
X103.75Y-107.25
X104.532Y-110.719
X106.0Y-134.5
X107.0Y-92.25
X107.5Y-103.0
X107.955Y-109.477
X108.16Y-111.879
X108.317Y-118.879
X109.0Y-122.05
X109.05Y-124.1
X110.387Y-117.31
X110.464Y-105.321
X111.45Y-125.95
X111.5Y-128.0
X111.733Y-99.482
X111.8Y-122.05
X111.8Y-124.1
X112.176Y-101.835
X112.75Y-134.5
X113.0Y-117.5
X113.318Y-120.25
X113.582Y-115.061
X113.63Y-110.38
X113.711Y-108.684
X113.717Y-107.69
X114.0Y-104.5
X114.0Y-113.5
X114.25Y-125.95
X114.25Y-128.0
X114.411Y-122.554
X114.5Y-109.726
X114.893Y-100.107
X115.636Y-99.149
X115.745Y-110.441
X115.75Y-108.25
X116.05Y-129.0
X116.397Y-97.157
X116.707Y-118.856
X117.377Y-131.666
X117.45Y-109.2
X118.0Y-103.5
X118.396Y-126.177
X118.461Y-114.007
X118.598Y-131.684
X119.204Y-115.746
X119.45Y-109.2
X119.836Y-97.61
X120.569Y-103.931
X120.95Y-108.2
X121.1Y-119.0
X121.75Y-120.25
X122.0Y-107.25
X122.5Y-114.75
X123.0Y-134.5
X124.0Y-115.5
X124.723Y-112.269
X124.802Y-115.698
X125.5Y-108.5
X125.849Y-104.958
X125.979Y-124.653
X126.172Y-103.957
X126.352Y-120.09
X129.45Y-96.45
X129.5Y-98.5
X130.4Y-119.0
X131.5Y-109.5
X131.5Y-111.612
X131.5Y-113.5
X131.759Y-102.942
X132.25Y-96.45
X132.25Y-98.5
X133.1Y-120.8
X133.15Y-122.85
X134.1Y-101.9
X135.0Y-92.0
X135.438Y-108.519
X135.9Y-120.8
X135.9Y-122.85
X136.25Y-119.5
X136.6Y-99.9
X136.7Y-113.4
X137.0Y-134.5
X137.9Y-128.2
X138.0Y-104.6
X139.2Y-102.1
X139.6Y-111.35
X139.65Y-113.4
X140.2Y-123.2
X141.4Y-128.4
X141.5Y-92.0
X141.5Y-99.8
X142.25Y-120.9
X142.4Y-109.4
X142.4Y-111.35
X142.4Y-113.4
X142.75Y-134.5
X143.0Y-128.35
X143.249Y-108.5
X143.5Y-105.925
X143.75Y-120.9
X143.8Y-122.2
X144.049Y-110.529
X144.1Y-102.0
X144.5Y-128.35
X145.478Y-112.478
X145.5Y-105.0
X146.034Y-113.053
X146.1Y-128.3
X147.5Y-92.0
X147.6Y-99.8
X148.0Y-112.5
X148.171Y-109.334
X148.5Y-134.5
X150.0Y-122.5
X150.673Y-108.935
X152.302Y-94.0
X152.302Y-98.277
X152.302Y-102.77
X152.302Y-107.16
X152.302Y-111.55
X152.302Y-115.94
X152.302Y-120.33
X152.302Y-124.72
X152.302Y-129.11
X152.302Y-133.5
X153.917Y-109.129
X154.175Y-133.089
X154.732Y-100.054
X154.965Y-103.755
X155.175Y-133.089
X155.2Y-114.7
X156.0Y-134.5
X156.175Y-133.089
X156.577Y-111.107
X156.75Y-92.0
X156.75Y-117.0
X158.0Y-112.0
X158.719Y-104.915
X159.0Y-129.5
X159.595Y-102.305
X159.744Y-111.031
X160.0Y-97.5
X160.007Y-109.292
X160.232Y-129.502
X160.79Y-104.522
X161.502Y-129.5
X162.75Y-134.5
X162.983Y-113.75
X163.206Y-122.883
X163.5Y-92.0
X163.714Y-111.0
X163.75Y-106.447
X163.75Y-131.5
X164.187Y-108.254
X164.5Y-122.874
X164.5Y-131.5
X164.5Y-133.0
X164.5Y-134.5
X164.763Y-115.733
X165.458Y-113.665
X166.0Y-134.5
X166.05Y-120.15
X166.098Y-103.5
X166.1Y-132.0
X166.25Y-124.75
X167.0Y-117.6
X167.0Y-125.5
X167.2Y-109.9
X167.238Y-115.58
X167.7Y-124.875
X169.0Y-92.0
X169.0Y-101.8
X169.6Y-124.8
X170.4Y-105.6
X170.5Y-113.8
X171.5Y-99.5
X171.5Y-101.55
X172.0Y-111.5
X172.0Y-116.9
X172.4Y-125.0
X172.75Y-119.8
X174.3Y-99.5
X174.3Y-101.55
X174.9Y-110.5
X174.946Y-107.973
X175.0Y-92.0
X175.5Y-119.8
X176.549Y-110.678
X176.933Y-109.267
X177.0Y-114.67
X177.436Y-118.525
X177.8Y-107.2
X178.75Y-119.8
X178.8Y-121.85
X178.924Y-98.826
X179.0Y-128.0
X179.5Y-134.5
X180.316Y-94.814
X180.5Y-113.0
X181.9Y-99.15
X181.9Y-101.2
X181.9Y-103.35
X181.9Y-105.4
X182.1Y-110.9
X182.2Y-114.7
X182.35Y-119.8
X182.35Y-121.85
X182.6Y-108.2
X184.7Y-99.15
X184.7Y-101.2
X184.7Y-103.35
X184.7Y-105.4
X185.9Y-95.75
X185.95Y-97.8
X186.0Y-119.8
X186.0Y-121.85
X187.1Y-108.9
X187.7Y-92.0
X188.7Y-95.75
X188.7Y-97.8
X189.0Y-103.0
X191.0Y-100.0
X191.05Y-102.05
X191.664Y-113.76
X192.75Y-134.5
X193.7Y-92.0
X193.8Y-102.05
X194.851Y-109.699
X194.882Y-115.415
X195.9Y-103.7
X195.95Y-105.75
X198.7Y-103.7
X198.7Y-105.75
X199.25Y-96.25
X199.25Y-109.5
X199.25Y-115.75
X199.25Y-122.75
X199.25Y-129.0
T2
X116.117Y-130.5
X117.367Y-130.5
X118.617Y-130.5
X141.506Y-129.8
X141.506Y-131.4
X141.506Y-133.0
X143.006Y-129.8
X143.006Y-133.0
X144.506Y-129.8
X144.506Y-133.0
X146.006Y-129.8
X146.006Y-131.4
X146.006Y-133.0
X169.85Y-130.5
X171.1Y-130.5
X172.35Y-130.5
X179.05Y-95.9
X180.3Y-95.9
X181.55Y-95.9
T3
X193.55Y-110.5
X193.55Y-112.5
X193.55Y-114.5
T4
X103.8Y-121.26
X103.8Y-123.8
X110.403Y-93.443
X112.943Y-93.443
X115.483Y-93.443
X120.42Y-94.0
X122.96Y-94.0
X125.5Y-94.0
X128.04Y-94.0
X130.58Y-94.0
X130.658Y-125.85
X133.158Y-125.85
M30
