M48
; DRILL file KiCad 10.0.0 date 2026-04-23T23:16:23
; FORMAT={-:-/ absolute / metric / decimal}
; #@! TF.CreationDate,2026-04-23T23:16:23+01:00
; #@! TF.GenerationSoftware,Kicad,Pcbnew,10.0.0
; #@! TF.FileFunction,Plated,1,4,PTH
FMAT,2
METRIC
; #@! TA.AperFunction,Plated,PTH,ViaDrill
T1C0.300
; #@! TA.AperFunction,Plated,PTH,ComponentDrill
T2C0.500
; #@! TA.AperFunction,Plated,PTH,ComponentDrill
T3C0.559
; #@! TA.AperFunction,Plated,PTH,ComponentDrill
T4C0.750
; #@! TA.AperFunction,Plated,PTH,ComponentDrill
T5C0.800
; #@! TA.AperFunction,Plated,PTH,ComponentDrill
T6C1.000
%
G90
G05
T1
X99.786Y-96.25
X99.786Y-103.0
X99.786Y-109.5
X99.786Y-115.75
X99.786Y-122.75
X99.786Y-129.5
X102.256Y-113.519
X103.75Y-107.25
X104.532Y-110.719
X106.0Y-134.5
X107.0Y-92.25
X107.75Y-102.5
X107.955Y-109.477
X108.16Y-111.879
X108.25Y-125.25
X108.492Y-118.604
X110.387Y-117.31
X110.464Y-105.321
X111.733Y-99.482
X112.176Y-101.835
X112.75Y-134.5
X113.0Y-117.5
X113.318Y-120.25
X113.582Y-115.061
X113.63Y-110.38
X113.711Y-108.684
X113.717Y-107.69
X114.0Y-104.5
X114.0Y-130.5
X114.411Y-122.554
X114.5Y-109.726
X114.5Y-113.701
X114.5Y-127.0
X114.893Y-100.107
X115.636Y-99.149
X115.745Y-110.441
X115.75Y-108.25
X116.707Y-118.856
X117.107Y-111.225
X117.377Y-131.666
X118.0Y-103.5
X118.396Y-126.177
X118.461Y-114.007
X118.598Y-131.684
X119.204Y-115.746
X119.853Y-97.899
X120.569Y-103.931
X121.0Y-92.0
X121.75Y-120.25
X122.0Y-107.25
X122.5Y-114.75
X123.0Y-134.5
X124.0Y-115.5
X124.802Y-115.698
X125.5Y-108.5
X125.786Y-103.411
X125.849Y-104.958
X125.979Y-124.653
X126.284Y-100.216
X126.442Y-120.12
X127.75Y-92.0
X129.0Y-119.75
X131.341Y-111.612
X131.5Y-109.5
X131.5Y-113.5
X131.759Y-102.942
X133.0Y-119.5
X133.138Y-111.153
X133.156Y-124.082
X134.25Y-92.0
X135.438Y-108.519
X136.25Y-119.5
X137.0Y-134.5
X137.762Y-104.543
X138.223Y-121.402
X140.5Y-92.0
X141.0Y-112.0
X142.506Y-122.954
X142.75Y-134.5
X143.249Y-108.5
X143.5Y-105.925
X144.049Y-110.529
X145.478Y-112.478
X145.5Y-105.0
X146.034Y-113.053
X147.5Y-92.0
X148.0Y-112.5
X148.171Y-109.334
X148.5Y-134.5
X149.374Y-122.73
X150.673Y-108.935
X152.302Y-94.0
X152.302Y-98.277
X152.302Y-102.77
X152.302Y-107.16
X152.302Y-111.55
X152.302Y-115.94
X152.302Y-120.33
X152.302Y-124.72
X152.302Y-129.11
X152.302Y-133.5
X153.917Y-109.129
X154.732Y-100.054
X154.965Y-103.755
X155.0Y-114.5
X155.662Y-131.677
X156.25Y-134.5
X156.577Y-111.107
X156.75Y-92.0
X156.75Y-117.0
X158.0Y-112.0
X158.719Y-104.915
X159.0Y-129.5
X159.595Y-102.305
X160.0Y-97.5
X160.0Y-111.0
X160.232Y-129.502
X160.79Y-104.522
X161.502Y-129.5
X161.665Y-109.368
X162.75Y-134.5
X162.983Y-113.75
X163.206Y-122.883
X163.5Y-92.0
X163.714Y-111.0
X163.75Y-106.447
X163.75Y-131.5
X164.178Y-108.165
X164.5Y-122.874
X164.763Y-115.733
X165.384Y-132.313
X165.458Y-113.665
X165.809Y-120.988
X166.098Y-103.5
X166.25Y-124.75
X166.5Y-127.25
X167.0Y-125.5
X167.086Y-118.259
X167.238Y-115.58
X167.441Y-108.979
X167.563Y-124.78
X168.25Y-134.5
X168.602Y-130.75
X168.864Y-113.653
X169.0Y-92.0
X169.189Y-124.813
X169.868Y-130.751
X170.0Y-106.0
X170.5Y-115.462
X170.584Y-124.755
X171.749Y-112.63
X171.75Y-97.5
X171.75Y-102.75
X172.354Y-126.656
X172.958Y-114.25
X173.75Y-134.5
X174.75Y-108.0
X174.822Y-115.207
X175.0Y-92.0
X176.5Y-121.25
X177.718Y-117.036
X177.899Y-127.632
X179.5Y-107.5
X179.5Y-134.5
X182.5Y-98.25
X182.5Y-109.25
X182.61Y-102.156
X183.666Y-94.714
X183.75Y-114.0
X183.75Y-121.25
X184.75Y-98.25
X184.75Y-112.0
X184.799Y-102.156
X186.362Y-119.886
X188.75Y-92.0
X189.0Y-103.0
X189.5Y-99.25
X191.977Y-110.736
X192.055Y-114.41
X192.75Y-134.5
X194.851Y-109.699
X194.882Y-115.415
X195.631Y-103.151
X199.25Y-96.25
X199.25Y-103.0
X199.25Y-109.5
X199.25Y-115.75
X199.25Y-122.75
X199.25Y-129.0
T2
X141.506Y-129.8
X141.506Y-131.4
X141.506Y-133.0
X143.006Y-129.8
X143.006Y-133.0
X144.506Y-129.8
X144.506Y-133.0
X146.006Y-129.8
X146.006Y-131.4
X146.006Y-133.0
X168.622Y-129.621
X169.872Y-129.621
X171.122Y-129.621
T3
X116.117Y-130.5
X117.367Y-130.5
X118.617Y-130.5
X119.867Y-130.5
X182.416Y-95.964
X183.666Y-95.964
T4
X193.55Y-110.5
X193.55Y-112.5
X193.55Y-114.5
T5
X104.0Y-122.25
X104.0Y-124.25
T6
X110.403Y-93.443
X112.943Y-93.443
X115.483Y-93.443
X121.69Y-94.5
X124.23Y-94.5
X126.77Y-94.5
X129.31Y-94.5
X130.658Y-125.85
X133.158Y-125.85
M30
